<svg xmlns="http://www.w3.org/2000/svg" width="100" height="100" fill="none"><path fill="snow" d="M100 50a49.8 49.8 0 0 1-11.084 31.395C79.751 92.743 65.723 100 50 100s-29.636-7.198-38.804-18.466A49.8 49.8 0 0 1 0 50C0 22.386 22.386 0 50 0s50 22.386 50 50"/><path fill="#D1D1DC" d="M88.916 81.395C79.751 92.743 65.723 100 50 100s-29.636-7.198-38.804-18.466c1.146-.665 3.278-1.813 7.021-3.575 6.609-3.11 9.33-3.693 11.273-4.859 1.944-1.166 5.75-7.288 6.139-7.418s.664.033.729-.227-1.328-2.235-2.235-5.312-.94-5.994-1.587-7.16c-.648-1.166-2.01-2.202-2.69-4.858-.68-2.657-.464-6.231.034-6.296.496-.065.54.734.799.626.26-.108-.346-3.39-.8-4.34-.453-.95-1.473-3.758-1.425-7.5s.065-5.036.81-6.43c.745-1.392 3.887-4.632 3.92-4.89.033-.26-3.564.97-3.92.485-.356-.486 7.16-6.803 11.889-8.033 4.73-1.231 9.33-1.685 14.966.259s6.251 4.244 6.446 4.794.097.518.713.583c.615.065 5.83.745 7.807 3.531 1.976 2.786 1.922 3.746 1.77 3.811-.15.065-2.03-2.31-2.504-2.051-.476.26 1.48-.53 1.673 6.274.194 6.802-2.527 12.957-2.106 13.41.421.454.94-.744 1.102-.55s.518 3.53-.26 6.122c-.777 2.592-1.748 3.855-2.429 4.212s-1.102 4.923-1.425 6.51c-.324 1.588-2.786 6.674-2.527 6.9.26.227.94-.486 3.11 3.046 2.17 3.53 3.887 4.729 4.989 5.086 1.101.356 12.385 5.68 13.81 6.349.853.4 1.87.894 2.63 1.362z"/></svg>