<svg width="440" height="361" viewBox="0 0 440 361" fill="none" xmlns="http://www.w3.org/2000/svg">
<g filter="url(#filter0_d_718_4536)">
<path d="M360.115 82.5098H95.078C87.7884 82.5098 81.8789 88.4209 81.8789 95.7127V250.815C81.8789 258.106 87.7884 264.017 95.078 264.017H360.115C367.405 264.017 373.314 258.106 373.314 250.815V95.7127C373.314 88.4209 367.405 82.5098 360.115 82.5098Z" fill="white"/>
</g>
<path d="M138 169.414H322.501C326.144 169.414 329.097 172.368 329.097 176.012C329.097 179.655 326.144 182.61 322.501 182.61H138C134.357 182.61 131.404 179.655 131.404 176.012C131.404 172.368 134.357 169.414 138 169.414Z" fill="#BFBFBF"/>
<path d="M163.5 190.316H297.5C301.142 190.316 304.096 193.271 304.096 196.914C304.096 200.558 301.142 203.513 297.5 203.513H163.5C159.857 203.513 156.904 200.558 156.904 196.914C156.904 193.271 159.857 190.316 163.5 190.316Z" fill="#DCD8D8"/>
<path d="M200.001 211.212H259.5C263.142 211.212 266.096 214.167 266.096 217.81C266.096 221.454 263.142 224.409 259.5 224.409H200.001C196.358 224.409 193.405 221.454 193.405 217.81C193.405 214.167 196.358 211.212 200.001 211.212Z" fill="#DCD8D8"/>
<path d="M95.0713 82.5098H360.108C367.394 82.5098 373.307 88.4183 373.307 95.7127V125.417H81.8789V95.7127C81.8789 88.4251 87.7857 82.5098 95.078 82.5098H95.0713Z" fill="#0000FF"/>
<defs>
<filter id="filter0_d_718_4536" x="78.8789" y="79.5098" width="311.435" height="201.508" filterUnits="userSpaceOnUse" color-interpolation-filters="sRGB">
<feFlood flood-opacity="0" result="BackgroundImageFix"/>
<feColorMatrix in="SourceAlpha" type="matrix" values="0 0 0 0 0 0 0 0 0 0 0 0 0 0 0 0 0 0 127 0" result="hardAlpha"/>
<feOffset dx="7" dy="7"/>
<feGaussianBlur stdDeviation="5"/>
<feColorMatrix type="matrix" values="0 0 0 0 0.658824 0 0 0 0 0.658824 0 0 0 0 0.658824 0 0 0 0.25 0"/>
<feBlend mode="normal" in2="BackgroundImageFix" result="effect1_dropShadow_718_4536"/>
<feBlend mode="normal" in="SourceGraphic" in2="effect1_dropShadow_718_4536" result="shape"/>
</filter>
</defs>
</svg>
