<svg width="442" height="488" viewBox="0 0 442 488" fill="none" xmlns="http://www.w3.org/2000/svg">
<g clip-path="url(#clip0_718_4535)">
<g filter="url(#filter0_d_718_4535)">
<path d="M417.517 356.964H250.359C245.764 356.964 242.039 360.698 242.039 365.305V463.354C242.039 467.96 245.764 471.695 250.359 471.695H417.517C422.112 471.695 425.837 467.96 425.837 463.354V365.305C425.837 360.698 422.112 356.964 417.517 356.964Z" fill="white"/>
</g>
<path d="M263.539 411.896H405.03C407.327 411.896 409.19 413.765 409.19 416.067C409.19 418.369 407.327 420.237 405.03 420.237H263.539C261.243 420.237 259.379 418.369 259.379 416.067C259.379 413.765 261.243 411.896 263.539 411.896Z" fill="#BFBFBF"/>
<path d="M276.72 425.103H391.163C393.46 425.103 395.323 426.971 395.323 429.273C395.323 431.576 393.46 433.444 391.163 433.444H276.72C274.423 433.444 272.56 431.576 272.56 429.273C272.56 426.971 274.423 425.103 276.72 425.103Z" fill="#DCD8D8"/>
<path d="M295.447 438.316H372.436C374.733 438.316 376.596 440.184 376.596 442.487C376.596 444.789 374.733 446.657 372.436 446.657H295.447C293.15 446.657 291.287 444.789 291.287 442.487C291.287 440.184 293.15 438.316 295.447 438.316Z" fill="#DCD8D8"/>
<path d="M250.366 356.964H417.517C422.111 356.964 425.837 360.7 425.837 365.305V384.079H242.039V365.305C242.039 360.7 245.766 356.964 250.359 356.964H250.366Z" fill="#0000FF"/>
<g filter="url(#filter1_d_718_4535)">
<path d="M187.251 356.964H20.0927C15.4977 356.964 11.7727 360.698 11.7727 365.305V463.354C11.7727 467.96 15.4977 471.695 20.0927 471.695H187.251C191.846 471.695 195.571 467.96 195.571 463.354V365.305C195.571 360.698 191.846 356.964 187.251 356.964Z" fill="white"/>
</g>
<path d="M33.273 411.896H174.764C177.06 411.896 178.924 413.765 178.924 416.067C178.924 418.369 177.06 420.237 174.764 420.237H33.273C30.9764 420.237 29.113 418.369 29.113 416.067C29.113 413.765 30.9764 411.896 33.273 411.896Z" fill="#BFBFBF"/>
<path d="M46.4537 425.103H160.897C163.194 425.103 165.057 426.971 165.057 429.273C165.057 431.576 163.194 433.444 160.897 433.444H46.4537C44.157 433.444 42.2937 431.576 42.2937 429.273C42.2937 426.971 44.157 425.103 46.4537 425.103Z" fill="#DCD8D8"/>
<path d="M65.1808 438.316H142.17C144.466 438.316 146.33 440.184 146.33 442.487C146.33 444.789 144.466 446.657 142.17 446.657H65.1808C62.8841 446.657 61.0208 444.789 61.0208 442.487C61.0208 440.184 62.8841 438.316 65.1808 438.316Z" fill="#DCD8D8"/>
<path d="M20.0927 356.964H187.244C191.837 356.964 195.564 360.7 195.564 365.305V384.079H11.7727V365.305C11.7727 360.7 15.4994 356.964 20.0927 356.964Z" fill="#0000FF"/>
<path d="M218.935 248.8V303.081" stroke="#0000FF" stroke-width="3" stroke-linecap="round" stroke-linejoin="round"/>
<path d="M103.848 357.189V330.044C103.848 315.05 115.975 302.9 130.925 302.9H306.937C321.895 302.9 334.013 315.057 334.013 330.044V357.189" stroke="#0000FF" stroke-width="3" stroke-linecap="round" stroke-linejoin="round"/>
<g filter="url(#filter2_d_718_4535)">
<path d="M289.965 223.343H306.793C319.684 223.343 335.45 213.409 341.582 201.13C359.529 165.261 336.006 129.11 304.684 129.11L304.106 128.567C302.495 93.9436 276.076 66.4375 243.706 66.4375C219.223 66.4375 197.939 82.4097 188.442 105.087C180.7 96.666 169.794 91.8729 158.369 91.8729C150.807 91.9308 143.375 93.8929 136.76 97.571C125.341 103.754 117.852 116.056 116.552 129.805C115.902 136.633 115.974 141.65 117.029 146.979C113.056 146.118 108.961 145.966 104.939 146.545C89.1942 149.057 76.6998 163.161 74.9376 180.27C72.5398 203.584 89.3242 223.336 110.355 223.336H167.173" fill="#DCD8D8"/>
</g>
<path d="M281.97 222.648V199.675C281.97 197.249 280.006 195.28 277.586 195.28H272.502C270.696 195.28 269.079 194.172 268.429 192.485C268.024 191.406 267.584 190.349 267.114 189.306C266.37 187.648 266.731 185.701 268.017 184.426L271.621 180.814C273.333 179.098 273.333 176.317 271.621 174.601L255.414 158.354C253.703 156.638 250.929 156.638 249.218 158.354L245.614 161.967C244.335 163.256 242.4 163.618 240.746 162.872C239.706 162.401 238.651 161.96 237.575 161.554C235.893 160.91 234.78 159.281 234.788 157.471V152.373C234.788 149.948 232.823 147.979 230.404 147.979H207.488C205.068 147.979 203.104 149.948 203.104 152.373V157.471C203.104 159.281 201.999 160.903 200.316 161.554C199.24 161.96 198.185 162.401 197.145 162.872C195.491 163.618 193.549 163.256 192.278 161.967L188.674 158.354C186.962 156.638 184.189 156.638 182.477 158.354L166.27 174.601C164.559 176.317 164.559 179.098 166.27 180.814L169.874 184.426C171.16 185.708 171.521 187.648 170.777 189.306C170.308 190.349 169.867 191.406 169.463 192.485C168.82 194.179 167.195 195.287 165.389 195.287H160.305C157.885 195.287 155.921 197.256 155.921 199.682V222.656C155.921 225.081 157.885 227.05 160.305 227.05H165.389C167.195 227.05 168.813 228.158 169.463 229.845C169.867 230.924 170.308 231.981 170.777 233.024C171.521 234.682 171.16 236.629 169.874 237.904L166.27 241.517C164.559 243.233 164.559 246.013 166.27 247.729L182.477 263.976C184.189 265.692 186.962 265.692 188.674 263.976L192.278 260.363C193.556 259.075 195.491 258.713 197.145 259.458C198.185 259.929 199.24 260.371 200.316 260.776C201.999 261.42 203.111 263.049 203.104 264.86V269.957C203.104 272.382 205.068 274.352 207.488 274.352H230.404C232.823 274.352 234.788 272.382 234.788 269.957V264.86C234.788 263.049 235.893 261.428 237.575 260.776C238.651 260.371 239.706 259.929 240.746 259.458C242.4 258.713 244.343 259.075 245.614 260.363L249.218 263.976C250.929 265.692 253.703 265.692 255.414 263.976L271.621 247.729C273.333 246.013 273.333 243.233 271.621 241.517L268.017 237.904C266.731 236.622 266.37 234.682 267.114 233.024C267.584 231.981 268.024 230.924 268.429 229.845C269.071 228.158 270.696 227.043 272.502 227.05H277.586C280.006 227.05 281.97 225.081 281.97 222.656" fill="#0000FF"/>
<path d="M218.811 235.667C232.313 235.667 243.258 224.694 243.258 211.158C243.258 197.622 232.313 186.649 218.811 186.649C205.309 186.649 194.364 197.622 194.364 211.158C194.364 224.694 205.309 235.667 218.811 235.667Z" stroke="white" stroke-width="3" stroke-linecap="round" stroke-linejoin="round"/>
<g filter="url(#filter3_d_718_4535)">
<path d="M42.2866 288.029C62.298 288.029 78.5205 271.765 78.5205 251.704C78.5205 231.642 62.298 215.379 42.2866 215.379C22.2752 215.379 6.05273 231.642 6.05273 251.704C6.05273 271.765 22.2752 288.029 42.2866 288.029Z" fill="#727BFF"/>
</g>
<path d="M57.3509 253.796C57.3365 261.551 51.4793 268.038 43.7876 268.82C43.7876 268.849 43.802 268.863 43.802 268.892V274.931H48.3159C49.1465 274.931 49.8182 275.604 49.8182 276.444C49.8182 277.277 49.1465 277.95 48.3159 277.95H36.2693C35.4387 277.95 34.7598 277.277 34.7598 276.444C34.7598 275.611 35.4315 274.931 36.262 274.931H40.7832V268.892C40.7832 268.892 40.7976 268.849 40.7976 268.82C33.1059 268.038 27.2415 261.558 27.227 253.803C27.227 252.971 27.8987 252.29 28.7293 252.29C29.5598 252.29 30.2387 252.964 30.2387 253.796C30.2387 260.465 35.6337 265.873 42.2854 265.873C48.937 265.873 54.3321 260.465 54.3321 253.796C54.3321 252.964 55.0037 252.283 55.8343 252.283C56.6648 252.283 57.3437 252.956 57.3437 253.789L57.3509 253.796ZM28.7365 243.225C29.567 243.225 30.2387 242.552 30.2387 241.719V237.194C30.2387 236.361 29.567 235.681 28.7365 235.681C27.9059 235.681 27.227 236.354 27.227 237.187V241.719C27.227 242.552 27.8987 243.225 28.7365 243.233V243.225ZM22.7132 232.662C21.8826 232.662 21.2109 233.342 21.2109 234.175V244.746C21.2109 245.578 21.8826 246.259 22.7132 246.259C23.5437 246.259 24.2226 245.586 24.2226 244.753V234.182C24.2226 233.349 23.5509 232.669 22.7204 232.669L22.7132 232.662ZM61.8648 232.662C61.0343 232.662 60.3626 233.342 60.3626 234.175V244.746C60.3626 245.578 61.0343 246.252 61.872 246.252C62.7026 246.252 63.3743 245.578 63.3743 244.746V234.175C63.3743 233.342 62.7026 232.662 61.872 232.662H61.8648ZM55.8415 235.681C55.0109 235.681 54.3393 236.354 54.3393 237.187V241.712C54.3393 242.545 55.0109 243.218 55.8487 243.218C56.6793 243.218 57.3509 242.545 57.3509 241.712V237.187C57.3509 236.354 56.6793 235.681 55.8487 235.681H55.8415ZM42.2926 261.341C46.4526 261.341 49.8182 257.959 49.8182 253.789V240.199C49.7748 236.028 46.3732 232.683 42.2204 232.727C38.1182 232.763 34.8032 236.094 34.767 240.199V253.782C34.767 257.952 38.1398 261.326 42.2998 261.333L42.2926 261.341Z" fill="#D5EBFF"/>
<g filter="url(#filter4_d_718_4535)">
<path d="M376.596 326.453C391.274 326.453 403.174 314.524 403.174 299.809C403.174 285.093 391.274 273.164 376.596 273.164C361.917 273.164 350.018 285.093 350.018 299.809C350.018 314.524 361.917 326.453 376.596 326.453Z" fill="#FF5454"/>
</g>
<path d="M389.538 284.372L389.372 293.893C389.351 294.711 388.679 295.363 387.863 295.356C387.451 295.356 386.866 295.262 386.584 295.631L383.732 298.896C383.573 299.077 383.291 299.099 383.111 298.94C383.009 298.853 382.959 298.73 382.959 298.599L383.002 296.116C383.009 295.653 382.641 295.262 382.172 295.254L371.504 295.066C370.696 295.052 370.046 294.378 370.06 293.567L370.226 284.032C370.241 283.221 370.912 282.569 371.721 282.584L388.094 282.873C388.903 282.888 389.553 283.561 389.538 284.372ZM375.773 287.456C374.978 287.464 374.343 288.123 374.357 288.919C374.364 289.679 374.964 290.302 375.722 290.338C376.517 290.331 377.152 289.672 377.138 288.876C377.131 288.115 376.531 287.493 375.773 287.456ZM379.824 287.529C379.03 287.536 378.394 288.195 378.409 288.991C378.416 289.752 379.016 290.374 379.774 290.411C380.568 290.403 381.204 289.744 381.189 288.948C381.182 288.188 380.583 287.565 379.824 287.529ZM383.869 287.594C383.074 287.551 382.396 288.159 382.359 288.955C382.316 289.752 382.923 290.432 383.717 290.468C384.512 290.512 385.191 289.904 385.227 289.107C385.227 289.093 385.227 289.071 385.227 289.057C385.241 288.282 384.642 287.63 383.862 287.594H383.869Z" fill="#FCCDCD"/>
<path d="M378.061 314.108C377.686 313.717 377.483 313.189 377.491 312.638C375.281 310.459 372.247 309.344 369.156 309.561V316.085C369.156 317.084 368.347 317.888 367.358 317.888C366.361 317.888 365.56 317.077 365.56 316.085V309.561C364.664 309.598 363.768 309.561 362.873 309.46C360.728 308.946 359.399 306.781 359.919 304.623C360.345 302.842 361.92 301.575 363.747 301.553C369.351 301.474 373.641 302.364 377.483 298.484C377.483 297.332 378.415 296.391 379.571 296.391C380.719 296.391 381.658 297.325 381.658 298.484V312.631C381.643 313.797 380.697 314.731 379.535 314.724C378.986 314.724 378.466 314.499 378.076 314.108H378.061Z" fill="#FCCDCD"/>
<g filter="url(#filter5_d_718_4535)">
<path d="M178.923 59.458C193.601 59.458 205.501 47.5288 205.501 32.8135C205.501 18.0981 193.601 6.16895 178.923 6.16895C164.244 6.16895 152.345 18.0981 152.345 32.8135C152.345 47.5288 164.244 59.458 178.923 59.458Z" fill="#FFC400"/>
</g>
<path fill-rule="evenodd" clip-rule="evenodd" d="M178.324 15.0817C178.714 14.9441 179.132 14.9441 179.522 15.0817L191.974 19.5418C192.681 19.7952 193.151 20.4685 193.151 21.2215V36.9403C193.151 39.974 191.612 42.7978 189.063 44.4413L179.876 50.3567C179.291 50.7332 178.54 50.7332 177.955 50.3567L168.776 44.4413C166.234 42.7978 164.688 39.974 164.688 36.9403V21.2215C164.688 20.4685 165.157 19.7952 165.865 19.5418L178.316 15.0817H178.324ZM185.517 30.5037C186.225 29.8231 186.254 28.6936 185.575 27.984C184.896 27.2745 183.769 27.2455 183.061 27.9261C183.04 27.9478 183.025 27.9623 183.004 27.984L177.146 33.8559L174.85 31.5535C174.142 30.8657 173.015 30.8874 172.336 31.5969C171.665 32.292 171.665 33.3853 172.336 34.0804L175.897 37.6499C176.59 38.345 177.717 38.345 178.41 37.6499L185.524 30.5181L185.517 30.5037Z" fill="#FFFAE1"/>
</g>
<defs>
<filter id="filter0_d_718_4535" x="239.039" y="353.964" width="203.798" height="134.73" filterUnits="userSpaceOnUse" color-interpolation-filters="sRGB">
<feFlood flood-opacity="0" result="BackgroundImageFix"/>
<feColorMatrix in="SourceAlpha" type="matrix" values="0 0 0 0 0 0 0 0 0 0 0 0 0 0 0 0 0 0 127 0" result="hardAlpha"/>
<feOffset dx="7" dy="7"/>
<feGaussianBlur stdDeviation="5"/>
<feColorMatrix type="matrix" values="0 0 0 0 0.658824 0 0 0 0 0.658824 0 0 0 0 0.658824 0 0 0 0.25 0"/>
<feBlend mode="normal" in2="BackgroundImageFix" result="effect1_dropShadow_718_4535"/>
<feBlend mode="normal" in="SourceGraphic" in2="effect1_dropShadow_718_4535" result="shape"/>
</filter>
<filter id="filter1_d_718_4535" x="8.77271" y="353.964" width="203.798" height="134.73" filterUnits="userSpaceOnUse" color-interpolation-filters="sRGB">
<feFlood flood-opacity="0" result="BackgroundImageFix"/>
<feColorMatrix in="SourceAlpha" type="matrix" values="0 0 0 0 0 0 0 0 0 0 0 0 0 0 0 0 0 0 127 0" result="hardAlpha"/>
<feOffset dx="7" dy="7"/>
<feGaussianBlur stdDeviation="5"/>
<feColorMatrix type="matrix" values="0 0 0 0 0.658824 0 0 0 0 0.658824 0 0 0 0 0.658824 0 0 0 0.25 0"/>
<feBlend mode="normal" in2="BackgroundImageFix" result="effect1_dropShadow_718_4535"/>
<feBlend mode="normal" in="SourceGraphic" in2="effect1_dropShadow_718_4535" result="shape"/>
</filter>
<filter id="filter2_d_718_4535" x="71.709" y="63.4375" width="293.094" height="176.906" filterUnits="userSpaceOnUse" color-interpolation-filters="sRGB">
<feFlood flood-opacity="0" result="BackgroundImageFix"/>
<feColorMatrix in="SourceAlpha" type="matrix" values="0 0 0 0 0 0 0 0 0 0 0 0 0 0 0 0 0 0 127 0" result="hardAlpha"/>
<feOffset dx="7" dy="7"/>
<feGaussianBlur stdDeviation="5"/>
<feColorMatrix type="matrix" values="0 0 0 0 0.658824 0 0 0 0 0.658824 0 0 0 0 0.658824 0 0 0 0.25 0"/>
<feBlend mode="normal" in2="BackgroundImageFix" result="effect1_dropShadow_718_4535"/>
<feBlend mode="normal" in="SourceGraphic" in2="effect1_dropShadow_718_4535" result="shape"/>
</filter>
<filter id="filter3_d_718_4535" x="3.05273" y="212.379" width="92.4678" height="92.6499" filterUnits="userSpaceOnUse" color-interpolation-filters="sRGB">
<feFlood flood-opacity="0" result="BackgroundImageFix"/>
<feColorMatrix in="SourceAlpha" type="matrix" values="0 0 0 0 0 0 0 0 0 0 0 0 0 0 0 0 0 0 127 0" result="hardAlpha"/>
<feOffset dx="7" dy="7"/>
<feGaussianBlur stdDeviation="5"/>
<feColorMatrix type="matrix" values="0 0 0 0 0.658824 0 0 0 0 0.658824 0 0 0 0 0.658824 0 0 0 0.25 0"/>
<feBlend mode="normal" in2="BackgroundImageFix" result="effect1_dropShadow_718_4535"/>
<feBlend mode="normal" in="SourceGraphic" in2="effect1_dropShadow_718_4535" result="shape"/>
</filter>
<filter id="filter4_d_718_4535" x="347.018" y="270.164" width="73.1555" height="73.2891" filterUnits="userSpaceOnUse" color-interpolation-filters="sRGB">
<feFlood flood-opacity="0" result="BackgroundImageFix"/>
<feColorMatrix in="SourceAlpha" type="matrix" values="0 0 0 0 0 0 0 0 0 0 0 0 0 0 0 0 0 0 127 0" result="hardAlpha"/>
<feOffset dx="7" dy="7"/>
<feGaussianBlur stdDeviation="5"/>
<feColorMatrix type="matrix" values="0 0 0 0 0.658824 0 0 0 0 0.658824 0 0 0 0 0.658824 0 0 0 0.25 0"/>
<feBlend mode="normal" in2="BackgroundImageFix" result="effect1_dropShadow_718_4535"/>
<feBlend mode="normal" in="SourceGraphic" in2="effect1_dropShadow_718_4535" result="shape"/>
</filter>
<filter id="filter5_d_718_4535" x="149.345" y="3.16895" width="73.1555" height="73.2891" filterUnits="userSpaceOnUse" color-interpolation-filters="sRGB">
<feFlood flood-opacity="0" result="BackgroundImageFix"/>
<feColorMatrix in="SourceAlpha" type="matrix" values="0 0 0 0 0 0 0 0 0 0 0 0 0 0 0 0 0 0 127 0" result="hardAlpha"/>
<feOffset dx="7" dy="7"/>
<feGaussianBlur stdDeviation="5"/>
<feColorMatrix type="matrix" values="0 0 0 0 0.658824 0 0 0 0 0.658824 0 0 0 0 0.658824 0 0 0 0.25 0"/>
<feBlend mode="normal" in2="BackgroundImageFix" result="effect1_dropShadow_718_4535"/>
<feBlend mode="normal" in="SourceGraphic" in2="effect1_dropShadow_718_4535" result="shape"/>
</filter>
<clipPath id="clip0_718_4535">
<rect width="442" height="488" fill="white"/>
</clipPath>
</defs>
</svg>
