<svg width="442" height="488" viewBox="0 0 442 488" fill="none" xmlns="http://www.w3.org/2000/svg">
<g clip-path="url(#clip0_718_4535)">
<path d="M218.935 248.8V303.081" stroke="url(#paint0_linear_718_4535)" stroke-width="3" stroke-linecap="round" stroke-linejoin="round"/>
<path d="M103.848 357.189V330.044C103.848 315.05 115.975 302.9 130.925 302.9H306.937C321.895 302.9 334.013 315.057 334.013 330.044V357.189" stroke="url(#paint1_linear_718_4535)" stroke-width="3" stroke-linecap="round" stroke-linejoin="round"/>
<path d="M155.921 199.682L155.921 222.655C155.921 225.081 157.885 227.05 160.305 227.05L165.389 227.05C167.195 227.05 168.813 228.158 169.463 229.845C169.867 230.924 170.308 231.981 170.777 233.024C171.521 234.682 171.16 236.629 169.874 237.904L166.27 241.517C164.559 243.233 164.559 246.013 166.27 247.729L182.477 263.976C184.189 265.692 186.962 265.692 188.674 263.976L192.278 260.363C193.556 259.074 195.492 258.712 197.145 259.458C198.185 259.929 199.24 260.37 200.316 260.776C201.999 261.42 203.111 263.049 203.104 264.859L203.104 269.957C203.104 272.382 205.068 274.352 207.488 274.352L230.404 274.352C232.823 274.352 234.788 272.382 234.788 269.957L234.788 264.859C234.788 263.049 235.893 261.428 237.575 260.776C238.652 260.37 239.706 259.929 240.746 259.458C242.4 258.712 244.343 259.074 245.614 260.363L249.218 263.976C250.929 265.692 253.703 265.692 255.414 263.976L271.621 247.729C273.333 246.013 273.333 243.233 271.621 241.517L268.017 237.904C266.732 236.622 266.37 234.682 267.114 233.024C267.584 231.981 268.024 230.924 268.429 229.845C269.072 228.151 270.697 227.043 272.502 227.043L277.587 227.043C280.006 227.043 281.97 225.074 281.97 222.648L281.97 199.675C281.97 197.249 280.006 195.28 277.587 195.28L272.502 195.28C270.697 195.28 269.079 194.172 268.429 192.485C268.024 191.406 267.584 190.349 267.114 189.306C266.37 187.648 266.732 185.701 268.017 184.426L271.621 180.813C273.333 179.097 273.333 176.317 271.621 174.601L255.414 158.354C253.703 156.638 250.929 156.638 249.218 158.354L245.614 161.967C244.335 163.256 242.4 163.618 240.746 162.872C239.706 162.401 238.652 161.959 237.575 161.554C235.893 160.91 234.78 159.281 234.788 157.47L234.788 152.373C234.788 149.948 232.823 147.978 230.404 147.978L207.488 147.978C205.068 147.978 203.104 149.948 203.104 152.373L203.104 157.47C203.104 159.281 201.999 160.902 200.316 161.554C199.24 161.959 198.185 162.401 197.145 162.872C195.492 163.618 193.549 163.256 192.278 161.967L188.674 158.354C186.962 156.638 184.189 156.638 182.477 158.354L166.27 174.601C164.559 176.317 164.559 179.097 166.27 180.813L169.874 184.426C171.16 185.708 171.521 187.648 170.777 189.306C170.308 190.349 169.867 191.406 169.463 192.485C168.82 194.172 167.195 195.287 165.389 195.28L160.305 195.28C157.885 195.28 155.921 197.249 155.921 199.675" fill="#0000FF"/>
<path d="M219.08 186.663C205.579 186.663 194.633 197.636 194.633 211.172C194.633 224.708 205.579 235.681 219.08 235.681C232.582 235.681 243.528 224.708 243.528 211.172C243.528 197.636 232.582 186.663 219.08 186.663Z" stroke="white" stroke-width="3" stroke-linecap="round" stroke-linejoin="round"/>
</g>
<defs>
<linearGradient id="paint0_linear_718_4535" x1="219.435" y1="248.8" x2="219.435" y2="266.083" gradientUnits="userSpaceOnUse">
<stop stop-color="#0000FF"/>
<stop offset="1" stop-color="#0000FF" stop-opacity="0"/>
</linearGradient>
<linearGradient id="paint1_linear_718_4535" x1="218.931" y1="265.359" x2="218.931" y2="295.769" gradientUnits="userSpaceOnUse">
<stop stop-color="#0000FF"/>
<stop offset="1" stop-color="#0000FF" stop-opacity="0"/>
</linearGradient>
<clipPath id="clip0_718_4535">
<rect width="442" height="488" fill="white"/>
</clipPath>
</defs>
</svg>
