<svg width="504" height="298" viewBox="0 0 504 298" fill="none" xmlns="http://www.w3.org/2000/svg">
<path d="M389.432 110.832L387.113 111.41C385.421 111.832 383.713 110.8 383.29 109.109L378.573 90.1587C378.15 88.4676 379.184 86.7605 380.876 86.3377L383.194 85.7597C384.886 85.337 386.594 86.3698 387.017 88.0609L391.734 107.011C392.157 108.702 391.124 110.409 389.437 110.832" fill="#0000FF"/>
<path d="M386.15 86.8459L378.761 88.6815C377.877 88.9009 376.978 88.3604 376.758 87.4774L376.373 85.9308C376.153 85.0478 376.694 84.1488 377.577 83.9294L384.966 82.0938C385.85 81.8744 386.75 82.4149 386.969 83.2979L387.355 84.8445C387.574 85.7275 387.033 86.6265 386.15 86.8459Z" fill="#D0D6EC"/>
<path d="M389.645 81.5963L369.111 86.7552C364.544 87.9004 359.902 84.7911 358.906 79.9159L357.176 71.4337C356.239 66.8421 358.89 62.3682 363.195 61.2872L384.419 55.9517L389.651 81.5909L389.645 81.5963Z" fill="#0000FF"/>
<path d="M378.107 57.5301C378.107 57.5301 407.679 35.1981 407.722 35.851C407.76 36.5038 420.915 85.6096 420.915 85.6096L384.292 82.8964C377.781 76.0304 376.126 67.4572 378.107 57.5247" fill="#DCD8D8"/>
<path d="M406.742 62.2502C410.223 76.2338 417.082 86.5623 422.056 85.326C427.03 84.0898 428.246 71.7492 424.76 57.7709C421.274 43.7874 414.426 33.4589 409.446 34.6951C404.472 35.9366 403.257 48.2719 406.742 62.2502Z" fill="#0000FF"/>
<path d="M421.269 82.1471C421.023 82.2059 419.223 81.6761 416.573 77.6839C413.88 73.6274 411.524 67.8692 409.928 61.458C408.333 55.0468 407.717 48.8551 408.188 44.012C408.654 39.2437 409.998 37.9326 410.244 37.8737C410.491 37.8149 412.29 38.3447 414.94 42.3369C417.633 46.3934 419.989 52.1517 421.585 58.5628C423.18 64.974 423.796 71.1657 423.32 76.0089C422.854 80.7771 421.51 82.0882 421.264 82.1471" fill="#DCD8D8"/>
<path d="M418.335 52.045L408.054 51.9326C408.981 58.3063 410.539 64.573 412.697 70.6416L421.478 65.6914" fill="black"/>
<path d="M418.576 59.9439C417.708 56.1764 416.113 53.3026 415.015 53.522C413.917 53.7414 413.73 56.9791 414.597 60.7466C415.465 64.5141 417.06 67.3879 418.158 67.1685C419.256 66.9491 419.443 63.7114 418.576 59.9439Z" fill="white"/>
<path d="M79.3865 236.002L85.2264 243.699C85.8191 244.48 86.9272 244.632 87.7089 244.039L90.3205 242.058C91.574 242.968 92.9105 243.748 94.3207 244.386L93.7509 248.53C93.6176 249.5 94.2976 250.396 95.2671 250.529L104.845 251.84C105.815 251.973 106.712 251.293 106.845 250.323L107.425 246.143C108.763 245.93 110.067 245.598 111.344 245.154L113.412 247.88C114.004 248.661 115.112 248.813 115.894 248.22L123.596 242.377C124.378 241.784 124.53 240.676 123.937 239.895L122.03 237.381C122.858 236.295 123.581 235.146 124.204 233.929L128.253 234.483C129.222 234.616 130.119 233.936 130.252 232.966L131.569 223.389C131.702 222.419 131.022 221.523 130.053 221.39L126.548 220.91C126.339 219.074 125.908 217.273 125.266 215.546L127.878 213.565C128.659 212.972 128.812 211.864 128.219 211.083L122.379 203.385C121.786 202.604 120.678 202.452 119.897 203.045L117.285 205.026C116.067 204.138 114.761 203.373 113.387 202.745L113.711 200.39C113.844 199.421 113.164 198.525 112.195 198.392L102.616 197.08C101.647 196.947 100.75 197.628 100.617 198.597L100.297 200.92C98.612 201.177 96.9596 201.629 95.3796 202.265L93.4728 199.751C92.8801 198.97 91.7721 198.818 90.9904 199.411L83.2887 205.254C82.507 205.847 82.3546 206.955 82.9473 207.737L85.015 210.462C84.0488 211.844 83.2415 213.334 82.6033 214.897L80.1102 214.555C79.1406 214.422 78.2438 215.103 78.1105 216.072L76.7936 225.65C76.6603 226.619 77.3403 227.516 78.3099 227.648L81.3463 228.064C81.5852 229.248 81.9153 230.4 82.3349 231.532L79.7233 233.513C78.9416 234.106 78.7892 235.214 79.3819 235.995" fill="#0000FF"/>
<path d="M92.7303 231.947C88.0896 225.83 89.2939 217.111 95.4081 212.472C101.528 207.829 110.248 209.029 114.884 215.14C119.52 221.251 118.32 229.976 112.206 234.614C106.092 239.253 97.3709 238.064 92.7303 231.947Z" fill="white"/>
<path d="M97.4869 228.338C94.8403 224.85 95.5244 219.875 99.0147 217.227C102.505 214.579 107.481 215.26 110.127 218.749C112.774 222.237 112.09 227.212 108.599 229.86C105.109 232.508 100.133 231.827 97.4869 228.338Z" fill="#0000FF"/>
<g filter="url(#filter0_d_718_4537)">
<path d="M316.489 280.546H168.536C156.351 280.546 146.471 270.67 146.471 258.492V29.9822C146.471 17.8038 156.343 7.92871 168.528 7.92871H316.489C328.674 7.92871 338.554 17.8038 338.554 29.9822V258.5C338.554 270.678 328.674 280.553 316.489 280.553" fill="white"/>
</g>
<path d="M338.546 43.8714V30.3093C338.546 17.6823 328.301 7.44238 315.667 7.44238H169.35C156.716 7.44238 146.471 17.6823 146.471 30.3093V43.8714H338.546Z" fill="#0000FF"/>
<path d="M179.138 25.6495C179.085 29.6177 175.822 32.7878 171.852 32.727C167.881 32.6662 164.71 29.4125 164.77 25.4442C164.824 21.514 168.026 18.3591 171.958 18.3667C175.951 18.3971 179.169 21.6584 179.146 25.6495" fill="white"/>
<path d="M207.402 25.6495C207.349 29.6177 204.086 32.7878 200.115 32.727C196.145 32.6661 192.973 29.4125 193.034 25.4442C193.087 21.5139 196.289 18.3667 200.222 18.3667C204.215 18.3971 207.432 21.6584 207.41 25.6495" fill="white"/>
<path d="M234.22 25.6495C234.167 29.6177 230.904 32.7878 226.934 32.727C222.963 32.6661 219.792 29.4125 219.852 25.4442C219.906 21.5139 223.108 18.3667 227.04 18.3667C231.033 18.3971 234.251 21.6584 234.228 25.6495" fill="white"/>
<path d="M239.522 75.1157C262.408 75.1157 280.967 93.6571 280.967 116.539C280.967 139.414 262.416 157.963 239.522 157.963C216.635 157.963 198.076 139.421 198.076 116.539C198.076 93.6647 216.627 75.1157 239.522 75.1157Z" fill="white"/>
<g filter="url(#filter1_d_718_4537)">
<path d="M426.528 219.372H284.584C279.29 219.372 275 215.084 275 209.793V124.757C275 119.466 279.29 115.178 284.584 115.178H426.528C431.822 115.178 436.111 119.466 436.111 124.757V209.793C436.111 215.084 431.822 219.372 426.528 219.372Z" fill="white"/>
</g>
<path d="M436.119 130.61V126.741C436.119 120.34 431.754 115.148 426.369 115.148H284.767C279.382 115.148 275.016 120.34 275.016 126.741V130.61H436.127H436.119Z" fill="#0000FF"/>
<path d="M288.508 122.902C288.486 124.765 286.949 126.255 285.086 126.232C283.222 126.209 281.731 124.674 281.754 122.811C281.777 120.964 283.283 119.481 285.131 119.481C287.01 119.497 288.516 121.025 288.508 122.902Z" fill="white"/>
<path d="M301.782 122.902C301.759 124.765 300.223 126.255 298.359 126.232C296.496 126.209 295.005 124.674 295.028 122.811C295.05 120.964 296.556 119.481 298.405 119.481C300.283 119.497 301.789 121.025 301.782 122.902Z" fill="white"/>
<path d="M314.376 122.902C314.353 124.765 312.816 126.255 310.953 126.232C309.089 126.209 307.599 124.674 307.621 122.811C307.644 120.964 309.15 119.481 310.998 119.481C312.877 119.497 314.383 121.025 314.376 122.902Z" fill="white"/>
<g filter="url(#filter2_d_718_4537)">
<path d="M194.376 172.27H71.3328C66.1835 172.27 62.0078 168.097 62.0078 162.95V89.9554C62.0078 84.8088 66.1835 80.6353 71.3328 80.6353H194.376C199.525 80.6353 203.701 84.8088 203.701 89.9554V162.95C203.701 168.097 199.525 172.27 194.376 172.27Z" fill="white"/>
</g>
<path d="M203.701 94.2124V90.8066C203.701 85.1735 199.86 80.6123 195.121 80.6123H70.5796C65.8411 80.6123 62 85.1735 62 90.8066V94.2124H203.693H203.701Z" fill="#0000FF"/>
<path d="M73.8801 87.4313C73.8573 89.0733 72.511 90.3809 70.8681 90.3581C69.2252 90.3353 67.9169 88.9897 67.9397 87.3477C67.9626 85.7208 69.286 84.4209 70.9137 84.4209C72.5642 84.4361 73.8877 85.7817 73.8801 87.4313Z" fill="white"/>
<path d="M85.5559 87.4313C85.533 89.0733 84.1868 90.3809 82.5439 90.3581C80.901 90.3353 79.5927 88.9897 79.6155 87.3477C79.6383 85.7208 80.9618 84.4209 82.5895 84.4209C84.24 84.4361 85.5635 85.7817 85.5559 87.4313Z" fill="white"/>
<path d="M96.6379 87.4313C96.6151 89.0733 95.2688 90.3809 93.6259 90.3581C91.983 90.3353 90.6747 88.9897 90.6976 87.3477C90.7204 85.7208 92.0438 84.4209 93.6715 84.4209C95.322 84.4361 96.6455 85.7817 96.6379 87.4313Z" fill="white"/>
<defs>
<filter id="filter0_d_718_4537" x="143.471" y="4.92871" width="212.083" height="292.625" filterUnits="userSpaceOnUse" color-interpolation-filters="sRGB">
<feFlood flood-opacity="0" result="BackgroundImageFix"/>
<feColorMatrix in="SourceAlpha" type="matrix" values="0 0 0 0 0 0 0 0 0 0 0 0 0 0 0 0 0 0 127 0" result="hardAlpha"/>
<feOffset dx="7" dy="7"/>
<feGaussianBlur stdDeviation="5"/>
<feColorMatrix type="matrix" values="0 0 0 0 0.658824 0 0 0 0 0.658824 0 0 0 0 0.658824 0 0 0 0.25 0"/>
<feBlend mode="normal" in2="BackgroundImageFix" result="effect1_dropShadow_718_4537"/>
<feBlend mode="normal" in="SourceGraphic" in2="effect1_dropShadow_718_4537" result="shape"/>
</filter>
<filter id="filter1_d_718_4537" x="272" y="112.178" width="181.111" height="124.193" filterUnits="userSpaceOnUse" color-interpolation-filters="sRGB">
<feFlood flood-opacity="0" result="BackgroundImageFix"/>
<feColorMatrix in="SourceAlpha" type="matrix" values="0 0 0 0 0 0 0 0 0 0 0 0 0 0 0 0 0 0 127 0" result="hardAlpha"/>
<feOffset dx="7" dy="7"/>
<feGaussianBlur stdDeviation="5"/>
<feColorMatrix type="matrix" values="0 0 0 0 0.658824 0 0 0 0 0.658824 0 0 0 0 0.658824 0 0 0 0.25 0"/>
<feBlend mode="normal" in2="BackgroundImageFix" result="effect1_dropShadow_718_4537"/>
<feBlend mode="normal" in="SourceGraphic" in2="effect1_dropShadow_718_4537" result="shape"/>
</filter>
<filter id="filter2_d_718_4537" x="59.0078" y="77.6353" width="161.693" height="111.635" filterUnits="userSpaceOnUse" color-interpolation-filters="sRGB">
<feFlood flood-opacity="0" result="BackgroundImageFix"/>
<feColorMatrix in="SourceAlpha" type="matrix" values="0 0 0 0 0 0 0 0 0 0 0 0 0 0 0 0 0 0 127 0" result="hardAlpha"/>
<feOffset dx="7" dy="7"/>
<feGaussianBlur stdDeviation="5"/>
<feColorMatrix type="matrix" values="0 0 0 0 0.658824 0 0 0 0 0.658824 0 0 0 0 0.658824 0 0 0 0.25 0"/>
<feBlend mode="normal" in2="BackgroundImageFix" result="effect1_dropShadow_718_4537"/>
<feBlend mode="normal" in="SourceGraphic" in2="effect1_dropShadow_718_4537" result="shape"/>
</filter>
</defs>
</svg>
