<svg width="474" height="347" viewBox="0 0 474 347" fill="none" xmlns="http://www.w3.org/2000/svg">
<g clip-path="url(#clip0_718_4534)">
<g filter="url(#filter0_d_718_4534)">
<path d="M364.513 5.6582H115.001C108.252 5.6582 102.78 11.1247 102.78 17.8679V320.069C102.78 326.812 108.252 332.278 115.001 332.278H364.513C371.262 332.278 376.734 326.812 376.734 320.069V17.8679C376.734 11.1247 371.262 5.6582 364.513 5.6582Z" fill="white"/>
</g>
<g filter="url(#filter1_d_718_4534)">
<path d="M447.006 129H306.462C299.713 129 294.241 134.466 294.241 141.21V313.169C294.241 319.912 299.713 325.379 306.462 325.379H447.006C453.755 325.379 459.226 319.912 459.226 313.169V141.21C459.226 134.466 453.755 129 447.006 129Z" fill="#DCD8D8"/>
</g>
<path opacity="0.09" d="M109.11 282.417L117.389 282.417C120.765 282.417 123.5 285.148 123.5 288.521C123.5 291.894 120.765 294.626 117.389 294.626L109.11 294.626C105.734 294.626 103 291.894 103 288.521C103 285.149 105.734 282.417 109.11 282.417Z" fill="#DCD8D8"/>
<path opacity="0.09" d="M109.11 260.037H136.889C140.265 260.037 143 262.769 143 266.141C143 269.514 140.265 272.246 136.889 272.246H109.11C105.734 272.246 103 269.514 103 266.141C103 262.769 105.734 260.037 109.11 260.037Z" fill="#DCD8D8"/>
<path opacity="0.09" d="M109.11 237.65L164.389 237.65C167.765 237.65 170.5 240.382 170.5 243.755C170.5 247.128 167.765 249.86 164.389 249.86L109.11 249.86C105.734 249.86 103 247.128 103 243.755C103 240.382 105.734 237.65 109.11 237.65Z" fill="#DCD8D8"/>
<path opacity="0.07" d="M262.672 178.634H123.146C119.209 178.634 116.018 181.822 116.018 185.755V199.879C116.018 203.812 119.209 207 123.146 207H262.672C266.609 207 269.8 203.812 269.8 199.879V185.755C269.8 181.822 266.609 178.634 262.672 178.634Z" fill="#DCD8D8"/>
<path d="M115.001 5.6582H364.513C371.265 5.6582 376.734 11.1222 376.734 17.8679V45.3431H102.78V17.8679C102.78 11.1222 108.249 5.6582 115.001 5.6582Z" fill="#0000FF"/>
<path d="M306.461 129H446.999C453.751 129 459.219 134.464 459.219 141.21V152.403H294.234V141.21C294.234 134.464 299.703 129 306.455 129H306.461Z" fill="#0000FF"/>
</g>
<defs>
<filter id="filter0_d_718_4534" x="99.7803" y="2.6582" width="293.953" height="346.62" filterUnits="userSpaceOnUse" color-interpolation-filters="sRGB">
<feFlood flood-opacity="0" result="BackgroundImageFix"/>
<feColorMatrix in="SourceAlpha" type="matrix" values="0 0 0 0 0 0 0 0 0 0 0 0 0 0 0 0 0 0 127 0" result="hardAlpha"/>
<feOffset dx="7" dy="7"/>
<feGaussianBlur stdDeviation="5"/>
<feColorMatrix type="matrix" values="0 0 0 0 0.658824 0 0 0 0 0.658824 0 0 0 0 0.658824 0 0 0 0.25 0"/>
<feBlend mode="normal" in2="BackgroundImageFix" result="effect1_dropShadow_718_4534"/>
<feBlend mode="normal" in="SourceGraphic" in2="effect1_dropShadow_718_4534" result="shape"/>
</filter>
<filter id="filter1_d_718_4534" x="291.241" y="126" width="184.985" height="216.379" filterUnits="userSpaceOnUse" color-interpolation-filters="sRGB">
<feFlood flood-opacity="0" result="BackgroundImageFix"/>
<feColorMatrix in="SourceAlpha" type="matrix" values="0 0 0 0 0 0 0 0 0 0 0 0 0 0 0 0 0 0 127 0" result="hardAlpha"/>
<feOffset dx="7" dy="7"/>
<feGaussianBlur stdDeviation="5"/>
<feColorMatrix type="matrix" values="0 0 0 0 0.658824 0 0 0 0 0.658824 0 0 0 0 0.658824 0 0 0 0.25 0"/>
<feBlend mode="normal" in2="BackgroundImageFix" result="effect1_dropShadow_718_4534"/>
<feBlend mode="normal" in="SourceGraphic" in2="effect1_dropShadow_718_4534" result="shape"/>
</filter>
<clipPath id="clip0_718_4534">
<rect width="474" height="347" fill="white"/>
</clipPath>
</defs>
</svg>
