<svg width="29" height="29" viewBox="0 0 29 29" fill="none" xmlns="http://www.w3.org/2000/svg">
<g clip-path="url(#clip0_966_4744)">
<path d="M23.6565 17.1173V8.02232C23.6565 7.5252 23.7463 7.43152 24.2389 7.43152C25.2586 7.43152 26.2776 7.43152 27.2961 7.43152C27.7163 7.43152 27.8262 7.54546 27.8262 7.97928C27.8262 14.064 27.8262 20.1484 27.8262 26.2326C27.8262 26.679 27.7155 26.7904 27.2745 26.7913C26.2554 26.7913 25.2364 26.7913 24.2173 26.7913C23.7571 26.7913 23.6581 26.6875 23.6581 26.2098C23.6565 23.1798 23.6559 20.149 23.6565 17.1173Z" fill="#FFF9ED"/>
<path d="M18.1528 19.0745C18.1528 16.7282 18.1528 14.3818 18.1528 12.0355C18.1528 11.5409 18.246 11.4447 18.7352 11.4447C19.7338 11.4447 20.7323 11.4447 21.7308 11.4447C22.2052 11.4447 22.3092 11.5426 22.3092 12.0085C22.3092 16.7434 22.3092 21.4782 22.3092 26.2131C22.3092 26.6874 22.2101 26.7836 21.74 26.7845H18.7119C18.2476 26.7845 18.1528 26.6857 18.1528 26.2055C18.1522 23.8293 18.1522 21.4523 18.1528 19.0745Z" fill="#FFF9ED"/>
<path d="M12.8052 20.6275C12.8052 18.7651 12.8052 16.9026 12.8052 15.0402C12.8052 14.5271 12.9034 14.4258 13.401 14.4249H16.3966C16.8668 14.4249 16.9741 14.5313 16.9741 14.9929V26.2326C16.9741 26.6858 16.8693 26.793 16.4274 26.7938C15.3978 26.7938 14.3688 26.7938 13.3403 26.7938C12.9242 26.7938 12.8077 26.6765 12.8069 26.2477C12.8047 24.3741 12.8041 22.5006 12.8052 20.6275Z" fill="#FFF9ED"/>
<path d="M24.7419 3.55664C24.3566 3.4638 24.0221 3.38784 23.6909 3.30344C23.3955 3.22663 23.2657 3.05023 23.3448 2.81138C23.428 2.55227 23.6244 2.51176 23.8723 2.57253C24.4673 2.7177 25.0672 2.84598 25.6639 2.98693C26.0275 3.07133 26.1132 3.22157 26.0292 3.60643C25.9016 4.19105 25.7707 4.7751 25.6364 5.35859C25.5599 5.69619 25.3959 5.83292 25.1621 5.78059C24.9283 5.72826 24.8293 5.53583 24.9017 5.20329C24.9632 4.90789 25.0315 4.61249 25.0989 4.31118C24.9549 4.30021 24.885 4.39051 24.8035 4.44537C21.8633 6.42541 18.9232 8.40826 15.9831 10.3939C15.6827 10.5982 15.4497 10.6159 15.1368 10.4235C13.9552 9.69761 12.7561 9.00384 11.572 8.28306C11.3557 8.15224 11.2067 8.14887 10.9895 8.29235C7.69881 10.4806 4.40336 12.6623 1.1032 14.8376C1.03413 14.8832 0.965069 14.9313 0.892676 14.9726C0.692968 15.0866 0.502414 15.0722 0.373437 14.8722C0.236138 14.6587 0.301043 14.4721 0.504078 14.3304L0.60726 14.2637C4.03501 11.9967 7.46166 9.72856 10.8872 7.45931C11.1485 7.29051 11.359 7.28039 11.6278 7.44328C12.8485 8.18347 14.0808 8.90425 15.3049 9.63769C15.4713 9.7356 15.5845 9.74994 15.7509 9.63769C18.691 7.65034 21.6312 5.66693 24.5713 3.68746C24.6129 3.65961 24.652 3.62922 24.7419 3.55664Z" fill="#FFF9ED"/>
<path d="M19.3677 3.16842C19.3693 3.79669 19.1872 4.41136 18.8445 4.93469C18.5017 5.45803 18.0137 5.86652 17.4421 6.10853C16.8704 6.35055 16.2409 6.4152 15.633 6.29433C15.0252 6.17346 14.4663 5.87248 14.0271 5.42946C13.5878 4.98644 13.288 4.42127 13.1654 3.80541C13.0429 3.18955 13.1031 2.55065 13.3385 1.96951C13.5739 1.38837 13.9739 0.89108 14.488 0.540516C15.002 0.189953 15.607 0.00186033 16.2264 2.20145e-05C16.6379 -0.00153227 17.0456 0.0792307 17.4263 0.237689C17.807 0.396147 18.1531 0.62919 18.4449 0.92348C18.7366 1.21777 18.9683 1.56753 19.1267 1.95274C19.285 2.33796 19.3669 2.75106 19.3677 3.16842ZM17.4746 2.36324C17.4602 2.16187 17.3919 1.96829 17.2771 1.80336C17.1623 1.63843 17.0053 1.50839 16.8231 1.42723C16.6566 1.34705 16.5892 1.25337 16.6059 1.07106C16.6292 0.807734 16.5393 0.607705 16.2514 0.577321C16.0151 0.552001 15.8645 0.746122 15.8611 1.07275C15.8611 1.22889 15.847 1.33439 15.6731 1.41542C15.242 1.61629 14.9966 1.97584 14.9982 2.46283C14.9982 2.92112 15.3011 3.1777 15.6731 3.3676C15.9602 3.51446 16.2556 3.65203 16.5326 3.81155C16.7823 3.95334 16.7823 4.15674 16.551 4.32555C16.2348 4.5568 15.8303 4.39644 15.7405 3.98794C15.6847 3.73474 15.5474 3.61405 15.302 3.65625C15.0565 3.69845 14.9741 3.89088 15.0049 4.12805C15.0228 4.31257 15.0866 4.48947 15.1902 4.64223C15.2938 4.79499 15.4339 4.91862 15.5974 5.00159C15.7638 5.08599 15.8819 5.16111 15.8695 5.39068C15.857 5.62025 16.0059 5.76795 16.2439 5.76204C16.4819 5.75613 16.6075 5.61096 16.6034 5.37549C16.6034 5.21091 16.6392 5.12229 16.8031 5.03789C17.2191 4.84039 17.4613 4.49772 17.4688 4.02002C17.4763 3.54231 17.1875 3.29586 16.8214 3.10005C16.5368 2.94813 16.2456 2.80887 15.961 2.65779C15.852 2.6004 15.7238 2.53879 15.7513 2.38096C15.7638 2.31338 15.7934 2.25026 15.8371 2.19774C15.8809 2.14523 15.9373 2.10512 16.0009 2.08134C16.3321 1.94123 16.6425 2.10159 16.7257 2.47296C16.7781 2.69915 16.9079 2.83841 17.1418 2.81056C17.3756 2.78271 17.4788 2.62741 17.4746 2.36324Z" fill="#FFF9ED"/>
<path d="M14.4788 29.0001H0.625776C0.173106 29.0001 -0.00247013 28.8929 2.62126e-05 28.6186C0.00252255 28.3443 0.176434 28.2413 0.631601 28.2413H28.3701C28.812 28.2413 29.0025 28.3578 29 28.6245C28.9975 28.8912 28.8128 29.0001 28.3643 29.0001H14.4788Z" fill="#FFF9ED"/>
<path d="M8.9796 21.09C8.44205 21.0638 7.92947 20.9912 7.4743 20.7043C6.96339 20.3827 6.95174 19.9556 7.48346 19.6695C8.477 19.1336 9.49967 19.1378 10.4915 19.6746C11.0191 19.9599 11.0025 20.3903 10.4915 20.7085C10.0222 20.9963 9.49884 21.0672 8.9796 21.09Z" fill="#FFF9ED"/>
<path d="M10.8477 21.4218C10.9451 22.1316 10.8161 22.3772 10.1613 22.6194C9.30834 22.9359 8.45209 22.9266 7.62081 22.5392C7.15566 22.3232 7.0325 22.0615 7.08576 21.5551C7.09741 21.4395 7.10823 21.3745 7.25218 21.4412C8.43462 21.9982 9.61455 21.9797 10.7912 21.4167C10.8036 21.41 10.8278 21.4193 10.8477 21.4218Z" fill="#FFF9ED"/>
<path d="M2.21987 23.3967C1.76152 23.4053 1.30772 23.3032 0.895981 23.0987C0.479924 22.8793 0.459953 22.5839 0.879339 22.3653C1.7672 21.9028 2.67837 21.9036 3.56457 22.3729C3.954 22.5788 3.94235 22.8362 3.56457 23.0726C3.15351 23.33 2.69251 23.3916 2.21987 23.3967Z" fill="#FFF9ED"/>
<path d="M8.96423 24.515C8.46497 24.5032 8.00148 24.4205 7.57044 24.1901C7.39883 24.112 7.254 23.9839 7.15439 23.8221C7.04954 23.628 7.02541 23.379 7.11861 23.2178C7.19766 23.081 7.37823 23.2752 7.51053 23.3233C8.56149 23.7039 9.6033 23.7031 10.6276 23.2389C10.8423 23.1418 10.8681 23.1764 10.8831 23.4001C10.9081 23.7697 10.7425 23.9909 10.4462 24.1597C9.98025 24.4247 9.47432 24.5082 8.96423 24.515Z" fill="#FFF9ED"/>
<path d="M7.12332 24.8484C8.98227 25.4097 8.98227 25.4097 10.8487 24.8484C10.9319 25.4662 10.8321 25.6831 10.2845 25.9127C9.38667 26.2883 8.4805 26.2916 7.59597 25.8696C7.11584 25.6434 7.02014 25.3987 7.12332 24.8484Z" fill="#FFF9ED"/>
<path d="M0.598373 23.817C1.66847 24.2432 2.73857 24.2964 3.80451 23.8212C3.89438 24.1335 3.86276 24.2432 3.63808 24.412C2.98071 24.9134 1.44546 24.9075 0.789759 24.412C0.582563 24.2576 0.525979 24.0719 0.598373 23.817Z" fill="#FFF9ED"/>
<path d="M3.8334 25.2063C3.91661 25.5439 3.78597 25.7397 3.53966 25.8621C2.65346 26.301 1.76143 26.3018 0.876897 25.8553C0.627263 25.7296 0.507439 25.5236 0.594811 25.2131C1.66824 25.6578 2.74583 25.6739 3.8334 25.2063Z" fill="#FFF9ED"/>
</g>
<defs>
<clipPath id="clip0_966_4744">
<rect width="29" height="29" fill="white"/>
</clipPath>
</defs>
</svg>
