<svg width="62" height="62" viewBox="0 0 62 62" fill="none" xmlns="http://www.w3.org/2000/svg">
<path d="M30.92 0C13.84 0 0 13.84 0 30.92C0 48 13.84 61.85 30.92 61.85C48 61.85 61.85 48 61.85 30.92C61.85 13.84 48 0 30.92 0ZM22.31 38.34C23.25 39.07 23.45 40.43 22.73 41.37C22 42.31 20.64 42.51 19.7 41.79L7.64 32.64C7.48 32.52 7.33 32.36 7.19 32.21C6.46 31.27 6.66 29.89 7.6 29.18L19.7 20.01C20.64 19.29 22.02 19.49 22.73 20.44C23.46 21.38 23.26 22.76 22.31 23.47L12.49 30.9L22.31 38.34ZM36.1 21.04L29.92 42.01C29.59 43.17 28.37 43.82 27.23 43.49C26.09 43.15 25.42 41.93 25.76 40.79L31.93 19.82C32.27 18.69 33.48 18.01 34.62 18.35C35.76 18.69 36.43 19.91 36.1 21.04ZM54.21 32.65L42.15 41.79C41.21 42.52 39.83 42.33 39.13 41.38C38.4 40.44 38.59 39.06 39.54 38.35L49.36 30.91L39.54 23.47C38.6 22.74 38.4 21.38 39.13 20.44C39.86 19.5 41.21 19.3 42.15 20.02L54.25 29.19C55.19 29.92 55.39 31.28 54.66 32.22C54.53 32.39 54.39 32.53 54.21 32.65Z" fill="#0000FF"/>
</svg>
