<svg width="62" height="62" viewBox="0 0 62 62" fill="none" xmlns="http://www.w3.org/2000/svg">
<path d="M30.93 0C13.85 0 0 13.85 0 30.93C0 48.01 13.85 61.85 30.93 61.85C48.01 61.85 61.85 48.01 61.85 30.93C61.85 13.85 48.01 0 30.93 0ZM26.65 39.16L21.47 45.79C21.15 46.2 20.56 46.24 20.18 45.94L16.96 43.43C16.55 43.11 16.51 42.52 16.81 42.14L21.98 35.51L20.06 34.01C19.71 33.74 19.58 33.33 19.64 32.92C19.68 32.74 19.74 32.59 19.84 32.47C19.99 32.28 20.2 32.14 20.45 32.08L28.99 29.86C29.32 29.77 29.67 29.84 29.95 30.06C30.24 30.28 30.39 30.6 30.38 30.95L30.29 39.77C30.31 40.2 30.05 40.6 29.67 40.76C29.29 40.92 28.83 40.86 28.51 40.62L26.65 39.16ZM47.92 30.54L45.23 30.87C45.06 32.06 44.74 33.18 44.28 34.29L46.45 35.99C46.99 36.41 47.08 37.14 46.66 37.68L43.41 41.84C42.99 42.38 42.26 42.47 41.72 42.05L39.54 40.35C38.58 41.06 37.54 41.68 36.48 42.12L36.82 44.87C36.9 45.55 36.43 46.15 35.76 46.23L30.53 46.87C29.86 46.95 29.23 46.46 29.18 45.81L28.89 43.45C29.55 43.51 30.22 43.37 30.81 43.07C31.29 42.84 31.73 42.47 32.08 42.03C32.57 41.4 32.84 40.6 32.86 39.8L32.9 35.91C34.36 35.54 35.74 34.68 36.75 33.39C39.29 30.14 38.69 25.51 35.48 22.99C32.26 20.48 27.6 21.05 25.08 24.27C24.07 25.56 23.6 27.07 23.56 28.62L19.8 29.59C19.03 29.8 18.32 30.26 17.82 30.89C17.48 31.33 17.26 31.87 17.15 32.4C17.01 33.1 17.04 33.78 17.28 34.38L14.86 34.68C14.21 34.73 13.58 34.23 13.51 33.62L12.87 28.39C12.78 27.71 13.25 27.12 13.93 27.03L16.62 26.7C16.79 25.51 17.11 24.39 17.57 23.28L15.4 21.58C14.86 21.16 14.77 20.43 15.19 19.89L18.47 15.7C18.89 15.16 19.62 15.07 20.16 15.49L22.36 17.22C23.33 16.5 24.37 15.89 25.43 15.44L25.09 12.69C25 12.01 25.47 11.42 26.15 11.33L31.37 10.69C32.02 10.64 32.62 11.11 32.73 11.75L33.07 14.51C34.23 14.65 35.38 14.99 36.46 15.43L38.16 13.25C38.56 12.75 39.34 12.65 39.85 13.05L43.98 16.28C44.51 16.7 44.58 17.46 44.19 17.96L42.48 20.14C43.2 21.11 43.79 22.17 44.23 23.23L46.99 22.89C47.66 22.81 48.29 23.3 48.34 23.95L48.98 29.18C49.07 29.85 48.6 30.45 47.92 30.54Z" fill="#0000FF"/>
</svg>
