<svg width="62" height="62" viewBox="0 0 62 62" fill="none" xmlns="http://www.w3.org/2000/svg">
<g clip-path="url(#clip0_561_581)">
<path d="M30.93 0C13.85 0 0 13.85 0 30.93C0 48.01 13.85 61.85 30.93 61.85C48.01 61.85 61.85 48.01 61.85 30.93C61.85 13.85 48.01 0 30.93 0ZM49.48 25.52C48.41 26.59 46.99 27.18 45.47 27.18H45.44L42 33.1C42.5 33.96 42.77 34.96 42.77 35.98C42.75 39.11 40.18 41.61 37.06 41.62C33.93 41.6 31.4 39.04 31.42 35.91C31.42 35.6 31.45 35.29 31.51 34.98L29.29 33.16C28.45 33.48 27.56 33.59 26.67 33.49L23.56 37.77C24.27 39.24 24.34 40.98 23.68 42.53C23.09 43.93 21.98 45.02 20.56 45.59C19.87 45.86 19.15 46 18.43 46C17.67 46 16.91 45.85 16.19 45.54C14.78 44.94 13.69 43.83 13.13 42.41C12.56 41 12.57 39.44 13.17 38.04C14.16 35.72 16.51 34.39 18.89 34.59L22.11 30.17C21.78 29.44 21.61 28.64 21.61 27.82C21.61 26.3 22.21 24.88 23.29 23.82C24.36 22.75 25.78 22.2 27.3 22.17C30.43 22.17 32.96 24.74 32.95 27.86C32.95 28.18 32.92 28.49 32.87 28.79L35.09 30.62C35.74 30.37 36.43 30.25 37.13 30.25L40.57 24.34C40.07 23.48 39.8 22.49 39.8 21.47C39.82 18.36 42.38 15.85 45.48 15.84C46.99 15.84 48.42 16.43 49.49 17.5C50.56 18.57 51.15 20 51.15 21.51C51.15 23.02 50.56 24.45 49.48 25.52Z" fill="#0000FF"/>
<path d="M18.4698 38.04C17.2498 38.04 16.2598 39.03 16.2598 40.25C16.2598 41.47 17.2498 42.47 18.4698 42.47C19.0798 42.47 19.6298 42.22 20.0298 41.82C20.4298 41.42 20.6798 40.86 20.6798 40.25C20.6798 39.03 19.6898 38.04 18.4698 38.04ZM27.2798 25.64C26.0598 25.64 25.0698 26.63 25.0698 27.85C25.0698 29.07 26.0598 30.07 27.2798 30.07C28.4998 30.07 29.4898 29.08 29.4898 27.86C29.4898 26.64 28.4998 25.64 27.2798 25.64ZM37.0998 33.71C35.8698 33.71 34.8798 34.7 34.8798 35.92C34.8798 37.14 35.8698 38.14 37.0998 38.14C38.3298 38.14 39.3098 37.14 39.3098 35.92C39.3098 34.7 38.3198 33.71 37.0998 33.71ZM45.4698 19.3C44.2498 19.3 43.2598 20.29 43.2598 21.51C43.2598 22.73 44.2498 23.73 45.4698 23.73C46.6898 23.73 47.6898 22.73 47.6898 21.51C47.6898 20.29 46.6998 19.3 45.4698 19.3Z" fill="#0000FF"/>
</g>
<defs>
<clipPath id="clip0_561_581">
<rect width="61.85" height="61.85" fill="white"/>
</clipPath>
</defs>
</svg>
