<svg width="62" height="62" viewBox="0 0 62 62" fill="none" xmlns="http://www.w3.org/2000/svg">
<path d="M30.93 0C13.85 0 0 13.85 0 30.93C0 48.01 13.85 61.85 30.93 61.85C48.01 61.85 61.85 48.01 61.85 30.93C61.85 13.85 48.01 0 30.93 0ZM44.26 34.06C44.26 36.9 42.82 39.54 40.43 41.07L31.83 46.6C31.28 46.95 30.58 46.95 30.03 46.6L21.42 41.07C19.04 39.54 17.6 36.9 17.6 34.06V19.37C17.6 18.66 18.04 18.03 18.7 17.8L30.37 13.63C30.73 13.5 31.13 13.5 31.49 13.63L43.16 17.8C43.82 18.03 44.26 18.66 44.26 19.37V34.06Z" fill="#0000FF"/>
</svg>
