<svg xmlns="http://www.w3.org/2000/svg" width="38" height="32" fill="none"><path fill="#DDE7FD" d="M17.569 19.143v8.571q0 1.786-1.25 3.036T13.283 32H4.712q-1.786 0-3.036-1.25t-1.25-3.036V12q0-2.321.893-4.42.915-2.12 2.455-3.66a11.4 11.4 0 0 1 3.638-2.433A11.1 11.1 0 0 1 11.854.57h1.429q.58 0 1.004.425.424.423.424 1.004v2.857q.001.58-.424 1.005a1.37 1.37 0 0 1-1.004.424h-1.429q-2.366 0-4.04 1.674T6.14 12v.714q0 .893.625 1.518t1.518.625h5q1.785 0 3.036 1.25 1.25 1.25 1.25 3.036m20 0v8.571q0 1.786-1.25 3.036T33.283 32h-8.571q-1.786 0-3.036-1.25t-1.25-3.036V12q0-2.321.893-4.42.915-2.12 2.455-3.66a11.4 11.4 0 0 1 3.638-2.433A11.1 11.1 0 0 1 31.854.57h1.429q.58 0 1.004.425.425.423.425 1.004v2.857q0 .58-.425 1.005a1.37 1.37 0 0 1-1.004.424h-1.429q-2.366 0-4.04 1.674T26.14 12v.714q0 .893.625 1.518t1.518.625h5q1.785 0 3.036 1.25 1.25 1.25 1.25 3.036"/></svg>