<svg xmlns="http://www.w3.org/2000/svg" width="46" height="40" fill="none"><g filter="url(#a)"><path fill="#DDE7FD" d="M21.569 4.857v15.714q0 2.322-.915 4.442a11.4 11.4 0 0 1-2.434 3.639q-1.54 1.54-3.66 2.455a11.2 11.2 0 0 1-4.42.893H8.711q-.58 0-1.004-.424a1.37 1.37 0 0 1-.424-1.005v-2.857q0-.58.424-1.004a1.37 1.37 0 0 1 1.004-.424h1.43q2.364 0 4.04-1.674 1.673-1.674 1.673-4.04v-.715q0-.893-.625-1.518a2.07 2.07 0 0 0-1.517-.625h-5q-1.786 0-3.036-1.25t-1.25-3.035V4.857q0-1.785 1.25-3.036Q6.926.571 8.71.571h8.572q1.785 0 3.036 1.25 1.25 1.251 1.25 3.036m20 0v15.714q0 2.322-.916 4.442a11.4 11.4 0 0 1-2.433 3.639q-1.54 1.54-3.66 2.455a11.2 11.2 0 0 1-4.42.893h-1.428q-.58 0-1.005-.424a1.37 1.37 0 0 1-.424-1.005v-2.857q0-.58.424-1.004a1.37 1.37 0 0 1 1.005-.424h1.428q2.366 0 4.04-1.674t1.674-4.04v-.715q0-.893-.625-1.518a2.07 2.07 0 0 0-1.517-.625h-5q-1.786 0-3.036-1.25t-1.25-3.035V4.857q0-1.785 1.25-3.036 1.25-1.25 3.036-1.25h8.57q1.786 0 3.037 1.25t1.25 3.036"/></g><defs><filter id="a" width="45.143" height="39.429" x=".426" y=".571" color-interpolation-filters="sRGB" filterUnits="userSpaceOnUse"><feFlood flood-opacity="0" result="BackgroundImageFix"/><feColorMatrix in="SourceAlpha" result="hardAlpha" values="0 0 0 0 0 0 0 0 0 0 0 0 0 0 0 0 0 0 127 0"/><feOffset dy="4"/><feGaussianBlur stdDeviation="2"/><feComposite in2="hardAlpha" operator="out"/><feColorMatrix values="0 0 0 0 0 0 0 0 0 0 0 0 0 0 0 0 0 0 0.25 0"/><feBlend in2="BackgroundImageFix" result="effect1_dropShadow_561_6154"/><feColorMatrix in="SourceAlpha" result="hardAlpha" values="0 0 0 0 0 0 0 0 0 0 0 0 0 0 0 0 0 0 127 0"/><feOffset dy="4"/><feGaussianBlur stdDeviation="2"/><feComposite in2="hardAlpha" operator="out"/><feColorMatrix values="0 0 0 0 0 0 0 0 0 0 0 0 0 0 0 0 0 0 0.25 0"/><feBlend in2="effect1_dropShadow_561_6154" result="effect2_dropShadow_561_6154"/><feBlend in="SourceGraphic" in2="effect2_dropShadow_561_6154" result="shape"/></filter></defs></svg>