<svg xmlns="http://www.w3.org/2000/svg" width="1440" height="359" fill="none"><g clip-path="url(#a)"><path fill="#1E1E1E" d="M0 0h1440v359H0z"/><g stroke-opacity=".03" clip-path="url(#b)"><path stroke="url(#c)" stroke-width="1.753" d="M1344.01.876H83.622"/><path stroke="#fff" stroke-miterlimit="10" stroke-width="6.548" d="M1315.66 32.606c32.73-11.33 68.44 6.019 79.77 38.748.59 1.706 1.1 3.415 1.54 5.132 20.79-4.165 41.97 7.558 49.1 28.151M1194.92 152.91c-28.27 12.59-46.92 34.196-46.92 58.728 0 38.86 46.78 70.362 104.48 70.362h186.74"/><path stroke="#fff" stroke-miterlimit="10" stroke-width="8.522" d="M154.488 256c-45.074 0-81.615 36.541-81.615 81.616q0 3.52.295 6.965C45.832 348.307 26.5 377.14 26.5 405.5"/></g></g><defs><clipPath id="a"><path fill="#fff" d="M0 0h1440v359H0z"/></clipPath><clipPath id="b"><path fill="#fff" d="M0 0h1441v589H0z"/></clipPath><radialGradient id="c" cx="0" cy="0" r="1" gradientTransform="matrix(0 -.5 630.195 0 713.817 -.5)" gradientUnits="userSpaceOnUse"><stop stop-color="#fff" stop-opacity=".3"/><stop offset="1" stop-color="#DADADA" stop-opacity=".6"/></radialGradient></defs></svg>