<svg xmlns="http://www.w3.org/2000/svg" width="16" height="16" fill="none"><path fill="#fff" d="M12.818 16c-.697 0-1.676-.252-3.143-1.072-1.783-1-3.162-1.923-4.936-3.692-1.71-1.709-2.542-2.815-3.707-4.934C-.284 3.909-.059 2.654.192 2.118.49 1.478.93 1.094 1.5.714A6.3 6.3 0 0 1 2.523.171l.099-.043c.177-.08.445-.2.784-.072.226.085.428.26.745.572.649.64 1.536 2.065 1.863 2.765.22.472.365.784.365 1.133 0 .409-.206.724-.455 1.064l-.139.185c-.271.357-.33.46-.292.644.08.37.674 1.473 1.65 2.447s2.047 1.53 2.419 1.61c.192.04.297-.021.666-.303l.164-.124c.38-.283.681-.483 1.08-.483h.003c.347 0 .645.15 1.137.4.643.323 2.111 1.199 2.755 1.849.314.315.488.517.574.743.128.34.007.607-.072.785l-.043.099q-.226.535-.546 1.02c-.38.568-.764 1.008-1.407 1.307-.33.156-.69.235-1.055.23"/></svg>