<svg width="548" height="404" viewBox="0 0 548 404" fill="none" xmlns="http://www.w3.org/2000/svg">
<g clip-path="url(#clip0_855_1590)">
<g filter="url(#filter0_d_855_1590)">
<path d="M339.497 65.8511H202.005C198.103 65.8511 194.939 69.0076 194.939 72.9013V339.168C194.939 343.062 198.103 346.218 202.005 346.218H339.497C343.399 346.218 346.562 343.062 346.562 339.168V72.9013C346.562 69.0076 343.399 65.8511 339.497 65.8511Z" fill="#0000FF"/>
</g>
<path d="M341.107 81.1169V330.963C341.107 336.384 336.701 340.78 331.269 340.78H210.233C204.8 340.78 200.395 336.384 200.395 330.963V81.1169C200.395 75.6963 204.8 71.2998 210.233 71.2998H239.821C242.685 71.2998 245.01 73.614 245.01 76.4771V80.6642C245.01 83.4538 247.278 85.7171 250.074 85.7171H291.434C294.229 85.7171 296.498 83.4538 296.498 80.6642V76.4771C296.498 73.6197 298.817 71.2998 301.686 71.2998H331.286C336.718 71.2998 341.124 75.6963 341.124 81.1169H341.107Z" fill="white"/>
<path d="M234.695 277.198H306.801C312.71 277.198 317.495 281.979 317.495 287.87C317.495 293.766 312.704 298.541 306.801 298.541H234.695C228.787 298.541 224.001 293.76 224.001 287.87C224.001 281.974 228.792 277.198 234.695 277.198Z" fill="#DCD8D8"/>
<g filter="url(#filter1_d_855_1590)">
<path d="M357.455 104.423C383.414 104.423 404.458 83.4249 404.458 57.522C404.458 31.6191 383.414 10.6206 357.455 10.6206C331.496 10.6206 310.453 31.6191 310.453 57.522C310.453 83.4249 331.496 104.423 357.455 104.423Z" fill="white"/>
</g>
<g filter="url(#filter2_d_855_1590)">
<path d="M184.528 393.691C213.813 393.691 237.553 370.002 237.553 340.781C237.553 311.559 213.813 287.87 184.528 287.87C155.244 287.87 131.504 311.559 131.504 340.781C131.504 370.002 155.244 393.691 184.528 393.691Z" fill="white"/>
</g>
<path d="M373.281 57.5389C373.281 61.5166 373.281 65.5001 373.281 69.4778C373.281 72.0806 372.023 73.3198 369.386 73.3198C361.408 73.3198 353.429 73.3198 345.451 73.3198C342.899 73.3198 341.629 72.0523 341.629 69.5174C341.629 61.5166 341.629 53.5215 341.629 45.5207C341.629 42.9971 342.905 41.7354 345.468 41.7354C353.446 41.7354 361.425 41.7354 369.403 41.7354C372.028 41.7354 373.281 42.9802 373.281 45.5943C373.281 49.572 373.281 53.5555 373.281 57.5332V57.5389Z" fill="#1877F2"/>
<path d="M332.431 42.2501C332.431 41.1976 332.403 40.1452 332.431 39.0928C332.539 35.5281 335.352 32.6819 338.93 32.5744C341.113 32.5065 343.296 32.5461 345.479 32.5631C346.687 32.5744 347.469 33.2704 347.464 34.2549C347.464 35.2395 346.681 35.8845 345.445 35.8902C343.523 35.9015 341.606 35.8902 339.684 35.8902C337.087 35.9015 335.777 37.1916 335.771 39.7491C335.771 41.6673 335.777 43.5798 335.771 45.4979C335.766 46.754 335.153 47.5179 334.172 47.5575C333.151 47.5971 332.454 46.7937 332.431 45.5092C332.414 44.4228 332.431 43.3308 332.431 42.2388V42.2501Z" fill="#1877F2"/>
<path d="M342.213 82.5029C341.198 82.5029 340.183 82.5198 339.162 82.5029C335.482 82.435 332.607 79.736 332.454 76.0864C332.358 73.8344 332.409 71.5824 332.437 69.3248C332.454 68.2101 333.208 67.4632 334.161 67.4915C335.074 67.5198 335.749 68.2441 335.766 69.3191C335.794 71.3448 335.766 73.3761 335.777 75.4017C335.788 77.8178 337.127 79.1419 339.571 79.1588C341.527 79.1702 343.483 79.1532 345.439 79.1645C346.681 79.1702 347.447 79.8095 347.464 80.7997C347.481 81.7843 346.693 82.4746 345.485 82.4972C344.396 82.5198 343.302 82.4972 342.213 82.4972V82.5029Z" fill="#1877F2"/>
<path d="M372.72 82.5031C371.592 82.5031 370.463 82.5257 369.335 82.4974C368.201 82.4691 367.458 81.7845 367.446 80.8282C367.435 79.872 368.184 79.1817 369.329 79.1703C371.359 79.1477 373.395 79.176 375.425 79.159C377.772 79.1421 379.122 77.7784 379.139 75.4302C379.15 73.4385 379.133 71.4525 379.145 69.4608C379.156 68.2442 379.842 67.4691 380.834 67.4917C381.776 67.5143 382.468 68.2725 382.479 69.4098C382.502 71.6222 382.553 73.8459 382.462 76.0526C382.309 79.6909 379.434 82.4182 375.771 82.4974C374.756 82.52 373.741 82.4974 372.72 82.4974V82.5031Z" fill="#1877F2"/>
<path d="M372.777 32.5573C373.718 32.5573 374.659 32.546 375.601 32.5573C379.411 32.6025 382.286 35.2846 382.456 39.0643C382.553 41.2767 382.502 43.4947 382.473 45.7071C382.456 46.8274 381.719 47.5743 380.772 47.563C379.82 47.5517 379.156 46.7991 379.145 45.6505C379.128 43.6248 379.15 41.5935 379.133 39.5679C379.111 37.2876 377.75 35.9239 375.476 35.9013C373.48 35.8843 371.49 35.9013 369.494 35.8956C368.24 35.89 367.481 35.2789 367.447 34.2887C367.413 33.2702 368.218 32.5799 369.511 32.5629C370.599 32.546 371.694 32.5629 372.782 32.5629L372.777 32.5573Z" fill="#1877F2"/>
<path d="M184.472 372.421C179.986 372.421 175.501 372.421 171.016 372.421C165.85 372.415 162.47 369.037 162.476 363.888C162.476 356.51 162.499 349.137 162.493 341.759C162.493 338.132 164.172 335.58 167.426 334.058C167.937 333.82 168.118 333.571 168.113 333.023C168.084 330.533 168.101 328.043 168.101 325.554C168.107 317.53 173.573 310.904 181.461 309.365C190.726 307.555 199.827 314.424 200.582 323.805C200.82 326.793 200.61 329.792 200.667 332.785C200.678 333.413 200.797 333.764 201.478 334.024C204.636 335.246 206.581 338.126 206.587 341.51C206.598 349.2 206.587 356.895 206.57 364.584C206.558 368.794 203.099 372.302 198.886 372.387C196.488 372.432 194.083 372.398 191.685 372.398C189.286 372.398 186.882 372.398 184.483 372.398C184.483 372.404 184.483 372.415 184.483 372.421H184.472ZM184.421 333.464C184.421 333.464 184.421 333.47 184.421 333.475C187.738 333.475 191.055 333.47 194.367 333.481C194.883 333.481 195.183 333.424 195.172 332.779C195.138 330.29 195.195 327.8 195.149 325.31C195.098 322.6 194.253 320.167 192.354 318.175C189.297 314.967 185.583 313.813 181.319 315.109C177.083 316.399 174.48 319.33 173.817 323.726C173.375 326.657 173.721 329.639 173.63 332.598C173.607 333.334 173.874 333.481 174.56 333.475C177.843 333.441 181.126 333.458 184.415 333.458L184.421 333.464ZM184.472 360.318C184.472 360.318 184.472 360.329 184.472 360.335C185.578 360.335 186.683 360.301 187.783 360.346C188.453 360.375 188.651 360.199 188.538 359.498C188.203 357.415 187.954 355.327 187.653 353.24C187.545 352.504 187.67 351.916 188.18 351.276C190.103 348.871 188.969 345.222 186.071 344.226C184.064 343.541 181.937 344.226 180.724 345.963C179.578 347.598 179.675 349.765 180.962 351.406C181.24 351.757 181.58 352.029 181.483 352.629C181.121 354.926 180.871 357.24 180.525 359.543C180.423 360.216 180.656 360.346 181.257 360.324C182.328 360.29 183.4 360.312 184.472 360.312V360.318Z" fill="#FF0000"/>
<g style="mix-blend-mode:multiply">
<path opacity="0.06" d="M193.437 190.87H44.1163C20.3173 190.87 1.02637 171.621 1.02637 147.873C1.02637 124.125 20.3173 104.876 44.1163 104.876H193.437C217.236 104.876 236.527 124.125 236.527 147.873C236.527 171.621 217.23 190.87 193.437 190.87Z" fill="url(#paint0_linear_855_1590)"/>
<path opacity="0.12" d="M193.46 189.824H44.088C20.8674 189.824 2.04712 171.044 2.04712 147.873C2.04712 124.703 20.8674 105.923 44.088 105.923H193.46C216.674 105.923 235.5 124.703 235.5 147.873C235.5 171.044 216.674 189.824 193.46 189.824Z" fill="url(#paint1_linear_855_1590)"/>
<path opacity="0.19" d="M193.488 188.776H44.0653C21.4231 188.776 3.07349 170.461 3.07349 147.873C3.07349 125.285 21.4231 106.969 44.0653 106.969H193.488C216.124 106.969 234.48 125.285 234.48 147.873C234.48 170.466 216.124 188.776 193.488 188.776Z" fill="url(#paint2_linear_855_1590)"/>
<path opacity="0.25" d="M193.511 187.73H44.0426C21.9845 187.73 4.09985 169.884 4.09985 147.873C4.09985 125.862 21.9845 108.016 44.0426 108.016H193.511C215.569 108.016 233.453 125.862 233.453 147.873C233.453 169.884 215.569 187.73 193.511 187.73Z" fill="url(#paint3_linear_855_1590)"/>
<path opacity="0.31" d="M193.533 186.683H44.0141C22.5344 186.683 5.12036 169.307 5.12036 147.873C5.12036 126.44 22.5344 109.063 44.0141 109.063H193.533C215.013 109.063 232.427 126.44 232.427 147.873C232.427 169.307 215.013 186.683 193.533 186.683Z" fill="url(#paint4_linear_855_1590)"/>
<path opacity="0.38" d="M193.561 185.631H43.9915C23.0901 185.631 6.14673 168.724 6.14673 147.867C6.14673 127.011 23.0901 110.104 43.9915 110.104H193.561C214.463 110.104 231.406 127.011 231.406 147.867C231.406 168.724 214.463 185.631 193.561 185.631Z" fill="url(#paint5_linear_855_1590)"/>
<path opacity="0.44" d="M193.584 184.584H43.9688C23.6458 184.584 7.1731 168.147 7.1731 147.867C7.1731 127.588 23.6458 111.151 43.9688 111.151H193.59C213.907 111.151 230.386 127.588 230.386 147.867C230.386 168.147 213.913 184.584 193.59 184.584H193.584Z" fill="url(#paint6_linear_855_1590)"/>
<path opacity="0.5" d="M193.613 183.537H43.9405C24.2016 183.537 8.19385 167.57 8.19385 147.867C8.19385 128.171 24.1959 112.198 43.9405 112.198H193.607C213.346 112.198 229.354 128.165 229.354 147.867C229.354 167.564 213.351 183.537 193.607 183.537H193.613Z" fill="url(#paint7_linear_855_1590)"/>
<path opacity="0.56" d="M193.635 182.49H43.9178C24.7573 182.49 9.22021 166.992 9.22021 147.867C9.22021 128.748 24.7516 113.25 43.9178 113.25H193.635C212.796 113.25 228.333 128.748 228.333 147.867C228.333 166.987 212.796 182.49 193.635 182.49Z" fill="url(#paint8_linear_855_1590)"/>
<path opacity="0.62" d="M193.658 181.443H43.8895C25.3074 181.443 10.241 166.415 10.241 147.867C10.241 129.325 25.3074 114.297 43.8895 114.297H193.658C212.24 114.297 227.307 129.325 227.307 147.867C227.307 166.409 212.24 181.443 193.658 181.443Z" fill="url(#paint9_linear_855_1590)"/>
<path opacity="0.69" d="M193.686 180.397H43.8668C25.8631 180.397 11.2729 165.832 11.2729 147.873C11.2729 129.908 25.8687 115.349 43.8668 115.349H193.686C211.69 115.349 226.28 129.913 226.28 147.873C226.28 165.838 211.684 180.397 193.686 180.397Z" fill="url(#paint10_linear_855_1590)"/>
<path opacity="0.75" d="M193.709 179.35H43.8441C26.4188 179.35 12.2993 165.255 12.2993 147.873C12.2993 130.491 26.4245 116.396 43.8441 116.396H193.715C211.134 116.396 225.26 130.491 225.26 147.873C225.26 165.261 211.134 179.35 193.715 179.35H193.709Z" fill="url(#paint11_linear_855_1590)"/>
<path opacity="0.81" d="M193.737 178.303H43.8156C26.9743 178.303 13.3198 164.678 13.3198 147.873C13.3198 131.068 26.9743 117.443 43.8156 117.443H193.732C210.573 117.443 224.227 131.068 224.227 147.873C224.227 164.678 210.573 178.303 193.732 178.303H193.737Z" fill="url(#paint12_linear_855_1590)"/>
<path opacity="0.88" d="M193.76 177.256H43.793C27.53 177.256 14.3462 164.101 14.3462 147.873C14.3462 131.645 27.53 118.49 43.793 118.49H193.76C210.023 118.49 223.207 131.645 223.207 147.873C223.207 164.101 210.023 177.256 193.76 177.256Z" fill="url(#paint13_linear_855_1590)"/>
<path opacity="0.94" d="M193.783 176.21H43.7647C28.0801 176.21 15.3669 163.524 15.3669 147.873C15.3669 132.222 28.0801 119.537 43.7647 119.537H193.783C209.467 119.537 222.18 132.222 222.18 147.873C222.18 163.524 209.467 176.21 193.783 176.21Z" fill="url(#paint14_linear_855_1590)"/>
<path d="M193.811 175.163H43.742C28.6359 175.163 16.3933 162.946 16.3933 147.873C16.3933 132.799 28.6415 120.583 43.742 120.583H193.811C208.917 120.583 221.16 132.799 221.16 147.873C221.16 162.946 208.911 175.163 193.811 175.163Z" fill="url(#paint15_linear_855_1590)"/>
</g>
<path d="M193.811 175.163H43.742C28.6359 175.163 16.3933 162.946 16.3933 147.873C16.3933 132.799 28.6415 120.583 43.742 120.583H193.811C208.917 120.583 221.16 132.799 221.16 147.873C221.16 162.946 208.911 175.163 193.811 175.163Z" fill="white"/>
<path d="M46.6397 164.48C37.1133 164.48 29.3901 156.773 29.3901 147.268C29.3901 137.762 37.1133 130.055 46.6397 130.055C56.1661 130.055 63.8893 137.762 63.8893 147.268C63.8893 156.773 56.1661 164.48 46.6397 164.48Z" fill="#0000FF"/>
<path d="M149.513 141.547H77.8783C74.3802 141.547 71.5444 144.377 71.5444 147.867V147.873C71.5444 151.363 74.3802 154.193 77.8783 154.193H149.513C153.012 154.193 155.847 151.363 155.847 147.873V147.867C155.847 144.377 153.012 141.547 149.513 141.547Z" fill="#DCD8D8"/>
<path d="M199.963 138.05H178.047C172.61 138.05 168.203 142.448 168.203 147.873C168.203 153.298 172.61 157.696 178.047 157.696H199.963C205.4 157.696 209.807 153.298 209.807 147.873C209.807 142.448 205.4 138.05 199.963 138.05Z" fill="#DCD8D8"/>
<path d="M179.686 155.5C183.907 155.5 187.33 152.085 187.33 147.873C187.33 143.66 183.907 140.246 179.686 140.246C175.464 140.246 172.042 143.66 172.042 147.873C172.042 152.085 175.464 155.5 179.686 155.5Z" fill="white"/>
<path d="M56.6649 147.437C56.5685 147.437 56.4948 147.364 56.4948 147.268C56.4948 144.603 55.7576 141.988 54.4137 139.906C54.3627 139.827 54.3854 139.725 54.4648 139.674C54.5441 139.623 54.6462 139.646 54.6972 139.725C56.0695 141.864 56.8293 144.546 56.8293 147.273C56.8293 147.369 56.7556 147.443 56.6592 147.443L56.6649 147.437Z" fill="white"/>
<path d="M53.7334 138.842C53.6824 138.842 53.637 138.82 53.603 138.78C52.8828 137.909 52.055 137.173 51.1533 136.607C47.717 134.44 43.3961 134.995 40.3965 137.988C40.3284 138.056 40.2207 138.056 40.1583 137.988C40.0959 137.92 40.0903 137.813 40.1583 137.75C43.2714 134.644 47.7681 134.067 51.3405 136.325C52.2704 136.913 53.121 137.671 53.8695 138.571C53.9319 138.644 53.9205 138.752 53.8468 138.808C53.8128 138.837 53.7788 138.848 53.7391 138.848L53.7334 138.842Z" fill="white"/>
<path d="M36.6142 147.438C36.5178 147.438 36.4441 147.364 36.4441 147.268C36.4441 144.801 37.0792 142.322 38.2246 140.297C38.5422 139.737 38.9051 139.199 39.2963 138.713C39.353 138.639 39.4608 138.628 39.5345 138.684C39.6082 138.741 39.6196 138.848 39.5629 138.922C39.1829 139.397 38.8314 139.918 38.5252 140.467C37.4024 142.441 36.7843 144.857 36.7843 147.273C36.7843 147.37 36.7106 147.443 36.6142 147.443V147.438Z" fill="white"/>
<path d="M55.2021 153.746C55.2021 153.746 55.1908 153.746 55.1794 153.746C55.0887 153.735 55.0207 153.65 55.032 153.559C55.4062 150.583 55.4856 148.246 55.2928 146.209C55.2815 146.119 55.3552 146.034 55.4459 146.023C55.5367 146.011 55.6217 146.085 55.6331 146.175C55.8259 148.241 55.7408 150.595 55.3666 153.599C55.3552 153.684 55.2815 153.746 55.1964 153.746H55.2021Z" fill="white"/>
<path d="M54.8732 143.369C54.7995 143.369 54.7371 143.324 54.7087 143.25C53.4385 139.278 50.2631 136.613 46.8098 136.613C46.7134 136.613 46.6396 136.539 46.6396 136.443C46.6396 136.347 46.7134 136.273 46.8098 136.273C48.5733 136.273 50.2971 136.935 51.7828 138.186C53.2628 139.431 54.3855 141.145 55.0263 143.148C55.0546 143.239 55.0036 143.335 54.9185 143.363C54.9015 143.363 54.8845 143.369 54.8675 143.369H54.8732Z" fill="white"/>
<path d="M38.2926 143.805C38.2926 143.805 38.2586 143.805 38.2416 143.799C38.1509 143.771 38.0998 143.68 38.1282 143.589C38.6499 141.835 39.5572 140.178 40.6742 138.916C41.9047 137.524 43.311 136.692 44.7456 136.511C44.8364 136.5 44.9214 136.568 44.9384 136.658C44.9498 136.749 44.8817 136.834 44.791 136.85C41.7289 137.241 39.3587 140.67 38.4571 143.691C38.4344 143.765 38.3664 143.81 38.2926 143.81V143.805Z" fill="white"/>
<path d="M36.739 149.424C36.6823 149.424 36.6256 149.395 36.5916 149.344C36.5405 149.265 36.5689 149.158 36.6483 149.112C37.6349 148.507 37.6349 147.041 37.6349 145.859H37.805H37.9752C37.9752 147.126 37.9752 148.699 36.8297 149.401C36.8014 149.418 36.773 149.424 36.739 149.424Z" fill="white"/>
<path d="M53.4216 156.389C53.4216 156.389 53.3989 156.389 53.3875 156.389C53.2968 156.372 53.2344 156.281 53.2571 156.185C53.5066 155.014 53.7164 153.843 53.8752 152.711C53.8865 152.62 53.9773 152.552 54.068 152.564C54.1587 152.575 54.2268 152.66 54.2154 152.756C54.0567 153.899 53.8469 155.076 53.5917 156.259C53.5747 156.338 53.5066 156.394 53.4272 156.394L53.4216 156.389Z" fill="white"/>
<path d="M54.34 150.165C54.34 150.165 54.3343 150.165 54.3287 150.165C54.2323 150.159 54.1642 150.074 54.1699 149.984C54.4534 146.028 53.79 142.967 52.1966 140.879C52.1399 140.806 52.1512 140.698 52.2306 140.642C52.3043 140.585 52.412 140.597 52.4688 140.676C54.1132 142.826 54.805 145.966 54.5101 150.006C54.5045 150.097 54.4307 150.165 54.34 150.165Z" fill="white"/>
<path d="M50.8358 139.437C50.8018 139.437 50.7621 139.425 50.7337 139.403C48.5109 137.688 45.5622 137.502 43.2147 138.933C43.1353 138.984 43.0275 138.956 42.9822 138.876C42.9311 138.797 42.9595 138.69 43.0389 138.644C44.258 137.903 45.6416 137.558 47.0422 137.643C48.4428 137.733 49.7924 138.248 50.9379 139.137C51.0116 139.193 51.0286 139.301 50.9662 139.374C50.9322 139.42 50.8811 139.442 50.8301 139.442L50.8358 139.437Z" fill="white"/>
<path d="M37.0508 151.048C37.0111 151.048 36.9714 151.036 36.9431 151.008C36.8693 150.946 36.858 150.844 36.9204 150.77C37.0224 150.646 37.1358 150.521 37.2379 150.397C37.7823 149.769 38.338 149.124 38.5081 148.269C38.6272 147.664 38.6669 147.041 38.7066 146.43C38.7633 145.531 38.82 144.597 39.1432 143.686C39.7953 141.836 40.7593 140.37 41.9331 139.454C42.0068 139.397 42.1145 139.408 42.1712 139.482C42.2279 139.556 42.2166 139.663 42.1429 139.72C41.0201 140.597 40.0958 142.006 39.4664 143.794C39.1602 144.665 39.1035 145.57 39.0468 146.447C39.0071 147.064 38.9674 147.703 38.8427 148.332C38.6555 149.276 38.0658 149.955 37.4931 150.618C37.3854 150.742 37.2776 150.866 37.1812 150.985C37.1472 151.025 37.1018 151.048 37.0508 151.048Z" fill="white"/>
<path d="M37.4818 152.422C37.4251 152.422 37.3683 152.394 37.34 152.343C37.289 152.264 37.3116 152.156 37.391 152.111C37.9637 151.743 38.4684 151.177 38.888 150.419C38.9334 150.34 39.0355 150.306 39.1205 150.351C39.1999 150.397 39.2339 150.498 39.1886 150.583C38.7406 151.387 38.1962 151.998 37.5725 152.394C37.5441 152.411 37.5101 152.422 37.4818 152.422Z" fill="white"/>
<path d="M39.8577 147.392C39.8577 147.392 39.852 147.392 39.8464 147.392C39.75 147.386 39.6819 147.301 39.6876 147.211C39.7613 146.187 39.9144 145.281 40.1526 144.455C40.6402 142.758 41.5702 141.332 42.8404 140.33C44.0765 139.357 45.5792 138.876 47.0649 138.967C47.1613 138.973 47.2293 139.052 47.2236 139.148C47.218 139.244 47.1386 139.312 47.0422 139.306C44.1106 139.125 41.4114 141.281 40.4758 144.546C40.2433 145.349 40.0959 146.232 40.0221 147.234C40.0165 147.324 39.9428 147.392 39.852 147.392H39.8577Z" fill="white"/>
<path d="M52.7637 144.173C52.6956 144.173 52.6276 144.127 52.6049 144.06C51.8167 141.785 50.1439 140.082 48.1422 139.505C48.0515 139.476 48.0005 139.386 48.0288 139.295C48.0572 139.205 48.1479 139.154 48.2386 139.182C50.3481 139.793 52.1002 141.576 52.9281 143.952C52.9565 144.043 52.9111 144.139 52.8204 144.167C52.8034 144.173 52.7807 144.178 52.7637 144.178V144.173Z" fill="white"/>
<path d="M52.7298 153.837C52.7298 153.837 52.7071 153.837 52.6958 153.837C52.605 153.82 52.5427 153.729 52.5597 153.639C53.0247 151.273 53.2175 149.169 53.1551 147.205C53.1551 147.109 53.2231 147.035 53.3195 147.03C53.4159 147.03 53.4896 147.098 53.4953 147.194C53.5634 149.186 53.3649 151.313 52.8942 153.707C52.8772 153.786 52.8092 153.842 52.7298 153.842V153.837Z" fill="white"/>
<path d="M51.7148 157.922C51.7148 157.922 51.6807 157.922 51.6637 157.917C51.573 157.888 51.522 157.798 51.5503 157.707C51.8168 156.808 52.055 155.914 52.2535 155.059C52.2761 154.969 52.3669 154.912 52.4576 154.935C52.5483 154.957 52.605 155.048 52.5823 155.138C52.3782 156.004 52.14 156.904 51.8735 157.809C51.8509 157.883 51.7828 157.928 51.7091 157.928L51.7148 157.922Z" fill="white"/>
<path d="M38.1225 153.876C38.0771 153.876 38.0374 153.859 38.0034 153.825C37.9354 153.758 37.9354 153.65 38.0034 153.588C39.7272 151.834 40.6742 149.91 40.8273 147.867C40.833 147.771 40.9181 147.703 41.0088 147.709C41.1052 147.714 41.1732 147.799 41.1676 147.89C41.0088 149.983 39.9994 152.037 38.2473 153.825C38.2132 153.859 38.1679 153.876 38.1282 153.876H38.1225Z" fill="white"/>
<path d="M51.9188 151.505C51.9188 151.505 51.9018 151.505 51.8961 151.505C51.8054 151.494 51.7374 151.404 51.7544 151.313C52.0606 149.27 52.3044 147.279 51.8621 145.423C51.5446 144.087 50.8641 142.882 49.9398 142.028C48.0402 140.268 45.3864 140.195 43.4925 141.841C42.2733 142.899 41.4511 144.534 41.2413 146.322C41.23 146.413 41.1449 146.481 41.0542 146.47C40.9635 146.458 40.8954 146.373 40.9068 146.283C41.1279 144.41 41.9898 142.701 43.2713 141.586C45.3014 139.821 48.1423 139.9 50.178 141.785C51.1533 142.684 51.8678 143.952 52.1967 145.349C52.6503 147.262 52.4065 149.287 52.0946 151.364C52.0833 151.449 52.0095 151.511 51.9245 151.511L51.9188 151.505Z" fill="white"/>
<path d="M50.1894 158.81C50.1894 158.81 50.1497 158.81 50.1327 158.799C50.0419 158.765 49.9966 158.669 50.0306 158.584C50.6487 156.853 51.1307 154.968 51.5106 152.83C51.5276 152.739 51.6126 152.677 51.709 152.694C51.7998 152.711 51.8621 152.796 51.8451 152.892C51.4652 155.048 50.9776 156.949 50.3481 158.697C50.3254 158.765 50.2574 158.81 50.1894 158.81Z" fill="white"/>
<path d="M48.6979 159.343C48.6979 159.343 48.6582 159.343 48.6412 159.331C48.5505 159.303 48.5051 159.201 48.5391 159.116C49.9397 155.088 50.6769 151.919 50.9321 148.835C50.9377 148.739 51.0228 148.671 51.1135 148.682C51.2099 148.688 51.278 148.773 51.2666 148.863C51.0115 151.975 50.2686 155.172 48.8567 159.224C48.834 159.292 48.7659 159.337 48.6979 159.337V159.343Z" fill="white"/>
<path d="M51.1533 147.46C51.0626 147.46 50.9832 147.386 50.9832 147.296C50.9151 144.614 49.3501 142.396 47.269 142.022C47.1783 142.005 47.1159 141.915 47.1329 141.824C47.1499 141.734 47.2407 141.671 47.3314 141.688C49.5712 142.09 51.2554 144.45 51.3291 147.29C51.3291 147.386 51.2554 147.46 51.1646 147.465L51.1533 147.46Z" fill="white"/>
<path d="M40.2149 153.486C40.1752 153.486 40.1412 153.475 40.1072 153.446C40.0335 153.39 40.0221 153.282 40.0788 153.209C41.5985 151.319 41.9104 148.371 42.0125 146.311C42.1485 143.567 44.1786 141.892 46.1179 141.655C46.2143 141.643 46.2937 141.711 46.305 141.802C46.3163 141.892 46.2483 141.977 46.1576 141.988C44.36 142.209 42.4774 143.771 42.3527 146.323C42.2393 148.603 41.9047 151.472 40.3397 153.412C40.3056 153.452 40.2546 153.475 40.2093 153.475L40.2149 153.486Z" fill="white"/>
<path d="M38.9165 155.212C38.8768 155.212 38.8371 155.195 38.8031 155.167C38.735 155.104 38.7294 154.997 38.7917 154.929C38.9562 154.748 39.115 154.561 39.2681 154.369C39.3248 154.295 39.4325 154.284 39.5062 154.34C39.5799 154.397 39.5913 154.505 39.5346 154.578C39.3815 154.776 39.217 154.969 39.0469 155.155C39.0129 155.195 38.9675 155.212 38.9222 155.212H38.9165Z" fill="white"/>
<path d="M47.1442 159.586C47.1442 159.586 47.0988 159.586 47.0761 159.569C46.991 159.529 46.9514 159.427 46.9911 159.342C47.4674 158.284 47.8927 157.175 48.2669 156.044C48.2953 155.953 48.3917 155.908 48.4824 155.936C48.5731 155.964 48.6185 156.061 48.5901 156.151C48.2159 157.294 47.7792 158.414 47.3029 159.484C47.2746 159.546 47.2122 159.586 47.1498 159.586H47.1442Z" fill="white"/>
<path d="M49.299 153.169C49.299 153.169 49.2706 153.169 49.2593 153.169C49.1686 153.147 49.1119 153.056 49.1345 152.966C49.5371 151.24 49.7696 149.689 49.8433 148.235C49.9454 146.244 49.333 143.929 47.3257 143.426C45.874 143.058 44.36 143.946 43.7249 145.536C43.6909 145.621 43.5888 145.666 43.5038 145.632C43.4187 145.599 43.3733 145.497 43.4074 145.412C44.1048 143.663 45.789 142.69 47.405 143.098C48.3747 143.341 49.1459 144.009 49.6279 145.021C50.0531 145.915 50.2459 147.03 50.1836 148.252C50.1099 149.729 49.8774 151.296 49.4691 153.045C49.4521 153.124 49.3784 153.175 49.3046 153.175L49.299 153.169Z" fill="white"/>
<path d="M39.7102 156.242C39.6705 156.242 39.6308 156.23 39.6025 156.202C39.5288 156.14 39.5174 156.038 39.5798 155.964C41.5021 153.65 42.6418 151.206 42.9594 148.71C42.9707 148.62 43.0558 148.552 43.1522 148.563C43.2429 148.575 43.311 148.659 43.2996 148.756C42.9707 151.319 41.8083 153.814 39.8406 156.185C39.8066 156.225 39.7612 156.247 39.7102 156.247V156.242Z" fill="white"/>
<path d="M45.5451 159.529C45.5451 159.529 45.4884 159.523 45.4657 159.507C45.3807 159.461 45.3523 159.359 45.3977 159.275C45.5111 159.071 45.6188 158.861 45.7266 158.663C45.7719 158.579 45.874 158.55 45.9534 158.59C46.0384 158.635 46.0668 158.737 46.0271 158.816C45.9194 159.02 45.8116 159.229 45.6982 159.439C45.6699 159.495 45.6075 159.529 45.5508 159.529H45.5451Z" fill="white"/>
<path d="M46.5148 157.605C46.5148 157.605 46.4694 157.605 46.4467 157.588C46.3617 157.549 46.322 157.453 46.3617 157.362C48.2102 153.232 48.9814 149.803 48.7206 146.866C48.7149 146.775 48.7829 146.691 48.8737 146.685C48.9701 146.679 49.0495 146.747 49.0551 146.838C49.316 149.831 48.5391 153.322 46.6679 157.503C46.6395 157.566 46.5771 157.605 46.5148 157.605Z" fill="white"/>
<path d="M43.3508 152.484C43.3508 152.484 43.3111 152.484 43.2884 152.473C43.2034 152.439 43.158 152.343 43.192 152.252C43.7761 150.77 44.0936 149.265 44.139 147.765C44.1957 145.921 44.9329 144.665 46.1634 144.331C46.9175 144.127 47.7227 144.41 48.3125 145.095C48.3748 145.168 48.3635 145.27 48.2955 145.332C48.2217 145.395 48.1197 145.383 48.0573 145.315C47.5526 144.733 46.8835 144.489 46.2541 144.659C44.7287 145.072 44.5019 146.973 44.4792 147.771C44.4339 149.304 44.105 150.855 43.5096 152.371C43.4812 152.439 43.4188 152.479 43.3508 152.479V152.484Z" fill="white"/>
<path d="M40.4929 157.056C40.4532 157.056 40.4078 157.039 40.3795 157.011C40.3114 156.949 40.3058 156.841 40.3682 156.773C41.111 155.976 41.7688 155.07 42.3245 154.08C42.3698 154.001 42.4719 153.967 42.557 154.018C42.6363 154.063 42.6704 154.165 42.6193 154.25C42.0466 155.263 41.3775 156.191 40.6177 157.005C40.5836 157.039 40.5383 157.062 40.4929 157.062V157.056Z" fill="white"/>
<path d="M41.5815 157.951C41.5418 157.951 41.4964 157.934 41.4624 157.905C41.3944 157.843 41.3944 157.736 41.4624 157.668C43.5435 155.512 44.9044 152.377 45.1936 149.067C45.1992 148.971 45.2843 148.903 45.375 148.914C45.4658 148.92 45.5395 149.005 45.5281 149.095C45.2333 152.479 43.8383 155.687 41.7062 157.9C41.6722 157.934 41.6269 157.951 41.5815 157.951Z" fill="white"/>
<path d="M47.8417 148.128C47.8417 148.128 47.8361 148.128 47.8304 148.128C47.734 148.128 47.6659 148.043 47.6716 147.947C47.7056 147.409 47.6773 146.142 46.7643 145.995C46.5148 145.955 46.2937 146.012 46.1066 146.17C45.8004 146.43 45.6076 146.951 45.6076 147.522C45.6076 147.619 45.5338 147.692 45.4374 147.692C45.341 147.692 45.2673 147.619 45.2673 147.522C45.2673 146.843 45.4998 146.238 45.8911 145.91C46.1519 145.689 46.4751 145.599 46.8267 145.661C47.6489 145.797 48.0969 146.662 48.0175 147.969C48.0175 148.06 47.9381 148.128 47.8474 148.128H47.8417Z" fill="white"/>
<path d="M43.9971 159.173C43.9575 159.173 43.9234 159.161 43.8894 159.133C43.8157 159.077 43.8044 158.969 43.8611 158.896C45.772 156.53 47.0705 153.152 47.5185 149.378C47.5299 149.288 47.6149 149.22 47.7056 149.231C47.7964 149.243 47.8644 149.327 47.8531 149.418C47.3938 153.254 46.0669 156.7 44.1219 159.111C44.0879 159.15 44.0368 159.173 43.9915 159.173H43.9971Z" fill="white"/>
<path d="M42.6533 158.607C42.6136 158.607 42.5739 158.595 42.5399 158.567C42.4662 158.505 42.4605 158.397 42.5229 158.33C43.8781 156.762 44.9442 154.878 45.6019 152.869C45.6303 152.779 45.7267 152.734 45.8174 152.762C45.9081 152.79 45.9535 152.886 45.9251 152.977C45.256 155.025 44.1673 156.955 42.778 158.55C42.744 158.59 42.6986 158.607 42.6476 158.607H42.6533Z" fill="white"/>
<path d="M46.169 151.641C46.169 151.641 46.1406 151.641 46.1293 151.641C46.0385 151.619 45.9818 151.528 46.0045 151.438C46.3164 150.091 46.4695 148.693 46.4638 147.273C46.4638 147.177 46.5375 147.104 46.6339 147.104C46.7303 147.104 46.8041 147.177 46.8041 147.273C46.8154 148.716 46.6566 150.148 46.3391 151.517C46.3221 151.596 46.2483 151.647 46.1746 151.647L46.169 151.641Z" fill="white"/>
<g style="mix-blend-mode:multiply">
<path opacity="0.06" d="M503.884 299.345H354.563C330.764 299.345 311.473 280.095 311.473 256.348C311.473 232.6 330.764 213.351 354.563 213.351H503.884C527.683 213.351 546.974 232.6 546.974 256.348C546.974 280.095 527.677 299.345 503.884 299.345Z" fill="url(#paint16_linear_855_1590)"/>
<path opacity="0.12" d="M503.912 298.298H354.541C331.32 298.298 312.5 279.518 312.5 256.348C312.5 233.177 331.32 214.397 354.541 214.397H503.912C527.127 214.397 545.953 233.177 545.953 256.348C545.953 279.518 527.127 298.298 503.912 298.298Z" fill="url(#paint17_linear_855_1590)"/>
<path opacity="0.19" d="M503.935 297.251H354.512C331.87 297.251 313.52 278.935 313.52 256.347C313.52 233.76 331.87 215.444 354.512 215.444H503.935C526.571 215.444 544.926 233.76 544.926 256.347C544.926 278.941 526.571 297.251 503.935 297.251Z" fill="url(#paint18_linear_855_1590)"/>
<path opacity="0.25" d="M503.963 296.199H354.495C332.437 296.199 314.552 278.353 314.552 256.342C314.552 234.332 332.437 216.485 354.495 216.485H503.963C526.021 216.485 543.906 234.332 543.906 256.342C543.906 278.353 526.021 296.199 503.963 296.199Z" fill="url(#paint19_linear_855_1590)"/>
<path opacity="0.31" d="M503.986 295.152H354.467C332.987 295.152 315.573 277.775 315.573 256.342C315.573 234.908 332.987 217.532 354.467 217.532H503.986C525.465 217.532 542.88 234.908 542.88 256.342C542.88 277.775 525.465 295.152 503.986 295.152Z" fill="url(#paint20_linear_855_1590)"/>
<path opacity="0.38" d="M504.008 294.105H354.438C333.537 294.105 316.594 277.198 316.594 256.342C316.594 235.486 333.537 218.579 354.438 218.579H504.008C524.91 218.579 541.853 235.486 541.853 256.342C541.853 277.198 524.91 294.105 504.008 294.105Z" fill="url(#paint21_linear_855_1590)"/>
<path opacity="0.44" d="M504.037 293.058H354.416C334.093 293.058 317.62 276.621 317.62 256.342C317.62 236.063 334.093 219.625 354.416 219.625H504.037C524.354 219.625 540.833 236.063 540.833 256.342C540.833 276.621 524.36 293.058 504.037 293.058Z" fill="url(#paint22_linear_855_1590)"/>
<path opacity="0.5" d="M504.06 292.012H354.393C334.654 292.012 318.646 276.044 318.646 256.342C318.646 236.646 334.649 220.672 354.393 220.672H504.06C523.798 220.672 539.806 236.64 539.806 256.342C539.806 276.038 523.804 292.012 504.06 292.012Z" fill="url(#paint23_linear_855_1590)"/>
<path opacity="0.56" d="M504.088 290.965H354.37C335.21 290.965 319.673 275.467 319.673 256.342C319.673 237.223 335.204 221.725 354.37 221.725H504.088C523.248 221.725 538.786 237.223 538.786 256.342C538.786 275.461 523.248 290.965 504.088 290.965Z" fill="url(#paint24_linear_855_1590)"/>
<path opacity="0.62" d="M504.111 289.918H354.342C335.76 289.918 320.694 274.89 320.694 256.342C320.694 237.8 335.76 222.771 354.342 222.771H504.111C522.693 222.771 537.759 237.8 537.759 256.342C537.759 274.884 522.693 289.918 504.111 289.918Z" fill="url(#paint25_linear_855_1590)"/>
<path opacity="0.69" d="M504.133 288.871H354.314C336.31 288.871 321.72 274.307 321.72 256.347C321.72 238.382 336.316 223.824 354.314 223.824H504.133C522.137 223.824 536.727 238.388 536.727 256.347C536.727 274.312 522.131 288.871 504.133 288.871Z" fill="url(#paint26_linear_855_1590)"/>
<path opacity="0.75" d="M504.161 287.824H354.291C336.866 287.824 322.746 273.73 322.746 256.348C322.746 238.965 336.871 224.871 354.291 224.871H504.161C521.581 224.871 535.706 238.965 535.706 256.348C535.706 273.735 521.581 287.824 504.161 287.824Z" fill="url(#paint27_linear_855_1590)"/>
<path opacity="0.81" d="M504.184 286.778H354.268C337.427 286.778 323.772 273.153 323.772 256.348C323.772 239.543 337.427 225.917 354.268 225.917H504.184C521.025 225.917 534.68 239.543 534.68 256.348C534.68 273.153 521.025 286.778 504.184 286.778Z" fill="url(#paint28_linear_855_1590)"/>
<path opacity="0.88" d="M504.213 285.731H354.246C337.983 285.731 324.799 272.576 324.799 256.348C324.799 240.12 337.983 226.964 354.246 226.964H504.213C520.475 226.964 533.659 240.12 533.659 256.348C533.659 272.576 520.475 285.731 504.213 285.731Z" fill="url(#paint29_linear_855_1590)"/>
<path opacity="0.94" d="M504.235 284.684H354.217C338.533 284.684 325.82 271.999 325.82 256.348C325.82 240.697 338.533 228.011 354.217 228.011H504.235C519.92 228.011 532.633 240.697 532.633 256.348C532.633 271.999 519.92 284.684 504.235 284.684Z" fill="url(#paint30_linear_855_1590)"/>
<path d="M504.258 283.637H354.189C339.083 283.637 326.84 271.421 326.84 256.347C326.84 241.274 339.089 229.058 354.189 229.058H504.258C519.364 229.058 531.607 241.274 531.607 256.347C531.607 271.421 519.359 283.637 504.258 283.637Z" fill="url(#paint31_linear_855_1590)"/>
</g>
<path d="M504.258 283.637H354.189C339.083 283.637 326.84 271.421 326.84 256.347C326.84 241.274 339.089 229.058 354.189 229.058H504.258C519.364 229.058 531.607 241.274 531.607 256.347C531.607 271.421 519.359 283.637 504.258 283.637Z" fill="white"/>
<path d="M357.092 272.955C347.566 272.955 339.843 265.248 339.843 255.742C339.843 246.236 347.566 238.53 357.092 238.53C366.619 238.53 374.342 246.236 374.342 255.742C374.342 265.248 366.619 272.955 357.092 272.955Z" fill="#7DE5A4"/>
<path d="M459.966 250.021H388.331C384.833 250.021 381.997 252.851 381.997 256.342V256.347C381.997 259.838 384.833 262.668 388.331 262.668H459.966C463.464 262.668 466.3 259.838 466.3 256.347V256.342C466.3 252.851 463.464 250.021 459.966 250.021Z" fill="#DCD8D8"/>
<path d="M510.41 246.525H488.494C483.057 246.525 478.65 250.923 478.65 256.348C478.65 261.773 483.057 266.17 488.494 266.17H510.41C515.847 266.17 520.254 261.773 520.254 256.348C520.254 250.923 515.847 246.525 510.41 246.525Z" fill="#DCD8D8"/>
<path d="M490.138 263.97C494.36 263.97 497.782 260.555 497.782 256.342C497.782 252.13 494.36 248.715 490.138 248.715C485.917 248.715 482.495 252.13 482.495 256.342C482.495 260.555 485.917 263.97 490.138 263.97Z" fill="white"/>
<path fill-rule="evenodd" clip-rule="evenodd" d="M356.746 245.563C356.967 245.484 357.211 245.484 357.438 245.563L364.623 248.126C365.031 248.273 365.303 248.658 365.303 249.088V258.119C365.303 259.861 364.413 261.485 362.944 262.424L357.642 265.825C357.302 266.04 356.871 266.04 356.531 265.825L351.235 262.424C349.766 261.48 348.876 259.861 348.876 258.119V249.088C348.876 248.658 349.148 248.267 349.556 248.126L356.741 245.563H356.746ZM360.897 254.418C361.305 254.028 361.322 253.377 360.931 252.969C360.54 252.562 359.888 252.545 359.48 252.936C359.468 252.947 359.457 252.958 359.446 252.969L356.066 256.342L354.739 255.018C354.331 254.622 353.684 254.633 353.287 255.04C352.902 255.436 352.902 256.07 353.287 256.466L355.34 258.515C355.743 258.916 356.389 258.916 356.792 258.515L360.897 254.418Z" fill="white"/>
<path d="M292.761 163.388C292.556 163.388 292.386 163.224 292.386 163.014C292.386 157.169 290.765 151.426 287.822 146.854C287.708 146.679 287.759 146.453 287.935 146.34C288.111 146.226 288.338 146.277 288.451 146.453C291.468 151.143 293.129 157.028 293.129 163.014C293.129 163.218 292.965 163.388 292.755 163.388H292.761Z" fill="#0000FF"/>
<path d="M286.319 144.529C286.211 144.529 286.103 144.484 286.03 144.393C284.442 142.475 282.639 140.868 280.654 139.617C273.112 134.859 263.626 136.081 257.042 142.65C256.895 142.797 256.662 142.797 256.515 142.65C256.367 142.503 256.367 142.271 256.515 142.124C263.353 135.3 273.214 134.038 281.057 138.989C283.104 140.279 284.969 141.937 286.608 143.918C286.738 144.076 286.716 144.314 286.557 144.444C286.489 144.501 286.404 144.529 286.319 144.529Z" fill="#0000FF"/>
<path d="M248.741 163.388C248.537 163.388 248.366 163.224 248.366 163.014C248.366 157.594 249.756 152.162 252.279 147.714C252.977 146.481 253.77 145.31 254.627 144.235C254.757 144.076 254.99 144.048 255.148 144.172C255.307 144.303 255.335 144.535 255.211 144.693C254.377 145.74 253.606 146.883 252.926 148.077C250.465 152.416 249.109 157.718 249.109 163.009C249.109 163.212 248.945 163.382 248.735 163.382L248.741 163.388Z" fill="#0000FF"/>
<path d="M289.551 177.245C289.551 177.245 289.523 177.245 289.506 177.245C289.302 177.217 289.154 177.036 289.182 176.832C289.999 170.302 290.18 165.176 289.761 160.7C289.744 160.497 289.891 160.315 290.095 160.293C290.3 160.276 290.481 160.423 290.504 160.627C290.929 165.153 290.747 170.331 289.925 176.917C289.903 177.104 289.738 177.245 289.557 177.245H289.551Z" fill="#0000FF"/>
<path d="M288.825 154.465C288.667 154.465 288.519 154.363 288.468 154.205C285.684 145.491 278.715 139.635 271.139 139.635C270.935 139.635 270.765 139.47 270.765 139.261C270.765 139.057 270.929 138.888 271.139 138.888C275.012 138.888 278.789 140.336 282.055 143.08C285.31 145.808 287.771 149.576 289.177 153.973C289.239 154.171 289.132 154.38 288.933 154.442C288.893 154.454 288.859 154.459 288.82 154.459L288.825 154.465Z" fill="#0000FF"/>
<path d="M252.426 155.427C252.392 155.427 252.353 155.427 252.319 155.41C252.12 155.353 252.007 155.144 252.069 154.946C253.22 151.098 255.205 147.454 257.655 144.682C260.354 141.626 263.444 139.804 266.591 139.408C266.795 139.38 266.982 139.527 267.011 139.731C267.039 139.934 266.892 140.121 266.688 140.15C259.968 141.004 254.768 148.529 252.784 155.161C252.733 155.325 252.585 155.427 252.426 155.427Z" fill="#0000FF"/>
<path d="M249.018 167.756C248.894 167.756 248.769 167.694 248.701 167.58C248.593 167.405 248.65 167.173 248.826 167.066C250.986 165.736 250.986 162.516 250.986 159.925H251.36H251.735C251.735 162.703 251.735 166.16 249.217 167.705C249.155 167.745 249.086 167.761 249.024 167.761L249.018 167.756Z" fill="#0000FF"/>
<path d="M285.638 183.033C285.638 183.033 285.587 183.033 285.559 183.028C285.355 182.982 285.23 182.784 285.27 182.586C285.826 180.017 286.279 177.449 286.631 174.953C286.659 174.75 286.846 174.608 287.05 174.636C287.254 174.665 287.396 174.851 287.368 175.055C287.016 177.567 286.551 180.153 285.996 182.739C285.956 182.914 285.803 183.033 285.633 183.033H285.638Z" fill="#0000FF"/>
<path d="M287.657 169.374C287.657 169.374 287.64 169.374 287.629 169.374C287.425 169.357 287.266 169.182 287.283 168.978C287.907 160.298 286.449 153.576 282.951 148.999C282.826 148.835 282.854 148.603 283.019 148.478C283.183 148.354 283.416 148.382 283.54 148.546C287.153 153.271 288.667 160.162 288.026 169.029C288.014 169.227 287.85 169.374 287.652 169.374H287.657Z" fill="#0000FF"/>
<path d="M279.962 145.83C279.883 145.83 279.804 145.807 279.736 145.751C274.859 141.982 268.383 141.581 263.234 144.715C263.059 144.823 262.826 144.766 262.724 144.591C262.616 144.415 262.673 144.183 262.849 144.082C265.52 142.452 268.565 141.694 271.644 141.886C274.717 142.079 277.671 143.21 280.2 145.162C280.365 145.287 280.393 145.524 280.269 145.683C280.195 145.779 280.087 145.83 279.974 145.83H279.962Z" fill="#0000FF"/>
<path d="M249.71 171.315C249.625 171.315 249.54 171.287 249.472 171.23C249.313 171.1 249.291 170.862 249.421 170.704C249.648 170.432 249.892 170.149 250.124 169.883C251.315 168.508 252.546 167.088 252.92 165.21C253.186 163.886 253.271 162.511 253.351 161.181C253.476 159.201 253.6 157.158 254.309 155.155C255.738 151.092 257.853 147.884 260.433 145.87C260.598 145.745 260.83 145.773 260.955 145.932C261.08 146.096 261.051 146.328 260.892 146.452C258.431 148.376 256.396 151.471 255.012 155.398C254.343 157.305 254.218 159.297 254.099 161.226C254.014 162.579 253.929 163.982 253.651 165.357C253.237 167.428 251.944 168.921 250.691 170.37C250.453 170.647 250.221 170.913 250 171.179C249.926 171.27 249.818 171.315 249.71 171.315Z" fill="#0000FF"/>
<path d="M250.652 174.331C250.527 174.331 250.408 174.269 250.334 174.161C250.221 173.986 250.272 173.759 250.447 173.646C251.712 172.843 252.818 171.598 253.736 169.94C253.838 169.759 254.065 169.697 254.241 169.793C254.422 169.895 254.485 170.121 254.388 170.297C253.407 172.062 252.217 173.397 250.844 174.269C250.782 174.308 250.714 174.325 250.646 174.325L250.652 174.331Z" fill="#0000FF"/>
<path d="M255.874 163.291C255.874 163.291 255.857 163.291 255.846 163.291C255.642 163.274 255.489 163.099 255.5 162.895C255.664 160.643 255.999 158.663 256.521 156.847C257.592 153.118 259.634 149.989 262.418 147.799C265.134 145.666 268.429 144.602 271.695 144.806C271.899 144.817 272.058 144.993 272.046 145.202C272.035 145.406 271.859 145.564 271.649 145.553C265.219 145.162 259.293 149.893 257.235 157.056C256.73 158.821 256.401 160.751 256.243 162.952C256.226 163.15 256.067 163.297 255.868 163.297L255.874 163.291Z" fill="#0000FF"/>
<path d="M284.192 156.224C284.039 156.224 283.892 156.128 283.841 155.975C282.106 150.985 278.443 147.245 274.042 145.977C273.844 145.921 273.73 145.711 273.787 145.513C273.844 145.315 274.054 145.202 274.252 145.259C278.885 146.594 282.735 150.51 284.55 155.732C284.618 155.925 284.516 156.14 284.317 156.207C284.277 156.219 284.238 156.23 284.192 156.23V156.224Z" fill="#0000FF"/>
<path d="M284.124 177.437C284.124 177.437 284.079 177.437 284.051 177.431C283.847 177.392 283.716 177.194 283.756 176.996C284.777 171.807 285.202 167.184 285.06 162.873C285.054 162.669 285.213 162.494 285.423 162.488C285.633 162.482 285.803 162.641 285.809 162.85C285.956 167.218 285.525 171.892 284.493 177.143C284.459 177.318 284.3 177.443 284.124 177.443V177.437Z" fill="#0000FF"/>
<path d="M281.896 186.4C281.862 186.4 281.828 186.4 281.788 186.383C281.59 186.327 281.476 186.117 281.539 185.919C282.123 183.944 282.644 181.987 283.087 180.102C283.132 179.904 283.336 179.78 283.535 179.825C283.733 179.87 283.858 180.074 283.812 180.272C283.37 182.173 282.843 184.142 282.253 186.134C282.208 186.298 282.055 186.4 281.896 186.4Z" fill="#0000FF"/>
<path d="M252.058 177.522C251.962 177.522 251.871 177.488 251.797 177.414C251.65 177.273 251.65 177.035 251.797 176.888C255.574 173.041 257.66 168.814 257.995 164.333C258.012 164.129 258.188 163.976 258.398 163.987C258.602 164.004 258.755 164.18 258.743 164.389C258.398 168.989 256.18 173.493 252.33 177.414C252.256 177.488 252.16 177.528 252.064 177.528L252.058 177.522Z" fill="#0000FF"/>
<path d="M282.344 172.328C282.344 172.328 282.304 172.328 282.287 172.328C282.083 172.299 281.941 172.107 281.975 171.903C282.65 167.416 283.178 163.048 282.219 158.98C281.527 156.049 280.03 153.407 278.006 151.534C273.833 147.675 268.015 147.505 263.853 151.121C261.17 153.446 259.373 157.033 258.914 160.955C258.891 161.158 258.704 161.305 258.5 161.283C258.296 161.26 258.148 161.073 258.171 160.87C258.653 156.762 260.541 153.005 263.359 150.56C267.822 146.69 274.054 146.866 278.511 150.99C280.649 152.965 282.219 155.743 282.945 158.816C283.937 163.014 283.399 167.456 282.713 172.022C282.684 172.209 282.525 172.339 282.344 172.339V172.328Z" fill="#0000FF"/>
<path d="M278.539 188.358C278.499 188.358 278.454 188.352 278.414 188.335C278.221 188.267 278.119 188.052 278.187 187.86C279.548 184.058 280.609 179.927 281.437 175.236C281.471 175.033 281.663 174.897 281.867 174.937C282.072 174.971 282.208 175.163 282.168 175.367C281.334 180.103 280.263 184.273 278.89 188.115C278.834 188.267 278.692 188.364 278.539 188.364V188.358Z" fill="#0000FF"/>
<path d="M275.273 189.518C275.233 189.518 275.193 189.512 275.148 189.495C274.955 189.427 274.847 189.218 274.915 189.02C277.989 180.182 279.611 173.222 280.161 166.46C280.178 166.257 280.359 166.104 280.563 166.121C280.767 166.138 280.921 166.319 280.904 166.523C280.348 173.352 278.715 180.363 275.619 189.269C275.568 189.422 275.42 189.518 275.267 189.518H275.273Z" fill="#0000FF"/>
<path d="M280.66 163.45C280.456 163.45 280.291 163.292 280.286 163.088C280.132 157.203 276.702 152.337 272.131 151.511C271.927 151.477 271.791 151.279 271.831 151.081C271.865 150.877 272.063 150.747 272.262 150.781C277.178 151.67 280.87 156.836 281.034 163.071C281.034 163.275 280.875 163.45 280.671 163.456C280.671 163.456 280.665 163.456 280.66 163.456V163.45Z" fill="#0000FF"/>
<path d="M256.651 176.668C256.572 176.668 256.486 176.64 256.418 176.583C256.26 176.453 256.231 176.221 256.362 176.057C259.702 171.915 260.388 165.436 260.609 160.921C260.909 154.901 265.366 151.228 269.619 150.702C269.823 150.679 270.011 150.821 270.033 151.025C270.056 151.228 269.914 151.415 269.71 151.438C265.769 151.919 261.635 155.348 261.357 160.949C261.108 165.957 260.376 172.254 256.946 176.515C256.872 176.606 256.764 176.657 256.657 176.657L256.651 176.668Z" fill="#0000FF"/>
<path d="M253.805 180.453C253.714 180.453 253.629 180.419 253.555 180.357C253.402 180.221 253.391 179.984 253.527 179.831C253.884 179.435 254.235 179.016 254.564 178.597C254.695 178.439 254.927 178.411 255.086 178.535C255.245 178.665 255.273 178.897 255.148 179.056C254.808 179.486 254.445 179.91 254.082 180.323C254.009 180.408 253.907 180.448 253.805 180.448V180.453Z" fill="#0000FF"/>
<path d="M271.865 190.055C271.814 190.055 271.763 190.044 271.712 190.021C271.525 189.936 271.44 189.716 271.525 189.529C272.568 187.209 273.509 184.776 274.326 182.292C274.388 182.094 274.604 181.992 274.797 182.054C274.995 182.117 275.097 182.332 275.035 182.524C274.207 185.031 273.26 187.492 272.205 189.834C272.143 189.97 272.007 190.055 271.865 190.055Z" fill="#0000FF"/>
<path d="M276.588 175.978C276.588 175.978 276.532 175.978 276.503 175.966C276.305 175.921 276.18 175.717 276.225 175.519C277.11 171.728 277.62 168.333 277.779 165.131C278 160.757 276.662 155.687 272.25 154.572C269.064 153.769 265.741 155.715 264.346 159.206C264.272 159.399 264.051 159.489 263.858 159.416C263.665 159.342 263.575 159.122 263.648 158.929C265.185 155.093 268.877 152.954 272.426 153.854C274.558 154.391 276.242 155.851 277.297 158.075C278.227 160.033 278.647 162.488 278.516 165.17C278.352 168.418 277.842 171.858 276.946 175.689C276.906 175.859 276.753 175.978 276.583 175.978H276.588Z" fill="#0000FF"/>
<path d="M255.545 182.716C255.46 182.716 255.375 182.688 255.307 182.632C255.148 182.501 255.126 182.264 255.256 182.105C259.481 177.024 261.976 171.666 262.679 166.183C262.707 165.979 262.889 165.832 263.098 165.86C263.302 165.889 263.45 166.075 263.422 166.279C262.701 171.903 260.15 177.386 255.834 182.581C255.761 182.671 255.653 182.716 255.545 182.716Z" fill="#0000FF"/>
<path d="M268.349 189.931C268.287 189.931 268.23 189.914 268.174 189.886C267.992 189.789 267.924 189.563 268.026 189.382C268.27 188.935 268.508 188.482 268.741 188.035C268.837 187.854 269.058 187.781 269.245 187.877C269.427 187.973 269.5 188.194 269.404 188.38C269.172 188.833 268.928 189.291 268.684 189.738C268.616 189.863 268.485 189.931 268.355 189.931H268.349Z" fill="#0000FF"/>
<path d="M270.476 185.709C270.425 185.709 270.373 185.698 270.322 185.675C270.135 185.591 270.05 185.37 270.135 185.183C274.19 176.124 275.885 168.588 275.318 162.143C275.301 161.939 275.454 161.758 275.658 161.741C275.863 161.724 276.044 161.877 276.061 162.081C276.639 168.655 274.921 176.311 270.816 185.489C270.753 185.625 270.617 185.709 270.476 185.709Z" fill="#0000FF"/>
<path d="M263.541 174.466C263.495 174.466 263.45 174.461 263.404 174.438C263.212 174.365 263.115 174.15 263.195 173.957C264.47 170.709 265.168 167.394 265.27 164.112C265.395 160.061 267.017 157.311 269.716 156.581C271.371 156.128 273.135 156.756 274.434 158.256C274.57 158.414 274.553 158.646 274.394 158.782C274.235 158.918 274.003 158.901 273.866 158.742C272.761 157.463 271.286 156.926 269.914 157.299C266.563 158.21 266.075 162.386 266.019 164.134C265.916 167.507 265.196 170.902 263.892 174.229C263.835 174.376 263.694 174.466 263.546 174.466H263.541Z" fill="#0000FF"/>
<path d="M257.263 184.51C257.173 184.51 257.082 184.476 257.008 184.408C256.855 184.267 256.849 184.035 256.986 183.882C258.613 182.134 260.053 180.142 261.278 177.969C261.38 177.788 261.607 177.726 261.788 177.828C261.97 177.93 262.032 178.156 261.93 178.337C260.677 180.561 259.197 182.598 257.536 184.391C257.462 184.47 257.36 184.51 257.263 184.51Z" fill="#0000FF"/>
<path d="M259.651 186.462C259.56 186.462 259.464 186.428 259.39 186.36C259.242 186.219 259.237 185.981 259.379 185.834C263.949 181.098 266.932 174.218 267.561 166.958C267.578 166.754 267.759 166.602 267.964 166.618C268.168 166.635 268.321 166.817 268.304 167.02C267.657 174.444 264.601 181.488 259.912 186.349C259.838 186.422 259.741 186.462 259.645 186.462H259.651Z" fill="#0000FF"/>
<path d="M273.39 164.91C273.39 164.91 273.373 164.91 273.367 164.91C273.163 164.899 273.005 164.723 273.016 164.514C273.084 163.337 273.027 160.559 271.02 160.225C270.47 160.134 269.982 160.265 269.574 160.61C268.899 161.181 268.474 162.318 268.474 163.575C268.474 163.778 268.304 163.948 268.1 163.948C267.895 163.948 267.725 163.778 267.725 163.575C267.725 162.081 268.236 160.762 269.092 160.038C269.67 159.552 270.379 159.359 271.145 159.489C272.954 159.789 273.935 161.685 273.764 164.559C273.753 164.757 273.589 164.91 273.39 164.91Z" fill="#0000FF"/>
<path d="M264.947 189.156C264.862 189.156 264.782 189.127 264.714 189.071C264.556 188.941 264.527 188.709 264.658 188.545C268.848 183.356 271.7 175.938 272.687 167.654C272.71 167.451 272.897 167.303 273.101 167.326C273.305 167.349 273.453 167.535 273.43 167.739C272.421 176.164 269.512 183.718 265.236 189.008C265.162 189.099 265.055 189.15 264.947 189.15V189.156Z" fill="#0000FF"/>
<path d="M262.004 187.905C261.919 187.905 261.828 187.877 261.76 187.814C261.607 187.679 261.59 187.447 261.72 187.288C264.697 183.854 267.034 179.712 268.48 175.31C268.542 175.112 268.752 175.01 268.95 175.072C269.149 175.134 269.251 175.344 269.188 175.542C267.714 180.04 265.327 184.267 262.287 187.78C262.214 187.865 262.112 187.911 262.004 187.911V187.905Z" fill="#0000FF"/>
<path d="M269.721 172.617C269.721 172.617 269.665 172.617 269.636 172.605C269.438 172.56 269.313 172.356 269.358 172.158C270.045 169.205 270.379 166.132 270.362 163.015C270.362 162.811 270.527 162.641 270.731 162.641C270.941 162.641 271.105 162.805 271.105 163.009C271.128 166.178 270.782 169.312 270.084 172.322C270.045 172.492 269.891 172.611 269.721 172.611V172.617Z" fill="#0000FF"/>
<path d="M221.704 124.702H221.438V106.817L230.646 97.6333H248.571V97.8936H230.76L221.704 106.93V124.702Z" fill="#0000FF"/>
<path d="M320.064 124.702H319.798V106.93L310.747 97.8936H292.937V97.6333H310.855L310.895 97.6672L320.064 106.817V124.702Z" fill="#0000FF"/>
<path d="M248.571 228.419H230.646L221.438 219.23V201.344H221.704V219.116L230.76 228.153H248.571V228.419Z" fill="#0000FF"/>
<path d="M310.855 228.419H292.937V228.153H310.747L319.798 219.116V201.344H320.064V219.23L310.855 228.419Z" fill="#0000FF"/>
</g>
<defs>
<filter id="filter0_d_855_1590" x="185.939" y="56.8511" width="179.623" height="308.367" filterUnits="userSpaceOnUse" color-interpolation-filters="sRGB">
<feFlood flood-opacity="0" result="BackgroundImageFix"/>
<feColorMatrix in="SourceAlpha" type="matrix" values="0 0 0 0 0 0 0 0 0 0 0 0 0 0 0 0 0 0 127 0" result="hardAlpha"/>
<feOffset dx="5" dy="5"/>
<feGaussianBlur stdDeviation="7"/>
<feColorMatrix type="matrix" values="0 0 0 0 0 0 0 0 0 0 0 0 0 0 0 0 0 0 0.25 0"/>
<feBlend mode="normal" in2="BackgroundImageFix" result="effect1_dropShadow_855_1590"/>
<feBlend mode="normal" in="SourceGraphic" in2="effect1_dropShadow_855_1590" result="shape"/>
</filter>
<filter id="filter1_d_855_1590" x="298.453" y="-1.37939" width="118.005" height="117.803" filterUnits="userSpaceOnUse" color-interpolation-filters="sRGB">
<feFlood flood-opacity="0" result="BackgroundImageFix"/>
<feColorMatrix in="SourceAlpha" type="matrix" values="0 0 0 0 0 0 0 0 0 0 0 0 0 0 0 0 0 0 127 0" result="hardAlpha"/>
<feOffset/>
<feGaussianBlur stdDeviation="6"/>
<feColorMatrix type="matrix" values="0 0 0 0 0.658824 0 0 0 0 0.658824 0 0 0 0 0.658824 0 0 0 0.45 0"/>
<feBlend mode="normal" in2="BackgroundImageFix" result="effect1_dropShadow_855_1590"/>
<feBlend mode="normal" in="SourceGraphic" in2="effect1_dropShadow_855_1590" result="shape"/>
</filter>
<filter id="filter2_d_855_1590" x="119.504" y="275.87" width="130.049" height="129.821" filterUnits="userSpaceOnUse" color-interpolation-filters="sRGB">
<feFlood flood-opacity="0" result="BackgroundImageFix"/>
<feColorMatrix in="SourceAlpha" type="matrix" values="0 0 0 0 0 0 0 0 0 0 0 0 0 0 0 0 0 0 127 0" result="hardAlpha"/>
<feOffset/>
<feGaussianBlur stdDeviation="6"/>
<feColorMatrix type="matrix" values="0 0 0 0 0.658824 0 0 0 0 0.658824 0 0 0 0 0.658824 0 0 0 0.45 0"/>
<feBlend mode="normal" in2="BackgroundImageFix" result="effect1_dropShadow_855_1590"/>
<feBlend mode="normal" in="SourceGraphic" in2="effect1_dropShadow_855_1590" result="shape"/>
</filter>
<linearGradient id="paint0_linear_855_1590" x1="37.4932" y1="86.928" x2="197.01" y2="207.049" gradientUnits="userSpaceOnUse">
<stop stop-color="white"/>
<stop offset="0.75" stop-color="#E3E7F4"/>
<stop offset="1" stop-color="#D9DFF1"/>
</linearGradient>
<linearGradient id="paint1_linear_855_1590" x1="38.565" y1="87.4543" x2="196.127" y2="206.65" gradientUnits="userSpaceOnUse">
<stop stop-color="white"/>
<stop offset="0.72" stop-color="#E3E8F5"/>
<stop offset="1" stop-color="#D8DFF1"/>
</linearGradient>
<linearGradient id="paint2_linear_855_1590" x1="39.6367" y1="87.9858" x2="195.244" y2="206.244" gradientUnits="userSpaceOnUse">
<stop stop-color="white"/>
<stop offset="0.7" stop-color="#E4E8F4"/>
<stop offset="1" stop-color="#D8DEF0"/>
</linearGradient>
<linearGradient id="paint3_linear_855_1590" x1="40.7027" y1="88.5234" x2="194.361" y2="205.833" gradientUnits="userSpaceOnUse">
<stop stop-color="white"/>
<stop offset="0.67" stop-color="#E5E9F5"/>
<stop offset="1" stop-color="#D7DDF0"/>
</linearGradient>
<linearGradient id="paint4_linear_855_1590" x1="41.7629" y1="89.061" x2="193.478" y2="205.416" gradientUnits="userSpaceOnUse">
<stop stop-color="white"/>
<stop offset="0.65" stop-color="#E5EAF5"/>
<stop offset="1" stop-color="#D6DDEF"/>
</linearGradient>
<linearGradient id="paint5_linear_855_1590" x1="42.8233" y1="89.6041" x2="192.595" y2="204.994" gradientUnits="userSpaceOnUse">
<stop stop-color="white"/>
<stop offset="0.62" stop-color="#E6EAF4"/>
<stop offset="1" stop-color="#D5DCEE"/>
</linearGradient>
<linearGradient id="paint6_linear_855_1590" x1="43.8781" y1="90.1531" x2="191.707" y2="204.566" gradientUnits="userSpaceOnUse">
<stop stop-color="white"/>
<stop offset="0.6" stop-color="#E6EBF5"/>
<stop offset="1" stop-color="#D4DCEE"/>
</linearGradient>
<linearGradient id="paint7_linear_855_1590" x1="44.9272" y1="90.7077" x2="190.824" y2="204.132" gradientUnits="userSpaceOnUse">
<stop stop-color="white"/>
<stop offset="0.59" stop-color="#E7EBF5"/>
<stop offset="1" stop-color="#D4DBED"/>
</linearGradient>
<linearGradient id="paint8_linear_855_1590" x1="45.9762" y1="91.262" x2="189.936" y2="203.693" gradientUnits="userSpaceOnUse">
<stop stop-color="white"/>
<stop offset="0.57" stop-color="#E7EBF4"/>
<stop offset="1" stop-color="#D3DAEC"/>
</linearGradient>
<linearGradient id="paint9_linear_855_1590" x1="47.0196" y1="91.8166" x2="189.053" y2="203.248" gradientUnits="userSpaceOnUse">
<stop stop-color="white"/>
<stop offset="0.55" stop-color="#E8ECF5"/>
<stop offset="1" stop-color="#D2DAEC"/>
</linearGradient>
<linearGradient id="paint10_linear_855_1590" x1="48.063" y1="92.3822" x2="188.165" y2="202.797" gradientUnits="userSpaceOnUse">
<stop stop-color="white"/>
<stop offset="0.53" stop-color="#E8ECF5"/>
<stop offset="1" stop-color="#D1D9EB"/>
</linearGradient>
<linearGradient id="paint11_linear_855_1590" x1="49.095" y1="92.9482" x2="187.282" y2="202.341" gradientUnits="userSpaceOnUse">
<stop stop-color="white"/>
<stop offset="0.51" stop-color="#E9EDF5"/>
<stop offset="1" stop-color="#D0D9EB"/>
</linearGradient>
<linearGradient id="paint12_linear_855_1590" x1="50.1325" y1="93.5141" x2="186.393" y2="201.879" gradientUnits="userSpaceOnUse">
<stop stop-color="white"/>
<stop offset="0.49" stop-color="#E9EDF5"/>
<stop offset="1" stop-color="#CFD8EA"/>
</linearGradient>
<linearGradient id="paint13_linear_855_1590" x1="51.1589" y1="94.0913" x2="185.511" y2="201.411" gradientUnits="userSpaceOnUse">
<stop stop-color="white"/>
<stop offset="0.49" stop-color="#E9EDF5"/>
<stop offset="1" stop-color="#CFD7E9"/>
</linearGradient>
<linearGradient id="paint14_linear_855_1590" x1="52.1853" y1="94.6686" x2="184.623" y2="200.938" gradientUnits="userSpaceOnUse">
<stop stop-color="white"/>
<stop offset="0.47" stop-color="#EAEEF5"/>
<stop offset="1" stop-color="#CED7E9"/>
</linearGradient>
<linearGradient id="paint15_linear_855_1590" x1="53.2117" y1="95.2453" x2="183.734" y2="200.458" gradientUnits="userSpaceOnUse">
<stop stop-color="white"/>
<stop offset="0.46" stop-color="#EAEEF5"/>
<stop offset="1" stop-color="#CDD6E8"/>
</linearGradient>
<linearGradient id="paint16_linear_855_1590" x1="347.946" y1="195.403" x2="507.457" y2="315.518" gradientUnits="userSpaceOnUse">
<stop stop-color="white"/>
<stop offset="0.75" stop-color="#E3E7F4"/>
<stop offset="1" stop-color="#D9DFF1"/>
</linearGradient>
<linearGradient id="paint17_linear_855_1590" x1="349.018" y1="195.929" x2="506.58" y2="315.119" gradientUnits="userSpaceOnUse">
<stop stop-color="white"/>
<stop offset="0.72" stop-color="#E3E8F5"/>
<stop offset="1" stop-color="#D8DFF1"/>
</linearGradient>
<linearGradient id="paint18_linear_855_1590" x1="350.083" y1="196.46" x2="505.697" y2="314.713" gradientUnits="userSpaceOnUse">
<stop stop-color="white"/>
<stop offset="0.7" stop-color="#E4E8F4"/>
<stop offset="1" stop-color="#D8DEF0"/>
</linearGradient>
<linearGradient id="paint19_linear_855_1590" x1="351.149" y1="196.998" x2="504.808" y2="314.302" gradientUnits="userSpaceOnUse">
<stop stop-color="white"/>
<stop offset="0.67" stop-color="#E5E9F5"/>
<stop offset="1" stop-color="#D7DDF0"/>
</linearGradient>
<linearGradient id="paint20_linear_855_1590" x1="352.216" y1="197.535" x2="503.925" y2="313.885" gradientUnits="userSpaceOnUse">
<stop stop-color="white"/>
<stop offset="0.65" stop-color="#E5EAF5"/>
<stop offset="1" stop-color="#D6DDEF"/>
</linearGradient>
<linearGradient id="paint21_linear_855_1590" x1="353.27" y1="198.079" x2="503.042" y2="313.468" gradientUnits="userSpaceOnUse">
<stop stop-color="white"/>
<stop offset="0.62" stop-color="#E6EAF4"/>
<stop offset="1" stop-color="#D5DCEE"/>
</linearGradient>
<linearGradient id="paint22_linear_855_1590" x1="354.325" y1="198.628" x2="502.16" y2="313.04" gradientUnits="userSpaceOnUse">
<stop stop-color="white"/>
<stop offset="0.6" stop-color="#E6EBF5"/>
<stop offset="1" stop-color="#D4DCEE"/>
</linearGradient>
<linearGradient id="paint23_linear_855_1590" x1="355.38" y1="199.177" x2="501.271" y2="312.607" gradientUnits="userSpaceOnUse">
<stop stop-color="white"/>
<stop offset="0.59" stop-color="#E7EBF5"/>
<stop offset="1" stop-color="#D4DBED"/>
</linearGradient>
<linearGradient id="paint24_linear_855_1590" x1="356.423" y1="199.731" x2="500.388" y2="312.167" gradientUnits="userSpaceOnUse">
<stop stop-color="white"/>
<stop offset="0.57" stop-color="#E7EBF4"/>
<stop offset="1" stop-color="#D3DAEC"/>
</linearGradient>
<linearGradient id="paint25_linear_855_1590" x1="357.472" y1="200.291" x2="499.506" y2="311.722" gradientUnits="userSpaceOnUse">
<stop stop-color="white"/>
<stop offset="0.55" stop-color="#E8ECF5"/>
<stop offset="1" stop-color="#D2DAEC"/>
</linearGradient>
<linearGradient id="paint26_linear_855_1590" x1="358.51" y1="200.857" x2="498.617" y2="311.271" gradientUnits="userSpaceOnUse">
<stop stop-color="white"/>
<stop offset="0.53" stop-color="#E8ECF5"/>
<stop offset="1" stop-color="#D1D9EB"/>
</linearGradient>
<linearGradient id="paint27_linear_855_1590" x1="359.547" y1="201.423" x2="497.729" y2="310.815" gradientUnits="userSpaceOnUse">
<stop stop-color="white"/>
<stop offset="0.51" stop-color="#E9EDF5"/>
<stop offset="1" stop-color="#D0D9EB"/>
</linearGradient>
<linearGradient id="paint28_linear_855_1590" x1="360.579" y1="201.989" x2="496.846" y2="310.353" gradientUnits="userSpaceOnUse">
<stop stop-color="white"/>
<stop offset="0.49" stop-color="#E9EDF5"/>
<stop offset="1" stop-color="#CFD8EA"/>
</linearGradient>
<linearGradient id="paint29_linear_855_1590" x1="361.612" y1="202.566" x2="495.958" y2="309.886" gradientUnits="userSpaceOnUse">
<stop stop-color="white"/>
<stop offset="0.49" stop-color="#E9EDF5"/>
<stop offset="1" stop-color="#CFD7E9"/>
</linearGradient>
<linearGradient id="paint30_linear_855_1590" x1="362.638" y1="203.138" x2="495.069" y2="309.412" gradientUnits="userSpaceOnUse">
<stop stop-color="white"/>
<stop offset="0.47" stop-color="#EAEEF5"/>
<stop offset="1" stop-color="#CED7E9"/>
</linearGradient>
<linearGradient id="paint31_linear_855_1590" x1="363.659" y1="203.72" x2="494.187" y2="308.933" gradientUnits="userSpaceOnUse">
<stop stop-color="white"/>
<stop offset="0.46" stop-color="#EAEEF5"/>
<stop offset="1" stop-color="#CDD6E8"/>
</linearGradient>
<clipPath id="clip0_855_1590">
<rect width="548" height="404" fill="white"/>
</clipPath>
</defs>
</svg>
