<svg width="543" height="480" viewBox="0 0 543 480" fill="none" xmlns="http://www.w3.org/2000/svg">
<g filter="url(#filter0_d_414_2479)">
<path d="M49.3321 113.766C69.9501 113.766 86.6642 97.0516 86.6642 76.4337C86.6642 55.8157 69.9501 39.1016 49.3321 39.1016C28.7142 39.1016 12 55.8157 12 76.4337C12 97.0516 28.7142 113.766 49.3321 113.766Z" fill="white"/>
</g>
<mask id="mask0_414_2479" style="mask-type:luminance" maskUnits="userSpaceOnUse" x="63" y="0" width="290" height="290">
<path d="M352.662 144.615C352.662 224.486 287.912 289.229 208.048 289.229C128.184 289.229 63.4331 224.479 63.4331 144.615C63.4331 64.7504 128.17 0 208.041 0C287.912 0 352.656 64.7504 352.656 144.615" fill="white"/>
</mask>
<g mask="url(#mask0_414_2479)">
<rect width="550.635" height="308.598" transform="matrix(-1 0 0 1 473.343 -8.51562)"/>
</g>
<mask id="mask1_414_2479" style="mask-type:luminance" maskUnits="userSpaceOnUse" x="328" y="249" width="189" height="189">
<path d="M516.085 343.37C516.085 395.202 474.073 437.214 422.241 437.214C370.41 437.214 328.398 395.202 328.398 343.37C328.398 291.539 370.41 249.527 422.241 249.527C474.073 249.527 516.085 291.539 516.085 343.37Z" fill="white"/>
</mask>
<g mask="url(#mask1_414_2479)">
<rect x="294.24" y="246.299" width="353.98" height="198.384"/>
</g>
<path d="M369.478 124.091C410.16 124.091 443.136 157.068 443.136 197.749C443.136 199.87 443.048 201.97 442.873 204.037C467.907 207.487 486.553 228.882 486.553 254.153" stroke="#0000FF" stroke-width="10" stroke-miterlimit="10"/>
<path d="M97.3005 272.36C59.3944 297.381 48.9471 348.388 73.9679 386.294C89.1898 409.35 114.974 423.228 142.601 423.228H352.662" stroke="#0000FF" stroke-width="10" stroke-miterlimit="10"/>
<g filter="url(#filter1_d_414_2479)">
<path d="M494.866 201.592C514.782 201.592 530.928 185.447 530.928 165.53C530.928 145.613 514.782 129.467 494.866 129.467C474.949 129.467 458.803 145.613 458.803 165.53C458.803 185.447 474.949 201.592 494.866 201.592Z" fill="white"/>
</g>
<g filter="url(#filter2_d_414_2479)">
<path d="M63.4262 383.525C78.5652 383.525 90.8377 371.253 90.8377 356.114C90.8377 340.975 78.5652 328.702 63.4262 328.702C48.2872 328.702 36.0146 340.975 36.0146 356.114C36.0146 371.253 48.2872 383.525 63.4262 383.525Z" fill="white"/>
</g>
<path d="M70.8753 78.0275L68.6805 75.3194C68.3631 74.9345 68.3091 74.3942 68.5387 73.9485L70.119 70.8488C70.4364 70.2275 70.1865 69.4643 69.5652 69.1469L66.4655 67.5667C66.0197 67.3371 65.7496 66.8711 65.7766 66.3713L65.959 62.8934C65.9927 62.1978 65.4592 61.6035 64.7636 61.563L61.2857 61.3807C60.7859 61.3537 60.347 61.0363 60.1714 60.5703L58.922 57.322C58.6722 56.6669 57.9428 56.3427 57.2877 56.5926L54.0394 57.842C53.5734 58.0243 53.0467 57.9095 52.6888 57.5583L50.2238 55.0934C49.7308 54.6004 48.9272 54.6004 48.4342 55.0934L45.9693 57.5583C45.6181 57.9095 45.0913 58.0243 44.6254 57.842L41.377 56.5926C40.722 56.3427 39.9926 56.6669 39.7427 57.322L38.4934 60.5703C38.3178 61.0363 37.8788 61.3537 37.3791 61.3807L33.9012 61.563C33.2056 61.5968 32.6653 62.1978 32.7058 62.8934L32.8882 66.3713C32.9152 66.8711 32.645 67.3371 32.1993 67.5667L29.0996 69.1469C28.4783 69.4643 28.2284 70.2275 28.5458 70.8488L30.1261 73.9485C30.3557 74.3942 30.2949 74.9277 29.9843 75.3194L27.7894 78.0275C27.3505 78.5678 27.4315 79.3646 27.9785 79.8036L30.6866 81.9917C31.0715 82.3091 31.2404 82.8223 31.1121 83.3018L30.2139 86.6649C30.0315 87.3403 30.4367 88.0358 31.1053 88.2114L34.4684 89.1096C34.9479 89.2379 35.3126 89.6431 35.3869 90.1361L35.9339 93.5735C36.0419 94.2624 36.6903 94.7351 37.3791 94.627L40.8165 94.08C41.3095 93.999 41.8025 94.2218 42.0726 94.6405L43.9703 97.558C44.3485 98.1455 45.1319 98.3076 45.7194 97.9294L48.6368 96.0317C49.0555 95.7616 49.5958 95.7616 50.0145 96.0317L52.9319 97.9294C53.5194 98.3076 54.3028 98.1455 54.681 97.558L56.5787 94.6405C56.8488 94.2218 57.3418 93.999 57.8348 94.08L61.2722 94.627C61.961 94.7351 62.6093 94.2624 62.7174 93.5735L63.2644 90.1361C63.3454 89.6431 63.7034 89.2447 64.1828 89.1096L67.546 88.2114C68.2213 88.0291 68.6197 87.3403 68.4374 86.6649L67.5392 83.3018C67.4109 82.8223 67.5797 82.3091 67.9647 81.9917L70.6727 79.8036C71.213 79.3646 71.3008 78.5678 70.8618 78.0275H70.8753ZM60.293 71.8955L46.4015 85.787C46.03 86.1584 45.4358 86.1584 45.0643 85.787L37.791 78.5137C37.4196 78.1423 37.4196 77.548 37.791 77.1766L39.9116 75.0561C40.283 74.6846 40.8773 74.6846 41.2487 75.0561L45.7329 79.5402L56.8353 68.4378C57.2067 68.0664 57.801 68.0664 58.1724 68.4378L60.293 70.5584C60.6644 70.9298 60.6644 71.5308 60.293 71.8955Z" fill="#7DE5A4"/>
<path d="M63.4264 346.47C58.0981 346.47 53.7827 350.786 53.7827 356.114C53.7827 361.442 58.1048 365.758 63.4264 365.758C68.748 365.758 73.0701 361.442 73.0701 356.114C73.0701 350.786 68.7547 346.47 63.4264 346.47ZM67.9038 354.925L63.0955 359.734C62.8186 360.01 62.4607 360.146 62.1027 360.146C61.7448 360.146 61.3869 360.01 61.11 359.734L58.7194 357.343C58.1723 356.796 58.1723 355.905 58.7194 355.358C59.2664 354.81 60.1578 354.81 60.7048 355.358L62.1027 356.755L65.9184 352.933C66.4654 352.386 67.3568 352.386 67.9038 352.933C68.4508 353.48 68.4508 354.372 67.9038 354.919V354.925Z" fill="#FF5454"/>
<path d="M86.7116 354.547C86.2051 354.041 85.3744 354.041 84.8679 354.547L82.8892 356.526V356.114C82.8892 345.383 74.1573 336.651 63.4263 336.651C57.2335 336.651 51.3514 339.643 47.6912 344.654C47.2657 345.234 47.394 346.051 47.9748 346.477C48.5556 346.902 49.3727 346.774 49.7982 346.193C52.9655 341.851 58.0574 339.258 63.4263 339.258C72.7188 339.258 80.2825 346.821 80.2825 356.114V356.526L78.3038 354.547C77.7973 354.041 76.9666 354.041 76.4601 354.547C75.9536 355.054 75.9536 355.884 76.4601 356.391L80.6606 360.591C80.9173 360.848 81.2482 360.976 81.5859 360.976C81.9235 360.976 82.2544 360.848 82.5111 360.591L86.7116 356.391C87.2181 355.884 87.2181 355.054 86.7116 354.547Z" fill="#FF5454"/>
<path d="M77.0478 366.034C73.8805 370.376 68.7886 372.963 63.4197 372.963C54.1272 372.963 46.5635 365.399 46.5635 356.107V355.695L48.5423 357.674C48.7989 357.93 49.1298 358.059 49.4675 358.059C49.8051 358.059 50.136 357.93 50.3927 357.674C50.8991 357.167 50.8991 356.336 50.3927 355.83L46.1921 351.629C45.6856 351.123 44.855 351.123 44.3485 351.629L40.1479 355.83C39.6414 356.336 39.6414 357.167 40.1479 357.674C40.6544 358.18 41.4851 358.18 41.9916 357.674L43.9703 355.695V356.107C43.9703 366.838 52.7023 375.57 63.4332 375.57C69.626 375.57 75.5081 372.578 79.1684 367.567C79.5938 366.986 79.4655 366.169 78.8847 365.744C78.3039 365.318 77.4868 365.447 77.0613 366.027L77.0478 366.034Z" fill="#FF5454"/>
<path d="M505.529 166.441L498.897 168.623C498.911 168.791 498.911 168.96 498.897 169.136C498.823 171.04 497.439 172.641 495.582 173.066L495.311 173.127C492.833 173.701 490.301 174.052 487.761 174.18L485.661 174.289C485.337 174.309 485.026 174.194 484.783 173.978C484.54 173.762 484.398 173.458 484.385 173.134C484.371 172.81 484.479 172.499 484.695 172.256C484.911 172.013 485.215 171.871 485.539 171.857L487.66 171.749C490.003 171.628 492.333 171.31 494.616 170.79L495.048 170.696C495.858 170.513 496.439 169.804 496.466 168.98C496.48 168.487 496.304 168.021 495.967 167.67C495.622 167.312 495.17 167.11 494.683 167.103L483.932 166.88C482.757 166.853 481.589 167.231 480.643 167.934L470.513 176.031C469.912 176.51 469.872 177.409 470.426 177.942L476.443 183.696C476.902 184.135 477.618 184.169 478.118 183.763L480.623 181.737C481.008 181.427 481.501 181.271 482.001 181.312L490.132 181.981C491.692 182.109 493.238 181.636 494.461 180.657L507.535 170.149C508.008 169.771 508.291 169.224 508.332 168.616C508.366 168.008 508.156 167.434 507.731 166.995C507.177 166.421 506.299 166.205 505.536 166.455L505.529 166.441Z" fill="#0000FF"/>
<path d="M500.917 147.032H489.774C488.018 147.032 486.593 148.457 486.593 150.213V161.356C486.593 163.112 488.018 164.537 489.774 164.537H500.917C502.673 164.537 504.098 163.112 504.098 161.356V150.213C504.098 148.457 502.673 147.032 500.917 147.032ZM500.235 154.278L495.116 159.397C494.826 159.688 494.441 159.836 494.062 159.836C493.684 159.836 493.299 159.688 493.009 159.397L490.463 156.851C489.882 156.271 489.882 155.325 490.463 154.738C491.044 154.157 491.989 154.157 492.577 154.738L494.062 156.23L498.128 152.165C498.709 151.584 499.654 151.584 500.242 152.165C500.822 152.745 500.822 153.691 500.242 154.278H500.235Z" fill="#0000FF"/>
<path d="M519.34 155.055L514.086 150.888C513.478 150.402 512.58 150.841 512.58 151.618V153.981H505.948V157.588H512.58V159.951C512.58 160.728 513.478 161.16 514.086 160.681L519.34 156.514C519.806 156.143 519.806 155.427 519.34 155.055Z" fill="#0000FF"/>
<g filter="url(#filter3_d_414_2479)">
<path d="M271.365 373.936H186.348C180.589 373.936 175.921 378.604 175.921 384.363V461.202C175.921 466.961 180.589 471.629 186.348 471.629H271.365C277.124 471.629 281.792 466.961 281.792 461.202V384.363C281.792 378.604 277.124 373.936 271.365 373.936Z" fill="white"/>
</g>
<path d="M248.912 395.351C248.912 395.223 248.946 395.095 248.952 394.959L227.011 390.968L205.069 394.959C205.083 395.088 205.11 395.216 205.11 395.351C205.11 398.802 202.442 401.605 199.059 401.868C199.971 413.936 203.692 425.592 209.918 435.898C213.403 441.665 218.157 446.554 223.756 450.296C225.728 451.613 228.301 451.613 230.273 450.296C235.864 446.554 240.625 441.665 244.11 435.898C250.343 425.592 254.065 413.936 254.969 401.868C251.593 401.605 248.918 398.802 248.918 395.351H248.912ZM237.674 430.347C235.5 433.939 232.535 436.999 229.037 439.328C227.808 440.152 226.207 440.152 224.971 439.328C221.48 436.999 218.509 433.939 216.334 430.347C212.451 423.911 210.121 416.637 209.554 409.101C211.667 408.932 213.329 407.19 213.329 405.035C213.329 404.954 213.308 404.873 213.302 404.792L226.997 402.294L240.693 404.792C240.686 404.867 240.666 404.948 240.666 405.035C240.666 407.19 242.334 408.932 244.448 409.101C243.881 416.631 241.557 423.904 237.661 430.347H237.674Z" fill="#0000FF"/>
<path d="M244.461 409.107C243.893 416.637 241.57 423.91 237.674 430.353C235.499 433.946 232.534 437.005 229.036 439.335C227.807 440.159 226.207 440.159 224.971 439.335C221.479 437.005 218.508 433.946 216.333 430.353C212.45 423.917 210.12 416.644 209.553 409.107C211.667 408.938 213.328 407.196 213.328 405.042C213.328 404.961 213.308 404.88 213.301 404.799L226.997 402.3L240.692 404.799C240.686 404.873 240.665 404.954 240.665 405.042C240.665 407.196 242.333 408.938 244.447 409.107H244.461Z" fill="white"/>
<defs>
<filter id="filter0_d_414_2479" x="0" y="27.1016" width="98.6643" height="98.6641" filterUnits="userSpaceOnUse" color-interpolation-filters="sRGB">
<feFlood flood-opacity="0" result="BackgroundImageFix"/>
<feColorMatrix in="SourceAlpha" type="matrix" values="0 0 0 0 0 0 0 0 0 0 0 0 0 0 0 0 0 0 127 0" result="hardAlpha"/>
<feOffset/>
<feGaussianBlur stdDeviation="6"/>
<feColorMatrix type="matrix" values="0 0 0 0 0.658824 0 0 0 0 0.658824 0 0 0 0 0.658824 0 0 0 0.45 0"/>
<feBlend mode="normal" in2="BackgroundImageFix" result="effect1_dropShadow_414_2479"/>
<feBlend mode="normal" in="SourceGraphic" in2="effect1_dropShadow_414_2479" result="shape"/>
</filter>
<filter id="filter1_d_414_2479" x="446.803" y="117.467" width="96.125" height="96.125" filterUnits="userSpaceOnUse" color-interpolation-filters="sRGB">
<feFlood flood-opacity="0" result="BackgroundImageFix"/>
<feColorMatrix in="SourceAlpha" type="matrix" values="0 0 0 0 0 0 0 0 0 0 0 0 0 0 0 0 0 0 127 0" result="hardAlpha"/>
<feOffset/>
<feGaussianBlur stdDeviation="6"/>
<feColorMatrix type="matrix" values="0 0 0 0 0.658824 0 0 0 0 0.658824 0 0 0 0 0.658824 0 0 0 0.45 0"/>
<feBlend mode="normal" in2="BackgroundImageFix" result="effect1_dropShadow_414_2479"/>
<feBlend mode="normal" in="SourceGraphic" in2="effect1_dropShadow_414_2479" result="shape"/>
</filter>
<filter id="filter2_d_414_2479" x="24.0146" y="316.702" width="78.823" height="78.8232" filterUnits="userSpaceOnUse" color-interpolation-filters="sRGB">
<feFlood flood-opacity="0" result="BackgroundImageFix"/>
<feColorMatrix in="SourceAlpha" type="matrix" values="0 0 0 0 0 0 0 0 0 0 0 0 0 0 0 0 0 0 127 0" result="hardAlpha"/>
<feOffset/>
<feGaussianBlur stdDeviation="6"/>
<feColorMatrix type="matrix" values="0 0 0 0 0.658824 0 0 0 0 0.658824 0 0 0 0 0.658824 0 0 0 0.45 0"/>
<feBlend mode="normal" in2="BackgroundImageFix" result="effect1_dropShadow_414_2479"/>
<feBlend mode="normal" in="SourceGraphic" in2="effect1_dropShadow_414_2479" result="shape"/>
</filter>
<filter id="filter3_d_414_2479" x="175.921" y="373.936" width="113.871" height="105.693" filterUnits="userSpaceOnUse" color-interpolation-filters="sRGB">
<feFlood flood-opacity="0" result="BackgroundImageFix"/>
<feColorMatrix in="SourceAlpha" type="matrix" values="0 0 0 0 0 0 0 0 0 0 0 0 0 0 0 0 0 0 127 0" result="hardAlpha"/>
<feOffset dx="4" dy="4"/>
<feGaussianBlur stdDeviation="2"/>
<feComposite in2="hardAlpha" operator="out"/>
<feColorMatrix type="matrix" values="0 0 0 0 0 0 0 0 0 0 0 0 0 0 0 0 0 0 0.25 0"/>
<feBlend mode="normal" in2="BackgroundImageFix" result="effect1_dropShadow_414_2479"/>
<feBlend mode="normal" in="SourceGraphic" in2="effect1_dropShadow_414_2479" result="shape"/>
</filter>
</defs>
</svg>
