<svg width="474" height="355" viewBox="0 0 474 355" fill="none" xmlns="http://www.w3.org/2000/svg">
<g clip-path="url(#clip0_855_1945)">
<path d="M73.9838 109.612V158.102C73.9838 170.01 83.6487 179.655 95.5672 179.655H152.029" stroke="#0000FF" stroke-width="3" stroke-linecap="round" stroke-linejoin="round"/>
<path d="M399.009 109.612V158.102C399.009 170.01 389.344 179.655 377.426 179.655H320.964" stroke="#0000FF" stroke-width="3" stroke-linecap="round" stroke-linejoin="round"/>
<path d="M184.552 231.092L143.351 272.57" stroke="#0000FF" stroke-width="3" stroke-linecap="round" stroke-linejoin="round"/>
<path d="M279.763 231.092L320.957 272.57" stroke="#0000FF" stroke-width="3" stroke-linecap="round" stroke-linejoin="round"/>
<g filter="url(#filter0_d_855_1945)">
<path d="M236.315 264.184C283.061 264.184 320.957 226.342 320.957 179.662C320.957 132.981 283.061 95.1387 236.315 95.1387C189.569 95.1387 151.673 132.981 151.673 179.662C151.673 226.342 189.569 264.184 236.315 264.184Z" fill="white"/>
</g>
<path d="M279.208 153.067C281.598 156.994 283.571 161.166 284.79 165.564C285.558 168.341 286.154 171.248 286.236 174.237C286.311 177.049 286.448 179.846 286.236 182.658C285.51 192.227 281.9 200.661 276.057 208.164C270.522 215.278 263.371 220.23 255.076 223.678C250.747 225.483 246.24 226.475 241.658 227.077C238.993 227.433 236.233 227.2 233.52 227.077C229.417 226.892 225.362 226.249 221.417 225.1C219.657 224.587 218.424 225.634 217.088 226.243C214.533 227.405 211.999 228.602 209.293 229.389C207.58 229.991 206.067 229.362 205.19 227.652C204.58 226.461 204.347 225.169 204.32 223.849C204.286 221.879 204.21 219.902 204.32 217.939C204.402 216.536 204.025 215.517 202.854 214.738C200.203 212.973 198.484 210.305 196.525 207.904C191.888 202.22 188.977 195.613 187.292 188.567C186.36 184.689 186.203 180.599 186.319 176.543C186.463 171.44 187.408 166.447 189.257 161.782C193.333 151.494 200.025 143.197 209.526 137.335C219.266 131.33 229.842 128.929 241.226 129.9C246.309 130.331 251.213 131.466 255.898 133.436C260.118 135.208 264.036 137.534 267.68 140.331C271.214 143.04 274.283 146.193 276.906 149.77C277.365 150.4 278.167 150.783 278.29 151.651C278.571 152.076 278.845 152.5 279.126 152.924C279.139 152.972 279.167 153.013 279.201 153.054L279.208 153.067ZM245.11 177.015C245.014 176.7 244.774 176.672 244.507 176.72C243.158 176.153 242.213 175.004 241.117 174.121C238.706 172.179 236.178 170.373 233.698 168.533C232.418 167.582 231.096 166.494 229.513 166.098C226.91 165.455 224.616 166.262 222.677 168.102C221.157 169.545 220.28 171.447 219.163 173.17C215.143 179.347 211.135 185.53 207.156 191.727C206.656 192.5 206.491 193.458 206.485 194.388C206.485 195.729 207.423 196.433 208.718 196.133C209.779 195.879 210.69 195.339 211.56 194.669C216.204 191.098 220.862 187.548 225.527 183.998C227.314 182.637 228.027 182.596 229.76 183.998C231.678 185.537 233.74 186.871 235.726 188.307C237.253 190.093 239.11 191.522 241.048 192.76C245.137 195.366 248.59 194.867 251.823 191.078C252.337 190.476 252.789 189.805 253.206 189.135C256.124 184.463 259.036 179.785 261.933 175.092C262.666 173.909 263.317 172.685 264.118 171.529C265.077 170.154 266.104 168.779 266.632 167.151C266.967 166.118 266.967 164.798 265.885 164.511C265.029 164.285 263.803 164.135 262.851 164.846C262.145 165.373 261.392 165.831 260.679 166.351C256.289 169.579 251.926 172.835 247.514 176.036C246.822 176.543 246.172 177.343 245.103 177.015V177.008L245.11 177.015Z" fill="#1877F2"/>
<g filter="url(#filter1_d_855_1945)">
<path d="M447.238 268.302H278.852C273.907 268.302 269.899 272.305 269.899 277.242V327.701C269.899 332.639 273.907 336.641 278.852 336.641H447.238C452.183 336.641 456.191 332.639 456.191 327.701V277.242C456.191 272.305 452.183 268.302 447.238 268.302Z" fill="white"/>
</g>
<g filter="url(#filter2_d_855_1945)">
<path d="M188.299 268.302H19.9122C14.9678 268.302 10.9596 272.305 10.9596 277.242V327.701C10.9596 332.639 14.9678 336.641 19.9122 336.641H188.299C193.243 336.641 197.251 332.639 197.251 327.701V277.242C197.251 272.305 193.243 268.302 188.299 268.302Z" fill="white"/>
</g>
<g filter="url(#filter3_d_855_1945)">
<path d="M122.213 11.3135H25.7549C20.8106 11.3135 16.8024 15.316 16.8024 20.2535V100.672C16.8024 105.61 20.8106 109.612 25.7549 109.612H122.213C127.157 109.612 131.165 105.61 131.165 100.672V20.2535C131.165 15.316 127.157 11.3135 122.213 11.3135Z" fill="white"/>
</g>
<g filter="url(#filter4_d_855_1945)">
<path d="M447.238 11.3135H350.781C345.836 11.3135 341.828 15.316 341.828 20.2535V100.672C341.828 105.61 345.836 109.612 350.781 109.612H447.238C452.183 109.612 456.191 105.61 456.191 100.672V20.2535C456.191 15.316 452.183 11.3135 447.238 11.3135Z" fill="white"/>
</g>
<path d="M47.4616 81.2739H100.513C102.842 81.2739 104.725 83.4559 104.725 86.1509C104.725 88.8459 102.842 91.0279 100.513 91.0279H47.4616C45.1327 91.0279 43.249 88.8459 43.249 86.1509C43.249 83.4559 45.1327 81.2739 47.4616 81.2739Z" fill="#BFBFBF"/>
<path d="M372.48 81.2739H425.531C427.86 81.2739 429.744 83.4559 429.744 86.1509C429.744 88.8459 427.86 91.0279 425.531 91.0279H372.48C370.151 91.0279 368.268 88.8459 368.268 86.1509C368.268 83.4559 370.151 81.2739 372.48 81.2739Z" fill="#BFBFBF"/>
<path d="M45.7081 284.657C35.8582 284.657 27.8715 292.625 27.8715 302.468C27.8715 312.311 35.8514 320.287 45.7081 320.287C55.5648 320.287 63.5516 312.311 63.5516 302.468C63.5516 292.625 55.5648 284.657 45.7081 284.657ZM56.1813 295.806C52.0098 301.039 47.8452 306.278 43.7011 311.531C43.3313 312.01 43.0915 312.051 42.6257 311.627C40.2078 309.431 37.7693 307.277 35.3171 305.122C34.9472 304.801 34.9267 304.589 35.2691 304.233C35.9541 303.522 36.598 302.762 37.2487 302.017C37.3446 301.914 37.4063 301.771 37.4474 301.709C37.8172 301.805 37.9405 302.017 38.0912 302.188C39.6324 303.898 41.1941 305.587 42.6874 307.332C43.1669 307.892 43.3655 307.81 43.7285 307.25C46.7013 302.728 49.7083 298.221 52.6948 293.713C53.2839 292.831 53.2839 292.824 54.1607 293.487C54.784 293.966 55.3868 294.465 56.0306 294.917C56.4279 295.19 56.4964 295.402 56.1676 295.806H56.1813Z" fill="#1877F2"/>
<path d="M303.497 284.657C293.647 284.657 285.66 292.625 285.66 302.468C285.66 312.311 293.64 320.287 303.497 320.287C313.354 320.287 321.341 312.311 321.341 302.468C321.341 292.625 313.354 284.657 303.497 284.657ZM313.97 295.806C309.799 301.039 305.634 306.278 301.49 311.531C301.12 312.01 300.88 312.051 300.415 311.627C297.997 309.431 295.558 307.277 293.106 305.122C292.736 304.801 292.716 304.589 293.058 304.233C293.743 303.522 294.387 302.762 295.038 302.017C295.134 301.914 295.195 301.771 295.236 301.709C295.606 301.805 295.729 302.017 295.88 302.188C297.421 303.898 298.983 305.587 300.476 307.332C300.956 307.892 301.154 307.81 301.517 307.25C304.49 302.728 307.497 298.221 310.484 293.713C311.073 292.831 311.073 292.824 311.95 293.487C312.573 293.966 313.176 294.465 313.82 294.917C314.217 295.19 314.285 295.402 313.957 295.806H313.97Z" fill="#1877F2"/>
<path d="M79.4293 292.085H176.825C179.524 292.085 181.709 294.267 181.709 296.962C181.709 299.657 179.524 301.839 176.825 301.839H79.4293C76.7305 301.839 74.5454 299.657 74.5454 296.962C74.5454 294.267 76.7305 292.085 79.4293 292.085Z" fill="#DCD8D8"/>
<path d="M79.4293 306.21H149.762C152.461 306.21 154.646 308.392 154.646 311.087C154.646 313.782 152.461 315.964 149.762 315.964H79.4293C76.7305 315.964 74.5454 313.782 74.5454 311.087C74.5454 308.392 76.7305 306.21 79.4293 306.21Z" fill="#DCD8D8"/>
<path d="M337.389 292.085H434.785C437.484 292.085 439.669 294.267 439.669 296.962C439.669 299.657 437.484 301.839 434.785 301.839H337.389C334.691 301.839 332.505 299.657 332.505 296.962C332.505 294.267 334.691 292.085 337.389 292.085Z" fill="#DCD8D8"/>
<path d="M337.389 306.21H407.722C410.421 306.21 412.606 308.392 412.606 311.087C412.606 313.782 410.421 315.964 407.722 315.964H337.389C334.691 315.964 332.505 313.782 332.505 311.087C332.505 308.392 334.691 306.21 337.389 306.21Z" fill="#DCD8D8"/>
<path d="M71.737 39.4058C74.8537 39.4058 77.9771 39.3989 81.0937 39.4058C82.9295 39.4126 83.7583 40.1103 83.8747 41.9161C83.9295 42.7164 84.1898 42.9558 84.957 42.9353C86.4708 42.8942 87.9914 42.9763 89.5052 42.9079C91.8272 42.8053 93.3821 43.7903 94.3205 45.9038C95.0603 47.566 95.9234 49.1666 96.6905 50.815C97.0947 51.6769 97.6427 52.3062 98.5537 52.6892C100.348 53.4348 101.362 54.8507 101.568 56.7522C101.705 57.9903 101.691 59.2625 101.595 60.5074C101.478 62.0327 100.369 62.9767 98.8208 63.0519C98.3893 63.0724 97.9509 63.093 97.5193 63.0519C96.2179 62.9356 95.3274 63.1614 94.5123 64.502C92.8752 67.197 88.9161 66.8687 87.464 64.0369C87.053 63.2298 86.5941 63.0382 85.7721 63.0382C79.4019 63.0656 73.0316 63.0588 66.6614 63.0382C65.9422 63.0382 65.5175 63.1956 65.1682 63.9138C64.4078 65.487 63.0585 66.3283 61.2981 66.2941C59.5993 66.2599 58.2979 65.4186 57.5924 63.8727C57.2773 63.1956 56.8869 63.0382 56.2019 63.0314C53.2428 63.004 51.8934 61.0136 52.8455 58.1749C53.0031 57.7098 53.3113 57.4499 53.8113 57.4636C54.3045 57.4841 54.647 57.7509 54.695 58.2433C54.7566 58.7974 54.7361 59.3651 54.7635 59.926C54.784 60.4253 54.6539 61.0957 55.4347 61.0751C56.0991 61.0546 56.9485 61.5129 57.3732 60.5484C57.4417 60.3911 57.517 60.2338 57.6061 60.0833C58.4417 58.6606 59.6884 57.8808 61.3323 57.8808C62.9831 57.8808 64.2846 58.6401 65.0175 60.1175C65.4079 60.9041 65.86 61.1435 66.7025 61.1299C71.2987 61.0888 75.888 61.082 80.4841 61.1299C81.5116 61.1435 81.9226 60.9178 81.9089 59.7824C81.8541 54.1119 81.8609 48.4415 81.9089 42.7779C81.9157 41.6904 81.5664 41.3826 80.4978 41.3894C74.6482 41.4373 68.7985 41.4099 62.9489 41.4099C62.6475 41.4099 62.3392 41.4099 62.0378 41.4099C61.2638 41.4236 60.4282 41.3826 60.4419 40.3634C60.4556 39.4331 61.2501 39.3853 61.9762 39.3853C62.4077 39.3853 62.8461 39.3853 63.2776 39.3853C66.0929 39.3853 68.9081 39.3853 71.7302 39.3853L71.737 39.4058ZM88.4777 52.5866C87.2242 52.5866 85.9639 52.6071 84.7104 52.5798C84.1008 52.5661 83.7446 52.6892 83.7583 53.4211C83.7925 55.7125 83.772 58.0108 83.772 60.3022C83.772 60.5963 83.7377 60.8973 84.0939 61.0683C84.9912 61.5129 86.8543 60.9315 87.3955 60.0286C89.012 57.2857 92.9095 57.0805 94.4918 59.796C95.163 60.952 95.8754 61.2598 97.0399 61.1299C97.4235 61.0888 97.8207 61.0957 98.2112 61.1299C99.3003 61.2119 99.6907 60.6716 99.6565 59.6456C99.6222 58.7837 99.6565 57.915 99.6496 57.0463C99.6496 55.7467 99.0948 54.7891 97.855 54.3103C96.4371 53.7631 95.5192 52.7371 94.8891 51.3827C94.1013 49.6933 93.2657 48.0379 92.4711 46.3553C91.9711 45.3019 91.1628 44.7958 89.9984 44.8026C88.3065 44.8163 86.6146 44.8436 84.9296 44.7889C84.0939 44.7616 83.8884 45.1172 83.9158 45.8628C83.9569 47.0325 83.9843 48.2021 83.909 49.3649C83.8405 50.3567 84.2172 50.6235 85.1693 50.5961C87.4229 50.5346 89.6764 50.5688 91.93 50.5825C92.6766 50.5825 93.5739 50.5619 93.5397 51.6085C93.5054 52.6208 92.6218 52.5798 91.8683 52.5798C90.745 52.5798 89.6148 52.5798 88.4914 52.5798L88.4777 52.5866ZM91.0738 59.8781C89.8614 59.8918 88.8682 60.9041 88.875 62.1217C88.8819 63.3734 89.8408 64.3242 91.0875 64.331C92.3821 64.331 93.4095 63.2982 93.3616 62.0396C93.3136 60.8152 92.3067 59.8713 91.0738 59.885V59.8781ZM63.6475 62.1148C63.6475 60.9041 62.6612 59.9055 61.4419 59.8781C60.2432 59.8508 59.2021 60.8494 59.1747 62.0464C59.1473 63.346 60.1405 64.3515 61.4351 64.331C62.668 64.3173 63.6475 63.3255 63.6475 62.1148Z" fill="#0000FF"/>
<path d="M64.353 50.1174C62.2365 50.1174 60.1131 50.1174 57.9965 50.1174C57.2362 50.1174 56.5238 49.9532 56.5649 49.0367C56.606 48.168 57.3458 48.1338 58.0171 48.1338C62.257 48.1338 66.4902 48.1338 70.7301 48.1338C71.4562 48.1338 72.2371 48.1817 72.2234 49.1324C72.2165 50.0832 71.422 50.1106 70.7027 50.1174C68.5862 50.1174 66.4628 50.1174 64.3462 50.1174H64.353Z" fill="#0000FF"/>
<path d="M56.9006 54.406C55.517 54.406 54.1402 54.406 52.7565 54.406C52.0442 54.406 51.3797 54.2487 51.366 53.4142C51.3523 52.566 52.0373 52.4155 52.736 52.4087C55.5444 52.4087 58.3459 52.4087 61.1543 52.4087C61.853 52.4087 62.5379 52.5455 62.5448 53.3937C62.5448 54.2281 61.8872 54.406 61.1748 54.406C59.7501 54.406 58.3254 54.406 56.9006 54.406Z" fill="#0000FF"/>
<path d="M61.7297 45.7326C60.4351 45.7326 59.1405 45.7326 57.8459 45.7326C57.1814 45.7326 56.5787 45.589 56.5513 44.8024C56.517 44.0226 57.0856 43.79 57.7637 43.79C60.394 43.79 63.0243 43.79 65.6545 43.79C66.2779 43.79 66.7984 44.0294 66.8258 44.7271C66.8532 45.5137 66.2916 45.7258 65.6134 45.7326C64.3189 45.7326 63.0243 45.7326 61.7297 45.7326Z" fill="#0000FF"/>
<path d="M53.3045 45.7328C52.6127 45.6439 51.4071 46.0475 51.4003 44.7752C51.3866 43.503 52.5784 43.8518 53.3867 43.7903C53.5579 43.7766 53.7292 43.7903 53.9004 43.7903C54.6402 43.7903 55.3799 43.8929 55.3525 44.8231C55.3251 45.685 54.6059 45.7465 53.9278 45.7397C53.7566 45.7397 53.5853 45.7397 53.3045 45.7397V45.7328Z" fill="#0000FF"/>
<path d="M53.4278 48.1406C53.6881 48.1406 53.9415 48.1338 54.2018 48.1406C54.8251 48.1611 55.3457 48.3937 55.3594 49.0846C55.3731 49.8438 54.8183 50.0901 54.1402 50.1106C53.6264 50.1243 53.1059 50.1174 52.5921 50.1106C51.9003 50.1037 51.3592 49.8028 51.366 49.0777C51.3729 48.3116 51.9894 48.1338 52.6469 48.1338C52.9072 48.1338 53.1607 48.1338 53.4209 48.1338L53.4278 48.1406Z" fill="#0000FF"/>
<path d="M48.3521 52.4839C48.6946 52.5044 49.0439 52.5044 49.3864 52.5454C49.9412 52.6138 50.2495 52.9764 50.2495 53.5099C50.2495 54.0639 49.8728 54.3854 49.3385 54.4265C48.6946 54.4743 48.0439 54.4675 47.3932 54.447C46.763 54.4265 46.2835 54.1597 46.2904 53.4483C46.3041 52.7164 46.8246 52.5318 47.4411 52.5112C47.7425 52.5044 48.0439 52.5112 48.3453 52.5112C48.3453 52.5044 48.3453 52.4976 48.3453 52.4907L48.3521 52.4839Z" fill="#0000FF"/>
<path d="M409.174 40.7324C412.675 40.7324 416.182 40.7324 419.682 40.7324C420.99 40.7324 421.285 41.0334 421.292 42.3467C421.292 49.3714 421.292 56.3962 421.292 63.421C421.292 64.659 420.949 65.0147 419.737 65.0147C412.668 65.0147 405.606 65.0147 398.537 65.0147C397.311 65.0147 396.989 64.6795 396.989 63.421C396.989 56.362 396.989 49.3099 396.989 42.2509C396.989 41.0402 397.29 40.7324 398.489 40.7256C402.051 40.7256 405.613 40.7256 409.181 40.7256L409.174 40.7324ZM410.921 47.422C410.921 45.9924 410.921 44.6449 410.921 43.2975C410.921 42.9349 410.709 42.8323 410.394 42.8392C409.572 42.8392 408.75 42.8392 407.935 42.8392C407.647 42.8392 407.359 42.8529 407.359 43.2427C407.359 44.6176 407.359 45.9856 407.359 47.4631C408.496 46.6149 409.686 46.6012 410.928 47.422H410.921Z" fill="#0000FF"/>
<path d="M384.543 59.9529C382.413 59.9529 380.289 59.9392 378.159 59.9529C377.405 59.9529 376.796 59.7888 376.727 58.9269C376.672 58.2771 377.22 57.894 378.145 57.8872C382.399 57.8872 386.659 57.8872 390.913 57.8804C391.667 57.8804 392.269 58.0377 392.331 58.9132C392.379 59.5835 391.872 59.9392 390.927 59.9392C388.796 59.9392 386.673 59.9392 384.543 59.9392V59.9529Z" fill="#0000FF"/>
<path d="M386.468 53.66C384.974 53.66 383.481 53.6668 381.995 53.66C381.049 53.6531 380.549 53.2769 380.597 52.5997C380.659 51.7858 381.214 51.5669 381.94 51.5669C384.954 51.5669 387.968 51.5669 390.982 51.5669C391.694 51.5669 392.269 51.7653 392.331 52.5861C392.379 53.2632 391.872 53.6463 390.94 53.6531C389.447 53.66 387.954 53.6531 386.468 53.6531V53.66Z" fill="#0000FF"/>
<path d="M388.392 47.3466C387.454 47.3466 386.516 47.3466 385.57 47.3466C384.885 47.3466 384.447 47.0183 384.426 46.3274C384.406 45.6297 384.851 45.2877 385.529 45.2877C387.406 45.2809 389.29 45.2877 391.166 45.2877C391.845 45.2877 392.31 45.5955 392.31 46.2932C392.31 47.0251 391.838 47.3534 391.112 47.3466C390.201 47.3397 389.29 47.3466 388.385 47.3466H388.392Z" fill="#0000FF"/>
</g>
<defs>
<filter id="filter0_d_855_1945" x="139.673" y="83.1387" width="193.284" height="193.046" filterUnits="userSpaceOnUse" color-interpolation-filters="sRGB">
<feFlood flood-opacity="0" result="BackgroundImageFix"/>
<feColorMatrix in="SourceAlpha" type="matrix" values="0 0 0 0 0 0 0 0 0 0 0 0 0 0 0 0 0 0 127 0" result="hardAlpha"/>
<feOffset/>
<feGaussianBlur stdDeviation="6"/>
<feColorMatrix type="matrix" values="0 0 0 0 0.658824 0 0 0 0 0.658824 0 0 0 0 0.658824 0 0 0 0.45 0"/>
<feBlend mode="normal" in2="BackgroundImageFix" result="effect1_dropShadow_855_1945"/>
<feBlend mode="normal" in="SourceGraphic" in2="effect1_dropShadow_855_1945" result="shape"/>
</filter>
<filter id="filter1_d_855_1945" x="260.899" y="259.302" width="214.292" height="96.3394" filterUnits="userSpaceOnUse" color-interpolation-filters="sRGB">
<feFlood flood-opacity="0" result="BackgroundImageFix"/>
<feColorMatrix in="SourceAlpha" type="matrix" values="0 0 0 0 0 0 0 0 0 0 0 0 0 0 0 0 0 0 127 0" result="hardAlpha"/>
<feOffset dx="5" dy="5"/>
<feGaussianBlur stdDeviation="7"/>
<feColorMatrix type="matrix" values="0 0 0 0 0 0 0 0 0 0 0 0 0 0 0 0 0 0 0.25 0"/>
<feBlend mode="normal" in2="BackgroundImageFix" result="effect1_dropShadow_855_1945"/>
<feBlend mode="normal" in="SourceGraphic" in2="effect1_dropShadow_855_1945" result="shape"/>
</filter>
<filter id="filter2_d_855_1945" x="1.95959" y="259.302" width="214.292" height="96.3394" filterUnits="userSpaceOnUse" color-interpolation-filters="sRGB">
<feFlood flood-opacity="0" result="BackgroundImageFix"/>
<feColorMatrix in="SourceAlpha" type="matrix" values="0 0 0 0 0 0 0 0 0 0 0 0 0 0 0 0 0 0 127 0" result="hardAlpha"/>
<feOffset dx="5" dy="5"/>
<feGaussianBlur stdDeviation="7"/>
<feColorMatrix type="matrix" values="0 0 0 0 0 0 0 0 0 0 0 0 0 0 0 0 0 0 0.25 0"/>
<feBlend mode="normal" in2="BackgroundImageFix" result="effect1_dropShadow_855_1945"/>
<feBlend mode="normal" in="SourceGraphic" in2="effect1_dropShadow_855_1945" result="shape"/>
</filter>
<filter id="filter3_d_855_1945" x="7.80237" y="2.31348" width="142.363" height="126.299" filterUnits="userSpaceOnUse" color-interpolation-filters="sRGB">
<feFlood flood-opacity="0" result="BackgroundImageFix"/>
<feColorMatrix in="SourceAlpha" type="matrix" values="0 0 0 0 0 0 0 0 0 0 0 0 0 0 0 0 0 0 127 0" result="hardAlpha"/>
<feOffset dx="5" dy="5"/>
<feGaussianBlur stdDeviation="7"/>
<feColorMatrix type="matrix" values="0 0 0 0 0 0 0 0 0 0 0 0 0 0 0 0 0 0 0.25 0"/>
<feBlend mode="normal" in2="BackgroundImageFix" result="effect1_dropShadow_855_1945"/>
<feBlend mode="normal" in="SourceGraphic" in2="effect1_dropShadow_855_1945" result="shape"/>
</filter>
<filter id="filter4_d_855_1945" x="332.828" y="2.31348" width="142.363" height="126.299" filterUnits="userSpaceOnUse" color-interpolation-filters="sRGB">
<feFlood flood-opacity="0" result="BackgroundImageFix"/>
<feColorMatrix in="SourceAlpha" type="matrix" values="0 0 0 0 0 0 0 0 0 0 0 0 0 0 0 0 0 0 127 0" result="hardAlpha"/>
<feOffset dx="5" dy="5"/>
<feGaussianBlur stdDeviation="7"/>
<feColorMatrix type="matrix" values="0 0 0 0 0 0 0 0 0 0 0 0 0 0 0 0 0 0 0.25 0"/>
<feBlend mode="normal" in2="BackgroundImageFix" result="effect1_dropShadow_855_1945"/>
<feBlend mode="normal" in="SourceGraphic" in2="effect1_dropShadow_855_1945" result="shape"/>
</filter>
<clipPath id="clip0_855_1945">
<rect width="474" height="355" fill="white"/>
</clipPath>
</defs>
</svg>
