<svg xmlns="http://www.w3.org/2000/svg" width="45" height="60" fill="none"><g fill="#00F" clip-path="url(#a)"><path d="M7.5 0A7.5 7.5 0 0 0 0 7.5v45A7.5 7.5 0 0 0 7.5 60h30a7.5 7.5 0 0 0 7.5-7.5v-45A7.5 7.5 0 0 0 37.5 0zm0 3.75h30a3.75 3.75 0 0 1 3.75 3.75v45a3.75 3.75 0 0 1-3.75 3.75h-30a3.75 3.75 0 0 1-3.75-3.75v-45A3.75 3.75 0 0 1 7.5 3.75"/><path d="M9.76 45.327a3.04 3.04 0 0 1-1.644-1.575 4.02 4.02 0 0 1 .3-4.131 10 10 0 0 1 3.364-2.952c1.762-1 3.625-1.81 5.558-2.419a74 74 0 0 0 3.983-8.343 27.3 27.3 0 0 1-1.612-4.857 10.4 10.4 0 0 1-.173-4.26 4.05 4.05 0 0 1 2.438-3.085 3.9 3.9 0 0 1 2.257-.29 2.63 2.63 0 0 1 1.79 1.37c.308.627.471 1.317.477 2.017.015.771-.044 1.543-.176 2.303a37 37 0 0 1-1.95 6.727 41 41 0 0 0 3.675 6.323c1.67-.132 3.349-.07 5.004.187a5.98 5.98 0 0 1 3.6 1.744c.46.544.725 1.229.75 1.942a4.36 4.36 0 0 1-.518 2.111 3.9 3.9 0 0 1-1.328 1.56 3.2 3.2 0 0 1-1.913.518 6.36 6.36 0 0 1-3.5-1.564 21.4 21.4 0 0 1-3.423-3.563 43.7 43.7 0 0 0-7.489 1.522 42.4 42.4 0 0 1-3.828 5.664 10.1 10.1 0 0 1-3.471 2.95 2.97 2.97 0 0 1-2.171.101m5.172-7.128q-.884.402-1.721.892a7.3 7.3 0 0 0-2.426 2.055 1.23 1.23 0 0 0-.151 1.353q.04.088.098.165a1 1 0 0 0 .133-.046 7.6 7.6 0 0 0 2.38-2.146 31 31 0 0 0 1.687-2.273m6.15-4.988a48 48 0 0 1 3.786-.723 44 44 0 0 1-1.913-3.219 77 77 0 0 1-1.874 3.938zm9.173 1.687q.758.832 1.632 1.539a3.73 3.73 0 0 0 1.867.96.4.4 0 0 0 .262-.056c.157-.126.279-.29.352-.477.136-.228.214-.486.228-.751a.36.36 0 0 0-.098-.229 3.42 3.42 0 0 0-1.943-.783 14.6 14.6 0 0 0-2.294-.198zM22.79 21.751q.475-1.529.75-3.105c.105-.575.153-1.16.142-1.744 0-.252-.04-.503-.12-.742q-.285.04-.544.16c-.326.13-.593.398-.735 1.062a7.8 7.8 0 0 0 .174 3.081c.089.416.203.852.337 1.297z"/></g><defs><clipPath id="a"><path fill="#fff" d="M0 0h45v60H0z"/></clipPath></defs></svg>