<svg xmlns="http://www.w3.org/2000/svg" width="24" height="24" fill="none"><circle cx="8" cy="8" r="8" fill="#1E1E1E"/><g clip-path="url(#a)"><path fill="#fff" d="M9.101 23.69v-7.98H6.627v-3.666h2.474v-1.58c0-4.085 1.848-5.978 5.858-5.978.401 0 .955.042 1.468.103a9 9 0 0 1 1.141.195v3.325a9 9 0 0 0-.653-.036q-.367-.01-.733-.01c-.707 0-1.259.097-1.675.31a1.7 1.7 0 0 0-.679.622c-.258.42-.374.995-.374 1.752v1.297h3.919l-.386 2.103-.287 1.564h-3.246v8.245C19.396 23.238 24 18.179 24 12.044c0-6.627-5.373-12-12-12s-12 5.373-12 12c0 5.628 3.874 10.35 9.101 11.647"/></g><defs><clipPath id="a"><path fill="#fff" d="M0 0h24v24H0z"/></clipPath></defs></svg>