<svg xmlns="http://www.w3.org/2000/svg" width="24" height="24" fill="none"><path fill="#fff" d="M19.227 24c-1.046 0-2.515-.378-4.714-1.607-2.675-1.5-4.744-2.885-7.404-5.539-2.565-2.563-3.814-4.223-5.56-7.402C-.426 5.863-.09 3.982.286 3.177c.448-.96 1.11-1.536 1.964-2.106.485-.318.999-.59 1.534-.814l.148-.065c.265-.12.667-.3 1.176-.107.34.127.643.388 1.117.857.974.96 2.304 3.098 2.795 4.148.329.708.547 1.175.548 1.699 0 .613-.309 1.086-.683 1.597q-.105.143-.208.276c-.407.536-.497.69-.438.967.12.556 1.01 2.21 2.474 3.67 1.465 1.461 3.07 2.296 3.628 2.415.289.061.447-.032 1-.454q.118-.09.245-.186c.572-.425 1.023-.725 1.622-.725h.003c.521 0 .967.226 1.707.599.964.486 3.166 1.8 4.132 2.774.47.473.732.775.86 1.114.193.511.011.911-.107 1.18l-.065.146a9.5 9.5 0 0 1-.82 1.532c-.569.851-1.146 1.51-2.109 1.96a3.6 3.6 0 0 1-1.583.346"/></svg>