<svg xmlns="http://www.w3.org/2000/svg" width="24" height="24" fill="none"><rect width="24" height="24" fill="#fff" rx="12"/><path fill="#1E1E1E" fill-rule="evenodd" d="M11.999 6.667c.57 0 1.154.014 1.721.038l.67.032.64.038.6.04.548.043a2.53 2.53 0 0 1 2.33 2.282l.026.284.05.607c.047.628.081 1.313.081 1.969 0 .655-.034 1.34-.081 1.97l-.05.606-.027.283a2.53 2.53 0 0 1-2.33 2.282l-.546.042-.6.041-.642.038-.669.032a42 42 0 0 1-1.721.04 42 42 0 0 1-1.722-.04l-.669-.032-.64-.038-.6-.04-.549-.043A2.534 2.534 0 0 1 5.49 14.86l-.027-.283-.05-.607A27 27 0 0 1 5.332 12c0-.655.035-1.34.081-1.969l.05-.606.027-.284a2.53 2.53 0 0 1 2.329-2.282l.547-.042.6-.04.641-.039.67-.032a41 41 0 0 1 1.722-.038m-1.334 3.716v3.234a.4.4 0 0 0 .6.346l2.8-1.616a.4.4 0 0 0 0-.694l-2.8-1.616a.4.4 0 0 0-.6.347" clip-rule="evenodd"/></svg>