<svg width="216" height="75" viewBox="0 0 216 75" fill="none" xmlns="http://www.w3.org/2000/svg">
<g filter="url(#filter0_d_1272_1020)">
<path d="M4 25.25C4 11.4429 15.1929 0.25 29 0.25H187C200.807 0.25 212 11.4429 212 25.25V41.75C212 55.5571 200.807 66.75 187 66.75H4V25.25Z" fill="#9ACEFF"/>
<path d="M27.684 15.85H29.328L32.964 24.25H31.248L28.452 17.47L25.668 24.25H23.988L27.684 15.85ZM25.92 21.106H30.924V22.414H25.92V21.106ZM37.7168 17.794C38.3248 17.794 38.8568 17.93 39.3128 18.202C39.7688 18.474 40.1208 18.858 40.3688 19.354C40.6248 19.842 40.7528 20.414 40.7528 21.07C40.7528 21.71 40.6288 22.274 40.3808 22.762C40.1328 23.242 39.7808 23.622 39.3248 23.902C38.8768 24.174 38.3488 24.31 37.7408 24.31C37.1728 24.31 36.6848 24.182 36.2768 23.926C35.8688 23.662 35.5568 23.286 35.3408 22.798C35.1248 22.31 35.0168 21.734 35.0168 21.07C35.0168 20.382 35.1208 19.794 35.3288 19.306C35.5448 18.818 35.8568 18.446 36.2648 18.19C36.6728 17.926 37.1568 17.794 37.7168 17.794ZM37.3688 19.03C37.0168 19.03 36.7008 19.118 36.4208 19.294C36.1488 19.462 35.9368 19.698 35.7848 20.002C35.6328 20.298 35.5568 20.642 35.5568 21.034C35.5568 21.426 35.6328 21.774 35.7848 22.078C35.9368 22.382 36.1488 22.618 36.4208 22.786C36.7008 22.954 37.0168 23.038 37.3688 23.038C37.7288 23.038 38.0408 22.954 38.3048 22.786C38.5768 22.61 38.7888 22.374 38.9408 22.078C39.0928 21.774 39.1688 21.426 39.1688 21.034C39.1688 20.642 39.0928 20.298 38.9408 20.002C38.7888 19.698 38.5768 19.462 38.3048 19.294C38.0408 19.118 37.7288 19.03 37.3688 19.03ZM33.9968 15.346H35.5568V24.25H33.9968V15.346ZM44.2648 21.43C43.8568 21.43 43.5528 21.494 43.3528 21.622C43.1528 21.75 43.0528 21.962 43.0528 22.258C43.0528 22.53 43.1528 22.75 43.3528 22.918C43.5608 23.086 43.8408 23.17 44.1928 23.17C44.5048 23.17 44.7848 23.118 45.0328 23.014C45.2888 22.902 45.4888 22.754 45.6328 22.57C45.7848 22.378 45.8728 22.166 45.8968 21.934L46.1608 23.05C45.9688 23.466 45.6728 23.782 45.2728 23.998C44.8728 24.214 44.3888 24.322 43.8208 24.322C43.3648 24.322 42.9688 24.234 42.6328 24.058C42.2968 23.882 42.0368 23.646 41.8528 23.35C41.6688 23.046 41.5768 22.706 41.5768 22.33C41.5768 21.738 41.7888 21.274 42.2128 20.938C42.6368 20.594 43.2368 20.418 44.0128 20.41H46.0648V21.43H44.2648ZM45.8848 20.218C45.8848 19.834 45.7608 19.534 45.5128 19.318C45.2728 19.094 44.9128 18.982 44.4328 18.982C44.1368 18.982 43.8248 19.038 43.4968 19.15C43.1768 19.254 42.8528 19.406 42.5248 19.606L41.9608 18.598C42.2648 18.414 42.5568 18.266 42.8368 18.154C43.1168 18.034 43.4088 17.946 43.7128 17.89C44.0248 17.826 44.3808 17.794 44.7808 17.794C45.6208 17.794 46.2688 17.994 46.7248 18.394C47.1808 18.794 47.4128 19.346 47.4208 20.05L47.4328 24.25H45.8968L45.8848 20.218ZM53.8509 20.674C53.8509 20.21 53.7229 19.846 53.4669 19.582C53.2189 19.318 52.8709 19.186 52.4229 19.186C51.9029 19.186 51.4909 19.37 51.1869 19.738C50.8909 20.098 50.7429 20.554 50.7429 21.106H50.3229C50.3229 20.322 50.4309 19.69 50.6469 19.21C50.8709 18.722 51.1869 18.366 51.5949 18.142C52.0109 17.91 52.4949 17.794 53.0469 17.794C53.5429 17.794 53.9669 17.894 54.3189 18.094C54.6709 18.294 54.9429 18.578 55.1349 18.946C55.3269 19.306 55.4229 19.742 55.4229 20.254V24.25H53.8509V20.674ZM49.1829 17.854H50.7429V24.25H49.1829V17.854ZM59.6111 17.782C60.1951 17.782 60.6911 17.914 61.0991 18.178C61.5071 18.442 61.8191 18.818 62.0351 19.306C62.2511 19.786 62.3551 20.366 62.3471 21.046C62.3551 21.718 62.2511 22.302 62.0351 22.798C61.8271 23.286 61.5191 23.662 61.1111 23.926C60.7031 24.182 60.2151 24.31 59.6471 24.31C59.0391 24.31 58.5031 24.174 58.0391 23.902C57.5831 23.622 57.2271 23.234 56.9711 22.738C56.7151 22.242 56.5871 21.674 56.5871 21.034C56.5871 20.386 56.7151 19.818 56.9711 19.33C57.2271 18.842 57.5791 18.462 58.0271 18.19C58.4831 17.918 59.0111 17.782 59.6111 17.782ZM59.9831 19.042C59.6311 19.042 59.3151 19.13 59.0351 19.306C58.7631 19.482 58.5511 19.722 58.3991 20.026C58.2471 20.33 58.1671 20.678 58.1591 21.07C58.1671 21.462 58.2471 21.81 58.3991 22.114C58.5511 22.418 58.7631 22.658 59.0351 22.834C59.3151 23.002 59.6311 23.086 59.9831 23.086C60.3431 23.086 60.6591 23.002 60.9311 22.834C61.2111 22.658 61.4271 22.418 61.5791 22.114C61.7311 21.81 61.8071 21.462 61.8071 21.07C61.8071 20.67 61.7311 20.322 61.5791 20.026C61.4271 19.722 61.2111 19.482 60.9311 19.306C60.6591 19.13 60.3431 19.042 59.9831 19.042ZM61.8071 15.346H63.3671V24.25H61.8071V15.346ZM68.1745 17.794C68.8385 17.794 69.4225 17.93 69.9265 18.202C70.4385 18.474 70.8345 18.854 71.1145 19.342C71.4025 19.83 71.5465 20.398 71.5465 21.046C71.5465 21.694 71.4025 22.262 71.1145 22.75C70.8345 23.238 70.4385 23.622 69.9265 23.902C69.4225 24.174 68.8385 24.31 68.1745 24.31C67.5025 24.31 66.9105 24.174 66.3985 23.902C65.8865 23.622 65.4865 23.238 65.1985 22.75C64.9185 22.262 64.7785 21.694 64.7785 21.046C64.7785 20.398 64.9185 19.83 65.1985 19.342C65.4865 18.854 65.8865 18.474 66.3985 18.202C66.9105 17.93 67.5025 17.794 68.1745 17.794ZM68.1745 19.054C67.8145 19.054 67.4945 19.142 67.2145 19.318C66.9425 19.486 66.7305 19.722 66.5785 20.026C66.4265 20.322 66.3505 20.666 66.3505 21.058C66.3505 21.458 66.4265 21.81 66.5785 22.114C66.7305 22.418 66.9425 22.654 67.2145 22.822C67.4945 22.99 67.8145 23.074 68.1745 23.074C68.5265 23.074 68.8385 22.99 69.1105 22.822C69.3825 22.654 69.5945 22.418 69.7465 22.114C69.8985 21.81 69.9745 21.458 69.9745 21.058C69.9745 20.666 69.8985 20.322 69.7465 20.026C69.5945 19.722 69.3825 19.486 69.1105 19.318C68.8385 19.142 68.5265 19.054 68.1745 19.054ZM77.5697 20.674C77.5697 20.21 77.4417 19.846 77.1857 19.582C76.9377 19.318 76.5897 19.186 76.1417 19.186C75.6217 19.186 75.2097 19.37 74.9057 19.738C74.6097 20.098 74.4617 20.554 74.4617 21.106H74.0417C74.0417 20.322 74.1497 19.69 74.3657 19.21C74.5897 18.722 74.9057 18.366 75.3137 18.142C75.7297 17.91 76.2137 17.794 76.7657 17.794C77.2617 17.794 77.6857 17.894 78.0377 18.094C78.3897 18.294 78.6617 18.578 78.8537 18.946C79.0457 19.306 79.1417 19.742 79.1417 20.254V24.25H77.5697V20.674ZM72.9017 17.854H74.4617V24.25H72.9017V17.854ZM85.2259 20.566C85.2099 20.23 85.1339 19.946 84.9979 19.714C84.8619 19.474 84.6699 19.29 84.4219 19.162C84.1819 19.026 83.9059 18.958 83.5939 18.958C83.2339 18.958 82.9219 19.042 82.6579 19.21C82.3939 19.378 82.1859 19.614 82.0339 19.918C81.8899 20.222 81.8179 20.574 81.8179 20.974C81.8179 21.414 81.8979 21.794 82.0579 22.114C82.2259 22.434 82.4539 22.682 82.7419 22.858C83.0299 23.026 83.3619 23.11 83.7379 23.11C84.4179 23.11 84.9979 22.866 85.4779 22.378L86.3059 23.206C85.9859 23.558 85.5979 23.83 85.1419 24.022C84.6859 24.214 84.1779 24.31 83.6179 24.31C82.9459 24.31 82.3619 24.174 81.8659 23.902C81.3779 23.622 80.9939 23.242 80.7139 22.762C80.4419 22.274 80.3059 21.706 80.3059 21.058C80.3059 20.41 80.4419 19.842 80.7139 19.354C80.9939 18.866 81.3779 18.486 81.8659 18.214C82.3619 17.942 82.9299 17.802 83.5699 17.794C84.3299 17.794 84.9419 17.95 85.4059 18.262C85.8779 18.574 86.2139 19.014 86.4139 19.582C86.6139 20.142 86.6859 20.81 86.6299 21.586H81.5899V20.566H85.2259ZM90.4314 17.782C91.0154 17.782 91.5114 17.914 91.9194 18.178C92.3274 18.442 92.6394 18.818 92.8554 19.306C93.0714 19.786 93.1754 20.366 93.1674 21.046C93.1754 21.718 93.0714 22.302 92.8554 22.798C92.6474 23.286 92.3394 23.662 91.9314 23.926C91.5234 24.182 91.0354 24.31 90.4674 24.31C89.8594 24.31 89.3234 24.174 88.8594 23.902C88.4034 23.622 88.0474 23.234 87.7914 22.738C87.5354 22.242 87.4074 21.674 87.4074 21.034C87.4074 20.386 87.5354 19.818 87.7914 19.33C88.0474 18.842 88.3994 18.462 88.8474 18.19C89.3034 17.918 89.8314 17.782 90.4314 17.782ZM90.8034 19.042C90.4514 19.042 90.1354 19.13 89.8554 19.306C89.5834 19.482 89.3714 19.722 89.2194 20.026C89.0674 20.33 88.9874 20.678 88.9794 21.07C88.9874 21.462 89.0674 21.81 89.2194 22.114C89.3714 22.418 89.5834 22.658 89.8554 22.834C90.1354 23.002 90.4514 23.086 90.8034 23.086C91.1634 23.086 91.4794 23.002 91.7514 22.834C92.0314 22.658 92.2474 22.418 92.3994 22.114C92.5514 21.81 92.6274 21.462 92.6274 21.07C92.6274 20.67 92.5514 20.322 92.3994 20.026C92.2474 19.722 92.0314 19.482 91.7514 19.306C91.4794 19.13 91.1634 19.042 90.8034 19.042ZM92.6274 15.346H94.1874V24.25H92.6274V15.346ZM103.837 19.798C103.637 19.574 103.393 19.402 103.105 19.282C102.825 19.154 102.509 19.09 102.157 19.09C101.813 19.09 101.509 19.174 101.245 19.342C100.981 19.502 100.773 19.73 100.621 20.026C100.477 20.322 100.405 20.666 100.405 21.058C100.405 21.45 100.477 21.794 100.621 22.09C100.773 22.386 100.981 22.618 101.245 22.786C101.509 22.954 101.813 23.038 102.157 23.038C102.525 23.038 102.857 22.974 103.153 22.846C103.449 22.718 103.693 22.526 103.885 22.27L104.857 23.062C104.577 23.454 104.201 23.762 103.729 23.986C103.257 24.202 102.709 24.31 102.085 24.31C101.445 24.31 100.881 24.174 100.393 23.902C99.9052 23.622 99.5212 23.242 99.2412 22.762C98.9692 22.274 98.8332 21.706 98.8332 21.058C98.8332 20.41 98.9692 19.842 99.2412 19.354C99.5212 18.866 99.9052 18.486 100.393 18.214C100.881 17.934 101.445 17.794 102.085 17.794C102.685 17.794 103.213 17.894 103.669 18.094C104.125 18.286 104.501 18.558 104.797 18.91L103.837 19.798ZM108.12 21.43C107.712 21.43 107.408 21.494 107.208 21.622C107.008 21.75 106.908 21.962 106.908 22.258C106.908 22.53 107.008 22.75 107.208 22.918C107.416 23.086 107.696 23.17 108.048 23.17C108.36 23.17 108.64 23.118 108.888 23.014C109.144 22.902 109.344 22.754 109.488 22.57C109.64 22.378 109.728 22.166 109.752 21.934L110.016 23.05C109.824 23.466 109.528 23.782 109.128 23.998C108.728 24.214 108.244 24.322 107.676 24.322C107.22 24.322 106.824 24.234 106.488 24.058C106.152 23.882 105.892 23.646 105.708 23.35C105.524 23.046 105.432 22.706 105.432 22.33C105.432 21.738 105.644 21.274 106.068 20.938C106.492 20.594 107.092 20.418 107.868 20.41H109.92V21.43H108.12ZM109.74 20.218C109.74 19.834 109.616 19.534 109.368 19.318C109.128 19.094 108.768 18.982 108.288 18.982C107.992 18.982 107.68 19.038 107.352 19.15C107.032 19.254 106.708 19.406 106.38 19.606L105.816 18.598C106.12 18.414 106.412 18.266 106.692 18.154C106.972 18.034 107.264 17.946 107.568 17.89C107.88 17.826 108.236 17.794 108.636 17.794C109.476 17.794 110.124 17.994 110.58 18.394C111.036 18.794 111.268 19.346 111.276 20.05L111.288 24.25H109.752L109.74 20.218ZM116.782 19.21C116.334 19.178 115.946 19.246 115.618 19.414C115.29 19.574 115.038 19.806 114.862 20.11C114.686 20.414 114.598 20.762 114.598 21.154L114.178 21.106C114.178 20.394 114.282 19.794 114.49 19.306C114.698 18.81 114.998 18.434 115.39 18.178C115.782 17.922 116.246 17.794 116.782 17.794V19.21ZM113.038 17.854H114.598V24.25H113.038V17.854ZM119.69 22.162C119.69 22.482 119.75 22.702 119.87 22.822C119.99 22.942 120.154 23.002 120.362 23.002C120.49 23.002 120.63 22.982 120.782 22.942C120.934 22.894 121.098 22.822 121.274 22.726L121.634 23.854C121.394 23.998 121.134 24.114 120.854 24.202C120.582 24.282 120.306 24.322 120.026 24.322C119.682 24.322 119.366 24.258 119.078 24.13C118.79 23.994 118.562 23.786 118.394 23.506C118.226 23.218 118.142 22.858 118.142 22.426V16.342H119.69V22.162ZM117.242 18.094H121.526V19.186H117.242V18.094ZM129.837 19.21C129.389 19.178 129.001 19.246 128.673 19.414C128.345 19.574 128.093 19.806 127.917 20.11C127.741 20.414 127.653 20.762 127.653 21.154L127.233 21.106C127.233 20.394 127.337 19.794 127.545 19.306C127.753 18.81 128.053 18.434 128.445 18.178C128.837 17.922 129.301 17.794 129.837 17.794V19.21ZM126.093 17.854H127.653V24.25H126.093V17.854ZM135.265 20.566C135.249 20.23 135.173 19.946 135.037 19.714C134.901 19.474 134.709 19.29 134.461 19.162C134.221 19.026 133.945 18.958 133.633 18.958C133.273 18.958 132.961 19.042 132.697 19.21C132.433 19.378 132.225 19.614 132.073 19.918C131.929 20.222 131.857 20.574 131.857 20.974C131.857 21.414 131.937 21.794 132.097 22.114C132.265 22.434 132.493 22.682 132.781 22.858C133.069 23.026 133.401 23.11 133.777 23.11C134.457 23.11 135.037 22.866 135.517 22.378L136.345 23.206C136.025 23.558 135.637 23.83 135.181 24.022C134.725 24.214 134.217 24.31 133.657 24.31C132.985 24.31 132.401 24.174 131.905 23.902C131.417 23.622 131.033 23.242 130.753 22.762C130.481 22.274 130.345 21.706 130.345 21.058C130.345 20.41 130.481 19.842 130.753 19.354C131.033 18.866 131.417 18.486 131.905 18.214C132.401 17.942 132.969 17.802 133.609 17.794C134.369 17.794 134.981 17.95 135.445 18.262C135.917 18.574 136.253 19.014 136.453 19.582C136.653 20.142 136.725 20.81 136.669 21.586H131.629V20.566H135.265ZM142.451 19.798C142.251 19.574 142.007 19.402 141.719 19.282C141.439 19.154 141.123 19.09 140.771 19.09C140.427 19.09 140.123 19.174 139.859 19.342C139.595 19.502 139.387 19.73 139.235 20.026C139.091 20.322 139.019 20.666 139.019 21.058C139.019 21.45 139.091 21.794 139.235 22.09C139.387 22.386 139.595 22.618 139.859 22.786C140.123 22.954 140.427 23.038 140.771 23.038C141.139 23.038 141.471 22.974 141.767 22.846C142.063 22.718 142.307 22.526 142.499 22.27L143.471 23.062C143.191 23.454 142.815 23.762 142.343 23.986C141.871 24.202 141.323 24.31 140.699 24.31C140.059 24.31 139.495 24.174 139.007 23.902C138.519 23.622 138.135 23.242 137.854 22.762C137.583 22.274 137.447 21.706 137.447 21.058C137.447 20.41 137.583 19.842 137.854 19.354C138.135 18.866 138.519 18.486 139.007 18.214C139.495 17.934 140.059 17.794 140.699 17.794C141.299 17.794 141.827 17.894 142.283 18.094C142.739 18.286 143.115 18.558 143.411 18.91L142.451 19.798ZM147.382 17.794C148.046 17.794 148.63 17.93 149.134 18.202C149.646 18.474 150.042 18.854 150.322 19.342C150.61 19.83 150.754 20.398 150.754 21.046C150.754 21.694 150.61 22.262 150.322 22.75C150.042 23.238 149.646 23.622 149.134 23.902C148.63 24.174 148.046 24.31 147.382 24.31C146.71 24.31 146.118 24.174 145.606 23.902C145.094 23.622 144.694 23.238 144.406 22.75C144.126 22.262 143.986 21.694 143.986 21.046C143.986 20.398 144.126 19.83 144.406 19.342C144.694 18.854 145.094 18.474 145.606 18.202C146.118 17.93 146.71 17.794 147.382 17.794ZM147.382 19.054C147.022 19.054 146.702 19.142 146.422 19.318C146.15 19.486 145.938 19.722 145.786 20.026C145.634 20.322 145.558 20.666 145.558 21.058C145.558 21.458 145.634 21.81 145.786 22.114C145.938 22.418 146.15 22.654 146.422 22.822C146.702 22.99 147.022 23.074 147.382 23.074C147.734 23.074 148.046 22.99 148.318 22.822C148.59 22.654 148.802 22.418 148.954 22.114C149.106 21.81 149.182 21.458 149.182 21.058C149.182 20.666 149.106 20.322 148.954 20.026C148.802 19.722 148.59 19.486 148.318 19.318C148.046 19.142 147.734 19.054 147.382 19.054ZM150.902 17.854H152.534L154.214 22.81L155.858 17.854H157.43L154.982 24.25H153.374L150.902 17.854ZM162.441 20.566C162.425 20.23 162.349 19.946 162.213 19.714C162.077 19.474 161.885 19.29 161.637 19.162C161.397 19.026 161.121 18.958 160.809 18.958C160.449 18.958 160.137 19.042 159.873 19.21C159.609 19.378 159.401 19.614 159.249 19.918C159.105 20.222 159.033 20.574 159.033 20.974C159.033 21.414 159.113 21.794 159.273 22.114C159.441 22.434 159.669 22.682 159.957 22.858C160.245 23.026 160.577 23.11 160.953 23.11C161.633 23.11 162.213 22.866 162.693 22.378L163.521 23.206C163.201 23.558 162.813 23.83 162.357 24.022C161.901 24.214 161.393 24.31 160.833 24.31C160.161 24.31 159.577 24.174 159.081 23.902C158.593 23.622 158.209 23.242 157.929 22.762C157.657 22.274 157.521 21.706 157.521 21.058C157.521 20.41 157.657 19.842 157.929 19.354C158.209 18.866 158.593 18.486 159.081 18.214C159.577 17.942 160.145 17.802 160.785 17.794C161.545 17.794 162.157 17.95 162.621 18.262C163.093 18.574 163.429 19.014 163.629 19.582C163.829 20.142 163.901 20.81 163.845 21.586H158.805V20.566H162.441ZM168.954 19.21C168.506 19.178 168.118 19.246 167.79 19.414C167.462 19.574 167.21 19.806 167.034 20.11C166.858 20.414 166.77 20.762 166.77 21.154L166.35 21.106C166.35 20.394 166.454 19.794 166.662 19.306C166.87 18.81 167.17 18.434 167.562 18.178C167.954 17.922 168.418 17.794 168.954 17.794V19.21ZM165.21 17.854H166.77V24.25H165.21V17.854ZM173.103 25.09C172.895 25.602 172.607 25.99 172.239 26.254C171.871 26.518 171.431 26.65 170.919 26.65C170.607 26.65 170.323 26.602 170.067 26.506C169.819 26.41 169.571 26.27 169.323 26.086L169.995 24.958C170.283 25.174 170.559 25.282 170.823 25.282C171.031 25.282 171.211 25.226 171.363 25.114C171.523 25.002 171.655 24.83 171.759 24.598L171.951 24.154L169.299 17.854H170.919L172.743 22.606L174.411 17.854H175.983L173.103 25.09Z" fill="black"/>
<path d="M25.688 37.15H29.792V38.046H26.76V39.494H29.48V40.382H26.76V41.854H29.888V42.75H25.688V37.15ZM34.0491 40.366C34.0491 40.0567 33.9637 39.814 33.7931 39.638C33.6277 39.462 33.3957 39.374 33.0971 39.374C32.7504 39.374 32.4757 39.4967 32.2731 39.742C32.0757 39.982 31.9771 40.286 31.9771 40.654H31.6971C31.6971 40.1313 31.7691 39.71 31.9131 39.39C32.0624 39.0647 32.2731 38.8273 32.5451 38.678C32.8224 38.5233 33.1451 38.446 33.5131 38.446C33.8437 38.446 34.1264 38.5127 34.3611 38.646C34.5957 38.7793 34.7771 38.9687 34.9051 39.214C35.0331 39.454 35.0971 39.7447 35.0971 40.086V42.75H34.0491V40.366ZM30.9371 38.486H31.9771V42.75H30.9371V38.486ZM39.2092 39.782C39.0759 39.6327 38.9132 39.518 38.7212 39.438C38.5345 39.3527 38.3239 39.31 38.0892 39.31C37.8599 39.31 37.6572 39.366 37.4812 39.478C37.3052 39.5847 37.1665 39.7367 37.0652 39.934C36.9692 40.1313 36.9212 40.3607 36.9212 40.622C36.9212 40.8833 36.9692 41.1127 37.0652 41.31C37.1665 41.5073 37.3052 41.662 37.4812 41.774C37.6572 41.886 37.8599 41.942 38.0892 41.942C38.3345 41.942 38.5559 41.8993 38.7532 41.814C38.9505 41.7287 39.1132 41.6007 39.2412 41.43L39.8892 41.958C39.7025 42.2193 39.4519 42.4247 39.1372 42.574C38.8225 42.718 38.4572 42.79 38.0412 42.79C37.6145 42.79 37.2385 42.6993 36.9132 42.518C36.5879 42.3313 36.3319 42.078 36.1452 41.758C35.9639 41.4327 35.8732 41.054 35.8732 40.622C35.8732 40.19 35.9639 39.8113 36.1452 39.486C36.3319 39.1607 36.5879 38.9073 36.9132 38.726C37.2385 38.5393 37.6145 38.446 38.0412 38.446C38.4412 38.446 38.7932 38.5127 39.0972 38.646C39.4012 38.774 39.6519 38.9553 39.8492 39.19L39.2092 39.782ZM42.4966 38.446C42.9392 38.446 43.3286 38.5367 43.6646 38.718C44.0059 38.8993 44.2699 39.1527 44.4566 39.478C44.6486 39.8033 44.7446 40.182 44.7446 40.614C44.7446 41.046 44.6486 41.4247 44.4566 41.75C44.2699 42.0753 44.0059 42.3313 43.6646 42.518C43.3286 42.6993 42.9392 42.79 42.4966 42.79C42.0486 42.79 41.6539 42.6993 41.3126 42.518C40.9712 42.3313 40.7046 42.0753 40.5126 41.75C40.3259 41.4247 40.2326 41.046 40.2326 40.614C40.2326 40.182 40.3259 39.8033 40.5126 39.478C40.7046 39.1527 40.9712 38.8993 41.3126 38.718C41.6539 38.5367 42.0486 38.446 42.4966 38.446ZM42.4966 39.286C42.2566 39.286 42.0432 39.3447 41.8566 39.462C41.6752 39.574 41.5339 39.7313 41.4326 39.934C41.3312 40.1313 41.2806 40.3607 41.2806 40.622C41.2806 40.8887 41.3312 41.1233 41.4326 41.326C41.5339 41.5287 41.6752 41.686 41.8566 41.798C42.0432 41.91 42.2566 41.966 42.4966 41.966C42.7312 41.966 42.9392 41.91 43.1206 41.798C43.3019 41.686 43.4432 41.5287 43.5446 41.326C43.6459 41.1233 43.6966 40.8887 43.6966 40.622C43.6966 40.3607 43.6459 40.1313 43.5446 39.934C43.4432 39.7313 43.3019 39.574 43.1206 39.462C42.9392 39.3447 42.7312 39.286 42.4966 39.286ZM46.56 40.862C46.56 41.1713 46.64 41.4167 46.8 41.598C46.9653 41.774 47.192 41.862 47.48 41.862C47.816 41.8513 48.0773 41.726 48.264 41.486C48.456 41.246 48.552 40.9447 48.552 40.582H48.824C48.824 41.0993 48.752 41.5207 48.608 41.846C48.464 42.166 48.2613 42.4033 48 42.558C47.7387 42.7073 47.4267 42.7847 47.064 42.79C46.744 42.79 46.4667 42.7233 46.232 42.59C46.0027 42.4567 45.824 42.2673 45.696 42.022C45.5733 41.7713 45.512 41.478 45.512 41.142V38.486H46.56V40.862ZM48.552 38.486H49.6V42.75H48.552V38.486ZM53.394 39.39C53.0953 39.3687 52.8367 39.414 52.618 39.526C52.3993 39.6327 52.2313 39.7873 52.114 39.99C51.9967 40.1927 51.938 40.4247 51.938 40.686L51.658 40.654C51.658 40.1793 51.7273 39.7793 51.866 39.454C52.0047 39.1233 52.2047 38.8727 52.466 38.702C52.7273 38.5313 53.0367 38.446 53.394 38.446V39.39ZM50.898 38.486H51.938V42.75H50.898V38.486ZM55.4083 40.87C55.1363 40.87 54.9336 40.9127 54.8003 40.998C54.667 41.0833 54.6003 41.2247 54.6003 41.422C54.6003 41.6033 54.667 41.75 54.8003 41.862C54.939 41.974 55.1256 42.03 55.3603 42.03C55.5683 42.03 55.755 41.9953 55.9203 41.926C56.091 41.8513 56.2243 41.7527 56.3203 41.63C56.4216 41.502 56.4803 41.3607 56.4963 41.206L56.6723 41.95C56.5443 42.2273 56.347 42.438 56.0803 42.582C55.8136 42.726 55.491 42.798 55.1123 42.798C54.8083 42.798 54.5443 42.7393 54.3203 42.622C54.0963 42.5047 53.923 42.3473 53.8003 42.15C53.6776 41.9473 53.6163 41.7207 53.6163 41.47C53.6163 41.0753 53.7576 40.766 54.0403 40.542C54.323 40.3127 54.723 40.1953 55.2403 40.19H56.6083V40.87H55.4083ZM56.4883 40.062C56.4883 39.806 56.4056 39.606 56.2403 39.462C56.0803 39.3127 55.8403 39.238 55.5203 39.238C55.323 39.238 55.115 39.2753 54.8963 39.35C54.683 39.4193 54.467 39.5207 54.2483 39.654L53.8723 38.982C54.075 38.8593 54.2696 38.7607 54.4563 38.686C54.643 38.606 54.8376 38.5473 55.0403 38.51C55.2483 38.4673 55.4856 38.446 55.7523 38.446C56.3123 38.446 56.7443 38.5793 57.0483 38.846C57.3523 39.1127 57.507 39.4807 57.5123 39.95L57.5203 42.75H56.4963L56.4883 40.062ZM62.5991 42.334C62.5991 42.7447 62.5057 43.0993 62.3191 43.398C62.1377 43.6967 61.8791 43.926 61.5431 44.086C61.2071 44.2513 60.8124 44.334 60.3591 44.334C60.0124 44.334 59.6871 44.2833 59.3831 44.182C59.0844 44.0807 58.8071 43.9447 58.5511 43.774L58.9671 43.062C59.1644 43.206 59.3724 43.318 59.5911 43.398C59.8097 43.478 60.0471 43.518 60.3031 43.518C60.5591 43.518 60.7804 43.47 60.9671 43.374C61.1591 43.278 61.3057 43.1447 61.4071 42.974C61.5084 42.8033 61.5591 42.6007 61.5591 42.366V38.486H62.5991V42.334ZM60.1671 38.446C60.5351 38.4407 60.8497 38.5207 61.1111 38.686C61.3724 38.8513 61.5724 39.086 61.7111 39.39C61.8497 39.694 61.9164 40.0593 61.9111 40.486C61.9164 40.9127 61.8497 41.2807 61.7111 41.59C61.5777 41.894 61.3831 42.1287 61.1271 42.294C60.8711 42.4593 60.5617 42.542 60.1991 42.542C59.8204 42.542 59.4871 42.4567 59.1991 42.286C58.9164 42.11 58.6951 41.8673 58.5351 41.558C58.3751 41.2433 58.2951 40.8833 58.2951 40.478C58.2951 40.0727 58.3724 39.7207 58.5271 39.422C58.6871 39.118 58.9084 38.8807 59.1911 38.71C59.4737 38.534 59.7991 38.446 60.1671 38.446ZM60.4231 39.238C60.2044 39.238 60.0071 39.2913 59.8311 39.398C59.6604 39.5047 59.5271 39.654 59.4311 39.846C59.3351 40.038 59.2844 40.2567 59.2791 40.502C59.2844 40.7473 59.3351 40.966 59.4311 41.158C59.5271 41.35 59.6604 41.4993 59.8311 41.606C60.0017 41.7127 60.1991 41.766 60.4231 41.766C60.6471 41.766 60.8444 41.7127 61.0151 41.606C61.1857 41.4993 61.3191 41.35 61.4151 41.158C61.5111 40.966 61.5591 40.7473 61.5591 40.502C61.5591 40.2513 61.5111 40.0327 61.4151 39.846C61.3191 39.654 61.1857 39.5047 61.0151 39.398C60.8444 39.2913 60.6471 39.238 60.4231 39.238ZM66.7079 40.294C66.6972 40.07 66.6465 39.8807 66.5559 39.726C66.4652 39.566 66.3372 39.4433 66.1719 39.358C66.0119 39.2673 65.8279 39.222 65.6199 39.222C65.3799 39.222 65.1719 39.278 64.9959 39.39C64.8199 39.502 64.6812 39.6593 64.5799 39.862C64.4839 40.0647 64.4359 40.2993 64.4359 40.566C64.4359 40.8593 64.4892 41.1127 64.5959 41.326C64.7079 41.5393 64.8599 41.7047 65.0519 41.822C65.2439 41.934 65.4652 41.99 65.7159 41.99C66.1692 41.99 66.5559 41.8273 66.8759 41.502L67.4279 42.054C67.2145 42.2887 66.9559 42.47 66.6519 42.598C66.3479 42.726 66.0092 42.79 65.6359 42.79C65.1879 42.79 64.7985 42.6993 64.4679 42.518C64.1425 42.3313 63.8865 42.078 63.6999 41.758C63.5185 41.4327 63.4279 41.054 63.4279 40.622C63.4279 40.19 63.5185 39.8113 63.6999 39.486C63.8865 39.1607 64.1425 38.9073 64.4679 38.726C64.7985 38.5447 65.1772 38.4513 65.6039 38.446C66.1105 38.446 66.5185 38.55 66.8279 38.758C67.1425 38.966 67.3665 39.2593 67.4999 39.638C67.6332 40.0113 67.6812 40.4567 67.6439 40.974H64.2839V40.294H66.7079ZM73.6545 39.782C73.5212 39.6327 73.3585 39.518 73.1665 39.438C72.9798 39.3527 72.7692 39.31 72.5345 39.31C72.3052 39.31 72.1025 39.366 71.9265 39.478C71.7505 39.5847 71.6118 39.7367 71.5105 39.934C71.4145 40.1313 71.3665 40.3607 71.3665 40.622C71.3665 40.8833 71.4145 41.1127 71.5105 41.31C71.6118 41.5073 71.7505 41.662 71.9265 41.774C72.1025 41.886 72.3052 41.942 72.5345 41.942C72.7798 41.942 73.0012 41.8993 73.1985 41.814C73.3958 41.7287 73.5585 41.6007 73.6865 41.43L74.3345 41.958C74.1478 42.2193 73.8972 42.4247 73.5825 42.574C73.2678 42.718 72.9025 42.79 72.4865 42.79C72.0598 42.79 71.6838 42.6993 71.3585 42.518C71.0332 42.3313 70.7772 42.078 70.5905 41.758C70.4092 41.4327 70.3185 41.054 70.3185 40.622C70.3185 40.19 70.4092 39.8113 70.5905 39.486C70.7772 39.1607 71.0332 38.9073 71.3585 38.726C71.6838 38.5393 72.0598 38.446 72.4865 38.446C72.8865 38.446 73.2385 38.5127 73.5425 38.646C73.8465 38.774 74.0972 38.9553 74.2945 39.19L73.6545 39.782ZM76.1381 40.862C76.1381 41.1713 76.2181 41.4167 76.3781 41.598C76.5435 41.774 76.7701 41.862 77.0581 41.862C77.3941 41.8513 77.6555 41.726 77.8421 41.486C78.0341 41.246 78.1301 40.9447 78.1301 40.582H78.4021C78.4021 41.0993 78.3301 41.5207 78.1861 41.846C78.0421 42.166 77.8395 42.4033 77.5781 42.558C77.3168 42.7073 77.0048 42.7847 76.6421 42.79C76.3221 42.79 76.0448 42.7233 75.8101 42.59C75.5808 42.4567 75.4021 42.2673 75.2741 42.022C75.1515 41.7713 75.0901 41.478 75.0901 41.142V38.486H76.1381V40.862ZM78.1301 38.486H79.1781V42.75H78.1301V38.486ZM83.0121 39.598C82.8041 39.4753 82.5881 39.382 82.3641 39.318C82.1401 39.2487 81.9375 39.214 81.7561 39.214C81.5855 39.214 81.4468 39.246 81.3401 39.31C81.2335 39.3687 81.1801 39.47 81.1801 39.614C81.1801 39.7367 81.2335 39.8353 81.3401 39.91C81.4521 39.9847 81.5935 40.0487 81.7641 40.102C81.9348 40.15 82.1161 40.2033 82.3081 40.262C82.5001 40.3207 82.6815 40.398 82.8521 40.494C83.0281 40.59 83.1695 40.718 83.2761 40.878C83.3881 41.038 83.4441 41.2487 83.4441 41.51C83.4441 41.798 83.3668 42.038 83.2121 42.23C83.0575 42.4167 82.8521 42.558 82.5961 42.654C82.3401 42.7447 82.0601 42.79 81.7561 42.79C81.4361 42.79 81.1161 42.7393 80.7961 42.638C80.4815 42.5367 80.2121 42.3873 79.9881 42.19L80.3481 41.494C80.5455 41.6647 80.7775 41.798 81.0441 41.894C81.3161 41.9847 81.5668 42.03 81.7961 42.03C81.9188 42.03 82.0281 42.014 82.1241 41.982C82.2201 41.95 82.2948 41.9047 82.3481 41.846C82.4015 41.782 82.4281 41.6993 82.4281 41.598C82.4281 41.4593 82.3748 41.3527 82.2681 41.278C82.1615 41.198 82.0228 41.1313 81.8521 41.078C81.6868 41.0193 81.5081 40.9633 81.3161 40.91C81.1241 40.8513 80.9428 40.7767 80.7721 40.686C80.6068 40.59 80.4708 40.4647 80.3641 40.31C80.2575 40.1553 80.2041 39.95 80.2041 39.694C80.2041 39.406 80.2788 39.1687 80.4281 38.982C80.5775 38.7953 80.7748 38.6593 81.0201 38.574C81.2655 38.4833 81.5321 38.438 81.8201 38.438C82.0975 38.438 82.3748 38.478 82.6521 38.558C82.9295 38.6327 83.1748 38.7393 83.3881 38.878L83.0121 39.598ZM85.5435 41.358C85.5435 41.5713 85.5835 41.718 85.6635 41.798C85.7435 41.878 85.8528 41.918 85.9915 41.918C86.0768 41.918 86.1702 41.9047 86.2715 41.878C86.3728 41.846 86.4822 41.798 86.5995 41.734L86.8395 42.486C86.6795 42.582 86.5062 42.6593 86.3195 42.718C86.1382 42.7713 85.9542 42.798 85.7675 42.798C85.5382 42.798 85.3275 42.7553 85.1355 42.67C84.9435 42.5793 84.7915 42.4407 84.6795 42.254C84.5675 42.062 84.5115 41.822 84.5115 41.534V37.478H85.5435V41.358ZM83.9115 38.646H86.7675V39.374H83.9115V38.646ZM89.4888 38.446C89.9314 38.446 90.3208 38.5367 90.6568 38.718C90.9981 38.8993 91.2621 39.1527 91.4488 39.478C91.6408 39.8033 91.7368 40.182 91.7368 40.614C91.7368 41.046 91.6408 41.4247 91.4488 41.75C91.2621 42.0753 90.9981 42.3313 90.6568 42.518C90.3208 42.6993 89.9314 42.79 89.4888 42.79C89.0408 42.79 88.6461 42.6993 88.3048 42.518C87.9634 42.3313 87.6968 42.0753 87.5048 41.75C87.3181 41.4247 87.2248 41.046 87.2248 40.614C87.2248 40.182 87.3181 39.8033 87.5048 39.478C87.6968 39.1527 87.9634 38.8993 88.3048 38.718C88.6461 38.5367 89.0408 38.446 89.4888 38.446ZM89.4888 39.286C89.2488 39.286 89.0354 39.3447 88.8488 39.462C88.6674 39.574 88.5261 39.7313 88.4248 39.934C88.3234 40.1313 88.2728 40.3607 88.2728 40.622C88.2728 40.8887 88.3234 41.1233 88.4248 41.326C88.5261 41.5287 88.6674 41.686 88.8488 41.798C89.0354 41.91 89.2488 41.966 89.4888 41.966C89.7234 41.966 89.9314 41.91 90.1128 41.798C90.2941 41.686 90.4354 41.5287 90.5368 41.326C90.6381 41.1233 90.6888 40.8887 90.6888 40.622C90.6888 40.3607 90.6381 40.1313 90.5368 39.934C90.4354 39.7313 90.2941 39.574 90.1128 39.462C89.9314 39.3447 89.7234 39.286 89.4888 39.286ZM95.6962 40.366C95.6962 40.0513 95.6135 39.806 95.4482 39.63C95.2882 39.454 95.0615 39.366 94.7682 39.366C94.4322 39.3713 94.1655 39.4967 93.9682 39.742C93.7762 39.982 93.6802 40.2833 93.6802 40.646H93.4002C93.4002 40.1287 93.4722 39.71 93.6162 39.39C93.7602 39.0647 93.9655 38.8273 94.2322 38.678C94.5042 38.5233 94.8215 38.446 95.1842 38.446C95.5095 38.446 95.7869 38.5127 96.0162 38.646C96.2509 38.7793 96.4295 38.9687 96.5522 39.214C96.6802 39.454 96.7442 39.7447 96.7442 40.086V42.75H95.6962V40.366ZM98.7602 40.366C98.7602 40.0513 98.6775 39.806 98.5122 39.63C98.3469 39.454 98.1175 39.366 97.8242 39.366C97.4882 39.3713 97.2242 39.4967 97.0322 39.742C96.8402 39.982 96.7442 40.2833 96.7442 40.646H96.4642C96.4642 40.1287 96.5362 39.71 96.6802 39.39C96.8242 39.0647 97.0295 38.8273 97.2962 38.678C97.5629 38.5233 97.8802 38.446 98.2482 38.446C98.5682 38.446 98.8429 38.5127 99.0722 38.646C99.3069 38.7793 99.4882 38.9687 99.6162 39.214C99.7442 39.454 99.8082 39.7447 99.8082 40.086V42.75H98.7602V40.366ZM92.6402 38.486H93.6802V42.75H92.6402V38.486ZM103.856 40.294C103.846 40.07 103.795 39.8807 103.704 39.726C103.614 39.566 103.486 39.4433 103.32 39.358C103.16 39.2673 102.976 39.222 102.768 39.222C102.528 39.222 102.32 39.278 102.144 39.39C101.968 39.502 101.83 39.6593 101.728 39.862C101.632 40.0647 101.584 40.2993 101.584 40.566C101.584 40.8593 101.638 41.1127 101.744 41.326C101.856 41.5393 102.008 41.7047 102.2 41.822C102.392 41.934 102.614 41.99 102.864 41.99C103.318 41.99 103.704 41.8273 104.024 41.502L104.576 42.054C104.363 42.2887 104.104 42.47 103.8 42.598C103.496 42.726 103.158 42.79 102.784 42.79C102.336 42.79 101.947 42.6993 101.616 42.518C101.291 42.3313 101.035 42.078 100.848 41.758C100.667 41.4327 100.576 41.054 100.576 40.622C100.576 40.19 100.667 39.8113 100.848 39.486C101.035 39.1607 101.291 38.9073 101.616 38.726C101.947 38.5447 102.326 38.4513 102.752 38.446C103.259 38.446 103.667 38.55 103.976 38.758C104.291 38.966 104.515 39.2593 104.648 39.638C104.782 40.0113 104.83 40.4567 104.792 40.974H101.432V40.294H103.856ZM108.199 39.39C107.9 39.3687 107.641 39.414 107.423 39.526C107.204 39.6327 107.036 39.7873 106.919 39.99C106.801 40.1927 106.743 40.4247 106.743 40.686L106.463 40.654C106.463 40.1793 106.532 39.7793 106.671 39.454C106.809 39.1233 107.009 38.8727 107.271 38.702C107.532 38.5313 107.841 38.446 108.199 38.446V39.39ZM105.703 38.486H106.743V42.75H105.703V38.486ZM111.465 39.598C111.257 39.4753 111.041 39.382 110.817 39.318C110.593 39.2487 110.391 39.214 110.209 39.214C110.039 39.214 109.9 39.246 109.793 39.31C109.687 39.3687 109.633 39.47 109.633 39.614C109.633 39.7367 109.687 39.8353 109.793 39.91C109.905 39.9847 110.047 40.0487 110.217 40.102C110.388 40.15 110.569 40.2033 110.761 40.262C110.953 40.3207 111.135 40.398 111.305 40.494C111.481 40.59 111.623 40.718 111.729 40.878C111.841 41.038 111.897 41.2487 111.897 41.51C111.897 41.798 111.82 42.038 111.665 42.23C111.511 42.4167 111.305 42.558 111.049 42.654C110.793 42.7447 110.513 42.79 110.209 42.79C109.889 42.79 109.569 42.7393 109.249 42.638C108.935 42.5367 108.665 42.3873 108.441 42.19L108.801 41.494C108.999 41.6647 109.231 41.798 109.497 41.894C109.769 41.9847 110.02 42.03 110.249 42.03C110.372 42.03 110.481 42.014 110.577 41.982C110.673 41.95 110.748 41.9047 110.801 41.846C110.855 41.782 110.881 41.6993 110.881 41.598C110.881 41.4593 110.828 41.3527 110.721 41.278C110.615 41.198 110.476 41.1313 110.305 41.078C110.14 41.0193 109.961 40.9633 109.769 40.91C109.577 40.8513 109.396 40.7767 109.225 40.686C109.06 40.59 108.924 40.4647 108.817 40.31C108.711 40.1553 108.657 39.95 108.657 39.694C108.657 39.406 108.732 39.1687 108.881 38.982C109.031 38.7953 109.228 38.6593 109.473 38.574C109.719 38.4833 109.985 38.438 110.273 38.438C110.551 38.438 110.828 38.478 111.105 38.558C111.383 38.6327 111.628 38.7393 111.841 38.878L111.465 39.598ZM116.153 41.358C116.153 41.5713 116.193 41.718 116.273 41.798C116.353 41.878 116.462 41.918 116.601 41.918C116.686 41.918 116.78 41.9047 116.881 41.878C116.982 41.846 117.092 41.798 117.209 41.734L117.449 42.486C117.289 42.582 117.116 42.6593 116.929 42.718C116.748 42.7713 116.564 42.798 116.377 42.798C116.148 42.798 115.937 42.7553 115.745 42.67C115.553 42.5793 115.401 42.4407 115.289 42.254C115.177 42.062 115.121 41.822 115.121 41.534V37.478H116.153V41.358ZM114.521 38.646H117.377V39.374H114.521V38.646ZM120.098 38.446C120.541 38.446 120.93 38.5367 121.266 38.718C121.607 38.8993 121.871 39.1527 122.058 39.478C122.25 39.8033 122.346 40.182 122.346 40.614C122.346 41.046 122.25 41.4247 122.058 41.75C121.871 42.0753 121.607 42.3313 121.266 42.518C120.93 42.6993 120.541 42.79 120.098 42.79C119.65 42.79 119.255 42.6993 118.914 42.518C118.573 42.3313 118.306 42.0753 118.114 41.75C117.927 41.4247 117.834 41.046 117.834 40.614C117.834 40.182 117.927 39.8033 118.114 39.478C118.306 39.1527 118.573 38.8993 118.914 38.718C119.255 38.5367 119.65 38.446 120.098 38.446ZM120.098 39.286C119.858 39.286 119.645 39.3447 119.458 39.462C119.277 39.574 119.135 39.7313 119.034 39.934C118.933 40.1313 118.882 40.3607 118.882 40.622C118.882 40.8887 118.933 41.1233 119.034 41.326C119.135 41.5287 119.277 41.686 119.458 41.798C119.645 41.91 119.858 41.966 120.098 41.966C120.333 41.966 120.541 41.91 120.722 41.798C120.903 41.686 121.045 41.5287 121.146 41.326C121.247 41.1233 121.298 40.8887 121.298 40.622C121.298 40.3607 121.247 40.1313 121.146 39.934C121.045 39.7313 120.903 39.574 120.722 39.462C120.541 39.3447 120.333 39.286 120.098 39.286ZM128.35 39.782C128.216 39.6327 128.054 39.518 127.862 39.438C127.675 39.3527 127.464 39.31 127.23 39.31C127 39.31 126.798 39.366 126.622 39.478C126.446 39.5847 126.307 39.7367 126.206 39.934C126.11 40.1313 126.062 40.3607 126.062 40.622C126.062 40.8833 126.11 41.1127 126.206 41.31C126.307 41.5073 126.446 41.662 126.622 41.774C126.798 41.886 127 41.942 127.23 41.942C127.475 41.942 127.696 41.8993 127.894 41.814C128.091 41.7287 128.254 41.6007 128.382 41.43L129.03 41.958C128.843 42.2193 128.592 42.4247 128.278 42.574C127.963 42.718 127.598 42.79 127.182 42.79C126.755 42.79 126.379 42.6993 126.054 42.518C125.728 42.3313 125.472 42.078 125.286 41.758C125.104 41.4327 125.014 41.054 125.014 40.622C125.014 40.19 125.104 39.8113 125.286 39.486C125.472 39.1607 125.728 38.9073 126.054 38.726C126.379 38.5393 126.755 38.446 127.182 38.446C127.582 38.446 127.934 38.5127 128.238 38.646C128.542 38.774 128.792 38.9553 128.99 39.19L128.35 39.782ZM131.637 38.446C132.08 38.446 132.469 38.5367 132.805 38.718C133.147 38.8993 133.411 39.1527 133.597 39.478C133.789 39.8033 133.885 40.182 133.885 40.614C133.885 41.046 133.789 41.4247 133.597 41.75C133.411 42.0753 133.147 42.3313 132.805 42.518C132.469 42.6993 132.08 42.79 131.637 42.79C131.189 42.79 130.795 42.6993 130.453 42.518C130.112 42.3313 129.845 42.0753 129.653 41.75C129.467 41.4247 129.373 41.046 129.373 40.614C129.373 40.182 129.467 39.8033 129.653 39.478C129.845 39.1527 130.112 38.8993 130.453 38.718C130.795 38.5367 131.189 38.446 131.637 38.446ZM131.637 39.286C131.397 39.286 131.184 39.3447 130.997 39.462C130.816 39.574 130.675 39.7313 130.573 39.934C130.472 40.1313 130.421 40.3607 130.421 40.622C130.421 40.8887 130.472 41.1233 130.573 41.326C130.675 41.5287 130.816 41.686 130.997 41.798C131.184 41.91 131.397 41.966 131.637 41.966C131.872 41.966 132.08 41.91 132.261 41.798C132.443 41.686 132.584 41.5287 132.685 41.326C132.787 41.1233 132.837 40.8887 132.837 40.622C132.837 40.3607 132.787 40.1313 132.685 39.934C132.584 39.7313 132.443 39.574 132.261 39.462C132.08 39.3447 131.872 39.286 131.637 39.286ZM137.845 40.366C137.845 40.0513 137.762 39.806 137.597 39.63C137.437 39.454 137.21 39.366 136.917 39.366C136.581 39.3713 136.314 39.4967 136.117 39.742C135.925 39.982 135.829 40.2833 135.829 40.646H135.549C135.549 40.1287 135.621 39.71 135.765 39.39C135.909 39.0647 136.114 38.8273 136.381 38.678C136.653 38.5233 136.97 38.446 137.333 38.446C137.658 38.446 137.935 38.5127 138.165 38.646C138.399 38.7793 138.578 38.9687 138.701 39.214C138.829 39.454 138.893 39.7447 138.893 40.086V42.75H137.845V40.366ZM140.909 40.366C140.909 40.0513 140.826 39.806 140.661 39.63C140.495 39.454 140.266 39.366 139.973 39.366C139.637 39.3713 139.373 39.4967 139.181 39.742C138.989 39.982 138.893 40.2833 138.893 40.646H138.613C138.613 40.1287 138.685 39.71 138.829 39.39C138.973 39.0647 139.178 38.8273 139.445 38.678C139.711 38.5233 140.029 38.446 140.397 38.446C140.717 38.446 140.991 38.5127 141.221 38.646C141.455 38.7793 141.637 38.9687 141.765 39.214C141.893 39.454 141.957 39.7447 141.957 40.086V42.75H140.909V40.366ZM134.789 38.486H135.829V42.75H134.789V38.486ZM145.637 38.446C146.042 38.446 146.397 38.5367 146.701 38.718C147.005 38.8993 147.239 39.1553 147.405 39.486C147.575 39.8113 147.661 40.1927 147.661 40.63C147.661 41.0567 147.578 41.4327 147.413 41.758C147.247 42.078 147.013 42.3313 146.709 42.518C146.41 42.6993 146.058 42.79 145.653 42.79C145.274 42.79 144.949 42.7047 144.677 42.534C144.405 42.358 144.197 42.1073 144.053 41.782C143.909 41.4567 143.837 41.0727 143.837 40.63C143.837 40.1713 143.906 39.7793 144.045 39.454C144.189 39.1287 144.397 38.8807 144.669 38.71C144.941 38.534 145.263 38.446 145.637 38.446ZM145.405 39.27C145.17 39.27 144.959 39.3287 144.773 39.446C144.591 39.558 144.45 39.7153 144.349 39.918C144.247 40.1153 144.197 40.3447 144.197 40.606C144.197 40.8673 144.247 41.0993 144.349 41.302C144.45 41.5047 144.591 41.662 144.773 41.774C144.959 41.886 145.17 41.942 145.405 41.942C145.645 41.942 145.853 41.886 146.029 41.774C146.21 41.6567 146.351 41.4993 146.453 41.302C146.554 41.0993 146.605 40.8673 146.605 40.606C146.605 40.3447 146.554 40.1153 146.453 39.918C146.351 39.7153 146.21 39.558 146.029 39.446C145.853 39.3287 145.645 39.27 145.405 39.27ZM143.157 38.486H144.197V44.302H143.157V38.486ZM148.602 36.814H149.642V42.75H148.602V36.814ZM153.864 40.294C153.853 40.07 153.803 39.8807 153.712 39.726C153.621 39.566 153.493 39.4433 153.328 39.358C153.168 39.2673 152.984 39.222 152.776 39.222C152.536 39.222 152.328 39.278 152.152 39.39C151.976 39.502 151.837 39.6593 151.736 39.862C151.64 40.0647 151.592 40.2993 151.592 40.566C151.592 40.8593 151.645 41.1127 151.752 41.326C151.864 41.5393 152.016 41.7047 152.208 41.822C152.4 41.934 152.621 41.99 152.872 41.99C153.325 41.99 153.712 41.8273 154.032 41.502L154.584 42.054C154.371 42.2887 154.112 42.47 153.808 42.598C153.504 42.726 153.165 42.79 152.792 42.79C152.344 42.79 151.955 42.6993 151.624 42.518C151.299 42.3313 151.043 42.078 150.856 41.758C150.675 41.4327 150.584 41.054 150.584 40.622C150.584 40.19 150.675 39.8113 150.856 39.486C151.043 39.1607 151.299 38.9073 151.624 38.726C151.955 38.5447 152.333 38.4513 152.76 38.446C153.267 38.446 153.675 38.55 153.984 38.758C154.299 38.966 154.523 39.2593 154.656 39.638C154.789 40.0113 154.837 40.4567 154.8 40.974H151.44V40.294H153.864ZM156.919 41.358C156.919 41.5713 156.959 41.718 157.039 41.798C157.119 41.878 157.228 41.918 157.367 41.918C157.452 41.918 157.545 41.9047 157.647 41.878C157.748 41.846 157.857 41.798 157.975 41.734L158.215 42.486C158.055 42.582 157.881 42.6593 157.695 42.718C157.513 42.7713 157.329 42.798 157.143 42.798C156.913 42.798 156.703 42.7553 156.511 42.67C156.319 42.5793 156.167 42.4407 156.055 42.254C155.943 42.062 155.887 41.822 155.887 41.534V37.478H156.919V41.358ZM155.287 38.646H158.143V39.374H155.287V38.646ZM161.88 40.294C161.869 40.07 161.818 39.8807 161.728 39.726C161.637 39.566 161.509 39.4433 161.344 39.358C161.184 39.2673 161 39.222 160.792 39.222C160.552 39.222 160.344 39.278 160.168 39.39C159.992 39.502 159.853 39.6593 159.752 39.862C159.656 40.0647 159.608 40.2993 159.608 40.566C159.608 40.8593 159.661 41.1127 159.768 41.326C159.88 41.5393 160.032 41.7047 160.224 41.822C160.416 41.934 160.637 41.99 160.888 41.99C161.341 41.99 161.728 41.8273 162.048 41.502L162.6 42.054C162.386 42.2887 162.128 42.47 161.824 42.598C161.52 42.726 161.181 42.79 160.808 42.79C160.36 42.79 159.97 42.6993 159.64 42.518C159.314 42.3313 159.058 42.078 158.872 41.758C158.69 41.4327 158.6 41.054 158.6 40.622C158.6 40.19 158.69 39.8113 158.872 39.486C159.058 39.1607 159.314 38.9073 159.64 38.726C159.97 38.5447 160.349 38.4513 160.776 38.446C161.282 38.446 161.69 38.55 162 38.758C162.314 38.966 162.538 39.2593 162.672 39.638C162.805 40.0113 162.853 40.4567 162.816 40.974H159.456V40.294H161.88ZM167.09 41.358C167.09 41.5713 167.13 41.718 167.21 41.798C167.29 41.878 167.4 41.918 167.538 41.918C167.624 41.918 167.717 41.9047 167.818 41.878C167.92 41.846 168.029 41.798 168.146 41.734L168.386 42.486C168.226 42.582 168.053 42.6593 167.866 42.718C167.685 42.7713 167.501 42.798 167.314 42.798C167.085 42.798 166.874 42.7553 166.682 42.67C166.49 42.5793 166.338 42.4407 166.226 42.254C166.114 42.062 166.058 41.822 166.058 41.534V37.478H167.09V41.358ZM165.458 38.646H168.314V39.374H165.458V38.646ZM172.363 40.366C172.363 40.0567 172.277 39.814 172.107 39.638C171.941 39.462 171.709 39.374 171.411 39.374C171.059 39.374 170.781 39.4967 170.579 39.742C170.381 39.982 170.283 40.286 170.283 40.654H170.011C170.011 40.1313 170.083 39.71 170.227 39.39C170.376 39.0647 170.587 38.8273 170.859 38.678C171.131 38.5233 171.453 38.446 171.827 38.446C172.152 38.446 172.432 38.5127 172.667 38.646C172.907 38.7793 173.091 38.9687 173.219 39.214C173.347 39.454 173.411 39.7447 173.411 40.086V42.75H172.363V40.366ZM169.243 36.814H170.283V42.75H169.243V36.814ZM177.466 40.294C177.455 40.07 177.404 39.8807 177.314 39.726C177.223 39.566 177.095 39.4433 176.93 39.358C176.77 39.2673 176.586 39.222 176.378 39.222C176.138 39.222 175.93 39.278 175.754 39.39C175.578 39.502 175.439 39.6593 175.338 39.862C175.242 40.0647 175.194 40.2993 175.194 40.566C175.194 40.8593 175.247 41.1127 175.354 41.326C175.466 41.5393 175.618 41.7047 175.81 41.822C176.002 41.934 176.223 41.99 176.474 41.99C176.927 41.99 177.314 41.8273 177.634 41.502L178.186 42.054C177.972 42.2887 177.714 42.47 177.41 42.598C177.106 42.726 176.767 42.79 176.394 42.79C175.946 42.79 175.556 42.6993 175.226 42.518C174.9 42.3313 174.644 42.078 174.458 41.758C174.276 41.4327 174.186 41.054 174.186 40.622C174.186 40.19 174.276 39.8113 174.458 39.486C174.644 39.1607 174.9 38.9073 175.226 38.726C175.556 38.5447 175.935 38.4513 176.362 38.446C176.868 38.446 177.276 38.55 177.586 38.758C177.9 38.966 178.124 39.2593 178.258 39.638C178.391 40.0113 178.439 40.4567 178.402 40.974H175.042V40.294H177.466ZM179.312 38.486H180.352V42.75H179.312V38.486ZM179.824 36.67C179.995 36.67 180.136 36.726 180.248 36.838C180.36 36.95 180.416 37.0913 180.416 37.262C180.416 37.4273 180.36 37.5687 180.248 37.686C180.136 37.798 179.995 37.854 179.824 37.854C179.659 37.854 179.52 37.798 179.408 37.686C179.296 37.5687 179.24 37.4273 179.24 37.262C179.24 37.0913 179.296 36.95 179.408 36.838C179.52 36.726 179.659 36.67 179.824 36.67ZM184.136 39.39C183.838 39.3687 183.579 39.414 183.36 39.526C183.142 39.6327 182.974 39.7873 182.856 39.99C182.739 40.1927 182.68 40.4247 182.68 40.686L182.4 40.654C182.4 40.1793 182.47 39.7793 182.608 39.454C182.747 39.1233 182.947 38.8727 183.208 38.702C183.47 38.5313 183.779 38.446 184.136 38.446V39.39ZM181.64 38.486H182.68V42.75H181.64V38.486ZM28.168 48.446C28.5733 48.446 28.928 48.5367 29.232 48.718C29.536 48.8993 29.7707 49.1553 29.936 49.486C30.1067 49.8113 30.192 50.1927 30.192 50.63C30.192 51.0567 30.1093 51.4327 29.944 51.758C29.7787 52.078 29.544 52.3313 29.24 52.518C28.9413 52.6993 28.5893 52.79 28.184 52.79C27.8053 52.79 27.48 52.7047 27.208 52.534C26.936 52.358 26.728 52.1073 26.584 51.782C26.44 51.4567 26.368 51.0727 26.368 50.63C26.368 50.1713 26.4373 49.7793 26.576 49.454C26.72 49.1287 26.928 48.8807 27.2 48.71C27.472 48.534 27.7947 48.446 28.168 48.446ZM27.936 49.27C27.7013 49.27 27.4907 49.3287 27.304 49.446C27.1227 49.558 26.9813 49.7153 26.88 49.918C26.7787 50.1153 26.728 50.3447 26.728 50.606C26.728 50.8673 26.7787 51.0993 26.88 51.302C26.9813 51.5047 27.1227 51.662 27.304 51.774C27.4907 51.886 27.7013 51.942 27.936 51.942C28.176 51.942 28.384 51.886 28.56 51.774C28.7413 51.6567 28.8827 51.4993 28.984 51.302C29.0853 51.0993 29.136 50.8673 29.136 50.606C29.136 50.3447 29.0853 50.1153 28.984 49.918C28.8827 49.7153 28.7413 49.558 28.56 49.446C28.384 49.3287 28.176 49.27 27.936 49.27ZM25.688 48.486H26.728V54.302H25.688V48.486ZM32.0053 50.862C32.0053 51.1713 32.0853 51.4167 32.2453 51.598C32.4106 51.774 32.6373 51.862 32.9253 51.862C33.2613 51.8513 33.5226 51.726 33.7093 51.486C33.9013 51.246 33.9973 50.9447 33.9973 50.582H34.2693C34.2693 51.0993 34.1973 51.5207 34.0533 51.846C33.9093 52.166 33.7066 52.4033 33.4453 52.558C33.184 52.7073 32.872 52.7847 32.5093 52.79C32.1893 52.79 31.912 52.7233 31.6773 52.59C31.448 52.4567 31.2693 52.2673 31.1413 52.022C31.0186 51.7713 30.9573 51.478 30.9573 51.142V48.486H32.0053V50.862ZM33.9973 48.486H35.0453V52.75H33.9973V48.486ZM38.8393 49.39C38.5406 49.3687 38.282 49.414 38.0633 49.526C37.8446 49.6327 37.6766 49.7873 37.5593 49.99C37.442 50.1927 37.3833 50.4247 37.3833 50.686L37.1033 50.654C37.1033 50.1793 37.1726 49.7793 37.3113 49.454C37.45 49.1233 37.65 48.8727 37.9113 48.702C38.1726 48.5313 38.482 48.446 38.8393 48.446V49.39ZM36.3433 48.486H37.3833V52.75H36.3433V48.486ZM42.5139 49.782C42.3805 49.6327 42.2179 49.518 42.0259 49.438C41.8392 49.3527 41.6285 49.31 41.3939 49.31C41.1645 49.31 40.9619 49.366 40.7859 49.478C40.6099 49.5847 40.4712 49.7367 40.3699 49.934C40.2739 50.1313 40.2259 50.3607 40.2259 50.622C40.2259 50.8833 40.2739 51.1127 40.3699 51.31C40.4712 51.5073 40.6099 51.662 40.7859 51.774C40.9619 51.886 41.1645 51.942 41.3939 51.942C41.6392 51.942 41.8605 51.8993 42.0579 51.814C42.2552 51.7287 42.4179 51.6007 42.5459 51.43L43.1939 51.958C43.0072 52.2193 42.7565 52.4247 42.4419 52.574C42.1272 52.718 41.7619 52.79 41.3459 52.79C40.9192 52.79 40.5432 52.6993 40.2179 52.518C39.8925 52.3313 39.6365 52.078 39.4499 51.758C39.2685 51.4327 39.1779 51.054 39.1779 50.622C39.1779 50.19 39.2685 49.8113 39.4499 49.486C39.6365 49.1607 39.8925 48.9073 40.2179 48.726C40.5432 48.5393 40.9192 48.446 41.3459 48.446C41.7459 48.446 42.0979 48.5127 42.4019 48.646C42.7059 48.774 42.9565 48.9553 43.1539 49.19L42.5139 49.782ZM47.2455 50.366C47.2455 50.0567 47.1602 49.814 46.9895 49.638C46.8242 49.462 46.5922 49.374 46.2935 49.374C45.9415 49.374 45.6642 49.4967 45.4615 49.742C45.2642 49.982 45.1655 50.286 45.1655 50.654H44.8935C44.8935 50.1313 44.9655 49.71 45.1095 49.39C45.2588 49.0647 45.4695 48.8273 45.7415 48.678C46.0135 48.5233 46.3362 48.446 46.7095 48.446C47.0348 48.446 47.3148 48.5127 47.5495 48.646C47.7895 48.7793 47.9735 48.9687 48.1015 49.214C48.2295 49.454 48.2935 49.7447 48.2935 50.086V52.75H47.2455V50.366ZM44.1255 46.814H45.1655V52.75H44.1255V46.814ZM50.9005 50.87C50.6285 50.87 50.4258 50.9127 50.2925 50.998C50.1592 51.0833 50.0925 51.2247 50.0925 51.422C50.0925 51.6033 50.1592 51.75 50.2925 51.862C50.4312 51.974 50.6178 52.03 50.8525 52.03C51.0605 52.03 51.2472 51.9953 51.4125 51.926C51.5832 51.8513 51.7165 51.7527 51.8125 51.63C51.9138 51.502 51.9725 51.3607 51.9885 51.206L52.1645 51.95C52.0365 52.2273 51.8392 52.438 51.5725 52.582C51.3058 52.726 50.9832 52.798 50.6045 52.798C50.3005 52.798 50.0365 52.7393 49.8125 52.622C49.5885 52.5047 49.4152 52.3473 49.2925 52.15C49.1698 51.9473 49.1085 51.7207 49.1085 51.47C49.1085 51.0753 49.2498 50.766 49.5325 50.542C49.8152 50.3127 50.2152 50.1953 50.7325 50.19H52.1005V50.87H50.9005ZM51.9805 50.062C51.9805 49.806 51.8978 49.606 51.7325 49.462C51.5725 49.3127 51.3325 49.238 51.0125 49.238C50.8152 49.238 50.6072 49.2753 50.3885 49.35C50.1752 49.4193 49.9592 49.5207 49.7405 49.654L49.3645 48.982C49.5672 48.8593 49.7618 48.7607 49.9485 48.686C50.1352 48.606 50.3298 48.5473 50.5325 48.51C50.7405 48.4673 50.9778 48.446 51.2445 48.446C51.8045 48.446 52.2365 48.5793 52.5405 48.846C52.8445 49.1127 52.9992 49.4807 53.0045 49.95L53.0125 52.75H51.9885L51.9805 50.062ZM56.7153 49.598C56.5073 49.4753 56.2913 49.382 56.0673 49.318C55.8433 49.2487 55.6406 49.214 55.4593 49.214C55.2886 49.214 55.1499 49.246 55.0433 49.31C54.9366 49.3687 54.8833 49.47 54.8833 49.614C54.8833 49.7367 54.9366 49.8353 55.0433 49.91C55.1553 49.9847 55.2966 50.0487 55.4673 50.102C55.6379 50.15 55.8193 50.2033 56.0113 50.262C56.2033 50.3207 56.3846 50.398 56.5553 50.494C56.7313 50.59 56.8726 50.718 56.9793 50.878C57.0913 51.038 57.1473 51.2487 57.1473 51.51C57.1473 51.798 57.0699 52.038 56.9153 52.23C56.7606 52.4167 56.5553 52.558 56.2993 52.654C56.0433 52.7447 55.7633 52.79 55.4593 52.79C55.1393 52.79 54.8193 52.7393 54.4993 52.638C54.1846 52.5367 53.9153 52.3873 53.6913 52.19L54.0513 51.494C54.2486 51.6647 54.4806 51.798 54.7473 51.894C55.0193 51.9847 55.2699 52.03 55.4993 52.03C55.6219 52.03 55.7313 52.014 55.8273 51.982C55.9233 51.95 55.9979 51.9047 56.0513 51.846C56.1046 51.782 56.1313 51.6993 56.1313 51.598C56.1313 51.4593 56.0779 51.3527 55.9713 51.278C55.8646 51.198 55.7259 51.1313 55.5553 51.078C55.3899 51.0193 55.2113 50.9633 55.0193 50.91C54.8273 50.8513 54.6459 50.7767 54.4753 50.686C54.3099 50.59 54.1739 50.4647 54.0673 50.31C53.9606 50.1553 53.9073 49.95 53.9073 49.694C53.9073 49.406 53.9819 49.1687 54.1313 48.982C54.2806 48.7953 54.4779 48.6593 54.7233 48.574C54.9686 48.4833 55.2353 48.438 55.5233 48.438C55.8006 48.438 56.0779 48.478 56.3553 48.558C56.6326 48.6327 56.8779 48.7393 57.0913 48.878L56.7153 49.598ZM60.9266 50.294C60.916 50.07 60.8653 49.8807 60.7746 49.726C60.684 49.566 60.556 49.4433 60.3906 49.358C60.2306 49.2673 60.0466 49.222 59.8386 49.222C59.5986 49.222 59.3906 49.278 59.2146 49.39C59.0386 49.502 58.9 49.6593 58.7986 49.862C58.7026 50.0647 58.6546 50.2993 58.6546 50.566C58.6546 50.8593 58.708 51.1127 58.8146 51.326C58.9266 51.5393 59.0786 51.7047 59.2706 51.822C59.4626 51.934 59.684 51.99 59.9346 51.99C60.388 51.99 60.7746 51.8273 61.0946 51.502L61.6466 52.054C61.4333 52.2887 61.1746 52.47 60.8706 52.598C60.5666 52.726 60.228 52.79 59.8546 52.79C59.4066 52.79 59.0173 52.6993 58.6866 52.518C58.3613 52.3313 58.1053 52.078 57.9186 51.758C57.7373 51.4327 57.6466 51.054 57.6466 50.622C57.6466 50.19 57.7373 49.8113 57.9186 49.486C58.1053 49.1607 58.3613 48.9073 58.6866 48.726C59.0173 48.5447 59.396 48.4513 59.8226 48.446C60.3293 48.446 60.7373 48.55 61.0466 48.758C61.3613 48.966 61.5853 49.2593 61.7186 49.638C61.852 50.0113 61.9 50.4567 61.8626 50.974H58.5026V50.294H60.9266ZM65.309 49.598C65.101 49.4753 64.885 49.382 64.661 49.318C64.437 49.2487 64.2343 49.214 64.053 49.214C63.8823 49.214 63.7437 49.246 63.637 49.31C63.5303 49.3687 63.477 49.47 63.477 49.614C63.477 49.7367 63.5303 49.8353 63.637 49.91C63.749 49.9847 63.8903 50.0487 64.061 50.102C64.2317 50.15 64.413 50.2033 64.605 50.262C64.797 50.3207 64.9783 50.398 65.149 50.494C65.325 50.59 65.4663 50.718 65.573 50.878C65.685 51.038 65.741 51.2487 65.741 51.51C65.741 51.798 65.6637 52.038 65.509 52.23C65.3543 52.4167 65.149 52.558 64.893 52.654C64.637 52.7447 64.357 52.79 64.053 52.79C63.733 52.79 63.413 52.7393 63.093 52.638C62.7783 52.5367 62.509 52.3873 62.285 52.19L62.645 51.494C62.8423 51.6647 63.0743 51.798 63.341 51.894C63.613 51.9847 63.8637 52.03 64.093 52.03C64.2157 52.03 64.325 52.014 64.421 51.982C64.517 51.95 64.5917 51.9047 64.645 51.846C64.6983 51.782 64.725 51.6993 64.725 51.598C64.725 51.4593 64.6717 51.3527 64.565 51.278C64.4583 51.198 64.3197 51.1313 64.149 51.078C63.9837 51.0193 63.805 50.9633 63.613 50.91C63.421 50.8513 63.2397 50.7767 63.069 50.686C62.9037 50.59 62.7677 50.4647 62.661 50.31C62.5543 50.1553 62.501 49.95 62.501 49.694C62.501 49.406 62.5757 49.1687 62.725 48.982C62.8743 48.7953 63.0717 48.6593 63.317 48.574C63.5623 48.4833 63.829 48.438 64.117 48.438C64.3943 48.438 64.6717 48.478 64.949 48.558C65.2263 48.6327 65.4717 48.7393 65.685 48.878L65.309 49.598ZM68.1326 48.486H69.2046L70.2526 51.774L71.2686 48.486H72.3166L73.3486 51.774L74.3726 48.486H75.4286L73.8686 52.75H72.7966L71.7886 49.662L70.7646 52.75H69.7086L68.1326 48.486ZM76.0308 48.486H77.0708V52.75H76.0308V48.486ZM76.5428 46.67C76.7135 46.67 76.8548 46.726 76.9668 46.838C77.0788 46.95 77.1348 47.0913 77.1348 47.262C77.1348 47.4273 77.0788 47.5687 76.9668 47.686C76.8548 47.798 76.7135 47.854 76.5428 47.854C76.3775 47.854 76.2388 47.798 76.1268 47.686C76.0148 47.5687 75.9588 47.4273 75.9588 47.262C75.9588 47.0913 76.0148 46.95 76.1268 46.838C76.2388 46.726 76.3775 46.67 76.5428 46.67ZM79.5669 51.358C79.5669 51.5713 79.6069 51.718 79.6869 51.798C79.7669 51.878 79.8763 51.918 80.0149 51.918C80.1003 51.918 80.1936 51.9047 80.2949 51.878C80.3963 51.846 80.5056 51.798 80.6229 51.734L80.8629 52.486C80.7029 52.582 80.5296 52.6593 80.3429 52.718C80.1616 52.7713 79.9776 52.798 79.7909 52.798C79.5616 52.798 79.3509 52.7553 79.1589 52.67C78.9669 52.5793 78.8149 52.4407 78.7029 52.254C78.5909 52.062 78.5349 51.822 78.5349 51.534V47.478H79.5669V51.358ZM77.9349 48.646H80.7909V49.374H77.9349V48.646ZM84.8393 50.366C84.8393 50.0567 84.7539 49.814 84.5833 49.638C84.4179 49.462 84.1859 49.374 83.8873 49.374C83.5353 49.374 83.2579 49.4967 83.0553 49.742C82.8579 49.982 82.7593 50.286 82.7593 50.654H82.4873C82.4873 50.1313 82.5593 49.71 82.7033 49.39C82.8526 49.0647 83.0633 48.8273 83.3353 48.678C83.6073 48.5233 83.9299 48.446 84.3033 48.446C84.6286 48.446 84.9086 48.5127 85.1432 48.646C85.3833 48.7793 85.5673 48.9687 85.6953 49.214C85.8233 49.454 85.8873 49.7447 85.8873 50.086V52.75H84.8393V50.366ZM81.7193 46.814H82.7593V52.75H81.7193V46.814ZM90.4185 51.358C90.4185 51.5713 90.4585 51.718 90.5385 51.798C90.6185 51.878 90.7278 51.918 90.8665 51.918C90.9518 51.918 91.0452 51.9047 91.1465 51.878C91.2478 51.846 91.3572 51.798 91.4745 51.734L91.7145 52.486C91.5545 52.582 91.3812 52.6593 91.1945 52.718C91.0132 52.7713 90.8292 52.798 90.6425 52.798C90.4132 52.798 90.2025 52.7553 90.0105 52.67C89.8185 52.5793 89.6665 52.4407 89.5545 52.254C89.4425 52.062 89.3865 51.822 89.3865 51.534V47.478H90.4185V51.358ZM88.7865 48.646H91.6425V49.374H88.7865V48.646ZM92.5308 48.486H93.5708V52.75H92.5308V48.486ZM93.0428 46.67C93.2135 46.67 93.3548 46.726 93.4668 46.838C93.5788 46.95 93.6348 47.0913 93.6348 47.262C93.6348 47.4273 93.5788 47.5687 93.4668 47.686C93.3548 47.798 93.2135 47.854 93.0428 47.854C92.8775 47.854 92.7388 47.798 92.6268 47.686C92.5148 47.5687 92.4588 47.4273 92.4588 47.262C92.4588 47.0913 92.5148 46.95 92.6268 46.838C92.7388 46.726 92.8775 46.67 93.0428 46.67ZM97.9149 50.366C97.9149 50.0513 97.8323 49.806 97.6669 49.63C97.5069 49.454 97.2803 49.366 96.9869 49.366C96.6509 49.3713 96.3843 49.4967 96.1869 49.742C95.9949 49.982 95.8989 50.2833 95.8989 50.646H95.6189C95.6189 50.1287 95.6909 49.71 95.8349 49.39C95.9789 49.0647 96.1843 48.8273 96.4509 48.678C96.7229 48.5233 97.0403 48.446 97.4029 48.446C97.7283 48.446 98.0056 48.5127 98.2349 48.646C98.4696 48.7793 98.6483 48.9687 98.7709 49.214C98.8989 49.454 98.9629 49.7447 98.9629 50.086V52.75H97.9149V50.366ZM100.979 50.366C100.979 50.0513 100.896 49.806 100.731 49.63C100.566 49.454 100.336 49.366 100.043 49.366C99.7069 49.3713 99.4429 49.4967 99.2509 49.742C99.0589 49.982 98.9629 50.2833 98.9629 50.646H98.6829C98.6829 50.1287 98.7549 49.71 98.8989 49.39C99.0429 49.0647 99.2483 48.8273 99.5149 48.678C99.7816 48.5233 100.099 48.446 100.467 48.446C100.787 48.446 101.062 48.5127 101.291 48.646C101.526 48.7793 101.707 48.9687 101.835 49.214C101.963 49.454 102.027 49.7447 102.027 50.086V52.75H100.979V50.366ZM94.8589 48.486H95.8989V52.75H94.8589V48.486ZM106.075 50.294C106.064 50.07 106.014 49.8807 105.923 49.726C105.832 49.566 105.704 49.4433 105.539 49.358C105.379 49.2673 105.195 49.222 104.987 49.222C104.747 49.222 104.539 49.278 104.363 49.39C104.187 49.502 104.048 49.6593 103.947 49.862C103.851 50.0647 103.803 50.2993 103.803 50.566C103.803 50.8593 103.856 51.1127 103.963 51.326C104.075 51.5393 104.227 51.7047 104.419 51.822C104.611 51.934 104.832 51.99 105.083 51.99C105.536 51.99 105.923 51.8273 106.243 51.502L106.795 52.054C106.582 52.2887 106.323 52.47 106.019 52.598C105.715 52.726 105.376 52.79 105.003 52.79C104.555 52.79 104.166 52.6993 103.835 52.518C103.51 52.3313 103.254 52.078 103.067 51.758C102.886 51.4327 102.795 51.054 102.795 50.622C102.795 50.19 102.886 49.8113 103.067 49.486C103.254 49.1607 103.51 48.9073 103.835 48.726C104.166 48.5447 104.544 48.4513 104.971 48.446C105.478 48.446 105.886 48.55 106.195 48.758C106.51 48.966 106.734 49.2593 106.867 49.638C107 50.0113 107.048 50.4567 107.011 50.974H103.651V50.294H106.075ZM107.961 46.814H109.001V52.75H107.961V46.814ZM112.168 53.31C112.029 53.6513 111.837 53.91 111.592 54.086C111.346 54.262 111.053 54.35 110.712 54.35C110.504 54.35 110.314 54.318 110.144 54.254C109.978 54.19 109.813 54.0967 109.647 53.974L110.096 53.222C110.288 53.366 110.472 53.438 110.648 53.438C110.786 53.438 110.906 53.4007 111.008 53.326C111.114 53.2513 111.202 53.1367 111.272 52.982L111.4 52.686L109.631 48.486H110.712L111.928 51.654L113.04 48.486H114.088L112.168 53.31ZM115.055 52.806C114.826 52.806 114.658 52.7527 114.551 52.646C114.45 52.5393 114.399 52.414 114.399 52.27C114.399 52.1153 114.45 51.9873 114.551 51.886C114.652 51.7847 114.783 51.734 114.943 51.734C115.082 51.734 115.204 51.782 115.311 51.878C115.418 51.9687 115.471 52.0993 115.471 52.27C115.471 52.35 115.455 52.4273 115.423 52.502C115.396 52.5713 115.364 52.638 115.327 52.702L114.823 53.654H114.303L114.791 52.326L115.055 52.806ZM121.769 50.366C121.769 50.0567 121.684 49.814 121.513 49.638C121.348 49.462 121.116 49.374 120.817 49.374C120.465 49.374 120.188 49.4967 119.985 49.742C119.788 49.982 119.689 50.286 119.689 50.654H119.417C119.417 50.1313 119.489 49.71 119.633 49.39C119.782 49.0647 119.993 48.8273 120.265 48.678C120.537 48.5233 120.86 48.446 121.233 48.446C121.558 48.446 121.838 48.5127 122.073 48.646C122.313 48.7793 122.497 48.9687 122.625 49.214C122.753 49.454 122.817 49.7447 122.817 50.086V52.75H121.769V50.366ZM118.649 46.814H119.689V52.75H118.649V46.814ZM126.872 50.294C126.861 50.07 126.811 49.8807 126.72 49.726C126.629 49.566 126.501 49.4433 126.336 49.358C126.176 49.2673 125.992 49.222 125.784 49.222C125.544 49.222 125.336 49.278 125.16 49.39C124.984 49.502 124.845 49.6593 124.744 49.862C124.648 50.0647 124.6 50.2993 124.6 50.566C124.6 50.8593 124.653 51.1127 124.76 51.326C124.872 51.5393 125.024 51.7047 125.216 51.822C125.408 51.934 125.629 51.99 125.88 51.99C126.333 51.99 126.72 51.8273 127.04 51.502L127.592 52.054C127.379 52.2887 127.12 52.47 126.816 52.598C126.512 52.726 126.173 52.79 125.8 52.79C125.352 52.79 124.963 52.6993 124.632 52.518C124.307 52.3313 124.051 52.078 123.864 51.758C123.683 51.4327 123.592 51.054 123.592 50.622C123.592 50.19 123.683 49.8113 123.864 49.486C124.051 49.1607 124.307 48.9073 124.632 48.726C124.963 48.5447 125.341 48.4513 125.768 48.446C126.275 48.446 126.683 48.55 126.992 48.758C127.307 48.966 127.531 49.2593 127.664 49.638C127.797 50.0113 127.845 50.4567 127.808 50.974H124.448V50.294H126.872ZM128.758 46.814H129.798V52.75H128.758V46.814ZM133.652 48.446C134.058 48.446 134.412 48.5367 134.716 48.718C135.02 48.8993 135.255 49.1553 135.42 49.486C135.591 49.8113 135.676 50.1927 135.676 50.63C135.676 51.0567 135.594 51.4327 135.428 51.758C135.263 52.078 135.028 52.3313 134.724 52.518C134.426 52.6993 134.074 52.79 133.668 52.79C133.29 52.79 132.964 52.7047 132.692 52.534C132.42 52.358 132.212 52.1073 132.068 51.782C131.924 51.4567 131.852 51.0727 131.852 50.63C131.852 50.1713 131.922 49.7793 132.06 49.454C132.204 49.1287 132.412 48.8807 132.684 48.71C132.956 48.534 133.279 48.446 133.652 48.446ZM133.42 49.27C133.186 49.27 132.975 49.3287 132.788 49.446C132.607 49.558 132.466 49.7153 132.364 49.918C132.263 50.1153 132.212 50.3447 132.212 50.606C132.212 50.8673 132.263 51.0993 132.364 51.302C132.466 51.5047 132.607 51.662 132.788 51.774C132.975 51.886 133.186 51.942 133.42 51.942C133.66 51.942 133.868 51.886 134.044 51.774C134.226 51.6567 134.367 51.4993 134.468 51.302C134.57 51.0993 134.62 50.8673 134.62 50.606C134.62 50.3447 134.57 50.1153 134.468 49.918C134.367 49.7153 134.226 49.558 134.044 49.446C133.868 49.3287 133.66 49.27 133.42 49.27ZM131.172 48.486H132.212V54.302H131.172V48.486ZM136.723 48.238C136.723 47.9073 136.795 47.6327 136.939 47.414C137.083 47.1953 137.269 47.0327 137.499 46.926C137.728 46.8193 137.976 46.766 138.243 46.766C138.376 46.766 138.509 46.7847 138.643 46.822C138.781 46.854 138.909 46.8993 139.027 46.958L138.843 47.75C138.763 47.718 138.677 47.6887 138.587 47.662C138.496 47.6353 138.405 47.622 138.315 47.622C138.219 47.6167 138.128 47.6353 138.043 47.678C137.957 47.7153 137.888 47.7767 137.835 47.862C137.787 47.942 137.763 48.0487 137.763 48.182V52.75H136.723V48.238ZM136.163 48.646H138.835V49.374H136.163V48.646ZM140.451 50.862C140.451 51.1713 140.531 51.4167 140.691 51.598C140.856 51.774 141.083 51.862 141.371 51.862C141.707 51.8513 141.968 51.726 142.155 51.486C142.347 51.246 142.443 50.9447 142.443 50.582H142.715C142.715 51.0993 142.643 51.5207 142.499 51.846C142.355 52.166 142.152 52.4033 141.891 52.558C141.629 52.7073 141.317 52.7847 140.955 52.79C140.635 52.79 140.357 52.7233 140.123 52.59C139.893 52.4567 139.715 52.2673 139.587 52.022C139.464 51.7713 139.403 51.478 139.403 51.142V48.486H140.451V50.862ZM142.443 48.486H143.491V52.75H142.443V48.486ZM144.829 46.814H145.869V52.75H144.829V46.814ZM151.855 49.39C151.556 49.3687 151.298 49.414 151.079 49.526C150.86 49.6327 150.692 49.7873 150.575 49.99C150.458 50.1927 150.399 50.4247 150.399 50.686L150.119 50.654C150.119 50.1793 150.188 49.7793 150.327 49.454C150.466 49.1233 150.666 48.8727 150.927 48.702C151.188 48.5313 151.498 48.446 151.855 48.446V49.39ZM149.359 48.486H150.399V52.75H149.359V48.486ZM155.474 50.294C155.463 50.07 155.412 49.8807 155.322 49.726C155.231 49.566 155.103 49.4433 154.938 49.358C154.778 49.2673 154.594 49.222 154.386 49.222C154.146 49.222 153.938 49.278 153.762 49.39C153.586 49.502 153.447 49.6593 153.346 49.862C153.25 50.0647 153.202 50.2993 153.202 50.566C153.202 50.8593 153.255 51.1127 153.362 51.326C153.474 51.5393 153.626 51.7047 153.818 51.822C154.01 51.934 154.231 51.99 154.482 51.99C154.935 51.99 155.322 51.8273 155.642 51.502L156.194 52.054C155.98 52.2887 155.722 52.47 155.418 52.598C155.114 52.726 154.775 52.79 154.402 52.79C153.954 52.79 153.564 52.6993 153.234 52.518C152.908 52.3313 152.652 52.078 152.465 51.758C152.284 51.4327 152.194 51.054 152.194 50.622C152.194 50.19 152.284 49.8113 152.465 49.486C152.652 49.1607 152.908 48.9073 153.234 48.726C153.564 48.5447 153.943 48.4513 154.37 48.446C154.876 48.446 155.284 48.55 155.594 48.758C155.908 48.966 156.132 49.2593 156.266 49.638C156.399 50.0113 156.447 50.4567 156.41 50.974H153.05V50.294H155.474ZM160.376 50.366C160.376 50.0513 160.293 49.806 160.128 49.63C159.968 49.454 159.741 49.366 159.448 49.366C159.112 49.3713 158.845 49.4967 158.648 49.742C158.456 49.982 158.36 50.2833 158.36 50.646H158.08C158.08 50.1287 158.152 49.71 158.296 49.39C158.44 49.0647 158.645 48.8273 158.912 48.678C159.184 48.5233 159.501 48.446 159.864 48.446C160.189 48.446 160.467 48.5127 160.696 48.646C160.931 48.7793 161.109 48.9687 161.232 49.214C161.36 49.454 161.424 49.7447 161.424 50.086V52.75H160.376V50.366ZM163.44 50.366C163.44 50.0513 163.357 49.806 163.192 49.63C163.027 49.454 162.797 49.366 162.504 49.366C162.168 49.3713 161.904 49.4967 161.712 49.742C161.52 49.982 161.424 50.2833 161.424 50.646H161.144C161.144 50.1287 161.216 49.71 161.36 49.39C161.504 49.0647 161.709 48.8273 161.976 48.678C162.243 48.5233 162.56 48.446 162.928 48.446C163.248 48.446 163.523 48.5127 163.752 48.646C163.987 48.7793 164.168 48.9687 164.296 49.214C164.424 49.454 164.488 49.7447 164.488 50.086V52.75H163.44V50.366ZM157.32 48.486H158.36V52.75H157.32V48.486ZM165.648 48.486H166.688V52.75H165.648V48.486ZM166.16 46.67C166.331 46.67 166.472 46.726 166.584 46.838C166.696 46.95 166.752 47.0913 166.752 47.262C166.752 47.4273 166.696 47.5687 166.584 47.686C166.472 47.798 166.331 47.854 166.16 47.854C165.995 47.854 165.856 47.798 165.744 47.686C165.632 47.5687 165.576 47.4273 165.576 47.262C165.576 47.0913 165.632 46.95 165.744 46.838C165.856 46.726 165.995 46.67 166.16 46.67ZM171.088 50.366C171.088 50.0567 171.003 49.814 170.832 49.638C170.667 49.462 170.435 49.374 170.136 49.374C169.789 49.374 169.515 49.4967 169.312 49.742C169.115 49.982 169.016 50.286 169.016 50.654H168.736C168.736 50.1313 168.808 49.71 168.952 49.39C169.101 49.0647 169.312 48.8273 169.584 48.678C169.861 48.5233 170.184 48.446 170.552 48.446C170.883 48.446 171.165 48.5127 171.4 48.646C171.635 48.7793 171.816 48.9687 171.944 49.214C172.072 49.454 172.136 49.7447 172.136 50.086V52.75H171.088V50.366ZM167.976 48.486H169.016V52.75H167.976V48.486ZM174.928 48.438C175.318 48.438 175.648 48.526 175.92 48.702C176.192 48.878 176.4 49.1287 176.544 49.454C176.688 49.774 176.758 50.1607 176.752 50.614C176.758 51.062 176.688 51.4513 176.544 51.782C176.406 52.1073 176.2 52.358 175.928 52.534C175.656 52.7047 175.331 52.79 174.952 52.79C174.547 52.79 174.19 52.6993 173.88 52.518C173.576 52.3313 173.339 52.0727 173.168 51.742C172.998 51.4113 172.912 51.0327 172.912 50.606C172.912 50.174 172.998 49.7953 173.168 49.47C173.339 49.1447 173.574 48.8913 173.872 48.71C174.176 48.5287 174.528 48.438 174.928 48.438ZM175.176 49.278C174.942 49.278 174.731 49.3367 174.544 49.454C174.363 49.5713 174.222 49.7313 174.12 49.934C174.019 50.1367 173.966 50.3687 173.96 50.63C173.966 50.8913 174.019 51.1233 174.12 51.326C174.222 51.5287 174.363 51.6887 174.544 51.806C174.731 51.918 174.942 51.974 175.176 51.974C175.416 51.974 175.627 51.918 175.808 51.806C175.995 51.6887 176.139 51.5287 176.24 51.326C176.342 51.1233 176.392 50.8913 176.392 50.63C176.392 50.3633 176.342 50.1313 176.24 49.934C176.139 49.7313 175.995 49.5713 175.808 49.454C175.627 49.3367 175.416 49.278 175.176 49.278ZM176.392 46.814H177.432V52.75H176.392V46.814ZM181.653 50.294C181.643 50.07 181.592 49.8807 181.501 49.726C181.411 49.566 181.283 49.4433 181.117 49.358C180.957 49.2673 180.773 49.222 180.565 49.222C180.325 49.222 180.117 49.278 179.941 49.39C179.765 49.502 179.627 49.6593 179.525 49.862C179.429 50.0647 179.381 50.2993 179.381 50.566C179.381 50.8593 179.435 51.1127 179.541 51.326C179.653 51.5393 179.805 51.7047 179.997 51.822C180.189 51.934 180.411 51.99 180.661 51.99C181.115 51.99 181.501 51.8273 181.821 51.502L182.373 52.054C182.16 52.2887 181.901 52.47 181.597 52.598C181.293 52.726 180.955 52.79 180.581 52.79C180.133 52.79 179.744 52.6993 179.413 52.518C179.088 52.3313 178.832 52.078 178.645 51.758C178.464 51.4327 178.373 51.054 178.373 50.622C178.373 50.19 178.464 49.8113 178.645 49.486C178.832 49.1607 179.088 48.9073 179.413 48.726C179.744 48.5447 180.123 48.4513 180.549 48.446C181.056 48.446 181.464 48.55 181.773 48.758C182.088 48.966 182.312 49.2593 182.445 49.638C182.579 50.0113 182.627 50.4567 182.589 50.974H179.229V50.294H181.653ZM185.996 49.39C185.697 49.3687 185.438 49.414 185.22 49.526C185.001 49.6327 184.833 49.7873 184.716 49.99C184.598 50.1927 184.54 50.4247 184.54 50.686L184.26 50.654C184.26 50.1793 184.329 49.7793 184.468 49.454C184.606 49.1233 184.806 48.8727 185.068 48.702C185.329 48.5313 185.638 48.446 185.996 48.446V49.39ZM183.5 48.486H184.54V52.75H183.5V48.486ZM189.262 49.598C189.054 49.4753 188.838 49.382 188.614 49.318C188.39 49.2487 188.187 49.214 188.006 49.214C187.835 49.214 187.697 49.246 187.59 49.31C187.483 49.3687 187.43 49.47 187.43 49.614C187.43 49.7367 187.483 49.8353 187.59 49.91C187.702 49.9847 187.843 50.0487 188.014 50.102C188.185 50.15 188.366 50.2033 188.558 50.262C188.75 50.3207 188.931 50.398 189.102 50.494C189.278 50.59 189.419 50.718 189.526 50.878C189.638 51.038 189.694 51.2487 189.694 51.51C189.694 51.798 189.617 52.038 189.462 52.23C189.307 52.4167 189.102 52.558 188.846 52.654C188.59 52.7447 188.31 52.79 188.006 52.79C187.686 52.79 187.366 52.7393 187.046 52.638C186.731 52.5367 186.462 52.3873 186.238 52.19L186.598 51.494C186.795 51.6647 187.027 51.798 187.294 51.894C187.566 51.9847 187.817 52.03 188.046 52.03C188.169 52.03 188.278 52.014 188.374 51.982C188.47 51.95 188.545 51.9047 188.598 51.846C188.651 51.782 188.678 51.6993 188.678 51.598C188.678 51.4593 188.625 51.3527 188.518 51.278C188.411 51.198 188.273 51.1313 188.102 51.078C187.937 51.0193 187.758 50.9633 187.566 50.91C187.374 50.8513 187.193 50.7767 187.022 50.686C186.857 50.59 186.721 50.4647 186.614 50.31C186.507 50.1553 186.454 49.95 186.454 49.694C186.454 49.406 186.529 49.1687 186.678 48.982C186.827 48.7953 187.025 48.6593 187.27 48.574C187.515 48.4833 187.782 48.438 188.07 48.438C188.347 48.438 188.625 48.478 188.902 48.558C189.179 48.6327 189.425 48.7393 189.638 48.878L189.262 49.598ZM190.834 51.718C190.994 51.718 191.124 51.7687 191.226 51.87C191.332 51.9713 191.386 52.102 191.386 52.262C191.386 52.4273 191.332 52.5633 191.226 52.67C191.124 52.7713 190.994 52.822 190.834 52.822C190.679 52.822 190.548 52.7713 190.442 52.67C190.34 52.5633 190.29 52.4273 190.29 52.262C190.29 52.102 190.34 51.9713 190.442 51.87C190.548 51.7687 190.679 51.718 190.834 51.718Z" fill="black"/>
</g>
<defs>
<filter id="filter0_d_1272_1020" x="0" y="0.25" width="216" height="74.5" filterUnits="userSpaceOnUse" color-interpolation-filters="sRGB">
<feFlood flood-opacity="0" result="BackgroundImageFix"/>
<feColorMatrix in="SourceAlpha" type="matrix" values="0 0 0 0 0 0 0 0 0 0 0 0 0 0 0 0 0 0 127 0" result="hardAlpha"/>
<feOffset dy="4"/>
<feGaussianBlur stdDeviation="2"/>
<feComposite in2="hardAlpha" operator="out"/>
<feColorMatrix type="matrix" values="0 0 0 0 0.698039 0 0 0 0 0.870588 0 0 0 0 0.972549 0 0 0 0.25 0"/>
<feBlend mode="normal" in2="BackgroundImageFix" result="effect1_dropShadow_1272_1020"/>
<feBlend mode="normal" in="SourceGraphic" in2="effect1_dropShadow_1272_1020" result="shape"/>
</filter>
</defs>
</svg>
