<svg width="146" height="36" viewBox="0 0 146 36" fill="none" xmlns="http://www.w3.org/2000/svg">
<g filter="url(#filter0_d_1272_925)">
<path d="M4 25C4 11.1929 15.1929 0 29 0H128C135.732 0 142 6.26801 142 14V14C142 21.732 135.732 28 128 28H4V25Z" fill="#9ACEFF"/>
<path d="M36.842 12.3H37.664L39.482 16.5H38.624L37.226 13.11L35.834 16.5H34.994L36.842 12.3ZM35.96 14.928H38.462V15.582H35.96V14.928ZM41.8584 13.272C42.1624 13.272 42.4284 13.34 42.6564 13.476C42.8844 13.612 43.0604 13.804 43.1844 14.052C43.3124 14.296 43.3764 14.582 43.3764 14.91C43.3764 15.23 43.3144 15.512 43.1904 15.756C43.0664 15.996 42.8904 16.186 42.6624 16.326C42.4384 16.462 42.1744 16.53 41.8704 16.53C41.5864 16.53 41.3424 16.466 41.1384 16.338C40.9344 16.206 40.7784 16.018 40.6704 15.774C40.5624 15.53 40.5084 15.242 40.5084 14.91C40.5084 14.566 40.5604 14.272 40.6644 14.028C40.7724 13.784 40.9284 13.598 41.1324 13.47C41.3364 13.338 41.5784 13.272 41.8584 13.272ZM41.6844 13.89C41.5084 13.89 41.3504 13.934 41.2104 14.022C41.0744 14.106 40.9684 14.224 40.8924 14.376C40.8164 14.524 40.7784 14.696 40.7784 14.892C40.7784 15.088 40.8164 15.262 40.8924 15.414C40.9684 15.566 41.0744 15.684 41.2104 15.768C41.3504 15.852 41.5084 15.894 41.6844 15.894C41.8644 15.894 42.0204 15.852 42.1524 15.768C42.2884 15.68 42.3944 15.562 42.4704 15.414C42.5464 15.262 42.5844 15.088 42.5844 14.892C42.5844 14.696 42.5464 14.524 42.4704 14.376C42.3944 14.224 42.2884 14.106 42.1524 14.022C42.0204 13.934 41.8644 13.89 41.6844 13.89ZM39.9984 12.048H40.7784V16.5H39.9984V12.048ZM45.1324 15.09C44.9284 15.09 44.7764 15.122 44.6764 15.186C44.5764 15.25 44.5264 15.356 44.5264 15.504C44.5264 15.64 44.5764 15.75 44.6764 15.834C44.7804 15.918 44.9204 15.96 45.0964 15.96C45.2524 15.96 45.3924 15.934 45.5164 15.882C45.6444 15.826 45.7444 15.752 45.8164 15.66C45.8924 15.564 45.9364 15.458 45.9484 15.342L46.0804 15.9C45.9844 16.108 45.8364 16.266 45.6364 16.374C45.4364 16.482 45.1944 16.536 44.9104 16.536C44.6824 16.536 44.4844 16.492 44.3164 16.404C44.1484 16.316 44.0184 16.198 43.9264 16.05C43.8344 15.898 43.7884 15.728 43.7884 15.54C43.7884 15.244 43.8944 15.012 44.1064 14.844C44.3184 14.672 44.6184 14.584 45.0064 14.58H46.0324V15.09H45.1324ZM45.9424 14.484C45.9424 14.292 45.8804 14.142 45.7564 14.034C45.6364 13.922 45.4564 13.866 45.2164 13.866C45.0684 13.866 44.9124 13.894 44.7484 13.95C44.5884 14.002 44.4264 14.078 44.2624 14.178L43.9804 13.674C44.1324 13.582 44.2784 13.508 44.4184 13.452C44.5584 13.392 44.7044 13.348 44.8564 13.32C45.0124 13.288 45.1904 13.272 45.3904 13.272C45.8104 13.272 46.1344 13.372 46.3624 13.572C46.5904 13.772 46.7064 14.048 46.7104 14.4L46.7164 16.5H45.9484L45.9424 14.484ZM49.9255 14.712C49.9255 14.48 49.8615 14.298 49.7335 14.166C49.6095 14.034 49.4355 13.968 49.2115 13.968C48.9515 13.968 48.7455 14.06 48.5935 14.244C48.4455 14.424 48.3715 14.652 48.3715 14.928H48.1615C48.1615 14.536 48.2155 14.22 48.3235 13.98C48.4355 13.736 48.5935 13.558 48.7975 13.446C49.0055 13.33 49.2475 13.272 49.5235 13.272C49.7715 13.272 49.9835 13.322 50.1595 13.422C50.3355 13.522 50.4715 13.664 50.5675 13.848C50.6635 14.028 50.7115 14.246 50.7115 14.502V16.5H49.9255V14.712ZM47.5915 13.302H48.3715V16.5H47.5915V13.302ZM52.8056 13.266C53.0976 13.266 53.3456 13.332 53.5496 13.464C53.7536 13.596 53.9096 13.784 54.0176 14.028C54.1256 14.268 54.1776 14.558 54.1736 14.898C54.1776 15.234 54.1256 15.526 54.0176 15.774C53.9136 16.018 53.7596 16.206 53.5556 16.338C53.3516 16.466 53.1076 16.53 52.8236 16.53C52.5196 16.53 52.2516 16.462 52.0196 16.326C51.7916 16.186 51.6136 15.992 51.4856 15.744C51.3576 15.496 51.2936 15.212 51.2936 14.892C51.2936 14.568 51.3576 14.284 51.4856 14.04C51.6136 13.796 51.7896 13.606 52.0136 13.47C52.2416 13.334 52.5056 13.266 52.8056 13.266ZM52.9916 13.896C52.8156 13.896 52.6576 13.94 52.5176 14.028C52.3816 14.116 52.2756 14.236 52.1996 14.388C52.1236 14.54 52.0836 14.714 52.0796 14.91C52.0836 15.106 52.1236 15.28 52.1996 15.432C52.2756 15.584 52.3816 15.704 52.5176 15.792C52.6576 15.876 52.8156 15.918 52.9916 15.918C53.1716 15.918 53.3296 15.876 53.4656 15.792C53.6056 15.704 53.7136 15.584 53.7896 15.432C53.8656 15.28 53.9036 15.106 53.9036 14.91C53.9036 14.71 53.8656 14.536 53.7896 14.388C53.7136 14.236 53.6056 14.116 53.4656 14.028C53.3296 13.94 53.1716 13.896 52.9916 13.896ZM53.9036 12.048H54.6836V16.5H53.9036V12.048ZM57.0873 13.272C57.4193 13.272 57.7113 13.34 57.9633 13.476C58.2193 13.612 58.4173 13.802 58.5573 14.046C58.7013 14.29 58.7733 14.574 58.7733 14.898C58.7733 15.222 58.7013 15.506 58.5573 15.75C58.4173 15.994 58.2193 16.186 57.9633 16.326C57.7113 16.462 57.4193 16.53 57.0873 16.53C56.7513 16.53 56.4553 16.462 56.1993 16.326C55.9433 16.186 55.7433 15.994 55.5993 15.75C55.4593 15.506 55.3893 15.222 55.3893 14.898C55.3893 14.574 55.4593 14.29 55.5993 14.046C55.7433 13.802 55.9433 13.612 56.1993 13.476C56.4553 13.34 56.7513 13.272 57.0873 13.272ZM57.0873 13.902C56.9073 13.902 56.7473 13.946 56.6073 14.034C56.4713 14.118 56.3653 14.236 56.2893 14.388C56.2133 14.536 56.1753 14.708 56.1753 14.904C56.1753 15.104 56.2133 15.28 56.2893 15.432C56.3653 15.584 56.4713 15.702 56.6073 15.786C56.7473 15.87 56.9073 15.912 57.0873 15.912C57.2633 15.912 57.4193 15.87 57.5553 15.786C57.6913 15.702 57.7973 15.584 57.8733 15.432C57.9493 15.28 57.9873 15.104 57.9873 14.904C57.9873 14.708 57.9493 14.536 57.8733 14.388C57.7973 14.236 57.6913 14.118 57.5553 14.034C57.4193 13.946 57.2633 13.902 57.0873 13.902ZM61.7848 14.712C61.7848 14.48 61.7208 14.298 61.5928 14.166C61.4688 14.034 61.2948 13.968 61.0708 13.968C60.8108 13.968 60.6048 14.06 60.4528 14.244C60.3048 14.424 60.2308 14.652 60.2308 14.928H60.0208C60.0208 14.536 60.0748 14.22 60.1828 13.98C60.2948 13.736 60.4528 13.558 60.6568 13.446C60.8648 13.33 61.1068 13.272 61.3828 13.272C61.6308 13.272 61.8428 13.322 62.0188 13.422C62.1948 13.522 62.3308 13.664 62.4268 13.848C62.5228 14.028 62.5708 14.246 62.5708 14.502V16.5H61.7848V14.712ZM59.4508 13.302H60.2308V16.5H59.4508V13.302ZM65.6129 14.658C65.6049 14.49 65.5669 14.348 65.4989 14.232C65.4309 14.112 65.3349 14.02 65.2109 13.956C65.0909 13.888 64.9529 13.854 64.7969 13.854C64.6169 13.854 64.4609 13.896 64.3289 13.98C64.1969 14.064 64.0929 14.182 64.0169 14.334C63.9449 14.486 63.9089 14.662 63.9089 14.862C63.9089 15.082 63.9489 15.272 64.0289 15.432C64.1129 15.592 64.2269 15.716 64.3709 15.804C64.5149 15.888 64.6809 15.93 64.8689 15.93C65.2089 15.93 65.4989 15.808 65.7389 15.564L66.1529 15.978C65.9929 16.154 65.7989 16.29 65.5709 16.386C65.3429 16.482 65.0889 16.53 64.8089 16.53C64.4729 16.53 64.1809 16.462 63.9329 16.326C63.6889 16.186 63.4969 15.996 63.3569 15.756C63.2209 15.512 63.1529 15.228 63.1529 14.904C63.1529 14.58 63.2209 14.296 63.3569 14.052C63.4969 13.808 63.6889 13.618 63.9329 13.482C64.1809 13.346 64.4649 13.276 64.7849 13.272C65.1649 13.272 65.4709 13.35 65.7029 13.506C65.9389 13.662 66.1069 13.882 66.2069 14.166C66.3069 14.446 66.3429 14.78 66.3149 15.168H63.7949V14.658H65.6129ZM68.2157 13.266C68.5077 13.266 68.7557 13.332 68.9597 13.464C69.1637 13.596 69.3197 13.784 69.4277 14.028C69.5357 14.268 69.5877 14.558 69.5837 14.898C69.5877 15.234 69.5357 15.526 69.4277 15.774C69.3237 16.018 69.1697 16.206 68.9657 16.338C68.7617 16.466 68.5177 16.53 68.2337 16.53C67.9297 16.53 67.6617 16.462 67.4297 16.326C67.2017 16.186 67.0237 15.992 66.8957 15.744C66.7677 15.496 66.7037 15.212 66.7037 14.892C66.7037 14.568 66.7677 14.284 66.8957 14.04C67.0237 13.796 67.1997 13.606 67.4237 13.47C67.6517 13.334 67.9157 13.266 68.2157 13.266ZM68.4017 13.896C68.2257 13.896 68.0677 13.94 67.9277 14.028C67.7917 14.116 67.6857 14.236 67.6097 14.388C67.5337 14.54 67.4937 14.714 67.4897 14.91C67.4937 15.106 67.5337 15.28 67.6097 15.432C67.6857 15.584 67.7917 15.704 67.9277 15.792C68.0677 15.876 68.2257 15.918 68.4017 15.918C68.5817 15.918 68.7397 15.876 68.8757 15.792C69.0157 15.704 69.1237 15.584 69.1997 15.432C69.2757 15.28 69.3137 15.106 69.3137 14.91C69.3137 14.71 69.2757 14.536 69.1997 14.388C69.1237 14.236 69.0157 14.116 68.8757 14.028C68.7397 13.94 68.5817 13.896 68.4017 13.896ZM69.3137 12.048H70.0937V16.5H69.3137V12.048ZM74.9186 14.274C74.8186 14.162 74.6966 14.076 74.5526 14.016C74.4126 13.952 74.2546 13.92 74.0786 13.92C73.9066 13.92 73.7546 13.962 73.6226 14.046C73.4906 14.126 73.3866 14.24 73.3106 14.388C73.2386 14.536 73.2026 14.708 73.2026 14.904C73.2026 15.1 73.2386 15.272 73.3106 15.42C73.3866 15.568 73.4906 15.684 73.6226 15.768C73.7546 15.852 73.9066 15.894 74.0786 15.894C74.2626 15.894 74.4286 15.862 74.5766 15.798C74.7246 15.734 74.8466 15.638 74.9426 15.51L75.4286 15.906C75.2886 16.102 75.1006 16.256 74.8646 16.368C74.6286 16.476 74.3546 16.53 74.0426 16.53C73.7226 16.53 73.4406 16.462 73.1966 16.326C72.9526 16.186 72.7606 15.996 72.6206 15.756C72.4846 15.512 72.4166 15.228 72.4166 14.904C72.4166 14.58 72.4846 14.296 72.6206 14.052C72.7606 13.808 72.9526 13.618 73.1966 13.482C73.4406 13.342 73.7226 13.272 74.0426 13.272C74.3426 13.272 74.6066 13.322 74.8346 13.422C75.0626 13.518 75.2506 13.654 75.3986 13.83L74.9186 14.274ZM77.0601 15.09C76.8561 15.09 76.7041 15.122 76.6041 15.186C76.5041 15.25 76.4541 15.356 76.4541 15.504C76.4541 15.64 76.5041 15.75 76.6041 15.834C76.7081 15.918 76.8481 15.96 77.0241 15.96C77.1801 15.96 77.3201 15.934 77.4441 15.882C77.5721 15.826 77.6721 15.752 77.7441 15.66C77.8201 15.564 77.8641 15.458 77.8761 15.342L78.0081 15.9C77.9121 16.108 77.7641 16.266 77.5641 16.374C77.3641 16.482 77.1221 16.536 76.8381 16.536C76.6101 16.536 76.4121 16.492 76.2441 16.404C76.0761 16.316 75.9461 16.198 75.8541 16.05C75.7621 15.898 75.7161 15.728 75.7161 15.54C75.7161 15.244 75.8221 15.012 76.0341 14.844C76.2461 14.672 76.5461 14.584 76.9341 14.58H77.9601V15.09H77.0601ZM77.8701 14.484C77.8701 14.292 77.8081 14.142 77.6841 14.034C77.5641 13.922 77.3841 13.866 77.1441 13.866C76.9961 13.866 76.8401 13.894 76.6761 13.95C76.5161 14.002 76.3541 14.078 76.1901 14.178L75.9081 13.674C76.0601 13.582 76.2061 13.508 76.3461 13.452C76.4861 13.392 76.6321 13.348 76.7841 13.32C76.9401 13.288 77.1181 13.272 77.3181 13.272C77.7381 13.272 78.0621 13.372 78.2901 13.572C78.5181 13.772 78.6341 14.048 78.6381 14.4L78.6441 16.5H77.8761L77.8701 14.484ZM81.3912 13.98C81.1672 13.964 80.9732 13.998 80.8092 14.082C80.6452 14.162 80.5192 14.278 80.4312 14.43C80.3432 14.582 80.2992 14.756 80.2992 14.952L80.0892 14.928C80.0892 14.572 80.1412 14.272 80.2452 14.028C80.3492 13.78 80.4992 13.592 80.6952 13.464C80.8912 13.336 81.1232 13.272 81.3912 13.272V13.98ZM79.5192 13.302H80.2992V16.5H79.5192V13.302ZM82.8451 15.456C82.8451 15.616 82.8751 15.726 82.9351 15.786C82.9951 15.846 83.0771 15.876 83.1811 15.876C83.2451 15.876 83.3151 15.866 83.3911 15.846C83.4671 15.822 83.5491 15.786 83.6371 15.738L83.8171 16.302C83.6971 16.374 83.5671 16.432 83.4271 16.476C83.2911 16.516 83.1531 16.536 83.0131 16.536C82.8411 16.536 82.6831 16.504 82.5391 16.44C82.3951 16.372 82.2811 16.268 82.1971 16.128C82.1131 15.984 82.0711 15.804 82.0711 15.588V12.546H82.8451V15.456ZM81.6211 13.422H83.7631V13.968H81.6211V13.422ZM87.9185 13.98C87.6945 13.964 87.5005 13.998 87.3365 14.082C87.1725 14.162 87.0465 14.278 86.9585 14.43C86.8705 14.582 86.8265 14.756 86.8265 14.952L86.6165 14.928C86.6165 14.572 86.6685 14.272 86.7725 14.028C86.8765 13.78 87.0265 13.592 87.2225 13.464C87.4185 13.336 87.6505 13.272 87.9185 13.272V13.98ZM86.0465 13.302H86.8265V16.5H86.0465V13.302ZM90.6325 14.658C90.6245 14.49 90.5865 14.348 90.5185 14.232C90.4505 14.112 90.3545 14.02 90.2305 13.956C90.1105 13.888 89.9725 13.854 89.8165 13.854C89.6365 13.854 89.4805 13.896 89.3485 13.98C89.2165 14.064 89.1125 14.182 89.0365 14.334C88.9645 14.486 88.9285 14.662 88.9285 14.862C88.9285 15.082 88.9685 15.272 89.0485 15.432C89.1325 15.592 89.2465 15.716 89.3905 15.804C89.5345 15.888 89.7005 15.93 89.8885 15.93C90.2285 15.93 90.5185 15.808 90.7585 15.564L91.1725 15.978C91.0125 16.154 90.8185 16.29 90.5905 16.386C90.3625 16.482 90.1085 16.53 89.8285 16.53C89.4925 16.53 89.2005 16.462 88.9525 16.326C88.7085 16.186 88.5165 15.996 88.3765 15.756C88.2405 15.512 88.1725 15.228 88.1725 14.904C88.1725 14.58 88.2405 14.296 88.3765 14.052C88.5165 13.808 88.7085 13.618 88.9525 13.482C89.2005 13.346 89.4845 13.276 89.8045 13.272C90.1845 13.272 90.4905 13.35 90.7225 13.506C90.9585 13.662 91.1265 13.882 91.2265 14.166C91.3265 14.446 91.3625 14.78 91.3345 15.168H88.8145V14.658H90.6325ZM94.2253 14.274C94.1253 14.162 94.0033 14.076 93.8593 14.016C93.7193 13.952 93.5613 13.92 93.3853 13.92C93.2133 13.92 93.0613 13.962 92.9293 14.046C92.7973 14.126 92.6933 14.24 92.6173 14.388C92.5453 14.536 92.5093 14.708 92.5093 14.904C92.5093 15.1 92.5453 15.272 92.6173 15.42C92.6933 15.568 92.7973 15.684 92.9293 15.768C93.0613 15.852 93.2133 15.894 93.3853 15.894C93.5693 15.894 93.7353 15.862 93.8833 15.798C94.0313 15.734 94.1533 15.638 94.2493 15.51L94.7353 15.906C94.5953 16.102 94.4073 16.256 94.1713 16.368C93.9353 16.476 93.6613 16.53 93.3493 16.53C93.0293 16.53 92.7473 16.462 92.5033 16.326C92.2593 16.186 92.0673 15.996 91.9272 15.756C91.7913 15.512 91.7233 15.228 91.7233 14.904C91.7233 14.58 91.7913 14.296 91.9272 14.052C92.0673 13.808 92.2593 13.618 92.5033 13.482C92.7473 13.342 93.0293 13.272 93.3493 13.272C93.6493 13.272 93.9133 13.322 94.1413 13.422C94.3693 13.518 94.5573 13.654 94.7053 13.83L94.2253 14.274ZM96.6908 13.272C97.0228 13.272 97.3148 13.34 97.5668 13.476C97.8228 13.612 98.0208 13.802 98.1608 14.046C98.3048 14.29 98.3768 14.574 98.3768 14.898C98.3768 15.222 98.3048 15.506 98.1608 15.75C98.0208 15.994 97.8228 16.186 97.5668 16.326C97.3148 16.462 97.0228 16.53 96.6908 16.53C96.3548 16.53 96.0588 16.462 95.8028 16.326C95.5468 16.186 95.3468 15.994 95.2028 15.75C95.0628 15.506 94.9928 15.222 94.9928 14.898C94.9928 14.574 95.0628 14.29 95.2028 14.046C95.3468 13.802 95.5468 13.612 95.8028 13.476C96.0588 13.34 96.3548 13.272 96.6908 13.272ZM96.6908 13.902C96.5108 13.902 96.3508 13.946 96.2108 14.034C96.0748 14.118 95.9688 14.236 95.8928 14.388C95.8168 14.536 95.7788 14.708 95.7788 14.904C95.7788 15.104 95.8168 15.28 95.8928 15.432C95.9688 15.584 96.0748 15.702 96.2108 15.786C96.3508 15.87 96.5108 15.912 96.6908 15.912C96.8668 15.912 97.0228 15.87 97.1588 15.786C97.2948 15.702 97.4008 15.584 97.4768 15.432C97.5528 15.28 97.5908 15.104 97.5908 14.904C97.5908 14.708 97.5528 14.536 97.4768 14.388C97.4008 14.236 97.2948 14.118 97.1588 14.034C97.0228 13.946 96.8668 13.902 96.6908 13.902ZM98.451 13.302H99.267L100.107 15.78L100.929 13.302H101.715L100.491 16.5H99.687L98.451 13.302ZM104.22 14.658C104.212 14.49 104.174 14.348 104.106 14.232C104.038 14.112 103.942 14.02 103.818 13.956C103.698 13.888 103.56 13.854 103.404 13.854C103.224 13.854 103.068 13.896 102.936 13.98C102.804 14.064 102.7 14.182 102.624 14.334C102.552 14.486 102.516 14.662 102.516 14.862C102.516 15.082 102.556 15.272 102.636 15.432C102.72 15.592 102.834 15.716 102.978 15.804C103.122 15.888 103.288 15.93 103.476 15.93C103.816 15.93 104.106 15.808 104.346 15.564L104.76 15.978C104.6 16.154 104.406 16.29 104.178 16.386C103.95 16.482 103.696 16.53 103.416 16.53C103.08 16.53 102.788 16.462 102.54 16.326C102.296 16.186 102.104 15.996 101.964 15.756C101.828 15.512 101.76 15.228 101.76 14.904C101.76 14.58 101.828 14.296 101.964 14.052C102.104 13.808 102.296 13.618 102.54 13.482C102.788 13.346 103.072 13.276 103.392 13.272C103.772 13.272 104.078 13.35 104.31 13.506C104.546 13.662 104.714 13.882 104.814 14.166C104.914 14.446 104.95 14.78 104.922 15.168H102.402V14.658H104.22ZM107.477 13.98C107.253 13.964 107.059 13.998 106.895 14.082C106.731 14.162 106.605 14.278 106.517 14.43C106.429 14.582 106.385 14.756 106.385 14.952L106.175 14.928C106.175 14.572 106.227 14.272 106.331 14.028C106.435 13.78 106.585 13.592 106.781 13.464C106.977 13.336 107.209 13.272 107.477 13.272V13.98ZM105.605 13.302H106.385V16.5H105.605V13.302ZM109.551 16.92C109.447 17.176 109.303 17.37 109.119 17.502C108.935 17.634 108.715 17.7 108.459 17.7C108.303 17.7 108.161 17.676 108.033 17.628C107.909 17.58 107.785 17.51 107.661 17.418L107.997 16.854C108.141 16.962 108.279 17.016 108.411 17.016C108.515 17.016 108.605 16.988 108.681 16.932C108.761 16.876 108.827 16.79 108.879 16.674L108.975 16.452L107.649 13.302H108.459L109.371 15.678L110.205 13.302H110.991L109.551 16.92Z" fill="black"/>
</g>
<defs>
<filter id="filter0_d_1272_925" x="0" y="0" width="146" height="36" filterUnits="userSpaceOnUse" color-interpolation-filters="sRGB">
<feFlood flood-opacity="0" result="BackgroundImageFix"/>
<feColorMatrix in="SourceAlpha" type="matrix" values="0 0 0 0 0 0 0 0 0 0 0 0 0 0 0 0 0 0 127 0" result="hardAlpha"/>
<feOffset dy="4"/>
<feGaussianBlur stdDeviation="2"/>
<feComposite in2="hardAlpha" operator="out"/>
<feColorMatrix type="matrix" values="0 0 0 0 0.698039 0 0 0 0 0.870588 0 0 0 0 0.972549 0 0 0 0.25 0"/>
<feBlend mode="normal" in2="BackgroundImageFix" result="effect1_dropShadow_1272_925"/>
<feBlend mode="normal" in="SourceGraphic" in2="effect1_dropShadow_1272_925" result="shape"/>
</filter>
</defs>
</svg>
