<svg width="50" height="50" viewBox="0 0 50 50" fill="none" xmlns="http://www.w3.org/2000/svg">
<rect width="50" height="50" rx="25" fill="#FFBC33"/>
<path d="M28.0928 31.2597C26.136 31.2597 24.1791 31.2597 22.2223 31.2597C20.7654 31.2597 19.6777 30.2673 19.5386 28.8187C19.4903 28.3174 19.6358 27.8422 19.7788 27.3765C20.0119 26.6185 19.9611 25.8974 19.7063 25.1483C18.6307 21.9869 17.5843 18.8152 16.5296 15.6474C16.374 15.1824 16.1757 15.0375 15.6954 15.0369C15.1484 15.0369 14.602 15.0369 14.055 15.0369C13.459 15.0324 13.0086 14.6029 13.0003 14.0387C12.997 13.9037 13.021 13.7694 13.0708 13.6438C13.1205 13.5182 13.1951 13.404 13.2899 13.3078C13.3848 13.2116 13.498 13.1356 13.6229 13.0841C13.7478 13.0326 13.8818 13.0068 14.0168 13.0082C15.0245 12.9955 16.0309 12.9993 17.0366 13.0076C17.5398 13.0127 17.874 13.277 18.0392 13.7656C18.3403 14.655 18.6364 15.5477 18.9344 16.4384C19.097 16.9257 19.2934 17.0687 19.8054 17.0687H35.8485C36.4781 17.0687 36.865 17.3533 36.9832 17.8946C37.0175 18.0824 36.999 18.2759 36.9298 18.4537C36.0441 21.112 35.1587 23.7703 34.2734 26.4285C34.0905 26.9762 33.7537 27.2087 33.1686 27.2087H22.594C22.0501 27.2087 21.8741 27.346 21.7445 27.8676C21.6911 28.0823 21.6327 28.2958 21.5825 28.5112C21.4885 28.9096 21.7019 29.205 22.1073 29.2387C22.1943 29.2457 22.282 29.2387 22.369 29.2387C26.3082 29.2387 30.2456 29.2387 34.1813 29.2387C34.5333 29.2387 34.8414 29.3194 35.0708 29.5983C35.3364 29.921 35.3885 30.2876 35.2188 30.665C35.0397 31.0634 34.7144 31.261 34.2753 31.261H28.0928V31.2597Z" fill="#FFF5DE"/>
<path d="M21.1233 32.2839C21.6605 32.2853 22.1752 32.5 22.5541 32.8808C22.933 33.2616 23.1451 33.7773 23.1437 34.3145C23.1424 34.8517 22.9277 35.3663 22.5469 35.7452C22.1661 36.1241 21.6504 36.3362 21.1132 36.3349C20.8472 36.3342 20.5839 36.2812 20.3384 36.1788C20.093 36.0764 19.87 35.9266 19.6824 35.738C19.4948 35.5495 19.3462 35.3258 19.245 35.0798C19.1438 34.8338 19.0921 34.5703 19.0928 34.3043C19.0934 34.0383 19.1465 33.7751 19.2489 33.5296C19.3513 33.2841 19.5011 33.0612 19.6896 32.8736C19.8782 32.686 20.1018 32.5374 20.3478 32.4362C20.5938 32.335 20.8573 32.2833 21.1233 32.2839Z" fill="#FFF5DE"/>
<path d="M33.2876 32.2833C33.8186 32.2927 34.3248 32.5102 34.697 32.8891C35.0692 33.268 35.2778 33.7779 35.2778 34.3091C35.2778 34.8402 35.0692 35.3501 34.697 35.729C34.3248 36.1079 33.8186 36.3254 33.2876 36.3349C33.0185 36.3396 32.7512 36.2907 32.5013 36.1911C32.2513 36.0914 32.0237 35.943 31.8318 35.7544C31.6398 35.5658 31.4873 35.3408 31.3833 35.0927C31.2792 34.8446 31.2256 34.5782 31.2256 34.3091C31.2256 34.04 31.2792 33.7736 31.3833 33.5254C31.4873 33.2773 31.6398 33.0523 31.8318 32.8638C32.0237 32.6752 32.2513 32.5267 32.5013 32.4271C32.7512 32.3274 33.0185 32.2785 33.2876 32.2833Z" fill="#FFF5DE"/>
</svg>
