<svg width="50" height="51" viewBox="0 0 50 51" fill="none" xmlns="http://www.w3.org/2000/svg">
<rect y="0.436035" width="50" height="50" rx="25" fill="#FFBC33"/>
<path d="M14.4381 25.4174C14.4389 23.9961 14.7348 22.5905 15.3071 21.2895C15.3796 21.1157 15.3796 21.0064 15.2521 20.855C14.063 19.4066 14.1854 17.2898 15.5258 15.9494C16.1668 15.306 17.024 14.9238 17.9309 14.8769C18.8379 14.8301 19.7298 15.122 20.4337 15.6959C20.5785 15.8139 20.6813 15.8176 20.8472 15.7466C22.2444 15.1429 23.756 14.8494 25.2776 14.8862C26.7993 14.923 28.2948 15.2893 29.6613 15.9598C31.0277 16.6303 32.2325 17.5891 33.1927 18.7702C34.1529 19.9512 34.8455 21.3264 35.223 22.8009C35.8226 25.1132 35.6271 27.3785 34.6864 29.5749C34.614 29.748 34.614 29.8574 34.7407 30.0095C35.309 30.7185 35.5946 31.613 35.5422 32.5202C35.4899 33.4274 35.1034 34.2831 34.4573 34.9221C33.8111 35.5611 32.9512 35.9382 32.0435 35.9805C31.1358 36.0228 30.2445 35.7273 29.5418 35.1512C29.4085 35.0404 29.3122 35.0498 29.1695 35.1114C27.3149 35.908 25.3828 36.194 23.3891 35.8674C20.3243 35.3619 17.9106 33.8035 16.182 31.2261C15.0059 29.4757 14.4425 27.5269 14.4381 25.4174ZM24.5731 22.5568C23.4463 22.5568 22.5751 22.9045 21.9059 23.5606C21.2998 24.1559 20.6922 24.7504 20.1056 25.3652C19.309 26.1966 18.9853 27.1916 19.1511 28.3344C19.5277 30.9415 22.6757 32.2204 24.7534 30.6149C24.973 30.4474 25.1179 30.2003 25.1568 29.9269C25.1957 29.6535 25.1255 29.3758 24.9613 29.1538C24.7972 28.9317 24.5523 28.7831 24.2795 28.7401C24.0067 28.6971 23.728 28.7631 23.5035 28.9239C23.2066 29.1274 22.893 29.2563 22.5324 29.2136C21.9385 29.1484 21.5127 28.8384 21.3143 28.2721C21.1158 27.7058 21.252 27.2148 21.667 26.7962C22.2125 26.2449 22.7605 25.6964 23.3109 25.1509C23.8902 24.5715 24.542 24.5078 25.2336 24.9532C25.747 25.2841 26.3749 25.1813 26.7066 24.712C27.0477 24.2283 26.939 23.5953 26.4401 23.2253C25.8274 22.7777 25.1365 22.567 24.5731 22.5568ZM25.7108 28.3098C26.5827 28.2995 27.4166 27.9514 28.0369 27.3387C28.6481 26.7492 29.242 26.1416 29.8351 25.5333C30.6042 24.7453 30.9684 23.7996 30.8489 22.6988C30.6997 21.3598 29.9908 20.3865 28.7691 19.844C27.5474 19.3016 26.3698 19.4428 25.2792 20.2148C24.7766 20.5711 24.6709 21.1918 25.0033 21.6762C25.3357 22.1607 25.9751 22.2817 26.4871 21.9384C26.6114 21.847 26.747 21.772 26.8905 21.7153C27.1868 21.6179 27.507 21.6213 27.8012 21.7251C28.0953 21.8288 28.3468 22.0271 28.5163 22.2889C28.6948 22.5557 28.7747 22.8763 28.7423 23.1956C28.7099 23.515 28.5673 23.813 28.3389 24.0385C27.782 24.6121 27.2121 25.1741 26.6436 25.7368C26.0751 26.2994 25.4197 26.3559 24.7607 25.9221C24.2299 25.5716 23.5875 25.6788 23.2551 26.1734C22.9227 26.6681 23.0523 27.293 23.5774 27.666C24.1799 28.094 24.8527 28.304 25.7072 28.3098H25.7108ZM19.7088 18.5528C19.7075 18.2398 19.6134 17.9342 19.4384 17.6747C19.2633 17.4151 19.0153 17.2134 18.7256 17.0948C18.4359 16.9763 18.1175 16.9464 17.8108 17.0088C17.5041 17.0712 17.2227 17.2232 17.0024 17.4456C16.7821 17.6679 16.6327 17.9506 16.573 18.2579C16.5134 18.5652 16.5463 18.8833 16.6674 19.1719C16.7886 19.4605 16.9927 19.7067 17.2538 19.8793C17.5149 20.052 17.8214 20.1433 18.1344 20.1417C18.3422 20.1412 18.5479 20.0997 18.7397 20.0195C18.9314 19.9393 19.1054 19.822 19.2517 19.6744C19.398 19.5267 19.5137 19.3517 19.5921 19.1592C19.6705 18.9667 19.7102 18.7606 19.7088 18.5528ZM31.8548 30.7192C31.6464 30.7183 31.4399 30.759 31.2474 30.839C31.055 30.9191 30.8805 31.0368 30.7341 31.1852C30.5878 31.3336 30.4726 31.5098 30.3953 31.7033C30.318 31.8969 30.2802 32.104 30.2841 32.3124C30.286 32.729 30.4523 33.1281 30.7468 33.4228C31.0414 33.7174 31.4403 33.8839 31.857 33.886C32.2782 33.8845 32.6818 33.7169 32.9801 33.4195C33.2784 33.1221 33.4474 32.7191 33.4502 32.2979C33.4505 32.0889 33.4093 31.8819 33.3291 31.689C33.2489 31.496 33.1312 31.3209 32.9828 31.1737C32.8344 31.0266 32.6583 30.9103 32.4647 30.8316C32.2711 30.753 32.0638 30.7135 31.8548 30.7155V30.7192Z" fill="#FFF5DE"/>
</svg>
