<svg width="62" height="62" viewBox="0 0 62 62" fill="none" xmlns="http://www.w3.org/2000/svg">
<path d="M30.93 0C13.85 0 0 13.85 0 30.93C0 48.01 13.85 61.85 30.93 61.85C48.01 61.85 61.85 48.01 61.85 30.93C61.85 13.85 48.01 0 30.93 0ZM49.48 25.52C48.41 26.59 46.99 27.18 45.47 27.18H45.44L42 33.1C42.5 33.96 42.77 34.96 42.77 35.98C42.75 39.11 40.18 41.61 37.06 41.62C33.93 41.6 31.4 39.04 31.42 35.91C31.42 35.6 31.45 35.29 31.51 34.98L29.29 33.16C28.45 33.48 27.56 33.59 26.67 33.49L23.56 37.77C24.27 39.24 24.34 40.98 23.68 42.53C23.09 43.93 21.98 45.02 20.56 45.59C19.87 45.86 19.15 46 18.43 46C17.67 46 16.91 45.85 16.19 45.54C14.78 44.94 13.69 43.83 13.13 42.41C12.56 41 12.57 39.44 13.17 38.04C14.16 35.72 16.51 34.39 18.89 34.59L22.11 30.17C21.78 29.44 21.61 28.64 21.61 27.82C21.61 26.3 22.21 24.88 23.29 23.82C24.36 22.75 25.78 22.2 27.3 22.17C30.43 22.17 32.96 24.74 32.95 27.86C32.95 28.18 32.92 28.49 32.87 28.79L35.09 30.62C35.74 30.37 36.43 30.25 37.13 30.25L40.57 24.34C40.07 23.48 39.8 22.49 39.8 21.47C39.82 18.36 42.38 15.85 45.48 15.84C46.99 15.84 48.42 16.43 49.49 17.5C50.56 18.57 51.15 20 51.15 21.51C51.15 23.02 50.56 24.45 49.48 25.52Z" fill="#0000FF"/>
</svg>
