<svg width="502" height="347" viewBox="0 0 502 347" fill="none" xmlns="http://www.w3.org/2000/svg">
<g clip-path="url(#clip0_855_1744)">
<path d="M326.385 248.815C389.508 248.815 440.679 197.764 440.679 134.789C440.679 71.8144 389.508 20.7634 326.385 20.7634C263.263 20.7634 212.092 71.8144 212.092 134.789C212.092 197.764 263.263 248.815 326.385 248.815Z" stroke="#0000FF" stroke-width="3" stroke-linecap="round" stroke-linejoin="round"/>
<g filter="url(#filter0_d_855_1744)">
<path d="M344.915 88.2114H17.8544C14.6539 88.2114 12.0593 90.7999 12.0593 93.9929V322.569C12.0593 325.762 14.6539 328.351 17.8544 328.351H344.915C348.116 328.351 350.71 325.762 350.71 322.569V93.9929C350.71 90.7999 348.116 88.2114 344.915 88.2114Z" fill="white"/>
</g>
<path d="M17.8473 88.2114H205.059V328.351H17.8473C14.6476 328.351 12.0522 325.761 12.0522 322.569V93.9929C12.0522 90.8007 14.6476 88.2114 17.8473 88.2114Z" fill="#0000FF"/>
<path d="M27.6881 96.9864C27.6668 98.6677 26.2803 100.015 24.5951 99.9871C22.9099 99.9658 21.5589 98.5825 21.5874 96.9013C21.6087 95.2343 22.9668 93.9006 24.6378 93.9006C26.3372 93.9148 27.7024 95.2981 27.6881 96.9864Z" fill="white"/>
<path d="M39.6906 96.9864C39.6693 98.6677 38.2827 100.015 36.5975 99.9871C34.9123 99.9658 33.5614 98.5825 33.5898 96.9013C33.6111 95.2343 34.9692 93.9006 36.6402 93.9006C38.3396 93.9148 39.7048 95.2981 39.6906 96.9864Z" fill="white"/>
<path d="M51.0888 96.9864C51.0675 98.6677 49.6809 100.015 47.9957 99.9871C46.3105 99.9658 44.9595 98.5825 44.988 96.9013C45.0093 95.2343 46.3674 93.9006 48.0384 93.9006C49.7378 93.9148 51.103 95.2981 51.0888 96.9864Z" fill="white"/>
<path d="M46.7655 130.497H91.9526V122.822H46.7655V130.497Z" fill="white"/>
<path d="M137.758 149.395H167.182V141.72H137.758V149.395Z" fill="white"/>
<path d="M119.207 168.903H148.63V161.228H119.207V168.903Z" fill="white"/>
<path d="M34.7702 190.759H64.1934V183.084H34.7702V190.759Z" fill="white"/>
<path d="M159.374 211.899H188.797V204.223H159.374V211.899Z" fill="white"/>
<path d="M99.9521 211.899H129.375V204.223H99.9521V211.899Z" fill="white"/>
<path d="M34.7702 149.395H64.1934V141.72H34.7702V149.395Z" fill="white"/>
<path d="M33.0138 168.903H49.4817V161.228H33.0138V168.903Z" fill="white"/>
<path d="M70.8346 190.759H87.3025V183.084H70.8346V190.759Z" fill="white"/>
<path d="M135.234 211.899H151.702V204.223H135.234V211.899Z" fill="white"/>
<path d="M157.611 168.903H174.079V161.228H157.611V168.903Z" fill="white"/>
<path d="M159.374 130.497H188.797V122.822H159.374V130.497Z" fill="white"/>
<path d="M83.4059 149.395H128.593V141.72H83.4059V149.395Z" fill="white"/>
<path d="M56.4713 168.903H101.658V161.228H56.4713V168.903Z" fill="white"/>
<path d="M46.7655 211.899H91.9526V204.223H46.7655V211.899Z" fill="white"/>
<path d="M106.003 190.759H151.19V183.084H106.003V190.759Z" fill="white"/>
<path d="M144.592 130.497H151.709V122.822H144.592V130.497Z" fill="white"/>
<path d="M121.689 130.497H128.806V122.822H121.689V130.497Z" fill="white"/>
<path d="M172.678 149.395H179.796V141.72H172.678V149.395Z" fill="white"/>
<path d="M92.9979 190.759H100.115V183.084H92.9979V190.759Z" fill="white"/>
<path d="M70.0809 149.395H77.1985V141.72H70.0809V149.395Z" fill="white"/>
<path d="M98.3664 130.497H113.633V122.822H98.3664V130.497Z" fill="white"/>
<path d="M135.959 132.512H138.441V130.724H137.751V122.588H138.441V120.8H135.959V132.512Z" fill="white"/>
<path d="M108.74 170.918H111.222V169.13H110.532V161.001H111.222V159.213H108.74V170.918Z" fill="white"/>
<path d="M161.537 181.027L158.496 192.317L160.226 192.781L163.267 181.49L161.537 181.027Z" fill="white"/>
<path d="M167.821 193.185L173.915 186.921L167.935 180.65L166.634 181.885L171.434 186.907L166.534 191.937L167.821 193.185Z" fill="white"/>
<path d="M38.3112 132.916L39.5982 131.675L34.7062 126.645L39.4987 121.623L38.2046 120.389L32.2175 126.66L38.3112 132.916Z" fill="white"/>
<path d="M38.3112 214.325L39.5982 213.083L34.7062 208.054L39.4987 203.031L38.2046 201.797L32.2175 208.061L38.3112 214.325Z" fill="white"/>
<path d="M46.7655 232.79H91.9526V225.115H46.7655V232.79Z" fill="white"/>
<path d="M137.758 251.695H167.182V244.02H137.758V251.695Z" fill="white"/>
<path d="M119.207 271.196H148.63V263.52H119.207V271.196Z" fill="white"/>
<path d="M34.7702 293.052H64.1934V285.376H34.7702V293.052Z" fill="white"/>
<path d="M159.374 314.198H188.797V306.523H159.374V314.198Z" fill="white"/>
<path d="M99.9521 314.198H129.375V306.523H99.9521V314.198Z" fill="white"/>
<path d="M34.7702 251.695H64.1934V244.02H34.7702V251.695Z" fill="white"/>
<path d="M33.0138 271.196H49.4817V263.52H33.0138V271.196Z" fill="white"/>
<path d="M70.8346 293.052H87.3025V285.376H70.8346V293.052Z" fill="white"/>
<path d="M135.234 314.198H151.702V306.523H135.234V314.198Z" fill="white"/>
<path d="M157.611 271.196H174.079V263.52H157.611V271.196Z" fill="white"/>
<path d="M159.374 232.79H188.797V225.115H159.374V232.79Z" fill="white"/>
<path d="M83.4059 251.695H128.593V244.02H83.4059V251.695Z" fill="white"/>
<path d="M56.4713 271.196H101.658V263.52H56.4713V271.196Z" fill="white"/>
<path d="M46.7655 314.198H91.9526V306.523H46.7655V314.198Z" fill="white"/>
<path d="M106.003 293.052H151.19V285.376H106.003V293.052Z" fill="white"/>
<path d="M144.592 232.79H151.709V225.115H144.592V232.79Z" fill="white"/>
<path d="M121.689 232.79H128.806V225.115H121.689V232.79Z" fill="white"/>
<path d="M172.678 251.695H179.796V244.02H172.678V251.695Z" fill="white"/>
<path d="M92.9979 293.052H100.115V285.376H92.9979V293.052Z" fill="white"/>
<path d="M70.0809 251.695H77.1985V244.02H70.0809V251.695Z" fill="white"/>
<path d="M98.3664 232.79H113.633V225.115H98.3664V232.79Z" fill="white"/>
<path d="M135.959 234.805H138.441V233.017H137.751V224.887H138.441V223.1H135.959V234.805Z" fill="white"/>
<path d="M108.74 273.217H111.222V271.43H110.532V263.293H111.222V261.506H108.74V273.217Z" fill="white"/>
<path d="M161.537 283.313L158.496 294.603L160.226 295.067L163.267 283.777L161.537 283.313Z" fill="white"/>
<path d="M167.821 295.478L173.915 289.214L167.935 282.95L166.634 284.185L171.434 289.207L166.534 294.236L167.821 295.478Z" fill="white"/>
<path d="M38.3112 235.216L39.5982 233.975L34.7062 228.945L39.4987 223.923L38.2046 222.688L32.2175 228.952L38.3112 235.216Z" fill="white"/>
<path d="M38.3112 316.625L39.5982 315.376L34.7062 310.347L39.4987 305.324L38.2046 304.09L32.2175 310.361L38.3112 316.625Z" fill="white"/>
<path d="M348.094 48.7769C361.595 48.7769 372.539 37.8578 372.539 24.3885C372.539 10.9191 361.595 0 348.094 0C334.592 0 323.648 10.9191 323.648 24.3885C323.648 37.8578 334.592 48.7769 348.094 48.7769Z" fill="#EC3340"/>
<path d="M343.848 22.3525L335.572 31.7376C335.479 31.844 335.302 31.8014 335.266 31.6666C335.188 31.39 335.152 31.1062 335.152 30.8154V17.9756C335.152 17.3301 335.351 16.7058 335.721 16.1809C335.778 16.0957 335.899 16.0815 335.977 16.1383L343.827 22.09C343.912 22.1538 343.92 22.2673 343.856 22.3454L343.848 22.3525Z" fill="white"/>
<path d="M359.42 15.2162L349.729 22.2816C348.776 22.9768 347.446 22.9626 346.508 22.2533L337.044 15.0814C337.449 14.9041 337.897 14.7977 338.366 14.7977C359.413 14.7977 358.432 14.6345 359.42 15.2162Z" fill="white"/>
<path d="M361.042 17.9758V30.8156C361.042 31.2625 360.942 31.6952 360.764 32.0995C360.665 32.3194 360.373 32.3549 360.224 32.1705L352.772 23.1543C352.424 22.7357 352.502 22.1115 352.95 21.7852L360.018 16.6351C360.309 16.4223 360.722 16.5499 360.85 16.8834C360.978 17.2309 361.049 17.5998 361.049 17.9758H361.042Z" fill="white"/>
<path d="M358.944 32.979C359.214 33.3053 359.051 33.7948 358.638 33.9012C358.375 33.9721 358.105 34.0076 357.828 34.0076H338.373C337.833 34.0076 337.321 33.8728 336.859 33.6316C336.532 33.4543 336.446 33.0287 336.695 32.7449L345.15 23.1541C345.263 23.0264 346.145 24.2891 348.143 24.2891C349.018 24.2891 349.892 24.0195 350.625 23.4875C350.902 23.2818 350.916 23.2605 350.952 23.3031L358.951 32.9861L358.944 32.979Z" fill="white"/>
<path fill-rule="evenodd" clip-rule="evenodd" d="M275.048 151.779C276.285 151.339 277.643 151.339 278.88 151.779L318.756 165.988C321.024 166.796 322.531 168.939 322.531 171.336V221.447C322.531 231.116 317.604 240.125 309.448 245.353L280.032 264.215C278.155 265.421 275.744 265.421 273.867 264.215L244.465 245.353C236.31 240.125 231.382 231.116 231.382 221.447V171.336C231.382 168.939 232.897 166.796 235.158 165.988L275.04 151.779H275.048ZM298.078 200.932C300.354 198.768 300.439 195.164 298.27 192.894C296.102 190.624 292.49 190.539 290.214 192.703C290.15 192.76 290.086 192.824 290.029 192.887L271.272 211.601L263.905 204.252C261.644 202.067 258.039 202.123 255.849 204.379C253.709 206.585 253.709 210.083 255.849 212.289L267.24 223.653C269.466 225.873 273.071 225.873 275.296 223.653L298.078 200.925V200.932Z" fill="#0000FF"/>
<g filter="url(#filter1_d_855_1744)">
<path d="M440.679 216.63C467.1 216.63 488.518 195.262 488.518 168.903C488.518 142.544 467.1 121.176 440.679 121.176C414.258 121.176 392.84 142.544 392.84 168.903C392.84 195.262 414.258 216.63 440.679 216.63Z" fill="white"/>
</g>
<path d="M454.829 170.102L446.026 172.982C446.04 173.202 446.04 173.429 446.033 173.663C445.934 176.181 444.099 178.302 441.639 178.863L441.276 178.948C437.984 179.707 434.635 180.175 431.258 180.345L428.47 180.487C428.037 180.509 427.624 180.367 427.304 180.076C426.984 179.785 426.792 179.388 426.771 178.962C426.75 178.529 426.899 178.118 427.183 177.799C427.475 177.48 427.873 177.288 428.3 177.267L431.116 177.125C434.223 176.962 437.309 176.543 440.345 175.855L440.921 175.727C441.995 175.486 442.77 174.55 442.805 173.457C442.827 172.812 442.592 172.195 442.144 171.719C441.689 171.244 441.084 170.982 440.437 170.967L426.174 170.677C424.617 170.641 423.059 171.138 421.808 172.067L408.369 182.786C407.573 183.417 407.523 184.609 408.255 185.311L416.24 192.923C416.852 193.504 417.805 193.547 418.459 193.015L421.779 190.334C422.291 189.922 422.946 189.716 423.607 189.773L434.393 190.66C436.463 190.83 438.518 190.199 440.132 188.908L457.481 174.997C458.114 174.493 458.484 173.77 458.534 172.968C458.583 172.159 458.299 171.4 457.737 170.826C456.998 170.059 455.839 169.783 454.822 170.109L454.829 170.102Z" fill="#7DE5A4"/>
<path d="M448.707 144.423H433.924C431.592 144.423 429.708 146.31 429.708 148.629V163.377C429.708 165.697 431.599 167.584 433.924 167.584H448.707C451.039 167.584 452.923 165.697 452.923 163.377V148.629C452.923 146.302 451.032 144.423 448.707 144.423ZM447.804 154.013L441.013 160.788C440.629 161.171 440.118 161.37 439.613 161.37C439.108 161.37 438.596 161.178 438.212 160.788L434.842 157.426C434.066 156.652 434.066 155.404 434.842 154.631C435.617 153.857 436.868 153.857 437.643 154.631L439.62 156.603L445.009 151.226C445.785 150.452 447.036 150.452 447.811 151.226C448.586 151.999 448.586 153.247 447.811 154.021L447.804 154.013Z" fill="#7DE5A4"/>
<path d="M473.153 155.042L466.184 149.53C465.374 148.892 464.186 149.466 464.186 150.495V153.623H455.391V158.397H464.186V161.526C464.186 162.554 465.381 163.129 466.184 162.49L473.153 156.979C473.778 156.489 473.778 155.546 473.153 155.049V155.042Z" fill="#7DE5A4"/>
</g>
<defs>
<filter id="filter0_d_855_1744" x="3.05933" y="79.2114" width="366.651" height="268.139" filterUnits="userSpaceOnUse" color-interpolation-filters="sRGB">
<feFlood flood-opacity="0" result="BackgroundImageFix"/>
<feColorMatrix in="SourceAlpha" type="matrix" values="0 0 0 0 0 0 0 0 0 0 0 0 0 0 0 0 0 0 127 0" result="hardAlpha"/>
<feOffset dx="5" dy="5"/>
<feGaussianBlur stdDeviation="7"/>
<feColorMatrix type="matrix" values="0 0 0 0 0 0 0 0 0 0 0 0 0 0 0 0 0 0 0.25 0"/>
<feBlend mode="normal" in2="BackgroundImageFix" result="effect1_dropShadow_855_1744"/>
<feBlend mode="normal" in="SourceGraphic" in2="effect1_dropShadow_855_1744" result="shape"/>
</filter>
<filter id="filter1_d_855_1744" x="380.84" y="109.176" width="119.679" height="119.454" filterUnits="userSpaceOnUse" color-interpolation-filters="sRGB">
<feFlood flood-opacity="0" result="BackgroundImageFix"/>
<feColorMatrix in="SourceAlpha" type="matrix" values="0 0 0 0 0 0 0 0 0 0 0 0 0 0 0 0 0 0 127 0" result="hardAlpha"/>
<feOffset/>
<feGaussianBlur stdDeviation="6"/>
<feColorMatrix type="matrix" values="0 0 0 0 0.658824 0 0 0 0 0.658824 0 0 0 0 0.658824 0 0 0 0.45 0"/>
<feBlend mode="normal" in2="BackgroundImageFix" result="effect1_dropShadow_855_1744"/>
<feBlend mode="normal" in="SourceGraphic" in2="effect1_dropShadow_855_1744" result="shape"/>
</filter>
<clipPath id="clip0_855_1744">
<rect width="502" height="347" fill="white"/>
</clipPath>
</defs>
</svg>
