<svg width="475" height="287" viewBox="0 0 475 287" fill="none" xmlns="http://www.w3.org/2000/svg">
<g clip-path="url(#clip0_855_1424)">
<g style="mix-blend-mode:multiply">
<path opacity="0.06" d="M200.576 29.9667C200.576 16.3242 189.498 5.26074 175.826 5.26074C162.154 5.26074 151.076 16.3242 151.076 29.9667C151.076 43.6092 162.154 54.6727 175.826 54.6727C189.498 54.6727 200.576 43.6149 200.576 29.9667Z" fill="url(#paint0_linear_855_1424)"/>
<path opacity="0.12" d="M200.05 29.9667C200.05 16.6095 189.207 5.78564 175.826 5.78564C162.445 5.78564 151.597 16.6152 151.597 29.9667C151.597 43.3182 162.44 54.1477 175.826 54.1477C189.213 54.1477 200.05 43.3239 200.05 29.9667Z" fill="url(#paint1_linear_855_1424)"/>
<path opacity="0.19" d="M199.529 29.967C199.529 16.9008 188.915 6.30518 175.826 6.30518C162.736 6.30518 152.122 16.9008 152.122 29.967C152.122 43.0332 162.736 53.6288 175.826 53.6288C188.915 53.6288 199.529 43.0332 199.529 29.967Z" fill="url(#paint2_linear_855_1424)"/>
<path opacity="0.25" d="M199.004 29.9668C199.004 17.1859 188.624 6.82422 175.826 6.82422C163.028 6.82422 152.643 17.1859 152.643 29.9668C152.643 42.7477 163.023 53.1094 175.826 53.1094C188.63 53.1094 199.004 42.7477 199.004 29.9668Z" fill="url(#paint3_linear_855_1424)"/>
<path opacity="0.31" d="M198.484 29.9668C198.484 17.4769 188.338 7.34912 175.826 7.34912C163.314 7.34912 153.168 17.4769 153.168 29.9668C153.168 42.4567 163.314 52.5844 175.826 52.5844C188.338 52.5844 198.484 42.4567 198.484 29.9668Z" fill="url(#paint4_linear_855_1424)"/>
<path opacity="0.38" d="M197.964 29.9671C197.964 17.7625 188.052 7.86865 175.826 7.86865C163.6 7.86865 153.688 17.7625 153.688 29.9671C153.688 42.1717 163.6 52.0655 175.826 52.0655C188.052 52.0655 197.964 42.1717 197.964 29.9671Z" fill="url(#paint5_linear_855_1424)"/>
<path opacity="0.44" d="M197.438 29.9669C197.438 18.0533 187.761 8.3877 175.826 8.3877C163.891 8.3877 154.208 18.0476 154.208 29.9669C154.208 41.8862 163.885 51.5461 175.826 51.5461C187.766 51.5461 197.438 41.8862 197.438 29.9669Z" fill="url(#paint6_linear_855_1424)"/>
<path opacity="0.5" d="M196.917 29.9669C196.917 18.3385 187.475 8.9126 175.826 8.9126C164.177 8.9126 154.734 18.3385 154.734 29.9669C154.734 41.5952 164.177 51.0211 175.826 51.0211C187.475 51.0211 196.917 41.5952 196.917 29.9669Z" fill="url(#paint7_linear_855_1424)"/>
<path opacity="0.56" d="M196.397 29.9667C196.397 18.6236 187.189 9.43164 175.826 9.43164C164.463 9.43164 155.254 18.6236 155.254 29.9667C155.254 41.3098 164.463 50.5017 175.826 50.5017C187.189 50.5017 196.397 41.3098 196.397 29.9667Z" fill="url(#paint8_linear_855_1424)"/>
<path opacity="0.62" d="M195.871 29.9667C195.871 18.9146 186.897 9.95654 175.826 9.95654C164.754 9.95654 155.78 18.9146 155.78 29.9667C155.78 41.0187 164.754 49.9825 175.826 49.9825C186.897 49.9825 195.871 41.0244 195.871 29.9667Z" fill="url(#paint9_linear_855_1424)"/>
<path opacity="0.69" d="M195.352 29.967C195.352 19.2002 186.612 10.4761 175.826 10.4761C165.04 10.4761 156.301 19.2002 156.301 29.967C156.301 40.7337 165.04 49.4579 175.826 49.4579C186.612 49.4579 195.352 40.7337 195.352 29.967Z" fill="url(#paint10_linear_855_1424)"/>
<path opacity="0.75" d="M194.826 29.9668C194.826 19.491 186.32 10.9951 175.826 10.9951C165.332 10.9951 156.821 19.4853 156.821 29.9668C156.821 40.4483 165.326 48.9385 175.826 48.9385C186.326 48.9385 194.826 40.4483 194.826 29.9668Z" fill="url(#paint11_linear_855_1424)"/>
<path opacity="0.81" d="M194.305 29.9668C194.305 19.7763 186.029 11.52 175.826 11.52C165.623 11.52 157.347 19.782 157.347 29.9668C157.347 40.1516 165.618 48.4135 175.826 48.4135C186.035 48.4135 194.305 40.1516 194.305 29.9668Z" fill="url(#paint12_linear_855_1424)"/>
<path opacity="0.88" d="M193.785 29.9671C193.785 20.0676 185.743 12.0396 175.826 12.0396C165.909 12.0396 157.867 20.0676 157.867 29.9671C157.867 39.8666 165.903 47.8946 175.826 47.8946C185.749 47.8946 193.785 39.8666 193.785 29.9671Z" fill="url(#paint13_linear_855_1424)"/>
<path opacity="0.94" d="M193.259 29.9669C193.259 20.3527 185.451 12.5586 175.826 12.5586C166.2 12.5586 158.393 20.3527 158.393 29.9669C158.393 39.5811 166.195 47.3752 175.826 47.3752C185.457 47.3752 193.259 39.5811 193.259 29.9669Z" fill="url(#paint14_linear_855_1424)"/>
<path d="M192.739 29.9669C192.739 20.6436 185.166 13.0835 175.826 13.0835C166.486 13.0835 158.913 20.6436 158.913 29.9669C158.913 39.2901 166.486 46.8502 175.826 46.8502C185.166 46.8502 192.739 39.2901 192.739 29.9669Z" fill="url(#paint15_linear_855_1424)"/>
</g>
<path d="M191.487 36.9794C195.369 28.3409 191.499 18.2017 182.851 14.3275C174.197 10.4533 164.04 14.3161 160.159 22.9489C156.278 31.5875 160.147 41.7266 168.795 45.6008C177.444 49.475 187.606 45.6122 191.487 36.9794Z" fill="white"/>
<path d="M169.104 27.582H167.327V36.3632H169.104V27.582Z" fill="#0000FF"/>
<path d="M172.22 25.5391H170.442V36.3572H172.22V25.5391Z" fill="#0000FF"/>
<path d="M175.329 20.8262H173.551V36.363H175.329V20.8262Z" fill="#0000FF"/>
<path d="M178.444 24.4492H176.667V36.3572H178.444V24.4492Z" fill="#0000FF"/>
<path d="M181.554 20.8262H179.776V36.363H181.554V20.8262Z" fill="#0000FF"/>
<path d="M184.669 29.5786H182.891V36.3628H184.669V29.5786Z" fill="#0000FF"/>
<g filter="url(#filter0_d_855_1424)">
<path d="M217.077 182.219C213.396 182.219 210.407 179.241 210.407 175.561V16.039C210.407 12.3645 213.39 9.38037 217.077 9.38037H440.425C444.106 9.38037 447.095 12.3588 447.095 16.039V174.665C447.095 178.836 443.706 182.219 439.527 182.219H217.077Z" fill="white"/>
</g>
<path d="M433.6 96.2903H368.868C368.708 96.2903 368.582 96.1648 368.582 96.0051V55.4884C368.582 55.3287 368.708 55.2031 368.868 55.2031H433.6C433.76 55.2031 433.886 55.3287 433.886 55.4884V96.0051C433.886 96.1648 433.76 96.2903 433.6 96.2903ZM369.154 95.7198H433.314V55.7794H369.154V95.7198Z" fill="#DCD8D8"/>
<path d="M433.6 96.2905C433.549 96.2905 433.497 96.2791 433.446 96.2448L368.714 55.7282C368.582 55.6426 368.542 55.4657 368.622 55.3345C368.708 55.2033 368.885 55.1633 369.017 55.2432L433.749 95.7599C433.88 95.8454 433.926 96.0223 433.84 96.1536C433.783 96.2391 433.692 96.2848 433.6 96.2848V96.2905Z" fill="#DCD8D8"/>
<path d="M368.868 96.2906C368.771 96.2906 368.679 96.245 368.628 96.1594C368.542 96.0282 368.582 95.8513 368.72 95.7657L433.452 55.2491C433.583 55.1635 433.76 55.2034 433.846 55.3404C433.932 55.4716 433.892 55.6485 433.755 55.7341L369.022 96.2507C368.977 96.2792 368.925 96.2963 368.868 96.2963V96.2906Z" fill="#DCD8D8"/>
<path d="M288.634 96.2903H223.902C223.741 96.2903 223.616 96.1648 223.616 96.0051V55.4884C223.616 55.3287 223.741 55.2031 223.902 55.2031H288.634C288.794 55.2031 288.92 55.3287 288.92 55.4884V96.0051C288.92 96.1648 288.794 96.2903 288.634 96.2903ZM224.187 95.7198H288.348V55.7794H224.187V95.7198Z" fill="#DCD8D8"/>
<path d="M288.634 96.2905C288.583 96.2905 288.531 96.2791 288.48 96.2448L223.747 55.7282C223.616 55.6426 223.57 55.4657 223.656 55.3345C223.742 55.2033 223.919 55.1633 224.05 55.2432L288.783 95.7599C288.914 95.8454 288.96 96.0223 288.874 96.1536C288.817 96.2391 288.725 96.2848 288.634 96.2848V96.2905Z" fill="#DCD8D8"/>
<path d="M223.902 96.2906C223.805 96.2906 223.713 96.245 223.662 96.1594C223.576 96.0282 223.616 95.8513 223.753 95.7657L288.485 55.2491C288.617 55.1635 288.794 55.2034 288.88 55.3404C288.966 55.4716 288.926 55.6485 288.788 55.7341L224.056 96.2507C224.01 96.2792 223.959 96.2963 223.902 96.2963V96.2906Z" fill="#DCD8D8"/>
<path d="M433.6 23.7476H223.902V44.9217H433.6V23.7476Z" fill="#0000FF"/>
<path d="M236.997 38.1089C239.084 38.1089 240.775 36.4204 240.775 34.3374C240.775 32.2545 239.084 30.5659 236.997 30.5659C234.91 30.5659 233.219 32.2545 233.219 34.3374C233.219 36.4204 234.91 38.1089 236.997 38.1089Z" fill="white"/>
<path d="M248.017 38.1089C250.104 38.1089 251.795 36.4204 251.795 34.3374C251.795 32.2545 250.104 30.5659 248.017 30.5659C245.93 30.5659 244.239 32.2545 244.239 34.3374C244.239 36.4204 245.93 38.1089 248.017 38.1089Z" fill="white"/>
<path d="M259.037 38.1089C261.124 38.1089 262.816 36.4204 262.816 34.3374C262.816 32.2545 261.124 30.5659 259.037 30.5659C256.951 30.5659 255.259 32.2545 255.259 34.3374C255.259 36.4204 256.951 38.1089 259.037 38.1089Z" fill="white"/>
<path d="M425.232 104.57H377.601C372.98 104.57 369.233 108.31 369.233 112.923V147.392C369.233 152.005 372.98 155.745 377.601 155.745H425.232C429.853 155.745 433.6 152.005 433.6 147.392V112.923C433.6 108.31 429.853 104.57 425.232 104.57Z" fill="#DCD8D8"/>
<path d="M428.255 156.024H374.572C371.463 156.024 368.942 153.508 368.942 150.404V109.899C368.942 106.795 371.463 104.279 374.572 104.279H428.255C431.365 104.279 433.886 106.795 433.886 109.899V150.404C433.886 153.508 431.365 156.024 428.255 156.024Z" fill="#DCD8D8"/>
<path d="M361.117 96.2903H296.385C296.225 96.2903 296.099 96.1648 296.099 96.0051V55.4884C296.099 55.3287 296.225 55.2031 296.385 55.2031H361.117C361.277 55.2031 361.403 55.3287 361.403 55.4884V96.0051C361.403 96.1648 361.277 96.2903 361.117 96.2903ZM296.671 95.7198H360.831V55.7794H296.671V95.7198Z" fill="#DCD8D8"/>
<path d="M361.117 96.2905C361.066 96.2905 361.014 96.2791 360.963 96.2448L296.231 55.7282C296.099 55.6426 296.059 55.4657 296.139 55.3345C296.225 55.2033 296.402 55.1633 296.534 55.2432L361.266 95.7599C361.397 95.8454 361.437 96.0223 361.357 96.1536C361.3 96.2391 361.209 96.2848 361.117 96.2848V96.2905Z" fill="#DCD8D8"/>
<path d="M296.385 96.2906C296.288 96.2906 296.197 96.245 296.145 96.1594C296.059 96.0282 296.099 95.8513 296.237 95.7657L360.969 55.2491C361.1 55.1635 361.277 55.2034 361.363 55.3404C361.449 55.4716 361.409 55.6485 361.272 55.7341L296.54 96.2507C296.494 96.2792 296.442 96.2963 296.385 96.2963V96.2906Z" fill="#DCD8D8"/>
<path d="M423.14 118.384H379.699C379.539 118.384 379.414 118.258 379.414 118.098C379.414 117.939 379.539 117.813 379.699 117.813H423.14C423.3 117.813 423.426 117.939 423.426 118.098C423.426 118.258 423.3 118.384 423.14 118.384Z" fill="white"/>
<path d="M423.14 126.423H379.699C379.539 126.423 379.414 126.298 379.414 126.138C379.414 125.978 379.539 125.853 379.699 125.853H423.14C423.3 125.853 423.426 125.978 423.426 126.138C423.426 126.298 423.3 126.423 423.14 126.423Z" fill="white"/>
<path d="M423.14 134.462H379.699C379.539 134.462 379.414 134.337 379.414 134.177C379.414 134.017 379.539 133.892 379.699 133.892H423.14C423.3 133.892 423.426 134.017 423.426 134.177C423.426 134.337 423.3 134.462 423.14 134.462Z" fill="white"/>
<path d="M423.14 142.502H379.699C379.539 142.502 379.414 142.376 379.414 142.216C379.414 142.057 379.539 141.931 379.699 141.931H423.14C423.3 141.931 423.426 142.057 423.426 142.216C423.426 142.376 423.3 142.502 423.14 142.502Z" fill="white"/>
<path d="M329.137 219.735C328.977 219.735 328.851 227.289 328.851 227.135V120.9H161.856C161.696 120.9 257.997 120.774 257.997 120.614C257.997 120.455 161.696 120.329 161.856 120.329H329.137C329.297 120.329 329.423 120.455 329.423 120.614V224.562C329.423 224.722 329.297 219.741 329.137 219.741V219.735Z" stroke="#0000FF" stroke-width="3" stroke-linecap="round" stroke-linejoin="round"/>
<path d="M344.52 124.274C346.553 115.678 341.219 107.064 332.608 105.035C323.996 103.006 315.367 108.33 313.334 116.927C311.302 125.523 316.635 134.137 325.247 136.166C333.859 138.195 342.488 132.871 344.52 124.274Z" fill="#0000FF"/>
<path d="M323.776 126.343C323.696 126.343 323.621 126.315 323.564 126.252L318.586 120.803C318.488 120.695 318.488 120.529 318.586 120.421L323.564 114.972C323.673 114.858 323.85 114.846 323.97 114.955C324.084 115.063 324.096 115.24 323.987 115.36L319.186 120.615L323.987 125.87C324.096 125.984 324.084 126.166 323.97 126.275C323.913 126.326 323.844 126.349 323.776 126.349V126.343Z" fill="white"/>
<path d="M334.104 126.343C334.036 126.343 333.967 126.32 333.91 126.269C333.796 126.161 333.784 125.984 333.893 125.864L338.694 120.609L333.893 115.354C333.784 115.24 333.796 115.057 333.91 114.949C334.024 114.84 334.207 114.852 334.316 114.966L339.289 120.415C339.386 120.523 339.386 120.689 339.289 120.797L334.316 126.246C334.259 126.309 334.184 126.337 334.104 126.337V126.343Z" fill="white"/>
<path d="M326.062 128.295C326.028 128.295 325.993 128.289 325.959 128.277C325.81 128.22 325.736 128.055 325.793 127.907L331.543 113.111C331.601 112.963 331.766 112.889 331.915 112.946C332.064 113.003 332.138 113.169 332.081 113.317L326.33 128.112C326.285 128.226 326.176 128.295 326.062 128.295Z" fill="white"/>
<g filter="url(#filter1_d_855_1424)">
<path d="M414.641 209.79H311.944C308.566 209.79 305.828 212.523 305.828 215.895V265.855C305.828 269.227 308.566 271.96 311.944 271.96H414.641C418.018 271.96 420.757 269.227 420.757 265.855V215.895C420.757 212.523 418.018 209.79 414.641 209.79Z" fill="white"/>
</g>
<g filter="url(#filter2_d_855_1424)">
<path d="M157.901 65.5195H14.364C11.7912 65.5195 9.70557 67.6015 9.70557 70.1697V170.061C9.70557 172.629 11.7912 174.711 14.364 174.711H157.901C160.474 174.711 162.559 172.629 162.559 170.061V70.1697C162.559 67.6015 160.474 65.5195 157.901 65.5195Z" fill="white"/>
</g>
<path d="M14.364 65.5195H157.907C160.479 65.5195 162.565 67.6021 162.565 70.1697V77.6272H9.70557V70.1697C9.70557 67.6021 11.7919 65.5195 14.364 65.5195Z" fill="#0000FF"/>
<path d="M21.8402 72.332C21.8231 73.6386 20.7485 74.6827 19.4396 74.6656C18.1306 74.6485 17.0846 73.5758 17.1018 72.2692C17.1189 70.974 18.1764 69.9355 19.4739 69.9355C20.7942 69.947 21.8517 71.0196 21.8402 72.332Z" fill="white"/>
<path d="M31.1571 72.332C31.14 73.6386 30.0654 74.6827 28.7565 74.6656C27.4475 74.6485 26.4015 73.5758 26.4187 72.2692C26.4358 70.974 27.4932 69.9355 28.785 69.9355C30.1054 69.947 31.1628 71.0196 31.1514 72.332" fill="white"/>
<path d="M40.0053 72.332C39.9881 73.6386 38.9135 74.6827 37.6046 74.6656C36.2957 74.6485 35.2497 73.5758 35.2668 72.2692C35.284 70.974 36.3414 69.9355 37.6332 69.9355C38.9535 69.947 40.011 71.0196 39.9995 72.332" fill="white"/>
<path d="M36.6444 98.3618H71.7227V92.3993H36.6444V98.3618Z" fill="#BFBFBF"/>
<path d="M107.281 113.037H130.127V107.075H107.281V113.037Z" fill="#BFBFBF"/>
<path d="M92.8768 128.191H115.723V122.229H92.8768V128.191Z" fill="#BFBFBF"/>
<path d="M27.3334 145.172H50.1797V139.209H27.3334V145.172Z" fill="#BFBFBF"/>
<path d="M124.063 161.587H146.909V155.625H124.063V161.587Z" fill="#BFBFBF"/>
<path d="M77.93 161.587H100.776V155.625H77.93V161.587Z" fill="#BFBFBF"/>
<path d="M27.3334 113.037H50.1797V107.075H27.3334V113.037Z" fill="#BFBFBF"/>
<path d="M25.9729 128.191H38.7593V122.229H25.9729V128.191Z" fill="#BFBFBF"/>
<path d="M55.3293 145.172H68.1157V139.209H55.3293V145.172Z" fill="#BFBFBF"/>
<path d="M105.326 161.587H118.113V155.625H105.326V161.587Z" fill="#BFBFBF"/>
<path d="M122.697 128.191H135.483V122.229H122.697V128.191Z" fill="#BFBFBF"/>
<path d="M124.063 98.3618H146.909V92.3993H124.063V98.3618Z" fill="#BFBFBF"/>
<path d="M65.098 113.037H100.176V107.075H65.098V113.037Z" fill="#BFBFBF"/>
<path d="M44.1834 128.191H79.2617V122.229H44.1834V128.191Z" fill="#BFBFBF"/>
<path d="M36.6444 161.587H71.7227V155.625H36.6444V161.587Z" fill="#BFBFBF"/>
<path d="M82.6341 145.172H117.712V139.209H82.6341V145.172Z" fill="#BFBFBF"/>
<path d="M112.591 98.3618H118.113V92.3993H112.591V98.3618Z" fill="#BFBFBF"/>
<path d="M94.8149 98.3618H100.336V92.3993H94.8149V98.3618Z" fill="#BFBFBF"/>
<path d="M134.397 113.037H139.918V107.075H134.397V113.037Z" fill="#BFBFBF"/>
<path d="M72.5459 145.172H78.0674V139.209H72.5459V145.172Z" fill="#BFBFBF"/>
<path d="M54.7578 113.037H60.2793V107.075H54.7578V113.037Z" fill="#BFBFBF"/>
<path d="M76.7125 98.3618H88.5615V92.3993H76.7125V98.3618Z" fill="#BFBFBF"/>
<path d="M105.892 99.9251H107.818V98.5386H107.287V92.2166H107.818V90.8301H105.892V99.9251Z" fill="#BFBFBF"/>
<path d="M84.7603 129.761H86.6865V128.374H86.1549V122.052H86.6865V120.666H84.7603V129.761Z" fill="#BFBFBF"/>
<path d="M125.749 137.605L123.388 146.377L124.73 146.737L127.091 137.965L125.749 137.605Z" fill="#BFBFBF"/>
<path d="M130.624 147.055L135.357 142.188L130.71 137.321L129.704 138.279L133.425 142.182L129.63 146.085L130.624 147.055Z" fill="#BFBFBF"/>
<path d="M30.0882 100.245L31.0885 99.2748L27.2874 95.372L31.0085 91.4693L30.0025 90.5107L25.3555 95.3778L30.0882 100.245Z" fill="#BFBFBF"/>
<path d="M30.0882 163.476L31.0885 162.512L27.2874 158.603L31.0085 154.701L30.0025 153.742L25.3555 158.615L30.0882 163.476Z" fill="#BFBFBF"/>
<path d="M354.71 250.312H366.765C368.719 250.312 370.308 251.899 370.308 253.85C370.308 255.801 368.719 257.388 366.765 257.388H354.71C352.755 257.388 351.166 255.801 351.166 253.85C351.166 251.899 352.755 250.312 354.71 250.312Z" fill="#DCD8D8"/>
<path d="M354.71 237.337H379.002C380.957 237.337 382.546 238.924 382.546 240.875C382.546 242.826 380.957 244.413 379.002 244.413H354.71C352.755 244.413 351.166 242.826 351.166 240.875C351.166 238.924 352.755 237.337 354.71 237.337Z" fill="#DCD8D8"/>
<path d="M354.71 224.368H409.125C411.08 224.368 412.669 225.954 412.669 227.906C412.669 229.857 411.08 231.443 409.125 231.443H354.71C352.755 231.443 351.166 229.857 351.166 227.906C351.166 225.954 352.755 224.368 354.71 224.368Z" fill="#DCD8D8"/>
<path d="M328.28 226.725H328.091C320.262 226.725 313.916 233.06 313.916 240.875C313.916 248.69 320.262 255.025 328.091 255.025H328.28C336.108 255.025 342.455 248.69 342.455 240.875C342.455 233.06 336.108 226.725 328.28 226.725Z" fill="#DCD8D8"/>
<g style="mix-blend-mode:multiply">
<path opacity="0.06" d="M474.354 128.517C474.354 111.679 460.676 98.0254 443.814 98.0254C426.952 98.0254 413.269 111.674 413.269 128.517C413.269 145.36 426.941 159.009 443.814 159.009C460.687 159.009 474.354 145.36 474.354 128.517Z" fill="url(#paint16_linear_855_1424)"/>
<path opacity="0.12" d="M473.714 128.517C473.714 112.033 460.327 98.6699 443.814 98.6699C427.301 98.6699 413.915 112.033 413.915 128.517C413.915 145.001 427.301 158.364 443.814 158.364C460.327 158.364 473.714 145.001 473.714 128.517Z" fill="url(#paint17_linear_855_1424)"/>
<path opacity="0.19" d="M473.068 128.517C473.068 112.387 459.967 99.3149 443.814 99.3149C427.661 99.3149 414.56 112.387 414.56 128.517C414.56 144.647 427.655 157.719 443.814 157.719C459.973 157.719 473.068 144.647 473.068 128.517Z" fill="url(#paint18_linear_855_1424)"/>
<path opacity="0.25" d="M472.422 128.517C472.422 112.746 459.612 99.9595 443.814 99.9595C428.015 99.9595 415.2 112.746 415.2 128.517C415.2 144.288 428.009 157.074 443.814 157.074C459.618 157.074 472.422 144.288 472.422 128.517Z" fill="url(#paint19_linear_855_1424)"/>
<path opacity="0.31" d="M471.776 128.517C471.776 113.1 459.252 100.599 443.814 100.599C428.375 100.599 415.846 113.094 415.846 128.517C415.846 143.94 428.364 156.435 443.814 156.435C459.264 156.435 471.776 143.94 471.776 128.517Z" fill="url(#paint20_linear_855_1424)"/>
<path opacity="0.38" d="M471.13 128.517C471.13 113.454 458.898 101.243 443.808 101.243C428.718 101.243 416.486 113.454 416.486 128.517C416.486 143.58 428.718 155.79 443.808 155.79C458.898 155.79 471.13 143.58 471.13 128.517Z" fill="url(#paint21_linear_855_1424)"/>
<path opacity="0.44" d="M470.49 128.517C470.49 113.813 458.544 101.888 443.814 101.888C429.084 101.888 417.138 113.808 417.138 128.517C417.138 143.226 429.079 155.146 443.814 155.146C458.55 155.146 470.49 143.226 470.49 128.517Z" fill="url(#paint22_linear_855_1424)"/>
<path opacity="0.5" d="M469.844 128.517C469.844 114.167 458.19 102.533 443.814 102.533C429.439 102.533 417.784 114.167 417.784 128.517C417.784 142.867 429.439 154.501 443.814 154.501C458.19 154.501 469.844 142.867 469.844 128.517Z" fill="url(#paint23_linear_855_1424)"/>
<path opacity="0.56" d="M469.198 128.517C469.198 114.521 457.83 103.178 443.814 103.178C429.799 103.178 418.424 114.527 418.424 128.517C418.424 142.508 429.787 153.862 443.814 153.862C457.841 153.862 469.198 142.519 469.198 128.517Z" fill="url(#paint24_linear_855_1424)"/>
<path opacity="0.62" d="M468.552 128.517C468.552 114.874 457.475 103.816 443.814 103.816C430.153 103.816 419.07 114.874 419.07 128.517C419.07 142.159 430.147 153.217 443.814 153.217C457.48 153.217 468.552 142.159 468.552 128.517Z" fill="url(#paint25_linear_855_1424)"/>
<path opacity="0.69" d="M467.912 128.517C467.912 115.234 457.12 104.461 443.814 104.461C430.507 104.461 419.716 115.234 419.716 128.517C419.716 141.8 430.502 152.572 443.814 152.572C457.126 152.572 467.912 141.806 467.912 128.517Z" fill="url(#paint26_linear_855_1424)"/>
<path opacity="0.75" d="M467.266 128.517C467.266 115.587 456.766 105.106 443.814 105.106C430.862 105.106 420.362 115.587 420.362 128.517C420.362 141.446 430.862 151.927 443.814 151.927C456.766 151.927 467.266 141.446 467.266 128.517Z" fill="url(#paint27_linear_855_1424)"/>
<path opacity="0.81" d="M466.62 128.517C466.62 115.941 456.406 105.751 443.814 105.751C431.222 105.751 421.002 115.947 421.002 128.517C421.002 141.087 431.211 151.289 443.814 151.289C456.417 151.289 466.62 141.092 466.62 128.517Z" fill="url(#paint28_linear_855_1424)"/>
<path opacity="0.88" d="M465.974 128.517C465.974 116.295 456.052 106.39 443.814 106.39C431.576 106.39 421.648 116.295 421.648 128.517C421.648 140.739 431.571 150.644 443.814 150.644C456.057 150.644 465.974 140.739 465.974 128.517Z" fill="url(#paint29_linear_855_1424)"/>
<path opacity="0.94" d="M465.334 128.517C465.334 116.655 455.697 107.035 443.814 107.035C431.931 107.035 422.294 116.655 422.294 128.517C422.294 140.379 431.931 149.999 443.814 149.999C455.697 149.999 465.334 140.379 465.334 128.517Z" fill="url(#paint30_linear_855_1424)"/>
<path d="M464.688 128.517C464.688 117.008 455.343 107.679 443.814 107.679C432.285 107.679 422.939 117.008 422.939 128.517C422.939 140.025 432.285 149.354 443.814 149.354C455.343 149.354 464.688 140.025 464.688 128.517Z" fill="url(#paint31_linear_855_1424)"/>
</g>
<path d="M463.145 137.178C467.935 126.52 463.162 114.007 452.485 109.226C441.808 104.444 429.273 109.209 424.477 119.867C419.687 130.525 424.46 143.038 435.137 147.82C445.815 152.601 458.349 147.837 463.139 137.178H463.145Z" fill="white"/>
<path fill-rule="evenodd" clip-rule="evenodd" d="M453.617 130.12L451.656 128.477C451.399 128.26 451.376 127.872 451.605 127.633L453.359 125.767C453.525 125.59 453.565 125.328 453.457 125.111L452.462 123.062C452.353 122.846 452.125 122.714 451.885 122.737L449.33 122.96C448.993 122.988 448.707 122.731 448.69 122.395L448.61 119.839C448.598 119.599 448.444 119.382 448.215 119.302L446.06 118.555C445.832 118.475 445.58 118.543 445.42 118.732L443.768 120.694C443.557 120.951 443.162 120.974 442.922 120.746L441.053 119C440.876 118.834 440.613 118.794 440.396 118.903L438.344 119.896C438.127 120.004 437.995 120.232 438.018 120.472L438.241 123.022C438.27 123.359 438.012 123.644 437.675 123.656L435.114 123.741C434.869 123.747 434.657 123.907 434.577 124.135L433.828 126.286C433.748 126.514 433.823 126.771 434.006 126.925L435.972 128.574C436.229 128.791 436.252 129.179 436.023 129.419L434.268 131.284C434.103 131.461 434.063 131.724 434.171 131.941L435.166 133.989C435.274 134.206 435.503 134.337 435.743 134.314L438.298 134.092C438.63 134.063 438.921 134.32 438.933 134.656L439.018 137.213C439.024 137.458 439.184 137.669 439.407 137.749L441.562 138.496C441.791 138.576 442.048 138.508 442.202 138.32L443.854 136.363C444.065 136.106 444.46 136.083 444.7 136.311L446.569 138.057C446.746 138.223 447.009 138.263 447.226 138.16L449.278 137.161C449.496 137.053 449.627 136.825 449.604 136.585L449.381 134.035C449.353 133.698 449.61 133.413 449.947 133.401L452.508 133.321C452.754 133.316 452.965 133.156 453.045 132.928L453.794 130.777C453.874 130.548 453.8 130.292 453.617 130.138V130.12ZM443.814 134.086C440.733 134.086 438.241 131.592 438.241 128.523C438.241 125.453 440.733 122.96 443.814 122.96C446.895 122.96 449.387 125.453 449.387 128.523C449.387 131.592 446.889 134.086 443.814 134.086Z" fill="#0000FF"/>
</g>
<defs>
<filter id="filter0_d_855_1424" x="201.407" y="0.380371" width="264.688" height="200.839" filterUnits="userSpaceOnUse" color-interpolation-filters="sRGB">
<feFlood flood-opacity="0" result="BackgroundImageFix"/>
<feColorMatrix in="SourceAlpha" type="matrix" values="0 0 0 0 0 0 0 0 0 0 0 0 0 0 0 0 0 0 127 0" result="hardAlpha"/>
<feOffset dx="5" dy="5"/>
<feGaussianBlur stdDeviation="7"/>
<feColorMatrix type="matrix" values="0 0 0 0 0 0 0 0 0 0 0 0 0 0 0 0 0 0 0.25 0"/>
<feBlend mode="normal" in2="BackgroundImageFix" result="effect1_dropShadow_855_1424"/>
<feBlend mode="normal" in="SourceGraphic" in2="effect1_dropShadow_855_1424" result="shape"/>
</filter>
<filter id="filter1_d_855_1424" x="296.828" y="200.79" width="142.929" height="90.1699" filterUnits="userSpaceOnUse" color-interpolation-filters="sRGB">
<feFlood flood-opacity="0" result="BackgroundImageFix"/>
<feColorMatrix in="SourceAlpha" type="matrix" values="0 0 0 0 0 0 0 0 0 0 0 0 0 0 0 0 0 0 127 0" result="hardAlpha"/>
<feOffset dx="5" dy="5"/>
<feGaussianBlur stdDeviation="7"/>
<feColorMatrix type="matrix" values="0 0 0 0 0 0 0 0 0 0 0 0 0 0 0 0 0 0 0.25 0"/>
<feBlend mode="normal" in2="BackgroundImageFix" result="effect1_dropShadow_855_1424"/>
<feBlend mode="normal" in="SourceGraphic" in2="effect1_dropShadow_855_1424" result="shape"/>
</filter>
<filter id="filter2_d_855_1424" x="0.705566" y="56.5195" width="180.854" height="137.191" filterUnits="userSpaceOnUse" color-interpolation-filters="sRGB">
<feFlood flood-opacity="0" result="BackgroundImageFix"/>
<feColorMatrix in="SourceAlpha" type="matrix" values="0 0 0 0 0 0 0 0 0 0 0 0 0 0 0 0 0 0 127 0" result="hardAlpha"/>
<feOffset dx="5" dy="5"/>
<feGaussianBlur stdDeviation="7"/>
<feColorMatrix type="matrix" values="0 0 0 0 0 0 0 0 0 0 0 0 0 0 0 0 0 0 0.25 0"/>
<feBlend mode="normal" in2="BackgroundImageFix" result="effect1_dropShadow_855_1424"/>
<feBlend mode="normal" in="SourceGraphic" in2="effect1_dropShadow_855_1424" result="shape"/>
</filter>
<linearGradient id="paint0_linear_855_1424" x1="151.236" y1="28.7571" x2="200.427" y2="31.1792" gradientUnits="userSpaceOnUse">
<stop stop-color="white"/>
<stop offset="0.33" stop-color="#FBFBFD"/>
<stop offset="0.64" stop-color="#EFF2F9"/>
<stop offset="0.94" stop-color="#DCE2F2"/>
<stop offset="1" stop-color="#D8DEF1"/>
</linearGradient>
<linearGradient id="paint1_linear_855_1424" x1="151.974" y1="27.6216" x2="199.706" y2="32.3282" gradientUnits="userSpaceOnUse">
<stop stop-color="white"/>
<stop offset="0.32" stop-color="#FBFBFD"/>
<stop offset="0.62" stop-color="#EFF2F9"/>
<stop offset="0.92" stop-color="#DCE1F1"/>
<stop offset="1" stop-color="#D6DCEF"/>
</linearGradient>
<linearGradient id="paint2_linear_855_1424" x1="152.751" y1="26.5492" x2="198.943" y2="33.4142" gradientUnits="userSpaceOnUse">
<stop stop-color="white"/>
<stop offset="0.31" stop-color="#FBFBFD"/>
<stop offset="0.61" stop-color="#EFF2F8"/>
<stop offset="0.9" stop-color="#DCE2F1"/>
<stop offset="1" stop-color="#D4DBEE"/>
</linearGradient>
<linearGradient id="paint3_linear_855_1424" x1="153.569" y1="25.5448" x2="198.135" y2="34.4246" gradientUnits="userSpaceOnUse">
<stop stop-color="white"/>
<stop offset="0.3" stop-color="#FBFBFD"/>
<stop offset="0.6" stop-color="#EFF1F8"/>
<stop offset="0.88" stop-color="#DCE1F1"/>
<stop offset="1" stop-color="#D2D9ED"/>
</linearGradient>
<linearGradient id="paint4_linear_855_1424" x1="154.426" y1="24.6148" x2="197.286" y2="35.3716" gradientUnits="userSpaceOnUse">
<stop stop-color="white"/>
<stop offset="0.3" stop-color="#FBFBFD"/>
<stop offset="0.58" stop-color="#EFF1F8"/>
<stop offset="0.87" stop-color="#DCE1F0"/>
<stop offset="1" stop-color="#D0D7EB"/>
</linearGradient>
<linearGradient id="paint5_linear_855_1424" x1="155.312" y1="23.7535" x2="196.402" y2="36.2439" gradientUnits="userSpaceOnUse">
<stop stop-color="white"/>
<stop offset="0.29" stop-color="#FBFBFD"/>
<stop offset="0.57" stop-color="#EFF1F8"/>
<stop offset="0.85" stop-color="#DBE0EF"/>
<stop offset="1" stop-color="#CED5EA"/>
</linearGradient>
<linearGradient id="paint6_linear_855_1424" x1="156.226" y1="22.9659" x2="195.496" y2="37.0405" gradientUnits="userSpaceOnUse">
<stop stop-color="white"/>
<stop offset="0.28" stop-color="#FBFBFD"/>
<stop offset="0.56" stop-color="#EFF1F8"/>
<stop offset="0.83" stop-color="#DBE1EF"/>
<stop offset="1" stop-color="#CCD4E9"/>
</linearGradient>
<linearGradient id="paint7_linear_855_1424" x1="157.164" y1="22.247" x2="194.566" y2="37.7678" gradientUnits="userSpaceOnUse">
<stop stop-color="white"/>
<stop offset="0.28" stop-color="#FBFBFD"/>
<stop offset="0.55" stop-color="#EFF1F8"/>
<stop offset="0.82" stop-color="#DBE0EF"/>
<stop offset="1" stop-color="#CAD2E8"/>
</linearGradient>
<linearGradient id="paint8_linear_855_1424" x1="158.118" y1="21.6077" x2="193.613" y2="38.4255" gradientUnits="userSpaceOnUse">
<stop stop-color="white"/>
<stop offset="0.27" stop-color="#FBFBFD"/>
<stop offset="0.54" stop-color="#EFF1F7"/>
<stop offset="0.81" stop-color="#DBE0EE"/>
<stop offset="1" stop-color="#C8D0E6"/>
</linearGradient>
<linearGradient id="paint9_linear_855_1424" x1="159.084" y1="21.0314" x2="192.65" y2="39.0083" gradientUnits="userSpaceOnUse">
<stop stop-color="white"/>
<stop offset="0.26" stop-color="#FAFBFD"/>
<stop offset="0.53" stop-color="#EEF1F7"/>
<stop offset="0.79" stop-color="#DAE0EE"/>
<stop offset="1" stop-color="#C6CEE5"/>
</linearGradient>
<linearGradient id="paint10_linear_855_1424" x1="160.056" y1="20.5296" x2="191.681" y2="39.5164" gradientUnits="userSpaceOnUse">
<stop stop-color="white"/>
<stop offset="0.26" stop-color="#FAFBFD"/>
<stop offset="0.52" stop-color="#EEF1F7"/>
<stop offset="0.78" stop-color="#DAE0EE"/>
<stop offset="1" stop-color="#C4CDE4"/>
</linearGradient>
<linearGradient id="paint11_linear_855_1424" x1="161.033" y1="20.1015" x2="190.706" y2="39.9604" gradientUnits="userSpaceOnUse">
<stop stop-color="white"/>
<stop offset="0.25" stop-color="#FAFBFD"/>
<stop offset="0.51" stop-color="#EEF1F7"/>
<stop offset="0.77" stop-color="#DADFED"/>
<stop offset="1" stop-color="#C2CBE2"/>
</linearGradient>
<linearGradient id="paint12_linear_855_1424" x1="162.011" y1="19.7363" x2="189.727" y2="40.3297" gradientUnits="userSpaceOnUse">
<stop stop-color="white"/>
<stop offset="0.25" stop-color="#FAFBFD"/>
<stop offset="0.5" stop-color="#EEF0F7"/>
<stop offset="0.76" stop-color="#DADFED"/>
<stop offset="1" stop-color="#C0C9E1"/>
</linearGradient>
<linearGradient id="paint13_linear_855_1424" x1="162.977" y1="19.4399" x2="188.758" y2="40.6359" gradientUnits="userSpaceOnUse">
<stop stop-color="white"/>
<stop offset="0.24" stop-color="#FAFBFD"/>
<stop offset="0.5" stop-color="#EEF0F7"/>
<stop offset="0.75" stop-color="#D9DFED"/>
<stop offset="1" stop-color="#BEC7E0"/>
</linearGradient>
<linearGradient id="paint14_linear_855_1424" x1="163.937" y1="19.2115" x2="187.797" y2="40.8727" gradientUnits="userSpaceOnUse">
<stop stop-color="white"/>
<stop offset="0.24" stop-color="#FAFBFC"/>
<stop offset="0.49" stop-color="#EEF0F6"/>
<stop offset="0.74" stop-color="#D9DFEC"/>
<stop offset="0.99" stop-color="#BCC6DE"/>
<stop offset="1" stop-color="#BCC6DE"/>
</linearGradient>
<linearGradient id="paint15_linear_855_1424" x1="164.886" y1="19.046" x2="186.847" y2="41.0464" gradientUnits="userSpaceOnUse">
<stop stop-color="white"/>
<stop offset="0.23" stop-color="#FAFBFC"/>
<stop offset="0.48" stop-color="#EEF0F6"/>
<stop offset="0.73" stop-color="#D9DEEC"/>
<stop offset="0.98" stop-color="#BCC6DE"/>
<stop offset="1" stop-color="#BAC4DD"/>
</linearGradient>
<linearGradient id="paint16_linear_855_1424" x1="413.469" y1="127.028" x2="474.176" y2="130.017" gradientUnits="userSpaceOnUse">
<stop stop-color="white"/>
<stop offset="0.33" stop-color="#FBFBFD"/>
<stop offset="0.64" stop-color="#EFF2F9"/>
<stop offset="0.94" stop-color="#DCE2F2"/>
<stop offset="1" stop-color="#D8DEF1"/>
</linearGradient>
<linearGradient id="paint17_linear_855_1424" x1="414.372" y1="125.624" x2="473.289" y2="131.436" gradientUnits="userSpaceOnUse">
<stop stop-color="white"/>
<stop offset="0.32" stop-color="#FBFBFD"/>
<stop offset="0.62" stop-color="#EFF2F9"/>
<stop offset="0.92" stop-color="#DCE1F1"/>
<stop offset="1" stop-color="#D6DCEF"/>
</linearGradient>
<linearGradient id="paint18_linear_855_1424" x1="415.332" y1="124.3" x2="472.343" y2="132.774" gradientUnits="userSpaceOnUse">
<stop stop-color="white"/>
<stop offset="0.31" stop-color="#FBFBFD"/>
<stop offset="0.61" stop-color="#EFF2F8"/>
<stop offset="0.9" stop-color="#DCE2F1"/>
<stop offset="1" stop-color="#D4DBEE"/>
</linearGradient>
<linearGradient id="paint19_linear_855_1424" x1="416.343" y1="123.062" x2="471.34" y2="134.026" gradientUnits="userSpaceOnUse">
<stop stop-color="white"/>
<stop offset="0.3" stop-color="#FBFBFD"/>
<stop offset="0.6" stop-color="#EFF1F8"/>
<stop offset="0.88" stop-color="#DCE1F1"/>
<stop offset="1" stop-color="#D2D9ED"/>
</linearGradient>
<linearGradient id="paint20_linear_855_1424" x1="417.401" y1="121.915" x2="470.296" y2="135.185" gradientUnits="userSpaceOnUse">
<stop stop-color="white"/>
<stop offset="0.3" stop-color="#FBFBFD"/>
<stop offset="0.58" stop-color="#EFF1F8"/>
<stop offset="0.87" stop-color="#DCE1F0"/>
<stop offset="1" stop-color="#D0D7EB"/>
</linearGradient>
<linearGradient id="paint21_linear_855_1424" x1="418.498" y1="120.854" x2="469.211" y2="136.264" gradientUnits="userSpaceOnUse">
<stop stop-color="white"/>
<stop offset="0.29" stop-color="#FBFBFD"/>
<stop offset="0.57" stop-color="#EFF1F8"/>
<stop offset="0.85" stop-color="#DBE0EF"/>
<stop offset="1" stop-color="#CED5EA"/>
</linearGradient>
<linearGradient id="paint22_linear_855_1424" x1="419.625" y1="119.878" x2="468.087" y2="137.25" gradientUnits="userSpaceOnUse">
<stop stop-color="white"/>
<stop offset="0.28" stop-color="#FBFBFD"/>
<stop offset="0.56" stop-color="#EFF1F8"/>
<stop offset="0.83" stop-color="#DBE1EF"/>
<stop offset="1" stop-color="#CCD4E9"/>
</linearGradient>
<linearGradient id="paint23_linear_855_1424" x1="420.779" y1="118.994" x2="466.94" y2="138.149" gradientUnits="userSpaceOnUse">
<stop stop-color="white"/>
<stop offset="0.28" stop-color="#FBFBFD"/>
<stop offset="0.55" stop-color="#EFF1F8"/>
<stop offset="0.82" stop-color="#DBE0EF"/>
<stop offset="1" stop-color="#CAD2E8"/>
</linearGradient>
<linearGradient id="paint24_linear_855_1424" x1="421.957" y1="118.201" x2="465.769" y2="138.956" gradientUnits="userSpaceOnUse">
<stop stop-color="white"/>
<stop offset="0.27" stop-color="#FBFBFD"/>
<stop offset="0.54" stop-color="#EFF1F7"/>
<stop offset="0.81" stop-color="#DBE0EE"/>
<stop offset="1" stop-color="#C8D0E6"/>
</linearGradient>
<linearGradient id="paint25_linear_855_1424" x1="423.151" y1="117.493" x2="464.576" y2="139.675" gradientUnits="userSpaceOnUse">
<stop stop-color="white"/>
<stop offset="0.26" stop-color="#FAFBFD"/>
<stop offset="0.53" stop-color="#EEF1F7"/>
<stop offset="0.79" stop-color="#DAE0EE"/>
<stop offset="1" stop-color="#C6CEE5"/>
</linearGradient>
<linearGradient id="paint26_linear_855_1424" x1="424.351" y1="116.877" x2="463.377" y2="140.309" gradientUnits="userSpaceOnUse">
<stop stop-color="white"/>
<stop offset="0.26" stop-color="#FAFBFD"/>
<stop offset="0.52" stop-color="#EEF1F7"/>
<stop offset="0.78" stop-color="#DAE0EE"/>
<stop offset="1" stop-color="#C4CDE4"/>
</linearGradient>
<linearGradient id="paint27_linear_855_1424" x1="425.558" y1="116.341" x2="462.173" y2="140.855" gradientUnits="userSpaceOnUse">
<stop stop-color="white"/>
<stop offset="0.25" stop-color="#FAFBFD"/>
<stop offset="0.51" stop-color="#EEF1F7"/>
<stop offset="0.77" stop-color="#DADFED"/>
<stop offset="1" stop-color="#C2CBE2"/>
</linearGradient>
<linearGradient id="paint28_linear_855_1424" x1="426.758" y1="115.896" x2="460.97" y2="141.31" gradientUnits="userSpaceOnUse">
<stop stop-color="white"/>
<stop offset="0.25" stop-color="#FAFBFD"/>
<stop offset="0.5" stop-color="#EEF0F7"/>
<stop offset="0.76" stop-color="#DADFED"/>
<stop offset="1" stop-color="#C0C9E1"/>
</linearGradient>
<linearGradient id="paint29_linear_855_1424" x1="427.958" y1="115.531" x2="459.773" y2="141.684" gradientUnits="userSpaceOnUse">
<stop stop-color="white"/>
<stop offset="0.24" stop-color="#FAFBFD"/>
<stop offset="0.5" stop-color="#EEF0F7"/>
<stop offset="0.75" stop-color="#D9DFED"/>
<stop offset="1" stop-color="#BEC7E0"/>
</linearGradient>
<linearGradient id="paint30_linear_855_1424" x1="429.142" y1="115.245" x2="458.588" y2="141.977" gradientUnits="userSpaceOnUse">
<stop stop-color="white"/>
<stop offset="0.24" stop-color="#FAFBFC"/>
<stop offset="0.49" stop-color="#EEF0F6"/>
<stop offset="0.74" stop-color="#D9DFEC"/>
<stop offset="0.99" stop-color="#BCC6DE"/>
<stop offset="1" stop-color="#BCC6DE"/>
</linearGradient>
<linearGradient id="paint31_linear_855_1424" x1="430.307" y1="115.04" x2="457.415" y2="142.196" gradientUnits="userSpaceOnUse">
<stop stop-color="white"/>
<stop offset="0.23" stop-color="#FAFBFC"/>
<stop offset="0.48" stop-color="#EEF0F6"/>
<stop offset="0.73" stop-color="#D9DEEC"/>
<stop offset="0.98" stop-color="#BCC6DE"/>
<stop offset="1" stop-color="#BAC4DD"/>
</linearGradient>
<clipPath id="clip0_855_1424">
<rect width="475" height="287" fill="white"/>
</clipPath>
</defs>
</svg>
