<svg width="504" height="459" viewBox="0 0 504 459" fill="none" xmlns="http://www.w3.org/2000/svg">
<g clip-path="url(#clip0_718_5648)">
<g filter="url(#filter0_d_718_5648)">
<path d="M39.7652 107.011C56.3979 107.011 69.8813 93.5145 69.8813 76.8658C69.8813 60.2171 56.3979 46.7207 39.7652 46.7207C23.1326 46.7207 9.64918 60.2171 9.64918 76.8658C9.64918 93.5145 23.1326 107.011 39.7652 107.011Z" fill="#FFFDFD"/>
</g>
<g filter="url(#filter1_d_718_5648)">
<path d="M290.927 10.0068H114.999C108.494 10.0068 103.22 15.2859 103.22 21.7979V367.578C103.22 374.09 108.494 379.369 114.999 379.369H290.927C297.433 379.369 302.707 374.09 302.707 367.578V21.7979C302.707 15.2859 297.433 10.0068 290.927 10.0068Z" fill="#FFFDFD"/>
</g>
<path d="M114.35 10.0068H291.576C297.726 10.0068 302.707 14.9926 302.707 21.1481V31.3619H103.22V21.1481C103.22 14.9926 108.201 10.0068 114.35 10.0068Z" fill="#0000FF"/>
<path d="M115.666 49.9994C119.411 49.9994 122.447 46.9605 122.447 43.2118C122.447 39.4632 119.411 36.4243 115.666 36.4243C111.921 36.4243 108.885 39.4632 108.885 43.2118C108.885 46.9605 111.921 49.9994 115.666 49.9994Z" fill="#DCD8D8"/>
<path d="M188.498 37.3223H127.068C125.67 37.3223 124.536 38.4569 124.536 39.8565V39.8624C124.536 41.262 125.67 42.3967 127.068 42.3967H188.498C189.897 42.3967 191.03 41.262 191.03 39.8624V39.8565C191.03 38.4569 189.897 37.3223 188.498 37.3223Z" fill="#DCD8D8"/>
<path d="M245.603 155.067H155.396C153.998 155.067 152.864 156.202 152.864 157.602V157.608C152.864 159.007 153.998 160.142 155.396 160.142H245.603C247.001 160.142 248.134 159.007 248.134 157.608V157.602C248.134 156.202 247.001 155.067 245.603 155.067Z" fill="#DCD8D8"/>
<path d="M260.817 171.336H140.193C138.795 171.336 137.662 172.471 137.662 173.87V173.876C137.662 175.276 138.795 176.41 140.193 176.41H260.817C262.215 176.41 263.349 175.276 263.349 173.876V173.87C263.349 172.471 262.215 171.336 260.817 171.336Z" fill="#DCD8D8"/>
<path d="M229.951 354.452H171.053C169.655 354.452 168.521 355.586 168.521 356.986V356.992C168.521 358.391 169.655 359.526 171.053 359.526H229.951C231.35 359.526 232.483 358.391 232.483 356.992V356.986C232.483 355.586 231.35 354.452 229.951 354.452Z" fill="#DCD8D8"/>
<path d="M249.628 346.837H151.371C149.973 346.837 148.839 347.972 148.839 349.371V349.377C148.839 350.777 149.973 351.911 151.371 351.911H249.628C251.026 351.911 252.159 350.777 252.159 349.377V349.371C252.159 347.972 251.026 346.837 249.628 346.837Z" fill="#DCD8D8"/>
<path d="M273.789 178.348H127.222C125.823 178.348 124.69 179.483 124.69 180.882V180.888C124.69 182.288 125.823 183.423 127.222 183.423H273.789C275.187 183.423 276.321 182.288 276.321 180.888V180.882C276.321 179.483 275.187 178.348 273.789 178.348Z" fill="#DCD8D8"/>
<path d="M260.817 185.366H140.193C138.795 185.366 137.662 186.501 137.662 187.9V187.906C137.662 189.306 138.795 190.441 140.193 190.441H260.817C262.215 190.441 263.349 189.306 263.349 187.906V187.9C263.349 186.501 262.215 185.366 260.817 185.366Z" fill="#DCD8D8"/>
<path d="M246.352 192.378H154.652C153.254 192.378 152.121 193.513 152.121 194.912V194.918C152.121 196.318 153.254 197.452 154.652 197.452H246.352C247.75 197.452 248.884 196.318 248.884 194.918V194.912C248.884 193.513 247.75 192.378 246.352 192.378Z" fill="#DCD8D8"/>
<path d="M249.486 207.3H151.525C150.126 207.3 148.993 208.434 148.993 209.834V209.84C148.993 211.24 150.126 212.374 151.525 212.374H249.486C250.884 212.374 252.018 211.24 252.018 209.84V209.834C252.018 208.434 250.884 207.3 249.486 207.3Z" fill="#DCD8D8"/>
<path d="M145.564 44.1865H127.068C125.67 44.1865 124.536 45.3211 124.536 46.7208V46.7267C124.536 48.1263 125.67 49.2609 127.068 49.2609H145.564C146.962 49.2609 148.096 48.1263 148.096 46.7267V46.7208C148.096 45.3211 146.962 44.1865 145.564 44.1865Z" fill="#DCD8D8"/>
<path d="M302.707 60.603H103.22V141.64H302.707V60.603Z" fill="#DCD8D8"/>
<path d="M302.707 252.822H103.22V314.01H302.707V252.822Z" fill="#DCD8D8"/>
<path d="M217.198 222.228H180.673C175.526 222.228 171.354 226.404 171.354 231.555C171.354 236.707 175.526 240.883 180.673 240.883H217.198C222.345 240.883 226.517 236.707 226.517 231.555C226.517 226.404 222.345 222.228 217.198 222.228Z" fill="#DCD8D8"/>
<path d="M190.399 333.699H184.568C183.867 333.699 183.299 334.268 183.299 334.969V340.126C183.299 340.828 183.867 341.396 184.568 341.396H190.399C191.099 341.396 191.668 340.828 191.668 340.126V334.969C191.668 334.268 191.099 333.699 190.399 333.699Z" fill="#DCD8D8"/>
<path d="M200.797 333.699H194.967C194.266 333.699 193.698 334.268 193.698 334.969V340.126C193.698 340.828 194.266 341.396 194.967 341.396H200.797C201.498 341.396 202.066 340.828 202.066 340.126V334.969C202.066 334.268 201.498 333.699 200.797 333.699Z" fill="#DCD8D8"/>
<path d="M211.308 333.699H205.477C204.777 333.699 204.209 334.268 204.209 334.969V340.126C204.209 340.828 204.777 341.396 205.477 341.396H211.308C212.009 341.396 212.577 340.828 212.577 340.126V334.969C212.577 334.268 212.009 333.699 211.308 333.699Z" fill="#DCD8D8"/>
<path d="M221.819 333.699H215.988C215.287 333.699 214.719 334.268 214.719 334.969V340.126C214.719 340.828 215.287 341.396 215.988 341.396H221.819C222.52 341.396 223.088 340.828 223.088 340.126V334.969C223.088 334.268 222.52 333.699 221.819 333.699Z" fill="#DCD8D8"/>
<path d="M52.0702 75.6376C52.0584 81.9643 47.2721 87.2573 40.9869 87.8953C40.9869 87.9189 40.9987 87.9307 40.9987 87.9544V92.8811H44.6872C45.3659 92.8811 45.9148 93.4305 45.9148 94.1157C45.9148 94.7951 45.3659 95.3444 44.6872 95.3444H34.8433C34.1646 95.3444 33.6098 94.7951 33.6098 94.1157C33.6098 93.4364 34.1587 92.8811 34.8374 92.8811H38.5318V87.9544C38.5318 87.9544 38.5436 87.9189 38.5436 87.8953C32.2584 87.2573 27.4662 81.9702 27.4544 75.6435C27.4544 74.9641 28.0033 74.4088 28.682 74.4088C29.3607 74.4088 29.9154 74.9582 29.9154 75.6376C29.9154 81.0782 34.3239 85.491 39.7593 85.491C45.1948 85.491 49.6033 81.0782 49.6033 75.6376C49.6033 74.9582 50.1521 74.4029 50.8308 74.4029C51.5095 74.4029 52.0643 74.9523 52.0643 75.6316L52.0702 75.6376ZM28.6938 67.0128C29.3725 67.0128 29.9213 66.4635 29.9213 65.7841V62.092C29.9213 61.4127 29.3725 60.8574 28.6938 60.8574C28.0151 60.8574 27.4603 61.4068 27.4603 62.0861V65.7841C27.4603 66.4635 28.0092 67.0128 28.6938 67.0188V67.0128ZM23.7718 58.394C23.0931 58.394 22.5443 58.9493 22.5443 59.6287V68.2534C22.5443 68.9327 23.0931 69.488 23.7718 69.488C24.4505 69.488 25.0052 68.9386 25.0052 68.2593V59.6346C25.0052 58.9552 24.4564 58.4 23.7777 58.4L23.7718 58.394ZM55.7646 58.394C55.0859 58.394 54.5371 58.9493 54.5371 59.6287V68.2534C54.5371 68.9327 55.0859 69.4821 55.7705 69.4821C56.4492 69.4821 56.998 68.9327 56.998 68.2534V59.6287C56.998 58.9493 56.4492 58.394 55.7705 58.394H55.7646ZM50.8426 60.8574C50.1639 60.8574 49.6151 61.4068 49.6151 62.0861V65.7782C49.6151 66.4576 50.1639 67.0069 50.8485 67.0069C51.5272 67.0069 52.0761 66.4576 52.0761 65.7782V62.0861C52.0761 61.4068 51.5272 60.8574 50.8485 60.8574H50.8426ZM39.7652 81.793C43.1646 81.793 45.9148 79.0343 45.9148 75.6316V64.5436C45.8793 61.141 43.0997 58.4118 39.7062 58.4472C36.3541 58.4767 33.6452 61.1941 33.6157 64.5436V75.6257C33.6157 79.0284 36.3718 81.7812 39.7711 81.7871L39.7652 81.793Z" fill="#FF5454"/>
<g filter="url(#filter2_d_718_5648)">
<path d="M84.4938 261.701C101.126 261.701 114.61 248.204 114.61 231.556C114.61 214.907 101.126 201.411 84.4938 201.411C67.8611 201.411 54.3777 214.907 54.3777 231.556C54.3777 248.204 67.8611 261.701 84.4938 261.701Z" fill="#FFFDFD"/>
</g>
<g filter="url(#filter3_d_718_5648)">
<path d="M450.283 222.671H242.546C238.1 222.671 234.496 226.278 234.496 230.728V435.14C234.496 439.59 238.1 443.198 242.546 443.198H450.283C454.729 443.198 458.333 439.59 458.333 435.14V230.728C458.333 226.278 454.729 222.671 450.283 222.671Z" fill="#FFFDFD"/>
</g>
<path d="M395.433 418.398H300.045C298.647 418.398 297.513 419.533 297.513 420.933V420.939C297.513 422.338 298.647 423.473 300.045 423.473H395.433C396.832 423.473 397.965 422.338 397.965 420.939V420.933C397.965 419.533 396.832 418.398 395.433 418.398Z" fill="#DCD8D8"/>
<path d="M293.188 242.401H248.53C247.132 242.401 245.998 243.536 245.998 244.936V244.942C245.998 246.341 247.132 247.476 248.53 247.476H293.188C294.586 247.476 295.719 246.341 295.719 244.942V244.936C295.719 243.536 294.586 242.401 293.188 242.401Z" fill="#DCD8D8"/>
<path d="M424.393 242.401H379.735C378.337 242.401 377.203 243.536 377.203 244.936V244.942C377.203 246.341 378.337 247.476 379.735 247.476H424.393C425.791 247.476 426.925 246.341 426.925 244.942V244.936C426.925 243.536 425.791 242.401 424.393 242.401Z" fill="#DCD8D8"/>
<path d="M415.298 379.298H269.327C267.929 379.298 266.795 380.432 266.795 381.832V381.838C266.795 383.238 267.929 384.372 269.327 384.372H415.298C416.697 384.372 417.83 383.238 417.83 381.838V381.832C417.83 380.432 416.697 379.298 415.298 379.298Z" fill="#DCD8D8"/>
<path d="M426.7 359.514H266.123C253.773 359.514 243.761 369.535 243.761 381.897V381.903C243.761 394.265 253.773 404.286 266.123 404.286H426.7C439.05 404.286 449.062 394.265 449.062 381.903V381.897C449.062 369.535 439.05 359.514 426.7 359.514Z" stroke="#DCD8D8" stroke-width="2" stroke-miterlimit="10"/>
<path d="M263.001 383.244C263.001 380.647 260.897 378.542 258.303 378.542C255.708 378.542 253.605 380.647 253.605 383.244C253.605 385.841 255.708 387.946 258.303 387.946C260.897 387.946 263.001 385.841 263.001 383.244Z" fill="#DCD8D8"/>
<path d="M438.834 383.244C438.834 382.471 438.208 381.844 437.435 381.844C436.663 381.844 436.037 382.471 436.037 383.244C436.037 384.017 436.663 384.644 437.435 384.644C438.208 384.644 438.834 384.017 438.834 383.244Z" fill="#DCD8D8"/>
<path d="M438.834 387.184C438.834 386.411 438.208 385.784 437.435 385.784C436.663 385.784 436.037 386.411 436.037 387.184C436.037 387.957 436.663 388.584 437.435 388.584C438.208 388.584 438.834 387.957 438.834 387.184Z" fill="#DCD8D8"/>
<path d="M438.834 379.304C438.834 378.531 438.208 377.904 437.435 377.904C436.663 377.904 436.037 378.531 436.037 379.304C436.037 380.077 436.663 380.704 437.435 380.704C438.208 380.704 438.834 380.077 438.834 379.304Z" fill="#DCD8D8"/>
<path d="M415.298 327.514H269.327C267.929 327.514 266.795 328.649 266.795 330.048V330.054C266.795 331.454 267.929 332.589 269.327 332.589H415.298C416.697 332.589 417.83 331.454 417.83 330.054V330.048C417.83 328.649 416.697 327.514 415.298 327.514Z" fill="#DCD8D8"/>
<path d="M426.7 307.73H266.123C253.773 307.73 243.761 317.752 243.761 330.113V330.119C243.761 342.481 253.773 352.502 266.123 352.502H426.7C439.05 352.502 449.062 342.481 449.062 330.119V330.113C449.062 317.752 439.05 307.73 426.7 307.73Z" stroke="#DCD8D8" stroke-width="2" stroke-miterlimit="10"/>
<path d="M263.001 331.46C263.001 328.863 260.897 326.758 258.303 326.758C255.708 326.758 253.605 328.863 253.605 331.46C253.605 334.057 255.708 336.162 258.303 336.162C260.897 336.162 263.001 334.057 263.001 331.46Z" fill="#DCD8D8"/>
<path d="M438.834 331.46C438.834 330.687 438.208 330.06 437.435 330.06C436.663 330.06 436.037 330.687 436.037 331.46C436.037 332.233 436.663 332.86 437.435 332.86C438.208 332.86 438.834 332.233 438.834 331.46Z" fill="#DCD8D8"/>
<path d="M438.834 335.401C438.834 334.627 438.208 334 437.435 334C436.663 334 436.037 334.627 436.037 335.401C436.037 336.174 436.663 336.801 437.435 336.801C438.208 336.801 438.834 336.174 438.834 335.401Z" fill="#DCD8D8"/>
<path d="M438.834 327.514C438.834 326.741 438.208 326.114 437.435 326.114C436.663 326.114 436.037 326.741 436.037 327.514C436.037 328.288 436.663 328.914 437.435 328.914C438.208 328.914 438.834 328.288 438.834 327.514Z" fill="#DCD8D8"/>
<path d="M415.298 275.73H269.327C267.929 275.73 266.795 276.865 266.795 278.265V278.271C266.795 279.67 267.929 280.805 269.327 280.805H415.298C416.697 280.805 417.83 279.67 417.83 278.271V278.265C417.83 276.865 416.697 275.73 415.298 275.73Z" fill="#DCD8D8"/>
<path d="M426.7 255.941H266.123C253.773 255.941 243.761 265.962 243.761 278.324V278.33C243.761 290.691 253.773 300.713 266.123 300.713H426.7C439.05 300.713 449.062 290.691 449.062 278.33V278.324C449.062 265.962 439.05 255.941 426.7 255.941Z" stroke="#DCD8D8" stroke-width="2" stroke-miterlimit="10"/>
<path d="M263.001 279.67C263.001 277.074 260.897 274.968 258.303 274.968C255.708 274.968 253.605 277.074 253.605 279.67C253.605 282.267 255.708 284.373 258.303 284.373C260.897 284.373 263.001 282.267 263.001 279.67Z" fill="#DCD8D8"/>
<path d="M438.834 279.671C438.834 278.897 438.208 278.271 437.435 278.271C436.663 278.271 436.037 278.897 436.037 279.671C436.037 280.444 436.663 281.071 437.435 281.071C438.208 281.071 438.834 280.444 438.834 279.671Z" fill="#DCD8D8"/>
<path d="M438.834 283.617C438.834 282.844 438.208 282.217 437.435 282.217C436.663 282.217 436.037 282.844 436.037 283.617C436.037 284.39 436.663 285.017 437.435 285.017C438.208 285.017 438.834 284.39 438.834 283.617Z" fill="#DCD8D8"/>
<path d="M438.834 275.731C438.834 274.957 438.208 274.331 437.435 274.331C436.663 274.331 436.037 274.957 436.037 275.731C436.037 276.504 436.663 277.131 437.435 277.131C438.208 277.131 438.834 276.504 438.834 275.731Z" fill="#DCD8D8"/>
<path d="M99.4249 231.632C99.4249 235.632 99.4249 239.637 99.4249 243.636C99.4249 245.709 98.3921 246.743 96.3207 246.743C88.4597 246.743 80.5928 246.743 72.7318 246.743C70.5541 246.743 69.5567 245.739 69.5567 243.553C69.5567 235.549 69.5567 227.55 69.5567 219.546C69.5567 217.366 70.56 216.362 72.7377 216.362C80.5751 216.362 88.4125 216.362 96.2498 216.362C98.4216 216.362 99.4249 217.372 99.4249 219.552C99.4249 223.581 99.4249 227.603 99.4249 231.632ZM84.4289 241.988C87.8695 241.988 91.3161 241.988 94.7567 241.988C95.04 241.988 95.3646 242.047 95.5357 241.74C95.6656 241.498 95.5062 241.285 95.3587 241.096C93.7357 238.963 92.1246 236.819 90.478 234.704C89.9115 233.977 89.1738 233.989 88.5128 234.633C88.383 234.763 88.2649 234.905 88.1351 235.035C86.8721 236.317 85.4498 236.193 84.4525 234.692C83.3607 233.05 82.2807 231.402 81.1948 229.76C80.6046 228.874 80.3036 228.885 79.7784 229.842C77.7482 233.523 75.7239 237.203 73.6997 240.883C73.2039 241.781 73.3161 241.976 74.3489 241.982C77.7128 241.982 81.0767 241.982 84.4407 241.982L84.4289 241.988ZM94.621 225.004C94.6328 222.866 92.9095 221.123 90.7967 221.117C88.7371 221.117 86.9961 222.854 86.9725 224.933C86.9489 227.042 88.6957 228.82 90.8026 228.826C92.8682 228.826 94.6092 227.084 94.621 225.004Z" fill="#6CDEB3"/>
<g filter="url(#filter4_d_718_5648)">
<path d="M458.333 261.701C474.966 261.701 488.449 248.204 488.449 231.556C488.449 214.907 474.966 201.411 458.333 201.411C441.7 201.411 428.217 214.907 428.217 231.556C428.217 248.204 441.7 261.701 458.333 261.701Z" fill="#FFFDFD"/>
</g>
<path d="M453.871 229.411L445.184 239.294C445.084 239.407 444.901 239.365 444.86 239.218C444.777 238.928 444.736 238.627 444.736 238.326V224.804C444.736 224.124 444.948 223.463 445.332 222.913C445.391 222.825 445.515 222.807 445.603 222.872L453.842 229.14C453.93 229.205 453.942 229.329 453.871 229.411Z" fill="#0000FF"/>
<path d="M470.219 221.891L460.045 229.335C459.041 230.067 457.654 230.055 456.663 229.305L446.73 221.75C447.155 221.56 447.628 221.448 448.123 221.448C470.219 221.448 469.18 221.271 470.219 221.891Z" fill="#0000FF"/>
<path d="M471.925 224.804V238.326C471.925 238.792 471.824 239.253 471.635 239.678C471.535 239.909 471.222 239.95 471.063 239.755L463.243 230.256C462.877 229.813 462.96 229.151 463.426 228.815L470.845 223.392C471.151 223.167 471.588 223.303 471.718 223.658C471.854 224.024 471.925 224.414 471.925 224.81V224.804Z" fill="#0000FF"/>
<path d="M469.717 240.6C470.001 240.942 469.83 241.456 469.393 241.568C469.115 241.639 468.832 241.681 468.537 241.681H448.111C447.545 241.681 447.002 241.545 446.524 241.285C446.176 241.102 446.093 240.647 446.347 240.351L455.223 230.25C455.341 230.114 456.268 231.449 458.369 231.449C459.283 231.449 460.204 231.166 460.977 230.604C461.272 230.386 461.284 230.362 461.319 230.409L469.712 240.606L469.717 240.6Z" fill="#0000FF"/>
<g style="mix-blend-mode:multiply">
<path opacity="0.06" d="M409.698 167.809H285.769C266.016 167.809 250.005 151.783 250.005 132.011C250.005 112.239 266.016 96.2124 285.769 96.2124H409.698C429.451 96.2124 445.462 112.239 445.462 132.011C445.462 151.783 429.451 167.809 409.698 167.809Z" fill="url(#paint0_linear_718_5648)"/>
<path opacity="0.12" d="M409.721 166.941H285.751C266.483 166.941 250.861 151.304 250.861 132.017C250.861 112.729 266.483 97.0928 285.751 97.0928H409.721C428.99 97.0928 444.612 112.729 444.612 132.017C444.612 151.304 428.99 166.941 409.721 166.941Z" fill="url(#paint1_linear_718_5648)"/>
<path opacity="0.19" d="M409.739 166.067H285.728C266.937 166.067 251.705 150.82 251.705 132.011C251.705 113.202 266.937 97.9551 285.728 97.9551H409.739C428.53 97.9551 443.762 113.202 443.762 132.011C443.762 150.82 428.53 166.067 409.739 166.067Z" fill="url(#paint2_linear_718_5648)"/>
<path opacity="0.25" d="M409.763 165.193H285.71C267.403 165.193 252.561 150.336 252.561 132.011C252.561 113.687 267.403 98.8296 285.71 98.8296H409.763C428.07 98.8296 442.912 113.687 442.912 132.011C442.912 150.336 428.07 165.193 409.763 165.193Z" fill="url(#paint3_linear_718_5648)"/>
<path opacity="0.31" d="M409.78 164.324H285.687C267.858 164.324 253.41 149.857 253.41 132.017C253.41 114.171 267.864 99.7095 285.687 99.7095H409.78C427.609 99.7095 442.056 114.177 442.056 132.017C442.056 149.863 427.603 164.324 409.78 164.324Z" fill="url(#paint4_linear_718_5648)"/>
<path opacity="0.38" d="M409.804 163.45H285.669C268.324 163.45 254.26 149.373 254.26 132.011C254.26 114.649 268.324 100.572 285.669 100.572H409.804C427.149 100.572 441.212 114.649 441.212 132.011C441.212 149.373 427.149 163.45 409.804 163.45Z" fill="url(#paint5_linear_718_5648)"/>
<path opacity="0.44" d="M409.822 162.581H285.645C268.778 162.581 255.11 148.894 255.11 132.017C255.11 115.134 268.784 101.452 285.645 101.452H409.822C426.689 101.452 440.357 115.139 440.357 132.017C440.357 148.9 426.683 162.581 409.822 162.581Z" fill="url(#paint6_linear_718_5648)"/>
<path opacity="0.5" d="M409.845 161.707H285.628C269.245 161.707 255.96 148.41 255.96 132.011C255.96 115.612 269.245 102.315 285.628 102.315H409.845C426.228 102.315 439.513 115.612 439.513 132.011C439.513 148.41 426.228 161.707 409.845 161.707Z" fill="url(#paint7_linear_718_5648)"/>
<path opacity="0.56" d="M409.863 160.833H285.604C269.699 160.833 256.81 147.931 256.81 132.011C256.81 116.091 269.699 103.189 285.604 103.189H409.863C425.768 103.189 438.657 116.091 438.657 132.011C438.657 147.931 425.762 160.833 409.863 160.833Z" fill="url(#paint8_linear_718_5648)"/>
<path opacity="0.62" d="M409.887 159.965H285.586C270.165 159.965 257.66 147.453 257.66 132.011C257.66 116.575 270.159 104.063 285.586 104.063H409.887C425.308 104.063 437.813 116.575 437.813 132.011C437.813 147.447 425.308 159.965 409.887 159.965Z" fill="url(#paint9_linear_718_5648)"/>
<path opacity="0.69" d="M409.904 159.09H285.563C270.62 159.09 258.51 146.968 258.51 132.011C258.51 117.053 270.62 104.932 285.563 104.932H409.904C424.847 104.932 436.957 117.053 436.957 132.011C436.957 146.968 424.847 159.09 409.904 159.09Z" fill="url(#paint10_linear_718_5648)"/>
<path opacity="0.75" d="M409.928 158.222H285.545C271.086 158.222 259.365 146.49 259.365 132.017C259.365 117.544 271.086 105.812 285.545 105.812H409.928C424.387 105.812 436.108 117.544 436.108 132.017C436.108 146.49 424.387 158.222 409.928 158.222Z" fill="url(#paint11_linear_718_5648)"/>
<path opacity="0.81" d="M409.946 157.347H285.521C271.54 157.347 260.209 146.005 260.209 132.011C260.209 118.016 271.54 106.674 285.521 106.674H409.946C423.927 106.674 435.258 118.016 435.258 132.011C435.258 146.005 423.927 157.347 409.946 157.347Z" fill="url(#paint12_linear_718_5648)"/>
<path opacity="0.88" d="M409.969 156.479H285.504C272.007 156.479 261.065 145.527 261.065 132.017C261.065 118.507 272.007 107.555 285.504 107.555H409.969C423.466 107.555 434.408 118.507 434.408 132.017C434.408 145.527 423.466 156.479 409.969 156.479Z" fill="url(#paint13_linear_718_5648)"/>
<path opacity="0.94" d="M409.987 155.605H285.48C272.461 155.605 261.909 145.042 261.909 132.011C261.909 118.979 272.461 108.423 285.48 108.423H409.987C423.006 108.423 433.558 118.985 433.558 132.011C433.558 145.042 423.006 155.605 409.987 155.605Z" fill="url(#paint14_linear_718_5648)"/>
<path d="M410.01 154.731H285.462C272.927 154.731 262.765 144.558 262.765 132.011C262.765 119.464 272.927 109.292 285.462 109.292H410.01C422.546 109.292 432.708 119.464 432.708 132.011C432.708 144.558 422.546 154.731 410.01 154.731Z" fill="url(#paint15_linear_718_5648)"/>
</g>
<path d="M410.01 154.731H285.462C272.927 154.731 262.765 144.558 262.765 132.011C262.765 119.464 272.927 109.292 285.462 109.292H410.01C422.546 109.292 432.708 119.464 432.708 132.011C432.708 144.558 422.546 154.731 410.01 154.731Z" fill="white"/>
<path d="M287.87 145.84C279.962 145.84 273.553 139.425 273.553 131.509C273.553 123.599 279.962 117.178 287.87 117.178C295.778 117.178 302.188 123.593 302.188 131.509C302.188 139.425 295.778 145.84 287.87 145.84Z" fill="#0000FF"/>
<path d="M291.665 125.714C291.972 125.785 291.919 126.056 291.972 126.263C292.544 128.532 293.801 130.286 295.843 131.444C296.522 131.828 297.254 132.094 298.021 132.259C298.21 132.301 298.475 132.289 298.481 132.572C298.487 132.856 298.233 132.85 298.039 132.897C294.763 133.689 292.763 135.756 291.948 139.005C291.907 139.183 291.913 139.413 291.683 139.425C291.393 139.443 291.411 139.183 291.358 138.988C290.532 135.745 288.531 133.677 285.25 132.891C285.049 132.844 284.795 132.832 284.825 132.555C284.854 132.247 285.161 132.283 285.368 132.236C287.864 131.639 289.664 130.174 290.78 127.87C291.051 127.315 291.222 126.718 291.364 126.116C291.405 125.938 291.417 125.743 291.665 125.72V125.714Z" fill="white"/>
<path d="M283.113 122.051C283.662 124.29 284.972 125.726 287.191 126.169C287.18 126.476 286.997 126.476 286.855 126.511C285.002 127.013 283.816 128.195 283.267 130.032C283.22 130.192 283.267 130.451 283.013 130.44C282.812 130.434 282.848 130.197 282.807 130.05C282.287 128.195 281.089 127.031 279.242 126.511C279.1 126.47 278.894 126.494 278.894 126.269C278.894 126.121 279.047 126.121 279.153 126.098C281.195 125.578 282.405 124.267 282.889 122.234C282.895 122.199 282.954 122.175 283.108 122.051H283.113Z" fill="white"/>
<path d="M281.738 138.332C283.09 137.895 283.969 137.068 284.335 135.674C284.748 137.038 285.569 137.936 286.985 138.309C285.616 138.722 284.707 139.549 284.347 140.967C283.951 139.584 283.102 138.722 281.732 138.332H281.738Z" fill="white"/>
<path d="M374.73 126.748H312.315C310.229 126.748 308.538 128.44 308.538 130.528V133.494C308.538 135.582 310.229 137.274 312.315 137.274H374.73C376.817 137.274 378.508 135.582 378.508 133.494V130.528C378.508 128.44 376.817 126.748 374.73 126.748Z" fill="#DCD8D8"/>
<path d="M417.417 123.835H394.625C391.385 123.835 388.759 126.464 388.759 129.707V134.315C388.759 137.558 391.385 140.187 394.625 140.187H417.417C420.657 140.187 423.283 137.558 423.283 134.315V129.707C423.283 126.464 420.657 123.835 417.417 123.835Z" fill="#DCD8D8"/>
<path d="M398.29 138.361C401.794 138.361 404.634 135.518 404.634 132.011C404.634 128.504 401.794 125.661 398.29 125.661C394.786 125.661 391.946 128.504 391.946 132.011C391.946 135.518 394.786 138.361 398.29 138.361Z" fill="white"/>
</g>
<defs>
<filter id="filter0_d_718_5648" x="0.649181" y="37.7207" width="88.2321" height="88.29" filterUnits="userSpaceOnUse" color-interpolation-filters="sRGB">
<feFlood flood-opacity="0" result="BackgroundImageFix"/>
<feColorMatrix in="SourceAlpha" type="matrix" values="0 0 0 0 0 0 0 0 0 0 0 0 0 0 0 0 0 0 127 0" result="hardAlpha"/>
<feOffset dx="5" dy="5"/>
<feGaussianBlur stdDeviation="7"/>
<feColorMatrix type="matrix" values="0 0 0 0 0.658824 0 0 0 0 0.658824 0 0 0 0 0.658824 0 0 0 0.25 0"/>
<feBlend mode="normal" in2="BackgroundImageFix" result="effect1_dropShadow_718_5648"/>
<feBlend mode="normal" in="SourceGraphic" in2="effect1_dropShadow_718_5648" result="shape"/>
</filter>
<filter id="filter1_d_718_5648" x="94.2197" y="1.00684" width="227.487" height="397.362" filterUnits="userSpaceOnUse" color-interpolation-filters="sRGB">
<feFlood flood-opacity="0" result="BackgroundImageFix"/>
<feColorMatrix in="SourceAlpha" type="matrix" values="0 0 0 0 0 0 0 0 0 0 0 0 0 0 0 0 0 0 127 0" result="hardAlpha"/>
<feOffset dx="5" dy="5"/>
<feGaussianBlur stdDeviation="7"/>
<feColorMatrix type="matrix" values="0 0 0 0 0.658824 0 0 0 0 0.658824 0 0 0 0 0.658824 0 0 0 0.25 0"/>
<feBlend mode="normal" in2="BackgroundImageFix" result="effect1_dropShadow_718_5648"/>
<feBlend mode="normal" in="SourceGraphic" in2="effect1_dropShadow_718_5648" result="shape"/>
</filter>
<filter id="filter2_d_718_5648" x="45.3777" y="192.411" width="88.2321" height="88.29" filterUnits="userSpaceOnUse" color-interpolation-filters="sRGB">
<feFlood flood-opacity="0" result="BackgroundImageFix"/>
<feColorMatrix in="SourceAlpha" type="matrix" values="0 0 0 0 0 0 0 0 0 0 0 0 0 0 0 0 0 0 127 0" result="hardAlpha"/>
<feOffset dx="5" dy="5"/>
<feGaussianBlur stdDeviation="7"/>
<feColorMatrix type="matrix" values="0 0 0 0 0.658824 0 0 0 0 0.658824 0 0 0 0 0.658824 0 0 0 0.25 0"/>
<feBlend mode="normal" in2="BackgroundImageFix" result="effect1_dropShadow_718_5648"/>
<feBlend mode="normal" in="SourceGraphic" in2="effect1_dropShadow_718_5648" result="shape"/>
</filter>
<filter id="filter3_d_718_5648" x="225.496" y="213.671" width="251.837" height="248.527" filterUnits="userSpaceOnUse" color-interpolation-filters="sRGB">
<feFlood flood-opacity="0" result="BackgroundImageFix"/>
<feColorMatrix in="SourceAlpha" type="matrix" values="0 0 0 0 0 0 0 0 0 0 0 0 0 0 0 0 0 0 127 0" result="hardAlpha"/>
<feOffset dx="5" dy="5"/>
<feGaussianBlur stdDeviation="7"/>
<feColorMatrix type="matrix" values="0 0 0 0 0.658824 0 0 0 0 0.658824 0 0 0 0 0.658824 0 0 0 0.25 0"/>
<feBlend mode="normal" in2="BackgroundImageFix" result="effect1_dropShadow_718_5648"/>
<feBlend mode="normal" in="SourceGraphic" in2="effect1_dropShadow_718_5648" result="shape"/>
</filter>
<filter id="filter4_d_718_5648" x="419.217" y="192.411" width="88.2321" height="88.29" filterUnits="userSpaceOnUse" color-interpolation-filters="sRGB">
<feFlood flood-opacity="0" result="BackgroundImageFix"/>
<feColorMatrix in="SourceAlpha" type="matrix" values="0 0 0 0 0 0 0 0 0 0 0 0 0 0 0 0 0 0 127 0" result="hardAlpha"/>
<feOffset dx="5" dy="5"/>
<feGaussianBlur stdDeviation="7"/>
<feColorMatrix type="matrix" values="0 0 0 0 0.658824 0 0 0 0 0.658824 0 0 0 0 0.658824 0 0 0 0.25 0"/>
<feBlend mode="normal" in2="BackgroundImageFix" result="effect1_dropShadow_718_5648"/>
<feBlend mode="normal" in="SourceGraphic" in2="effect1_dropShadow_718_5648" result="shape"/>
</filter>
<linearGradient id="paint0_linear_718_5648" x1="280.281" y1="81.2728" x2="412.965" y2="180.877" gradientUnits="userSpaceOnUse">
<stop stop-color="white"/>
<stop offset="0.75" stop-color="#E3E7F4"/>
<stop offset="1" stop-color="#D9DFF1"/>
</linearGradient>
<linearGradient id="paint1_linear_718_5648" x1="281.166" y1="81.716" x2="412.233" y2="180.554" gradientUnits="userSpaceOnUse">
<stop stop-color="white"/>
<stop offset="0.72" stop-color="#E3E8F5"/>
<stop offset="1" stop-color="#D8DFF1"/>
</linearGradient>
<linearGradient id="paint2_linear_718_5648" x1="282.057" y1="82.1589" x2="411.494" y2="180.219" gradientUnits="userSpaceOnUse">
<stop stop-color="white"/>
<stop offset="0.7" stop-color="#E4E8F4"/>
<stop offset="1" stop-color="#D8DEF0"/>
</linearGradient>
<linearGradient id="paint3_linear_718_5648" x1="282.942" y1="82.6021" x2="410.762" y2="179.883" gradientUnits="userSpaceOnUse">
<stop stop-color="white"/>
<stop offset="0.67" stop-color="#E5E9F5"/>
<stop offset="1" stop-color="#D7DDF0"/>
</linearGradient>
<linearGradient id="paint4_linear_718_5648" x1="283.822" y1="83.0508" x2="410.024" y2="179.542" gradientUnits="userSpaceOnUse">
<stop stop-color="white"/>
<stop offset="0.65" stop-color="#E5EAF5"/>
<stop offset="1" stop-color="#D6DDEF"/>
</linearGradient>
<linearGradient id="paint5_linear_718_5648" x1="284.701" y1="83.506" x2="409.291" y2="179.195" gradientUnits="userSpaceOnUse">
<stop stop-color="white"/>
<stop offset="0.62" stop-color="#E6EAF4"/>
<stop offset="1" stop-color="#D5DCEE"/>
</linearGradient>
<linearGradient id="paint6_linear_718_5648" x1="285.574" y1="83.9605" x2="408.553" y2="178.842" gradientUnits="userSpaceOnUse">
<stop stop-color="white"/>
<stop offset="0.6" stop-color="#E6EBF5"/>
<stop offset="1" stop-color="#D4DCEE"/>
</linearGradient>
<linearGradient id="paint7_linear_718_5648" x1="286.448" y1="84.4216" x2="407.814" y2="178.483" gradientUnits="userSpaceOnUse">
<stop stop-color="white"/>
<stop offset="0.59" stop-color="#E7EBF5"/>
<stop offset="1" stop-color="#D4DBED"/>
</linearGradient>
<linearGradient id="paint8_linear_718_5648" x1="287.315" y1="84.8821" x2="407.082" y2="178.124" gradientUnits="userSpaceOnUse">
<stop stop-color="white"/>
<stop offset="0.57" stop-color="#E7EBF4"/>
<stop offset="1" stop-color="#D3DAEC"/>
</linearGradient>
<linearGradient id="paint9_linear_718_5648" x1="288.183" y1="85.349" x2="406.344" y2="177.759" gradientUnits="userSpaceOnUse">
<stop stop-color="white"/>
<stop offset="0.55" stop-color="#E8ECF5"/>
<stop offset="1" stop-color="#D2DAEC"/>
</linearGradient>
<linearGradient id="paint10_linear_718_5648" x1="289.051" y1="85.8155" x2="405.605" y2="177.388" gradientUnits="userSpaceOnUse">
<stop stop-color="white"/>
<stop offset="0.53" stop-color="#E8ECF5"/>
<stop offset="1" stop-color="#D1D9EB"/>
</linearGradient>
<linearGradient id="paint11_linear_718_5648" x1="289.906" y1="86.2883" x2="404.867" y2="177.012" gradientUnits="userSpaceOnUse">
<stop stop-color="white"/>
<stop offset="0.51" stop-color="#E9EDF5"/>
<stop offset="1" stop-color="#D0D9EB"/>
</linearGradient>
<linearGradient id="paint12_linear_718_5648" x1="290.768" y1="86.7607" x2="404.128" y2="176.635" gradientUnits="userSpaceOnUse">
<stop stop-color="white"/>
<stop offset="0.49" stop-color="#E9EDF5"/>
<stop offset="1" stop-color="#CFD8EA"/>
</linearGradient>
<linearGradient id="paint13_linear_718_5648" x1="291.624" y1="87.2394" x2="403.39" y2="176.246" gradientUnits="userSpaceOnUse">
<stop stop-color="white"/>
<stop offset="0.49" stop-color="#E9EDF5"/>
<stop offset="1" stop-color="#CFD7E9"/>
</linearGradient>
<linearGradient id="paint14_linear_718_5648" x1="292.473" y1="87.7176" x2="402.652" y2="175.858" gradientUnits="userSpaceOnUse">
<stop stop-color="white"/>
<stop offset="0.47" stop-color="#EAEEF5"/>
<stop offset="1" stop-color="#CED7E9"/>
</linearGradient>
<linearGradient id="paint15_linear_718_5648" x1="293.323" y1="88.2023" x2="401.913" y2="175.464" gradientUnits="userSpaceOnUse">
<stop stop-color="white"/>
<stop offset="0.46" stop-color="#EAEEF5"/>
<stop offset="1" stop-color="#CDD6E8"/>
</linearGradient>
<clipPath id="clip0_718_5648">
<rect width="504" height="459" fill="white"/>
</clipPath>
</defs>
</svg>
