<svg width="427" height="493" viewBox="0 0 427 493" fill="none" xmlns="http://www.w3.org/2000/svg">
<g clip-path="url(#clip0_718_5115)">
<g filter="url(#filter0_d_718_5115)">
<path d="M218.966 10.2412H20.9258C15.6235 10.2412 11.3252 14.541 11.3252 19.845V332.197C11.3252 337.501 15.6235 341.801 20.9258 341.801H218.966C224.268 341.801 228.566 337.501 228.566 332.197V19.845C228.566 14.541 224.268 10.2412 218.966 10.2412Z" fill="white"/>
</g>
<path d="M228.566 38.0529V16.8083C228.566 13.178 225.624 10.2412 222.002 10.2412H17.8901C14.261 10.2412 11.3252 13.1842 11.3252 16.8083V38.0529H228.566Z" fill="#0000FF"/>
<path d="M32.0192 24.2126C31.9818 26.9681 29.7143 29.1738 26.9597 29.1301C24.2051 29.0863 22.0001 26.8244 22.0439 24.0689C22.0813 21.3383 24.305 19.1514 27.0347 19.1514C29.808 19.1701 32.0442 21.4383 32.0255 24.2126" fill="white"/>
<path d="M51.639 24.2126C51.6015 26.9681 49.3341 29.1738 46.5795 29.1301C43.8248 29.0863 41.6199 26.8244 41.6636 24.0689C41.7011 21.3383 43.9248 19.1514 46.6544 19.1514C49.4278 19.1701 51.664 21.4383 51.6452 24.2126" fill="white"/>
<path d="M70.2594 24.2126C70.2219 26.9681 67.9545 29.1738 65.1998 29.1301C62.4452 29.0863 60.2402 26.8244 60.284 24.0689C60.3214 21.3383 62.5451 19.1514 65.2748 19.1514C68.0482 19.1701 70.2843 21.4383 70.2656 24.2126" fill="white"/>
<g filter="url(#filter1_d_718_5115)">
<path d="M276.744 48.2939H387.761C401.384 48.2939 412.434 59.3411 412.434 72.9752C412.434 86.603 401.39 97.6564 387.761 97.6564H276.744C263.121 97.6564 252.071 86.6092 252.071 72.9752C252.071 59.3474 263.115 48.2939 276.744 48.2939Z" fill="white"/>
</g>
<path d="M306.571 60.6348H370.714C373.438 60.6348 375.649 62.8467 375.649 65.571C375.649 68.2953 373.438 70.5073 370.714 70.5073H306.571C303.847 70.5073 301.636 68.2953 301.636 65.571C301.636 62.8467 303.847 60.6348 306.571 60.6348Z" fill="#DCD8D8"/>
<path d="M306.571 76.2617H327.127C329.851 76.2617 332.062 78.4737 332.062 81.198C332.062 83.9223 329.851 86.1342 327.127 86.1342H306.571C303.847 86.1342 301.636 83.9223 301.636 81.198C301.636 78.4737 303.847 76.2617 306.571 76.2617Z" fill="#DCD8D8"/>
<path d="M75.1939 65.6709H204.143C206.867 65.6709 209.078 67.8828 209.078 70.6071C209.078 73.3315 206.867 75.5434 204.143 75.5434H75.1939C72.4705 75.5434 70.2593 73.3315 70.2593 70.6071C70.2593 67.8828 72.4705 65.6709 75.1939 65.6709Z" fill="#DCD8D8"/>
<path d="M75.1939 81.3042H160.556C163.28 81.3042 165.491 83.5161 165.491 86.2405C165.491 88.9648 163.28 91.1767 160.556 91.1767H75.1939C72.4705 91.1767 70.2593 88.9648 70.2593 86.2405C70.2593 83.5161 72.4705 81.3042 75.1939 81.3042Z" fill="#DCD8D8"/>
<g filter="url(#filter2_d_718_5115)">
<path d="M44.4557 94.0947C54.3013 94.0947 62.2827 86.1106 62.2827 76.2617C62.2827 66.4128 54.3013 58.4287 44.4557 58.4287C34.6101 58.4287 26.6287 66.4128 26.6287 76.2617C26.6287 86.1106 34.6101 94.0947 44.4557 94.0947Z" fill="#FE7A05"/>
</g>
<path d="M75.1939 116.42H204.143C206.867 116.42 209.078 118.632 209.078 121.357C209.078 124.081 206.867 126.293 204.143 126.293H75.1939C72.4705 126.293 70.2593 124.081 70.2593 121.357C70.2593 118.632 72.4705 116.42 75.1939 116.42Z" fill="#DCD8D8"/>
<path d="M75.1939 132.048H160.556C163.28 132.048 165.491 134.26 165.491 136.984C165.491 139.708 163.28 141.92 160.556 141.92H75.1939C72.4705 141.92 70.2593 139.708 70.2593 136.984C70.2593 134.26 72.4705 132.048 75.1939 132.048Z" fill="#DCD8D8"/>
<path d="M44.4557 144.845C54.3013 144.845 62.2827 136.861 62.2827 127.012C62.2827 117.163 54.3013 109.179 44.4557 109.179C34.6101 109.179 26.6287 117.163 26.6287 127.012C26.6287 136.861 34.6101 144.845 44.4557 144.845Z" fill="#DCD8D8"/>
<path d="M75.1939 167.164H204.143C206.867 167.164 209.078 169.376 209.078 172.1C209.078 174.825 206.867 177.037 204.143 177.037H75.1939C72.4705 177.037 70.2593 174.825 70.2593 172.1C70.2593 169.376 72.4705 167.164 75.1939 167.164Z" fill="#DCD8D8"/>
<path d="M75.1939 182.797H160.556C163.28 182.797 165.491 185.009 165.491 187.734C165.491 190.458 163.28 192.67 160.556 192.67H75.1939C72.4705 192.67 70.2593 190.458 70.2593 187.734C70.2593 185.009 72.4705 182.797 75.1939 182.797Z" fill="#DCD8D8"/>
<path d="M44.4557 195.588C54.3013 195.588 62.2827 187.604 62.2827 177.755C62.2827 167.906 54.3013 159.922 44.4557 159.922C34.6101 159.922 26.6287 167.906 26.6287 177.755C26.6287 187.604 34.6101 195.588 44.4557 195.588Z" fill="#DCD8D8"/>
<path d="M75.1939 225.155H204.143C206.867 225.155 209.078 227.367 209.078 230.092C209.078 232.816 206.867 235.028 204.143 235.028H75.1939C72.4705 235.028 70.2593 232.816 70.2593 230.092C70.2593 227.367 72.4705 225.155 75.1939 225.155Z" fill="#DCD8D8"/>
<path d="M75.1939 240.783H160.556C163.28 240.783 165.491 242.995 165.491 245.719C165.491 248.443 163.28 250.655 160.556 250.655H75.1939C72.4705 250.655 70.2593 248.443 70.2593 245.719C70.2593 242.995 72.4705 240.783 75.1939 240.783Z" fill="#DCD8D8"/>
<path d="M44.4557 253.58C54.3013 253.58 62.2827 245.595 62.2827 235.747C62.2827 225.898 54.3013 217.914 44.4557 217.914C34.6101 217.914 26.6287 225.898 26.6287 235.747C26.6287 245.595 34.6101 253.58 44.4557 253.58Z" fill="#DCD8D8"/>
<path d="M75.1939 283.141H204.143C206.867 283.141 209.078 285.353 209.078 288.077C209.078 290.801 206.867 293.013 204.143 293.013H75.1939C72.4705 293.013 70.2593 290.801 70.2593 288.077C70.2593 285.353 72.4705 283.141 75.1939 283.141Z" fill="#DCD8D8"/>
<path d="M75.1939 298.774H160.556C163.28 298.774 165.491 300.986 165.491 303.71C165.491 306.434 163.28 308.646 160.556 308.646H75.1939C72.4705 308.646 70.2593 306.434 70.2593 303.71C70.2593 300.986 72.4705 298.774 75.1939 298.774Z" fill="#DCD8D8"/>
<path d="M44.4557 311.565C54.3013 311.565 62.2827 303.581 62.2827 293.732C62.2827 283.883 54.3013 275.899 44.4557 275.899C34.6101 275.899 26.6287 283.883 26.6287 293.732C26.6287 303.581 34.6101 311.565 44.4557 311.565Z" fill="#DCD8D8"/>
<path d="M291.729 82.7539C291.436 82.8226 291.298 82.8726 291.28 82.8476C288.706 79.0048 284.902 78.7549 280.761 78.9673C276.594 79.186 272.409 78.9673 268.231 79.0423C266.863 79.0673 266.207 78.8736 266.257 77.249C266.375 73.0751 266.338 68.9011 266.269 64.7272C266.251 63.4963 266.575 63.0776 267.868 63.0901C275.264 63.1464 282.666 63.1214 290.062 63.1089C290.974 63.1089 291.754 63.0276 291.748 64.3835C291.698 70.5257 291.729 76.6617 291.729 82.7539Z" fill="#FF9C04"/>
<path d="M288.931 72.8562C286.464 72.8562 283.996 72.8562 281.529 72.8562C278.318 72.8562 275.102 72.8624 271.891 72.8437C271.429 72.8437 270.698 73.0499 270.735 72.2563C270.767 71.494 271.491 71.7377 271.947 71.7315C277.332 71.7127 282.716 71.719 288.1 71.7315C288.394 71.7315 288.681 71.9314 288.968 72.0314C288.956 72.3001 288.943 72.575 288.931 72.8437V72.8562Z" fill="white"/>
<path d="M275.514 68.0513C274.208 68.0513 272.903 68.0513 271.597 68.0513C271.148 68.0513 270.704 68.0075 270.729 67.4014C270.76 66.7766 271.223 66.8328 271.666 66.8328C274.19 66.8391 276.713 66.8391 279.237 66.8391C279.655 66.8391 280.161 66.7204 280.217 67.3452C280.292 68.17 279.655 68.045 279.168 68.0513C277.95 68.0638 276.732 68.0513 275.514 68.0513Z" fill="white"/>
<path d="M44.4432 84.9533C42.3257 84.9533 40.2145 84.9533 38.097 84.9533C37.4473 84.9533 37.2225 84.6971 37.2787 84.0535C37.5285 81.3417 37.7659 78.6236 38.0095 75.9118C38.1094 74.7871 38.2094 73.6561 38.3218 72.5314C38.3718 72.0565 38.5779 71.8816 39.0589 71.8753C39.646 71.8691 40.2332 71.8628 40.8204 71.8753C41.0515 71.8753 41.1327 71.8191 41.1264 71.5754C41.1139 71.1568 41.1014 70.7381 41.1764 70.3257C41.4637 68.6574 42.9691 67.4702 44.6806 67.5764C46.3421 67.6826 47.7101 69.0823 47.7663 70.7569C47.7788 71.038 47.785 71.3255 47.7663 71.6067C47.7538 71.8128 47.8225 71.8816 48.0286 71.8816C48.6033 71.8691 49.1842 71.8753 49.7589 71.8816C50.3273 71.8816 50.5209 72.044 50.5771 72.6002C50.7583 74.5059 50.9207 76.4054 51.0956 78.3112C51.2642 80.217 51.4329 82.1165 51.614 84.0223C51.6765 84.7096 51.4704 84.9595 50.777 84.9595C48.6595 84.9595 46.5482 84.9595 44.4307 84.9595L44.4432 84.9533ZM44.437 83.7098C46.2796 83.7098 48.1223 83.7036 49.965 83.7161C50.2773 83.7161 50.3335 83.6348 50.3085 83.3349C50.1524 81.7228 50.0212 80.1107 49.8775 78.5049C49.7276 76.7928 49.5652 75.0808 49.4153 73.3687C49.3966 73.1688 49.3216 73.125 49.1405 73.1313C48.7657 73.1438 48.3909 73.1438 48.0224 73.1313C47.8225 73.125 47.7725 73.2 47.7788 73.3874C47.7913 73.6686 47.7913 73.9561 47.7788 74.2372C47.76 74.6121 47.5102 74.8621 47.1604 74.8621C46.8043 74.8621 46.5607 74.6246 46.542 74.2372C46.5295 73.9436 46.5295 73.6499 46.542 73.3562C46.542 73.2 46.4983 73.1313 46.3296 73.1375C45.0866 73.1375 43.8436 73.1375 42.5943 73.1375C42.4319 73.1375 42.3757 73.2 42.3757 73.3562C42.3819 73.6249 42.3819 73.8998 42.3757 74.1685C42.3632 74.6059 42.1321 74.8621 41.7573 74.8621C41.3825 74.8621 41.1389 74.5996 41.1327 74.1685C41.1327 73.9061 41.1202 73.6499 41.1327 73.3874C41.1389 73.2062 41.0952 73.125 40.8953 73.1313C40.5143 73.1438 40.127 73.1438 39.7397 73.1313C39.5648 73.1313 39.5149 73.1875 39.4961 73.3625C39.2026 76.7054 38.909 80.0545 38.5967 83.3974C38.5717 83.6786 38.6591 83.7161 38.9027 83.7098C40.7454 83.7036 42.5881 83.7098 44.4307 83.7098H44.437ZM44.4245 71.8753C45.0366 71.8753 45.6425 71.8691 46.2547 71.8753C46.4795 71.8753 46.5545 71.8066 46.542 71.5817C46.517 71.2567 46.542 70.9256 46.5045 70.6007C46.3796 69.5884 45.5051 68.8261 44.4807 68.8136C43.4501 68.8011 42.5443 69.5759 42.4194 70.6007C42.3819 70.9131 42.4069 71.2317 42.3819 71.5442C42.3632 71.7941 42.4382 71.8816 42.7005 71.8753C43.2752 71.8566 43.8498 71.8753 44.4307 71.8753H44.4245Z" fill="#FDE6CC"/>
<g filter="url(#filter3_d_718_5115)">
<path d="M343.499 144.776H145.459C140.157 144.776 135.858 149.076 135.858 154.38V466.732C135.858 472.036 140.157 476.336 145.459 476.336H343.499C348.801 476.336 353.1 472.036 353.1 466.732V154.38C353.1 149.076 348.801 144.776 343.499 144.776Z" fill="white"/>
</g>
<path d="M353.1 172.594V151.349C353.1 147.719 350.158 144.782 346.535 144.782H142.423C138.794 144.782 135.858 147.725 135.858 151.349V172.594H353.1Z" fill="#0000FF"/>
<path d="M156.552 158.754C156.515 161.509 154.248 163.715 151.493 163.671C148.738 163.627 146.533 161.365 146.577 158.61C146.615 155.879 148.838 153.692 151.568 153.692C154.341 153.711 156.577 155.979 156.559 158.754" fill="white"/>
<path d="M176.172 158.754C176.135 161.509 173.867 163.715 171.113 163.671C168.358 163.627 166.153 161.365 166.197 158.61C166.234 155.879 168.458 153.692 171.188 153.692C173.961 153.711 176.197 155.979 176.178 158.754" fill="white"/>
<path d="M194.793 158.754C194.755 161.509 192.488 163.715 189.733 163.671C186.978 163.627 184.773 161.365 184.817 158.61C184.855 155.879 187.078 153.692 189.808 153.692C192.581 153.711 194.817 155.979 194.799 158.754" fill="white"/>
<path d="M210.052 219.5H339.002C341.725 219.5 343.936 221.712 343.936 224.437C343.936 227.161 341.725 229.373 339.002 229.373H210.052C207.329 229.373 205.118 227.161 205.118 224.437C205.118 221.712 207.329 219.5 210.052 219.5Z" fill="#DCD8D8"/>
<path d="M210.052 235.128H295.415C298.138 235.128 300.349 237.34 300.349 240.064C300.349 242.789 298.138 245 295.415 245H210.052C207.329 245 205.118 242.789 205.118 240.064C205.118 237.34 207.329 235.128 210.052 235.128Z" fill="#DCD8D8"/>
<path d="M161.487 189.489H338.995C341.719 189.489 343.93 191.701 343.93 194.426C343.93 197.15 341.719 199.362 338.995 199.362H161.487C158.764 199.362 156.552 197.15 156.552 194.426C156.552 191.701 158.764 189.489 161.487 189.489Z" fill="#DCD8D8"/>
<g filter="url(#filter4_d_718_5115)">
<path d="M174.379 247.925C184.225 247.925 192.207 239.941 192.207 230.092C192.207 220.243 184.225 212.259 174.379 212.259C164.534 212.259 156.552 220.243 156.552 230.092C156.552 239.941 164.534 247.925 174.379 247.925Z" fill="#FE7A05"/>
</g>
<path d="M174.367 238.783C172.249 238.783 170.138 238.783 168.021 238.783C167.371 238.783 167.146 238.527 167.202 237.884C167.452 235.172 167.69 232.454 167.933 229.742C168.033 228.617 168.133 227.486 168.246 226.361C168.296 225.887 168.502 225.712 168.983 225.705C169.57 225.699 170.157 225.693 170.744 225.705C170.975 225.705 171.056 225.649 171.05 225.405C171.038 224.987 171.025 224.568 171.1 224.156C171.387 222.487 172.893 221.3 174.604 221.407C176.266 221.513 177.634 222.912 177.69 224.587C177.703 224.868 177.709 225.156 177.69 225.437C177.678 225.643 177.746 225.712 177.952 225.712C178.527 225.699 179.108 225.705 179.683 225.712C180.251 225.712 180.445 225.874 180.501 226.43C180.682 228.336 180.844 230.236 181.019 232.141C181.188 234.047 181.357 235.947 181.538 237.852C181.6 238.54 181.394 238.79 180.701 238.79C178.583 238.79 176.472 238.79 174.354 238.79L174.367 238.783ZM174.361 237.54C176.203 237.54 178.046 237.534 179.889 237.546C180.201 237.546 180.257 237.465 180.232 237.165C180.076 235.553 179.945 233.941 179.801 232.335C179.651 230.623 179.489 228.911 179.339 227.199C179.32 226.999 179.245 226.955 179.064 226.961C178.689 226.974 178.315 226.974 177.946 226.961C177.746 226.955 177.696 227.03 177.703 227.218C177.715 227.499 177.715 227.786 177.703 228.067C177.684 228.442 177.434 228.692 177.084 228.692C176.728 228.692 176.484 228.455 176.466 228.067C176.453 227.774 176.453 227.48 176.466 227.186C176.466 227.03 176.422 226.961 176.253 226.968C175.01 226.968 173.767 226.968 172.518 226.968C172.356 226.968 172.299 227.03 172.299 227.186C172.306 227.455 172.306 227.73 172.299 227.999C172.287 228.436 172.056 228.692 171.681 228.692C171.306 228.692 171.063 228.43 171.056 227.999C171.056 227.736 171.044 227.48 171.056 227.218C171.063 227.036 171.019 226.955 170.819 226.961C170.438 226.974 170.051 226.974 169.664 226.961C169.489 226.961 169.439 227.018 169.42 227.193C169.126 230.535 168.833 233.885 168.52 237.227C168.495 237.509 168.583 237.546 168.826 237.54C170.669 237.534 172.512 237.54 174.354 237.54H174.361ZM174.348 225.699C174.96 225.699 175.566 225.693 176.178 225.699C176.403 225.699 176.478 225.63 176.466 225.405C176.441 225.081 176.466 224.749 176.428 224.424C176.303 223.412 175.429 222.65 174.404 222.637C173.374 222.625 172.468 223.4 172.343 224.424C172.306 224.737 172.331 225.056 172.306 225.368C172.287 225.618 172.362 225.705 172.624 225.699C173.199 225.68 173.774 225.699 174.354 225.699H174.348Z" fill="#FDE6CC"/>
<path d="M222.002 271.831H155.128C151.913 271.831 149.307 274.438 149.307 277.655V388.483C149.307 391.699 151.913 394.306 155.128 394.306H222.002C225.217 394.306 227.823 391.699 227.823 388.483V277.655C227.823 274.438 225.217 271.831 222.002 271.831Z" fill="#DCD8D8"/>
<path d="M295.24 424.217H191.338C183.456 424.217 177.065 430.61 177.065 438.495V438.501C177.065 446.387 183.456 452.779 191.338 452.779H295.24C303.122 452.779 309.513 446.387 309.513 438.501V438.495C309.513 430.61 303.122 424.217 295.24 424.217Z" fill="#DCD8D8"/>
<path d="M334.542 288.82H248.399C245.577 288.82 243.289 291.109 243.289 293.932C243.289 296.754 245.577 299.043 248.399 299.043H334.542C337.364 299.043 339.651 296.754 339.651 293.932C339.651 291.109 337.364 288.82 334.542 288.82Z" fill="#DCD8D8"/>
<path d="M316.827 309.978H248.399C245.577 309.978 243.289 312.266 243.289 315.089C243.289 317.912 245.577 320.2 248.399 320.2H316.827C319.649 320.2 321.937 317.912 321.937 315.089C321.937 312.266 319.649 309.978 316.827 309.978Z" fill="#DCD8D8"/>
<path d="M286.358 331.128H248.399C245.577 331.128 243.289 333.417 243.289 336.24C243.289 339.062 245.577 341.351 248.399 341.351H286.358C289.179 341.351 291.467 339.062 291.467 336.24C291.467 333.417 289.179 331.128 286.358 331.128Z" fill="#DCD8D8"/>
</g>
<defs>
<filter id="filter0_d_718_5115" x="2.3252" y="1.24121" width="245.241" height="359.56" filterUnits="userSpaceOnUse" color-interpolation-filters="sRGB">
<feFlood flood-opacity="0" result="BackgroundImageFix"/>
<feColorMatrix in="SourceAlpha" type="matrix" values="0 0 0 0 0 0 0 0 0 0 0 0 0 0 0 0 0 0 127 0" result="hardAlpha"/>
<feOffset dx="5" dy="5"/>
<feGaussianBlur stdDeviation="7"/>
<feColorMatrix type="matrix" values="0 0 0 0 0 0 0 0 0 0 0 0 0 0 0 0 0 0 0.25 0"/>
<feBlend mode="normal" in2="BackgroundImageFix" result="effect1_dropShadow_718_5115"/>
<feBlend mode="normal" in="SourceGraphic" in2="effect1_dropShadow_718_5115" result="shape"/>
</filter>
<filter id="filter1_d_718_5115" x="249.071" y="45.2939" width="180.362" height="69.3623" filterUnits="userSpaceOnUse" color-interpolation-filters="sRGB">
<feFlood flood-opacity="0" result="BackgroundImageFix"/>
<feColorMatrix in="SourceAlpha" type="matrix" values="0 0 0 0 0 0 0 0 0 0 0 0 0 0 0 0 0 0 127 0" result="hardAlpha"/>
<feOffset dx="7" dy="7"/>
<feGaussianBlur stdDeviation="5"/>
<feColorMatrix type="matrix" values="0 0 0 0 0.658824 0 0 0 0 0.658824 0 0 0 0 0.658824 0 0 0 0.25 0"/>
<feBlend mode="normal" in2="BackgroundImageFix" result="effect1_dropShadow_718_5115"/>
<feBlend mode="normal" in="SourceGraphic" in2="effect1_dropShadow_718_5115" result="shape"/>
</filter>
<filter id="filter2_d_718_5115" x="14.6287" y="46.4287" width="59.6541" height="59.666" filterUnits="userSpaceOnUse" color-interpolation-filters="sRGB">
<feFlood flood-opacity="0" result="BackgroundImageFix"/>
<feColorMatrix in="SourceAlpha" type="matrix" values="0 0 0 0 0 0 0 0 0 0 0 0 0 0 0 0 0 0 127 0" result="hardAlpha"/>
<feOffset/>
<feGaussianBlur stdDeviation="6"/>
<feColorMatrix type="matrix" values="0 0 0 0 0.658824 0 0 0 0 0.658824 0 0 0 0 0.658824 0 0 0 0.45 0"/>
<feBlend mode="normal" in2="BackgroundImageFix" result="effect1_dropShadow_718_5115"/>
<feBlend mode="normal" in="SourceGraphic" in2="effect1_dropShadow_718_5115" result="shape"/>
</filter>
<filter id="filter3_d_718_5115" x="126.858" y="135.776" width="245.241" height="359.56" filterUnits="userSpaceOnUse" color-interpolation-filters="sRGB">
<feFlood flood-opacity="0" result="BackgroundImageFix"/>
<feColorMatrix in="SourceAlpha" type="matrix" values="0 0 0 0 0 0 0 0 0 0 0 0 0 0 0 0 0 0 127 0" result="hardAlpha"/>
<feOffset dx="5" dy="5"/>
<feGaussianBlur stdDeviation="7"/>
<feColorMatrix type="matrix" values="0 0 0 0 0 0 0 0 0 0 0 0 0 0 0 0 0 0 0.25 0"/>
<feBlend mode="normal" in2="BackgroundImageFix" result="effect1_dropShadow_718_5115"/>
<feBlend mode="normal" in="SourceGraphic" in2="effect1_dropShadow_718_5115" result="shape"/>
</filter>
<filter id="filter4_d_718_5115" x="144.552" y="200.259" width="59.6541" height="59.666" filterUnits="userSpaceOnUse" color-interpolation-filters="sRGB">
<feFlood flood-opacity="0" result="BackgroundImageFix"/>
<feColorMatrix in="SourceAlpha" type="matrix" values="0 0 0 0 0 0 0 0 0 0 0 0 0 0 0 0 0 0 127 0" result="hardAlpha"/>
<feOffset/>
<feGaussianBlur stdDeviation="6"/>
<feColorMatrix type="matrix" values="0 0 0 0 0.658824 0 0 0 0 0.658824 0 0 0 0 0.658824 0 0 0 0.45 0"/>
<feBlend mode="normal" in2="BackgroundImageFix" result="effect1_dropShadow_718_5115"/>
<feBlend mode="normal" in="SourceGraphic" in2="effect1_dropShadow_718_5115" result="shape"/>
</filter>
<clipPath id="clip0_718_5115">
<rect width="426" height="493" fill="white" transform="translate(0.750122)"/>
</clipPath>
</defs>
</svg>
