<svg width="380" height="476" viewBox="0 0 380 476" fill="none" xmlns="http://www.w3.org/2000/svg">
<g clip-path="url(#clip0_855_1219)">
<g filter="url(#filter0_d_855_1219)">
<path d="M358.672 362.352H213.058C209.055 362.352 205.81 365.599 205.81 369.605V454.87C205.81 458.876 209.055 462.123 213.058 462.123H358.672C362.675 462.123 365.92 458.876 365.92 454.87V369.605C365.92 365.599 362.675 362.352 358.672 362.352Z" fill="white"/>
</g>
<g filter="url(#filter1_d_855_1219)">
<path d="M158.084 362.352H12.4694C8.46658 362.352 5.22168 365.599 5.22168 369.605V454.87C5.22168 458.876 8.46658 462.123 12.4694 462.123H158.084C162.086 462.123 165.331 458.876 165.331 454.87V369.605C165.331 365.599 162.086 362.352 158.084 362.352Z" fill="white"/>
</g>
<path d="M224.54 410.116H347.794C349.795 410.116 351.418 411.74 351.418 413.742C351.418 415.745 349.795 417.369 347.794 417.369H224.54C222.539 417.369 220.916 415.745 220.916 413.742C220.916 411.74 222.539 410.116 224.54 410.116Z" fill="#BFBFBF"/>
<path d="M23.9515 410.116H147.206C149.207 410.116 150.83 411.74 150.83 413.742C150.83 415.745 149.207 417.369 147.206 417.369H23.9515C21.9508 417.369 20.3276 415.745 20.3276 413.742C20.3276 411.74 21.9508 410.116 23.9515 410.116Z" fill="#BFBFBF"/>
<path d="M236.021 421.606H335.715C337.715 421.606 339.339 423.231 339.339 425.233C339.339 427.235 337.715 428.86 335.715 428.86H236.021C234.021 428.86 232.397 427.235 232.397 425.233C232.397 423.231 234.021 421.606 236.021 421.606Z" fill="#DCD8D8"/>
<path d="M35.4329 421.606H135.126C137.127 421.606 138.75 423.231 138.75 425.233C138.75 427.235 137.127 428.86 135.126 428.86H35.4329C33.4323 428.86 31.8091 427.235 31.8091 425.233C31.8091 423.231 33.4323 421.606 35.4329 421.606Z" fill="#DCD8D8"/>
<path d="M252.335 433.091H319.401C321.402 433.091 323.025 434.715 323.025 436.717C323.025 438.72 321.402 440.344 319.401 440.344H252.335C250.335 440.344 248.711 438.72 248.711 436.717C248.711 434.715 250.335 433.091 252.335 433.091Z" fill="#DCD8D8"/>
<path d="M51.7469 433.091H118.813C120.814 433.091 122.437 434.715 122.437 436.717C122.437 438.72 120.814 440.344 118.813 440.344H51.7469C49.7462 440.344 48.123 438.72 48.123 436.717C48.123 434.715 49.7462 433.091 51.7469 433.091Z" fill="#DCD8D8"/>
<path d="M213.064 362.352H358.672C362.673 362.352 365.92 365.601 365.92 369.605V385.932H205.81V369.605C205.81 365.601 209.056 362.352 213.058 362.352H213.064Z" fill="#0000FF"/>
<path d="M12.4694 362.352H158.077C162.079 362.352 165.325 365.601 165.325 369.605V385.932H5.22168V369.605C5.22168 365.601 8.46804 362.352 12.4694 362.352Z" fill="#0000FF"/>
<g filter="url(#filter2_d_855_1219)">
<path d="M358.672 5.19434H213.058C209.055 5.19434 205.81 8.44176 205.81 12.4477V97.7121C205.81 101.718 209.055 104.965 213.058 104.965H358.672C362.675 104.965 365.92 101.718 365.92 97.7121V12.4477C365.92 8.44176 362.675 5.19434 358.672 5.19434Z" fill="white"/>
</g>
<g filter="url(#filter3_d_855_1219)">
<path d="M158.084 5.19434H12.4694C8.46658 5.19434 5.22168 8.44176 5.22168 12.4477V97.7121C5.22168 101.718 8.46658 104.965 12.4694 104.965H158.084C162.086 104.965 165.331 101.718 165.331 97.7121V12.4477C165.331 8.44176 162.086 5.19434 158.084 5.19434Z" fill="white"/>
</g>
<path d="M224.54 52.958H347.794C349.795 52.958 351.418 54.5825 351.418 56.5847C351.418 58.5869 349.795 60.2113 347.794 60.2113H224.54C222.539 60.2113 220.916 58.5869 220.916 56.5847C220.916 54.5825 222.539 52.958 224.54 52.958Z" fill="#BFBFBF"/>
<path d="M23.9515 52.958H147.206C149.207 52.958 150.83 54.5825 150.83 56.5847C150.83 58.5869 149.207 60.2113 147.206 60.2113H23.9515C21.9508 60.2113 20.3276 58.5869 20.3276 56.5847C20.3276 54.5825 21.9508 52.958 23.9515 52.958Z" fill="#BFBFBF"/>
<path d="M236.021 64.4487H335.715C337.715 64.4487 339.339 66.0732 339.339 68.0754C339.339 70.0776 337.715 71.7021 335.715 71.7021H236.021C234.021 71.7021 232.397 70.0776 232.397 68.0754C232.397 66.0732 234.021 64.4487 236.021 64.4487Z" fill="#DCD8D8"/>
<path d="M35.4329 64.4487H135.126C137.127 64.4487 138.75 66.0732 138.75 68.0754C138.75 70.0776 137.127 71.7021 135.126 71.7021H35.4329C33.4323 71.7021 31.8091 70.0776 31.8091 68.0754C31.8091 66.0732 33.4323 64.4487 35.4329 64.4487Z" fill="#DCD8D8"/>
<path d="M252.335 75.9331H319.401C321.402 75.9331 323.025 77.5576 323.025 79.5598C323.025 81.562 321.402 83.1864 319.401 83.1864H252.335C250.335 83.1864 248.711 81.562 248.711 79.5598C248.711 77.5576 250.335 75.9331 252.335 75.9331Z" fill="#DCD8D8"/>
<path d="M51.7469 75.9331H118.813C120.814 75.9331 122.437 77.5576 122.437 79.5598C122.437 81.562 120.814 83.1864 118.813 83.1864H51.7469C49.7462 83.1864 48.123 81.562 48.123 79.5598C48.123 77.5576 49.7462 75.9331 51.7469 75.9331Z" fill="#DCD8D8"/>
<path d="M213.064 5.19434H358.672C362.673 5.19434 365.92 8.44322 365.92 12.4477V28.774H205.81V12.4477C205.81 8.44322 209.056 5.19434 213.058 5.19434H213.064Z" fill="#0000FF"/>
<path d="M12.4694 5.19434H158.077C162.079 5.19434 165.325 8.44322 165.325 12.4477V28.774H5.22168V12.4477C5.22168 8.44322 8.46804 5.19434 12.4694 5.19434Z" fill="#0000FF"/>
<path d="M185.684 268.292V315.489" stroke="#0000FF" stroke-width="3" stroke-linecap="round" stroke-linejoin="round"/>
<path d="M85.4307 362.541V338.936C85.4307 325.896 95.9939 315.331 109.017 315.331H262.345C275.374 315.331 285.931 325.903 285.931 338.936V362.541" stroke="#0000FF" stroke-width="3" stroke-linecap="round" stroke-linejoin="round"/>
<path d="M185.684 201.349V154.146" stroke="#0000FF" stroke-width="3" stroke-linecap="round" stroke-linejoin="round"/>
<path d="M85.4307 107.094V130.699C85.4307 143.738 95.9939 154.303 109.017 154.303H262.345C275.374 154.303 285.931 143.732 285.931 130.699V107.094" stroke="#0000FF" stroke-width="3" stroke-linecap="round" stroke-linejoin="round"/>
<path d="M240.595 245.543V225.565C240.595 223.456 238.884 221.743 236.776 221.743H232.347C230.774 221.743 229.365 220.78 228.799 219.313C228.446 218.375 228.063 217.455 227.654 216.549C227.006 215.107 227.32 213.413 228.44 212.305L231.58 209.163C233.071 207.671 233.071 205.253 231.58 203.761L217.462 189.632C215.971 188.14 213.555 188.14 212.064 189.632L208.924 192.774C207.811 193.895 206.125 194.209 204.684 193.561C203.778 193.152 202.859 192.768 201.922 192.415C200.456 191.855 199.487 190.438 199.493 188.864V184.431C199.493 182.322 197.782 180.609 195.675 180.609H175.712C173.604 180.609 171.893 182.322 171.893 184.431V188.864C171.893 190.438 170.931 191.848 169.465 192.415C168.527 192.768 167.609 193.152 166.703 193.561C165.262 194.209 163.57 193.895 162.462 192.774L159.323 189.632C157.832 188.14 155.416 188.14 153.925 189.632L139.807 203.761C138.316 205.253 138.316 207.671 139.807 209.163L142.946 212.305C144.066 213.419 144.381 215.107 143.733 216.549C143.324 217.455 142.94 218.375 142.588 219.313C142.028 220.786 140.612 221.749 139.04 221.749H134.61C132.503 221.749 130.792 223.462 130.792 225.571V245.549C130.792 247.659 132.503 249.371 134.61 249.371H139.04C140.612 249.371 142.022 250.335 142.588 251.802C142.94 252.74 143.324 253.659 143.733 254.566C144.381 256.008 144.066 257.701 142.946 258.809L139.807 261.951C138.316 263.443 138.316 265.861 139.807 267.353L153.925 281.482C155.416 282.975 157.832 282.975 159.323 281.482L162.462 278.34C163.576 277.22 165.262 276.905 166.703 277.553C167.609 277.963 168.527 278.347 169.465 278.699C170.931 279.26 171.899 280.676 171.893 282.25V286.683C171.893 288.792 173.604 290.505 175.712 290.505H195.675C197.782 290.505 199.493 288.792 199.493 286.683V282.25C199.493 280.676 200.456 279.266 201.922 278.699C202.859 278.347 203.778 277.963 204.684 277.553C206.125 276.905 207.817 277.22 208.924 278.34L212.064 281.482C213.555 282.975 215.971 282.975 217.462 281.482L231.58 267.353C233.071 265.861 233.071 263.443 231.58 261.951L228.44 258.809C227.32 257.695 227.006 256.008 227.654 254.566C228.063 253.659 228.446 252.74 228.799 251.802C229.359 250.335 230.774 249.365 232.347 249.371H236.776C238.884 249.371 240.595 247.659 240.595 245.549" fill="#0000FF"/>
<path d="M185.577 256.864C197.339 256.864 206.873 247.322 206.873 235.551C206.873 223.78 197.339 214.238 185.577 214.238C173.815 214.238 164.281 223.78 164.281 235.551C164.281 247.322 173.815 256.864 185.577 256.864Z" stroke="white" stroke-width="3" stroke-linecap="round" stroke-linejoin="round"/>
<g filter="url(#filter4_d_855_1219)">
<path d="M276.261 345.327C289.291 345.327 299.854 334.756 299.854 321.716C299.854 308.676 289.291 298.104 276.261 298.104C263.231 298.104 252.668 308.676 252.668 321.716C252.668 334.756 263.231 345.327 276.261 345.327Z" fill="white"/>
</g>
<path d="M287.749 308.034L287.605 316.471C287.586 317.201 286.988 317.774 286.265 317.768C285.9 317.761 285.384 317.686 285.132 318.013L282.597 320.91C282.452 321.073 282.207 321.092 282.043 320.947C281.955 320.872 281.905 320.759 281.911 320.645L281.949 318.441C281.955 318.026 281.628 317.686 281.213 317.68L271.744 317.516C271.021 317.503 270.448 316.905 270.461 316.187L270.605 307.738C270.618 307.014 271.216 306.441 271.933 306.453L286.466 306.705C287.189 306.718 287.762 307.31 287.749 308.034ZM275.532 310.76C274.827 310.773 274.261 311.352 274.273 312.057C274.28 312.731 274.814 313.285 275.487 313.316C276.192 313.304 276.758 312.724 276.746 312.019C276.739 311.346 276.205 310.791 275.532 310.76ZM279.124 310.823C278.419 310.836 277.853 311.415 277.866 312.12C277.872 312.794 278.407 313.348 279.08 313.379C279.784 313.367 280.351 312.787 280.338 312.082C280.332 311.409 279.797 310.854 279.124 310.823ZM282.723 310.886C282.018 310.848 281.42 311.39 281.382 312.095C281.345 312.8 281.886 313.398 282.59 313.436C283.295 313.474 283.893 312.932 283.931 312.227C283.931 312.214 283.931 312.196 283.931 312.183C283.943 311.497 283.408 310.924 282.723 310.886Z" fill="#FF5454"/>
<path d="M277.563 334.384C277.23 334.037 277.047 333.565 277.06 333.08C275.097 331.154 272.404 330.159 269.661 330.354V336.134C269.661 337.016 268.944 337.733 268.063 337.733C267.182 337.733 266.465 337.016 266.465 336.134V330.354C265.673 330.386 264.874 330.354 264.081 330.266C262.175 329.806 260.998 327.886 261.457 325.978C261.835 324.398 263.238 323.277 264.855 323.258C269.831 323.183 273.637 323.976 277.047 320.538C277.047 319.518 277.878 318.687 278.897 318.687C279.916 318.687 280.747 319.518 280.747 320.538V333.074C280.734 334.107 279.891 334.938 278.859 334.925C278.375 334.925 277.909 334.724 277.563 334.384Z" fill="#FF5454"/>
<g filter="url(#filter5_d_855_1219)">
<path d="M185.684 258.721C198.471 258.721 208.836 248.347 208.836 235.551C208.836 222.754 198.471 212.38 185.684 212.38C172.897 212.38 162.532 222.754 162.532 235.551C162.532 248.347 172.897 258.721 185.684 258.721Z" fill="white"/>
</g>
<path fill-rule="evenodd" clip-rule="evenodd" d="M185.168 220.138C185.508 220.018 185.873 220.018 186.213 220.138L197.059 224.016C197.675 224.236 198.084 224.822 198.084 225.477V239.146C198.084 241.784 196.744 244.24 194.523 245.669L186.521 250.813C186.011 251.141 185.357 251.141 184.847 250.813L176.851 245.669C174.636 244.24 173.29 241.784 173.29 239.146V225.477C173.29 224.822 173.699 224.236 174.316 224.016L185.162 220.138H185.168ZM191.434 233.549C192.051 232.957 192.076 231.975 191.485 231.358C190.893 230.741 189.912 230.715 189.295 231.307C189.276 231.326 189.264 231.339 189.245 231.358L184.143 236.464L182.142 234.462C181.525 233.864 180.544 233.882 179.953 234.499C179.368 235.104 179.368 236.055 179.953 236.659L183.054 239.763C183.658 240.368 184.64 240.368 185.244 239.763L191.441 233.561L191.434 233.549Z" fill="#0000FF"/>
<g filter="url(#filter6_d_855_1219)">
<path d="M276.054 170.164C289.084 170.164 299.646 159.593 299.646 146.553C299.646 133.512 289.084 122.941 276.054 122.941C263.024 122.941 252.461 133.512 252.461 146.553C252.461 159.593 263.024 170.164 276.054 170.164Z" fill="white"/>
</g>
<path d="M289.134 147.063C289.121 147.988 288.995 148.901 288.756 149.795C288.246 151.69 287.378 153.397 286.107 154.895C284.698 156.564 282.987 157.829 280.967 158.654C279.665 159.183 278.306 159.498 276.891 159.58C274.84 159.693 272.851 159.403 270.964 158.591C270.033 158.194 270.341 158.251 269.372 158.471C268.007 158.78 266.642 159.101 265.283 159.441C264.773 159.567 264.251 159.605 263.735 159.699H263.377C262.999 159.567 262.999 159.567 262.999 159.151C262.999 158.515 263.175 157.911 263.295 157.3C263.603 155.758 263.924 154.221 264.245 152.679C264.295 152.421 264.226 152.207 264.119 151.986C263.792 151.325 263.565 150.626 263.358 149.921C263.125 149.115 263.005 148.29 262.98 147.447C262.949 146.471 262.936 145.501 263.043 144.531C263.182 143.316 263.559 142.164 264.056 141.05C264.591 139.853 265.289 138.764 266.157 137.788C267.107 136.724 268.183 135.805 269.423 135.087C270.693 134.344 272.059 133.834 273.499 133.544C273.934 133.456 274.374 133.456 274.808 133.431C275.903 133.374 276.997 133.387 278.092 133.488C278.904 133.563 279.684 133.796 280.451 134.067C281.974 134.608 283.345 135.414 284.566 136.466C285.711 137.448 286.661 138.594 287.416 139.897C288.278 141.39 288.819 142.989 289.045 144.695C289.146 145.476 289.127 146.263 289.121 147.05L289.134 147.063Z" fill="#7ACF6D"/>
<path d="M289.134 147.063C289.121 147.988 288.995 148.901 288.756 149.795C288.246 151.69 287.378 153.397 286.107 154.895C284.698 156.564 282.987 157.829 280.967 158.654C279.665 159.183 278.306 159.498 276.89 159.58C274.839 159.693 272.851 159.403 270.964 158.591C270.033 158.194 270.341 158.251 269.372 158.471C268.007 158.78 266.642 159.101 265.283 159.441C264.773 159.567 264.251 159.605 263.735 159.699C264.314 159.491 264.918 159.391 265.516 159.246C267.007 158.881 268.504 158.541 269.995 158.182C270.159 158.144 270.303 158.15 270.461 158.22C277.048 161.317 284.824 158.49 287.863 151.879C288.869 149.694 289.278 147.396 288.951 145.01C288.209 139.633 285.239 136.025 280.181 134.105C274.896 132.543 270.285 133.683 266.459 137.668C264.452 139.753 263.37 142.315 263.081 145.199C262.842 147.579 263.244 149.864 264.276 152.03C264.383 152.257 264.427 152.458 264.371 152.71C263.93 154.788 263.509 156.872 263.075 158.956C263.005 159.284 263.1 159.523 263.37 159.699C262.993 159.567 262.993 159.567 262.993 159.151C262.993 158.515 263.169 157.911 263.288 157.3C263.597 155.758 263.918 154.221 264.238 152.679C264.289 152.421 264.22 152.207 264.113 151.986C263.785 151.325 263.559 150.626 263.351 149.921C263.119 149.115 262.999 148.29 262.974 147.447C262.942 146.471 262.93 145.501 263.037 144.531C263.175 143.316 263.553 142.164 264.05 141.05C264.585 139.853 265.283 138.764 266.151 137.788C267.101 136.724 268.177 135.805 269.416 135.087C270.687 134.344 272.052 133.834 273.493 133.544C273.927 133.456 274.368 133.456 274.802 133.431C275.896 133.374 276.991 133.387 278.086 133.488C278.897 133.563 279.678 133.796 280.445 134.067C281.968 134.608 283.339 135.414 284.56 136.466C285.705 137.448 286.655 138.594 287.41 139.897C288.272 141.39 288.813 142.989 289.039 144.695C289.14 145.476 289.121 146.263 289.115 147.05L289.134 147.063Z" fill="#7ACF6D"/>
<path d="M276.104 156.664C274.387 156.664 272.82 156.299 271.373 155.525C270.832 155.235 270.354 155.16 269.756 155.33C268.8 155.607 267.819 155.802 266.85 156.029C266.56 156.098 266.554 156.098 266.617 155.814C266.862 154.624 267.101 153.441 267.359 152.257C267.403 152.062 267.378 151.898 267.284 151.722C266.724 150.689 266.271 149.619 266.051 148.454C265.692 146.584 265.812 144.739 266.491 142.957C267.68 139.816 269.888 137.681 273.097 136.73C276.715 135.66 280.011 136.397 282.855 138.903C284.742 140.565 285.856 142.68 286.139 145.18C286.554 148.876 285.309 151.955 282.484 154.36C280.999 155.626 279.25 156.337 277.312 156.583C276.884 156.639 276.457 156.62 276.111 156.664H276.104Z" fill="#7ACF6D"/>
<path d="M279.388 152.799C278.117 152.792 276.935 152.377 275.827 151.734C273.726 150.507 271.971 148.889 270.618 146.855C270.052 145.999 269.674 145.067 269.523 144.04C269.341 142.806 269.725 141.786 270.599 140.93C270.763 140.766 270.933 140.609 271.103 140.458C271.6 140.023 272.311 140.137 272.594 140.735C272.977 141.534 273.323 142.353 273.676 143.172C273.82 143.512 273.764 143.845 273.537 144.141C273.38 144.343 273.223 144.544 273.072 144.752C272.763 145.167 272.757 145.552 273.053 145.98C273.77 147.006 274.695 147.824 275.664 148.605C276.129 148.983 276.614 149.329 277.155 149.594C277.602 149.808 277.966 149.757 278.325 149.411C278.501 149.241 278.677 149.059 278.847 148.882C279.143 148.58 279.489 148.479 279.898 148.593C280.71 148.826 281.521 149.052 282.333 149.298C282.924 149.48 283.22 150.085 282.937 150.595C282.534 151.325 282.006 151.967 281.276 152.408C280.703 152.748 280.068 152.805 279.388 152.811V152.799Z" fill="white"/>
<g filter="url(#filter7_d_855_1219)">
<path d="M93.6035 169.994C106.633 169.994 117.196 159.423 117.196 146.383C117.196 133.343 106.633 122.771 93.6035 122.771C80.5736 122.771 70.0107 133.343 70.0107 146.383C70.0107 159.423 80.5736 169.994 93.6035 169.994Z" fill="white"/>
</g>
<path d="M105.557 138.953C106.224 140.049 106.771 141.213 107.111 142.447C107.325 143.222 107.489 144.034 107.514 144.871C107.533 145.659 107.57 146.439 107.514 147.226C107.312 149.902 106.306 152.257 104.676 154.354C103.135 156.343 101.141 157.722 98.8317 158.686C97.6237 159.189 96.3654 159.466 95.0946 159.636C94.3522 159.737 93.5846 159.668 92.8234 159.636C91.6783 159.586 90.5522 159.403 89.4512 159.082C88.9605 158.937 88.6144 159.233 88.2432 159.403C87.5323 159.731 86.8277 160.064 86.0727 160.285C85.5946 160.455 85.173 160.279 84.9277 159.8C84.7578 159.466 84.6949 159.107 84.6886 158.736C84.676 158.188 84.6572 157.634 84.6886 157.086C84.7138 156.696 84.6068 156.406 84.2797 156.192C83.5436 155.701 83.0591 154.952 82.5181 154.284C81.2283 152.698 80.4168 150.853 79.9449 148.882C79.687 147.799 79.6429 146.66 79.6744 145.526C79.7121 144.097 79.9764 142.706 80.4923 141.402C81.631 138.531 83.4932 136.208 86.1419 134.571C88.8535 132.89 91.8042 132.222 94.9813 132.493C96.3969 132.613 97.7621 132.934 99.0707 133.481C100.247 133.979 101.336 134.627 102.355 135.408C103.343 136.164 104.198 137.045 104.928 138.046C105.054 138.223 105.28 138.33 105.312 138.575C105.387 138.695 105.469 138.814 105.545 138.928C105.545 138.94 105.557 138.953 105.563 138.966L105.557 138.953ZM96.0509 145.646C96.0257 145.558 95.9565 145.551 95.881 145.564C95.5035 145.407 95.2393 145.086 94.9373 144.84C94.2641 144.299 93.5595 143.795 92.8674 143.279C92.5088 143.014 92.1439 142.706 91.7035 142.599C90.98 142.416 90.3383 142.643 89.7972 143.159C89.3757 143.562 89.1303 144.091 88.8158 144.576C87.6959 146.301 86.576 148.026 85.4687 149.757C85.3303 149.971 85.28 150.242 85.28 150.5C85.28 150.878 85.5379 151.073 85.9028 150.985C86.1985 150.916 86.4502 150.765 86.6956 150.576C87.9916 149.581 89.2876 148.586 90.5899 147.598C91.087 147.22 91.2883 147.207 91.7727 147.598C92.3075 148.026 92.88 148.397 93.4336 148.8C93.8615 149.298 94.3773 149.701 94.9184 150.047C96.0571 150.777 97.0197 150.639 97.9194 149.575C98.0641 149.405 98.1899 149.222 98.3032 149.033C99.1148 147.73 99.9264 146.42 100.738 145.111C100.939 144.777 101.122 144.437 101.348 144.116C101.612 143.732 101.902 143.348 102.047 142.894C102.141 142.605 102.141 142.24 101.839 142.158C101.6 142.095 101.26 142.051 100.996 142.252C100.801 142.397 100.587 142.529 100.392 142.674C99.1714 143.574 97.9509 144.487 96.724 145.381C96.529 145.52 96.3466 145.747 96.0509 145.652V145.646Z" fill="#1877F2"/>
<g filter="url(#filter8_d_855_1219)">
<path d="M90.3569 345.327C103.387 345.327 113.95 334.756 113.95 321.716C113.95 308.676 103.387 298.104 90.3569 298.104C77.327 298.104 66.7642 308.676 66.7642 321.716C66.7642 334.756 77.327 345.327 90.3569 345.327Z" fill="white"/>
</g>
<path d="M86.255 319.745L78.2712 328.831C78.1769 328.938 78.007 328.894 77.9755 328.761C77.9001 328.497 77.8623 328.22 77.8623 327.937V315.508C77.8623 314.884 78.0573 314.274 78.4097 313.77C78.4663 313.688 78.5795 313.675 78.655 313.732L86.2299 319.493C86.3116 319.556 86.3242 319.669 86.255 319.745Z" fill="#0000FF"/>
<path d="M101.291 312.832L91.9359 319.676C91.0174 320.35 89.7339 320.337 88.828 319.644L79.6929 312.7C80.0829 312.523 80.517 312.423 80.97 312.423C101.285 312.423 100.335 312.259 101.291 312.832Z" fill="#0000FF"/>
<path d="M102.858 315.508V327.937C102.858 328.365 102.764 328.793 102.588 329.183C102.493 329.391 102.21 329.429 102.065 329.253L94.8744 320.52C94.541 320.11 94.6165 319.506 95.0443 319.191L101.864 314.204C102.147 313.997 102.544 314.123 102.669 314.45C102.795 314.784 102.858 315.143 102.858 315.508Z" fill="#0000FF"/>
<path d="M100.832 330.027C101.09 330.342 100.933 330.814 100.536 330.915C100.285 330.984 100.02 331.015 99.7498 331.015H80.97C80.4541 331.015 79.9508 330.889 79.5104 330.65C79.1896 330.48 79.1141 330.065 79.3469 329.794L87.5068 320.507C87.6137 320.387 88.4631 321.609 90.3945 321.609C91.2376 321.609 92.0806 321.35 92.7916 320.828C93.0621 320.626 93.0747 320.608 93.1061 320.645L100.826 330.02L100.832 330.027Z" fill="#0000FF"/>
</g>
<defs>
<filter id="filter0_d_855_1219" x="202.81" y="359.352" width="180.109" height="119.771" filterUnits="userSpaceOnUse" color-interpolation-filters="sRGB">
<feFlood flood-opacity="0" result="BackgroundImageFix"/>
<feColorMatrix in="SourceAlpha" type="matrix" values="0 0 0 0 0 0 0 0 0 0 0 0 0 0 0 0 0 0 127 0" result="hardAlpha"/>
<feOffset dx="7" dy="7"/>
<feGaussianBlur stdDeviation="5"/>
<feColorMatrix type="matrix" values="0 0 0 0 0.658824 0 0 0 0 0.658824 0 0 0 0 0.658824 0 0 0 0.25 0"/>
<feBlend mode="normal" in2="BackgroundImageFix" result="effect1_dropShadow_855_1219"/>
<feBlend mode="normal" in="SourceGraphic" in2="effect1_dropShadow_855_1219" result="shape"/>
</filter>
<filter id="filter1_d_855_1219" x="2.22168" y="359.352" width="180.109" height="119.771" filterUnits="userSpaceOnUse" color-interpolation-filters="sRGB">
<feFlood flood-opacity="0" result="BackgroundImageFix"/>
<feColorMatrix in="SourceAlpha" type="matrix" values="0 0 0 0 0 0 0 0 0 0 0 0 0 0 0 0 0 0 127 0" result="hardAlpha"/>
<feOffset dx="7" dy="7"/>
<feGaussianBlur stdDeviation="5"/>
<feColorMatrix type="matrix" values="0 0 0 0 0.658824 0 0 0 0 0.658824 0 0 0 0 0.658824 0 0 0 0.25 0"/>
<feBlend mode="normal" in2="BackgroundImageFix" result="effect1_dropShadow_855_1219"/>
<feBlend mode="normal" in="SourceGraphic" in2="effect1_dropShadow_855_1219" result="shape"/>
</filter>
<filter id="filter2_d_855_1219" x="202.81" y="2.19434" width="180.109" height="119.771" filterUnits="userSpaceOnUse" color-interpolation-filters="sRGB">
<feFlood flood-opacity="0" result="BackgroundImageFix"/>
<feColorMatrix in="SourceAlpha" type="matrix" values="0 0 0 0 0 0 0 0 0 0 0 0 0 0 0 0 0 0 127 0" result="hardAlpha"/>
<feOffset dx="7" dy="7"/>
<feGaussianBlur stdDeviation="5"/>
<feColorMatrix type="matrix" values="0 0 0 0 0.658824 0 0 0 0 0.658824 0 0 0 0 0.658824 0 0 0 0.25 0"/>
<feBlend mode="normal" in2="BackgroundImageFix" result="effect1_dropShadow_855_1219"/>
<feBlend mode="normal" in="SourceGraphic" in2="effect1_dropShadow_855_1219" result="shape"/>
</filter>
<filter id="filter3_d_855_1219" x="2.22168" y="2.19434" width="180.109" height="119.771" filterUnits="userSpaceOnUse" color-interpolation-filters="sRGB">
<feFlood flood-opacity="0" result="BackgroundImageFix"/>
<feColorMatrix in="SourceAlpha" type="matrix" values="0 0 0 0 0 0 0 0 0 0 0 0 0 0 0 0 0 0 127 0" result="hardAlpha"/>
<feOffset dx="7" dy="7"/>
<feGaussianBlur stdDeviation="5"/>
<feColorMatrix type="matrix" values="0 0 0 0 0.658824 0 0 0 0 0.658824 0 0 0 0 0.658824 0 0 0 0.25 0"/>
<feBlend mode="normal" in2="BackgroundImageFix" result="effect1_dropShadow_855_1219"/>
<feBlend mode="normal" in="SourceGraphic" in2="effect1_dropShadow_855_1219" result="shape"/>
</filter>
<filter id="filter4_d_855_1219" x="249.668" y="295.104" width="67.1855" height="67.2222" filterUnits="userSpaceOnUse" color-interpolation-filters="sRGB">
<feFlood flood-opacity="0" result="BackgroundImageFix"/>
<feColorMatrix in="SourceAlpha" type="matrix" values="0 0 0 0 0 0 0 0 0 0 0 0 0 0 0 0 0 0 127 0" result="hardAlpha"/>
<feOffset dx="7" dy="7"/>
<feGaussianBlur stdDeviation="5"/>
<feColorMatrix type="matrix" values="0 0 0 0 0.658824 0 0 0 0 0.658824 0 0 0 0 0.658824 0 0 0 0.25 0"/>
<feBlend mode="normal" in2="BackgroundImageFix" result="effect1_dropShadow_855_1219"/>
<feBlend mode="normal" in="SourceGraphic" in2="effect1_dropShadow_855_1219" result="shape"/>
</filter>
<filter id="filter5_d_855_1219" x="159.532" y="209.38" width="66.3047" height="66.3408" filterUnits="userSpaceOnUse" color-interpolation-filters="sRGB">
<feFlood flood-opacity="0" result="BackgroundImageFix"/>
<feColorMatrix in="SourceAlpha" type="matrix" values="0 0 0 0 0 0 0 0 0 0 0 0 0 0 0 0 0 0 127 0" result="hardAlpha"/>
<feOffset dx="7" dy="7"/>
<feGaussianBlur stdDeviation="5"/>
<feColorMatrix type="matrix" values="0 0 0 0 0.658824 0 0 0 0 0.658824 0 0 0 0 0.658824 0 0 0 0.25 0"/>
<feBlend mode="normal" in2="BackgroundImageFix" result="effect1_dropShadow_855_1219"/>
<feBlend mode="normal" in="SourceGraphic" in2="effect1_dropShadow_855_1219" result="shape"/>
</filter>
<filter id="filter6_d_855_1219" x="240.461" y="110.941" width="71.1855" height="71.2222" filterUnits="userSpaceOnUse" color-interpolation-filters="sRGB">
<feFlood flood-opacity="0" result="BackgroundImageFix"/>
<feColorMatrix in="SourceAlpha" type="matrix" values="0 0 0 0 0 0 0 0 0 0 0 0 0 0 0 0 0 0 127 0" result="hardAlpha"/>
<feOffset/>
<feGaussianBlur stdDeviation="6"/>
<feColorMatrix type="matrix" values="0 0 0 0 0.658824 0 0 0 0 0.658824 0 0 0 0 0.658824 0 0 0 0.45 0"/>
<feBlend mode="normal" in2="BackgroundImageFix" result="effect1_dropShadow_855_1219"/>
<feBlend mode="normal" in="SourceGraphic" in2="effect1_dropShadow_855_1219" result="shape"/>
</filter>
<filter id="filter7_d_855_1219" x="58.0107" y="110.771" width="71.1855" height="71.2222" filterUnits="userSpaceOnUse" color-interpolation-filters="sRGB">
<feFlood flood-opacity="0" result="BackgroundImageFix"/>
<feColorMatrix in="SourceAlpha" type="matrix" values="0 0 0 0 0 0 0 0 0 0 0 0 0 0 0 0 0 0 127 0" result="hardAlpha"/>
<feOffset/>
<feGaussianBlur stdDeviation="6"/>
<feColorMatrix type="matrix" values="0 0 0 0 0.658824 0 0 0 0 0.658824 0 0 0 0 0.658824 0 0 0 0.45 0"/>
<feBlend mode="normal" in2="BackgroundImageFix" result="effect1_dropShadow_855_1219"/>
<feBlend mode="normal" in="SourceGraphic" in2="effect1_dropShadow_855_1219" result="shape"/>
</filter>
<filter id="filter8_d_855_1219" x="57.7642" y="289.104" width="75.1855" height="75.2222" filterUnits="userSpaceOnUse" color-interpolation-filters="sRGB">
<feFlood flood-opacity="0" result="BackgroundImageFix"/>
<feColorMatrix in="SourceAlpha" type="matrix" values="0 0 0 0 0 0 0 0 0 0 0 0 0 0 0 0 0 0 127 0" result="hardAlpha"/>
<feOffset dx="5" dy="5"/>
<feGaussianBlur stdDeviation="7"/>
<feColorMatrix type="matrix" values="0 0 0 0 0 0 0 0 0 0 0 0 0 0 0 0 0 0 0.25 0"/>
<feBlend mode="normal" in2="BackgroundImageFix" result="effect1_dropShadow_855_1219"/>
<feBlend mode="normal" in="SourceGraphic" in2="effect1_dropShadow_855_1219" result="shape"/>
</filter>
<clipPath id="clip0_855_1219">
<rect width="380" height="476" fill="white"/>
</clipPath>
</defs>
</svg>
