<svg width="396" height="387" viewBox="0 0 396 387" fill="none" xmlns="http://www.w3.org/2000/svg">
<g clip-path="url(#clip0_855_1068)">
<path d="M327.021 152.303V262.165" stroke="#0000FF" stroke-width="3" stroke-linecap="round" stroke-linejoin="round"/>
<g filter="url(#filter0_d_855_1068)">
<path d="M178.91 84.7617H88.7562C81.9088 84.7617 76.3579 90.3088 76.3579 97.1515V285.245C76.3579 292.088 81.9088 297.635 88.7562 297.635H178.91C185.758 297.635 191.309 292.088 191.309 285.245V97.1515C191.309 90.3088 185.758 84.7617 178.91 84.7617Z" fill="#0000FF"/>
</g>
<path d="M187.174 96.3543V286.054C187.174 290.169 183.837 293.509 179.714 293.509H87.9526C83.8354 293.509 80.4927 290.174 80.4927 286.054V96.3543C80.4927 92.2398 83.8296 88.8994 87.9526 88.8994H110.385C112.557 88.8994 114.316 90.6569 114.316 92.8276V96.0051C114.316 98.1234 116.034 99.8402 118.153 99.8402H149.507C151.627 99.8402 153.345 98.1234 153.345 96.0051V92.8276C153.345 90.6569 155.104 88.8994 157.276 88.8994H179.714C183.831 88.8994 187.174 92.234 187.174 96.3543Z" fill="white"/>
<path d="M126.941 277.174H156.274C158.173 277.174 159.716 278.716 159.716 280.613C159.716 282.51 158.173 284.053 156.274 284.053H126.941C125.043 284.053 123.5 282.51 123.5 280.613C123.5 278.716 125.043 277.174 126.941 277.174Z" fill="#DCD8D8"/>
<path d="M126.941 264.568H169.371C171.27 264.568 172.813 266.111 172.813 268.008C172.813 269.905 171.27 271.447 169.371 271.447H126.941C125.043 271.447 123.5 269.905 123.5 268.008C123.5 266.111 125.043 264.568 126.941 264.568Z" fill="#DCD8D8"/>
<path d="M126.941 251.958H178.928C180.826 251.958 182.37 253.5 182.37 255.397C182.37 257.294 180.826 258.836 178.928 258.836H126.941C125.043 258.836 123.5 257.294 123.5 255.397C123.5 253.5 125.043 251.958 126.941 251.958Z" fill="#DCD8D8"/>
<path d="M101.289 254.25H101.102C93.5023 254.25 87.3413 260.407 87.3413 268.002C87.3413 275.597 93.5023 281.754 101.102 281.754H101.289C108.889 281.754 115.05 275.597 115.05 268.002C115.05 260.407 108.889 254.25 101.289 254.25Z" fill="#DCD8D8"/>
<path d="M190.878 200.03H235.83V80.7695H266.223" stroke="#0000FF" stroke-width="3" stroke-linecap="round" stroke-linejoin="round"/>
<g filter="url(#filter1_d_855_1068)">
<path d="M38.7211 243.601H122.265C126.98 243.601 130.803 239.781 130.803 235.069V145.547C130.803 140.835 126.98 137.016 122.265 137.016H38.7211C34.0061 137.016 30.1838 140.835 30.1838 145.547L30.1838 235.069C30.1838 239.781 34.0061 243.601 38.7211 243.601Z" fill="#DCD8D8"/>
</g>
<path d="M123.401 215.463C123.314 215.463 123.232 215.44 123.156 215.399C120.285 214.852 60.5302 215.259 37.5855 215.463C37.4108 215.463 37.2652 215.387 37.172 215.248C37.0788 215.114 37.0555 214.939 37.1138 214.782C37.9757 212.484 45.721 192.348 51.8881 192.348C55.2482 192.348 57.071 195.735 58.8297 199.017C60.4254 201.985 61.9278 204.784 64.3446 204.784C66.1441 204.784 68.7239 199.855 71.461 194.635C76.3411 185.312 83.0323 172.544 92.4897 172.544C107.427 172.544 123.203 213.054 123.873 214.776C123.896 214.835 123.908 214.893 123.908 214.957C123.908 215.195 123.733 215.405 123.5 215.451C123.471 215.457 123.436 215.457 123.407 215.457L123.401 215.463ZM51.8881 193.355C47.4156 193.355 40.8175 207.979 38.3134 214.456C42.2443 214.421 61.2989 214.264 80.2021 214.177C111.34 214.037 120.076 214.177 122.626 214.369C120.332 208.672 105.651 173.551 92.4897 173.551C83.638 173.551 77.1098 186.01 72.3461 195.106C69.0966 201.31 66.7497 205.797 64.3446 205.797C61.3338 205.797 59.6101 202.596 57.9504 199.5C56.3256 196.48 54.6484 193.36 51.8881 193.36V193.355Z" fill="white"/>
<path d="M60.5944 179.999C56.7567 179.999 53.6353 176.879 53.6353 173.05C53.6353 169.221 56.7567 166.102 60.5944 166.102C64.4321 166.102 67.5535 169.221 67.5535 173.05C67.5535 176.879 64.4321 179.999 60.5944 179.999ZM60.5944 167.103C57.3099 167.103 54.6369 169.768 54.6369 173.05C54.6369 176.332 57.3099 178.998 60.5944 178.998C63.8788 178.998 66.5518 176.332 66.5518 173.05C66.5518 169.768 63.8788 167.103 60.5944 167.103Z" fill="white"/>
<g filter="url(#filter2_d_855_1068)">
<path d="M375.594 9.56152H270.812C268.19 9.56152 266.065 11.685 266.065 14.3045V147.24C266.065 149.86 268.19 151.983 270.812 151.983H375.594C378.216 151.983 380.341 149.86 380.341 147.24V14.3045C380.341 11.685 378.216 9.56152 375.594 9.56152Z" fill="white"/>
</g>
<path d="M270.812 9.56152H375.6C378.221 9.56152 380.346 11.6857 380.346 14.3045V23.3539H266.071V14.3045C266.071 11.6857 268.197 9.56152 270.817 9.56152H270.812Z" fill="#0000FF"/>
<path d="M275.325 16.446C275.313 17.4411 274.492 18.2384 273.491 18.2267C272.495 18.2151 271.697 17.3945 271.709 16.3936C271.72 15.4043 272.53 14.6128 273.514 14.6128C274.521 14.6186 275.325 15.4392 275.319 16.446" fill="white"/>
<path d="M282.43 16.446C282.418 17.4411 281.597 18.2384 280.595 18.2267C279.599 18.2151 278.801 17.3945 278.813 16.3936C278.825 15.4043 279.634 14.6128 280.618 14.6128C281.626 14.6186 282.43 15.4392 282.424 16.446" fill="white"/>
<path d="M289.179 16.446C289.167 17.4411 288.346 18.2384 287.345 18.2267C286.349 18.2151 285.551 17.3945 285.563 16.3936C285.574 15.4043 286.384 14.6128 287.368 14.6128C288.375 14.6186 289.179 15.4392 289.173 16.446" fill="white"/>
<path d="M286.623 34.6382H313.376V30.0873L286.623 30.0873V34.6382Z" fill="#DCD8D8"/>
<path d="M340.496 45.8467H357.92V41.2958H340.496V45.8467Z" fill="#DCD8D8"/>
<path d="M329.507 57.416H346.931V52.8651H329.507V57.416Z" fill="#DCD8D8"/>
<path d="M279.512 70.376H296.936V65.8251H279.512V70.376Z" fill="#DCD8D8"/>
<path d="M353.29 82.917H370.714V78.3661H353.29V82.917Z" fill="#DCD8D8"/>
<path d="M318.111 82.917H335.535V78.3661H318.111V82.917Z" fill="#DCD8D8"/>
<path d="M279.512 45.8467H296.936V41.2958H279.512V45.8467Z" fill="#DCD8D8"/>
<path d="M278.47 57.416H288.224V52.8651H278.47V57.416Z" fill="#DCD8D8"/>
<path d="M300.867 70.376H310.622V65.8251H300.867V70.376Z" fill="#DCD8D8"/>
<path d="M338.999 82.917H348.754V78.3661H338.999V82.917Z" fill="#DCD8D8"/>
<path d="M352.248 57.416H362.002V52.8651H352.248V57.416Z" fill="#DCD8D8"/>
<path d="M353.29 34.6382H370.714V30.0873H353.29V34.6382Z" fill="#DCD8D8"/>
<path d="M308.316 45.8467H335.069V41.2958H308.316V45.8467Z" fill="#DCD8D8"/>
<path d="M292.365 57.416H319.118V52.8651H292.365V57.416Z" fill="#DCD8D8"/>
<path d="M286.623 82.917H313.376V78.3661H286.623V82.917Z" fill="#DCD8D8"/>
<path d="M321.692 70.376H348.445V65.8251H321.692V70.376Z" fill="#DCD8D8"/>
<path d="M344.538 34.6382H348.754V30.0873H344.538V34.6382Z" fill="#DCD8D8"/>
<path d="M330.975 34.6382H335.191V30.0873H330.975V34.6382Z" fill="#DCD8D8"/>
<path d="M361.164 45.8467H365.38V41.2958H361.164V45.8467Z" fill="#DCD8D8"/>
<path d="M313.993 70.376H318.209V65.8251H313.993V70.376Z" fill="#DCD8D8"/>
<path d="M300.424 45.8467H304.641V41.2958H300.424V45.8467Z" fill="#DCD8D8"/>
<path d="M317.173 34.6382H326.211V30.0873H317.173V34.6382Z" fill="#DCD8D8"/>
<path d="M339.431 35.8314H340.898V34.7722H340.491V29.9478H340.898V28.8887H339.431V35.8314Z" fill="#DCD8D8"/>
<path d="M323.317 58.6146H324.784V57.5496H324.377V52.7252H324.784V51.666H323.317V58.6146Z" fill="#DCD8D8"/>
<path d="M354.562 64.6076L352.762 71.3013L353.786 71.5761L355.586 64.8825L354.562 64.6076Z" fill="#DCD8D8"/>
<path d="M358.299 71.8134L361.903 68.1005L358.363 64.3818L357.594 65.1151L360.43 68.0947L357.536 71.0743L358.299 71.8134Z" fill="#DCD8D8"/>
<path d="M281.614 36.0756L282.377 35.3365L279.477 32.3511L282.319 29.3773L281.55 28.644L278.004 32.3627L281.614 36.0756Z" fill="#DCD8D8"/>
<path d="M281.614 84.3544L282.377 83.6153L279.477 80.6357L282.319 77.6561L281.55 76.9229L278.004 80.6416L281.614 84.3544Z" fill="#DCD8D8"/>
<path d="M286.623 95.3066H313.376V90.7558H286.623V95.3066Z" fill="#DCD8D8"/>
<path d="M340.496 106.515H357.92V101.964H340.496V106.515Z" fill="#DCD8D8"/>
<path d="M329.507 118.084H346.931V113.534H329.507V118.084Z" fill="#DCD8D8"/>
<path d="M279.512 131.044H296.936V126.494H279.512V131.044Z" fill="#DCD8D8"/>
<path d="M353.29 143.585H370.714V139.035H353.29V143.585Z" fill="#DCD8D8"/>
<path d="M318.111 143.585H335.535V139.035H318.111V143.585Z" fill="#DCD8D8"/>
<path d="M279.512 106.515H296.936V101.964H279.512V106.515Z" fill="#DCD8D8"/>
<path d="M278.47 118.084H288.224V113.534H278.47V118.084Z" fill="#DCD8D8"/>
<path d="M300.867 131.044H310.622V126.494H300.867V131.044Z" fill="#DCD8D8"/>
<path d="M338.999 143.585H348.754V139.035H338.999V143.585Z" fill="#DCD8D8"/>
<path d="M352.248 118.084H362.002V113.534H352.248V118.084Z" fill="#DCD8D8"/>
<path d="M353.29 95.3066H370.714V90.7558H353.29V95.3066Z" fill="#DCD8D8"/>
<path d="M308.316 106.515H335.069V101.964H308.316V106.515Z" fill="#DCD8D8"/>
<path d="M292.365 118.084H319.118V113.534H292.365V118.084Z" fill="#DCD8D8"/>
<path d="M286.623 143.585H313.376V139.035H286.623V143.585Z" fill="#DCD8D8"/>
<path d="M321.692 131.044H348.445V126.494H321.692V131.044Z" fill="#DCD8D8"/>
<path d="M344.538 95.3066H348.754V90.7558H344.538V95.3066Z" fill="#DCD8D8"/>
<path d="M330.975 95.3066H335.191V90.7558H330.975V95.3066Z" fill="#DCD8D8"/>
<path d="M361.164 106.515H365.38V101.964H361.164V106.515Z" fill="#DCD8D8"/>
<path d="M313.993 131.044H318.209V126.494H313.993V131.044Z" fill="#DCD8D8"/>
<path d="M300.424 106.515H304.641V101.964H300.424V106.515Z" fill="#DCD8D8"/>
<path d="M317.173 95.3066H326.211V90.7558H317.173V95.3066Z" fill="#DCD8D8"/>
<path d="M339.431 96.4999H340.898V95.4407H340.491V90.6163H340.898V89.5571H339.431V96.4999Z" fill="#DCD8D8"/>
<path d="M323.317 119.283H324.784V118.224H324.377V113.399H324.784V112.34H323.317V119.283Z" fill="#DCD8D8"/>
<path d="M354.555 125.272L352.755 131.965L353.779 132.24L355.579 125.547L354.555 125.272Z" fill="#DCD8D8"/>
<path d="M358.299 132.488L361.903 128.769L358.363 125.056L357.594 125.784L360.43 128.763L357.536 131.749L358.299 132.488Z" fill="#DCD8D8"/>
<path d="M281.614 96.7441L282.377 96.005L279.477 93.0254L282.319 90.0458L281.55 89.3125L278.004 93.0312L281.614 96.7441Z" fill="#DCD8D8"/>
<path d="M281.614 145.023L282.377 144.284L279.477 141.304L282.319 138.325L281.55 137.597L278.004 141.31L281.614 145.023Z" fill="#DCD8D8"/>
<g filter="url(#filter3_d_855_1068)">
<path d="M229.738 213.909C238.473 213.909 245.555 206.833 245.555 198.103C245.555 189.374 238.473 182.297 229.738 182.297C221.003 182.297 213.921 189.374 213.921 198.103C213.921 206.833 221.003 213.909 229.738 213.909Z" fill="white"/>
</g>
<path d="M238.864 198.778L237.938 197.632C237.804 197.469 237.78 197.242 237.879 197.05L238.549 195.734C238.683 195.473 238.578 195.147 238.316 195.013L237 194.344C236.814 194.245 236.697 194.047 236.709 193.837L236.785 192.365C236.802 192.068 236.575 191.818 236.278 191.8L234.805 191.725C234.595 191.713 234.409 191.579 234.333 191.381L233.803 190.002C233.698 189.729 233.389 189.589 233.11 189.694L231.73 190.223C231.532 190.299 231.31 190.252 231.159 190.101L230.117 189.059C229.907 188.85 229.569 188.85 229.36 189.059L228.317 190.101C228.166 190.252 227.944 190.299 227.746 190.223L226.366 189.694C226.093 189.589 225.778 189.723 225.673 190.002L225.143 191.381C225.068 191.579 224.881 191.713 224.672 191.725L223.198 191.8C222.901 191.818 222.674 192.068 222.692 192.365L222.767 193.837C222.779 194.047 222.663 194.245 222.476 194.344L221.16 195.013C220.898 195.147 220.793 195.467 220.927 195.734L221.597 197.05C221.696 197.236 221.667 197.463 221.539 197.632L220.613 198.778C220.426 199.005 220.461 199.343 220.694 199.529L221.841 200.454C222.004 200.588 222.074 200.803 222.022 201.007L221.638 202.433C221.562 202.718 221.731 203.015 222.016 203.09L223.443 203.475C223.647 203.527 223.798 203.701 223.833 203.905L224.066 205.36C224.113 205.651 224.386 205.849 224.677 205.802L226.133 205.57C226.343 205.535 226.553 205.628 226.669 205.808L227.473 207.048C227.636 207.298 227.968 207.368 228.212 207.205L229.447 206.402C229.622 206.285 229.855 206.285 230.029 206.402L231.264 207.205C231.514 207.368 231.846 207.298 232.003 207.048L232.807 205.808C232.924 205.634 233.133 205.54 233.343 205.57L234.799 205.802C235.09 205.849 235.364 205.651 235.41 205.36L235.643 203.905C235.678 203.696 235.83 203.527 236.033 203.475L237.46 203.09C237.745 203.015 237.914 202.718 237.839 202.433L237.454 201.007C237.402 200.803 237.472 200.588 237.635 200.454L238.782 199.529C239.009 199.343 239.05 199.005 238.864 198.778ZM234.379 196.183L228.492 202.066C228.335 202.223 228.084 202.223 227.927 202.066L224.846 198.988C224.689 198.83 224.689 198.574 224.846 198.423L225.743 197.527C225.9 197.37 226.157 197.37 226.308 197.527L228.207 199.424L232.912 194.722C233.069 194.565 233.325 194.565 233.477 194.722L234.374 195.618C234.531 195.775 234.531 196.031 234.374 196.183H234.379Z" fill="#7DE5A4"/>
<g filter="url(#filter4_d_855_1068)">
<path d="M25.1286 117.072C36.1526 117.072 45.0859 125.999 45.0859 137.015C45.0859 148.032 36.1526 156.959 25.1286 156.959C14.1047 156.959 5.17139 148.032 5.17139 137.015C5.17139 125.999 14.1047 117.072 25.1286 117.072Z" fill="white"/>
</g>
<path d="M24.9423 126.657C24.5463 126.657 24.1678 126.814 23.8883 127.087L22.4906 128.484H27.4057L26.0139 127.093C25.7285 126.808 25.35 126.651 24.9482 126.651L24.9423 126.657ZM27.097 131.295C27.3882 131.295 27.627 131.533 27.627 131.824C27.627 132.115 27.3882 132.354 27.097 132.354H22.8051C22.5139 132.354 22.2752 132.115 22.2752 131.824C22.2752 131.533 22.5139 131.295 22.8051 131.295H27.097ZM29.2925 133.553C29.5837 133.553 29.8225 133.791 29.8225 134.082C29.8225 134.373 29.5837 134.612 29.2925 134.612H20.6096C20.3185 134.612 20.0797 134.373 20.0797 134.082C20.0797 133.791 20.3185 133.553 20.6096 133.553H29.2925ZM32.4198 133.5V135.467L33.4039 134.484L32.4198 133.5ZM16.4808 134.496L17.4824 135.491V133.495L16.4808 134.496ZM29.2925 135.811C29.5837 135.811 29.8225 136.049 29.8225 136.34C29.8225 136.631 29.5837 136.87 29.2925 136.87H20.6096C20.3185 136.87 20.0797 136.631 20.0797 136.34C20.0797 136.049 20.3185 135.811 20.6096 135.811H29.2925ZM18.5481 129.031C18.2569 129.031 18.0182 129.264 18.0182 129.555V136.032L24.9307 142.94L31.8723 136.003V129.555C31.8723 129.264 31.6336 129.025 31.3424 129.025H18.5481V129.031ZM15.8984 146.117C15.8984 146.28 15.9275 146.443 15.9741 146.6L21.5356 141.043L15.8926 135.403V146.117H15.8984ZM28.3083 141.072L33.8989 146.658C33.963 146.484 33.9979 146.303 33.9979 146.117V135.38L28.3025 141.072H28.3083ZM22.2868 141.793L16.6496 147.421C16.8768 147.549 17.133 147.619 17.3892 147.625H32.4955C32.7342 147.625 32.973 147.561 33.1885 147.45L27.5513 141.817L25.3034 144.063C25.0938 144.267 24.7618 144.267 24.5522 144.063L22.281 141.793H22.2868Z" fill="#F47F25"/>
<g filter="url(#filter5_d_855_1068)">
<path d="M363.295 262.683H290.169C287.825 262.683 285.924 264.582 285.924 266.925V367.353C285.924 369.696 287.825 371.595 290.169 371.595H363.295C365.64 371.595 367.541 369.696 367.541 367.353V266.925C367.541 264.582 365.64 262.683 363.295 262.683Z" fill="white"/>
</g>
<path d="M323.282 300.76H291.066V332.954H323.282V300.76Z" fill="#DCD8D8"/>
<path d="M318.215 324.608H296.144V329.654H318.215V324.608Z" fill="#DCD8D8"/>
<path d="M318.215 329.951H296.144C295.981 329.951 295.847 329.817 295.847 329.654V324.608C295.847 324.445 295.981 324.312 296.144 324.312H318.215C318.378 324.312 318.512 324.445 318.512 324.608V329.654C318.512 329.817 318.378 329.951 318.215 329.951ZM296.435 329.357H317.918V324.905H296.435V329.357Z" fill="white"/>
<path d="M312.677 315.938L310.849 316.229C310.849 316.229 302.865 316.083 301.391 318.9C300.762 320.104 302.818 320.96 305.794 320.71C307.512 320.564 309.072 320.035 309.072 320.035V321.874C309.072 321.874 298.45 322.595 298.922 318.428C299.295 315.175 303.534 314.168 304.571 310.357C305.607 306.551 305.194 305.078 306.452 305.27C307.71 305.462 312.671 315.938 312.671 315.938H312.677Z" fill="#DCD8D8"/>
<path d="M307.296 322.217C304.92 322.217 300.85 321.961 299.277 320.314C298.759 319.772 298.544 319.126 298.625 318.387C298.823 316.642 300.034 315.536 301.31 314.36C302.527 313.243 303.791 312.085 304.28 310.275C304.635 308.977 304.821 307.936 304.955 307.173C305.229 305.643 305.38 304.799 306.493 304.973C306.772 305.014 307.425 305.119 310.29 310.531C311.676 313.15 312.922 315.774 312.934 315.804C312.974 315.885 312.969 315.984 312.934 316.065C312.893 316.147 312.811 316.205 312.718 316.217L310.89 316.508C310.89 316.508 310.855 316.508 310.837 316.508C310.761 316.508 303.022 316.397 301.642 319.022C301.531 319.231 301.537 319.406 301.642 319.575C302.009 320.127 303.534 320.587 305.753 320.401C307.413 320.261 308.944 319.743 308.962 319.738C309.049 319.708 309.154 319.72 309.23 319.778C309.306 319.836 309.352 319.924 309.352 320.017V321.856C309.352 322.013 309.23 322.141 309.078 322.153C308.985 322.158 308.286 322.205 307.285 322.205L307.296 322.217ZM306.254 305.549C305.899 305.549 305.8 305.852 305.544 307.284C305.404 308.058 305.217 309.111 304.856 310.432C304.321 312.411 302.935 313.679 301.712 314.797C300.518 315.897 299.388 316.933 299.213 318.457C299.149 319.022 299.312 319.493 299.703 319.906C301.519 321.803 307.425 321.652 308.77 321.588V320.43C308.193 320.599 307.046 320.896 305.811 321C303.552 321.187 301.723 320.762 301.158 319.912C300.925 319.563 300.914 319.156 301.123 318.76C302.638 315.868 310.231 315.92 310.825 315.932L312.235 315.71C309.888 310.793 307.11 305.73 306.405 305.567C306.347 305.561 306.301 305.555 306.254 305.555V305.549Z" fill="white"/>
<path d="M313.676 316.358C315.591 315.206 315.538 311.605 313.557 308.314C311.576 305.023 308.417 303.288 306.501 304.439C304.586 305.591 304.639 309.192 306.621 312.484C308.602 315.775 311.761 317.509 313.676 316.358Z" fill="#DCD8D8"/>
<path d="M312.328 316.985C311.617 316.985 310.837 316.764 310.033 316.321C308.653 315.565 307.354 314.25 306.37 312.614C305.386 310.979 304.833 309.216 304.809 307.644C304.786 306.015 305.333 304.781 306.358 304.164C307.378 303.553 308.729 303.646 310.155 304.426C311.536 305.183 312.834 306.498 313.818 308.133C314.803 309.768 315.356 311.532 315.379 313.103C315.402 314.733 314.855 315.966 313.83 316.583C313.387 316.851 312.875 316.985 312.328 316.985ZM307.861 304.356C307.418 304.356 307.011 304.461 306.661 304.671C305.828 305.171 305.38 306.224 305.403 307.633C305.427 309.099 305.951 310.764 306.882 312.306C307.814 313.854 309.037 315.093 310.324 315.803C311.559 316.484 312.7 316.577 313.533 316.077C314.366 315.576 314.814 314.523 314.791 313.115C314.768 311.648 314.243 309.984 313.312 308.442C312.38 306.894 311.157 305.654 309.87 304.944C309.154 304.554 308.472 304.35 307.861 304.35V304.356Z" fill="white"/>
<path d="M311.379 320.853C311.631 319.786 310.97 318.717 309.903 318.466C308.835 318.214 307.766 318.874 307.514 319.941C307.262 321.008 307.923 322.077 308.99 322.328C310.058 322.58 311.127 321.92 311.379 320.853Z" fill="#E2EAFF"/>
<path d="M309.457 322.693C308.199 322.693 307.174 321.669 307.174 320.412C307.174 319.155 308.199 318.131 309.457 318.131C310.715 318.131 311.739 319.155 311.739 320.412C311.739 321.669 310.715 322.693 309.457 322.693ZM309.457 318.719C308.525 318.719 307.762 319.475 307.762 320.412C307.762 321.349 308.519 322.106 309.457 322.106C310.394 322.106 311.151 321.349 311.151 320.412C311.151 319.475 310.394 318.719 309.457 318.719Z" fill="white"/>
<path d="M361.944 300.684H329.577V333.029H361.944V300.684Z" fill="#DCD8D8"/>
<path d="M351.054 306.975H340.461C339.996 306.975 339.582 307.284 339.448 307.737L335.284 321.757C335.121 322.31 335.529 322.862 336.1 322.862H355.416C355.987 322.862 356.395 322.31 356.232 321.757L352.068 307.737C351.934 307.284 351.52 306.975 351.054 306.975Z" fill="#DCD8D8"/>
<path d="M355.416 323.153H336.1C335.738 323.153 335.401 322.985 335.185 322.694C334.964 322.397 334.9 322.024 335.005 321.669L339.169 307.65C339.343 307.068 339.862 306.678 340.461 306.678H351.054C351.648 306.678 352.178 307.08 352.353 307.65L356.517 321.669C356.622 322.024 356.558 322.397 356.336 322.694C356.115 322.985 355.783 323.153 355.422 323.153H355.416ZM340.461 307.266C340.124 307.266 339.832 307.487 339.733 307.813L335.57 321.832C335.517 322.007 335.552 322.193 335.657 322.339C335.762 322.478 335.925 322.56 336.1 322.56H355.416C355.591 322.56 355.754 322.478 355.859 322.339C355.969 322.193 355.999 322.013 355.946 321.832L351.782 307.813C351.683 307.487 351.392 307.266 351.054 307.266H340.461Z" fill="white"/>
<path d="M345.755 303.722C345.26 303.722 344.858 304.123 344.858 304.618V306.02H346.652V304.618C346.652 304.123 346.25 303.722 345.755 303.722Z" fill="white"/>
<path d="M341.084 322.345C341.084 322.345 341.061 322.345 341.044 322.345C340.881 322.321 340.77 322.176 340.787 322.013L342.68 307.778C342.703 307.615 342.849 307.505 343.012 307.522C343.175 307.546 343.286 307.691 343.268 307.854L341.376 322.089C341.358 322.24 341.23 322.345 341.084 322.345Z" fill="white"/>
<path d="M350.431 322.344C350.286 322.344 350.158 322.234 350.14 322.088L348.248 307.854C348.224 307.691 348.341 307.545 348.504 307.522C348.667 307.499 348.812 307.615 348.836 307.778L350.728 322.013C350.752 322.176 350.635 322.321 350.472 322.344C350.461 322.344 350.443 322.344 350.431 322.344Z" fill="white"/>
<path d="M345.755 328.536C345.592 328.536 345.458 328.402 345.458 328.239V322.856C345.458 322.693 345.592 322.56 345.755 322.56C345.918 322.56 346.052 322.693 346.052 322.856V328.239C346.052 328.402 345.918 328.536 345.755 328.536Z" fill="white"/>
<path d="M351.345 330.282H340.17C340.007 330.282 339.873 330.148 339.873 329.985C339.873 329.822 340.007 329.688 340.17 329.688H351.345C351.508 329.688 351.642 329.822 351.642 329.985C351.642 330.148 351.508 330.282 351.345 330.282Z" fill="white"/>
<path d="M345.882 296.756H307.179V335.433H345.882V296.756Z" fill="white"/>
<path d="M345.883 335.631H307.179C307.069 335.631 306.981 335.543 306.981 335.433V296.756C306.981 296.645 307.069 296.558 307.179 296.558H345.883C345.993 296.558 346.081 296.645 346.081 296.756V335.433C346.081 335.543 345.993 335.631 345.883 335.631ZM307.372 335.235H345.685V296.948H307.372V335.235Z" fill="#0000FF"/>
<path d="M316.736 331.638C316.706 331.638 316.672 331.632 316.642 331.615C316.543 331.563 316.508 331.446 316.561 331.347L320.026 324.783C320.078 324.69 320.195 324.649 320.294 324.701C320.393 324.754 320.428 324.87 320.375 324.969L316.91 331.533C316.875 331.597 316.805 331.638 316.736 331.638Z" fill="#0000FF"/>
<path d="M321.837 331.638C321.837 331.638 321.802 331.638 321.779 331.632C321.674 331.603 321.616 331.493 321.645 331.388L323.578 324.823C323.607 324.719 323.718 324.661 323.823 324.69C323.928 324.719 323.986 324.829 323.957 324.934L322.023 331.498C322 331.586 321.918 331.638 321.837 331.638Z" fill="#0000FF"/>
<path d="M339.698 331.638C339.628 331.638 339.558 331.597 339.523 331.533L336.058 324.969C336.006 324.87 336.047 324.754 336.14 324.701C336.239 324.649 336.355 324.69 336.408 324.783L339.873 331.347C339.925 331.446 339.884 331.563 339.791 331.615C339.762 331.632 339.733 331.638 339.698 331.638Z" fill="#0000FF"/>
<path d="M334.596 331.638C334.509 331.638 334.433 331.58 334.41 331.498L332.477 324.934C332.448 324.829 332.506 324.719 332.611 324.69C332.716 324.661 332.826 324.719 332.855 324.823L334.789 331.388C334.818 331.493 334.76 331.603 334.655 331.632C334.637 331.632 334.62 331.638 334.596 331.638Z" fill="#0000FF"/>
<path d="M331.691 317.887C331.691 317.887 335.091 317.869 337.462 317.875C338.626 317.875 339.5 318.94 339.279 320.081L338.848 322.333C338.434 324.503 336.536 326.075 334.323 326.075H321.849C319.473 326.075 317.534 324.183 317.475 321.815C317.388 318.195 316.846 312.911 314.738 308.581C311.151 301.219 315.542 300.754 316.73 300.754C320.428 300.754 319.449 303.477 324.469 303.71C325.424 303.757 326.35 303.309 326.88 302.511C327.439 301.679 328.458 300.719 330.176 300.766C333.181 300.841 333.42 303.227 332.972 307.441C332.587 311.037 331.679 317.887 331.679 317.887H331.691Z" fill="#0000FF"/>
<path d="M334.218 322.065C334.107 322.065 334.02 321.978 334.02 321.867V320.104C334.02 319.01 333.315 318.12 332.453 318.12H322.629C322.548 318.12 322.478 318.073 322.449 317.997L316.561 304.182C316.52 304.083 316.561 303.966 316.666 303.926C316.765 303.885 316.881 303.926 316.922 304.03L322.763 317.73H332.459C333.542 317.73 334.422 318.795 334.422 320.104V321.867C334.422 321.978 334.334 322.065 334.224 322.065H334.218Z" fill="#0000FF"/>
<path d="M336.88 347.45H344.771V349.737C344.771 350.092 345.19 350.278 345.452 350.034L350.856 345.052C351.031 344.889 351.031 344.616 350.856 344.453L345.452 339.471C345.19 339.233 344.771 339.419 344.771 339.768V342.055H336.88V347.444V347.45Z" fill="#DCD8D8"/>
<path d="M346.692 351.855C346.611 351.855 346.529 351.838 346.448 351.803C346.226 351.704 346.087 351.495 346.087 351.25V349.161H338.388C338.277 349.161 338.19 349.074 338.19 348.963C338.19 348.852 338.277 348.765 338.388 348.765H346.279C346.389 348.765 346.477 348.852 346.477 348.963V351.25C346.477 351.378 346.576 351.431 346.605 351.442C346.634 351.454 346.739 351.489 346.832 351.401L352.236 346.42C352.283 346.379 352.306 346.327 352.306 346.263C352.306 346.199 352.283 346.146 352.236 346.106L346.832 341.124C346.739 341.037 346.634 341.072 346.605 341.089C346.576 341.107 346.477 341.153 346.477 341.281V343.568C346.477 343.679 346.389 343.766 346.279 343.766H338.388C338.277 343.766 338.19 343.679 338.19 343.568C338.19 343.458 338.277 343.37 338.388 343.37H346.087V341.281C346.087 341.037 346.226 340.827 346.448 340.728C346.669 340.629 346.919 340.67 347.1 340.839L352.504 345.82C352.626 345.937 352.696 346.094 352.696 346.263C352.696 346.432 352.626 346.594 352.504 346.705L347.1 351.687C346.983 351.791 346.844 351.85 346.692 351.85V351.855Z" fill="#0000FF"/>
<path d="M316.183 347.45H308.292V349.737C308.292 350.092 307.873 350.278 307.61 350.034L302.206 345.052C302.032 344.889 302.032 344.616 302.206 344.453L307.61 339.471C307.873 339.233 308.292 339.419 308.292 339.768V342.055H316.183V347.444V347.45Z" fill="#DCD8D8"/>
<path d="M306.364 351.855C306.219 351.855 306.073 351.797 305.957 351.692L300.553 346.711C300.43 346.594 300.36 346.437 300.36 346.269C300.36 346.1 300.43 345.937 300.553 345.826L305.957 340.845C306.137 340.682 306.388 340.641 306.609 340.734C306.83 340.833 306.97 341.043 306.97 341.287V343.376H314.669C314.779 343.376 314.867 343.464 314.867 343.574C314.867 343.685 314.779 343.772 314.669 343.772H306.778C306.667 343.772 306.58 343.685 306.58 343.574V341.287C306.58 341.159 306.481 341.107 306.452 341.095C306.423 341.083 306.318 341.048 306.225 341.13L300.82 346.111C300.774 346.152 300.751 346.205 300.751 346.269C300.751 346.333 300.774 346.385 300.82 346.426L306.225 351.407C306.318 351.495 306.423 351.46 306.452 351.448C306.481 351.436 306.58 351.384 306.58 351.256V348.969C306.58 348.858 306.667 348.771 306.778 348.771H314.669C314.779 348.771 314.867 348.858 314.867 348.969C314.867 349.079 314.779 349.167 314.669 349.167H306.97V351.256C306.97 351.5 306.83 351.71 306.609 351.809C306.527 351.844 306.446 351.861 306.364 351.861V351.855Z" fill="#0000FF"/>
<path d="M330.352 346.269C330.352 344.16 328.642 342.451 326.532 342.451C324.422 342.451 322.711 344.16 322.711 346.269C322.711 348.377 324.422 350.086 326.532 350.086C328.642 350.086 330.352 348.377 330.352 346.269Z" fill="white"/>
<path d="M328.377 350.284H324.685C323.486 350.284 322.513 349.313 322.513 348.114V344.424C322.513 343.225 323.486 342.253 324.685 342.253H328.377C329.577 342.253 330.55 343.225 330.55 344.424V348.114C330.55 349.313 329.577 350.284 328.377 350.284ZM324.685 342.649C323.707 342.649 322.909 343.446 322.909 344.424V348.114C322.909 349.091 323.707 349.889 324.685 349.889H328.377C329.356 349.889 330.154 349.091 330.154 348.114V344.424C330.154 343.446 329.356 342.649 328.377 342.649H324.685Z" fill="#0000FF"/>
<path d="M293.355 271.098C294.619 271.098 295.643 270.074 295.643 268.811C295.643 267.547 294.619 266.523 293.355 266.523C292.091 266.523 291.066 267.547 291.066 268.811C291.066 270.074 292.091 271.098 293.355 271.098Z" fill="#0000FF"/>
<path d="M300.04 271.098C301.304 271.098 302.329 270.074 302.329 268.811C302.329 267.547 301.304 266.523 300.04 266.523C298.776 266.523 297.751 267.547 297.751 268.811C297.751 270.074 298.776 271.098 300.04 271.098Z" fill="#0000FF"/>
<path d="M307.095 271.052C308.343 270.85 309.19 269.675 308.987 268.428C308.785 267.182 307.609 266.335 306.362 266.537C305.114 266.74 304.267 267.915 304.469 269.161C304.672 270.408 305.847 271.255 307.095 271.052Z" fill="#0000FF"/>
<path d="M361.938 271.296H325.477C325.367 271.296 325.279 271.208 325.279 271.098C325.279 270.987 325.367 270.9 325.477 270.9H361.938C362.049 270.9 362.136 270.987 362.136 271.098C362.136 271.208 362.049 271.296 361.938 271.296Z" fill="#0000FF"/>
<path d="M359.836 275.038C358.677 275.038 357.734 276.044 357.734 277.29C357.734 277.301 357.734 277.319 357.728 277.348C357.728 277.325 357.722 277.301 357.722 277.29C357.722 276.044 356.779 275.038 355.62 275.038C354.461 275.038 353.518 276.044 353.518 277.29C353.518 280.508 357.722 281.66 357.722 281.66C357.722 281.66 357.722 281.66 357.728 281.649C357.728 281.654 357.734 281.66 357.734 281.66C357.734 281.66 361.938 280.514 361.938 277.29C361.938 276.044 360.995 275.038 359.836 275.038Z" fill="#0000FF"/>
</g>
<defs>
<filter id="filter0_d_855_1068" x="67.3579" y="75.7617" width="142.951" height="240.873" filterUnits="userSpaceOnUse" color-interpolation-filters="sRGB">
<feFlood flood-opacity="0" result="BackgroundImageFix"/>
<feColorMatrix in="SourceAlpha" type="matrix" values="0 0 0 0 0 0 0 0 0 0 0 0 0 0 0 0 0 0 127 0" result="hardAlpha"/>
<feOffset dx="5" dy="5"/>
<feGaussianBlur stdDeviation="7"/>
<feColorMatrix type="matrix" values="0 0 0 0 0 0 0 0 0 0 0 0 0 0 0 0 0 0 0.25 0"/>
<feBlend mode="normal" in2="BackgroundImageFix" result="effect1_dropShadow_855_1068"/>
<feBlend mode="normal" in="SourceGraphic" in2="effect1_dropShadow_855_1068" result="shape"/>
</filter>
<filter id="filter1_d_855_1068" x="21.1836" y="128.016" width="128.619" height="134.585" filterUnits="userSpaceOnUse" color-interpolation-filters="sRGB">
<feFlood flood-opacity="0" result="BackgroundImageFix"/>
<feColorMatrix in="SourceAlpha" type="matrix" values="0 0 0 0 0 0 0 0 0 0 0 0 0 0 0 0 0 0 127 0" result="hardAlpha"/>
<feOffset dx="5" dy="5"/>
<feGaussianBlur stdDeviation="7"/>
<feColorMatrix type="matrix" values="0 0 0 0 0 0 0 0 0 0 0 0 0 0 0 0 0 0 0.25 0"/>
<feBlend mode="normal" in2="BackgroundImageFix" result="effect1_dropShadow_855_1068"/>
<feBlend mode="normal" in="SourceGraphic" in2="effect1_dropShadow_855_1068" result="shape"/>
</filter>
<filter id="filter2_d_855_1068" x="257.065" y="0.561523" width="142.275" height="170.422" filterUnits="userSpaceOnUse" color-interpolation-filters="sRGB">
<feFlood flood-opacity="0" result="BackgroundImageFix"/>
<feColorMatrix in="SourceAlpha" type="matrix" values="0 0 0 0 0 0 0 0 0 0 0 0 0 0 0 0 0 0 127 0" result="hardAlpha"/>
<feOffset dx="5" dy="5"/>
<feGaussianBlur stdDeviation="7"/>
<feColorMatrix type="matrix" values="0 0 0 0 0 0 0 0 0 0 0 0 0 0 0 0 0 0 0.25 0"/>
<feBlend mode="normal" in2="BackgroundImageFix" result="effect1_dropShadow_855_1068"/>
<feBlend mode="normal" in="SourceGraphic" in2="effect1_dropShadow_855_1068" result="shape"/>
</filter>
<filter id="filter3_d_855_1068" x="201.921" y="170.297" width="55.6333" height="55.6118" filterUnits="userSpaceOnUse" color-interpolation-filters="sRGB">
<feFlood flood-opacity="0" result="BackgroundImageFix"/>
<feColorMatrix in="SourceAlpha" type="matrix" values="0 0 0 0 0 0 0 0 0 0 0 0 0 0 0 0 0 0 127 0" result="hardAlpha"/>
<feOffset/>
<feGaussianBlur stdDeviation="6"/>
<feColorMatrix type="matrix" values="0 0 0 0 0.658824 0 0 0 0 0.658824 0 0 0 0 0.658824 0 0 0 0.45 0"/>
<feBlend mode="normal" in2="BackgroundImageFix" result="effect1_dropShadow_855_1068"/>
<feBlend mode="normal" in="SourceGraphic" in2="effect1_dropShadow_855_1068" result="shape"/>
</filter>
<filter id="filter4_d_855_1068" x="2.17139" y="114.072" width="59.9146" height="59.8872" filterUnits="userSpaceOnUse" color-interpolation-filters="sRGB">
<feFlood flood-opacity="0" result="BackgroundImageFix"/>
<feColorMatrix in="SourceAlpha" type="matrix" values="0 0 0 0 0 0 0 0 0 0 0 0 0 0 0 0 0 0 127 0" result="hardAlpha"/>
<feOffset dx="7" dy="7"/>
<feGaussianBlur stdDeviation="5"/>
<feColorMatrix type="matrix" values="0 0 0 0 0.658824 0 0 0 0 0.658824 0 0 0 0 0.658824 0 0 0 0.25 0"/>
<feBlend mode="normal" in2="BackgroundImageFix" result="effect1_dropShadow_855_1068"/>
<feBlend mode="normal" in="SourceGraphic" in2="effect1_dropShadow_855_1068" result="shape"/>
</filter>
<filter id="filter5_d_855_1068" x="276.924" y="253.683" width="109.617" height="136.913" filterUnits="userSpaceOnUse" color-interpolation-filters="sRGB">
<feFlood flood-opacity="0" result="BackgroundImageFix"/>
<feColorMatrix in="SourceAlpha" type="matrix" values="0 0 0 0 0 0 0 0 0 0 0 0 0 0 0 0 0 0 127 0" result="hardAlpha"/>
<feOffset dx="5" dy="5"/>
<feGaussianBlur stdDeviation="7"/>
<feColorMatrix type="matrix" values="0 0 0 0 0 0 0 0 0 0 0 0 0 0 0 0 0 0 0.25 0"/>
<feBlend mode="normal" in2="BackgroundImageFix" result="effect1_dropShadow_855_1068"/>
<feBlend mode="normal" in="SourceGraphic" in2="effect1_dropShadow_855_1068" result="shape"/>
</filter>
<clipPath id="clip0_855_1068">
<rect width="396" height="387" fill="white"/>
</clipPath>
</defs>
</svg>
