<svg width="411" height="409" viewBox="0 0 411 409" fill="none" xmlns="http://www.w3.org/2000/svg">
<path d="M220.937 261.418H219.948V298.223H220.937V261.418Z" fill="#0000FF"/>
<path d="M234.202 263.823H233.214V299.367H234.202V263.823Z" fill="#0000FF"/>
<path d="M234.202 260.01H233.214V238.657H220.937V258.558H219.948V237.672H234.202V260.01Z" fill="#0000FF"/>
<path d="M348.554 360.075H334.302V237.672H348.554V360.075ZM335.291 359.09H347.568V238.66H335.291V359.09Z" fill="#0000FF"/>
<path d="M158.037 314.516C144.572 284.443 125.531 269.948 111.928 263.084C97.1881 255.646 85.4758 255.315 85.3591 255.312L85.3806 254.327C85.5004 254.327 97.3938 254.658 112.324 262.179C121.083 266.591 129.172 272.583 136.362 279.984C145.342 289.229 152.938 300.711 158.94 314.114L158.04 314.516H158.037Z" fill="#0000FF"/>
<path d="M142.205 255.312C138.978 255.312 135.647 255.164 132.227 254.87C117.248 253.575 105.557 249.835 105.441 249.795L105.091 249.681L105.1 249.313C105.1 249.212 105.367 239.138 106.785 226.745C108.096 215.288 110.69 199.449 115.606 189.032C124.174 170.877 131.806 164.866 135.472 161.978C135.868 161.665 136.212 161.395 136.504 161.15C140.28 157.98 150.076 160.739 154.114 162.07C159.781 163.942 169.673 178.511 174.987 186.338C175.902 187.685 176.626 188.753 177.151 189.492C180.086 193.619 181.284 194.356 181.499 194.463C187.393 194.856 222.011 205.558 223.488 206.018L223.835 206.126V208.458C228.572 207.654 233.054 207.709 237.171 208.62C240.607 209.384 243.797 210.741 246.646 212.658C251.505 215.929 253.67 219.645 253.759 219.802L254.186 220.544L223.832 220.363V227.368H205.967L177.277 226.564L180.574 244.999L180.314 245.18C173.839 249.678 165.866 252.719 156.619 254.216C152.106 254.947 147.283 255.312 142.205 255.312ZM106.094 248.963C108.145 249.589 118.906 252.728 132.331 253.885C145.935 255.057 165.12 254.382 179.491 244.548L176.092 225.546L205.985 226.383H222.843V219.372L252.408 219.547C251.533 218.31 249.467 215.739 246.05 213.45C241.733 210.557 234.304 207.528 223.427 209.529L222.843 209.636V206.85C219.104 205.696 186.595 195.715 181.36 195.442L181.284 195.433C180.974 195.368 179.703 194.788 176.341 190.063C175.807 189.314 175.082 188.243 174.164 186.89C169.289 179.71 159.145 164.771 153.797 163.006C147.559 160.947 139.905 159.576 137.133 161.905C136.832 162.159 136.482 162.432 136.08 162.752C132.473 165.593 124.966 171.509 116.496 189.452C111.639 199.744 109.066 215.466 107.765 226.846C106.503 237.862 106.159 247.036 106.098 248.966L106.094 248.963Z" fill="#0000FF"/>
<path d="M176.651 226.549C172.632 226.264 168.264 224.377 163.665 220.943C160.017 218.218 156.21 214.515 152.351 209.934C145.794 202.152 141.287 194.414 141.241 194.337L142.094 193.843C142.137 193.92 146.61 201.594 153.116 209.311C159.078 216.386 168.015 224.95 176.722 225.567L176.651 226.552V226.549Z" fill="#0000FF"/>
<path d="M247.023 220.284C244.113 215.822 236.49 215.061 236.413 215.055L236.505 214.073C236.837 214.104 244.677 214.883 247.852 219.747L247.026 220.287L247.023 220.284Z" fill="#0000FF"/>
<path d="M223.832 209.047H222.843V219.873H223.832V209.047Z" fill="#0000FF"/>
<path d="M361.187 238.66H205.488V226.386H361.187V238.66ZM206.474 237.672H360.198V227.371H206.474V237.672Z" fill="#0000FF"/>
<path d="M263.614 227.39L223.623 227.387L222.843 227.347V219.701H258.478V220.689H223.832V226.402H263.123V226.7H263.614V227.39Z" fill="#0000FF"/>
<path d="M263.712 227.405L262.969 227.169L263.122 226.7L262.923 226.635L278.525 178.483L273.085 176.722L258.947 220.348L258.011 220.041L272.449 175.479L279.768 177.848L263.712 227.405Z" fill="#0000FF"/>
<path d="M359.029 227.39H288.484V222.796H358.043V220.194H288.484V215.742H359.029V227.393V227.39ZM289.47 226.402H358.04V223.781H289.47V226.402ZM289.47 219.206H358.04V216.727H289.47V219.206Z" fill="#0000FF"/>
<path d="M291.45 219.697H290.462V223.287H291.45V219.697Z" fill="#0000FF"/>
<path d="M361.472 208.399H290.928V203.806H360.487V201.204H290.928V196.752H361.472V208.403V208.399ZM291.914 207.415H360.484V204.794H291.914V207.415ZM291.914 200.216H360.484V197.737H291.914V200.216Z" fill="#0000FF"/>
<path d="M293.894 200.71H292.905V204.3H293.894V200.71Z" fill="#0000FF"/>
<path d="M363.91 210.575H301.523V207.906H363.91V216.114H301.523V213.337H303.294H363.91" fill="#0000FF"/>
<path d="M303.792 210.575H302.803V213.337H303.792V210.575Z" fill="#0000FF"/>
<path d="M363.904 210.575H362.915V213.337H363.904V210.575Z" fill="#0000FF"/>
<path d="M220.237 257.911C207.877 252.191 199.541 243.983 194.724 238.101C189.502 231.725 187.166 226.616 187.144 226.564L188.044 226.159C188.065 226.208 190.362 231.222 195.51 237.506C200.257 243.296 208.472 251.384 220.651 257.018L220.237 257.914V257.911Z" fill="#0000FF"/>
<path d="M139.239 160.739L138.324 160.371L142.168 150.785L142.462 150.752C142.499 150.749 146.113 150.322 147.16 148.515C148.081 146.925 148.811 144.765 149.066 143.971C148.099 143.139 144.863 140.123 145.204 137.254C145.373 135.839 146.358 134.701 148.133 133.869L148.265 133.808L148.409 133.827C148.52 133.842 151.059 134.241 151.605 138.902C151.946 138.991 152.419 139.058 152.658 138.92C152.72 138.883 152.787 138.825 152.818 138.653C152.987 137.637 152.873 133.44 152.812 131.878C152.726 131.182 153.063 129.832 154.948 129.519C156.603 129.242 157.487 127.441 157.497 127.423L157.653 127.095L158.015 127.147C158.936 127.285 161.531 127.444 162.446 126.53L162.611 126.364L162.848 126.389C163.026 126.407 167.195 126.929 168.88 133.329L169.016 133.839C169.989 137.502 171.459 143.035 168.46 146.689C166.093 149.576 161.512 150.767 154.46 150.328L154.522 149.343C161.141 149.754 165.574 148.65 167.698 146.063C170.376 142.798 169.04 137.766 168.064 134.09L167.929 133.578C166.615 128.583 163.741 127.589 162.946 127.404C161.647 128.429 159.164 128.27 158.215 128.162C157.828 128.807 156.809 130.206 155.114 130.488C153.665 130.731 153.791 131.722 153.797 131.765V131.817C153.809 132.047 154.018 137.487 153.797 138.816C153.727 139.248 153.502 139.58 153.152 139.779C152.339 140.242 151.111 139.788 150.973 139.733L150.687 139.623L150.66 139.319C150.328 135.757 148.848 134.989 148.4 134.836C147.052 135.502 146.309 136.352 146.19 137.364C145.864 140.114 149.907 143.378 149.95 143.412L150.211 143.621L150.116 143.94C150.079 144.059 149.223 146.931 148.022 149.006C146.914 150.917 143.853 151.534 142.877 151.687L139.251 160.733L139.239 160.739Z" fill="#0000FF"/>
<path d="M154.436 162.644L153.472 162.436C154.666 156.919 158.206 149.957 158.356 149.662L159.234 150.11C159.197 150.181 155.605 157.25 154.436 162.641V162.644Z" fill="#0000FF"/>
<path d="M142.515 151.242C142.515 151.242 142.515 147.327 141.489 146.894C140.464 146.462 138.874 147.385 138.778 143.719C138.778 143.719 135.18 143.283 134.962 141.022C134.744 138.76 135.503 138.435 133.507 137.088C131.512 135.741 132.537 132.94 133.507 131.915C134.477 130.89 133.885 129.758 133.507 129.165C133.13 128.573 133.344 125.284 135.665 125.017C135.665 125.017 136.85 124.477 135.88 121.783C134.91 119.089 139.764 118.334 139.764 118.334C139.764 118.334 141.489 118.442 141.597 116.232C141.704 114.023 145.64 113.753 147.743 114.293C149.846 114.833 149.306 111.762 152.004 111.384C154.7 111.007 156.695 111.762 157.236 112.894C157.776 114.026 160.416 112.302 161.712 113.649C163.007 114.996 163.815 116.45 163.87 117.582C163.925 118.715 167.643 117.098 166.943 121.031C166.728 122.216 166.188 122.486 167.321 123.348C168.454 124.21 168.15 127.429 166.63 129.54C166.63 129.54 164.364 126.717 162.793 126.889C161.221 127.061 161.34 127.904 157.884 127.751C157.884 127.751 157.045 129.859 153.957 130.427C153.957 130.427 153.235 131.209 153.374 134.201C153.512 137.192 153.567 139.018 152.987 139.303C152.407 139.589 151.372 139.813 151.148 139.282C150.924 138.751 151.022 134.747 148.345 134.323C148.345 134.323 145.167 135.207 145.781 138.555C145.781 138.555 146.426 140.604 147.731 141.945C149.036 143.283 149.64 143.808 149.64 143.808C149.64 143.808 148.111 148.582 147.178 149.315C146.245 150.049 144.259 151.371 142.524 151.245L142.515 151.242Z" fill="#0000FF"/>
<path d="M117.758 252.317L112.517 262.832C112.517 262.832 132.979 272.04 148.351 295.75L220.442 298.226C220.442 298.226 231.756 296.394 241.948 303.184C252.138 309.975 306.936 346.675 306.936 346.675C306.936 346.675 317.451 340.207 321.331 330.508L315.833 325.497L247.438 268.266C247.438 268.266 239.428 263.578 214.625 260.669L190.144 257.472L187.593 255.333L191.436 254.827L220.442 258.567C220.442 258.567 241.746 258.889 251.128 267.137C260.51 275.382 317.555 323.316 317.555 323.316L320.039 320.165L251.45 262.124C251.45 262.124 240.128 257.113 234.467 256.465C228.805 255.818 176.685 246.901 176.685 246.901C176.685 246.901 169.353 251.038 163.072 252.366C156.791 253.695 137.904 257.239 117.758 252.323V252.317Z" fill="#0000FF"/>
<path d="M179.039 348.74C168.187 348.74 155.98 348.335 143.54 347.145C126.63 345.528 111.599 342.689 98.8675 338.713C83.5447 333.926 71.3688 327.424 62.6805 319.388C57.314 314.424 53.1878 308.781 50.4186 302.617C47.4468 296.004 45.9609 288.622 46.0008 280.678C46.099 261.129 49.82 244.023 57.0531 229.835C62.8493 218.47 70.8991 208.946 80.9781 201.523C89.9458 194.92 98.892 191.241 104.817 189.317C111.246 187.231 115.627 186.697 115.67 186.691L115.787 187.67C115.744 187.676 111.433 188.201 105.081 190.269C99.2236 192.174 90.3848 195.816 81.5277 202.346C65.8918 213.87 47.2073 236.819 46.9863 280.684C46.9095 295.768 52.4172 308.545 63.3528 318.664C79.2036 333.328 106.214 342.579 143.632 346.16C174.1 349.075 203.179 347.267 214.268 346.353C218.014 346.043 221.769 345.454 225.425 344.598L229.432 343.659C233.245 342.766 236.84 341.37 240.115 339.511C249.909 333.951 254.118 327.099 255.926 322.328C257.876 317.185 257.526 313.328 257.523 313.291L258.505 313.196C258.521 313.362 258.88 317.323 256.85 322.681C255.662 325.816 253.894 328.78 251.598 331.49C248.733 334.868 245.037 337.857 240.604 340.37C237.245 342.275 233.561 343.708 229.656 344.622L225.649 345.561C221.947 346.43 218.143 347.028 214.348 347.341C207.76 347.884 194.835 348.74 179.036 348.74H179.039Z" fill="#0000FF"/>
<path d="M319.197 355.622L318.964 355.604C315.962 355.386 313.008 353.364 310.426 349.75C308.507 347.065 307.47 344.481 307.427 344.374L308.345 344.009C308.385 344.11 312.357 353.91 318.804 354.601L334.44 337.961L335.159 338.636L319.197 355.622Z" fill="#0000FF"/>
<path d="M320.398 331.72L319.842 330.904C320.318 330.581 331.505 322.966 334.646 321.95L334.95 322.889C331.945 323.862 320.515 331.64 320.401 331.72H320.398Z" fill="#0000FF"/>
<path d="M316.223 325.795L315.446 325.185L319.75 319.726L334.658 315.406L334.935 316.354L320.33 320.585L316.223 325.795Z" fill="#0000FF"/>
</svg>
