<svg width="50" height="50" viewBox="0 0 50 50" fill="none" xmlns="http://www.w3.org/2000/svg">
<rect width="50" height="50" rx="25" fill="#FBECCD"/>
<path d="M22.9987 11.667C19.3227 11.667 16.332 14.6577 16.332 18.3337V22.3337H14.9987C14.2915 22.3337 13.6132 22.6146 13.1131 23.1147C12.613 23.6148 12.332 24.2931 12.332 25.0003V35.667C12.332 36.3742 12.613 37.0525 13.1131 37.5526C13.6132 38.0527 14.2915 38.3337 14.9987 38.3337H30.9987C31.7059 38.3337 32.3842 38.0527 32.8843 37.5526C33.3844 37.0525 33.6654 36.3742 33.6654 35.667V25.0003C33.6654 24.2931 33.3844 23.6148 32.8843 23.1147C32.3842 22.6146 31.7059 22.3337 30.9987 22.3337H29.6654V18.3337C29.6654 14.6577 26.6747 11.667 22.9987 11.667ZM18.9987 18.3337C18.9987 16.1283 20.7934 14.3337 22.9987 14.3337C25.204 14.3337 26.9987 16.1283 26.9987 18.3337V22.3337H18.9987V18.3337ZM24.332 32.631V35.667H21.6654V32.631C21.1992 32.3641 20.8249 31.9621 20.5918 31.4781C20.3587 30.9942 20.2777 30.4509 20.3596 29.92C20.4415 29.3891 20.6823 28.8955 21.0504 28.5042C21.4184 28.113 21.8964 27.8424 22.4214 27.7283C22.8113 27.6421 23.2155 27.6445 23.6044 27.7354C23.9932 27.8262 24.3567 28.0032 24.668 28.2532C24.9793 28.5033 25.2306 28.82 25.4032 29.1801C25.5758 29.5401 25.6654 29.9344 25.6654 30.3337C25.6646 30.8 25.5409 31.2579 25.3069 31.6612C25.0728 32.0645 24.7366 32.399 24.332 32.631Z" fill="#F15424"/>
</svg>
