<svg width="221" height="96" viewBox="0 0 221 96" fill="none" xmlns="http://www.w3.org/2000/svg">
<g filter="url(#filter0_d_1272_1931)">
<path d="M216.5 63C216.5 76.8071 205.307 88 191.5 88L29.5 88C15.6929 88 4.5 76.8071 4.5 63L4.50001 -0.000293192L191.5 -0.000276844C205.307 -0.000275637 216.5 11.1926 216.5 24.9997L216.5 63Z" fill="#E373A4" fill-opacity="0.7" shape-rendering="crispEdges"/>
<path d="M34.964 15.5998C36.028 15.5998 36.852 15.8518 37.436 16.3558C38.02 16.8598 38.312 17.5678 38.312 18.4798C38.312 19.4318 38.02 20.1718 37.436 20.6998C36.852 21.2278 36.028 21.4918 34.964 21.4918H32.432L33.14 20.7838V23.9998H31.532V15.5998H34.964ZM34.892 20.1598C35.492 20.1598 35.952 20.0238 36.272 19.7518C36.6 19.4798 36.764 19.0678 36.764 18.5158C36.764 17.9878 36.6 17.5958 36.272 17.3398C35.952 17.0758 35.492 16.9438 34.892 16.9438H32.432L33.14 16.2358V20.8678L32.432 20.1598H34.892ZM43.9017 20.3158C43.8857 19.9798 43.8097 19.6958 43.6737 19.4638C43.5377 19.2238 43.3457 19.0398 43.0977 18.9118C42.8577 18.7758 42.5817 18.7078 42.2697 18.7078C41.9097 18.7078 41.5977 18.7918 41.3337 18.9598C41.0697 19.1278 40.8617 19.3638 40.7097 19.6678C40.5657 19.9718 40.4937 20.3238 40.4937 20.7238C40.4937 21.1638 40.5737 21.5438 40.7337 21.8638C40.9017 22.1838 41.1297 22.4318 41.4177 22.6078C41.7057 22.7758 42.0377 22.8598 42.4137 22.8598C43.0937 22.8598 43.6737 22.6158 44.1537 22.1278L44.9817 22.9558C44.6617 23.3078 44.2737 23.5798 43.8177 23.7718C43.3617 23.9638 42.8537 24.0598 42.2937 24.0598C41.6217 24.0598 41.0377 23.9238 40.5417 23.6518C40.0537 23.3718 39.6697 22.9918 39.3897 22.5118C39.1177 22.0238 38.9817 21.4558 38.9817 20.8078C38.9817 20.1598 39.1177 19.5918 39.3897 19.1038C39.6697 18.6158 40.0537 18.2358 40.5417 17.9638C41.0377 17.6918 41.6057 17.5518 42.2457 17.5438C43.0057 17.5438 43.6177 17.6998 44.0817 18.0118C44.5537 18.3238 44.8897 18.7638 45.0897 19.3318C45.2897 19.8918 45.3617 20.5598 45.3057 21.3358H40.2657V20.3158H43.9017ZM50.4152 18.9598C49.9672 18.9278 49.5792 18.9958 49.2512 19.1638C48.9232 19.3238 48.6712 19.5558 48.4952 19.8598C48.3192 20.1638 48.2312 20.5118 48.2312 20.9038L47.8112 20.8558C47.8112 20.1438 47.9152 19.5438 48.1232 19.0558C48.3312 18.5598 48.6312 18.1838 49.0232 17.9278C49.4152 17.6718 49.8792 17.5438 50.4152 17.5438V18.9598ZM46.6712 17.6038H48.2312V23.9998H46.6712V17.6038ZM55.3151 19.2718C55.0031 19.0878 54.6791 18.9478 54.3431 18.8518C54.0071 18.7478 53.7031 18.6958 53.4311 18.6958C53.1751 18.6958 52.9671 18.7438 52.8071 18.8398C52.6471 18.9278 52.5671 19.0798 52.5671 19.2958C52.5671 19.4798 52.6471 19.6278 52.8071 19.7398C52.9751 19.8518 53.1871 19.9478 53.4431 20.0278C53.6991 20.0998 53.9711 20.1798 54.2591 20.2678C54.5471 20.3558 54.8191 20.4718 55.0751 20.6158C55.3391 20.7598 55.5511 20.9518 55.7111 21.1918C55.8791 21.4318 55.9631 21.7478 55.9631 22.1398C55.9631 22.5718 55.8471 22.9318 55.6151 23.2198C55.3831 23.4998 55.0751 23.7118 54.6911 23.8558C54.3071 23.9918 53.8871 24.0598 53.4311 24.0598C52.9511 24.0598 52.4711 23.9838 51.9911 23.8318C51.5191 23.6798 51.1151 23.4558 50.7791 23.1598L51.3191 22.1158C51.6151 22.3718 51.9631 22.5718 52.3631 22.7158C52.7711 22.8518 53.1471 22.9198 53.4911 22.9198C53.6751 22.9198 53.8391 22.8958 53.9831 22.8478C54.1271 22.7998 54.2391 22.7318 54.3191 22.6438C54.3991 22.5478 54.4391 22.4238 54.4391 22.2718C54.4391 22.0638 54.3591 21.9038 54.1991 21.7918C54.0391 21.6718 53.8311 21.5718 53.5751 21.4918C53.3271 21.4038 53.0591 21.3198 52.7711 21.2398C52.4831 21.1518 52.2111 21.0398 51.9551 20.9038C51.7071 20.7598 51.5031 20.5718 51.3431 20.3398C51.1831 20.1078 51.1031 19.7998 51.1031 19.4158C51.1031 18.9838 51.2151 18.6278 51.4391 18.3478C51.6631 18.0678 51.9591 17.8638 52.3271 17.7358C52.6951 17.5998 53.0951 17.5318 53.5271 17.5318C53.9431 17.5318 54.3591 17.5918 54.7751 17.7118C55.1911 17.8238 55.5591 17.9838 55.8791 18.1918L55.3151 19.2718ZM60.1081 17.5438C60.7721 17.5438 61.3561 17.6798 61.8601 17.9518C62.3721 18.2238 62.7681 18.6038 63.0481 19.0918C63.3361 19.5798 63.4801 20.1478 63.4801 20.7958C63.4801 21.4438 63.3361 22.0118 63.0481 22.4998C62.7681 22.9878 62.3721 23.3718 61.8601 23.6518C61.3561 23.9238 60.7721 24.0598 60.1081 24.0598C59.4361 24.0598 58.8441 23.9238 58.3321 23.6518C57.8201 23.3718 57.4201 22.9878 57.1321 22.4998C56.8521 22.0118 56.7121 21.4438 56.7121 20.7958C56.7121 20.1478 56.8521 19.5798 57.1321 19.0918C57.4201 18.6038 57.8201 18.2238 58.3321 17.9518C58.8441 17.6798 59.4361 17.5438 60.1081 17.5438ZM60.1081 18.8038C59.7481 18.8038 59.4281 18.8918 59.1481 19.0678C58.8761 19.2358 58.6641 19.4718 58.5121 19.7758C58.3601 20.0718 58.2841 20.4158 58.2841 20.8078C58.2841 21.2078 58.3601 21.5598 58.5121 21.8638C58.6641 22.1678 58.8761 22.4038 59.1481 22.5718C59.4281 22.7398 59.7481 22.8238 60.1081 22.8238C60.4601 22.8238 60.7721 22.7398 61.0441 22.5718C61.3161 22.4038 61.5281 22.1678 61.6801 21.8638C61.8321 21.5598 61.9081 21.2078 61.9081 20.8078C61.9081 20.4158 61.8321 20.0718 61.6801 19.7758C61.5281 19.4718 61.3161 19.2358 61.0441 19.0678C60.7721 18.8918 60.4601 18.8038 60.1081 18.8038ZM69.5033 20.4238C69.5033 19.9598 69.3753 19.5958 69.1193 19.3318C68.8713 19.0678 68.5233 18.9358 68.0753 18.9358C67.5553 18.9358 67.1433 19.1198 66.8393 19.4878C66.5433 19.8478 66.3953 20.3038 66.3953 20.8558H65.9753C65.9753 20.0718 66.0833 19.4398 66.2993 18.9598C66.5233 18.4718 66.8393 18.1158 67.2473 17.8918C67.6633 17.6598 68.1473 17.5438 68.6993 17.5438C69.1953 17.5438 69.6193 17.6438 69.9713 17.8438C70.3233 18.0438 70.5953 18.3278 70.7873 18.6958C70.9793 19.0558 71.0753 19.4918 71.0753 20.0038V23.9998H69.5033V20.4238ZM64.8353 17.6038H66.3953V23.9998H64.8353V17.6038ZM74.9875 21.1798C74.5795 21.1798 74.2755 21.2438 74.0755 21.3718C73.8755 21.4998 73.7755 21.7118 73.7755 22.0078C73.7755 22.2798 73.8755 22.4998 74.0755 22.6678C74.2835 22.8358 74.5635 22.9198 74.9155 22.9198C75.2275 22.9198 75.5075 22.8678 75.7555 22.7638C76.0115 22.6518 76.2115 22.5038 76.3555 22.3198C76.5075 22.1278 76.5955 21.9158 76.6195 21.6838L76.8835 22.7998C76.6915 23.2158 76.3955 23.5318 75.9955 23.7478C75.5955 23.9638 75.1115 24.0718 74.5435 24.0718C74.0875 24.0718 73.6915 23.9838 73.3555 23.8078C73.0195 23.6318 72.7595 23.3958 72.5755 23.0998C72.3915 22.7958 72.2995 22.4558 72.2995 22.0798C72.2995 21.4878 72.5115 21.0238 72.9355 20.6878C73.3595 20.3438 73.9595 20.1678 74.7355 20.1598H76.7875V21.1798H74.9875ZM76.6075 19.9678C76.6075 19.5838 76.4835 19.2838 76.2355 19.0678C75.9955 18.8438 75.6355 18.7318 75.1555 18.7318C74.8595 18.7318 74.5475 18.7878 74.2195 18.8998C73.8995 19.0038 73.5755 19.1558 73.2475 19.3558L72.6835 18.3478C72.9875 18.1638 73.2795 18.0158 73.5595 17.9038C73.8395 17.7838 74.1315 17.6958 74.4355 17.6398C74.7475 17.5758 75.1035 17.5438 75.5035 17.5438C76.3435 17.5438 76.9915 17.7438 77.4475 18.1438C77.9035 18.5438 78.1355 19.0958 78.1435 19.7998L78.1555 23.9998H76.6195L76.6075 19.9678ZM79.9656 15.0958H81.5256V23.9998H79.9656V15.0958ZM83.5267 17.6038H85.0867V23.9998H83.5267V17.6038ZM84.2947 14.8798C84.5507 14.8798 84.7627 14.9638 84.9307 15.1318C85.0987 15.2998 85.1827 15.5118 85.1827 15.7678C85.1827 16.0158 85.0987 16.2278 84.9307 16.4038C84.7627 16.5718 84.5507 16.6558 84.2947 16.6558C84.0467 16.6558 83.8387 16.5718 83.6707 16.4038C83.5027 16.2278 83.4187 16.0158 83.4187 15.7678C83.4187 15.5118 83.5027 15.2998 83.6707 15.1318C83.8387 14.9638 84.0467 14.8798 84.2947 14.8798ZM90.8229 19.2718C90.5109 19.0878 90.1869 18.9478 89.8509 18.8518C89.5149 18.7478 89.2109 18.6958 88.9389 18.6958C88.6829 18.6958 88.4749 18.7438 88.3149 18.8398C88.1549 18.9278 88.0749 19.0798 88.0749 19.2958C88.0749 19.4798 88.1549 19.6278 88.3149 19.7398C88.4829 19.8518 88.6949 19.9478 88.9509 20.0278C89.2069 20.0998 89.4789 20.1798 89.7669 20.2678C90.0549 20.3558 90.3269 20.4718 90.5829 20.6158C90.8469 20.7598 91.0589 20.9518 91.2189 21.1918C91.3869 21.4318 91.4709 21.7478 91.4709 22.1398C91.4709 22.5718 91.3549 22.9318 91.1229 23.2198C90.8909 23.4998 90.5829 23.7118 90.1989 23.8558C89.8149 23.9918 89.3949 24.0598 88.9389 24.0598C88.4589 24.0598 87.9789 23.9838 87.4989 23.8318C87.0269 23.6798 86.6229 23.4558 86.2869 23.1598L86.8269 22.1158C87.1229 22.3718 87.4709 22.5718 87.8709 22.7158C88.2789 22.8518 88.6549 22.9198 88.9989 22.9198C89.1829 22.9198 89.3469 22.8958 89.4909 22.8478C89.6349 22.7998 89.7469 22.7318 89.8269 22.6438C89.9069 22.5478 89.9469 22.4238 89.9469 22.2718C89.9469 22.0638 89.8669 21.9038 89.7069 21.7918C89.5469 21.6718 89.3389 21.5718 89.0829 21.4918C88.8349 21.4038 88.5669 21.3198 88.2789 21.2398C87.9909 21.1518 87.7189 21.0398 87.4629 20.9038C87.2149 20.7598 87.0109 20.5718 86.8509 20.3398C86.6909 20.1078 86.6109 19.7998 86.6109 19.4158C86.6109 18.9838 86.7229 18.6278 86.9469 18.3478C87.1709 18.0678 87.4669 17.8638 87.8349 17.7358C88.2029 17.5998 88.6029 17.5318 89.0349 17.5318C89.4509 17.5318 89.8669 17.5918 90.2829 17.7118C90.6989 17.8238 91.0669 17.9838 91.3869 18.1918L90.8229 19.2718ZM97.1399 20.3158C97.1239 19.9798 97.0479 19.6958 96.9119 19.4638C96.7759 19.2238 96.5839 19.0398 96.3359 18.9118C96.0959 18.7758 95.8199 18.7078 95.5079 18.7078C95.1479 18.7078 94.8359 18.7918 94.5719 18.9598C94.3079 19.1278 94.0999 19.3638 93.9479 19.6678C93.8039 19.9718 93.7319 20.3238 93.7319 20.7238C93.7319 21.1638 93.8119 21.5438 93.9719 21.8638C94.1399 22.1838 94.3679 22.4318 94.6559 22.6078C94.9439 22.7758 95.2759 22.8598 95.6519 22.8598C96.3319 22.8598 96.9119 22.6158 97.3919 22.1278L98.2199 22.9558C97.8999 23.3078 97.5119 23.5798 97.0559 23.7718C96.5999 23.9638 96.0919 24.0598 95.5319 24.0598C94.8599 24.0598 94.2759 23.9238 93.7799 23.6518C93.2919 23.3718 92.9079 22.9918 92.6279 22.5118C92.3559 22.0238 92.2199 21.4558 92.2199 20.8078C92.2199 20.1598 92.3559 19.5918 92.6279 19.1038C92.9079 18.6158 93.2919 18.2358 93.7799 17.9638C94.2759 17.6918 94.8439 17.5518 95.4839 17.5438C96.2439 17.5438 96.8559 17.6998 97.3199 18.0118C97.7919 18.3238 98.1279 18.7638 98.3279 19.3318C98.5279 19.8918 98.5999 20.5598 98.5439 21.3358H93.5039V20.3158H97.1399ZM107.476 20.3158C107.46 19.9798 107.384 19.6958 107.248 19.4638C107.112 19.2238 106.92 19.0398 106.672 18.9118C106.432 18.7758 106.156 18.7078 105.844 18.7078C105.484 18.7078 105.172 18.7918 104.908 18.9598C104.644 19.1278 104.436 19.3638 104.284 19.6678C104.14 19.9718 104.068 20.3238 104.068 20.7238C104.068 21.1638 104.148 21.5438 104.308 21.8638C104.476 22.1838 104.704 22.4318 104.992 22.6078C105.28 22.7758 105.612 22.8598 105.988 22.8598C106.668 22.8598 107.248 22.6158 107.728 22.1278L108.556 22.9558C108.236 23.3078 107.848 23.5798 107.392 23.7718C106.936 23.9638 106.428 24.0598 105.868 24.0598C105.196 24.0598 104.612 23.9238 104.116 23.6518C103.628 23.3718 103.244 22.9918 102.964 22.5118C102.692 22.0238 102.556 21.4558 102.556 20.8078C102.556 20.1598 102.692 19.5918 102.964 19.1038C103.244 18.6158 103.628 18.2358 104.116 17.9638C104.612 17.6918 105.18 17.5518 105.82 17.5438C106.58 17.5438 107.192 17.6998 107.656 18.0118C108.128 18.3238 108.464 18.7638 108.664 19.3318C108.864 19.8918 108.936 20.5598 108.88 21.3358H103.84V20.3158H107.476ZM114.913 20.4238C114.913 19.9598 114.785 19.5958 114.529 19.3318C114.281 19.0678 113.933 18.9358 113.485 18.9358C112.965 18.9358 112.553 19.1198 112.249 19.4878C111.953 19.8478 111.805 20.3038 111.805 20.8558H111.385C111.385 20.0718 111.493 19.4398 111.709 18.9598C111.933 18.4718 112.249 18.1158 112.657 17.8918C113.073 17.6598 113.557 17.5438 114.109 17.5438C114.605 17.5438 115.029 17.6438 115.381 17.8438C115.733 18.0438 116.005 18.3278 116.197 18.6958C116.389 19.0558 116.485 19.4918 116.485 20.0038V23.9998H114.913V20.4238ZM110.245 17.6038H111.805V23.9998H110.245V17.6038ZM124.106 23.3758C124.106 23.9918 123.966 24.5238 123.686 24.9718C123.414 25.4198 123.026 25.7638 122.522 26.0038C122.018 26.2518 121.426 26.3758 120.746 26.3758C120.226 26.3758 119.738 26.2998 119.282 26.1478C118.834 25.9958 118.418 25.7918 118.034 25.5358L118.658 24.4678C118.954 24.6838 119.266 24.8518 119.594 24.9718C119.922 25.0918 120.278 25.1518 120.662 25.1518C121.046 25.1518 121.378 25.0798 121.658 24.9358C121.946 24.7918 122.166 24.5918 122.318 24.3358C122.47 24.0798 122.546 23.7758 122.546 23.4238V17.6038H124.106V23.3758ZM120.458 17.5438C121.01 17.5358 121.482 17.6558 121.874 17.9038C122.266 18.1518 122.566 18.5038 122.774 18.9598C122.982 19.4158 123.082 19.9638 123.074 20.6038C123.082 21.2438 122.982 21.7958 122.774 22.2598C122.574 22.7158 122.282 23.0678 121.898 23.3158C121.514 23.5638 121.05 23.6878 120.506 23.6878C119.938 23.6878 119.438 23.5598 119.006 23.3038C118.582 23.0398 118.25 22.6758 118.01 22.2118C117.77 21.7398 117.65 21.1998 117.65 20.5918C117.65 19.9838 117.766 19.4558 117.998 19.0078C118.238 18.5518 118.57 18.1958 118.994 17.9398C119.418 17.6758 119.906 17.5438 120.458 17.5438ZM120.842 18.7318C120.514 18.7318 120.218 18.8118 119.954 18.9718C119.698 19.1318 119.498 19.3558 119.354 19.6438C119.21 19.9318 119.134 20.2598 119.126 20.6278C119.134 20.9958 119.21 21.3238 119.354 21.6118C119.498 21.8998 119.698 22.1238 119.954 22.2838C120.21 22.4438 120.506 22.5238 120.842 22.5238C121.178 22.5238 121.474 22.4438 121.73 22.2838C121.986 22.1238 122.186 21.8998 122.33 21.6118C122.474 21.3238 122.546 20.9958 122.546 20.6278C122.546 20.2518 122.474 19.9238 122.33 19.6438C122.186 19.3558 121.986 19.1318 121.73 18.9718C121.474 18.8118 121.178 18.7318 120.842 18.7318ZM128.097 21.1798C127.689 21.1798 127.385 21.2438 127.185 21.3718C126.985 21.4998 126.885 21.7118 126.885 22.0078C126.885 22.2798 126.985 22.4998 127.185 22.6678C127.393 22.8358 127.673 22.9198 128.025 22.9198C128.337 22.9198 128.617 22.8678 128.865 22.7638C129.121 22.6518 129.321 22.5038 129.465 22.3198C129.617 22.1278 129.705 21.9158 129.729 21.6838L129.993 22.7998C129.801 23.2158 129.505 23.5318 129.105 23.7478C128.705 23.9638 128.221 24.0718 127.653 24.0718C127.197 24.0718 126.801 23.9838 126.465 23.8078C126.129 23.6318 125.869 23.3958 125.685 23.0998C125.501 22.7958 125.409 22.4558 125.409 22.0798C125.409 21.4878 125.621 21.0238 126.045 20.6878C126.469 20.3438 127.069 20.1678 127.845 20.1598H129.897V21.1798H128.097ZM129.717 19.9678C129.717 19.5838 129.593 19.2838 129.345 19.0678C129.105 18.8438 128.745 18.7318 128.265 18.7318C127.969 18.7318 127.657 18.7878 127.329 18.8998C127.009 19.0038 126.685 19.1558 126.357 19.3558L125.793 18.3478C126.097 18.1638 126.389 18.0158 126.669 17.9038C126.949 17.7838 127.241 17.6958 127.545 17.6398C127.857 17.5758 128.213 17.5438 128.613 17.5438C129.453 17.5438 130.101 17.7438 130.557 18.1438C131.013 18.5438 131.245 19.0958 131.253 19.7998L131.265 23.9998H129.729L129.717 19.9678ZM138.883 23.3758C138.883 23.9918 138.743 24.5238 138.463 24.9718C138.191 25.4198 137.803 25.7638 137.299 26.0038C136.795 26.2518 136.203 26.3758 135.523 26.3758C135.003 26.3758 134.515 26.2998 134.059 26.1478C133.611 25.9958 133.195 25.7918 132.811 25.5358L133.435 24.4678C133.731 24.6838 134.043 24.8518 134.371 24.9718C134.699 25.0918 135.055 25.1518 135.439 25.1518C135.823 25.1518 136.155 25.0798 136.435 24.9358C136.723 24.7918 136.943 24.5918 137.095 24.3358C137.247 24.0798 137.323 23.7758 137.323 23.4238V17.6038H138.883V23.3758ZM135.235 17.5438C135.787 17.5358 136.259 17.6558 136.651 17.9038C137.043 18.1518 137.343 18.5038 137.551 18.9598C137.759 19.4158 137.859 19.9638 137.851 20.6038C137.859 21.2438 137.759 21.7958 137.551 22.2598C137.351 22.7158 137.059 23.0678 136.675 23.3158C136.291 23.5638 135.827 23.6878 135.283 23.6878C134.715 23.6878 134.215 23.5598 133.783 23.3038C133.359 23.0398 133.027 22.6758 132.787 22.2118C132.547 21.7398 132.427 21.1998 132.427 20.5918C132.427 19.9838 132.543 19.4558 132.775 19.0078C133.015 18.5518 133.347 18.1958 133.771 17.9398C134.195 17.6758 134.683 17.5438 135.235 17.5438ZM135.619 18.7318C135.291 18.7318 134.995 18.8118 134.731 18.9718C134.475 19.1318 134.275 19.3558 134.131 19.6438C133.987 19.9318 133.911 20.2598 133.903 20.6278C133.911 20.9958 133.987 21.3238 134.131 21.6118C134.275 21.8998 134.475 22.1238 134.731 22.2838C134.987 22.4438 135.283 22.5238 135.619 22.5238C135.955 22.5238 136.251 22.4438 136.507 22.2838C136.763 22.1238 136.963 21.8998 137.107 21.6118C137.251 21.3238 137.323 20.9958 137.323 20.6278C137.323 20.2518 137.251 19.9238 137.107 19.6438C136.963 19.3558 136.763 19.1318 136.507 18.9718C136.251 18.8118 135.955 18.7318 135.619 18.7318ZM145.046 20.3158C145.03 19.9798 144.954 19.6958 144.818 19.4638C144.682 19.2238 144.49 19.0398 144.242 18.9118C144.002 18.7758 143.726 18.7078 143.414 18.7078C143.054 18.7078 142.742 18.7918 142.478 18.9598C142.214 19.1278 142.006 19.3638 141.854 19.6678C141.71 19.9718 141.638 20.3238 141.638 20.7238C141.638 21.1638 141.718 21.5438 141.878 21.8638C142.046 22.1838 142.274 22.4318 142.562 22.6078C142.85 22.7758 143.182 22.8598 143.558 22.8598C144.238 22.8598 144.818 22.6158 145.298 22.1278L146.126 22.9558C145.806 23.3078 145.418 23.5798 144.962 23.7718C144.506 23.9638 143.998 24.0598 143.438 24.0598C142.766 24.0598 142.182 23.9238 141.686 23.6518C141.198 23.3718 140.814 22.9918 140.534 22.5118C140.262 22.0238 140.126 21.4558 140.126 20.8078C140.126 20.1598 140.262 19.5918 140.534 19.1038C140.814 18.6158 141.198 18.2358 141.686 17.9638C142.182 17.6918 142.75 17.5518 143.39 17.5438C144.15 17.5438 144.762 17.6998 145.226 18.0118C145.698 18.3238 146.034 18.7638 146.234 19.3318C146.434 19.8918 146.506 20.5598 146.45 21.3358H141.41V20.3158H145.046ZM152.4 20.4238C152.4 19.9518 152.276 19.5838 152.028 19.3198C151.788 19.0558 151.448 18.9238 151.008 18.9238C150.504 18.9318 150.104 19.1198 149.808 19.4878C149.52 19.8478 149.376 20.2998 149.376 20.8438H148.956C148.956 20.0678 149.064 19.4398 149.28 18.9598C149.496 18.4718 149.804 18.1158 150.204 17.8918C150.612 17.6598 151.088 17.5438 151.632 17.5438C152.12 17.5438 152.536 17.6438 152.88 17.8438C153.232 18.0438 153.5 18.3278 153.684 18.6958C153.876 19.0558 153.972 19.4918 153.972 20.0038V23.9998H152.4V20.4238ZM156.996 20.4238C156.996 19.9518 156.872 19.5838 156.624 19.3198C156.376 19.0558 156.032 18.9238 155.592 18.9238C155.088 18.9318 154.692 19.1198 154.404 19.4878C154.116 19.8478 153.972 20.2998 153.972 20.8438H153.552C153.552 20.0678 153.66 19.4398 153.876 18.9598C154.092 18.4718 154.4 18.1158 154.8 17.8918C155.2 17.6598 155.676 17.5438 156.228 17.5438C156.708 17.5438 157.12 17.6438 157.464 17.8438C157.816 18.0438 158.088 18.3278 158.28 18.6958C158.472 19.0558 158.568 19.4918 158.568 20.0038V23.9998H156.996V20.4238ZM147.816 17.6038H149.376V23.9998H147.816V17.6038ZM164.64 20.3158C164.624 19.9798 164.548 19.6958 164.412 19.4638C164.276 19.2238 164.084 19.0398 163.836 18.9118C163.596 18.7758 163.32 18.7078 163.008 18.7078C162.648 18.7078 162.336 18.7918 162.072 18.9598C161.808 19.1278 161.6 19.3638 161.448 19.6678C161.304 19.9718 161.232 20.3238 161.232 20.7238C161.232 21.1638 161.312 21.5438 161.472 21.8638C161.64 22.1838 161.868 22.4318 162.156 22.6078C162.444 22.7758 162.776 22.8598 163.152 22.8598C163.832 22.8598 164.412 22.6158 164.892 22.1278L165.72 22.9558C165.4 23.3078 165.012 23.5798 164.556 23.7718C164.1 23.9638 163.592 24.0598 163.032 24.0598C162.36 24.0598 161.776 23.9238 161.28 23.6518C160.792 23.3718 160.408 22.9918 160.128 22.5118C159.856 22.0238 159.72 21.4558 159.72 20.8078C159.72 20.1598 159.856 19.5918 160.128 19.1038C160.408 18.6158 160.792 18.2358 161.28 17.9638C161.776 17.6918 162.344 17.5518 162.984 17.5438C163.744 17.5438 164.356 17.6998 164.82 18.0118C165.292 18.3238 165.628 18.7638 165.828 19.3318C166.028 19.8918 166.1 20.5598 166.044 21.3358H161.004V20.3158H164.64ZM172.078 20.4238C172.078 19.9598 171.95 19.5958 171.694 19.3318C171.446 19.0678 171.098 18.9358 170.65 18.9358C170.13 18.9358 169.718 19.1198 169.414 19.4878C169.118 19.8478 168.97 20.3038 168.97 20.8558H168.55C168.55 20.0718 168.658 19.4398 168.874 18.9598C169.098 18.4718 169.414 18.1158 169.822 17.8918C170.238 17.6598 170.722 17.5438 171.274 17.5438C171.77 17.5438 172.194 17.6438 172.546 17.8438C172.898 18.0438 173.17 18.3278 173.362 18.6958C173.554 19.0558 173.65 19.4918 173.65 20.0038V23.9998H172.078V20.4238ZM167.41 17.6038H168.97V23.9998H167.41V17.6038ZM177.214 21.9118C177.214 22.2318 177.274 22.4518 177.394 22.5718C177.514 22.6918 177.678 22.7518 177.886 22.7518C178.014 22.7518 178.154 22.7318 178.306 22.6918C178.458 22.6438 178.622 22.5718 178.798 22.4758L179.158 23.6038C178.918 23.7478 178.658 23.8638 178.378 23.9518C178.106 24.0318 177.83 24.0718 177.55 24.0718C177.206 24.0718 176.89 24.0078 176.602 23.8798C176.314 23.7438 176.086 23.5358 175.918 23.2558C175.75 22.9678 175.666 22.6078 175.666 22.1758V16.0918H177.214V21.9118ZM174.766 17.8438H179.05V18.9358H174.766V17.8438ZM33.632 36.1798C33.224 36.1798 32.92 36.2438 32.72 36.3718C32.52 36.4998 32.42 36.7118 32.42 37.0078C32.42 37.2798 32.52 37.4998 32.72 37.6678C32.928 37.8358 33.208 37.9198 33.56 37.9198C33.872 37.9198 34.152 37.8678 34.4 37.7638C34.656 37.6518 34.856 37.5038 35 37.3198C35.152 37.1278 35.24 36.9158 35.264 36.6838L35.528 37.7998C35.336 38.2158 35.04 38.5318 34.64 38.7478C34.24 38.9638 33.756 39.0718 33.188 39.0718C32.732 39.0718 32.336 38.9838 32 38.8078C31.664 38.6318 31.404 38.3958 31.22 38.0998C31.036 37.7958 30.944 37.4558 30.944 37.0798C30.944 36.4878 31.156 36.0238 31.58 35.6878C32.004 35.3438 32.604 35.1678 33.38 35.1598H35.432V36.1798H33.632ZM35.252 34.9678C35.252 34.5838 35.128 34.2838 34.88 34.0678C34.64 33.8438 34.28 33.7318 33.8 33.7318C33.504 33.7318 33.192 33.7878 32.864 33.8998C32.544 34.0038 32.22 34.1558 31.892 34.3558L31.328 33.3478C31.632 33.1638 31.924 33.0158 32.204 32.9038C32.484 32.7838 32.776 32.6958 33.08 32.6398C33.392 32.5758 33.748 32.5438 34.148 32.5438C34.988 32.5438 35.636 32.7438 36.092 33.1438C36.548 33.5438 36.78 34.0958 36.788 34.7998L36.8 38.9998H35.264L35.252 34.9678ZM43.2181 35.4238C43.2181 34.9598 43.0901 34.5958 42.8341 34.3318C42.5861 34.0678 42.2381 33.9358 41.7901 33.9358C41.2701 33.9358 40.8581 34.1198 40.5541 34.4878C40.2581 34.8478 40.1101 35.3038 40.1101 35.8558H39.6901C39.6901 35.0718 39.7981 34.4398 40.0141 33.9598C40.2381 33.4718 40.5541 33.1158 40.9621 32.8918C41.3781 32.6598 41.8621 32.5438 42.4141 32.5438C42.9101 32.5438 43.3341 32.6438 43.6861 32.8438C44.0381 33.0438 44.3101 33.3278 44.5021 33.6958C44.6941 34.0558 44.7901 34.4918 44.7901 35.0038V38.9998H43.2181V35.4238ZM38.5501 32.6038H40.1101V38.9998H38.5501V32.6038ZM48.9783 32.5318C49.5623 32.5318 50.0583 32.6638 50.4663 32.9278C50.8743 33.1918 51.1863 33.5678 51.4023 34.0558C51.6183 34.5358 51.7223 35.1158 51.7143 35.7958C51.7223 36.4678 51.6183 37.0518 51.4023 37.5478C51.1943 38.0358 50.8863 38.4118 50.4783 38.6758C50.0703 38.9318 49.5823 39.0598 49.0143 39.0598C48.4063 39.0598 47.8703 38.9238 47.4063 38.6518C46.9503 38.3718 46.5943 37.9838 46.3383 37.4878C46.0823 36.9918 45.9543 36.4238 45.9543 35.7838C45.9543 35.1358 46.0823 34.5678 46.3383 34.0798C46.5943 33.5918 46.9463 33.2118 47.3943 32.9398C47.8503 32.6678 48.3783 32.5318 48.9783 32.5318ZM49.3503 33.7918C48.9983 33.7918 48.6823 33.8798 48.4023 34.0558C48.1303 34.2318 47.9183 34.4718 47.7663 34.7758C47.6143 35.0798 47.5343 35.4278 47.5263 35.8198C47.5343 36.2118 47.6143 36.5598 47.7663 36.8638C47.9183 37.1678 48.1303 37.4078 48.4023 37.5838C48.6823 37.7518 48.9983 37.8358 49.3503 37.8358C49.7103 37.8358 50.0263 37.7518 50.2983 37.5838C50.5783 37.4078 50.7943 37.1678 50.9463 36.8638C51.0983 36.5598 51.1743 36.2118 51.1743 35.8198C51.1743 35.4198 51.0983 35.0718 50.9463 34.7758C50.7943 34.4718 50.5783 34.2318 50.2983 34.0558C50.0263 33.8798 49.7103 33.7918 49.3503 33.7918ZM51.1743 30.0958H52.7343V38.9998H51.1743V30.0958ZM61.7121 33.9598C61.2641 33.9278 60.8761 33.9958 60.5481 34.1638C60.2201 34.3238 59.9681 34.5558 59.7921 34.8598C59.6161 35.1638 59.5281 35.5118 59.5281 35.9038L59.1081 35.8558C59.1081 35.1438 59.2121 34.5438 59.4201 34.0558C59.6281 33.5598 59.9281 33.1838 60.3201 32.9278C60.7121 32.6718 61.1761 32.5438 61.7121 32.5438V33.9598ZM57.9681 32.6038H59.5281V38.9998H57.9681V32.6038ZM67.1399 35.3158C67.1239 34.9798 67.0479 34.6958 66.9119 34.4638C66.7759 34.2238 66.5839 34.0398 66.3359 33.9118C66.0959 33.7758 65.8199 33.7078 65.5079 33.7078C65.1479 33.7078 64.8359 33.7918 64.5719 33.9598C64.3079 34.1278 64.0999 34.3638 63.9479 34.6678C63.8039 34.9718 63.7319 35.3238 63.7319 35.7238C63.7319 36.1638 63.8119 36.5438 63.9719 36.8638C64.1399 37.1838 64.3679 37.4318 64.6559 37.6078C64.9439 37.7758 65.2759 37.8598 65.6519 37.8598C66.3319 37.8598 66.9119 37.6158 67.3919 37.1278L68.2199 37.9558C67.8999 38.3078 67.5119 38.5798 67.0559 38.7718C66.5999 38.9638 66.0919 39.0598 65.5319 39.0598C64.8599 39.0598 64.2759 38.9238 63.7799 38.6518C63.2919 38.3718 62.9079 37.9918 62.6279 37.5118C62.3559 37.0238 62.2199 36.4558 62.2199 35.8078C62.2199 35.1598 62.3559 34.5918 62.6279 34.1038C62.9079 33.6158 63.2919 33.2358 63.7799 32.9638C64.2759 32.6918 64.8439 32.5518 65.4839 32.5438C66.2439 32.5438 66.8559 32.6998 67.3199 33.0118C67.7919 33.3238 68.1279 33.7638 68.3279 34.3318C68.5279 34.8918 68.5999 35.5598 68.5439 36.3358H63.5039V35.3158H67.1399ZM71.7215 36.9118C71.7215 37.2318 71.7815 37.4518 71.9015 37.5718C72.0215 37.6918 72.1855 37.7518 72.3935 37.7518C72.5215 37.7518 72.6615 37.7318 72.8135 37.6918C72.9655 37.6438 73.1295 37.5718 73.3055 37.4758L73.6655 38.6038C73.4255 38.7478 73.1655 38.8638 72.8855 38.9518C72.6135 39.0318 72.3375 39.0718 72.0575 39.0718C71.7135 39.0718 71.3975 39.0078 71.1095 38.8798C70.8215 38.7438 70.5935 38.5358 70.4255 38.2558C70.2575 37.9678 70.1735 37.6078 70.1735 37.1758V31.0918H71.7215V36.9118ZM69.2735 32.8438H73.5575V33.9358H69.2735V32.8438ZM77.05 36.1798C76.642 36.1798 76.338 36.2438 76.138 36.3718C75.938 36.4998 75.838 36.7118 75.838 37.0078C75.838 37.2798 75.938 37.4998 76.138 37.6678C76.346 37.8358 76.626 37.9198 76.978 37.9198C77.29 37.9198 77.57 37.8678 77.818 37.7638C78.074 37.6518 78.274 37.5038 78.418 37.3198C78.57 37.1278 78.658 36.9158 78.682 36.6838L78.946 37.7998C78.754 38.2158 78.458 38.5318 78.058 38.7478C77.658 38.9638 77.174 39.0718 76.606 39.0718C76.15 39.0718 75.754 38.9838 75.418 38.8078C75.082 38.6318 74.822 38.3958 74.638 38.0998C74.454 37.7958 74.362 37.4558 74.362 37.0798C74.362 36.4878 74.574 36.0238 74.998 35.6878C75.422 35.3438 76.022 35.1678 76.798 35.1598H78.85V36.1798H77.05ZM78.67 34.9678C78.67 34.5838 78.546 34.2838 78.298 34.0678C78.058 33.8438 77.698 33.7318 77.218 33.7318C76.922 33.7318 76.61 33.7878 76.282 33.8998C75.962 34.0038 75.638 34.1558 75.31 34.3558L74.746 33.3478C75.05 33.1638 75.342 33.0158 75.622 32.9038C75.902 32.7838 76.194 32.6958 76.498 32.6398C76.81 32.5758 77.166 32.5438 77.566 32.5438C78.406 32.5438 79.054 32.7438 79.51 33.1438C79.966 33.5438 80.198 34.0958 80.206 34.7998L80.218 38.9998H78.682L78.67 34.9678ZM81.9681 32.6038H83.5281V38.9998H81.9681V32.6038ZM82.7361 29.8798C82.9921 29.8798 83.2041 29.9638 83.3721 30.1318C83.5401 30.2998 83.6241 30.5118 83.6241 30.7678C83.6241 31.0158 83.5401 31.2278 83.3721 31.4038C83.2041 31.5718 82.9921 31.6558 82.7361 31.6558C82.4881 31.6558 82.2801 31.5718 82.1121 31.4038C81.9441 31.2278 81.8601 31.0158 81.8601 30.7678C81.8601 30.5118 81.9441 30.2998 82.1121 30.1318C82.2801 29.9638 82.4881 29.8798 82.7361 29.8798ZM90.1283 35.4238C90.1283 34.9598 90.0003 34.5958 89.7443 34.3318C89.4963 34.0678 89.1483 33.9358 88.7003 33.9358C88.1803 33.9358 87.7683 34.1198 87.4643 34.4878C87.1683 34.8478 87.0203 35.3038 87.0203 35.8558H86.6003C86.6003 35.0718 86.7083 34.4398 86.9243 33.9598C87.1483 33.4718 87.4643 33.1158 87.8723 32.8918C88.2883 32.6598 88.7723 32.5438 89.3243 32.5438C89.8203 32.5438 90.2443 32.6438 90.5963 32.8438C90.9483 33.0438 91.2203 33.3278 91.4123 33.6958C91.6043 34.0558 91.7003 34.4918 91.7003 35.0038V38.9998H90.1283V35.4238ZM85.4603 32.6038H87.0203V38.9998H85.4603V32.6038Z" fill="black"/>
<path d="M33.676 48.4C34.076 48.4 34.42 48.456 34.708 48.568C34.996 48.68 35.2173 48.84 35.372 49.048C35.5267 49.256 35.604 49.5067 35.604 49.8C35.604 50.1093 35.516 50.376 35.34 50.6C35.1693 50.824 34.932 50.9707 34.628 51.04C34.996 51.1093 35.2867 51.2693 35.5 51.52C35.7133 51.7707 35.82 52.0827 35.82 52.456C35.82 52.776 35.7347 53.0533 35.564 53.288C35.3933 53.5173 35.1533 53.6933 34.844 53.816C34.54 53.9387 34.1747 54 33.748 54H31.188V48.4H33.676ZM33.62 50.704C33.8973 50.704 34.1133 50.64 34.268 50.512C34.428 50.384 34.508 50.2053 34.508 49.976C34.508 49.7573 34.428 49.5867 34.268 49.464C34.1133 49.3413 33.8973 49.2827 33.62 49.288H32.26V50.704H33.62ZM33.62 53.112C33.9613 53.1173 34.228 53.0507 34.42 52.912C34.612 52.7733 34.708 52.5787 34.708 52.328C34.708 52.0933 34.612 51.9093 34.42 51.776C34.228 51.6373 33.9613 51.568 33.62 51.568H32.26V53.112H33.62ZM37.7319 52.112C37.7319 52.4213 37.8119 52.6667 37.9719 52.848C38.1372 53.024 38.3639 53.112 38.6519 53.112C38.9879 53.1013 39.2492 52.976 39.4359 52.736C39.6279 52.496 39.7239 52.1947 39.7239 51.832H39.9959C39.9959 52.3493 39.9239 52.7707 39.7799 53.096C39.6359 53.416 39.4332 53.6533 39.1719 53.808C38.9105 53.9573 38.5985 54.0347 38.2359 54.04C37.9159 54.04 37.6385 53.9733 37.4039 53.84C37.1745 53.7067 36.9959 53.5173 36.8679 53.272C36.7452 53.0213 36.6839 52.728 36.6839 52.392V49.736H37.7319V52.112ZM39.7239 49.736H40.7719V54H39.7239V49.736ZM42.0699 49.736H43.1099V54H42.0699V49.736ZM42.5819 47.92C42.7525 47.92 42.8939 47.976 43.0059 48.088C43.1179 48.2 43.1739 48.3413 43.1739 48.512C43.1739 48.6773 43.1179 48.8187 43.0059 48.936C42.8939 49.048 42.7525 49.104 42.5819 49.104C42.4165 49.104 42.2779 49.048 42.1659 48.936C42.0539 48.8187 41.9979 48.6773 41.9979 48.512C41.9979 48.3413 42.0539 48.2 42.1659 48.088C42.2779 47.976 42.4165 47.92 42.5819 47.92ZM44.438 48.064H45.478V54H44.438V48.064ZM48.4361 49.688C48.8254 49.688 49.1561 49.776 49.4281 49.952C49.7001 50.128 49.9081 50.3787 50.0521 50.704C50.1961 51.024 50.2654 51.4107 50.2601 51.864C50.2654 52.312 50.1961 52.7013 50.0521 53.032C49.9134 53.3573 49.7081 53.608 49.4361 53.784C49.1641 53.9547 48.8387 54.04 48.4601 54.04C48.0547 54.04 47.6974 53.9493 47.3881 53.768C47.0841 53.5813 46.8467 53.3227 46.6761 52.992C46.5054 52.6613 46.4201 52.2827 46.4201 51.856C46.4201 51.424 46.5054 51.0453 46.6761 50.72C46.8467 50.3947 47.0814 50.1413 47.3801 49.96C47.6841 49.7787 48.0361 49.688 48.4361 49.688ZM48.6841 50.528C48.4494 50.528 48.2387 50.5867 48.0521 50.704C47.8707 50.8213 47.7294 50.9813 47.6281 51.184C47.5267 51.3867 47.4734 51.6187 47.4681 51.88C47.4734 52.1413 47.5267 52.3733 47.6281 52.576C47.7294 52.7787 47.8707 52.9387 48.0521 53.056C48.2387 53.168 48.4494 53.224 48.6841 53.224C48.9241 53.224 49.1347 53.168 49.3161 53.056C49.5027 52.9387 49.6467 52.7787 49.7481 52.576C49.8494 52.3733 49.9001 52.1413 49.9001 51.88C49.9001 51.6133 49.8494 51.3813 49.7481 51.184C49.6467 50.9813 49.5027 50.8213 49.3161 50.704C49.1347 50.5867 48.9241 50.528 48.6841 50.528ZM49.9001 48.064H50.9401V54H49.9001V48.064ZM57.3733 51.032C57.2399 50.8827 57.0773 50.768 56.8853 50.688C56.6986 50.6027 56.4879 50.56 56.2533 50.56C56.0239 50.56 55.8213 50.616 55.6453 50.728C55.4693 50.8347 55.3306 50.9867 55.2293 51.184C55.1333 51.3813 55.0853 51.6107 55.0853 51.872C55.0853 52.1333 55.1333 52.3627 55.2293 52.56C55.3306 52.7573 55.4693 52.912 55.6453 53.024C55.8213 53.136 56.0239 53.192 56.2533 53.192C56.4986 53.192 56.7199 53.1493 56.9173 53.064C57.1146 52.9787 57.2773 52.8507 57.4053 52.68L58.0533 53.208C57.8666 53.4693 57.6159 53.6747 57.3013 53.824C56.9866 53.968 56.6213 54.04 56.2053 54.04C55.7786 54.04 55.4026 53.9493 55.0773 53.768C54.7519 53.5813 54.4959 53.328 54.3092 53.008C54.1279 52.6827 54.0373 52.304 54.0373 51.872C54.0373 51.44 54.1279 51.0613 54.3092 50.736C54.4959 50.4107 54.7519 50.1573 55.0773 49.976C55.4026 49.7893 55.7786 49.696 56.2053 49.696C56.6053 49.696 56.9573 49.7627 57.2613 49.896C57.5653 50.024 57.8159 50.2053 58.0133 50.44L57.3733 51.032ZM59.8569 52.112C59.8569 52.4213 59.9369 52.6667 60.0969 52.848C60.2622 53.024 60.4889 53.112 60.7769 53.112C61.1129 53.1013 61.3742 52.976 61.5609 52.736C61.7529 52.496 61.8489 52.1947 61.8489 51.832H62.1209C62.1209 52.3493 62.0489 52.7707 61.9049 53.096C61.7609 53.416 61.5582 53.6533 61.2969 53.808C61.0355 53.9573 60.7235 54.0347 60.3609 54.04C60.0409 54.04 59.7635 53.9733 59.5289 53.84C59.2995 53.7067 59.1209 53.5173 58.9929 53.272C58.8702 53.0213 58.8089 52.728 58.8089 52.392V49.736H59.8569V52.112ZM61.8489 49.736H62.8969V54H61.8489V49.736ZM66.7309 50.848C66.5229 50.7253 66.3069 50.632 66.0829 50.568C65.8589 50.4987 65.6562 50.464 65.4749 50.464C65.3042 50.464 65.1655 50.496 65.0589 50.56C64.9522 50.6187 64.8989 50.72 64.8989 50.864C64.8989 50.9867 64.9522 51.0853 65.0589 51.16C65.1709 51.2347 65.3122 51.2987 65.4829 51.352C65.6535 51.4 65.8349 51.4533 66.0269 51.512C66.2189 51.5707 66.4002 51.648 66.5709 51.744C66.7469 51.84 66.8882 51.968 66.9949 52.128C67.1069 52.288 67.1629 52.4987 67.1629 52.76C67.1629 53.048 67.0855 53.288 66.9309 53.48C66.7762 53.6667 66.5709 53.808 66.3149 53.904C66.0589 53.9947 65.7789 54.04 65.4749 54.04C65.1549 54.04 64.8349 53.9893 64.5149 53.888C64.2002 53.7867 63.9309 53.6373 63.7069 53.44L64.0669 52.744C64.2642 52.9147 64.4962 53.048 64.7629 53.144C65.0349 53.2347 65.2855 53.28 65.5149 53.28C65.6375 53.28 65.7469 53.264 65.8429 53.232C65.9389 53.2 66.0135 53.1547 66.0669 53.096C66.1202 53.032 66.1469 52.9493 66.1469 52.848C66.1469 52.7093 66.0935 52.6027 65.9869 52.528C65.8802 52.448 65.7415 52.3813 65.5709 52.328C65.4055 52.2693 65.2269 52.2133 65.0349 52.16C64.8429 52.1013 64.6615 52.0267 64.4909 51.936C64.3255 51.84 64.1895 51.7147 64.0829 51.56C63.9762 51.4053 63.9229 51.2 63.9229 50.944C63.9229 50.656 63.9975 50.4187 64.1469 50.232C64.2962 50.0453 64.4935 49.9093 64.7389 49.824C64.9842 49.7333 65.2509 49.688 65.5389 49.688C65.8162 49.688 66.0935 49.728 66.3709 49.808C66.6482 49.8827 66.8935 49.9893 67.1069 50.128L66.7309 50.848ZM69.2623 52.608C69.2623 52.8213 69.3023 52.968 69.3823 53.048C69.4623 53.128 69.5716 53.168 69.7103 53.168C69.7956 53.168 69.8889 53.1547 69.9903 53.128C70.0916 53.096 70.2009 53.048 70.3183 52.984L70.5583 53.736C70.3983 53.832 70.2249 53.9093 70.0383 53.968C69.8569 54.0213 69.6729 54.048 69.4863 54.048C69.2569 54.048 69.0463 54.0053 68.8543 53.92C68.6623 53.8293 68.5103 53.6907 68.3983 53.504C68.2863 53.312 68.2303 53.072 68.2303 52.784V48.728H69.2623V52.608ZM67.6303 49.896H70.4863V50.624H67.6303V49.896ZM73.2075 49.696C73.6502 49.696 74.0395 49.7867 74.3755 49.968C74.7168 50.1493 74.9808 50.4027 75.1675 50.728C75.3595 51.0533 75.4555 51.432 75.4555 51.864C75.4555 52.296 75.3595 52.6747 75.1675 53C74.9808 53.3253 74.7168 53.5813 74.3755 53.768C74.0395 53.9493 73.6502 54.04 73.2075 54.04C72.7595 54.04 72.3648 53.9493 72.0235 53.768C71.6822 53.5813 71.4155 53.3253 71.2235 53C71.0368 52.6747 70.9435 52.296 70.9435 51.864C70.9435 51.432 71.0368 51.0533 71.2235 50.728C71.4155 50.4027 71.6822 50.1493 72.0235 49.968C72.3648 49.7867 72.7595 49.696 73.2075 49.696ZM73.2075 50.536C72.9675 50.536 72.7542 50.5947 72.5675 50.712C72.3862 50.824 72.2448 50.9813 72.1435 51.184C72.0422 51.3813 71.9915 51.6107 71.9915 51.872C71.9915 52.1387 72.0422 52.3733 72.1435 52.576C72.2448 52.7787 72.3862 52.936 72.5675 53.048C72.7542 53.16 72.9675 53.216 73.2075 53.216C73.4422 53.216 73.6502 53.16 73.8315 53.048C74.0128 52.936 74.1542 52.7787 74.2555 52.576C74.3568 52.3733 74.4075 52.1387 74.4075 51.872C74.4075 51.6107 74.3568 51.3813 74.2555 51.184C74.1542 50.9813 74.0128 50.824 73.8315 50.712C73.6502 50.5947 73.4422 50.536 73.2075 50.536ZM79.4149 51.616C79.4149 51.3013 79.3323 51.056 79.1669 50.88C79.0069 50.704 78.7803 50.616 78.4869 50.616C78.1509 50.6213 77.8843 50.7467 77.6869 50.992C77.4949 51.232 77.3989 51.5333 77.3989 51.896H77.1189C77.1189 51.3787 77.1909 50.96 77.3349 50.64C77.4789 50.3147 77.6843 50.0773 77.9509 49.928C78.2229 49.7733 78.5403 49.696 78.9029 49.696C79.2283 49.696 79.5056 49.7627 79.7349 49.896C79.9696 50.0293 80.1483 50.2187 80.2709 50.464C80.3989 50.704 80.4629 50.9947 80.4629 51.336V54H79.4149V51.616ZM82.4789 51.616C82.4789 51.3013 82.3963 51.056 82.2309 50.88C82.0656 50.704 81.8363 50.616 81.5429 50.616C81.2069 50.6213 80.9429 50.7467 80.7509 50.992C80.5589 51.232 80.4629 51.5333 80.4629 51.896H80.1829C80.1829 51.3787 80.2549 50.96 80.3989 50.64C80.5429 50.3147 80.7483 50.0773 81.0149 49.928C81.2816 49.7733 81.5989 49.696 81.9669 49.696C82.2869 49.696 82.5616 49.7627 82.7909 49.896C83.0256 50.0293 83.2069 50.2187 83.3349 50.464C83.4629 50.704 83.5269 50.9947 83.5269 51.336V54H82.4789V51.616ZM76.3589 49.736H77.3989V54H76.3589V49.736ZM87.5751 51.544C87.5644 51.32 87.5137 51.1307 87.4231 50.976C87.3324 50.816 87.2044 50.6933 87.0391 50.608C86.8791 50.5173 86.6951 50.472 86.4871 50.472C86.2471 50.472 86.0391 50.528 85.8631 50.64C85.6871 50.752 85.5484 50.9093 85.4471 51.112C85.3511 51.3147 85.3031 51.5493 85.3031 51.816C85.3031 52.1093 85.3564 52.3627 85.4631 52.576C85.5751 52.7893 85.7271 52.9547 85.9191 53.072C86.1111 53.184 86.3324 53.24 86.5831 53.24C87.0364 53.24 87.4231 53.0773 87.7431 52.752L88.2951 53.304C88.0817 53.5387 87.8231 53.72 87.5191 53.848C87.2151 53.976 86.8764 54.04 86.5031 54.04C86.0551 54.04 85.6657 53.9493 85.3351 53.768C85.0097 53.5813 84.7537 53.328 84.5671 53.008C84.3857 52.6827 84.2951 52.304 84.2951 51.872C84.2951 51.44 84.3857 51.0613 84.5671 50.736C84.7537 50.4107 85.0097 50.1573 85.3351 49.976C85.6657 49.7947 86.0444 49.7013 86.4711 49.696C86.9777 49.696 87.3857 49.8 87.6951 50.008C88.0097 50.216 88.2337 50.5093 88.3671 50.888C88.5004 51.2613 88.5484 51.7067 88.5111 52.224H85.1511V51.544H87.5751ZM91.9174 50.64C91.6188 50.6187 91.3601 50.664 91.1414 50.776C90.9228 50.8827 90.7548 51.0373 90.6374 51.24C90.5201 51.4427 90.4614 51.6747 90.4614 51.936L90.1814 51.904C90.1814 51.4293 90.2508 51.0293 90.3894 50.704C90.5281 50.3733 90.7281 50.1227 90.9894 49.952C91.2508 49.7813 91.5601 49.696 91.9174 49.696V50.64ZM89.4214 49.736H90.4614V54H89.4214V49.736ZM94.8443 48.064H95.8843V54H94.8443V48.064ZM99.0903 49.696C99.533 49.696 99.9223 49.7867 100.258 49.968C100.6 50.1493 100.864 50.4027 101.05 50.728C101.242 51.0533 101.338 51.432 101.338 51.864C101.338 52.296 101.242 52.6747 101.05 53C100.864 53.3253 100.6 53.5813 100.258 53.768C99.9223 53.9493 99.533 54.04 99.0903 54.04C98.6423 54.04 98.2476 53.9493 97.9063 53.768C97.565 53.5813 97.2983 53.3253 97.1063 53C96.9196 52.6747 96.8263 52.296 96.8263 51.864C96.8263 51.432 96.9196 51.0533 97.1063 50.728C97.2983 50.4027 97.565 50.1493 97.9063 49.968C98.2476 49.7867 98.6423 49.696 99.0903 49.696ZM99.0903 50.536C98.8503 50.536 98.637 50.5947 98.4503 50.712C98.269 50.824 98.1276 50.9813 98.0263 51.184C97.925 51.3813 97.8743 51.6107 97.8743 51.872C97.8743 52.1387 97.925 52.3733 98.0263 52.576C98.1276 52.7787 98.269 52.936 98.4503 53.048C98.637 53.16 98.8503 53.216 99.0903 53.216C99.325 53.216 99.533 53.16 99.7143 53.048C99.8956 52.936 100.037 52.7787 100.138 52.576C100.24 52.3733 100.29 52.1387 100.29 51.872C100.29 51.6107 100.24 51.3813 100.138 51.184C100.037 50.9813 99.8956 50.824 99.7143 50.712C99.533 50.5947 99.325 50.536 99.0903 50.536ZM103.925 54.56C103.787 54.9013 103.595 55.16 103.349 55.336C103.104 55.512 102.811 55.6 102.469 55.6C102.261 55.6 102.072 55.568 101.901 55.504C101.736 55.44 101.571 55.3467 101.405 55.224L101.853 54.472C102.045 54.616 102.229 54.688 102.405 54.688C102.544 54.688 102.664 54.6507 102.765 54.576C102.872 54.5013 102.96 54.3867 103.029 54.232L103.157 53.936L101.389 49.736H102.469L103.685 52.904L104.797 49.736H105.845L103.925 54.56ZM107.768 52.12C107.496 52.12 107.293 52.1627 107.16 52.248C107.026 52.3333 106.96 52.4747 106.96 52.672C106.96 52.8533 107.026 53 107.16 53.112C107.298 53.224 107.485 53.28 107.72 53.28C107.928 53.28 108.114 53.2453 108.28 53.176C108.45 53.1013 108.584 53.0027 108.68 52.88C108.781 52.752 108.84 52.6107 108.856 52.456L109.032 53.2C108.904 53.4773 108.706 53.688 108.44 53.832C108.173 53.976 107.85 54.048 107.472 54.048C107.168 54.048 106.904 53.9893 106.68 53.872C106.456 53.7547 106.282 53.5973 106.16 53.4C106.037 53.1973 105.976 52.9707 105.976 52.72C105.976 52.3253 106.117 52.016 106.4 51.792C106.682 51.5627 107.082 51.4453 107.6 51.44H108.968V52.12H107.768ZM108.848 51.312C108.848 51.056 108.765 50.856 108.6 50.712C108.44 50.5627 108.2 50.488 107.88 50.488C107.682 50.488 107.474 50.5253 107.256 50.6C107.042 50.6693 106.826 50.7707 106.608 50.904L106.232 50.232C106.434 50.1093 106.629 50.0107 106.816 49.936C107.002 49.856 107.197 49.7973 107.4 49.76C107.608 49.7173 107.845 49.696 108.112 49.696C108.672 49.696 109.104 49.8293 109.408 50.096C109.712 50.3627 109.866 50.7307 109.872 51.2L109.88 54H108.856L108.848 51.312ZM111.086 48.064H112.126V54H111.086V48.064ZM114.669 52.608C114.669 52.8213 114.709 52.968 114.789 53.048C114.869 53.128 114.978 53.168 115.117 53.168C115.202 53.168 115.295 53.1547 115.397 53.128C115.498 53.096 115.607 53.048 115.725 52.984L115.965 53.736C115.805 53.832 115.631 53.9093 115.445 53.968C115.263 54.0213 115.079 54.048 114.893 54.048C114.663 54.048 114.453 54.0053 114.261 53.92C114.069 53.8293 113.917 53.6907 113.805 53.504C113.693 53.312 113.637 53.072 113.637 52.784V48.728H114.669V52.608ZM113.037 49.896H115.893V50.624H113.037V49.896ZM118.613 54.56C118.474 54.9013 118.282 55.16 118.037 55.336C117.791 55.512 117.498 55.6 117.157 55.6C116.949 55.6 116.759 55.568 116.589 55.504C116.423 55.44 116.258 55.3467 116.093 55.224L116.541 54.472C116.733 54.616 116.917 54.688 117.093 54.688C117.231 54.688 117.351 54.6507 117.453 54.576C117.559 54.5013 117.647 54.3867 117.717 54.232L117.845 53.936L116.077 49.736H117.157L118.373 52.904L119.485 49.736H120.533L118.613 54.56ZM122.633 49.736H123.705L124.753 53.024L125.769 49.736H126.817L127.849 53.024L128.873 49.736H129.929L128.369 54H127.297L126.289 50.912L125.265 54H124.209L122.633 49.736ZM130.531 49.736H131.571V54H130.531V49.736ZM131.043 47.92C131.213 47.92 131.355 47.976 131.467 48.088C131.579 48.2 131.635 48.3413 131.635 48.512C131.635 48.6773 131.579 48.8187 131.467 48.936C131.355 49.048 131.213 49.104 131.043 49.104C130.877 49.104 130.739 49.048 130.627 48.936C130.515 48.8187 130.459 48.6773 130.459 48.512C130.459 48.3413 130.515 48.2 130.627 48.088C130.739 47.976 130.877 47.92 131.043 47.92ZM134.067 52.608C134.067 52.8213 134.107 52.968 134.187 53.048C134.267 53.128 134.376 53.168 134.515 53.168C134.6 53.168 134.694 53.1547 134.795 53.128C134.896 53.096 135.006 53.048 135.123 52.984L135.363 53.736C135.203 53.832 135.03 53.9093 134.843 53.968C134.662 54.0213 134.478 54.048 134.291 54.048C134.062 54.048 133.851 54.0053 133.659 53.92C133.467 53.8293 133.315 53.6907 133.203 53.504C133.091 53.312 133.035 53.072 133.035 52.784V48.728H134.067V52.608ZM132.435 49.896H135.291V50.624H132.435V49.896ZM139.339 51.616C139.339 51.3067 139.254 51.064 139.083 50.888C138.918 50.712 138.686 50.624 138.387 50.624C138.035 50.624 137.758 50.7467 137.555 50.992C137.358 51.232 137.259 51.536 137.259 51.904H136.987C136.987 51.3813 137.059 50.96 137.203 50.64C137.353 50.3147 137.563 50.0773 137.835 49.928C138.107 49.7733 138.43 49.696 138.803 49.696C139.129 49.696 139.409 49.7627 139.643 49.896C139.883 50.0293 140.067 50.2187 140.195 50.464C140.323 50.704 140.387 50.9947 140.387 51.336V54H139.339V51.616ZM136.219 48.064H137.259V54H136.219V48.064ZM145.583 49.696C146.025 49.696 146.415 49.7867 146.751 49.968C147.092 50.1493 147.356 50.4027 147.543 50.728C147.735 51.0533 147.831 51.432 147.831 51.864C147.831 52.296 147.735 52.6747 147.543 53C147.356 53.3253 147.092 53.5813 146.751 53.768C146.415 53.9493 146.025 54.04 145.583 54.04C145.135 54.04 144.74 53.9493 144.399 53.768C144.057 53.5813 143.791 53.3253 143.599 53C143.412 52.6747 143.319 52.296 143.319 51.864C143.319 51.432 143.412 51.0533 143.599 50.728C143.791 50.4027 144.057 50.1493 144.399 49.968C144.74 49.7867 145.135 49.696 145.583 49.696ZM145.583 50.536C145.343 50.536 145.129 50.5947 144.943 50.712C144.761 50.824 144.62 50.9813 144.519 51.184C144.417 51.3813 144.367 51.6107 144.367 51.872C144.367 52.1387 144.417 52.3733 144.519 52.576C144.62 52.7787 144.761 52.936 144.943 53.048C145.129 53.16 145.343 53.216 145.583 53.216C145.817 53.216 146.025 53.16 146.207 53.048C146.388 52.936 146.529 52.7787 146.631 52.576C146.732 52.3733 146.783 52.1387 146.783 51.872C146.783 51.6107 146.732 51.3813 146.631 51.184C146.529 50.9813 146.388 50.824 146.207 50.712C146.025 50.5947 145.817 50.536 145.583 50.536ZM151.846 51.616C151.846 51.3067 151.761 51.064 151.59 50.888C151.425 50.712 151.193 50.624 150.894 50.624C150.547 50.624 150.273 50.7467 150.07 50.992C149.873 51.232 149.774 51.536 149.774 51.904H149.494C149.494 51.3813 149.566 50.96 149.71 50.64C149.859 50.3147 150.07 50.0773 150.342 49.928C150.619 49.7733 150.942 49.696 151.31 49.696C151.641 49.696 151.923 49.7627 152.158 49.896C152.393 50.0293 152.574 50.2187 152.702 50.464C152.83 50.704 152.894 50.9947 152.894 51.336V54H151.846V51.616ZM148.734 49.736H149.774V54H148.734V49.736ZM157.974 53.584C157.974 53.9947 157.881 54.3493 157.694 54.648C157.513 54.9467 157.254 55.176 156.918 55.336C156.582 55.5013 156.187 55.584 155.734 55.584C155.387 55.584 155.062 55.5333 154.758 55.432C154.459 55.3307 154.182 55.1947 153.926 55.024L154.342 54.312C154.539 54.456 154.747 54.568 154.966 54.648C155.185 54.728 155.422 54.768 155.678 54.768C155.934 54.768 156.155 54.72 156.342 54.624C156.534 54.528 156.681 54.3947 156.782 54.224C156.883 54.0533 156.934 53.8507 156.934 53.616V49.736H157.974V53.584ZM155.542 49.696C155.91 49.6907 156.225 49.7707 156.486 49.936C156.747 50.1013 156.947 50.336 157.086 50.64C157.225 50.944 157.291 51.3093 157.286 51.736C157.291 52.1627 157.225 52.5307 157.086 52.84C156.953 53.144 156.758 53.3787 156.502 53.544C156.246 53.7093 155.937 53.792 155.574 53.792C155.195 53.792 154.862 53.7067 154.574 53.536C154.291 53.36 154.07 53.1173 153.91 52.808C153.75 52.4933 153.67 52.1333 153.67 51.728C153.67 51.3227 153.747 50.9707 153.902 50.672C154.062 50.368 154.283 50.1307 154.566 49.96C154.849 49.784 155.174 49.696 155.542 49.696ZM155.798 50.488C155.579 50.488 155.382 50.5413 155.206 50.648C155.035 50.7547 154.902 50.904 154.806 51.096C154.71 51.288 154.659 51.5067 154.654 51.752C154.659 51.9973 154.71 52.216 154.806 52.408C154.902 52.6 155.035 52.7493 155.206 52.856C155.377 52.9627 155.574 53.016 155.798 53.016C156.022 53.016 156.219 52.9627 156.39 52.856C156.561 52.7493 156.694 52.6 156.79 52.408C156.886 52.216 156.934 51.9973 156.934 51.752C156.934 51.5013 156.886 51.2827 156.79 51.096C156.694 50.904 156.561 50.7547 156.39 50.648C156.219 50.5413 156.022 50.488 155.798 50.488ZM161.067 49.696C161.51 49.696 161.899 49.7867 162.235 49.968C162.576 50.1493 162.84 50.4027 163.027 50.728C163.219 51.0533 163.315 51.432 163.315 51.864C163.315 52.296 163.219 52.6747 163.027 53C162.84 53.3253 162.576 53.5813 162.235 53.768C161.899 53.9493 161.51 54.04 161.067 54.04C160.619 54.04 160.224 53.9493 159.883 53.768C159.542 53.5813 159.275 53.3253 159.083 53C158.896 52.6747 158.803 52.296 158.803 51.864C158.803 51.432 158.896 51.0533 159.083 50.728C159.275 50.4027 159.542 50.1493 159.883 49.968C160.224 49.7867 160.619 49.696 161.067 49.696ZM161.067 50.536C160.827 50.536 160.614 50.5947 160.427 50.712C160.246 50.824 160.104 50.9813 160.003 51.184C159.902 51.3813 159.851 51.6107 159.851 51.872C159.851 52.1387 159.902 52.3733 160.003 52.576C160.104 52.7787 160.246 52.936 160.427 53.048C160.614 53.16 160.827 53.216 161.067 53.216C161.302 53.216 161.51 53.16 161.691 53.048C161.872 52.936 162.014 52.7787 162.115 52.576C162.216 52.3733 162.267 52.1387 162.267 51.872C162.267 51.6107 162.216 51.3813 162.115 51.184C162.014 50.9813 161.872 50.824 161.691 50.712C161.51 50.5947 161.302 50.536 161.067 50.536ZM164.218 49.736H165.258V54H164.218V49.736ZM164.73 47.92C164.901 47.92 165.042 47.976 165.154 48.088C165.266 48.2 165.322 48.3413 165.322 48.512C165.322 48.6773 165.266 48.8187 165.154 48.936C165.042 49.048 164.901 49.104 164.73 49.104C164.565 49.104 164.426 49.048 164.314 48.936C164.202 48.8187 164.146 48.6773 164.146 48.512C164.146 48.3413 164.202 48.2 164.314 48.088C164.426 47.976 164.565 47.92 164.73 47.92ZM169.658 51.616C169.658 51.3067 169.573 51.064 169.402 50.888C169.237 50.712 169.005 50.624 168.706 50.624C168.36 50.624 168.085 50.7467 167.882 50.992C167.685 51.232 167.586 51.536 167.586 51.904H167.306C167.306 51.3813 167.378 50.96 167.522 50.64C167.672 50.3147 167.882 50.0773 168.154 49.928C168.432 49.7733 168.754 49.696 169.122 49.696C169.453 49.696 169.736 49.7627 169.97 49.896C170.205 50.0293 170.386 50.2187 170.514 50.464C170.642 50.704 170.706 50.9947 170.706 51.336V54H169.658V51.616ZM166.546 49.736H167.586V54H166.546V49.736ZM175.787 53.584C175.787 53.9947 175.693 54.3493 175.507 54.648C175.325 54.9467 175.067 55.176 174.731 55.336C174.395 55.5013 174 55.584 173.547 55.584C173.2 55.584 172.875 55.5333 172.571 55.432C172.272 55.3307 171.995 55.1947 171.739 55.024L172.155 54.312C172.352 54.456 172.56 54.568 172.779 54.648C172.997 54.728 173.235 54.768 173.491 54.768C173.747 54.768 173.968 54.72 174.155 54.624C174.347 54.528 174.493 54.3947 174.595 54.224C174.696 54.0533 174.747 53.8507 174.747 53.616V49.736H175.787V53.584ZM173.355 49.696C173.723 49.6907 174.037 49.7707 174.299 49.936C174.56 50.1013 174.76 50.336 174.899 50.64C175.037 50.944 175.104 51.3093 175.099 51.736C175.104 52.1627 175.037 52.5307 174.899 52.84C174.765 53.144 174.571 53.3787 174.315 53.544C174.059 53.7093 173.749 53.792 173.387 53.792C173.008 53.792 172.675 53.7067 172.387 53.536C172.104 53.36 171.883 53.1173 171.723 52.808C171.563 52.4933 171.483 52.1333 171.483 51.728C171.483 51.3227 171.56 50.9707 171.715 50.672C171.875 50.368 172.096 50.1307 172.379 49.96C172.661 49.784 172.987 49.696 173.355 49.696ZM173.611 50.488C173.392 50.488 173.195 50.5413 173.019 50.648C172.848 50.7547 172.715 50.904 172.619 51.096C172.523 51.288 172.472 51.5067 172.467 51.752C172.472 51.9973 172.523 52.216 172.619 52.408C172.715 52.6 172.848 52.7493 173.019 52.856C173.189 52.9627 173.387 53.016 173.611 53.016C173.835 53.016 174.032 52.9627 174.203 52.856C174.373 52.7493 174.507 52.6 174.603 52.408C174.699 52.216 174.747 51.9973 174.747 51.752C174.747 51.5013 174.699 51.2827 174.603 51.096C174.507 50.904 174.373 50.7547 174.203 50.648C174.032 50.5413 173.835 50.488 173.611 50.488ZM177.375 54.056C177.146 54.056 176.978 54.0027 176.871 53.896C176.77 53.7893 176.719 53.664 176.719 53.52C176.719 53.3653 176.77 53.2373 176.871 53.136C176.973 53.0347 177.103 52.984 177.263 52.984C177.402 52.984 177.525 53.032 177.631 53.128C177.738 53.2187 177.791 53.3493 177.791 53.52C177.791 53.6 177.775 53.6773 177.743 53.752C177.717 53.8213 177.685 53.888 177.647 53.952L177.143 54.904H176.623L177.111 53.576L177.375 54.056ZM34.204 61.616C34.204 61.3013 34.1213 61.056 33.956 60.88C33.796 60.704 33.5693 60.616 33.276 60.616C32.94 60.6213 32.6733 60.7467 32.476 60.992C32.284 61.232 32.188 61.5333 32.188 61.896H31.908C31.908 61.3787 31.98 60.96 32.124 60.64C32.268 60.3147 32.4733 60.0773 32.74 59.928C33.012 59.7733 33.3293 59.696 33.692 59.696C34.0173 59.696 34.2947 59.7627 34.524 59.896C34.7587 60.0293 34.9373 60.2187 35.06 60.464C35.188 60.704 35.252 60.9947 35.252 61.336V64H34.204V61.616ZM37.268 61.616C37.268 61.3013 37.1853 61.056 37.02 60.88C36.8547 60.704 36.6253 60.616 36.332 60.616C35.996 60.6213 35.732 60.7467 35.54 60.992C35.348 61.232 35.252 61.5333 35.252 61.896H34.972C34.972 61.3787 35.044 60.96 35.188 60.64C35.332 60.3147 35.5373 60.0773 35.804 59.928C36.0707 59.7733 36.388 59.696 36.756 59.696C37.076 59.696 37.3507 59.7627 37.58 59.896C37.8147 60.0293 37.996 60.2187 38.124 60.464C38.252 60.704 38.316 60.9947 38.316 61.336V64H37.268V61.616ZM31.148 59.736H32.188V64H31.148V59.736ZM42.3641 61.544C42.3535 61.32 42.3028 61.1307 42.2121 60.976C42.1215 60.816 41.9935 60.6933 41.8281 60.608C41.6681 60.5173 41.4841 60.472 41.2761 60.472C41.0361 60.472 40.8281 60.528 40.6521 60.64C40.4761 60.752 40.3375 60.9093 40.2361 61.112C40.1401 61.3147 40.0921 61.5493 40.0921 61.816C40.0921 62.1093 40.1455 62.3627 40.2521 62.576C40.3641 62.7893 40.5161 62.9547 40.7081 63.072C40.9001 63.184 41.1215 63.24 41.3721 63.24C41.8255 63.24 42.2121 63.0773 42.5321 62.752L43.0841 63.304C42.8708 63.5387 42.6121 63.72 42.3081 63.848C42.0041 63.976 41.6655 64.04 41.2921 64.04C40.8441 64.04 40.4548 63.9493 40.1241 63.768C39.7988 63.5813 39.5428 63.328 39.3561 63.008C39.1748 62.6827 39.0841 62.304 39.0841 61.872C39.0841 61.44 39.1748 61.0613 39.3561 60.736C39.5428 60.4107 39.7988 60.1573 40.1241 59.976C40.4548 59.7947 40.8335 59.7013 41.2601 59.696C41.7668 59.696 42.1748 59.8 42.4841 60.008C42.7988 60.216 43.0228 60.5093 43.1561 60.888C43.2895 61.2613 43.3375 61.7067 43.3001 62.224H39.9401V61.544H42.3641ZM45.6505 62.12C45.3785 62.12 45.1758 62.1627 45.0425 62.248C44.9092 62.3333 44.8425 62.4747 44.8425 62.672C44.8425 62.8533 44.9092 63 45.0425 63.112C45.1812 63.224 45.3678 63.28 45.6025 63.28C45.8105 63.28 45.9972 63.2453 46.1625 63.176C46.3332 63.1013 46.4665 63.0027 46.5625 62.88C46.6638 62.752 46.7225 62.6107 46.7385 62.456L46.9145 63.2C46.7865 63.4773 46.5892 63.688 46.3225 63.832C46.0558 63.976 45.7332 64.048 45.3545 64.048C45.0505 64.048 44.7865 63.9893 44.5625 63.872C44.3385 63.7547 44.1652 63.5973 44.0425 63.4C43.9198 63.1973 43.8585 62.9707 43.8585 62.72C43.8585 62.3253 43.9998 62.016 44.2825 61.792C44.5652 61.5627 44.9652 61.4453 45.4825 61.44H46.8505V62.12H45.6505ZM46.7305 61.312C46.7305 61.056 46.6478 60.856 46.4825 60.712C46.3225 60.5627 46.0825 60.488 45.7625 60.488C45.5652 60.488 45.3572 60.5253 45.1385 60.6C44.9252 60.6693 44.7092 60.7707 44.4905 60.904L44.1145 60.232C44.3172 60.1093 44.5118 60.0107 44.6985 59.936C44.8852 59.856 45.0798 59.7973 45.2825 59.76C45.4905 59.7173 45.7278 59.696 45.9945 59.696C46.5545 59.696 46.9865 59.8293 47.2905 60.096C47.5945 60.3627 47.7492 60.7307 47.7545 61.2L47.7625 64H46.7385L46.7305 61.312ZM52.0413 61.616C52.0413 61.3067 51.9559 61.064 51.7853 60.888C51.6199 60.712 51.3879 60.624 51.0893 60.624C50.7426 60.624 50.4679 60.7467 50.2653 60.992C50.0679 61.232 49.9693 61.536 49.9693 61.904H49.6893C49.6893 61.3813 49.7613 60.96 49.9053 60.64C50.0546 60.3147 50.2653 60.0773 50.5373 59.928C50.8146 59.7733 51.1373 59.696 51.5053 59.696C51.8359 59.696 52.1186 59.7627 52.3533 59.896C52.5879 60.0293 52.7693 60.2187 52.8973 60.464C53.0253 60.704 53.0893 60.9947 53.0893 61.336V64H52.0413V61.616ZM48.9293 59.736H49.9693V64H48.9293V59.736ZM54.2574 59.736H55.2974V64H54.2574V59.736ZM54.7694 57.92C54.94 57.92 55.0814 57.976 55.1934 58.088C55.3054 58.2 55.3614 58.3413 55.3614 58.512C55.3614 58.6773 55.3054 58.8187 55.1934 58.936C55.0814 59.048 54.94 59.104 54.7694 59.104C54.604 59.104 54.4654 59.048 54.3534 58.936C54.2414 58.8187 54.1854 58.6773 54.1854 58.512C54.1854 58.3413 54.2414 58.2 54.3534 58.088C54.4654 57.976 54.604 57.92 54.7694 57.92ZM59.6975 61.616C59.6975 61.3067 59.6122 61.064 59.4415 60.888C59.2762 60.712 59.0442 60.624 58.7455 60.624C58.3988 60.624 58.1242 60.7467 57.9215 60.992C57.7242 61.232 57.6255 61.536 57.6255 61.904H57.3455C57.3455 61.3813 57.4175 60.96 57.5615 60.64C57.7108 60.3147 57.9215 60.0773 58.1935 59.928C58.4708 59.7733 58.7935 59.696 59.1615 59.696C59.4922 59.696 59.7748 59.7627 60.0095 59.896C60.2442 60.0293 60.4255 60.2187 60.5535 60.464C60.6815 60.704 60.7455 60.9947 60.7455 61.336V64H59.6975V61.616ZM56.5855 59.736H57.6255V64H56.5855V59.736ZM65.8256 63.584C65.8256 63.9947 65.7323 64.3493 65.5456 64.648C65.3643 64.9467 65.1056 65.176 64.7696 65.336C64.4336 65.5013 64.039 65.584 63.5856 65.584C63.239 65.584 62.9136 65.5333 62.6096 65.432C62.311 65.3307 62.0336 65.1947 61.7776 65.024L62.1936 64.312C62.391 64.456 62.599 64.568 62.8176 64.648C63.0363 64.728 63.2736 64.768 63.5296 64.768C63.7856 64.768 64.007 64.72 64.1936 64.624C64.3856 64.528 64.5323 64.3947 64.6336 64.224C64.735 64.0533 64.7856 63.8507 64.7856 63.616V59.736H65.8256V63.584ZM63.3936 59.696C63.7616 59.6907 64.0763 59.7707 64.3376 59.936C64.599 60.1013 64.799 60.336 64.9376 60.64C65.0763 60.944 65.143 61.3093 65.1376 61.736C65.143 62.1627 65.0763 62.5307 64.9376 62.84C64.8043 63.144 64.6096 63.3787 64.3536 63.544C64.0976 63.7093 63.7883 63.792 63.4256 63.792C63.047 63.792 62.7136 63.7067 62.4256 63.536C62.143 63.36 61.9216 63.1173 61.7616 62.808C61.6016 62.4933 61.5216 62.1333 61.5216 61.728C61.5216 61.3227 61.599 60.9707 61.7536 60.672C61.9136 60.368 62.135 60.1307 62.4176 59.96C62.7003 59.784 63.0256 59.696 63.3936 59.696ZM63.6496 60.488C63.431 60.488 63.2336 60.5413 63.0576 60.648C62.887 60.7547 62.7536 60.904 62.6576 61.096C62.5616 61.288 62.511 61.5067 62.5056 61.752C62.511 61.9973 62.5616 62.216 62.6576 62.408C62.7536 62.6 62.887 62.7493 63.0576 62.856C63.2283 62.9627 63.4256 63.016 63.6496 63.016C63.8736 63.016 64.071 62.9627 64.2416 62.856C64.4123 62.7493 64.5456 62.6 64.6416 62.408C64.7376 62.216 64.7856 61.9973 64.7856 61.752C64.7856 61.5013 64.7376 61.2827 64.6416 61.096C64.5456 60.904 64.4123 60.7547 64.2416 60.648C64.071 60.5413 63.8736 60.488 63.6496 60.488ZM67.2384 59.488C67.2384 59.1573 67.3104 58.8827 67.4544 58.664C67.5984 58.4453 67.7851 58.2827 68.0144 58.176C68.2438 58.0693 68.4918 58.016 68.7584 58.016C68.8918 58.016 69.0251 58.0347 69.1584 58.072C69.2971 58.104 69.4251 58.1493 69.5424 58.208L69.3584 59C69.2784 58.968 69.1931 58.9387 69.1024 58.912C69.0118 58.8853 68.9211 58.872 68.8304 58.872C68.7344 58.8667 68.6438 58.8853 68.5584 58.928C68.4731 58.9653 68.4038 59.0267 68.3504 59.112C68.3024 59.192 68.2784 59.2987 68.2784 59.432V64H67.2384V59.488ZM66.6784 59.896H69.3504V60.624H66.6784V59.896ZM70.9663 62.112C70.9663 62.4213 71.0463 62.6667 71.2063 62.848C71.3716 63.024 71.5983 63.112 71.8863 63.112C72.2223 63.1013 72.4836 62.976 72.6703 62.736C72.8623 62.496 72.9583 62.1947 72.9583 61.832H73.2303C73.2303 62.3493 73.1583 62.7707 73.0143 63.096C72.8703 63.416 72.6676 63.6533 72.4063 63.808C72.1449 63.9573 71.8329 64.0347 71.4703 64.04C71.1503 64.04 70.8729 63.9733 70.6383 63.84C70.4089 63.7067 70.2303 63.5173 70.1023 63.272C69.9796 63.0213 69.9183 62.728 69.9183 62.392V59.736H70.9663V62.112ZM72.9583 59.736H74.0063V64H72.9583V59.736ZM75.3443 58.064H76.3843V64H75.3443V58.064ZM82.8186 61.032C82.6852 60.8827 82.5226 60.768 82.3306 60.688C82.1439 60.6027 81.9332 60.56 81.6986 60.56C81.4692 60.56 81.2666 60.616 81.0906 60.728C80.9146 60.8347 80.7759 60.9867 80.6746 61.184C80.5786 61.3813 80.5306 61.6107 80.5306 61.872C80.5306 62.1333 80.5786 62.3627 80.6746 62.56C80.7759 62.7573 80.9146 62.912 81.0906 63.024C81.2666 63.136 81.4692 63.192 81.6986 63.192C81.9439 63.192 82.1652 63.1493 82.3626 63.064C82.5599 62.9787 82.7226 62.8507 82.8506 62.68L83.4986 63.208C83.3119 63.4693 83.0612 63.6747 82.7466 63.824C82.4319 63.968 82.0666 64.04 81.6506 64.04C81.2239 64.04 80.8479 63.9493 80.5226 63.768C80.1972 63.5813 79.9412 63.328 79.7546 63.008C79.5732 62.6827 79.4826 62.304 79.4826 61.872C79.4826 61.44 79.5732 61.0613 79.7546 60.736C79.9412 60.4107 80.1972 60.1573 80.5226 59.976C80.8479 59.7893 81.2239 59.696 81.6506 59.696C82.0506 59.696 82.4026 59.7627 82.7066 59.896C83.0106 60.024 83.2612 60.2053 83.4586 60.44L82.8186 61.032ZM86.1059 59.696C86.5486 59.696 86.9379 59.7867 87.2739 59.968C87.6153 60.1493 87.8793 60.4027 88.0659 60.728C88.2579 61.0533 88.3539 61.432 88.3539 61.864C88.3539 62.296 88.2579 62.6747 88.0659 63C87.8793 63.3253 87.6153 63.5813 87.2739 63.768C86.9379 63.9493 86.5486 64.04 86.1059 64.04C85.6579 64.04 85.2633 63.9493 84.9219 63.768C84.5806 63.5813 84.3139 63.3253 84.1219 63C83.9353 62.6747 83.8419 62.296 83.8419 61.864C83.8419 61.432 83.9353 61.0533 84.1219 60.728C84.3139 60.4027 84.5806 60.1493 84.9219 59.968C85.2633 59.7867 85.6579 59.696 86.1059 59.696ZM86.1059 60.536C85.8659 60.536 85.6526 60.5947 85.4659 60.712C85.2846 60.824 85.1433 60.9813 85.0419 61.184C84.9406 61.3813 84.8899 61.6107 84.8899 61.872C84.8899 62.1387 84.9406 62.3733 85.0419 62.576C85.1433 62.7787 85.2846 62.936 85.4659 63.048C85.6526 63.16 85.8659 63.216 86.1059 63.216C86.3406 63.216 86.5486 63.16 86.7299 63.048C86.9113 62.936 87.0526 62.7787 87.1539 62.576C87.2553 62.3733 87.3059 62.1387 87.3059 61.872C87.3059 61.6107 87.2553 61.3813 87.1539 61.184C87.0526 60.9813 86.9113 60.824 86.7299 60.712C86.5486 60.5947 86.3406 60.536 86.1059 60.536ZM92.3134 61.616C92.3134 61.3013 92.2307 61.056 92.0654 60.88C91.9054 60.704 91.6787 60.616 91.3854 60.616C91.0494 60.6213 90.7827 60.7467 90.5854 60.992C90.3934 61.232 90.2974 61.5333 90.2974 61.896H90.0174C90.0174 61.3787 90.0894 60.96 90.2334 60.64C90.3774 60.3147 90.5827 60.0773 90.8494 59.928C91.1214 59.7733 91.4387 59.696 91.8014 59.696C92.1267 59.696 92.404 59.7627 92.6334 59.896C92.868 60.0293 93.0467 60.2187 93.1694 60.464C93.2974 60.704 93.3614 60.9947 93.3614 61.336V64H92.3134V61.616ZM95.3774 61.616C95.3774 61.3013 95.2947 61.056 95.1294 60.88C94.964 60.704 94.7347 60.616 94.4414 60.616C94.1054 60.6213 93.8414 60.7467 93.6494 60.992C93.4574 61.232 93.3614 61.5333 93.3614 61.896H93.0814C93.0814 61.3787 93.1534 60.96 93.2974 60.64C93.4414 60.3147 93.6467 60.0773 93.9134 59.928C94.18 59.7733 94.4974 59.696 94.8654 59.696C95.1854 59.696 95.46 59.7627 95.6894 59.896C95.924 60.0293 96.1054 60.2187 96.2334 60.464C96.3614 60.704 96.4254 60.9947 96.4254 61.336V64H95.3774V61.616ZM89.2574 59.736H90.2974V64H89.2574V59.736ZM100.642 61.616C100.642 61.3013 100.559 61.056 100.394 60.88C100.234 60.704 100.007 60.616 99.7135 60.616C99.3775 60.6213 99.1108 60.7467 98.9135 60.992C98.7215 61.232 98.6255 61.5333 98.6255 61.896H98.3455C98.3455 61.3787 98.4175 60.96 98.5615 60.64C98.7055 60.3147 98.9108 60.0773 99.1775 59.928C99.4495 59.7733 99.7668 59.696 100.13 59.696C100.455 59.696 100.732 59.7627 100.962 59.896C101.196 60.0293 101.375 60.2187 101.498 60.464C101.626 60.704 101.69 60.9947 101.69 61.336V64H100.642V61.616ZM103.706 61.616C103.706 61.3013 103.623 61.056 103.458 60.88C103.292 60.704 103.063 60.616 102.77 60.616C102.434 60.6213 102.17 60.7467 101.978 60.992C101.786 61.232 101.69 61.5333 101.69 61.896H101.41C101.41 61.3787 101.482 60.96 101.626 60.64C101.77 60.3147 101.975 60.0773 102.242 59.928C102.508 59.7733 102.826 59.696 103.194 59.696C103.514 59.696 103.788 59.7627 104.018 59.896C104.252 60.0293 104.434 60.2187 104.562 60.464C104.69 60.704 104.754 60.9947 104.754 61.336V64H103.706V61.616ZM97.5855 59.736H98.6255V64H97.5855V59.736ZM106.826 62.112C106.826 62.4213 106.906 62.6667 107.066 62.848C107.231 63.024 107.458 63.112 107.746 63.112C108.082 63.1013 108.343 62.976 108.53 62.736C108.722 62.496 108.818 62.1947 108.818 61.832H109.09C109.09 62.3493 109.018 62.7707 108.874 63.096C108.73 63.416 108.527 63.6533 108.266 63.808C108.004 63.9573 107.692 64.0347 107.33 64.04C107.01 64.04 106.732 63.9733 106.498 63.84C106.268 63.7067 106.09 63.5173 105.962 63.272C105.839 63.0213 105.778 62.728 105.778 62.392V59.736H106.826V62.112ZM108.818 59.736H109.866V64H108.818V59.736ZM114.276 61.616C114.276 61.3067 114.19 61.064 114.02 60.888C113.854 60.712 113.622 60.624 113.324 60.624C112.977 60.624 112.702 60.7467 112.5 60.992C112.302 61.232 112.204 61.536 112.204 61.904H111.924C111.924 61.3813 111.996 60.96 112.14 60.64C112.289 60.3147 112.5 60.0773 112.772 59.928C113.049 59.7733 113.372 59.696 113.74 59.696C114.07 59.696 114.353 59.7627 114.588 59.896C114.822 60.0293 115.004 60.2187 115.132 60.464C115.26 60.704 115.324 60.9947 115.324 61.336V64H114.276V61.616ZM111.164 59.736H112.204V64H111.164V59.736ZM116.492 59.736H117.532V64H116.492V59.736ZM117.004 57.92C117.174 57.92 117.316 57.976 117.428 58.088C117.54 58.2 117.596 58.3413 117.596 58.512C117.596 58.6773 117.54 58.8187 117.428 58.936C117.316 59.048 117.174 59.104 117.004 59.104C116.838 59.104 116.7 59.048 116.588 58.936C116.476 58.8187 116.42 58.6773 116.42 58.512C116.42 58.3413 116.476 58.2 116.588 58.088C116.7 57.976 116.838 57.92 117.004 57.92ZM121.764 61.032C121.631 60.8827 121.468 60.768 121.276 60.688C121.089 60.6027 120.879 60.56 120.644 60.56C120.415 60.56 120.212 60.616 120.036 60.728C119.86 60.8347 119.721 60.9867 119.62 61.184C119.524 61.3813 119.476 61.6107 119.476 61.872C119.476 62.1333 119.524 62.3627 119.62 62.56C119.721 62.7573 119.86 62.912 120.036 63.024C120.212 63.136 120.415 63.192 120.644 63.192C120.889 63.192 121.111 63.1493 121.308 63.064C121.505 62.9787 121.668 62.8507 121.796 62.68L122.444 63.208C122.257 63.4693 122.007 63.6747 121.692 63.824C121.377 63.968 121.012 64.04 120.596 64.04C120.169 64.04 119.793 63.9493 119.468 63.768C119.143 63.5813 118.887 63.328 118.7 63.008C118.519 62.6827 118.428 62.304 118.428 61.872C118.428 61.44 118.519 61.0613 118.7 60.736C118.887 60.4107 119.143 60.1573 119.468 59.976C119.793 59.7893 120.169 59.696 120.596 59.696C120.996 59.696 121.348 59.7627 121.652 59.896C121.956 60.024 122.207 60.2053 122.404 60.44L121.764 61.032ZM124.619 62.12C124.347 62.12 124.145 62.1627 124.011 62.248C123.878 62.3333 123.811 62.4747 123.811 62.672C123.811 62.8533 123.878 63 124.011 63.112C124.15 63.224 124.337 63.28 124.571 63.28C124.779 63.28 124.966 63.2453 125.131 63.176C125.302 63.1013 125.435 63.0027 125.531 62.88C125.633 62.752 125.691 62.6107 125.707 62.456L125.883 63.2C125.755 63.4773 125.558 63.688 125.291 63.832C125.025 63.976 124.702 64.048 124.323 64.048C124.019 64.048 123.755 63.9893 123.531 63.872C123.307 63.7547 123.134 63.5973 123.011 63.4C122.889 63.1973 122.827 62.9707 122.827 62.72C122.827 62.3253 122.969 62.016 123.251 61.792C123.534 61.5627 123.934 61.4453 124.451 61.44H125.819V62.12H124.619ZM125.699 61.312C125.699 61.056 125.617 60.856 125.451 60.712C125.291 60.5627 125.051 60.488 124.731 60.488C124.534 60.488 124.326 60.5253 124.107 60.6C123.894 60.6693 123.678 60.7707 123.459 60.904L123.083 60.232C123.286 60.1093 123.481 60.0107 123.667 59.936C123.854 59.856 124.049 59.7973 124.251 59.76C124.459 59.7173 124.697 59.696 124.963 59.696C125.523 59.696 125.955 59.8293 126.259 60.096C126.563 60.3627 126.718 60.7307 126.723 61.2L126.731 64H125.707L125.699 61.312ZM129.106 62.608C129.106 62.8213 129.146 62.968 129.226 63.048C129.306 63.128 129.415 63.168 129.554 63.168C129.639 63.168 129.733 63.1547 129.834 63.128C129.935 63.096 130.045 63.048 130.162 62.984L130.402 63.736C130.242 63.832 130.069 63.9093 129.882 63.968C129.701 64.0213 129.517 64.048 129.33 64.048C129.101 64.048 128.89 64.0053 128.698 63.92C128.506 63.8293 128.354 63.6907 128.242 63.504C128.13 63.312 128.074 63.072 128.074 62.784V58.728H129.106V62.608ZM127.474 59.896H130.33V60.624H127.474V59.896ZM131.218 59.736H132.258V64H131.218V59.736ZM131.73 57.92C131.901 57.92 132.042 57.976 132.154 58.088C132.266 58.2 132.322 58.3413 132.322 58.512C132.322 58.6773 132.266 58.8187 132.154 58.936C132.042 59.048 131.901 59.104 131.73 59.104C131.565 59.104 131.426 59.048 131.314 58.936C131.202 58.8187 131.146 58.6773 131.146 58.512C131.146 58.3413 131.202 58.2 131.314 58.088C131.426 57.976 131.565 57.92 131.73 57.92ZM135.418 59.696C135.861 59.696 136.25 59.7867 136.586 59.968C136.928 60.1493 137.192 60.4027 137.378 60.728C137.57 61.0533 137.666 61.432 137.666 61.864C137.666 62.296 137.57 62.6747 137.378 63C137.192 63.3253 136.928 63.5813 136.586 63.768C136.25 63.9493 135.861 64.04 135.418 64.04C134.97 64.04 134.576 63.9493 134.234 63.768C133.893 63.5813 133.626 63.3253 133.434 63C133.248 62.6747 133.154 62.296 133.154 61.864C133.154 61.432 133.248 61.0533 133.434 60.728C133.626 60.4027 133.893 60.1493 134.234 59.968C134.576 59.7867 134.97 59.696 135.418 59.696ZM135.418 60.536C135.178 60.536 134.965 60.5947 134.778 60.712C134.597 60.824 134.456 60.9813 134.354 61.184C134.253 61.3813 134.202 61.6107 134.202 61.872C134.202 62.1387 134.253 62.3733 134.354 62.576C134.456 62.7787 134.597 62.936 134.778 63.048C134.965 63.16 135.178 63.216 135.418 63.216C135.653 63.216 135.861 63.16 136.042 63.048C136.224 62.936 136.365 62.7787 136.466 62.576C136.568 62.3733 136.618 62.1387 136.618 61.872C136.618 61.6107 136.568 61.3813 136.466 61.184C136.365 60.9813 136.224 60.824 136.042 60.712C135.861 60.5947 135.653 60.536 135.418 60.536ZM141.682 61.616C141.682 61.3067 141.597 61.064 141.426 60.888C141.261 60.712 141.029 60.624 140.73 60.624C140.383 60.624 140.109 60.7467 139.906 60.992C139.709 61.232 139.61 61.536 139.61 61.904H139.33C139.33 61.3813 139.402 60.96 139.546 60.64C139.695 60.3147 139.906 60.0773 140.178 59.928C140.455 59.7733 140.778 59.696 141.146 59.696C141.477 59.696 141.759 59.7627 141.994 59.896C142.229 60.0293 142.41 60.2187 142.538 60.464C142.666 60.704 142.73 60.9947 142.73 61.336V64H141.682V61.616ZM138.57 59.736H139.61V64H138.57V59.736ZM147.262 62.608C147.262 62.8213 147.302 62.968 147.382 63.048C147.462 63.128 147.572 63.168 147.71 63.168C147.796 63.168 147.889 63.1547 147.99 63.128C148.092 63.096 148.201 63.048 148.318 62.984L148.558 63.736C148.398 63.832 148.225 63.9093 148.038 63.968C147.857 64.0213 147.673 64.048 147.486 64.048C147.257 64.048 147.046 64.0053 146.854 63.92C146.662 63.8293 146.51 63.6907 146.398 63.504C146.286 63.312 146.23 63.072 146.23 62.784V58.728H147.262V62.608ZM145.63 59.896H148.486V60.624H145.63V59.896ZM152.535 61.616C152.535 61.3067 152.449 61.064 152.279 60.888C152.113 60.712 151.881 60.624 151.583 60.624C151.231 60.624 150.953 60.7467 150.751 60.992C150.553 61.232 150.455 61.536 150.455 61.904H150.183C150.183 61.3813 150.255 60.96 150.399 60.64C150.548 60.3147 150.759 60.0773 151.031 59.928C151.303 59.7733 151.625 59.696 151.999 59.696C152.324 59.696 152.604 59.7627 152.839 59.896C153.079 60.0293 153.263 60.2187 153.391 60.464C153.519 60.704 153.583 60.9947 153.583 61.336V64H152.535V61.616ZM149.415 58.064H150.455V64H149.415V58.064ZM156.19 62.12C155.918 62.12 155.715 62.1627 155.582 62.248C155.448 62.3333 155.382 62.4747 155.382 62.672C155.382 62.8533 155.448 63 155.582 63.112C155.72 63.224 155.907 63.28 156.142 63.28C156.35 63.28 156.536 63.2453 156.702 63.176C156.872 63.1013 157.006 63.0027 157.102 62.88C157.203 62.752 157.262 62.6107 157.278 62.456L157.454 63.2C157.326 63.4773 157.128 63.688 156.862 63.832C156.595 63.976 156.272 64.048 155.894 64.048C155.59 64.048 155.326 63.9893 155.102 63.872C154.878 63.7547 154.704 63.5973 154.582 63.4C154.459 63.1973 154.398 62.9707 154.398 62.72C154.398 62.3253 154.539 62.016 154.822 61.792C155.104 61.5627 155.504 61.4453 156.022 61.44H157.39V62.12H156.19ZM157.27 61.312C157.27 61.056 157.187 60.856 157.022 60.712C156.862 60.5627 156.622 60.488 156.302 60.488C156.104 60.488 155.896 60.5253 155.678 60.6C155.464 60.6693 155.248 60.7707 155.03 60.904L154.654 60.232C154.856 60.1093 155.051 60.0107 155.238 59.936C155.424 59.856 155.619 59.7973 155.822 59.76C156.03 59.7173 156.267 59.696 156.534 59.696C157.094 59.696 157.526 59.8293 157.83 60.096C158.134 60.3627 158.288 60.7307 158.294 61.2L158.302 64H157.278L157.27 61.312ZM160.676 62.608C160.676 62.8213 160.716 62.968 160.796 63.048C160.876 63.128 160.986 63.168 161.124 63.168C161.21 63.168 161.303 63.1547 161.404 63.128C161.506 63.096 161.615 63.048 161.732 62.984L161.972 63.736C161.812 63.832 161.639 63.9093 161.452 63.968C161.271 64.0213 161.087 64.048 160.9 64.048C160.671 64.048 160.46 64.0053 160.268 63.92C160.076 63.8293 159.924 63.6907 159.812 63.504C159.7 63.312 159.644 63.072 159.644 62.784V58.728H160.676V62.608ZM159.044 59.896H161.9V60.624H159.044V59.896ZM166.385 62.12C166.113 62.12 165.91 62.1627 165.777 62.248C165.644 62.3333 165.577 62.4747 165.577 62.672C165.577 62.8533 165.644 63 165.777 63.112C165.916 63.224 166.102 63.28 166.337 63.28C166.545 63.28 166.732 63.2453 166.897 63.176C167.068 63.1013 167.201 63.0027 167.297 62.88C167.398 62.752 167.457 62.6107 167.473 62.456L167.649 63.2C167.521 63.4773 167.324 63.688 167.057 63.832C166.79 63.976 166.468 64.048 166.089 64.048C165.785 64.048 165.521 63.9893 165.297 63.872C165.073 63.7547 164.9 63.5973 164.777 63.4C164.654 63.1973 164.593 62.9707 164.593 62.72C164.593 62.3253 164.734 62.016 165.017 61.792C165.3 61.5627 165.7 61.4453 166.217 61.44H167.585V62.12H166.385ZM167.465 61.312C167.465 61.056 167.382 60.856 167.217 60.712C167.057 60.5627 166.817 60.488 166.497 60.488C166.3 60.488 166.092 60.5253 165.873 60.6C165.66 60.6693 165.444 60.7707 165.225 60.904L164.849 60.232C165.052 60.1093 165.246 60.0107 165.433 59.936C165.62 59.856 165.814 59.7973 166.017 59.76C166.225 59.7173 166.462 59.696 166.729 59.696C167.289 59.696 167.721 59.8293 168.025 60.096C168.329 60.3627 168.484 60.7307 168.489 61.2L168.497 64H167.473L167.465 61.312ZM169.704 58.064H170.744V64H169.704V58.064ZM172.078 59.736H173.118V64H172.078V59.736ZM172.59 57.92C172.76 57.92 172.902 57.976 173.014 58.088C173.126 58.2 173.182 58.3413 173.182 58.512C173.182 58.6773 173.126 58.8187 173.014 58.936C172.902 59.048 172.76 59.104 172.59 59.104C172.424 59.104 172.286 59.048 172.174 58.936C172.062 58.8187 172.006 58.6773 172.006 58.512C172.006 58.3413 172.062 58.2 172.174 58.088C172.286 57.976 172.424 57.92 172.59 57.92ZM178.318 63.584C178.318 63.9947 178.224 64.3493 178.038 64.648C177.856 64.9467 177.598 65.176 177.262 65.336C176.926 65.5013 176.531 65.584 176.078 65.584C175.731 65.584 175.406 65.5333 175.102 65.432C174.803 65.3307 174.526 65.1947 174.27 65.024L174.686 64.312C174.883 64.456 175.091 64.568 175.31 64.648C175.528 64.728 175.766 64.768 176.022 64.768C176.278 64.768 176.499 64.72 176.686 64.624C176.878 64.528 177.024 64.3947 177.126 64.224C177.227 64.0533 177.278 63.8507 177.278 63.616V59.736H178.318V63.584ZM175.886 59.696C176.254 59.6907 176.568 59.7707 176.83 59.936C177.091 60.1013 177.291 60.336 177.43 60.64C177.568 60.944 177.635 61.3093 177.63 61.736C177.635 62.1627 177.568 62.5307 177.43 62.84C177.296 63.144 177.102 63.3787 176.846 63.544C176.59 63.7093 176.28 63.792 175.918 63.792C175.539 63.792 175.206 63.7067 174.918 63.536C174.635 63.36 174.414 63.1173 174.254 62.808C174.094 62.4933 174.014 62.1333 174.014 61.728C174.014 61.3227 174.091 60.9707 174.246 60.672C174.406 60.368 174.627 60.1307 174.91 59.96C175.192 59.784 175.518 59.696 175.886 59.696ZM176.142 60.488C175.923 60.488 175.726 60.5413 175.55 60.648C175.379 60.7547 175.246 60.904 175.15 61.096C175.054 61.288 175.003 61.5067 174.998 61.752C175.003 61.9973 175.054 62.216 175.15 62.408C175.246 62.6 175.379 62.7493 175.55 62.856C175.72 62.9627 175.918 63.016 176.142 63.016C176.366 63.016 176.563 62.9627 176.734 62.856C176.904 62.7493 177.038 62.6 177.134 62.408C177.23 62.216 177.278 61.9973 177.278 61.752C177.278 61.5013 177.23 61.2827 177.134 61.096C177.038 60.904 176.904 60.7547 176.734 60.648C176.563 60.5413 176.366 60.488 176.142 60.488ZM182.651 61.616C182.651 61.3067 182.565 61.064 182.395 60.888C182.229 60.712 181.997 60.624 181.699 60.624C181.352 60.624 181.077 60.7467 180.875 60.992C180.677 61.232 180.579 61.536 180.579 61.904H180.299C180.299 61.3813 180.371 60.96 180.515 60.64C180.664 60.3147 180.875 60.0773 181.147 59.928C181.424 59.7733 181.747 59.696 182.115 59.696C182.445 59.696 182.728 59.7627 182.963 59.896C183.197 60.0293 183.379 60.2187 183.507 60.464C183.635 60.704 183.699 60.9947 183.699 61.336V64H182.651V61.616ZM179.539 59.736H180.579V64H179.539V59.736ZM187.403 60.848C187.195 60.7253 186.979 60.632 186.755 60.568C186.531 60.4987 186.328 60.464 186.147 60.464C185.976 60.464 185.837 60.496 185.731 60.56C185.624 60.6187 185.571 60.72 185.571 60.864C185.571 60.9867 185.624 61.0853 185.731 61.16C185.843 61.2347 185.984 61.2987 186.155 61.352C186.325 61.4 186.507 61.4533 186.699 61.512C186.891 61.5707 187.072 61.648 187.243 61.744C187.419 61.84 187.56 61.968 187.667 62.128C187.779 62.288 187.835 62.4987 187.835 62.76C187.835 63.048 187.757 63.288 187.603 63.48C187.448 63.6667 187.243 63.808 186.987 63.904C186.731 63.9947 186.451 64.04 186.147 64.04C185.827 64.04 185.507 63.9893 185.187 63.888C184.872 63.7867 184.603 63.6373 184.379 63.44L184.739 62.744C184.936 62.9147 185.168 63.048 185.435 63.144C185.707 63.2347 185.957 63.28 186.187 63.28C186.309 63.28 186.419 63.264 186.515 63.232C186.611 63.2 186.685 63.1547 186.739 63.096C186.792 63.032 186.819 62.9493 186.819 62.848C186.819 62.7093 186.765 62.6027 186.659 62.528C186.552 62.448 186.413 62.3813 186.243 62.328C186.077 62.2693 185.899 62.2133 185.707 62.16C185.515 62.1013 185.333 62.0267 185.163 61.936C184.997 61.84 184.861 61.7147 184.755 61.56C184.648 61.4053 184.595 61.2 184.595 60.944C184.595 60.656 184.669 60.4187 184.819 60.232C184.968 60.0453 185.165 59.9093 185.411 59.824C185.656 59.7333 185.923 59.688 186.211 59.688C186.488 59.688 186.765 59.728 187.043 59.808C187.32 59.8827 187.565 59.9893 187.779 60.128L187.403 60.848ZM30.492 69.736H31.564L32.612 73.024L33.628 69.736H34.676L35.708 73.024L36.732 69.736H37.788L36.228 74H35.156L34.148 70.912L33.124 74H32.068L30.492 69.736ZM38.3902 69.736H39.4302V74H38.3902V69.736ZM38.9022 67.92C39.0729 67.92 39.2142 67.976 39.3262 68.088C39.4382 68.2 39.4942 68.3413 39.4942 68.512C39.4942 68.6773 39.4382 68.8187 39.3262 68.936C39.2142 69.048 39.0729 69.104 38.9022 69.104C38.7369 69.104 38.5982 69.048 38.4862 68.936C38.3742 68.8187 38.3182 68.6773 38.3182 68.512C38.3182 68.3413 38.3742 68.2 38.4862 68.088C38.5982 67.976 38.7369 67.92 38.9022 67.92ZM41.9263 72.608C41.9263 72.8213 41.9663 72.968 42.0463 73.048C42.1263 73.128 42.2356 73.168 42.3743 73.168C42.4596 73.168 42.553 73.1547 42.6543 73.128C42.7556 73.096 42.865 73.048 42.9823 72.984L43.2223 73.736C43.0623 73.832 42.889 73.9093 42.7023 73.968C42.521 74.0213 42.337 74.048 42.1503 74.048C41.921 74.048 41.7103 74.0053 41.5183 73.92C41.3263 73.8293 41.1743 73.6907 41.0623 73.504C40.9503 73.312 40.8943 73.072 40.8943 72.784V68.728H41.9263V72.608ZM40.2943 69.896H43.1503V70.624H40.2943V69.896ZM47.1986 71.616C47.1986 71.3067 47.1133 71.064 46.9426 70.888C46.7773 70.712 46.5453 70.624 46.2466 70.624C45.8946 70.624 45.6173 70.7467 45.4146 70.992C45.2173 71.232 45.1186 71.536 45.1186 71.904H44.8466C44.8466 71.3813 44.9186 70.96 45.0626 70.64C45.212 70.3147 45.4226 70.0773 45.6946 69.928C45.9666 69.7733 46.2893 69.696 46.6626 69.696C46.988 69.696 47.268 69.7627 47.5026 69.896C47.7426 70.0293 47.9266 70.2187 48.0546 70.464C48.1826 70.704 48.2466 70.9947 48.2466 71.336V74H47.1986V71.616ZM44.0786 68.064H45.1186V74H44.0786V68.064ZM52.7779 72.608C52.7779 72.8213 52.8179 72.968 52.8979 73.048C52.9779 73.128 53.0872 73.168 53.2259 73.168C53.3112 73.168 53.4045 73.1547 53.5059 73.128C53.6072 73.096 53.7165 73.048 53.8339 72.984L54.0739 73.736C53.9139 73.832 53.7405 73.9093 53.5539 73.968C53.3725 74.0213 53.1885 74.048 53.0019 74.048C52.7725 74.048 52.5619 74.0053 52.3699 73.92C52.1779 73.8293 52.0259 73.6907 51.9139 73.504C51.8019 73.312 51.7459 73.072 51.7459 72.784V68.728H52.7779V72.608ZM51.1459 69.896H54.0019V70.624H51.1459V69.896ZM58.0502 71.616C58.0502 71.3067 57.9649 71.064 57.7942 70.888C57.6289 70.712 57.3969 70.624 57.0982 70.624C56.7462 70.624 56.4689 70.7467 56.2662 70.992C56.0689 71.232 55.9702 71.536 55.9702 71.904H55.6982C55.6982 71.3813 55.7702 70.96 55.9142 70.64C56.0635 70.3147 56.2742 70.0773 56.5462 69.928C56.8182 69.7733 57.1409 69.696 57.5142 69.696C57.8395 69.696 58.1195 69.7627 58.3542 69.896C58.5942 70.0293 58.7782 70.2187 58.9062 70.464C59.0342 70.704 59.0982 70.9947 59.0982 71.336V74H58.0502V71.616ZM54.9302 68.064H55.9702V74H54.9302V68.064ZM63.1532 71.544C63.1425 71.32 63.0919 71.1307 63.0012 70.976C62.9105 70.816 62.7825 70.6933 62.6172 70.608C62.4572 70.5173 62.2732 70.472 62.0652 70.472C61.8252 70.472 61.6172 70.528 61.4412 70.64C61.2652 70.752 61.1265 70.9093 61.0252 71.112C60.9292 71.3147 60.8812 71.5493 60.8812 71.816C60.8812 72.1093 60.9345 72.3627 61.0412 72.576C61.1532 72.7893 61.3052 72.9547 61.4972 73.072C61.6892 73.184 61.9105 73.24 62.1612 73.24C62.6145 73.24 63.0012 73.0773 63.3212 72.752L63.8732 73.304C63.6599 73.5387 63.4012 73.72 63.0972 73.848C62.7932 73.976 62.4545 74.04 62.0812 74.04C61.6332 74.04 61.2439 73.9493 60.9132 73.768C60.5879 73.5813 60.3319 73.328 60.1452 73.008C59.9639 72.6827 59.8732 72.304 59.8732 71.872C59.8732 71.44 59.9639 71.0613 60.1452 70.736C60.3319 70.4107 60.5879 70.1573 60.9132 69.976C61.2439 69.7947 61.6225 69.7013 62.0492 69.696C62.5559 69.696 62.9639 69.8 63.2732 70.008C63.5879 70.216 63.8119 70.5093 63.9452 70.888C64.0785 71.2613 64.1265 71.7067 64.0892 72.224H60.7292V71.544H63.1532ZM64.9996 69.736H66.0396V74H64.9996V69.736ZM65.5116 67.92C65.6822 67.92 65.8236 67.976 65.9356 68.088C66.0476 68.2 66.1036 68.3413 66.1036 68.512C66.1036 68.6773 66.0476 68.8187 65.9356 68.936C65.8236 69.048 65.6822 69.104 65.5116 69.104C65.3462 69.104 65.2076 69.048 65.0956 68.936C64.9836 68.8187 64.9276 68.6773 64.9276 68.512C64.9276 68.3413 64.9836 68.2 65.0956 68.088C65.2076 67.976 65.3462 67.92 65.5116 67.92ZM69.8237 70.64C69.525 70.6187 69.2664 70.664 69.0477 70.776C68.829 70.8827 68.661 71.0373 68.5437 71.24C68.4264 71.4427 68.3677 71.6747 68.3677 71.936L68.0877 71.904C68.0877 71.4293 68.157 71.0293 68.2957 70.704C68.4344 70.3733 68.6344 70.1227 68.8957 69.952C69.157 69.7813 69.4664 69.696 69.8237 69.696V70.64ZM67.3277 69.736H68.3677V74H67.3277V69.736ZM75.2305 69.696C75.6358 69.696 75.9905 69.7867 76.2945 69.968C76.5985 70.1493 76.8332 70.4053 76.9985 70.736C77.1692 71.0613 77.2545 71.4427 77.2545 71.88C77.2545 72.3067 77.1718 72.6827 77.0065 73.008C76.8412 73.328 76.6065 73.5813 76.3025 73.768C76.0038 73.9493 75.6518 74.04 75.2465 74.04C74.8678 74.04 74.5425 73.9547 74.2705 73.784C73.9985 73.608 73.7905 73.3573 73.6465 73.032C73.5025 72.7067 73.4305 72.3227 73.4305 71.88C73.4305 71.4213 73.4998 71.0293 73.6385 70.704C73.7825 70.3787 73.9905 70.1307 74.2625 69.96C74.5345 69.784 74.8572 69.696 75.2305 69.696ZM74.9985 70.52C74.7638 70.52 74.5532 70.5787 74.3665 70.696C74.1852 70.808 74.0438 70.9653 73.9425 71.168C73.8412 71.3653 73.7905 71.5947 73.7905 71.856C73.7905 72.1173 73.8412 72.3493 73.9425 72.552C74.0438 72.7547 74.1852 72.912 74.3665 73.024C74.5532 73.136 74.7638 73.192 74.9985 73.192C75.2385 73.192 75.4465 73.136 75.6225 73.024C75.8038 72.9067 75.9452 72.7493 76.0465 72.552C76.1478 72.3493 76.1985 72.1173 76.1985 71.856C76.1985 71.5947 76.1478 71.3653 76.0465 71.168C75.9452 70.9653 75.8038 70.808 75.6225 70.696C75.4465 70.5787 75.2385 70.52 74.9985 70.52ZM72.7505 69.736H73.7905V75.552H72.7505V69.736ZM80.6518 70.64C80.3531 70.6187 80.0945 70.664 79.8758 70.776C79.6571 70.8827 79.4891 71.0373 79.3718 71.24C79.2545 71.4427 79.1958 71.6747 79.1958 71.936L78.9158 71.904C78.9158 71.4293 78.9851 71.0293 79.1238 70.704C79.2625 70.3733 79.4625 70.1227 79.7238 69.952C79.9851 69.7813 80.2945 69.696 80.6518 69.696V70.64ZM78.1558 69.736H79.1958V74H78.1558V69.736ZM84.2704 71.544C84.2597 71.32 84.209 71.1307 84.1184 70.976C84.0277 70.816 83.8997 70.6933 83.7344 70.608C83.5744 70.5173 83.3904 70.472 83.1824 70.472C82.9424 70.472 82.7344 70.528 82.5584 70.64C82.3824 70.752 82.2437 70.9093 82.1424 71.112C82.0464 71.3147 81.9984 71.5493 81.9984 71.816C81.9984 72.1093 82.0517 72.3627 82.1584 72.576C82.2704 72.7893 82.4224 72.9547 82.6144 73.072C82.8064 73.184 83.0277 73.24 83.2784 73.24C83.7317 73.24 84.1184 73.0773 84.4384 72.752L84.9904 73.304C84.777 73.5387 84.5184 73.72 84.2144 73.848C83.9104 73.976 83.5717 74.04 83.1984 74.04C82.7504 74.04 82.361 73.9493 82.0304 73.768C81.705 73.5813 81.449 73.328 81.2624 73.008C81.081 72.6827 80.9904 72.304 80.9904 71.872C80.9904 71.44 81.081 71.0613 81.2624 70.736C81.449 70.4107 81.705 70.1573 82.0304 69.976C82.361 69.7947 82.7397 69.7013 83.1664 69.696C83.673 69.696 84.081 69.8 84.3904 70.008C84.705 70.216 84.929 70.5093 85.0624 70.888C85.1957 71.2613 85.2437 71.7067 85.2064 72.224H81.8464V71.544H84.2704ZM86.2619 69.488C86.2619 69.1573 86.3339 68.8827 86.4779 68.664C86.6219 68.4453 86.8085 68.2827 87.0379 68.176C87.2672 68.0693 87.5152 68.016 87.7819 68.016C87.9152 68.016 88.0485 68.0347 88.1819 68.072C88.3205 68.104 88.4485 68.1493 88.5659 68.208L88.3819 69C88.3019 68.968 88.2165 68.9387 88.1259 68.912C88.0352 68.8853 87.9445 68.872 87.8539 68.872C87.7579 68.8667 87.6672 68.8853 87.5819 68.928C87.4965 68.9653 87.4272 69.0267 87.3739 69.112C87.3259 69.192 87.3019 69.2987 87.3019 69.432V74H86.2619V69.488ZM85.7019 69.896H88.3739V70.624H85.7019V69.896ZM91.8016 71.544C91.791 71.32 91.7403 71.1307 91.6496 70.976C91.559 70.816 91.431 70.6933 91.2656 70.608C91.1056 70.5173 90.9216 70.472 90.7136 70.472C90.4736 70.472 90.2656 70.528 90.0896 70.64C89.9136 70.752 89.775 70.9093 89.6736 71.112C89.5776 71.3147 89.5296 71.5493 89.5296 71.816C89.5296 72.1093 89.583 72.3627 89.6896 72.576C89.8016 72.7893 89.9536 72.9547 90.1456 73.072C90.3376 73.184 90.559 73.24 90.8096 73.24C91.263 73.24 91.6496 73.0773 91.9696 72.752L92.5216 73.304C92.3083 73.5387 92.0496 73.72 91.7456 73.848C91.4416 73.976 91.103 74.04 90.7296 74.04C90.2816 74.04 89.8923 73.9493 89.5616 73.768C89.2363 73.5813 88.9803 73.328 88.7936 73.008C88.6123 72.6827 88.5216 72.304 88.5216 71.872C88.5216 71.44 88.6123 71.0613 88.7936 70.736C88.9803 70.4107 89.2363 70.1573 89.5616 69.976C89.8923 69.7947 90.271 69.7013 90.6976 69.696C91.2043 69.696 91.6123 69.8 91.9216 70.008C92.2363 70.216 92.4603 70.5093 92.5936 70.888C92.727 71.2613 92.775 71.7067 92.7376 72.224H89.3776V71.544H91.8016ZM96.144 70.64C95.8453 70.6187 95.5867 70.664 95.368 70.776C95.1493 70.8827 94.9813 71.0373 94.864 71.24C94.7467 71.4427 94.688 71.6747 94.688 71.936L94.408 71.904C94.408 71.4293 94.4773 71.0293 94.616 70.704C94.7547 70.3733 94.9547 70.1227 95.216 69.952C95.4773 69.7813 95.7867 69.696 96.144 69.696V70.64ZM93.648 69.736H94.688V74H93.648V69.736ZM99.7626 71.544C99.7519 71.32 99.7012 71.1307 99.6106 70.976C99.5199 70.816 99.3919 70.6933 99.2266 70.608C99.0666 70.5173 98.8826 70.472 98.6746 70.472C98.4346 70.472 98.2266 70.528 98.0506 70.64C97.8746 70.752 97.7359 70.9093 97.6346 71.112C97.5386 71.3147 97.4906 71.5493 97.4906 71.816C97.4906 72.1093 97.5439 72.3627 97.6506 72.576C97.7626 72.7893 97.9146 72.9547 98.1066 73.072C98.2986 73.184 98.5199 73.24 98.7706 73.24C99.2239 73.24 99.6106 73.0773 99.9306 72.752L100.483 73.304C100.269 73.5387 100.011 73.72 99.7066 73.848C99.4026 73.976 99.0639 74.04 98.6906 74.04C98.2426 74.04 97.8532 73.9493 97.5226 73.768C97.1972 73.5813 96.9412 73.328 96.7546 73.008C96.5732 72.6827 96.4826 72.304 96.4826 71.872C96.4826 71.44 96.5732 71.0613 96.7546 70.736C96.9412 70.4107 97.1972 70.1573 97.5226 69.976C97.8532 69.7947 98.2319 69.7013 98.6586 69.696C99.1652 69.696 99.5732 69.8 99.8826 70.008C100.197 70.216 100.421 70.5093 100.555 70.888C100.688 71.2613 100.736 71.7067 100.699 72.224H97.3386V71.544H99.7626ZM104.721 71.616C104.721 71.3067 104.636 71.064 104.465 70.888C104.3 70.712 104.068 70.624 103.769 70.624C103.422 70.624 103.148 70.7467 102.945 70.992C102.748 71.232 102.649 71.536 102.649 71.904H102.369C102.369 71.3813 102.441 70.96 102.585 70.64C102.734 70.3147 102.945 70.0773 103.217 69.928C103.494 69.7733 103.817 69.696 104.185 69.696C104.516 69.696 104.798 69.7627 105.033 69.896C105.268 70.0293 105.449 70.2187 105.577 70.464C105.705 70.704 105.769 70.9947 105.769 71.336V74H104.721V71.616ZM101.609 69.736H102.649V74H101.609V69.736ZM109.881 71.032C109.748 70.8827 109.585 70.768 109.393 70.688C109.206 70.6027 108.996 70.56 108.761 70.56C108.532 70.56 108.329 70.616 108.153 70.728C107.977 70.8347 107.838 70.9867 107.737 71.184C107.641 71.3813 107.593 71.6107 107.593 71.872C107.593 72.1333 107.641 72.3627 107.737 72.56C107.838 72.7573 107.977 72.912 108.153 73.024C108.329 73.136 108.532 73.192 108.761 73.192C109.006 73.192 109.228 73.1493 109.425 73.064C109.622 72.9787 109.785 72.8507 109.913 72.68L110.561 73.208C110.374 73.4693 110.124 73.6747 109.809 73.824C109.494 73.968 109.129 74.04 108.713 74.04C108.286 74.04 107.91 73.9493 107.585 73.768C107.26 73.5813 107.004 73.328 106.817 73.008C106.636 72.6827 106.545 72.304 106.545 71.872C106.545 71.44 106.636 71.0613 106.817 70.736C107.004 70.4107 107.26 70.1573 107.585 69.976C107.91 69.7893 108.286 69.696 108.713 69.696C109.113 69.696 109.465 69.7627 109.769 69.896C110.073 70.024 110.324 70.2053 110.521 70.44L109.881 71.032ZM114.184 71.544C114.174 71.32 114.123 71.1307 114.032 70.976C113.942 70.816 113.814 70.6933 113.648 70.608C113.488 70.5173 113.304 70.472 113.096 70.472C112.856 70.472 112.648 70.528 112.472 70.64C112.296 70.752 112.158 70.9093 112.056 71.112C111.96 71.3147 111.912 71.5493 111.912 71.816C111.912 72.1093 111.966 72.3627 112.072 72.576C112.184 72.7893 112.336 72.9547 112.528 73.072C112.72 73.184 112.942 73.24 113.192 73.24C113.646 73.24 114.032 73.0773 114.352 72.752L114.904 73.304C114.691 73.5387 114.432 73.72 114.128 73.848C113.824 73.976 113.486 74.04 113.112 74.04C112.664 74.04 112.275 73.9493 111.944 73.768C111.619 73.5813 111.363 73.328 111.176 73.008C110.995 72.6827 110.904 72.304 110.904 71.872C110.904 71.44 110.995 71.0613 111.176 70.736C111.363 70.4107 111.619 70.1573 111.944 69.976C112.275 69.7947 112.654 69.7013 113.08 69.696C113.587 69.696 113.995 69.8 114.304 70.008C114.619 70.216 114.843 70.5093 114.976 70.888C115.11 71.2613 115.158 71.7067 115.12 72.224H111.76V71.544H114.184ZM118.567 70.848C118.359 70.7253 118.143 70.632 117.919 70.568C117.695 70.4987 117.492 70.464 117.311 70.464C117.14 70.464 117.001 70.496 116.895 70.56C116.788 70.6187 116.735 70.72 116.735 70.864C116.735 70.9867 116.788 71.0853 116.895 71.16C117.007 71.2347 117.148 71.2987 117.319 71.352C117.489 71.4 117.671 71.4533 117.863 71.512C118.055 71.5707 118.236 71.648 118.407 71.744C118.583 71.84 118.724 71.968 118.831 72.128C118.943 72.288 118.999 72.4987 118.999 72.76C118.999 73.048 118.921 73.288 118.767 73.48C118.612 73.6667 118.407 73.808 118.151 73.904C117.895 73.9947 117.615 74.04 117.311 74.04C116.991 74.04 116.671 73.9893 116.351 73.888C116.036 73.7867 115.767 73.6373 115.543 73.44L115.903 72.744C116.1 72.9147 116.332 73.048 116.599 73.144C116.871 73.2347 117.121 73.28 117.351 73.28C117.473 73.28 117.583 73.264 117.679 73.232C117.775 73.2 117.849 73.1547 117.903 73.096C117.956 73.032 117.983 72.9493 117.983 72.848C117.983 72.7093 117.929 72.6027 117.823 72.528C117.716 72.448 117.577 72.3813 117.407 72.328C117.241 72.2693 117.063 72.2133 116.871 72.16C116.679 72.1013 116.497 72.0267 116.327 71.936C116.161 71.84 116.025 71.7147 115.919 71.56C115.812 71.4053 115.759 71.2 115.759 70.944C115.759 70.656 115.833 70.4187 115.983 70.232C116.132 70.0453 116.329 69.9093 116.575 69.824C116.82 69.7333 117.087 69.688 117.375 69.688C117.652 69.688 117.929 69.728 118.207 69.808C118.484 69.8827 118.729 69.9893 118.943 70.128L118.567 70.848Z" fill="black"/>
</g>
<defs>
<filter id="filter0_d_1272_1931" x="0.5" y="-0.000244141" width="220" height="96.0002" filterUnits="userSpaceOnUse" color-interpolation-filters="sRGB">
<feFlood flood-opacity="0" result="BackgroundImageFix"/>
<feColorMatrix in="SourceAlpha" type="matrix" values="0 0 0 0 0 0 0 0 0 0 0 0 0 0 0 0 0 0 127 0" result="hardAlpha"/>
<feOffset dy="4"/>
<feGaussianBlur stdDeviation="2"/>
<feComposite in2="hardAlpha" operator="out"/>
<feColorMatrix type="matrix" values="0 0 0 0 0.698039 0 0 0 0 0.709804 0 0 0 0 0.717647 0 0 0 0.25 0"/>
<feBlend mode="normal" in2="BackgroundImageFix" result="effect1_dropShadow_1272_1931"/>
<feBlend mode="normal" in="SourceGraphic" in2="effect1_dropShadow_1272_1931" result="shape"/>
</filter>
</defs>
</svg>
