<svg width="235" height="86" viewBox="0 0 235 86" fill="none" xmlns="http://www.w3.org/2000/svg">
<g filter="url(#filter0_d_1272_2029)">
<path d="M230.5 53.0001C230.5 66.8072 219.307 78.0001 205.5 78.0001L29.5 78C15.6929 78 4.5 66.8072 4.5 53L4.50001 -0.000233381L205.5 -0.000215809C219.307 -0.000214602 230.5 11.1927 230.5 24.9998L230.5 53.0001Z" fill="#E373A4" fill-opacity="0.7" shape-rendering="crispEdges"/>
<path d="M36.812 17.6758C36.516 17.4918 36.212 17.3398 35.9 17.2198C35.596 17.0998 35.308 17.0158 35.036 16.9678C34.764 16.9118 34.516 16.8838 34.292 16.8838C33.916 16.8838 33.612 16.9558 33.38 17.0998C33.156 17.2438 33.044 17.4558 33.044 17.7358C33.044 17.9918 33.124 18.1998 33.284 18.3598C33.452 18.5198 33.668 18.6518 33.932 18.7558C34.204 18.8598 34.5 18.9598 34.82 19.0558C35.14 19.1518 35.46 19.2598 35.78 19.3798C36.1 19.4918 36.392 19.6398 36.656 19.8238C36.928 20.0078 37.144 20.2438 37.304 20.5318C37.464 20.8198 37.544 21.1798 37.544 21.6118C37.544 22.1318 37.404 22.5758 37.124 22.9438C36.844 23.3118 36.46 23.5958 35.972 23.7958C35.492 23.9958 34.944 24.0958 34.328 24.0958C33.88 24.0958 33.44 24.0398 33.008 23.9278C32.584 23.8078 32.18 23.6478 31.796 23.4478C31.42 23.2478 31.08 23.0158 30.776 22.7518L31.448 21.4438C31.736 21.7078 32.048 21.9358 32.384 22.1278C32.72 22.3118 33.056 22.4558 33.392 22.5598C33.736 22.6558 34.056 22.7038 34.352 22.7038C34.808 22.7038 35.16 22.6158 35.408 22.4398C35.664 22.2638 35.792 22.0158 35.792 21.6958C35.792 21.4318 35.708 21.2198 35.54 21.0598C35.38 20.8998 35.168 20.7678 34.904 20.6638C34.64 20.5518 34.344 20.4558 34.016 20.3758C33.696 20.2878 33.376 20.1878 33.056 20.0758C32.736 19.9558 32.44 19.8078 32.168 19.6318C31.904 19.4478 31.688 19.2158 31.52 18.9358C31.36 18.6558 31.28 18.2998 31.28 17.8678C31.28 17.3798 31.412 16.9598 31.676 16.6078C31.94 16.2478 32.304 15.9718 32.768 15.7798C33.24 15.5798 33.792 15.4798 34.424 15.4798C34.984 15.4798 35.528 15.5598 36.056 15.7198C36.592 15.8798 37.06 16.0918 37.46 16.3558L36.812 17.6758ZM41.1672 21.1798C40.7592 21.1798 40.4552 21.2438 40.2552 21.3718C40.0552 21.4998 39.9552 21.7118 39.9552 22.0078C39.9552 22.2798 40.0552 22.4998 40.2552 22.6678C40.4632 22.8358 40.7432 22.9198 41.0952 22.9198C41.4072 22.9198 41.6872 22.8678 41.9352 22.7638C42.1912 22.6518 42.3912 22.5038 42.5352 22.3198C42.6872 22.1278 42.7752 21.9158 42.7992 21.6838L43.0632 22.7998C42.8712 23.2158 42.5752 23.5318 42.1752 23.7478C41.7752 23.9638 41.2912 24.0718 40.7232 24.0718C40.2672 24.0718 39.8712 23.9838 39.5352 23.8078C39.1992 23.6318 38.9392 23.3958 38.7552 23.0998C38.5712 22.7958 38.4792 22.4558 38.4792 22.0798C38.4792 21.4878 38.6912 21.0238 39.1152 20.6878C39.5392 20.3438 40.1392 20.1678 40.9152 20.1598H42.9672V21.1798H41.1672ZM42.7872 19.9678C42.7872 19.5838 42.6632 19.2838 42.4152 19.0678C42.1752 18.8438 41.8152 18.7318 41.3352 18.7318C41.0392 18.7318 40.7272 18.7878 40.3992 18.8998C40.0792 19.0038 39.7552 19.1558 39.4272 19.3558L38.8632 18.3478C39.1672 18.1638 39.4592 18.0158 39.7392 17.9038C40.0192 17.7838 40.3112 17.6958 40.6152 17.6398C40.9272 17.5758 41.2832 17.5438 41.6832 17.5438C42.5232 17.5438 43.1712 17.7438 43.6272 18.1438C44.0832 18.5438 44.3152 19.0958 44.3232 19.7998L44.3352 23.9998H42.7992L42.7872 19.9678ZM47.8973 21.9118C47.8973 22.2318 47.9573 22.4518 48.0773 22.5718C48.1973 22.6918 48.3613 22.7518 48.5693 22.7518C48.6973 22.7518 48.8373 22.7318 48.9893 22.6918C49.1413 22.6438 49.3053 22.5718 49.4813 22.4758L49.8413 23.6038C49.6013 23.7478 49.3413 23.8638 49.0613 23.9518C48.7893 24.0318 48.5133 24.0718 48.2333 24.0718C47.8893 24.0718 47.5733 24.0078 47.2853 23.8798C46.9973 23.7438 46.7693 23.5358 46.6013 23.2558C46.4333 22.9678 46.3493 22.6078 46.3493 22.1758V16.0918H47.8973V21.9118ZM45.4493 17.8438H49.7333V18.9358H45.4493V17.8438ZM51.0658 17.6038H52.6258V23.9998H51.0658V17.6038ZM51.8338 14.8798C52.0898 14.8798 52.3018 14.9638 52.4698 15.1318C52.6378 15.2998 52.7218 15.5118 52.7218 15.7678C52.7218 16.0158 52.6378 16.2278 52.4698 16.4038C52.3018 16.5718 52.0898 16.6558 51.8338 16.6558C51.5858 16.6558 51.3778 16.5718 51.2098 16.4038C51.0418 16.2278 50.9578 16.0158 50.9578 15.7678C50.9578 15.5118 51.0418 15.2998 51.2098 15.1318C51.3778 14.9638 51.5858 14.8798 51.8338 14.8798ZM58.3619 19.2718C58.0499 19.0878 57.7259 18.9478 57.3899 18.8518C57.0539 18.7478 56.7499 18.6958 56.4779 18.6958C56.2219 18.6958 56.0139 18.7438 55.8539 18.8398C55.6939 18.9278 55.6139 19.0798 55.6139 19.2958C55.6139 19.4798 55.6939 19.6278 55.8539 19.7398C56.0219 19.8518 56.2339 19.9478 56.4899 20.0278C56.7459 20.0998 57.0179 20.1798 57.3059 20.2678C57.5939 20.3558 57.8659 20.4718 58.1219 20.6158C58.3859 20.7598 58.5979 20.9518 58.7579 21.1918C58.9259 21.4318 59.0099 21.7478 59.0099 22.1398C59.0099 22.5718 58.8939 22.9318 58.6619 23.2198C58.4299 23.4998 58.1219 23.7118 57.7379 23.8558C57.3539 23.9918 56.9339 24.0598 56.4779 24.0598C55.9979 24.0598 55.5179 23.9838 55.0379 23.8318C54.5659 23.6798 54.1619 23.4558 53.8259 23.1598L54.3659 22.1158C54.6619 22.3718 55.0099 22.5718 55.4099 22.7158C55.8179 22.8518 56.1939 22.9198 56.5379 22.9198C56.7219 22.9198 56.8859 22.8958 57.0299 22.8478C57.1739 22.7998 57.2859 22.7318 57.3659 22.6438C57.4459 22.5478 57.4859 22.4238 57.4859 22.2718C57.4859 22.0638 57.4059 21.9038 57.2459 21.7918C57.0859 21.6718 56.8779 21.5718 56.6219 21.4918C56.3739 21.4038 56.1059 21.3198 55.8179 21.2398C55.5299 21.1518 55.2579 21.0398 55.0019 20.9038C54.7539 20.7598 54.5499 20.5718 54.3899 20.3398C54.2299 20.1078 54.1499 19.7998 54.1499 19.4158C54.1499 18.9838 54.2619 18.6278 54.4859 18.3478C54.7099 18.0678 55.0059 17.8638 55.3739 17.7358C55.7419 17.5998 56.1419 17.5318 56.5739 17.5318C56.9899 17.5318 57.4059 17.5918 57.8219 17.7118C58.2379 17.8238 58.6059 17.9838 58.9259 18.1918L58.3619 19.2718ZM60.635 17.2318C60.635 16.7358 60.743 16.3238 60.959 15.9958C61.175 15.6678 61.455 15.4238 61.799 15.2638C62.143 15.1038 62.515 15.0238 62.915 15.0238C63.115 15.0238 63.315 15.0518 63.515 15.1078C63.723 15.1558 63.915 15.2238 64.091 15.3118L63.815 16.4998C63.695 16.4518 63.567 16.4078 63.431 16.3678C63.295 16.3278 63.159 16.3078 63.023 16.3078C62.879 16.2998 62.743 16.3278 62.615 16.3918C62.487 16.4478 62.383 16.5398 62.303 16.6678C62.231 16.7878 62.195 16.9478 62.195 17.1478V23.9998H60.635V17.2318ZM59.795 17.8438H63.803V18.9358H59.795V17.8438ZM67.8411 24.8398C67.6331 25.3518 67.3451 25.7398 66.9771 26.0038C66.6091 26.2678 66.1691 26.3998 65.6571 26.3998C65.3451 26.3998 65.0611 26.3518 64.8051 26.2558C64.5571 26.1598 64.3091 26.0198 64.0611 25.8358L64.7331 24.7078C65.0211 24.9238 65.2971 25.0318 65.5611 25.0318C65.7691 25.0318 65.9491 24.9758 66.1011 24.8638C66.2611 24.7518 66.3931 24.5798 66.4971 24.3478L66.6891 23.9038L64.0371 17.6038H65.6571L67.4811 22.3558L69.1491 17.6038H70.7211L67.8411 24.8398ZM77.0148 21.1798C76.6068 21.1798 76.3028 21.2438 76.1028 21.3718C75.9028 21.4998 75.8028 21.7118 75.8028 22.0078C75.8028 22.2798 75.9028 22.4998 76.1028 22.6678C76.3108 22.8358 76.5908 22.9198 76.9428 22.9198C77.2548 22.9198 77.5348 22.8678 77.7828 22.7638C78.0388 22.6518 78.2388 22.5038 78.3828 22.3198C78.5348 22.1278 78.6228 21.9158 78.6468 21.6838L78.9108 22.7998C78.7188 23.2158 78.4228 23.5318 78.0228 23.7478C77.6228 23.9638 77.1388 24.0718 76.5708 24.0718C76.1148 24.0718 75.7188 23.9838 75.3828 23.8078C75.0468 23.6318 74.7868 23.3958 74.6028 23.0998C74.4188 22.7958 74.3268 22.4558 74.3268 22.0798C74.3268 21.4878 74.5388 21.0238 74.9628 20.6878C75.3868 20.3438 75.9868 20.1678 76.7628 20.1598H78.8148V21.1798H77.0148ZM78.6348 19.9678C78.6348 19.5838 78.5108 19.2838 78.2628 19.0678C78.0228 18.8438 77.6628 18.7318 77.1828 18.7318C76.8868 18.7318 76.5748 18.7878 76.2468 18.8998C75.9268 19.0038 75.6028 19.1558 75.2748 19.3558L74.7108 18.3478C75.0148 18.1638 75.3068 18.0158 75.5868 17.9038C75.8668 17.7838 76.1588 17.6958 76.4628 17.6398C76.7748 17.5758 77.1308 17.5438 77.5308 17.5438C78.3708 17.5438 79.0188 17.7438 79.4748 18.1438C79.9308 18.5438 80.1628 19.0958 80.1708 19.7998L80.1828 23.9998H78.6468L78.6348 19.9678ZM86.6009 20.4238C86.6009 19.9598 86.4729 19.5958 86.2169 19.3318C85.9689 19.0678 85.6209 18.9358 85.1729 18.9358C84.6529 18.9358 84.2409 19.1198 83.9369 19.4878C83.6409 19.8478 83.4929 20.3038 83.4929 20.8558H83.0729C83.0729 20.0718 83.1809 19.4398 83.3969 18.9598C83.6209 18.4718 83.9369 18.1158 84.3449 17.8918C84.7609 17.6598 85.2449 17.5438 85.7969 17.5438C86.2929 17.5438 86.7169 17.6438 87.0689 17.8438C87.4209 18.0438 87.6929 18.3278 87.8849 18.6958C88.0769 19.0558 88.1729 19.4918 88.1729 20.0038V23.9998H86.6009V20.4238ZM81.9329 17.6038H83.4929V23.9998H81.9329V17.6038ZM92.3611 17.5318C92.9451 17.5318 93.4411 17.6638 93.8491 17.9278C94.2571 18.1918 94.5691 18.5678 94.7851 19.0558C95.0011 19.5358 95.1051 20.1158 95.0971 20.7958C95.1051 21.4678 95.0011 22.0518 94.7851 22.5478C94.5771 23.0358 94.2691 23.4118 93.8611 23.6758C93.4531 23.9318 92.9651 24.0598 92.3971 24.0598C91.7891 24.0598 91.2531 23.9238 90.7891 23.6518C90.3331 23.3718 89.9771 22.9838 89.7211 22.4878C89.4651 21.9918 89.3371 21.4238 89.3371 20.7838C89.3371 20.1358 89.4651 19.5678 89.7211 19.0798C89.9771 18.5918 90.3291 18.2118 90.7771 17.9398C91.2331 17.6678 91.7611 17.5318 92.3611 17.5318ZM92.7331 18.7918C92.3811 18.7918 92.0651 18.8798 91.7851 19.0558C91.5131 19.2318 91.3011 19.4718 91.1491 19.7758C90.9971 20.0798 90.9171 20.4278 90.9091 20.8198C90.9171 21.2118 90.9971 21.5598 91.1491 21.8638C91.3011 22.1678 91.5131 22.4078 91.7851 22.5838C92.0651 22.7518 92.3811 22.8358 92.7331 22.8358C93.0931 22.8358 93.4091 22.7518 93.6811 22.5838C93.9611 22.4078 94.1771 22.1678 94.3291 21.8638C94.4811 21.5598 94.5571 21.2118 94.5571 20.8198C94.5571 20.4198 94.4811 20.0718 94.3291 19.7758C94.1771 19.4718 93.9611 19.2318 93.6811 19.0558C93.4091 18.8798 93.0931 18.7918 92.7331 18.7918ZM94.5571 15.0958H96.1171V23.9998H94.5571V15.0958ZM103.787 17.5318C104.371 17.5318 104.867 17.6638 105.275 17.9278C105.683 18.1918 105.995 18.5678 106.211 19.0558C106.427 19.5358 106.531 20.1158 106.523 20.7958C106.531 21.4678 106.427 22.0518 106.211 22.5478C106.003 23.0358 105.695 23.4118 105.287 23.6758C104.879 23.9318 104.391 24.0598 103.823 24.0598C103.215 24.0598 102.679 23.9238 102.215 23.6518C101.759 23.3718 101.403 22.9838 101.147 22.4878C100.891 21.9918 100.763 21.4238 100.763 20.7838C100.763 20.1358 100.891 19.5678 101.147 19.0798C101.403 18.5918 101.755 18.2118 102.203 17.9398C102.659 17.6678 103.187 17.5318 103.787 17.5318ZM104.159 18.7918C103.807 18.7918 103.491 18.8798 103.211 19.0558C102.939 19.2318 102.727 19.4718 102.575 19.7758C102.423 20.0798 102.343 20.4278 102.335 20.8198C102.343 21.2118 102.423 21.5598 102.575 21.8638C102.727 22.1678 102.939 22.4078 103.211 22.5838C103.491 22.7518 103.807 22.8358 104.159 22.8358C104.519 22.8358 104.835 22.7518 105.107 22.5838C105.387 22.4078 105.603 22.1678 105.755 21.8638C105.907 21.5598 105.983 21.2118 105.983 20.8198C105.983 20.4198 105.907 20.0718 105.755 19.7758C105.603 19.4718 105.387 19.2318 105.107 19.0558C104.835 18.8798 104.519 18.7918 104.159 18.7918ZM105.983 17.6038H107.543V26.3278H105.983V17.6038ZM110.91 21.1678C110.91 21.6318 111.03 21.9998 111.27 22.2718C111.518 22.5358 111.858 22.6678 112.29 22.6678C112.794 22.6518 113.186 22.4638 113.466 22.1038C113.754 21.7438 113.898 21.2918 113.898 20.7478H114.306C114.306 21.5238 114.198 22.1558 113.982 22.6438C113.766 23.1238 113.462 23.4798 113.07 23.7118C112.678 23.9358 112.21 24.0518 111.666 24.0598C111.186 24.0598 110.77 23.9598 110.418 23.7598C110.074 23.5598 109.806 23.2758 109.614 22.9078C109.43 22.5318 109.338 22.0918 109.338 21.5878V17.6038H110.91V21.1678ZM113.898 17.6038H115.47V23.9998H113.898V17.6038ZM117.417 17.6038H118.977V23.9998H117.417V17.6038ZM118.185 14.8798C118.441 14.8798 118.653 14.9638 118.821 15.1318C118.989 15.2998 119.073 15.5118 119.073 15.7678C119.073 16.0158 118.989 16.2278 118.821 16.4038C118.653 16.5718 118.441 16.6558 118.185 16.6558C117.937 16.6558 117.729 16.5718 117.561 16.4038C117.393 16.2278 117.309 16.0158 117.309 15.7678C117.309 15.5118 117.393 15.2998 117.561 15.1318C117.729 14.9638 117.937 14.8798 118.185 14.8798ZM125.326 19.5478C125.126 19.3238 124.882 19.1518 124.594 19.0318C124.314 18.9038 123.998 18.8398 123.646 18.8398C123.302 18.8398 122.998 18.9238 122.734 19.0918C122.47 19.2518 122.262 19.4798 122.11 19.7758C121.966 20.0718 121.894 20.4158 121.894 20.8078C121.894 21.1998 121.966 21.5438 122.11 21.8398C122.262 22.1358 122.47 22.3678 122.734 22.5358C122.998 22.7038 123.302 22.7878 123.646 22.7878C124.014 22.7878 124.346 22.7238 124.642 22.5958C124.938 22.4678 125.182 22.2758 125.374 22.0198L126.346 22.8118C126.066 23.2038 125.69 23.5118 125.218 23.7358C124.746 23.9518 124.198 24.0598 123.574 24.0598C122.934 24.0598 122.37 23.9238 121.882 23.6518C121.394 23.3718 121.01 22.9918 120.729 22.5118C120.458 22.0238 120.322 21.4558 120.322 20.8078C120.322 20.1598 120.458 19.5918 120.729 19.1038C121.01 18.6158 121.394 18.2358 121.882 17.9638C122.37 17.6838 122.934 17.5438 123.574 17.5438C124.174 17.5438 124.702 17.6438 125.158 17.8438C125.614 18.0358 125.99 18.3078 126.286 18.6598L125.326 19.5478ZM127.743 15.0958H129.303V23.9998H127.743V15.0958ZM131.943 17.6038H133.731L129.195 22.3198V20.4598L131.943 17.6038ZM131.235 19.8598L133.887 23.9998H132.027L130.071 20.8078L131.235 19.8598ZM138.183 17.6038H139.743V23.9998H138.183V17.6038ZM138.951 14.8798C139.207 14.8798 139.419 14.9638 139.587 15.1318C139.755 15.2998 139.839 15.5118 139.839 15.7678C139.839 16.0158 139.755 16.2278 139.587 16.4038C139.419 16.5718 139.207 16.6558 138.951 16.6558C138.703 16.6558 138.495 16.5718 138.327 16.4038C138.159 16.2278 138.075 16.0158 138.075 15.7678C138.075 15.5118 138.159 15.2998 138.327 15.1318C138.495 14.9638 138.703 14.8798 138.951 14.8798ZM146.343 20.4238C146.343 19.9598 146.215 19.5958 145.959 19.3318C145.711 19.0678 145.363 18.9358 144.915 18.9358C144.395 18.9358 143.983 19.1198 143.679 19.4878C143.383 19.8478 143.235 20.3038 143.235 20.8558H142.815C142.815 20.0718 142.923 19.4398 143.139 18.9598C143.363 18.4718 143.679 18.1158 144.087 17.8918C144.503 17.6598 144.987 17.5438 145.539 17.5438C146.035 17.5438 146.459 17.6438 146.811 17.8438C147.163 18.0438 147.435 18.3278 147.627 18.6958C147.819 19.0558 147.915 19.4918 147.915 20.0038V23.9998H146.343V20.4238ZM141.675 17.6038H143.235V23.9998H141.675V17.6038ZM154.083 19.5478C153.883 19.3238 153.639 19.1518 153.351 19.0318C153.071 18.9038 152.755 18.8398 152.403 18.8398C152.059 18.8398 151.755 18.9238 151.491 19.0918C151.227 19.2518 151.019 19.4798 150.867 19.7758C150.723 20.0718 150.651 20.4158 150.651 20.8078C150.651 21.1998 150.723 21.5438 150.867 21.8398C151.019 22.1358 151.227 22.3678 151.491 22.5358C151.755 22.7038 152.059 22.7878 152.403 22.7878C152.771 22.7878 153.103 22.7238 153.399 22.5958C153.695 22.4678 153.939 22.2758 154.131 22.0198L155.103 22.8118C154.823 23.2038 154.447 23.5118 153.975 23.7358C153.503 23.9518 152.955 24.0598 152.331 24.0598C151.691 24.0598 151.127 23.9238 150.639 23.6518C150.151 23.3718 149.767 22.9918 149.487 22.5118C149.215 22.0238 149.079 21.4558 149.079 20.8078C149.079 20.1598 149.215 19.5918 149.487 19.1038C149.767 18.6158 150.151 18.2358 150.639 17.9638C151.127 17.6838 151.691 17.5438 152.331 17.5438C152.931 17.5438 153.459 17.6438 153.915 17.8438C154.371 18.0358 154.747 18.3078 155.043 18.6598L154.083 19.5478ZM156.441 17.6038H158.001V23.9998H156.441V17.6038ZM157.209 14.8798C157.465 14.8798 157.677 14.9638 157.845 15.1318C158.013 15.2998 158.097 15.5118 158.097 15.7678C158.097 16.0158 158.013 16.2278 157.845 16.4038C157.677 16.5718 157.465 16.6558 157.209 16.6558C156.961 16.6558 156.753 16.5718 156.585 16.4038C156.417 16.2278 156.333 16.0158 156.333 15.7678C156.333 15.5118 156.417 15.2998 156.585 15.1318C156.753 14.9638 156.961 14.8798 157.209 14.8798ZM162.369 17.5318C162.953 17.5318 163.449 17.6638 163.857 17.9278C164.265 18.1918 164.577 18.5678 164.793 19.0558C165.009 19.5358 165.113 20.1158 165.105 20.7958C165.113 21.4678 165.009 22.0518 164.793 22.5478C164.585 23.0358 164.277 23.4118 163.869 23.6758C163.461 23.9318 162.973 24.0598 162.405 24.0598C161.797 24.0598 161.261 23.9238 160.797 23.6518C160.341 23.3718 159.985 22.9838 159.729 22.4878C159.473 21.9918 159.345 21.4238 159.345 20.7838C159.345 20.1358 159.473 19.5678 159.729 19.0798C159.985 18.5918 160.337 18.2118 160.785 17.9398C161.241 17.6678 161.769 17.5318 162.369 17.5318ZM162.741 18.7918C162.389 18.7918 162.073 18.8798 161.793 19.0558C161.521 19.2318 161.309 19.4718 161.157 19.7758C161.005 20.0798 160.925 20.4278 160.917 20.8198C160.925 21.2118 161.005 21.5598 161.157 21.8638C161.309 22.1678 161.521 22.4078 161.793 22.5838C162.073 22.7518 162.389 22.8358 162.741 22.8358C163.101 22.8358 163.417 22.7518 163.689 22.5838C163.969 22.4078 164.185 22.1678 164.337 21.8638C164.489 21.5598 164.565 21.2118 164.565 20.8198C164.565 20.4198 164.489 20.0718 164.337 19.7758C164.185 19.4718 163.969 19.2318 163.689 19.0558C163.417 18.8798 163.101 18.7918 162.741 18.7918ZM164.565 15.0958H166.125V23.9998H164.565V15.0958ZM172.456 20.3158C172.44 19.9798 172.364 19.6958 172.228 19.4638C172.092 19.2238 171.9 19.0398 171.652 18.9118C171.412 18.7758 171.136 18.7078 170.824 18.7078C170.464 18.7078 170.152 18.7918 169.888 18.9598C169.624 19.1278 169.416 19.3638 169.264 19.6678C169.12 19.9718 169.048 20.3238 169.048 20.7238C169.048 21.1638 169.128 21.5438 169.288 21.8638C169.456 22.1838 169.684 22.4318 169.972 22.6078C170.26 22.7758 170.592 22.8598 170.968 22.8598C171.648 22.8598 172.228 22.6158 172.708 22.1278L173.536 22.9558C173.216 23.3078 172.828 23.5798 172.372 23.7718C171.916 23.9638 171.408 24.0598 170.848 24.0598C170.176 24.0598 169.592 23.9238 169.096 23.6518C168.608 23.3718 168.224 22.9918 167.944 22.5118C167.672 22.0238 167.536 21.4558 167.536 20.8078C167.536 20.1598 167.672 19.5918 167.944 19.1038C168.224 18.6158 168.608 18.2358 169.096 17.9638C169.592 17.6918 170.16 17.5518 170.8 17.5438C171.56 17.5438 172.172 17.6998 172.636 18.0118C173.108 18.3238 173.444 18.7638 173.644 19.3318C173.844 19.8918 173.916 20.5598 173.86 21.3358H168.82V20.3158H172.456ZM179.894 20.4238C179.894 19.9598 179.766 19.5958 179.51 19.3318C179.262 19.0678 178.914 18.9358 178.466 18.9358C177.946 18.9358 177.534 19.1198 177.23 19.4878C176.934 19.8478 176.786 20.3038 176.786 20.8558H176.366C176.366 20.0718 176.474 19.4398 176.69 18.9598C176.914 18.4718 177.23 18.1158 177.638 17.8918C178.054 17.6598 178.538 17.5438 179.09 17.5438C179.586 17.5438 180.01 17.6438 180.362 17.8438C180.714 18.0438 180.986 18.3278 181.178 18.6958C181.37 19.0558 181.466 19.4918 181.466 20.0038V23.9998H179.894V20.4238ZM175.226 17.6038H176.786V23.9998H175.226V17.6038ZM185.03 21.9118C185.03 22.2318 185.09 22.4518 185.21 22.5718C185.33 22.6918 185.494 22.7518 185.702 22.7518C185.83 22.7518 185.97 22.7318 186.122 22.6918C186.274 22.6438 186.438 22.5718 186.614 22.4758L186.974 23.6038C186.734 23.7478 186.474 23.8638 186.194 23.9518C185.922 24.0318 185.646 24.0718 185.366 24.0718C185.022 24.0718 184.706 24.0078 184.418 23.8798C184.13 23.7438 183.902 23.5358 183.734 23.2558C183.566 22.9678 183.482 22.6078 183.482 22.1758V16.0918H185.03V21.9118ZM182.582 17.8438H186.866V18.9358H182.582V17.8438ZM192.003 19.2718C191.691 19.0878 191.367 18.9478 191.031 18.8518C190.695 18.7478 190.391 18.6958 190.119 18.6958C189.863 18.6958 189.655 18.7438 189.495 18.8398C189.335 18.9278 189.255 19.0798 189.255 19.2958C189.255 19.4798 189.335 19.6278 189.495 19.7398C189.663 19.8518 189.875 19.9478 190.131 20.0278C190.387 20.0998 190.659 20.1798 190.947 20.2678C191.235 20.3558 191.507 20.4718 191.763 20.6158C192.027 20.7598 192.239 20.9518 192.399 21.1918C192.567 21.4318 192.651 21.7478 192.651 22.1398C192.651 22.5718 192.535 22.9318 192.303 23.2198C192.071 23.4998 191.763 23.7118 191.379 23.8558C190.995 23.9918 190.575 24.0598 190.119 24.0598C189.639 24.0598 189.159 23.9838 188.679 23.8318C188.207 23.6798 187.803 23.4558 187.467 23.1598L188.007 22.1158C188.303 22.3718 188.651 22.5718 189.051 22.7158C189.459 22.8518 189.835 22.9198 190.179 22.9198C190.363 22.9198 190.527 22.8958 190.671 22.8478C190.815 22.7998 190.927 22.7318 191.007 22.6438C191.087 22.5478 191.127 22.4238 191.127 22.2718C191.127 22.0638 191.047 21.9038 190.887 21.7918C190.727 21.6718 190.519 21.5718 190.263 21.4918C190.015 21.4038 189.747 21.3198 189.459 21.2398C189.171 21.1518 188.899 21.0398 188.643 20.9038C188.395 20.7598 188.191 20.5718 188.031 20.3398C187.871 20.1078 187.791 19.7998 187.791 19.4158C187.791 18.9838 187.903 18.6278 188.127 18.3478C188.351 18.0678 188.647 17.8638 189.015 17.7358C189.383 17.5998 189.783 17.5318 190.215 17.5318C190.631 17.5318 191.047 17.5918 191.463 17.7118C191.879 17.8238 192.247 17.9838 192.567 18.1918L192.003 19.2718ZM35.216 33.9598C34.768 33.9278 34.38 33.9958 34.052 34.1638C33.724 34.3238 33.472 34.5558 33.296 34.8598C33.12 35.1638 33.032 35.5118 33.032 35.9038L32.612 35.8558C32.612 35.1438 32.716 34.5438 32.924 34.0558C33.132 33.5598 33.432 33.1838 33.824 32.9278C34.216 32.6718 34.68 32.5438 35.216 32.5438V33.9598ZM31.472 32.6038H33.032V38.9998H31.472V32.6038ZM40.6438 35.3158C40.6278 34.9798 40.5518 34.6958 40.4158 34.4638C40.2798 34.2238 40.0878 34.0398 39.8398 33.9118C39.5998 33.7758 39.3238 33.7078 39.0118 33.7078C38.6518 33.7078 38.3398 33.7918 38.0758 33.9598C37.8118 34.1278 37.6038 34.3638 37.4518 34.6678C37.3078 34.9718 37.2358 35.3238 37.2358 35.7238C37.2358 36.1638 37.3158 36.5438 37.4758 36.8638C37.6438 37.1838 37.8718 37.4318 38.1598 37.6078C38.4478 37.7758 38.7798 37.8598 39.1558 37.8598C39.8358 37.8598 40.4158 37.6158 40.8958 37.1278L41.7238 37.9558C41.4038 38.3078 41.0158 38.5798 40.5598 38.7718C40.1038 38.9638 39.5958 39.0598 39.0358 39.0598C38.3638 39.0598 37.7798 38.9238 37.2838 38.6518C36.7958 38.3718 36.4118 37.9918 36.1318 37.5118C35.8598 37.0238 35.7238 36.4558 35.7238 35.8078C35.7238 35.1598 35.8598 34.5918 36.1318 34.1038C36.4118 33.6158 36.7958 33.2358 37.2838 32.9638C37.7798 32.6918 38.3478 32.5518 38.9878 32.5438C39.7478 32.5438 40.3598 32.6998 40.8238 33.0118C41.2958 33.3238 41.6318 33.7638 41.8318 34.3318C42.0318 34.8918 42.1038 35.5598 42.0478 36.3358H37.0078V35.3158H40.6438ZM47.2174 34.2718C46.9054 34.0878 46.5814 33.9478 46.2454 33.8518C45.9094 33.7478 45.6054 33.6958 45.3334 33.6958C45.0774 33.6958 44.8694 33.7438 44.7094 33.8398C44.5494 33.9278 44.4694 34.0798 44.4694 34.2958C44.4694 34.4798 44.5494 34.6278 44.7094 34.7398C44.8774 34.8518 45.0894 34.9478 45.3454 35.0278C45.6014 35.0998 45.8734 35.1798 46.1614 35.2678C46.4494 35.3558 46.7214 35.4718 46.9774 35.6158C47.2414 35.7598 47.4534 35.9518 47.6134 36.1918C47.7814 36.4318 47.8654 36.7478 47.8654 37.1398C47.8654 37.5718 47.7494 37.9318 47.5174 38.2198C47.2854 38.4998 46.9774 38.7118 46.5934 38.8558C46.2094 38.9918 45.7894 39.0598 45.3334 39.0598C44.8534 39.0598 44.3734 38.9838 43.8934 38.8318C43.4214 38.6798 43.0174 38.4558 42.6814 38.1598L43.2214 37.1158C43.5174 37.3718 43.8654 37.5718 44.2654 37.7158C44.6734 37.8518 45.0494 37.9198 45.3934 37.9198C45.5774 37.9198 45.7414 37.8958 45.8854 37.8478C46.0294 37.7998 46.1414 37.7318 46.2214 37.6438C46.3014 37.5478 46.3414 37.4238 46.3414 37.2718C46.3414 37.0638 46.2614 36.9038 46.1014 36.7918C45.9414 36.6718 45.7334 36.5718 45.4774 36.4918C45.2294 36.4038 44.9614 36.3198 44.6734 36.2398C44.3854 36.1518 44.1134 36.0398 43.8574 35.9038C43.6094 35.7598 43.4054 35.5718 43.2454 35.3398C43.0854 35.1078 43.0054 34.7998 43.0054 34.4158C43.0054 33.9838 43.1174 33.6278 43.3414 33.3478C43.5654 33.0678 43.8614 32.8638 44.2294 32.7358C44.5974 32.5998 44.9974 32.5318 45.4294 32.5318C45.8454 32.5318 46.2614 32.5918 46.6774 32.7118C47.0934 32.8238 47.4614 32.9838 47.7814 33.1918L47.2174 34.2718ZM52.0105 32.5438C52.6745 32.5438 53.2585 32.6798 53.7625 32.9518C54.2745 33.2238 54.6705 33.6038 54.9505 34.0918C55.2385 34.5798 55.3825 35.1478 55.3825 35.7958C55.3825 36.4438 55.2385 37.0118 54.9505 37.4998C54.6705 37.9878 54.2745 38.3718 53.7625 38.6518C53.2585 38.9238 52.6745 39.0598 52.0105 39.0598C51.3385 39.0598 50.7465 38.9238 50.2345 38.6518C49.7225 38.3718 49.3225 37.9878 49.0345 37.4998C48.7545 37.0118 48.6145 36.4438 48.6145 35.7958C48.6145 35.1478 48.7545 34.5798 49.0345 34.0918C49.3225 33.6038 49.7225 33.2238 50.2345 32.9518C50.7465 32.6798 51.3385 32.5438 52.0105 32.5438ZM52.0105 33.8038C51.6505 33.8038 51.3305 33.8918 51.0505 34.0678C50.7785 34.2358 50.5665 34.4718 50.4145 34.7758C50.2625 35.0718 50.1865 35.4158 50.1865 35.8078C50.1865 36.2078 50.2625 36.5598 50.4145 36.8638C50.5665 37.1678 50.7785 37.4038 51.0505 37.5718C51.3305 37.7398 51.6505 37.8238 52.0105 37.8238C52.3625 37.8238 52.6745 37.7398 52.9465 37.5718C53.2185 37.4038 53.4305 37.1678 53.5825 36.8638C53.7345 36.5598 53.8105 36.2078 53.8105 35.8078C53.8105 35.4158 53.7345 35.0718 53.5825 34.7758C53.4305 34.4718 53.2185 34.2358 52.9465 34.0678C52.6745 33.8918 52.3625 33.8038 52.0105 33.8038ZM56.7976 30.0958H58.3576V38.9998H56.7976V30.0958ZM61.7267 36.1678C61.7267 36.6318 61.8467 36.9998 62.0867 37.2718C62.3347 37.5358 62.6747 37.6678 63.1067 37.6678C63.6107 37.6518 64.0027 37.4638 64.2827 37.1038C64.5707 36.7438 64.7147 36.2918 64.7147 35.7478H65.1227C65.1227 36.5238 65.0147 37.1558 64.7987 37.6438C64.5827 38.1238 64.2787 38.4798 63.8867 38.7118C63.4947 38.9358 63.0267 39.0518 62.4827 39.0598C62.0027 39.0598 61.5867 38.9598 61.2347 38.7598C60.8907 38.5598 60.6227 38.2758 60.4307 37.9078C60.2467 37.5318 60.1547 37.0918 60.1547 36.5878V32.6038H61.7267V36.1678ZM64.7147 32.6038H66.2867V38.9998H64.7147V32.6038ZM70.0457 36.9118C70.0457 37.2318 70.1057 37.4518 70.2257 37.5718C70.3457 37.6918 70.5097 37.7518 70.7177 37.7518C70.8457 37.7518 70.9857 37.7318 71.1377 37.6918C71.2897 37.6438 71.4537 37.5718 71.6297 37.4758L71.9897 38.6038C71.7497 38.7478 71.4897 38.8638 71.2097 38.9518C70.9377 39.0318 70.6617 39.0718 70.3817 39.0718C70.0377 39.0718 69.7217 39.0078 69.4337 38.8798C69.1457 38.7438 68.9177 38.5358 68.7497 38.2558C68.5817 37.9678 68.4977 37.6078 68.4977 37.1758V31.0918H70.0457V36.9118ZM67.5977 32.8438H71.8817V33.9358H67.5977V32.8438ZM73.2142 32.6038H74.7742V38.9998H73.2142V32.6038ZM73.9822 29.8798C74.2382 29.8798 74.4502 29.9638 74.6182 30.1318C74.7862 30.2998 74.8702 30.5118 74.8702 30.7678C74.8702 31.0158 74.7862 31.2278 74.6182 31.4038C74.4502 31.5718 74.2382 31.6558 73.9822 31.6558C73.7342 31.6558 73.5262 31.5718 73.3582 31.4038C73.1902 31.2278 73.1062 31.0158 73.1062 30.7678C73.1062 30.5118 73.1902 30.2998 73.3582 30.1318C73.5262 29.9638 73.7342 29.8798 73.9822 29.8798ZM79.5144 32.5438C80.1784 32.5438 80.7624 32.6798 81.2664 32.9518C81.7784 33.2238 82.1744 33.6038 82.4544 34.0918C82.7424 34.5798 82.8864 35.1478 82.8864 35.7958C82.8864 36.4438 82.7424 37.0118 82.4544 37.4998C82.1744 37.9878 81.7784 38.3718 81.2664 38.6518C80.7624 38.9238 80.1784 39.0598 79.5144 39.0598C78.8424 39.0598 78.2504 38.9238 77.7384 38.6518C77.2264 38.3718 76.8264 37.9878 76.5384 37.4998C76.2584 37.0118 76.1184 36.4438 76.1184 35.7958C76.1184 35.1478 76.2584 34.5798 76.5384 34.0918C76.8264 33.6038 77.2264 33.2238 77.7384 32.9518C78.2504 32.6798 78.8424 32.5438 79.5144 32.5438ZM79.5144 33.8038C79.1544 33.8038 78.8344 33.8918 78.5544 34.0678C78.2824 34.2358 78.0704 34.4718 77.9184 34.7758C77.7664 35.0718 77.6904 35.4158 77.6904 35.8078C77.6904 36.2078 77.7664 36.5598 77.9184 36.8638C78.0704 37.1678 78.2824 37.4038 78.5544 37.5718C78.8344 37.7398 79.1544 37.8238 79.5144 37.8238C79.8664 37.8238 80.1784 37.7398 80.4504 37.5718C80.7224 37.4038 80.9344 37.1678 81.0864 36.8638C81.2384 36.5598 81.3144 36.2078 81.3144 35.8078C81.3144 35.4158 81.2384 35.0718 81.0864 34.7758C80.9344 34.4718 80.7224 34.2358 80.4504 34.0678C80.1784 33.8918 79.8664 33.8038 79.5144 33.8038ZM88.9095 35.4238C88.9095 34.9598 88.7815 34.5958 88.5255 34.3318C88.2775 34.0678 87.9295 33.9358 87.4815 33.9358C86.9615 33.9358 86.5495 34.1198 86.2455 34.4878C85.9495 34.8478 85.8015 35.3038 85.8015 35.8558H85.3815C85.3815 35.0718 85.4895 34.4398 85.7055 33.9598C85.9295 33.4718 86.2455 33.1158 86.6535 32.8918C87.0695 32.6598 87.5535 32.5438 88.1055 32.5438C88.6015 32.5438 89.0255 32.6438 89.3775 32.8438C89.7295 33.0438 90.0015 33.3278 90.1935 33.6958C90.3855 34.0558 90.4815 34.4918 90.4815 35.0038V38.9998H88.9095V35.4238ZM84.2415 32.6038H85.8015V38.9998H84.2415V32.6038ZM96.0377 34.2718C95.7257 34.0878 95.4017 33.9478 95.0657 33.8518C94.7297 33.7478 94.4257 33.6958 94.1537 33.6958C93.8977 33.6958 93.6897 33.7438 93.5297 33.8398C93.3697 33.9278 93.2897 34.0798 93.2897 34.2958C93.2897 34.4798 93.3697 34.6278 93.5297 34.7398C93.6977 34.8518 93.9097 34.9478 94.1657 35.0278C94.4217 35.0998 94.6937 35.1798 94.9817 35.2678C95.2697 35.3558 95.5417 35.4718 95.7977 35.6158C96.0617 35.7598 96.2737 35.9518 96.4337 36.1918C96.6017 36.4318 96.6857 36.7478 96.6857 37.1398C96.6857 37.5718 96.5697 37.9318 96.3377 38.2198C96.1057 38.4998 95.7977 38.7118 95.4137 38.8558C95.0297 38.9918 94.6097 39.0598 94.1537 39.0598C93.6737 39.0598 93.1937 38.9838 92.7137 38.8318C92.2417 38.6798 91.8377 38.4558 91.5017 38.1598L92.0417 37.1158C92.3377 37.3718 92.6857 37.5718 93.0857 37.7158C93.4937 37.8518 93.8697 37.9198 94.2137 37.9198C94.3977 37.9198 94.5617 37.8958 94.7057 37.8478C94.8497 37.7998 94.9617 37.7318 95.0417 37.6438C95.1217 37.5478 95.1617 37.4238 95.1617 37.2718C95.1617 37.0638 95.0817 36.9038 94.9217 36.7918C94.7617 36.6718 94.5537 36.5718 94.2977 36.4918C94.0497 36.4038 93.7817 36.3198 93.4937 36.2398C93.2057 36.1518 92.9337 36.0398 92.6777 35.9038C92.4297 35.7598 92.2257 35.5718 92.0657 35.3398C91.9057 35.1078 91.8257 34.7998 91.8257 34.4158C91.8257 33.9838 91.9377 33.6278 92.1617 33.3478C92.3857 33.0678 92.6817 32.8638 93.0497 32.7358C93.4177 32.5998 93.8177 32.5318 94.2497 32.5318C94.6657 32.5318 95.0817 32.5918 95.4977 32.7118C95.9137 32.8238 96.2817 32.9838 96.6017 33.1918L96.0377 34.2718Z" fill="black"/>
<path d="M31.188 48.4001H35.292V49.2961H32.26V50.7441H34.98V51.6321H32.26V53.1041H35.388V54.0001H31.188V48.4001ZM39.5491 51.6161C39.5491 51.3067 39.4637 51.0641 39.2931 50.8881C39.1277 50.7121 38.8957 50.6241 38.5971 50.6241C38.2504 50.6241 37.9757 50.7467 37.7731 50.9921C37.5757 51.2321 37.4771 51.5361 37.4771 51.9041H37.1971C37.1971 51.3814 37.2691 50.9601 37.4131 50.6401C37.5624 50.3147 37.7731 50.0774 38.0451 49.9281C38.3224 49.7734 38.6451 49.6961 39.0131 49.6961C39.3437 49.6961 39.6264 49.7627 39.8611 49.8961C40.0957 50.0294 40.2771 50.2187 40.4051 50.4641C40.5331 50.7041 40.5971 50.9947 40.5971 51.3361V54.0001H39.5491V51.6161ZM36.4371 49.7361H37.4771V54.0001H36.4371V49.7361ZM44.9252 51.6161C44.9252 51.3067 44.8399 51.0641 44.6692 50.8881C44.5039 50.7121 44.2719 50.6241 43.9732 50.6241C43.6212 50.6241 43.3439 50.7467 43.1412 50.9921C42.9439 51.2321 42.8452 51.5361 42.8452 51.9041H42.5732C42.5732 51.3814 42.6452 50.9601 42.7892 50.6401C42.9385 50.3147 43.1492 50.0774 43.4212 49.9281C43.6932 49.7734 44.0159 49.6961 44.3892 49.6961C44.7145 49.6961 44.9945 49.7627 45.2292 49.8961C45.4692 50.0294 45.6532 50.2187 45.7812 50.4641C45.9092 50.7041 45.9732 50.9947 45.9732 51.3361V54.0001H44.9252V51.6161ZM41.8052 48.0641H42.8452V54.0001H41.8052V48.0641ZM48.5802 52.1201C48.3082 52.1201 48.1055 52.1627 47.9722 52.2481C47.8389 52.3334 47.7722 52.4747 47.7722 52.6721C47.7722 52.8534 47.8389 53.0001 47.9722 53.1121C48.1109 53.2241 48.2975 53.2801 48.5322 53.2801C48.7402 53.2801 48.9269 53.2454 49.0922 53.1761C49.2629 53.1014 49.3962 53.0027 49.4922 52.8801C49.5935 52.7521 49.6522 52.6107 49.6682 52.4561L49.8442 53.2001C49.7162 53.4774 49.5189 53.6881 49.2522 53.8321C48.9855 53.9761 48.6629 54.0481 48.2842 54.0481C47.9802 54.0481 47.7162 53.9894 47.4922 53.8721C47.2682 53.7547 47.0949 53.5974 46.9722 53.4001C46.8495 53.1974 46.7882 52.9707 46.7882 52.7201C46.7882 52.3254 46.9295 52.0161 47.2122 51.7921C47.4949 51.5627 47.8949 51.4454 48.4122 51.4401H49.7802V52.1201H48.5802ZM49.6602 51.3121C49.6602 51.0561 49.5775 50.8561 49.4122 50.7121C49.2522 50.5627 49.0122 50.4881 48.6922 50.4881C48.4949 50.4881 48.2869 50.5254 48.0682 50.6001C47.8549 50.6694 47.6389 50.7707 47.4202 50.9041L47.0442 50.2321C47.2469 50.1094 47.4415 50.0107 47.6282 49.9361C47.8149 49.8561 48.0095 49.7974 48.2122 49.7601C48.4202 49.7174 48.6575 49.6961 48.9242 49.6961C49.4842 49.6961 49.9162 49.8294 50.2202 50.0961C50.5242 50.3627 50.6789 50.7307 50.6842 51.2001L50.6922 54.0001H49.6682L49.6602 51.3121ZM54.9709 51.6161C54.9709 51.3067 54.8856 51.0641 54.7149 50.8881C54.5496 50.7121 54.3176 50.6241 54.0189 50.6241C53.6723 50.6241 53.3976 50.7467 53.1949 50.9921C52.9976 51.2321 52.8989 51.5361 52.8989 51.9041H52.6189C52.6189 51.3814 52.6909 50.9601 52.8349 50.6401C52.9843 50.3147 53.1949 50.0774 53.4669 49.9281C53.7443 49.7734 54.0669 49.6961 54.4349 49.6961C54.7656 49.6961 55.0483 49.7627 55.2829 49.8961C55.5176 50.0294 55.6989 50.2187 55.8269 50.4641C55.9549 50.7041 56.0189 50.9947 56.0189 51.3361V54.0001H54.9709V51.6161ZM51.8589 49.7361H52.8989V54.0001H51.8589V49.7361ZM60.1311 51.0321C59.9977 50.8827 59.8351 50.7681 59.6431 50.6881C59.4564 50.6027 59.2457 50.5601 59.0111 50.5601C58.7817 50.5601 58.5791 50.6161 58.4031 50.7281C58.2271 50.8347 58.0884 50.9867 57.9871 51.1841C57.8911 51.3814 57.8431 51.6107 57.8431 51.8721C57.8431 52.1334 57.8911 52.3627 57.9871 52.5601C58.0884 52.7574 58.2271 52.9121 58.4031 53.0241C58.5791 53.1361 58.7817 53.1921 59.0111 53.1921C59.2564 53.1921 59.4777 53.1494 59.6751 53.0641C59.8724 52.9787 60.0351 52.8507 60.1631 52.6801L60.8111 53.2081C60.6244 53.4694 60.3737 53.6747 60.0591 53.8241C59.7444 53.9681 59.3791 54.0401 58.9631 54.0401C58.5364 54.0401 58.1604 53.9494 57.8351 53.7681C57.5097 53.5814 57.2537 53.3281 57.0671 53.0081C56.8857 52.6827 56.7951 52.3041 56.7951 51.8721C56.7951 51.4401 56.8857 51.0614 57.0671 50.7361C57.2537 50.4107 57.5097 50.1574 57.8351 49.9761C58.1604 49.7894 58.5364 49.6961 58.9631 49.6961C59.3631 49.6961 59.7151 49.7627 60.0191 49.8961C60.3231 50.0241 60.5737 50.2054 60.7711 50.4401L60.1311 51.0321ZM64.4344 51.5441C64.4238 51.3201 64.3731 51.1307 64.2824 50.9761C64.1918 50.8161 64.0638 50.6934 63.8984 50.6081C63.7384 50.5174 63.5544 50.4721 63.3464 50.4721C63.1064 50.4721 62.8984 50.5281 62.7224 50.6401C62.5464 50.7521 62.4078 50.9094 62.3064 51.1121C62.2104 51.3147 62.1624 51.5494 62.1624 51.8161C62.1624 52.1094 62.2158 52.3627 62.3224 52.5761C62.4344 52.7894 62.5864 52.9547 62.7784 53.0721C62.9704 53.1841 63.1918 53.2401 63.4424 53.2401C63.8958 53.2401 64.2824 53.0774 64.6024 52.7521L65.1544 53.3041C64.9411 53.5387 64.6824 53.7201 64.3784 53.8481C64.0744 53.9761 63.7358 54.0401 63.3624 54.0401C62.9144 54.0401 62.5251 53.9494 62.1944 53.7681C61.8691 53.5814 61.6131 53.3281 61.4264 53.0081C61.2451 52.6827 61.1544 52.3041 61.1544 51.8721C61.1544 51.4401 61.2451 51.0614 61.4264 50.7361C61.6131 50.4107 61.8691 50.1574 62.1944 49.9761C62.5251 49.7947 62.9038 49.7014 63.3304 49.6961C63.8371 49.6961 64.2451 49.8001 64.5544 50.0081C64.8691 50.2161 65.0931 50.5094 65.2264 50.8881C65.3598 51.2614 65.4078 51.7067 65.3704 52.2241H62.0104V51.5441H64.4344ZM71.3811 51.0321C71.2477 50.8827 71.0851 50.7681 70.8931 50.6881C70.7064 50.6027 70.4957 50.5601 70.2611 50.5601C70.0317 50.5601 69.8291 50.6161 69.6531 50.7281C69.4771 50.8347 69.3384 50.9867 69.2371 51.1841C69.1411 51.3814 69.0931 51.6107 69.0931 51.8721C69.0931 52.1334 69.1411 52.3627 69.2371 52.5601C69.3384 52.7574 69.4771 52.9121 69.6531 53.0241C69.8291 53.1361 70.0317 53.1921 70.2611 53.1921C70.5064 53.1921 70.7277 53.1494 70.9251 53.0641C71.1224 52.9787 71.2851 52.8507 71.4131 52.6801L72.0611 53.2081C71.8744 53.4694 71.6237 53.6747 71.3091 53.8241C70.9944 53.9681 70.6291 54.0401 70.2131 54.0401C69.7864 54.0401 69.4104 53.9494 69.0851 53.7681C68.7597 53.5814 68.5037 53.3281 68.3171 53.0081C68.1357 52.6827 68.0451 52.3041 68.0451 51.8721C68.0451 51.4401 68.1357 51.0614 68.3171 50.7361C68.5037 50.4107 68.7597 50.1574 69.0851 49.9761C69.4104 49.7894 69.7864 49.6961 70.2131 49.6961C70.6131 49.6961 70.9651 49.7627 71.2691 49.8961C71.5731 50.0241 71.8237 50.2054 72.0211 50.4401L71.3811 51.0321ZM73.8647 52.1121C73.8647 52.4214 73.9447 52.6667 74.1047 52.8481C74.27 53.0241 74.4967 53.1121 74.7847 53.1121C75.1207 53.1014 75.382 52.9761 75.5687 52.7361C75.7607 52.4961 75.8567 52.1947 75.8567 51.8321H76.1287C76.1287 52.3494 76.0567 52.7707 75.9127 53.0961C75.7687 53.4161 75.566 53.6534 75.3047 53.8081C75.0434 53.9574 74.7314 54.0347 74.3687 54.0401C74.0487 54.0401 73.7714 53.9734 73.5367 53.8401C73.3074 53.7067 73.1287 53.5174 73.0007 53.2721C72.878 53.0214 72.8167 52.7281 72.8167 52.3921V49.7361H73.8647V52.1121ZM75.8567 49.7361H76.9047V54.0001H75.8567V49.7361ZM80.7387 50.8481C80.5307 50.7254 80.3147 50.6321 80.0907 50.5681C79.8667 50.4987 79.664 50.4641 79.4827 50.4641C79.312 50.4641 79.1734 50.4961 79.0667 50.5601C78.96 50.6187 78.9067 50.7201 78.9067 50.8641C78.9067 50.9867 78.96 51.0854 79.0667 51.1601C79.1787 51.2347 79.32 51.2987 79.4907 51.3521C79.6614 51.4001 79.8427 51.4534 80.0347 51.5121C80.2267 51.5707 80.408 51.6481 80.5787 51.7441C80.7547 51.8401 80.896 51.9681 81.0027 52.1281C81.1147 52.2881 81.1707 52.4987 81.1707 52.7601C81.1707 53.0481 81.0934 53.2881 80.9387 53.4801C80.784 53.6667 80.5787 53.8081 80.3227 53.9041C80.0667 53.9947 79.7867 54.0401 79.4827 54.0401C79.1627 54.0401 78.8427 53.9894 78.5227 53.8881C78.208 53.7867 77.9387 53.6374 77.7147 53.4401L78.0747 52.7441C78.272 52.9147 78.504 53.0481 78.7707 53.1441C79.0427 53.2347 79.2934 53.2801 79.5227 53.2801C79.6454 53.2801 79.7547 53.2641 79.8507 53.2321C79.9467 53.2001 80.0214 53.1547 80.0747 53.0961C80.128 53.0321 80.1547 52.9494 80.1547 52.8481C80.1547 52.7094 80.1014 52.6027 79.9947 52.5281C79.888 52.4481 79.7494 52.3814 79.5787 52.3281C79.4134 52.2694 79.2347 52.2134 79.0427 52.1601C78.8507 52.1014 78.6694 52.0267 78.4987 51.9361C78.3334 51.8401 78.1974 51.7147 78.0907 51.5601C77.984 51.4054 77.9307 51.2001 77.9307 50.9441C77.9307 50.6561 78.0054 50.4187 78.1547 50.2321C78.304 50.0454 78.5014 49.9094 78.7467 49.8241C78.992 49.7334 79.2587 49.6881 79.5467 49.6881C79.824 49.6881 80.1014 49.7281 80.3787 49.8081C80.656 49.8827 80.9014 49.9894 81.1147 50.1281L80.7387 50.8481ZM83.2701 52.6081C83.2701 52.8214 83.3101 52.9681 83.3901 53.0481C83.4701 53.1281 83.5794 53.1681 83.7181 53.1681C83.8034 53.1681 83.8967 53.1547 83.9981 53.1281C84.0994 53.0961 84.2087 53.0481 84.3261 52.9841L84.5661 53.7361C84.4061 53.8321 84.2327 53.9094 84.0461 53.9681C83.8647 54.0214 83.6807 54.0481 83.4941 54.0481C83.2647 54.0481 83.0541 54.0054 82.8621 53.9201C82.6701 53.8294 82.5181 53.6907 82.4061 53.5041C82.2941 53.3121 82.2381 53.0721 82.2381 52.7841V48.7281H83.2701V52.6081ZM81.6381 49.8961H84.4941V50.6241H81.6381V49.8961ZM87.2153 49.6961C87.658 49.6961 88.0473 49.7867 88.3833 49.9681C88.7246 50.1494 88.9886 50.4027 89.1753 50.7281C89.3673 51.0534 89.4633 51.4321 89.4633 51.8641C89.4633 52.2961 89.3673 52.6747 89.1753 53.0001C88.9886 53.3254 88.7246 53.5814 88.3833 53.7681C88.0473 53.9494 87.658 54.0401 87.2153 54.0401C86.7673 54.0401 86.3726 53.9494 86.0313 53.7681C85.69 53.5814 85.4233 53.3254 85.2313 53.0001C85.0446 52.6747 84.9513 52.2961 84.9513 51.8641C84.9513 51.4321 85.0446 51.0534 85.2313 50.7281C85.4233 50.4027 85.69 50.1494 86.0313 49.9681C86.3726 49.7867 86.7673 49.6961 87.2153 49.6961ZM87.2153 50.5361C86.9753 50.5361 86.762 50.5947 86.5753 50.7121C86.394 50.8241 86.2526 50.9814 86.1513 51.1841C86.05 51.3814 85.9993 51.6107 85.9993 51.8721C85.9993 52.1387 86.05 52.3734 86.1513 52.5761C86.2526 52.7787 86.394 52.9361 86.5753 53.0481C86.762 53.1601 86.9753 53.2161 87.2153 53.2161C87.45 53.2161 87.658 53.1601 87.8393 53.0481C88.0206 52.9361 88.162 52.7787 88.2633 52.5761C88.3646 52.3734 88.4153 52.1387 88.4153 51.8721C88.4153 51.6107 88.3646 51.3814 88.2633 51.1841C88.162 50.9814 88.0206 50.8241 87.8393 50.7121C87.658 50.5947 87.45 50.5361 87.2153 50.5361ZM93.4228 51.6161C93.4228 51.3014 93.3401 51.0561 93.1748 50.8801C93.0148 50.7041 92.7881 50.6161 92.4948 50.6161C92.1588 50.6214 91.8921 50.7467 91.6948 50.9921C91.5028 51.2321 91.4068 51.5334 91.4068 51.8961H91.1268C91.1268 51.3787 91.1988 50.9601 91.3428 50.6401C91.4868 50.3147 91.6921 50.0774 91.9588 49.9281C92.2308 49.7734 92.5481 49.6961 92.9108 49.6961C93.2361 49.6961 93.5134 49.7627 93.7428 49.8961C93.9774 50.0294 94.1561 50.2187 94.2788 50.4641C94.4068 50.7041 94.4708 50.9947 94.4708 51.3361V54.0001H93.4228V51.6161ZM96.4868 51.6161C96.4868 51.3014 96.4041 51.0561 96.2388 50.8801C96.0734 50.7041 95.8441 50.6161 95.5508 50.6161C95.2148 50.6214 94.9508 50.7467 94.7588 50.9921C94.5668 51.2321 94.4708 51.5334 94.4708 51.8961H94.1908C94.1908 51.3787 94.2628 50.9601 94.4068 50.6401C94.5508 50.3147 94.7561 50.0774 95.0228 49.9281C95.2894 49.7734 95.6068 49.6961 95.9748 49.6961C96.2948 49.6961 96.5694 49.7627 96.7988 49.8961C97.0334 50.0294 97.2148 50.2187 97.3428 50.4641C97.4708 50.7041 97.5348 50.9947 97.5348 51.3361V54.0001H96.4868V51.6161ZM90.3668 49.7361H91.4068V54.0001H90.3668V49.7361ZM101.583 51.5441C101.572 51.3201 101.522 51.1307 101.431 50.9761C101.34 50.8161 101.212 50.6934 101.047 50.6081C100.887 50.5174 100.703 50.4721 100.495 50.4721C100.255 50.4721 100.047 50.5281 99.8709 50.6401C99.6949 50.7521 99.5562 50.9094 99.4549 51.1121C99.3589 51.3147 99.3109 51.5494 99.3109 51.8161C99.3109 52.1094 99.3642 52.3627 99.4709 52.5761C99.5829 52.7894 99.7349 52.9547 99.9269 53.0721C100.119 53.1841 100.34 53.2401 100.591 53.2401C101.044 53.2401 101.431 53.0774 101.751 52.7521L102.303 53.3041C102.09 53.5387 101.831 53.7201 101.527 53.8481C101.223 53.9761 100.884 54.0401 100.511 54.0401C100.063 54.0401 99.6735 53.9494 99.3429 53.7681C99.0175 53.5814 98.7615 53.3281 98.5749 53.0081C98.3935 52.6827 98.3029 52.3041 98.3029 51.8721C98.3029 51.4401 98.3935 51.0614 98.5749 50.7361C98.7615 50.4107 99.0175 50.1574 99.3429 49.9761C99.6735 49.7947 100.052 49.7014 100.479 49.6961C100.986 49.6961 101.394 49.8001 101.703 50.0081C102.018 50.2161 102.242 50.5094 102.375 50.8881C102.508 51.2614 102.556 51.7067 102.519 52.2241H99.1589V51.5441H101.583ZM105.925 50.6401C105.627 50.6187 105.368 50.6641 105.149 50.7761C104.931 50.8827 104.763 51.0374 104.645 51.2401C104.528 51.4427 104.469 51.6747 104.469 51.9361L104.189 51.9041C104.189 51.4294 104.259 51.0294 104.397 50.7041C104.536 50.3734 104.736 50.1227 104.997 49.9521C105.259 49.7814 105.568 49.6961 105.925 49.6961V50.6401ZM103.429 49.7361H104.469V54.0001H103.429V49.7361ZM111.348 50.8481C111.14 50.7254 110.924 50.6321 110.7 50.5681C110.476 50.4987 110.273 50.4641 110.092 50.4641C109.921 50.4641 109.783 50.4961 109.676 50.5601C109.569 50.6187 109.516 50.7201 109.516 50.8641C109.516 50.9867 109.569 51.0854 109.676 51.1601C109.788 51.2347 109.929 51.2987 110.1 51.3521C110.271 51.4001 110.452 51.4534 110.644 51.5121C110.836 51.5707 111.017 51.6481 111.188 51.7441C111.364 51.8401 111.505 51.9681 111.612 52.1281C111.724 52.2881 111.78 52.4987 111.78 52.7601C111.78 53.0481 111.703 53.2881 111.548 53.4801C111.393 53.6667 111.188 53.8081 110.932 53.9041C110.676 53.9947 110.396 54.0401 110.092 54.0401C109.772 54.0401 109.452 53.9894 109.132 53.8881C108.817 53.7867 108.548 53.6374 108.324 53.4401L108.684 52.7441C108.881 52.9147 109.113 53.0481 109.38 53.1441C109.652 53.2347 109.903 53.2801 110.132 53.2801C110.255 53.2801 110.364 53.2641 110.46 53.2321C110.556 53.2001 110.631 53.1547 110.684 53.0961C110.737 53.0321 110.764 52.9494 110.764 52.8481C110.764 52.7094 110.711 52.6027 110.604 52.5281C110.497 52.4481 110.359 52.3814 110.188 52.3281C110.023 52.2694 109.844 52.2134 109.652 52.1601C109.46 52.1014 109.279 52.0267 109.108 51.9361C108.943 51.8401 108.807 51.7147 108.7 51.5601C108.593 51.4054 108.54 51.2001 108.54 50.9441C108.54 50.6561 108.615 50.4187 108.764 50.2321C108.913 50.0454 109.111 49.9094 109.356 49.8241C109.601 49.7334 109.868 49.6881 110.156 49.6881C110.433 49.6881 110.711 49.7281 110.988 49.8081C111.265 49.8827 111.511 49.9894 111.724 50.1281L111.348 50.8481ZM114.111 52.1201C113.839 52.1201 113.637 52.1627 113.503 52.2481C113.37 52.3334 113.303 52.4747 113.303 52.6721C113.303 52.8534 113.37 53.0001 113.503 53.1121C113.642 53.2241 113.829 53.2801 114.063 53.2801C114.271 53.2801 114.458 53.2454 114.623 53.1761C114.794 53.1014 114.927 53.0027 115.023 52.8801C115.125 52.7521 115.183 52.6107 115.199 52.4561L115.375 53.2001C115.247 53.4774 115.05 53.6881 114.783 53.8321C114.517 53.9761 114.194 54.0481 113.815 54.0481C113.511 54.0481 113.247 53.9894 113.023 53.8721C112.799 53.7547 112.626 53.5974 112.503 53.4001C112.381 53.1974 112.319 52.9707 112.319 52.7201C112.319 52.3254 112.461 52.0161 112.743 51.7921C113.026 51.5627 113.426 51.4454 113.943 51.4401H115.311V52.1201H114.111ZM115.191 51.3121C115.191 51.0561 115.109 50.8561 114.943 50.7121C114.783 50.5627 114.543 50.4881 114.223 50.4881C114.026 50.4881 113.818 50.5254 113.599 50.6001C113.386 50.6694 113.17 50.7707 112.951 50.9041L112.575 50.2321C112.778 50.1094 112.973 50.0107 113.159 49.9361C113.346 49.8561 113.541 49.7974 113.743 49.7601C113.951 49.7174 114.189 49.6961 114.455 49.6961C115.015 49.6961 115.447 49.8294 115.751 50.0961C116.055 50.3627 116.21 50.7307 116.215 51.2001L116.223 54.0001H115.199L115.191 51.3121ZM118.598 52.6081C118.598 52.8214 118.638 52.9681 118.718 53.0481C118.798 53.1281 118.908 53.1681 119.046 53.1681C119.132 53.1681 119.225 53.1547 119.326 53.1281C119.428 53.0961 119.537 53.0481 119.654 52.9841L119.894 53.7361C119.734 53.8321 119.561 53.9094 119.374 53.9681C119.193 54.0214 119.009 54.0481 118.822 54.0481C118.593 54.0481 118.382 54.0054 118.19 53.9201C117.998 53.8294 117.846 53.6907 117.734 53.5041C117.622 53.3121 117.566 53.0721 117.566 52.7841V48.7281H118.598V52.6081ZM116.966 49.8961H119.822V50.6241H116.966V49.8961ZM120.711 49.7361H121.751V54.0001H120.711V49.7361ZM121.223 47.9201C121.393 47.9201 121.535 47.9761 121.647 48.0881C121.759 48.2001 121.815 48.3414 121.815 48.5121C121.815 48.6774 121.759 48.8187 121.647 48.9361C121.535 49.0481 121.393 49.1041 121.223 49.1041C121.057 49.1041 120.919 49.0481 120.807 48.9361C120.695 48.8187 120.639 48.6774 120.639 48.5121C120.639 48.3414 120.695 48.2001 120.807 48.0881C120.919 47.9761 121.057 47.9201 121.223 47.9201ZM125.575 50.8481C125.367 50.7254 125.151 50.6321 124.927 50.5681C124.703 50.4987 124.5 50.4641 124.319 50.4641C124.148 50.4641 124.009 50.4961 123.903 50.5601C123.796 50.6187 123.743 50.7201 123.743 50.8641C123.743 50.9867 123.796 51.0854 123.903 51.1601C124.015 51.2347 124.156 51.2987 124.327 51.3521C124.497 51.4001 124.679 51.4534 124.871 51.5121C125.063 51.5707 125.244 51.6481 125.415 51.7441C125.591 51.8401 125.732 51.9681 125.839 52.1281C125.951 52.2881 126.007 52.4987 126.007 52.7601C126.007 53.0481 125.929 53.2881 125.775 53.4801C125.62 53.6667 125.415 53.8081 125.159 53.9041C124.903 53.9947 124.623 54.0401 124.319 54.0401C123.999 54.0401 123.679 53.9894 123.359 53.8881C123.044 53.7867 122.775 53.6374 122.551 53.4401L122.911 52.7441C123.108 52.9147 123.34 53.0481 123.607 53.1441C123.879 53.2347 124.129 53.2801 124.359 53.2801C124.481 53.2801 124.591 53.2641 124.687 53.2321C124.783 53.2001 124.857 53.1547 124.911 53.0961C124.964 53.0321 124.991 52.9494 124.991 52.8481C124.991 52.7094 124.937 52.6027 124.831 52.5281C124.724 52.4481 124.585 52.3814 124.415 52.3281C124.249 52.2694 124.071 52.2134 123.879 52.1601C123.687 52.1014 123.505 52.0267 123.335 51.9361C123.169 51.8401 123.033 51.7147 122.927 51.5601C122.82 51.4054 122.767 51.2001 122.767 50.9441C122.767 50.6561 122.841 50.4187 122.991 50.2321C123.14 50.0454 123.337 49.9094 123.583 49.8241C123.828 49.7334 124.095 49.6881 124.383 49.6881C124.66 49.6881 124.937 49.7281 125.215 49.8081C125.492 49.8827 125.737 49.9894 125.951 50.1281L125.575 50.8481ZM127.09 49.4881C127.09 49.1574 127.162 48.8827 127.306 48.6641C127.45 48.4454 127.637 48.2827 127.866 48.1761C128.095 48.0694 128.343 48.0161 128.61 48.0161C128.743 48.0161 128.877 48.0347 129.01 48.0721C129.149 48.1041 129.277 48.1494 129.394 48.2081L129.21 49.0001C129.13 48.9681 129.045 48.9387 128.954 48.9121C128.863 48.8854 128.773 48.8721 128.682 48.8721C128.586 48.8667 128.495 48.8854 128.41 48.9281C128.325 48.9654 128.255 49.0267 128.202 49.1121C128.154 49.1921 128.13 49.2987 128.13 49.4321V54.0001H127.09V49.4881ZM126.53 49.8961H129.202V50.6241H126.53V49.8961ZM131.026 52.1201C130.754 52.1201 130.551 52.1627 130.418 52.2481C130.284 52.3334 130.218 52.4747 130.218 52.6721C130.218 52.8534 130.284 53.0001 130.418 53.1121C130.556 53.2241 130.743 53.2801 130.978 53.2801C131.186 53.2801 131.372 53.2454 131.538 53.1761C131.708 53.1014 131.842 53.0027 131.938 52.8801C132.039 52.7521 132.098 52.6107 132.114 52.4561L132.29 53.2001C132.162 53.4774 131.964 53.6881 131.698 53.8321C131.431 53.9761 131.108 54.0481 130.73 54.0481C130.426 54.0481 130.162 53.9894 129.938 53.8721C129.714 53.7547 129.54 53.5974 129.418 53.4001C129.295 53.1974 129.234 52.9707 129.234 52.7201C129.234 52.3254 129.375 52.0161 129.658 51.7921C129.94 51.5627 130.34 51.4454 130.858 51.4401H132.226V52.1201H131.026ZM132.106 51.3121C132.106 51.0561 132.023 50.8561 131.858 50.7121C131.698 50.5627 131.458 50.4881 131.138 50.4881C130.94 50.4881 130.732 50.5254 130.514 50.6001C130.3 50.6694 130.084 50.7707 129.866 50.9041L129.49 50.2321C129.692 50.1094 129.887 50.0107 130.074 49.9361C130.26 49.8561 130.455 49.7974 130.658 49.7601C130.866 49.7174 131.103 49.6961 131.37 49.6961C131.93 49.6961 132.362 49.8294 132.666 50.0961C132.97 50.3627 133.124 50.7307 133.13 51.2001L133.138 54.0001H132.114L132.106 51.3121ZM137.248 51.0321C137.115 50.8827 136.952 50.7681 136.76 50.6881C136.574 50.6027 136.363 50.5601 136.128 50.5601C135.899 50.5601 135.696 50.6161 135.52 50.7281C135.344 50.8347 135.206 50.9867 135.104 51.1841C135.008 51.3814 134.96 51.6107 134.96 51.8721C134.96 52.1334 135.008 52.3627 135.104 52.5601C135.206 52.7574 135.344 52.9121 135.52 53.0241C135.696 53.1361 135.899 53.1921 136.128 53.1921C136.374 53.1921 136.595 53.1494 136.792 53.0641C136.99 52.9787 137.152 52.8507 137.28 52.6801L137.928 53.2081C137.742 53.4694 137.491 53.6747 137.176 53.8241C136.862 53.9681 136.496 54.0401 136.08 54.0401C135.654 54.0401 135.278 53.9494 134.952 53.7681C134.627 53.5814 134.371 53.3281 134.184 53.0081C134.003 52.6827 133.912 52.3041 133.912 51.8721C133.912 51.4401 134.003 51.0614 134.184 50.7361C134.371 50.4107 134.627 50.1574 134.952 49.9761C135.278 49.7894 135.654 49.6961 136.08 49.6961C136.48 49.6961 136.832 49.7627 137.136 49.8961C137.44 50.0241 137.691 50.2054 137.888 50.4401L137.248 51.0321ZM140.028 52.6081C140.028 52.8214 140.068 52.9681 140.148 53.0481C140.228 53.1281 140.337 53.1681 140.476 53.1681C140.561 53.1681 140.655 53.1547 140.756 53.1281C140.857 53.0961 140.967 53.0481 141.084 52.9841L141.324 53.7361C141.164 53.8321 140.991 53.9094 140.804 53.9681C140.623 54.0214 140.439 54.0481 140.252 54.0481C140.023 54.0481 139.812 54.0054 139.62 53.9201C139.428 53.8294 139.276 53.6907 139.164 53.5041C139.052 53.3121 138.996 53.0721 138.996 52.7841V48.7281H140.028V52.6081ZM138.396 49.8961H141.252V50.6241H138.396V49.8961ZM142.14 49.7361H143.18V54.0001H142.14V49.7361ZM142.652 47.9201C142.823 47.9201 142.964 47.9761 143.076 48.0881C143.188 48.2001 143.244 48.3414 143.244 48.5121C143.244 48.6774 143.188 48.8187 143.076 48.9361C142.964 49.0481 142.823 49.1041 142.652 49.1041C142.487 49.1041 142.348 49.0481 142.236 48.9361C142.124 48.8187 142.068 48.6774 142.068 48.5121C142.068 48.3414 142.124 48.2001 142.236 48.0881C142.348 47.9761 142.487 47.9201 142.652 47.9201ZM146.34 49.6961C146.783 49.6961 147.172 49.7867 147.508 49.9681C147.85 50.1494 148.114 50.4027 148.3 50.7281C148.492 51.0534 148.588 51.4321 148.588 51.8641C148.588 52.2961 148.492 52.6747 148.3 53.0001C148.114 53.3254 147.85 53.5814 147.508 53.7681C147.172 53.9494 146.783 54.0401 146.34 54.0401C145.892 54.0401 145.498 53.9494 145.156 53.7681C144.815 53.5814 144.548 53.3254 144.356 53.0001C144.17 52.6747 144.076 52.2961 144.076 51.8641C144.076 51.4321 144.17 51.0534 144.356 50.7281C144.548 50.4027 144.815 50.1494 145.156 49.9681C145.498 49.7867 145.892 49.6961 146.34 49.6961ZM146.34 50.5361C146.1 50.5361 145.887 50.5947 145.7 50.7121C145.519 50.8241 145.378 50.9814 145.276 51.1841C145.175 51.3814 145.124 51.6107 145.124 51.8721C145.124 52.1387 145.175 52.3734 145.276 52.5761C145.378 52.7787 145.519 52.9361 145.7 53.0481C145.887 53.1601 146.1 53.2161 146.34 53.2161C146.575 53.2161 146.783 53.1601 146.964 53.0481C147.146 52.9361 147.287 52.7787 147.388 52.5761C147.49 52.3734 147.54 52.1387 147.54 51.8721C147.54 51.6107 147.49 51.3814 147.388 51.1841C147.287 50.9814 147.146 50.8241 146.964 50.7121C146.783 50.5947 146.575 50.5361 146.34 50.5361ZM152.604 51.6161C152.604 51.3067 152.518 51.0641 152.348 50.8881C152.182 50.7121 151.95 50.6241 151.652 50.6241C151.305 50.6241 151.03 50.7467 150.828 50.9921C150.63 51.2321 150.532 51.5361 150.532 51.9041H150.252C150.252 51.3814 150.324 50.9601 150.468 50.6401C150.617 50.3147 150.828 50.0774 151.1 49.9281C151.377 49.7734 151.7 49.6961 152.068 49.6961C152.398 49.6961 152.681 49.7627 152.916 49.8961C153.15 50.0294 153.332 50.2187 153.46 50.4641C153.588 50.7041 153.652 50.9947 153.652 51.3361V54.0001H152.604V51.6161ZM149.492 49.7361H150.532V54.0001H149.492V49.7361ZM156.32 49.7361H157.392L158.44 53.0241L159.456 49.7361H160.504L161.536 53.0241L162.56 49.7361H163.616L162.056 54.0001H160.984L159.976 50.9121L158.952 54.0001H157.896L156.32 49.7361ZM164.218 49.7361H165.258V54.0001H164.218V49.7361ZM164.73 47.9201C164.901 47.9201 165.042 47.9761 165.154 48.0881C165.266 48.2001 165.322 48.3414 165.322 48.5121C165.322 48.6774 165.266 48.8187 165.154 48.9361C165.042 49.0481 164.901 49.1041 164.73 49.1041C164.565 49.1041 164.426 49.0481 164.314 48.9361C164.202 48.8187 164.146 48.6774 164.146 48.5121C164.146 48.3414 164.202 48.2001 164.314 48.0881C164.426 47.9761 164.565 47.9201 164.73 47.9201ZM167.754 52.6081C167.754 52.8214 167.794 52.9681 167.874 53.0481C167.954 53.1281 168.064 53.1681 168.202 53.1681C168.288 53.1681 168.381 53.1547 168.482 53.1281C168.584 53.0961 168.693 53.0481 168.81 52.9841L169.05 53.7361C168.89 53.8321 168.717 53.9094 168.53 53.9681C168.349 54.0214 168.165 54.0481 167.978 54.0481C167.749 54.0481 167.538 54.0054 167.346 53.9201C167.154 53.8294 167.002 53.6907 166.89 53.5041C166.778 53.3121 166.722 53.0721 166.722 52.7841V48.7281H167.754V52.6081ZM166.122 49.8961H168.978V50.6241H166.122V49.8961ZM173.027 51.6161C173.027 51.3067 172.941 51.0641 172.771 50.8881C172.605 50.7121 172.373 50.6241 172.075 50.6241C171.723 50.6241 171.445 50.7467 171.243 50.9921C171.045 51.2321 170.947 51.5361 170.947 51.9041H170.675C170.675 51.3814 170.747 50.9601 170.891 50.6401C171.04 50.3147 171.251 50.0774 171.523 49.9281C171.795 49.7734 172.117 49.6961 172.491 49.6961C172.816 49.6961 173.096 49.7627 173.331 49.8961C173.571 50.0294 173.755 50.2187 173.883 50.4641C174.011 50.7041 174.075 50.9947 174.075 51.3361V54.0001H173.027V51.6161ZM169.907 48.0641H170.947V54.0001H169.907V48.0641ZM177.59 49.4881C177.59 49.1574 177.662 48.8827 177.806 48.6641C177.95 48.4454 178.137 48.2827 178.366 48.1761C178.595 48.0694 178.843 48.0161 179.11 48.0161C179.243 48.0161 179.377 48.0347 179.51 48.0721C179.649 48.1041 179.777 48.1494 179.894 48.2081L179.71 49.0001C179.63 48.9681 179.545 48.9387 179.454 48.9121C179.363 48.8854 179.273 48.8721 179.182 48.8721C179.086 48.8667 178.995 48.8854 178.91 48.9281C178.825 48.9654 178.755 49.0267 178.702 49.1121C178.654 49.1921 178.63 49.2987 178.63 49.4321V54.0001H177.59V49.4881ZM177.03 49.8961H179.702V50.6241H177.03V49.8961ZM181.526 52.1201C181.254 52.1201 181.051 52.1627 180.918 52.2481C180.784 52.3334 180.718 52.4747 180.718 52.6721C180.718 52.8534 180.784 53.0001 180.918 53.1121C181.056 53.2241 181.243 53.2801 181.478 53.2801C181.686 53.2801 181.872 53.2454 182.038 53.1761C182.208 53.1014 182.342 53.0027 182.438 52.8801C182.539 52.7521 182.598 52.6107 182.614 52.4561L182.79 53.2001C182.662 53.4774 182.464 53.6881 182.198 53.8321C181.931 53.9761 181.608 54.0481 181.23 54.0481C180.926 54.0481 180.662 53.9894 180.438 53.8721C180.214 53.7547 180.04 53.5974 179.918 53.4001C179.795 53.1974 179.734 52.9707 179.734 52.7201C179.734 52.3254 179.875 52.0161 180.158 51.7921C180.44 51.5627 180.84 51.4454 181.358 51.4401H182.726V52.1201H181.526ZM182.606 51.3121C182.606 51.0561 182.523 50.8561 182.358 50.7121C182.198 50.5627 181.958 50.4881 181.638 50.4881C181.44 50.4881 181.232 50.5254 181.014 50.6001C180.8 50.6694 180.584 50.7707 180.366 50.9041L179.99 50.2321C180.192 50.1094 180.387 50.0107 180.574 49.9361C180.76 49.8561 180.955 49.7974 181.158 49.7601C181.366 49.7174 181.603 49.6961 181.87 49.6961C182.43 49.6961 182.862 49.8294 183.166 50.0961C183.47 50.3627 183.624 50.7307 183.63 51.2001L183.638 54.0001H182.614L182.606 51.3121ZM187.34 50.8481C187.132 50.7254 186.916 50.6321 186.692 50.5681C186.468 50.4987 186.266 50.4641 186.084 50.4641C185.914 50.4641 185.775 50.4961 185.668 50.5601C185.562 50.6187 185.508 50.7201 185.508 50.8641C185.508 50.9867 185.562 51.0854 185.668 51.1601C185.78 51.2347 185.922 51.2987 186.092 51.3521C186.263 51.4001 186.444 51.4534 186.636 51.5121C186.828 51.5707 187.01 51.6481 187.18 51.7441C187.356 51.8401 187.498 51.9681 187.604 52.1281C187.716 52.2881 187.772 52.4987 187.772 52.7601C187.772 53.0481 187.695 53.2881 187.54 53.4801C187.386 53.6667 187.18 53.8081 186.924 53.9041C186.668 53.9947 186.388 54.0401 186.084 54.0401C185.764 54.0401 185.444 53.9894 185.124 53.8881C184.81 53.7867 184.54 53.6374 184.316 53.4401L184.676 52.7441C184.874 52.9147 185.106 53.0481 185.372 53.1441C185.644 53.2347 185.895 53.2801 186.124 53.2801C186.247 53.2801 186.356 53.2641 186.452 53.2321C186.548 53.2001 186.623 53.1547 186.676 53.0961C186.73 53.0321 186.756 52.9494 186.756 52.8481C186.756 52.7094 186.703 52.6027 186.596 52.5281C186.49 52.4481 186.351 52.3814 186.18 52.3281C186.015 52.2694 185.836 52.2134 185.644 52.1601C185.452 52.1014 185.271 52.0267 185.1 51.9361C184.935 51.8401 184.799 51.7147 184.692 51.5601C184.586 51.4054 184.532 51.2001 184.532 50.9441C184.532 50.6561 184.607 50.4187 184.756 50.2321C184.906 50.0454 185.103 49.9094 185.348 49.8241C185.594 49.7334 185.86 49.6881 186.148 49.6881C186.426 49.6881 186.703 49.7281 186.98 49.8081C187.258 49.8827 187.503 49.9894 187.716 50.1281L187.34 50.8481ZM189.872 52.6081C189.872 52.8214 189.912 52.9681 189.992 53.0481C190.072 53.1281 190.181 53.1681 190.32 53.1681C190.405 53.1681 190.498 53.1547 190.6 53.1281C190.701 53.0961 190.81 53.0481 190.928 52.9841L191.168 53.7361C191.008 53.8321 190.834 53.9094 190.648 53.9681C190.466 54.0214 190.282 54.0481 190.096 54.0481C189.866 54.0481 189.656 54.0054 189.464 53.9201C189.272 53.8294 189.12 53.6907 189.008 53.5041C188.896 53.3121 188.84 53.0721 188.84 52.7841V48.7281H189.872V52.6081ZM188.24 49.8961H191.096V50.6241H188.24V49.8961ZM192.352 54.0561C192.123 54.0561 191.955 54.0027 191.848 53.8961C191.747 53.7894 191.696 53.6641 191.696 53.5201C191.696 53.3654 191.747 53.2374 191.848 53.1361C191.949 53.0347 192.08 52.9841 192.24 52.9841C192.379 52.9841 192.501 53.0321 192.608 53.1281C192.715 53.2187 192.768 53.3494 192.768 53.5201C192.768 53.6001 192.752 53.6774 192.72 53.7521C192.693 53.8214 192.661 53.8881 192.624 53.9521L192.12 54.9041H191.6L192.088 53.5761L192.352 54.0561ZM31.148 59.7361H32.188V64.0001H31.148V59.7361ZM31.66 57.9201C31.8307 57.9201 31.972 57.9761 32.084 58.0881C32.196 58.2001 32.252 58.3414 32.252 58.5121C32.252 58.6774 32.196 58.8187 32.084 58.9361C31.972 59.0481 31.8307 59.1041 31.66 59.1041C31.4947 59.1041 31.356 59.0481 31.244 58.9361C31.132 58.8187 31.076 58.6774 31.076 58.5121C31.076 58.3414 31.132 58.2001 31.244 58.0881C31.356 57.9761 31.4947 57.9201 31.66 57.9201ZM36.5881 61.6161C36.5881 61.3067 36.5028 61.0641 36.3321 60.8881C36.1668 60.7121 35.9348 60.6241 35.6361 60.6241C35.2895 60.6241 35.0148 60.7467 34.8121 60.9921C34.6148 61.2321 34.5161 61.5361 34.5161 61.9041H34.2361C34.2361 61.3814 34.3081 60.9601 34.4521 60.6401C34.6015 60.3147 34.8121 60.0774 35.0841 59.9281C35.3615 59.7734 35.6841 59.6961 36.0521 59.6961C36.3828 59.6961 36.6655 59.7627 36.9001 59.8961C37.1348 60.0294 37.3161 60.2187 37.4441 60.4641C37.5721 60.7041 37.6361 60.9947 37.6361 61.3361V64.0001H36.5881V61.6161ZM33.4761 59.7361H34.5161V64.0001H33.4761V59.7361ZM40.0123 62.6081C40.0123 62.8214 40.0523 62.9681 40.1323 63.0481C40.2123 63.1281 40.3216 63.1681 40.4603 63.1681C40.5456 63.1681 40.6389 63.1547 40.7403 63.1281C40.8416 63.0961 40.9509 63.0481 41.0683 62.9841L41.3083 63.7361C41.1483 63.8321 40.9749 63.9094 40.7883 63.9681C40.6069 64.0214 40.4229 64.0481 40.2363 64.0481C40.0069 64.0481 39.7963 64.0054 39.6043 63.9201C39.4123 63.8294 39.2603 63.6907 39.1483 63.5041C39.0363 63.3121 38.9803 63.0721 38.9803 62.7841V58.7281H40.0123V62.6081ZM38.3803 59.8961H41.2363V60.6241H38.3803V59.8961ZM44.9735 61.5441C44.9628 61.3201 44.9122 61.1307 44.8215 60.9761C44.7308 60.8161 44.6028 60.6934 44.4375 60.6081C44.2775 60.5174 44.0935 60.4721 43.8855 60.4721C43.6455 60.4721 43.4375 60.5281 43.2615 60.6401C43.0855 60.7521 42.9468 60.9094 42.8455 61.1121C42.7495 61.3147 42.7015 61.5494 42.7015 61.8161C42.7015 62.1094 42.7548 62.3627 42.8615 62.5761C42.9735 62.7894 43.1255 62.9547 43.3175 63.0721C43.5095 63.1841 43.7308 63.2401 43.9815 63.2401C44.4348 63.2401 44.8215 63.0774 45.1415 62.7521L45.6935 63.3041C45.4802 63.5387 45.2215 63.7201 44.9175 63.8481C44.6135 63.9761 44.2748 64.0401 43.9015 64.0401C43.4535 64.0401 43.0642 63.9494 42.7335 63.7681C42.4082 63.5814 42.1522 63.3281 41.9655 63.0081C41.7842 62.6827 41.6935 62.3041 41.6935 61.8721C41.6935 61.4401 41.7842 61.0614 41.9655 60.7361C42.1522 60.4107 42.4082 60.1574 42.7335 59.9761C43.0642 59.7947 43.4428 59.7014 43.8695 59.6961C44.3762 59.6961 44.7842 59.8001 45.0935 60.0081C45.4082 60.2161 45.6322 60.5094 45.7655 60.8881C45.8988 61.2614 45.9468 61.7067 45.9095 62.2241H42.5495V61.5441H44.9735ZM49.3159 60.6401C49.0172 60.6187 48.7585 60.6641 48.5399 60.7761C48.3212 60.8827 48.1532 61.0374 48.0359 61.2401C47.9185 61.4427 47.8599 61.6747 47.8599 61.9361L47.5799 61.9041C47.5799 61.4294 47.6492 61.0294 47.7879 60.7041C47.9265 60.3734 48.1265 60.1227 48.3879 59.9521C48.6492 59.7814 48.9585 59.6961 49.3159 59.6961V60.6401ZM46.8199 59.7361H47.8599V64.0001H46.8199V59.7361ZM51.3302 62.1201C51.0582 62.1201 50.8555 62.1627 50.7222 62.2481C50.5889 62.3334 50.5222 62.4747 50.5222 62.6721C50.5222 62.8534 50.5889 63.0001 50.7222 63.1121C50.8609 63.2241 51.0475 63.2801 51.2822 63.2801C51.4902 63.2801 51.6769 63.2454 51.8422 63.1761C52.0129 63.1014 52.1462 63.0027 52.2422 62.8801C52.3435 62.7521 52.4022 62.6107 52.4182 62.4561L52.5942 63.2001C52.4662 63.4774 52.2689 63.6881 52.0022 63.8321C51.7355 63.9761 51.4129 64.0481 51.0342 64.0481C50.7302 64.0481 50.4662 63.9894 50.2422 63.8721C50.0182 63.7547 49.8449 63.5974 49.7222 63.4001C49.5995 63.1974 49.5382 62.9707 49.5382 62.7201C49.5382 62.3254 49.6795 62.0161 49.9622 61.7921C50.2449 61.5627 50.6449 61.4454 51.1622 61.4401H52.5302V62.1201H51.3302ZM52.4102 61.3121C52.4102 61.0561 52.3275 60.8561 52.1622 60.7121C52.0022 60.5627 51.7622 60.4881 51.4422 60.4881C51.2449 60.4881 51.0369 60.5254 50.8182 60.6001C50.6049 60.6694 50.3889 60.7707 50.1702 60.9041L49.7942 60.2321C49.9969 60.1094 50.1915 60.0107 50.3782 59.9361C50.5649 59.8561 50.7595 59.7974 50.9622 59.7601C51.1702 59.7174 51.4075 59.6961 51.6742 59.6961C52.2342 59.6961 52.6662 59.8294 52.9702 60.0961C53.2742 60.3627 53.4289 60.7307 53.4342 61.2001L53.4422 64.0001H52.4182L52.4102 61.3121ZM57.5529 61.0321C57.4196 60.8827 57.2569 60.7681 57.0649 60.6881C56.8783 60.6027 56.6676 60.5601 56.4329 60.5601C56.2036 60.5601 56.0009 60.6161 55.8249 60.7281C55.6489 60.8347 55.5103 60.9867 55.4089 61.1841C55.3129 61.3814 55.2649 61.6107 55.2649 61.8721C55.2649 62.1334 55.3129 62.3627 55.4089 62.5601C55.5103 62.7574 55.6489 62.9121 55.8249 63.0241C56.0009 63.1361 56.2036 63.1921 56.4329 63.1921C56.6783 63.1921 56.8996 63.1494 57.0969 63.0641C57.2943 62.9787 57.4569 62.8507 57.5849 62.6801L58.2329 63.2081C58.0463 63.4694 57.7956 63.6747 57.4809 63.8241C57.1663 63.9681 56.8009 64.0401 56.3849 64.0401C55.9583 64.0401 55.5823 63.9494 55.2569 63.7681C54.9316 63.5814 54.6756 63.3281 54.4889 63.0081C54.3076 62.6827 54.2169 62.3041 54.2169 61.8721C54.2169 61.4401 54.3076 61.0614 54.4889 60.7361C54.6756 60.4107 54.9316 60.1574 55.2569 59.9761C55.5823 59.7894 55.9583 59.6961 56.3849 59.6961C56.7849 59.6961 57.1369 59.7627 57.4409 59.8961C57.7449 60.0241 57.9956 60.2054 58.1929 60.4401L57.5529 61.0321ZM60.3326 62.6081C60.3326 62.8214 60.3726 62.9681 60.4526 63.0481C60.5326 63.1281 60.6419 63.1681 60.7806 63.1681C60.8659 63.1681 60.9592 63.1547 61.0606 63.1281C61.1619 63.0961 61.2712 63.0481 61.3886 62.9841L61.6286 63.7361C61.4686 63.8321 61.2952 63.9094 61.1086 63.9681C60.9272 64.0214 60.7432 64.0481 60.5566 64.0481C60.3272 64.0481 60.1166 64.0054 59.9246 63.9201C59.7326 63.8294 59.5806 63.6907 59.4686 63.5041C59.3566 63.3121 59.3006 63.0721 59.3006 62.7841V58.7281H60.3326V62.6081ZM58.7006 59.8961H61.5566V60.6241H58.7006V59.8961ZM62.4449 59.7361H63.4849V64.0001H62.4449V59.7361ZM62.9569 57.9201C63.1275 57.9201 63.2689 57.9761 63.3809 58.0881C63.4929 58.2001 63.5489 58.3414 63.5489 58.5121C63.5489 58.6774 63.4929 58.8187 63.3809 58.9361C63.2689 59.0481 63.1275 59.1041 62.9569 59.1041C62.7915 59.1041 62.6529 59.0481 62.5409 58.9361C62.4289 58.8187 62.3729 58.6774 62.3729 58.5121C62.3729 58.3414 62.4289 58.2001 62.5409 58.0881C62.6529 57.9761 62.7915 57.9201 62.9569 57.9201ZM64.117 59.7361H65.205L66.325 63.0401L67.421 59.7361H68.469L66.837 64.0001H65.765L64.117 59.7361ZM71.8094 61.5441C71.7988 61.3201 71.7481 61.1307 71.6574 60.9761C71.5668 60.8161 71.4388 60.6934 71.2734 60.6081C71.1134 60.5174 70.9294 60.4721 70.7214 60.4721C70.4814 60.4721 70.2734 60.5281 70.0974 60.6401C69.9214 60.7521 69.7828 60.9094 69.6814 61.1121C69.5854 61.3147 69.5374 61.5494 69.5374 61.8161C69.5374 62.1094 69.5908 62.3627 69.6974 62.5761C69.8094 62.7894 69.9614 62.9547 70.1534 63.0721C70.3454 63.1841 70.5668 63.2401 70.8174 63.2401C71.2708 63.2401 71.6574 63.0774 71.9774 62.7521L72.5294 63.3041C72.3161 63.5387 72.0574 63.7201 71.7534 63.8481C71.4494 63.9761 71.1108 64.0401 70.7374 64.0401C70.2894 64.0401 69.9001 63.9494 69.5694 63.7681C69.2441 63.5814 68.9881 63.3281 68.8014 63.0081C68.6201 62.6827 68.5294 62.3041 68.5294 61.8721C68.5294 61.4401 68.6201 61.0614 68.8014 60.7361C68.9881 60.4107 69.2441 60.1574 69.5694 59.9761C69.9001 59.7947 70.2788 59.7014 70.7054 59.6961C71.2121 59.6961 71.6201 59.8001 71.9294 60.0081C72.2441 60.2161 72.4681 60.5094 72.6014 60.8881C72.7348 61.2614 72.7828 61.7067 72.7454 62.2241H69.3854V61.5441H71.8094ZM78.3081 60.6401C78.0094 60.6187 77.7507 60.6641 77.5321 60.7761C77.3134 60.8827 77.1454 61.0374 77.0281 61.2401C76.9107 61.4427 76.8521 61.6747 76.8521 61.9361L76.5721 61.9041C76.5721 61.4294 76.6414 61.0294 76.7801 60.7041C76.9187 60.3734 77.1187 60.1227 77.3801 59.9521C77.6414 59.7814 77.9507 59.6961 78.3081 59.6961V60.6401ZM75.8121 59.7361H76.8521V64.0001H75.8121V59.7361ZM81.9266 61.5441C81.916 61.3201 81.8653 61.1307 81.7746 60.9761C81.684 60.8161 81.556 60.6934 81.3906 60.6081C81.2306 60.5174 81.0466 60.4721 80.8386 60.4721C80.5986 60.4721 80.3906 60.5281 80.2146 60.6401C80.0386 60.7521 79.9 60.9094 79.7986 61.1121C79.7026 61.3147 79.6546 61.5494 79.6546 61.8161C79.6546 62.1094 79.708 62.3627 79.8146 62.5761C79.9266 62.7894 80.0786 62.9547 80.2706 63.0721C80.4626 63.1841 80.684 63.2401 80.9346 63.2401C81.388 63.2401 81.7746 63.0774 82.0946 62.7521L82.6466 63.3041C82.4333 63.5387 82.1746 63.7201 81.8706 63.8481C81.5666 63.9761 81.228 64.0401 80.8546 64.0401C80.4066 64.0401 80.0173 63.9494 79.6866 63.7681C79.3613 63.5814 79.1053 63.3281 78.9186 63.0081C78.7373 62.6827 78.6466 62.3041 78.6466 61.8721C78.6466 61.4401 78.7373 61.0614 78.9186 60.7361C79.1053 60.4107 79.3613 60.1574 79.6866 59.9761C80.0173 59.7947 80.396 59.7014 80.8226 59.6961C81.3293 59.6961 81.7373 59.8001 82.0466 60.0081C82.3613 60.2161 82.5853 60.5094 82.7186 60.8881C82.852 61.2614 82.9 61.7067 82.8626 62.2241H79.5026V61.5441H81.9266ZM86.309 60.8481C86.101 60.7254 85.885 60.6321 85.661 60.5681C85.437 60.4987 85.2343 60.4641 85.053 60.4641C84.8823 60.4641 84.7437 60.4961 84.637 60.5601C84.5303 60.6187 84.477 60.7201 84.477 60.8641C84.477 60.9867 84.5303 61.0854 84.637 61.1601C84.749 61.2347 84.8903 61.2987 85.061 61.3521C85.2317 61.4001 85.413 61.4534 85.605 61.5121C85.797 61.5707 85.9783 61.6481 86.149 61.7441C86.325 61.8401 86.4663 61.9681 86.573 62.1281C86.685 62.2881 86.741 62.4987 86.741 62.7601C86.741 63.0481 86.6637 63.2881 86.509 63.4801C86.3543 63.6667 86.149 63.8081 85.893 63.9041C85.637 63.9947 85.357 64.0401 85.053 64.0401C84.733 64.0401 84.413 63.9894 84.093 63.8881C83.7783 63.7867 83.509 63.6374 83.285 63.4401L83.645 62.7441C83.8423 62.9147 84.0743 63.0481 84.341 63.1441C84.613 63.2347 84.8637 63.2801 85.093 63.2801C85.2157 63.2801 85.325 63.2641 85.421 63.2321C85.517 63.2001 85.5917 63.1547 85.645 63.0961C85.6983 63.0321 85.725 62.9494 85.725 62.8481C85.725 62.7094 85.6717 62.6027 85.565 62.5281C85.4583 62.4481 85.3197 62.3814 85.149 62.3281C84.9837 62.2694 84.805 62.2134 84.613 62.1601C84.421 62.1014 84.2397 62.0267 84.069 61.9361C83.9037 61.8401 83.7677 61.7147 83.661 61.5601C83.5543 61.4054 83.501 61.2001 83.501 60.9441C83.501 60.6561 83.5757 60.4187 83.725 60.2321C83.8743 60.0454 84.0717 59.9094 84.317 59.8241C84.5623 59.7334 84.829 59.6881 85.117 59.6881C85.3943 59.6881 85.6717 59.7281 85.949 59.8081C86.2263 59.8827 86.4717 59.9894 86.685 60.1281L86.309 60.8481ZM90.1524 59.6961C90.5577 59.6961 90.9124 59.7867 91.2164 59.9681C91.5204 60.1494 91.755 60.4054 91.9204 60.7361C92.091 61.0614 92.1764 61.4427 92.1764 61.8801C92.1764 62.3067 92.0937 62.6827 91.9284 63.0081C91.763 63.3281 91.5284 63.5814 91.2244 63.7681C90.9257 63.9494 90.5737 64.0401 90.1684 64.0401C89.7897 64.0401 89.4644 63.9547 89.1924 63.7841C88.9204 63.6081 88.7124 63.3574 88.5684 63.0321C88.4244 62.7067 88.3524 62.3227 88.3524 61.8801C88.3524 61.4214 88.4217 61.0294 88.5604 60.7041C88.7044 60.3787 88.9124 60.1307 89.1844 59.9601C89.4564 59.7841 89.779 59.6961 90.1524 59.6961ZM89.9204 60.5201C89.6857 60.5201 89.475 60.5787 89.2884 60.6961C89.107 60.8081 88.9657 60.9654 88.8644 61.1681C88.763 61.3654 88.7124 61.5947 88.7124 61.8561C88.7124 62.1174 88.763 62.3494 88.8644 62.5521C88.9657 62.7547 89.107 62.9121 89.2884 63.0241C89.475 63.1361 89.6857 63.1921 89.9204 63.1921C90.1604 63.1921 90.3684 63.1361 90.5444 63.0241C90.7257 62.9067 90.867 62.7494 90.9684 62.5521C91.0697 62.3494 91.1204 62.1174 91.1204 61.8561C91.1204 61.5947 91.0697 61.3654 90.9684 61.1681C90.867 60.9654 90.7257 60.8081 90.5444 60.6961C90.3684 60.5787 90.1604 60.5201 89.9204 60.5201ZM87.6724 59.7361H88.7124V65.5521H87.6724V59.7361ZM94.9497 59.6961C95.3924 59.6961 95.7817 59.7867 96.1177 59.9681C96.459 60.1494 96.723 60.4027 96.9097 60.7281C97.1017 61.0534 97.1977 61.4321 97.1977 61.8641C97.1977 62.2961 97.1017 62.6747 96.9097 63.0001C96.723 63.3254 96.459 63.5814 96.1177 63.7681C95.7817 63.9494 95.3924 64.0401 94.9497 64.0401C94.5017 64.0401 94.107 63.9494 93.7657 63.7681C93.4244 63.5814 93.1577 63.3254 92.9657 63.0001C92.779 62.6747 92.6857 62.2961 92.6857 61.8641C92.6857 61.4321 92.779 61.0534 92.9657 60.7281C93.1577 60.4027 93.4244 60.1494 93.7657 59.9681C94.107 59.7867 94.5017 59.6961 94.9497 59.6961ZM94.9497 60.5361C94.7097 60.5361 94.4964 60.5947 94.3097 60.7121C94.1284 60.8241 93.987 60.9814 93.8857 61.1841C93.7844 61.3814 93.7337 61.6107 93.7337 61.8721C93.7337 62.1387 93.7844 62.3734 93.8857 62.5761C93.987 62.7787 94.1284 62.9361 94.3097 63.0481C94.4964 63.1601 94.7097 63.2161 94.9497 63.2161C95.1844 63.2161 95.3924 63.1601 95.5737 63.0481C95.755 62.9361 95.8964 62.7787 95.9977 62.5761C96.099 62.3734 96.1497 62.1387 96.1497 61.8721C96.1497 61.6107 96.099 61.3814 95.9977 61.1841C95.8964 60.9814 95.755 60.8241 95.5737 60.7121C95.3924 60.5947 95.1844 60.5361 94.9497 60.5361ZM101.213 61.6161C101.213 61.3067 101.128 61.0641 100.957 60.8881C100.792 60.7121 100.56 60.6241 100.261 60.6241C99.9145 60.6241 99.6398 60.7467 99.4371 60.9921C99.2398 61.2321 99.1411 61.5361 99.1411 61.9041H98.8611C98.8611 61.3814 98.9331 60.9601 99.0771 60.6401C99.2265 60.3147 99.4371 60.0774 99.7091 59.9281C99.9865 59.7734 100.309 59.6961 100.677 59.6961C101.008 59.6961 101.29 59.7627 101.525 59.8961C101.76 60.0294 101.941 60.2187 102.069 60.4641C102.197 60.7041 102.261 60.9947 102.261 61.3361V64.0001H101.213V61.6161ZM98.1011 59.7361H99.1411V64.0001H98.1011V59.7361ZM105.965 60.8481C105.757 60.7254 105.541 60.6321 105.317 60.5681C105.093 60.4987 104.891 60.4641 104.709 60.4641C104.539 60.4641 104.4 60.4961 104.293 60.5601C104.187 60.6187 104.133 60.7201 104.133 60.8641C104.133 60.9867 104.187 61.0854 104.293 61.1601C104.405 61.2347 104.547 61.2987 104.717 61.3521C104.888 61.4001 105.069 61.4534 105.261 61.5121C105.453 61.5707 105.635 61.6481 105.805 61.7441C105.981 61.8401 106.123 61.9681 106.229 62.1281C106.341 62.2881 106.397 62.4987 106.397 62.7601C106.397 63.0481 106.32 63.2881 106.165 63.4801C106.011 63.6667 105.805 63.8081 105.549 63.9041C105.293 63.9947 105.013 64.0401 104.709 64.0401C104.389 64.0401 104.069 63.9894 103.749 63.8881C103.435 63.7867 103.165 63.6374 102.941 63.4401L103.301 62.7441C103.499 62.9147 103.731 63.0481 103.997 63.1441C104.269 63.2347 104.52 63.2801 104.749 63.2801C104.872 63.2801 104.981 63.2641 105.077 63.2321C105.173 63.2001 105.248 63.1547 105.301 63.0961C105.355 63.0321 105.381 62.9494 105.381 62.8481C105.381 62.7094 105.328 62.6027 105.221 62.5281C105.115 62.4481 104.976 62.3814 104.805 62.3281C104.64 62.2694 104.461 62.2134 104.269 62.1601C104.077 62.1014 103.896 62.0267 103.725 61.9361C103.56 61.8401 103.424 61.7147 103.317 61.5601C103.211 61.4054 103.157 61.2001 103.157 60.9441C103.157 60.6561 103.232 60.4187 103.381 60.2321C103.531 60.0454 103.728 59.9094 103.973 59.8241C104.219 59.7334 104.485 59.6881 104.773 59.6881C105.051 59.6881 105.328 59.7281 105.605 59.8081C105.883 59.8827 106.128 59.9894 106.341 60.1281L105.965 60.8481ZM110.177 61.5441C110.166 61.3201 110.115 61.1307 110.025 60.9761C109.934 60.8161 109.806 60.6934 109.641 60.6081C109.481 60.5174 109.297 60.4721 109.089 60.4721C108.849 60.4721 108.641 60.5281 108.465 60.6401C108.289 60.7521 108.15 60.9094 108.049 61.1121C107.953 61.3147 107.905 61.5494 107.905 61.8161C107.905 62.1094 107.958 62.3627 108.065 62.5761C108.177 62.7894 108.329 62.9547 108.521 63.0721C108.713 63.1841 108.934 63.2401 109.185 63.2401C109.638 63.2401 110.025 63.0774 110.345 62.7521L110.897 63.3041C110.683 63.5387 110.425 63.7201 110.121 63.8481C109.817 63.9761 109.478 64.0401 109.105 64.0401C108.657 64.0401 108.267 63.9494 107.937 63.7681C107.611 63.5814 107.355 63.3281 107.169 63.0081C106.987 62.6827 106.897 62.3041 106.897 61.8721C106.897 61.4401 106.987 61.0614 107.169 60.7361C107.355 60.4107 107.611 60.1574 107.937 59.9761C108.267 59.7947 108.646 59.7014 109.073 59.6961C109.579 59.6961 109.987 59.8001 110.297 60.0081C110.611 60.2161 110.835 60.5094 110.969 60.8881C111.102 61.2614 111.15 61.7067 111.113 62.2241H107.753V61.5441H110.177ZM114.559 60.8481C114.351 60.7254 114.135 60.6321 113.911 60.5681C113.687 60.4987 113.484 60.4641 113.303 60.4641C113.132 60.4641 112.994 60.4961 112.887 60.5601C112.78 60.6187 112.727 60.7201 112.727 60.8641C112.727 60.9867 112.78 61.0854 112.887 61.1601C112.999 61.2347 113.14 61.2987 113.311 61.3521C113.482 61.4001 113.663 61.4534 113.855 61.5121C114.047 61.5707 114.228 61.6481 114.399 61.7441C114.575 61.8401 114.716 61.9681 114.823 62.1281C114.935 62.2881 114.991 62.4987 114.991 62.7601C114.991 63.0481 114.914 63.2881 114.759 63.4801C114.604 63.6667 114.399 63.8081 114.143 63.9041C113.887 63.9947 113.607 64.0401 113.303 64.0401C112.983 64.0401 112.663 63.9894 112.343 63.8881C112.028 63.7867 111.759 63.6374 111.535 63.4401L111.895 62.7441C112.092 62.9147 112.324 63.0481 112.591 63.1441C112.863 63.2347 113.114 63.2801 113.343 63.2801C113.466 63.2801 113.575 63.2641 113.671 63.2321C113.767 63.2001 113.842 63.1547 113.895 63.0961C113.948 63.0321 113.975 62.9494 113.975 62.8481C113.975 62.7094 113.922 62.6027 113.815 62.5281C113.708 62.4481 113.57 62.3814 113.399 62.3281C113.234 62.2694 113.055 62.2134 112.863 62.1601C112.671 62.1014 112.49 62.0267 112.319 61.9361C112.154 61.8401 112.018 61.7147 111.911 61.5601C111.804 61.4054 111.751 61.2001 111.751 60.9441C111.751 60.6561 111.826 60.4187 111.975 60.2321C112.124 60.0454 112.322 59.9094 112.567 59.8241C112.812 59.7334 113.079 59.6881 113.367 59.6881C113.644 59.6881 113.922 59.7281 114.199 59.8081C114.476 59.8827 114.722 59.9894 114.935 60.1281L114.559 60.8481ZM119.479 62.1201C119.207 62.1201 119.004 62.1627 118.871 62.2481C118.737 62.3334 118.671 62.4747 118.671 62.6721C118.671 62.8534 118.737 63.0001 118.871 63.1121C119.009 63.2241 119.196 63.2801 119.431 63.2801C119.639 63.2801 119.825 63.2454 119.991 63.1761C120.161 63.1014 120.295 63.0027 120.391 62.8801C120.492 62.7521 120.551 62.6107 120.567 62.4561L120.743 63.2001C120.615 63.4774 120.417 63.6881 120.151 63.8321C119.884 63.9761 119.561 64.0481 119.183 64.0481C118.879 64.0481 118.615 63.9894 118.391 63.8721C118.167 63.7547 117.993 63.5974 117.871 63.4001C117.748 63.1974 117.687 62.9707 117.687 62.7201C117.687 62.3254 117.828 62.0161 118.111 61.7921C118.393 61.5627 118.793 61.4454 119.311 61.4401H120.679V62.1201H119.479ZM120.559 61.3121C120.559 61.0561 120.476 60.8561 120.311 60.7121C120.151 60.5627 119.911 60.4881 119.591 60.4881C119.393 60.4881 119.185 60.5254 118.967 60.6001C118.753 60.6694 118.537 60.7707 118.319 60.9041L117.943 60.2321C118.145 60.1094 118.34 60.0107 118.527 59.9361C118.713 59.8561 118.908 59.7974 119.111 59.7601C119.319 59.7174 119.556 59.6961 119.823 59.6961C120.383 59.6961 120.815 59.8294 121.119 60.0961C121.423 60.3627 121.577 60.7307 121.583 61.2001L121.591 64.0001H120.567L120.559 61.3121ZM125.869 61.6161C125.869 61.3067 125.784 61.0641 125.613 60.8881C125.448 60.7121 125.216 60.6241 124.917 60.6241C124.571 60.6241 124.296 60.7467 124.093 60.9921C123.896 61.2321 123.797 61.5361 123.797 61.9041H123.517C123.517 61.3814 123.589 60.9601 123.733 60.6401C123.883 60.3147 124.093 60.0774 124.365 59.9281C124.643 59.7734 124.965 59.6961 125.333 59.6961C125.664 59.6961 125.947 59.7627 126.181 59.8961C126.416 60.0294 126.597 60.2187 126.725 60.4641C126.853 60.7041 126.917 60.9947 126.917 61.3361V64.0001H125.869V61.6161ZM122.757 59.7361H123.797V64.0001H122.757V59.7361ZM129.71 59.6881C130.099 59.6881 130.43 59.7761 130.702 59.9521C130.974 60.1281 131.182 60.3787 131.326 60.7041C131.47 61.0241 131.539 61.4107 131.534 61.8641C131.539 62.3121 131.47 62.7014 131.326 63.0321C131.187 63.3574 130.982 63.6081 130.71 63.7841C130.438 63.9547 130.112 64.0401 129.734 64.0401C129.328 64.0401 128.971 63.9494 128.662 63.7681C128.358 63.5814 128.12 63.3227 127.95 62.9921C127.779 62.6614 127.694 62.2827 127.694 61.8561C127.694 61.4241 127.779 61.0454 127.95 60.7201C128.12 60.3947 128.355 60.1414 128.654 59.9601C128.958 59.7787 129.31 59.6881 129.71 59.6881ZM129.958 60.5281C129.723 60.5281 129.512 60.5867 129.326 60.7041C129.144 60.8214 129.003 60.9814 128.902 61.1841C128.8 61.3867 128.747 61.6187 128.742 61.8801C128.747 62.1414 128.8 62.3734 128.902 62.5761C129.003 62.7787 129.144 62.9387 129.326 63.0561C129.512 63.1681 129.723 63.2241 129.958 63.2241C130.198 63.2241 130.408 63.1681 130.59 63.0561C130.776 62.9387 130.92 62.7787 131.022 62.5761C131.123 62.3734 131.174 62.1414 131.174 61.8801C131.174 61.6134 131.123 61.3814 131.022 61.1841C130.92 60.9814 130.776 60.8214 130.59 60.7041C130.408 60.5867 130.198 60.5281 129.958 60.5281ZM131.174 58.0641H132.214V64.0001H131.174V58.0641ZM135.895 59.4881C135.895 59.1574 135.967 58.8827 136.111 58.6641C136.255 58.4454 136.441 58.2827 136.671 58.1761C136.9 58.0694 137.148 58.0161 137.415 58.0161C137.548 58.0161 137.681 58.0347 137.815 58.0721C137.953 58.1041 138.081 58.1494 138.199 58.2081L138.015 59.0001C137.935 58.9681 137.849 58.9387 137.759 58.9121C137.668 58.8854 137.577 58.8721 137.487 58.8721C137.391 58.8667 137.3 58.8854 137.215 58.9281C137.129 58.9654 137.06 59.0267 137.007 59.1121C136.959 59.1921 136.935 59.2987 136.935 59.4321V64.0001H135.895V59.4881ZM135.335 59.8961H138.007V60.6241H135.335V59.8961ZM141.434 61.5441C141.424 61.3201 141.373 61.1307 141.282 60.9761C141.192 60.8161 141.064 60.6934 140.898 60.6081C140.738 60.5174 140.554 60.4721 140.346 60.4721C140.106 60.4721 139.898 60.5281 139.722 60.6401C139.546 60.7521 139.408 60.9094 139.306 61.1121C139.21 61.3147 139.162 61.5494 139.162 61.8161C139.162 62.1094 139.216 62.3627 139.322 62.5761C139.434 62.7894 139.586 62.9547 139.778 63.0721C139.97 63.1841 140.192 63.2401 140.442 63.2401C140.896 63.2401 141.282 63.0774 141.602 62.7521L142.154 63.3041C141.941 63.5387 141.682 63.7201 141.378 63.8481C141.074 63.9761 140.736 64.0401 140.362 64.0401C139.914 64.0401 139.525 63.9494 139.194 63.7681C138.869 63.5814 138.613 63.3281 138.426 63.0081C138.245 62.6827 138.154 62.3041 138.154 61.8721C138.154 61.4401 138.245 61.0614 138.426 60.7361C138.613 60.4107 138.869 60.1574 139.194 59.9761C139.525 59.7947 139.904 59.7014 140.33 59.6961C140.837 59.6961 141.245 59.8001 141.554 60.0081C141.869 60.2161 142.093 60.5094 142.226 60.8881C142.36 61.2614 142.408 61.7067 142.37 62.2241H139.01V61.5441H141.434ZM146.169 61.5441C146.158 61.3201 146.107 61.1307 146.017 60.9761C145.926 60.8161 145.798 60.6934 145.633 60.6081C145.473 60.5174 145.289 60.4721 145.081 60.4721C144.841 60.4721 144.633 60.5281 144.457 60.6401C144.281 60.7521 144.142 60.9094 144.041 61.1121C143.945 61.3147 143.897 61.5494 143.897 61.8161C143.897 62.1094 143.95 62.3627 144.057 62.5761C144.169 62.7894 144.321 62.9547 144.513 63.0721C144.705 63.1841 144.926 63.2401 145.177 63.2401C145.63 63.2401 146.017 63.0774 146.337 62.7521L146.889 63.3041C146.675 63.5387 146.417 63.7201 146.113 63.8481C145.809 63.9761 145.47 64.0401 145.097 64.0401C144.649 64.0401 144.259 63.9494 143.929 63.7681C143.603 63.5814 143.347 63.3281 143.161 63.0081C142.979 62.6827 142.889 62.3041 142.889 61.8721C142.889 61.4401 142.979 61.0614 143.161 60.7361C143.347 60.4107 143.603 60.1574 143.929 59.9761C144.259 59.7947 144.638 59.7014 145.065 59.6961C145.571 59.6961 145.979 59.8001 146.289 60.0081C146.603 60.2161 146.827 60.5094 146.961 60.8881C147.094 61.2614 147.142 61.7067 147.105 62.2241H143.745V61.5441H146.169ZM149.639 59.6881C150.029 59.6881 150.359 59.7761 150.631 59.9521C150.903 60.1281 151.111 60.3787 151.255 60.7041C151.399 61.0241 151.469 61.4107 151.463 61.8641C151.469 62.3121 151.399 62.7014 151.255 63.0321C151.117 63.3574 150.911 63.6081 150.639 63.7841C150.367 63.9547 150.042 64.0401 149.663 64.0401C149.258 64.0401 148.901 63.9494 148.591 63.7681C148.287 63.5814 148.05 63.3227 147.879 62.9921C147.709 62.6614 147.623 62.2827 147.623 61.8561C147.623 61.4241 147.709 61.0454 147.879 60.7201C148.05 60.3947 148.285 60.1414 148.583 59.9601C148.887 59.7787 149.239 59.6881 149.639 59.6881ZM149.887 60.5281C149.653 60.5281 149.442 60.5867 149.255 60.7041C149.074 60.8214 148.933 60.9814 148.831 61.1841C148.73 61.3867 148.677 61.6187 148.671 61.8801C148.677 62.1414 148.73 62.3734 148.831 62.5761C148.933 62.7787 149.074 62.9387 149.255 63.0561C149.442 63.1681 149.653 63.2241 149.887 63.2241C150.127 63.2241 150.338 63.1681 150.519 63.0561C150.706 62.9387 150.85 62.7787 150.951 62.5761C151.053 62.3734 151.103 62.1414 151.103 61.8801C151.103 61.6134 151.053 61.3814 150.951 61.1841C150.85 60.9814 150.706 60.8214 150.519 60.7041C150.338 60.5867 150.127 60.5281 149.887 60.5281ZM151.103 58.0641H152.143V64.0001H151.103V58.0641ZM155.996 59.6961C156.401 59.6961 156.756 59.7867 157.06 59.9681C157.364 60.1494 157.599 60.4054 157.764 60.7361C157.935 61.0614 158.02 61.4427 158.02 61.8801C158.02 62.3067 157.937 62.6827 157.772 63.0081C157.607 63.3281 157.372 63.5814 157.068 63.7681C156.769 63.9494 156.417 64.0401 156.012 64.0401C155.633 64.0401 155.308 63.9547 155.036 63.7841C154.764 63.6081 154.556 63.3574 154.412 63.0321C154.268 62.7067 154.196 62.3227 154.196 61.8801C154.196 61.4214 154.265 61.0294 154.404 60.7041C154.548 60.3787 154.756 60.1307 155.028 59.9601C155.3 59.7841 155.623 59.6961 155.996 59.6961ZM155.764 60.5201C155.529 60.5201 155.319 60.5787 155.132 60.6961C154.951 60.8081 154.809 60.9654 154.708 61.1681C154.607 61.3654 154.556 61.5947 154.556 61.8561C154.556 62.1174 154.607 62.3494 154.708 62.5521C154.809 62.7547 154.951 62.9121 155.132 63.0241C155.319 63.1361 155.529 63.1921 155.764 63.1921C156.004 63.1921 156.212 63.1361 156.388 63.0241C156.569 62.9067 156.711 62.7494 156.812 62.5521C156.913 62.3494 156.964 62.1174 156.964 61.8561C156.964 61.5947 156.913 61.3654 156.812 61.1681C156.711 60.9654 156.569 60.8081 156.388 60.6961C156.212 60.5787 156.004 60.5201 155.764 60.5201ZM153.516 58.0641H154.556V64.0001H153.516V58.0641ZM160.361 62.1201C160.089 62.1201 159.887 62.1627 159.753 62.2481C159.62 62.3334 159.553 62.4747 159.553 62.6721C159.553 62.8534 159.62 63.0001 159.753 63.1121C159.892 63.2241 160.079 63.2801 160.313 63.2801C160.521 63.2801 160.708 63.2454 160.873 63.1761C161.044 63.1014 161.177 63.0027 161.273 62.8801C161.375 62.7521 161.433 62.6107 161.449 62.4561L161.625 63.2001C161.497 63.4774 161.3 63.6881 161.033 63.8321C160.767 63.9761 160.444 64.0481 160.065 64.0481C159.761 64.0481 159.497 63.9894 159.273 63.8721C159.049 63.7547 158.876 63.5974 158.753 63.4001C158.631 63.1974 158.569 62.9707 158.569 62.7201C158.569 62.3254 158.711 62.0161 158.993 61.7921C159.276 61.5627 159.676 61.4454 160.193 61.4401H161.561V62.1201H160.361ZM161.441 61.3121C161.441 61.0561 161.359 60.8561 161.193 60.7121C161.033 60.5627 160.793 60.4881 160.473 60.4881C160.276 60.4881 160.068 60.5254 159.849 60.6001C159.636 60.6694 159.42 60.7707 159.201 60.9041L158.825 60.2321C159.028 60.1094 159.223 60.0107 159.409 59.9361C159.596 59.8561 159.791 59.7974 159.993 59.7601C160.201 59.7174 160.439 59.6961 160.705 59.6961C161.265 59.6961 161.697 59.8294 162.001 60.0961C162.305 60.3627 162.46 60.7307 162.465 61.2001L162.473 64.0001H161.449L161.441 61.3121ZM166.584 61.0321C166.451 60.8827 166.288 60.7681 166.096 60.6881C165.91 60.6027 165.699 60.5601 165.464 60.5601C165.235 60.5601 165.032 60.6161 164.856 60.7281C164.68 60.8347 164.542 60.9867 164.44 61.1841C164.344 61.3814 164.296 61.6107 164.296 61.8721C164.296 62.1334 164.344 62.3627 164.44 62.5601C164.542 62.7574 164.68 62.9121 164.856 63.0241C165.032 63.1361 165.235 63.1921 165.464 63.1921C165.71 63.1921 165.931 63.1494 166.128 63.0641C166.326 62.9787 166.488 62.8507 166.616 62.6801L167.264 63.2081C167.078 63.4694 166.827 63.6747 166.512 63.8241C166.198 63.9681 165.832 64.0401 165.416 64.0401C164.99 64.0401 164.614 63.9494 164.288 63.7681C163.963 63.5814 163.707 63.3281 163.52 63.0081C163.339 62.6827 163.248 62.3041 163.248 61.8721C163.248 61.4401 163.339 61.0614 163.52 60.7361C163.707 60.4107 163.963 60.1574 164.288 59.9761C164.614 59.7894 164.99 59.6961 165.416 59.6961C165.816 59.6961 166.168 59.7627 166.472 59.8961C166.776 60.0241 167.027 60.2054 167.224 60.4401L166.584 61.0321ZM168.196 58.0641H169.236V64.0001H168.196V58.0641ZM170.996 59.7361H172.188L169.164 62.8801V61.6401L170.996 59.7361ZM170.524 61.2401L172.292 64.0001H171.052L169.748 61.8721L170.524 61.2401ZM177.692 60.8481C177.484 60.7254 177.268 60.6321 177.044 60.5681C176.82 60.4987 176.617 60.4641 176.436 60.4641C176.265 60.4641 176.126 60.4961 176.02 60.5601C175.913 60.6187 175.86 60.7201 175.86 60.8641C175.86 60.9867 175.913 61.0854 176.02 61.1601C176.132 61.2347 176.273 61.2987 176.444 61.3521C176.614 61.4001 176.796 61.4534 176.988 61.5121C177.18 61.5707 177.361 61.6481 177.532 61.7441C177.708 61.8401 177.849 61.9681 177.956 62.1281C178.068 62.2881 178.124 62.4987 178.124 62.7601C178.124 63.0481 178.046 63.2881 177.892 63.4801C177.737 63.6667 177.532 63.8081 177.276 63.9041C177.02 63.9947 176.74 64.0401 176.436 64.0401C176.116 64.0401 175.796 63.9894 175.476 63.8881C175.161 63.7867 174.892 63.6374 174.668 63.4401L175.028 62.7441C175.225 62.9147 175.457 63.0481 175.724 63.1441C175.996 63.2347 176.246 63.2801 176.476 63.2801C176.598 63.2801 176.708 63.2641 176.804 63.2321C176.9 63.2001 176.974 63.1547 177.028 63.0961C177.081 63.0321 177.108 62.9494 177.108 62.8481C177.108 62.7094 177.054 62.6027 176.948 62.5281C176.841 62.4481 176.702 62.3814 176.532 62.3281C176.366 62.2694 176.188 62.2134 175.996 62.1601C175.804 62.1014 175.622 62.0267 175.452 61.9361C175.286 61.8401 175.15 61.7147 175.044 61.5601C174.937 61.4054 174.884 61.2001 174.884 60.9441C174.884 60.6561 174.958 60.4187 175.108 60.2321C175.257 60.0454 175.454 59.9094 175.7 59.8241C175.945 59.7334 176.212 59.6881 176.5 59.6881C176.777 59.6881 177.054 59.7281 177.332 59.8081C177.609 59.8827 177.854 59.9894 178.068 60.1281L177.692 60.8481ZM179.927 62.1121C179.927 62.4214 180.007 62.6667 180.167 62.8481C180.333 63.0241 180.559 63.1121 180.847 63.1121C181.183 63.1014 181.445 62.9761 181.631 62.7361C181.823 62.4961 181.919 62.1947 181.919 61.8321H182.191C182.191 62.3494 182.119 62.7707 181.975 63.0961C181.831 63.4161 181.629 63.6534 181.367 63.8081C181.106 63.9574 180.794 64.0347 180.431 64.0401C180.111 64.0401 179.834 63.9734 179.599 63.8401C179.37 63.7067 179.191 63.5174 179.063 63.2721C178.941 63.0214 178.879 62.7281 178.879 62.3921V59.7361H179.927V62.1121ZM181.919 59.7361H182.967V64.0001H181.919V59.7361ZM186.761 60.6401C186.463 60.6187 186.204 60.6641 185.985 60.7761C185.767 60.8827 185.599 61.0374 185.481 61.2401C185.364 61.4427 185.305 61.6747 185.305 61.9361L185.025 61.9041C185.025 61.4294 185.095 61.0294 185.233 60.7041C185.372 60.3734 185.572 60.1227 185.833 59.9521C186.095 59.7814 186.404 59.6961 186.761 59.6961V60.6401ZM184.265 59.7361H185.305V64.0001H184.265V59.7361ZM187.039 59.7361H188.127L189.247 63.0401L190.343 59.7361H191.391L189.759 64.0001H188.687L187.039 59.7361ZM194.731 61.5441C194.721 61.3201 194.67 61.1307 194.579 60.9761C194.489 60.8161 194.361 60.6934 194.195 60.6081C194.035 60.5174 193.851 60.4721 193.643 60.4721C193.403 60.4721 193.195 60.5281 193.019 60.6401C192.843 60.7521 192.705 60.9094 192.603 61.1121C192.507 61.3147 192.459 61.5494 192.459 61.8161C192.459 62.1094 192.513 62.3627 192.619 62.5761C192.731 62.7894 192.883 62.9547 193.075 63.0721C193.267 63.1841 193.489 63.2401 193.739 63.2401C194.193 63.2401 194.579 63.0774 194.899 62.7521L195.451 63.3041C195.238 63.5387 194.979 63.7201 194.675 63.8481C194.371 63.9761 194.033 64.0401 193.659 64.0401C193.211 64.0401 192.822 63.9494 192.491 63.7681C192.166 63.5814 191.91 63.3281 191.723 63.0081C191.542 62.6827 191.451 62.3041 191.451 61.8721C191.451 61.4401 191.542 61.0614 191.723 60.7361C191.91 60.4107 192.166 60.1574 192.491 59.9761C192.822 59.7947 193.201 59.7014 193.627 59.6961C194.134 59.6961 194.542 59.8001 194.851 60.0081C195.166 60.2161 195.39 60.5094 195.523 60.8881C195.657 61.2614 195.705 61.7067 195.667 62.2241H192.307V61.5441H194.731ZM198.261 64.5601C198.123 64.9014 197.931 65.1601 197.685 65.3361C197.44 65.5121 197.147 65.6001 196.805 65.6001C196.597 65.6001 196.408 65.5681 196.237 65.5041C196.072 65.4401 195.907 65.3467 195.741 65.2241L196.189 64.4721C196.381 64.6161 196.565 64.6881 196.741 64.6881C196.88 64.6881 197 64.6507 197.101 64.5761C197.208 64.5014 197.296 64.3867 197.365 64.2321L197.493 63.9361L195.725 59.7361H196.805L198.021 62.9041L199.133 59.7361H200.181L198.261 64.5601ZM203.27 60.8481C203.062 60.7254 202.846 60.6321 202.622 60.5681C202.398 60.4987 202.195 60.4641 202.014 60.4641C201.843 60.4641 201.705 60.4961 201.598 60.5601C201.491 60.6187 201.438 60.7201 201.438 60.8641C201.438 60.9867 201.491 61.0854 201.598 61.1601C201.71 61.2347 201.851 61.2987 202.022 61.3521C202.193 61.4001 202.374 61.4534 202.566 61.5121C202.758 61.5707 202.939 61.6481 203.11 61.7441C203.286 61.8401 203.427 61.9681 203.534 62.1281C203.646 62.2881 203.702 62.4987 203.702 62.7601C203.702 63.0481 203.625 63.2881 203.47 63.4801C203.315 63.6667 203.11 63.8081 202.854 63.9041C202.598 63.9947 202.318 64.0401 202.014 64.0401C201.694 64.0401 201.374 63.9894 201.054 63.8881C200.739 63.7867 200.47 63.6374 200.246 63.4401L200.606 62.7441C200.803 62.9147 201.035 63.0481 201.302 63.1441C201.574 63.2347 201.825 63.2801 202.054 63.2801C202.177 63.2801 202.286 63.2641 202.382 63.2321C202.478 63.2001 202.553 63.1547 202.606 63.0961C202.659 63.0321 202.686 62.9494 202.686 62.8481C202.686 62.7094 202.633 62.6027 202.526 62.5281C202.419 62.4481 202.281 62.3814 202.11 62.3281C201.945 62.2694 201.766 62.2134 201.574 62.1601C201.382 62.1014 201.201 62.0267 201.03 61.9361C200.865 61.8401 200.729 61.7147 200.622 61.5601C200.515 61.4054 200.462 61.2001 200.462 60.9441C200.462 60.6561 200.537 60.4187 200.686 60.2321C200.835 60.0454 201.033 59.9094 201.278 59.8241C201.523 59.7334 201.79 59.6881 202.078 59.6881C202.355 59.6881 202.633 59.7281 202.91 59.8081C203.187 59.8827 203.433 59.9894 203.646 60.1281L203.27 60.8481Z" fill="black"/>
</g>
<defs>
<filter id="filter0_d_1272_2029" x="0.5" y="-0.000244141" width="234" height="86.0003" filterUnits="userSpaceOnUse" color-interpolation-filters="sRGB">
<feFlood flood-opacity="0" result="BackgroundImageFix"/>
<feColorMatrix in="SourceAlpha" type="matrix" values="0 0 0 0 0 0 0 0 0 0 0 0 0 0 0 0 0 0 127 0" result="hardAlpha"/>
<feOffset dy="4"/>
<feGaussianBlur stdDeviation="2"/>
<feComposite in2="hardAlpha" operator="out"/>
<feColorMatrix type="matrix" values="0 0 0 0 0.698039 0 0 0 0 0.709804 0 0 0 0 0.717647 0 0 0 0.25 0"/>
<feBlend mode="normal" in2="BackgroundImageFix" result="effect1_dropShadow_1272_2029"/>
<feBlend mode="normal" in="SourceGraphic" in2="effect1_dropShadow_1272_2029" result="shape"/>
</filter>
</defs>
</svg>
