<svg width="213" height="62" viewBox="0 0 213 62" fill="none" xmlns="http://www.w3.org/2000/svg">
<g filter="url(#filter0_d_1272_1834)">
<path d="M209 29C209 42.8071 197.807 54 184 54L29 54C15.1929 54 4 42.8071 4 29L4 -3.31805e-05L184 -1.74444e-05C197.807 -1.62373e-05 209 11.1929 209 25L209 29Z" fill="#E373A4" fill-opacity="0.7" shape-rendering="crispEdges"/>
<path d="M34.464 15.6C35.528 15.6 36.352 15.852 36.936 16.356C37.52 16.86 37.812 17.568 37.812 18.48C37.812 19.432 37.52 20.172 36.936 20.7C36.352 21.228 35.528 21.492 34.464 21.492H31.932L32.64 20.784V24H31.032V15.6H34.464ZM34.392 20.16C34.992 20.16 35.452 20.024 35.772 19.752C36.1 19.48 36.264 19.068 36.264 18.516C36.264 17.988 36.1 17.596 35.772 17.34C35.452 17.076 34.992 16.944 34.392 16.944H31.932L32.64 16.236V20.868L31.932 20.16H34.392ZM43.4017 20.316C43.3857 19.98 43.3097 19.696 43.1737 19.464C43.0377 19.224 42.8457 19.04 42.5977 18.912C42.3577 18.776 42.0817 18.708 41.7697 18.708C41.4097 18.708 41.0977 18.792 40.8337 18.96C40.5697 19.128 40.3617 19.364 40.2097 19.668C40.0657 19.972 39.9937 20.324 39.9937 20.724C39.9937 21.164 40.0737 21.544 40.2337 21.864C40.4017 22.184 40.6297 22.432 40.9177 22.608C41.2057 22.776 41.5377 22.86 41.9137 22.86C42.5937 22.86 43.1737 22.616 43.6537 22.128L44.4817 22.956C44.1617 23.308 43.7737 23.58 43.3177 23.772C42.8617 23.964 42.3537 24.06 41.7937 24.06C41.1217 24.06 40.5377 23.924 40.0417 23.652C39.5537 23.372 39.1697 22.992 38.8897 22.512C38.6177 22.024 38.4817 21.456 38.4817 20.808C38.4817 20.16 38.6177 19.592 38.8897 19.104C39.1697 18.616 39.5537 18.236 40.0417 17.964C40.5377 17.692 41.1057 17.552 41.7457 17.544C42.5057 17.544 43.1177 17.7 43.5817 18.012C44.0537 18.324 44.3897 18.764 44.5897 19.332C44.7897 19.892 44.8617 20.56 44.8057 21.336H39.7657V20.316H43.4017ZM49.9152 18.96C49.4672 18.928 49.0792 18.996 48.7512 19.164C48.4232 19.324 48.1712 19.556 47.9952 19.86C47.8192 20.164 47.7312 20.512 47.7312 20.904L47.3112 20.856C47.3112 20.144 47.4152 19.544 47.6232 19.056C47.8312 18.56 48.1312 18.184 48.5232 17.928C48.9152 17.672 49.3792 17.544 49.9152 17.544V18.96ZM46.1712 17.604H47.7312V24H46.1712V17.604ZM54.8151 19.272C54.5031 19.088 54.1791 18.948 53.8431 18.852C53.5071 18.748 53.2031 18.696 52.9311 18.696C52.6751 18.696 52.4671 18.744 52.3071 18.84C52.1471 18.928 52.0671 19.08 52.0671 19.296C52.0671 19.48 52.1471 19.628 52.3071 19.74C52.4751 19.852 52.6871 19.948 52.9431 20.028C53.1991 20.1 53.4711 20.18 53.7591 20.268C54.0471 20.356 54.3191 20.472 54.5751 20.616C54.8391 20.76 55.0511 20.952 55.2111 21.192C55.3791 21.432 55.4631 21.748 55.4631 22.14C55.4631 22.572 55.3471 22.932 55.1151 23.22C54.8831 23.5 54.5751 23.712 54.1911 23.856C53.8071 23.992 53.3871 24.06 52.9311 24.06C52.4511 24.06 51.9711 23.984 51.4911 23.832C51.0191 23.68 50.6151 23.456 50.2791 23.16L50.8191 22.116C51.1151 22.372 51.4631 22.572 51.8631 22.716C52.2711 22.852 52.6471 22.92 52.9911 22.92C53.1751 22.92 53.3391 22.896 53.4831 22.848C53.6271 22.8 53.7391 22.732 53.8191 22.644C53.8991 22.548 53.9391 22.424 53.9391 22.272C53.9391 22.064 53.8591 21.904 53.6991 21.792C53.5391 21.672 53.3311 21.572 53.0751 21.492C52.8271 21.404 52.5591 21.32 52.2711 21.24C51.9831 21.152 51.7111 21.04 51.4551 20.904C51.2071 20.76 51.0031 20.572 50.8431 20.34C50.6831 20.108 50.6031 19.8 50.6031 19.416C50.6031 18.984 50.7151 18.628 50.9391 18.348C51.1631 18.068 51.4591 17.864 51.8271 17.736C52.1951 17.6 52.5951 17.532 53.0271 17.532C53.4431 17.532 53.8591 17.592 54.2751 17.712C54.6911 17.824 55.0591 17.984 55.3791 18.192L54.8151 19.272ZM59.6081 17.544C60.2721 17.544 60.8561 17.68 61.3601 17.952C61.8721 18.224 62.2681 18.604 62.5481 19.092C62.8361 19.58 62.9801 20.148 62.9801 20.796C62.9801 21.444 62.8361 22.012 62.5481 22.5C62.2681 22.988 61.8721 23.372 61.3601 23.652C60.8561 23.924 60.2721 24.06 59.6081 24.06C58.9361 24.06 58.3441 23.924 57.8321 23.652C57.3201 23.372 56.9201 22.988 56.6321 22.5C56.3521 22.012 56.2121 21.444 56.2121 20.796C56.2121 20.148 56.3521 19.58 56.6321 19.092C56.9201 18.604 57.3201 18.224 57.8321 17.952C58.3441 17.68 58.9361 17.544 59.6081 17.544ZM59.6081 18.804C59.2481 18.804 58.9281 18.892 58.6481 19.068C58.3761 19.236 58.1641 19.472 58.0121 19.776C57.8601 20.072 57.7841 20.416 57.7841 20.808C57.7841 21.208 57.8601 21.56 58.0121 21.864C58.1641 22.168 58.3761 22.404 58.6481 22.572C58.9281 22.74 59.2481 22.824 59.6081 22.824C59.9601 22.824 60.2721 22.74 60.5441 22.572C60.8161 22.404 61.0281 22.168 61.1801 21.864C61.3321 21.56 61.4081 21.208 61.4081 20.808C61.4081 20.416 61.3321 20.072 61.1801 19.776C61.0281 19.472 60.8161 19.236 60.5441 19.068C60.2721 18.892 59.9601 18.804 59.6081 18.804ZM69.0033 20.424C69.0033 19.96 68.8753 19.596 68.6193 19.332C68.3713 19.068 68.0233 18.936 67.5753 18.936C67.0553 18.936 66.6433 19.12 66.3393 19.488C66.0433 19.848 65.8953 20.304 65.8953 20.856H65.4753C65.4753 20.072 65.5833 19.44 65.7993 18.96C66.0233 18.472 66.3393 18.116 66.7473 17.892C67.1633 17.66 67.6473 17.544 68.1993 17.544C68.6953 17.544 69.1193 17.644 69.4713 17.844C69.8233 18.044 70.0953 18.328 70.2873 18.696C70.4793 19.056 70.5753 19.492 70.5753 20.004V24H69.0033V20.424ZM64.3353 17.604H65.8953V24H64.3353V17.604ZM74.4875 21.18C74.0795 21.18 73.7755 21.244 73.5755 21.372C73.3755 21.5 73.2755 21.712 73.2755 22.008C73.2755 22.28 73.3755 22.5 73.5755 22.668C73.7835 22.836 74.0635 22.92 74.4155 22.92C74.7275 22.92 75.0075 22.868 75.2555 22.764C75.5115 22.652 75.7115 22.504 75.8555 22.32C76.0075 22.128 76.0955 21.916 76.1195 21.684L76.3835 22.8C76.1915 23.216 75.8955 23.532 75.4955 23.748C75.0955 23.964 74.6115 24.072 74.0435 24.072C73.5875 24.072 73.1915 23.984 72.8555 23.808C72.5195 23.632 72.2595 23.396 72.0755 23.1C71.8915 22.796 71.7995 22.456 71.7995 22.08C71.7995 21.488 72.0115 21.024 72.4355 20.688C72.8595 20.344 73.4595 20.168 74.2355 20.16H76.2875V21.18H74.4875ZM76.1075 19.968C76.1075 19.584 75.9835 19.284 75.7355 19.068C75.4955 18.844 75.1355 18.732 74.6555 18.732C74.3595 18.732 74.0475 18.788 73.7195 18.9C73.3995 19.004 73.0755 19.156 72.7475 19.356L72.1835 18.348C72.4875 18.164 72.7795 18.016 73.0595 17.904C73.3395 17.784 73.6315 17.696 73.9355 17.64C74.2475 17.576 74.6035 17.544 75.0035 17.544C75.8435 17.544 76.4915 17.744 76.9475 18.144C77.4035 18.544 77.6355 19.096 77.6435 19.8L77.6555 24H76.1195L76.1075 19.968ZM79.4656 15.096H81.0256V24H79.4656V15.096ZM83.0267 17.604H84.5867V24H83.0267V17.604ZM83.7947 14.88C84.0507 14.88 84.2627 14.964 84.4307 15.132C84.5987 15.3 84.6827 15.512 84.6827 15.768C84.6827 16.016 84.5987 16.228 84.4307 16.404C84.2627 16.572 84.0507 16.656 83.7947 16.656C83.5467 16.656 83.3387 16.572 83.1707 16.404C83.0027 16.228 82.9187 16.016 82.9187 15.768C82.9187 15.512 83.0027 15.3 83.1707 15.132C83.3387 14.964 83.5467 14.88 83.7947 14.88ZM90.3229 19.272C90.0109 19.088 89.6869 18.948 89.3509 18.852C89.0149 18.748 88.7109 18.696 88.4389 18.696C88.1829 18.696 87.9749 18.744 87.8149 18.84C87.6549 18.928 87.5749 19.08 87.5749 19.296C87.5749 19.48 87.6549 19.628 87.8149 19.74C87.9829 19.852 88.1949 19.948 88.4509 20.028C88.7069 20.1 88.9789 20.18 89.2669 20.268C89.5549 20.356 89.8269 20.472 90.0829 20.616C90.3469 20.76 90.5589 20.952 90.7189 21.192C90.8869 21.432 90.9709 21.748 90.9709 22.14C90.9709 22.572 90.8549 22.932 90.6229 23.22C90.3909 23.5 90.0829 23.712 89.6989 23.856C89.3149 23.992 88.8949 24.06 88.4389 24.06C87.9589 24.06 87.4789 23.984 86.9989 23.832C86.5269 23.68 86.1229 23.456 85.7869 23.16L86.3269 22.116C86.6229 22.372 86.9709 22.572 87.3709 22.716C87.7789 22.852 88.1549 22.92 88.4989 22.92C88.6829 22.92 88.8469 22.896 88.9909 22.848C89.1349 22.8 89.2469 22.732 89.3269 22.644C89.4069 22.548 89.4469 22.424 89.4469 22.272C89.4469 22.064 89.3669 21.904 89.2069 21.792C89.0469 21.672 88.8389 21.572 88.5829 21.492C88.3349 21.404 88.0669 21.32 87.7789 21.24C87.4909 21.152 87.2189 21.04 86.9629 20.904C86.7149 20.76 86.5109 20.572 86.3509 20.34C86.1909 20.108 86.1109 19.8 86.1109 19.416C86.1109 18.984 86.2229 18.628 86.4469 18.348C86.6709 18.068 86.9669 17.864 87.3349 17.736C87.7029 17.6 88.1029 17.532 88.5349 17.532C88.9509 17.532 89.3669 17.592 89.7829 17.712C90.1989 17.824 90.5669 17.984 90.8869 18.192L90.3229 19.272ZM96.6399 20.316C96.6239 19.98 96.5479 19.696 96.4119 19.464C96.2759 19.224 96.0839 19.04 95.8359 18.912C95.5959 18.776 95.3199 18.708 95.0079 18.708C94.6479 18.708 94.3359 18.792 94.0719 18.96C93.8079 19.128 93.5999 19.364 93.4479 19.668C93.3039 19.972 93.2319 20.324 93.2319 20.724C93.2319 21.164 93.3119 21.544 93.4719 21.864C93.6399 22.184 93.8679 22.432 94.1559 22.608C94.4439 22.776 94.7759 22.86 95.1519 22.86C95.8319 22.86 96.4119 22.616 96.8919 22.128L97.7199 22.956C97.3999 23.308 97.0119 23.58 96.5559 23.772C96.0999 23.964 95.5919 24.06 95.0319 24.06C94.3599 24.06 93.7759 23.924 93.2799 23.652C92.7919 23.372 92.4079 22.992 92.1279 22.512C91.8559 22.024 91.7199 21.456 91.7199 20.808C91.7199 20.16 91.8559 19.592 92.1279 19.104C92.4079 18.616 92.7919 18.236 93.2799 17.964C93.7759 17.692 94.3439 17.552 94.9839 17.544C95.7439 17.544 96.3559 17.7 96.8199 18.012C97.2919 18.324 97.6279 18.764 97.8279 19.332C98.0279 19.892 98.0999 20.56 98.0439 21.336H93.0039V20.316H96.6399ZM106.976 20.316C106.96 19.98 106.884 19.696 106.748 19.464C106.612 19.224 106.42 19.04 106.172 18.912C105.932 18.776 105.656 18.708 105.344 18.708C104.984 18.708 104.672 18.792 104.408 18.96C104.144 19.128 103.936 19.364 103.784 19.668C103.64 19.972 103.568 20.324 103.568 20.724C103.568 21.164 103.648 21.544 103.808 21.864C103.976 22.184 104.204 22.432 104.492 22.608C104.78 22.776 105.112 22.86 105.488 22.86C106.168 22.86 106.748 22.616 107.228 22.128L108.056 22.956C107.736 23.308 107.348 23.58 106.892 23.772C106.436 23.964 105.928 24.06 105.368 24.06C104.696 24.06 104.112 23.924 103.616 23.652C103.128 23.372 102.744 22.992 102.464 22.512C102.192 22.024 102.056 21.456 102.056 20.808C102.056 20.16 102.192 19.592 102.464 19.104C102.744 18.616 103.128 18.236 103.616 17.964C104.112 17.692 104.68 17.552 105.32 17.544C106.08 17.544 106.692 17.7 107.156 18.012C107.628 18.324 107.964 18.764 108.164 19.332C108.364 19.892 108.436 20.56 108.38 21.336H103.34V20.316H106.976ZM114.413 20.424C114.413 19.96 114.285 19.596 114.029 19.332C113.781 19.068 113.433 18.936 112.985 18.936C112.465 18.936 112.053 19.12 111.749 19.488C111.453 19.848 111.305 20.304 111.305 20.856H110.885C110.885 20.072 110.993 19.44 111.209 18.96C111.433 18.472 111.749 18.116 112.157 17.892C112.573 17.66 113.057 17.544 113.609 17.544C114.105 17.544 114.529 17.644 114.881 17.844C115.233 18.044 115.505 18.328 115.697 18.696C115.889 19.056 115.985 19.492 115.985 20.004V24H114.413V20.424ZM109.745 17.604H111.305V24H109.745V17.604ZM123.606 23.376C123.606 23.992 123.466 24.524 123.186 24.972C122.914 25.42 122.526 25.764 122.022 26.004C121.518 26.252 120.926 26.376 120.246 26.376C119.726 26.376 119.238 26.3 118.782 26.148C118.334 25.996 117.918 25.792 117.534 25.536L118.158 24.468C118.454 24.684 118.766 24.852 119.094 24.972C119.422 25.092 119.778 25.152 120.162 25.152C120.546 25.152 120.878 25.08 121.158 24.936C121.446 24.792 121.666 24.592 121.818 24.336C121.97 24.08 122.046 23.776 122.046 23.424V17.604H123.606V23.376ZM119.958 17.544C120.51 17.536 120.982 17.656 121.374 17.904C121.766 18.152 122.066 18.504 122.274 18.96C122.482 19.416 122.582 19.964 122.574 20.604C122.582 21.244 122.482 21.796 122.274 22.26C122.074 22.716 121.782 23.068 121.398 23.316C121.014 23.564 120.55 23.688 120.006 23.688C119.438 23.688 118.938 23.56 118.506 23.304C118.082 23.04 117.75 22.676 117.51 22.212C117.27 21.74 117.15 21.2 117.15 20.592C117.15 19.984 117.266 19.456 117.498 19.008C117.738 18.552 118.07 18.196 118.494 17.94C118.918 17.676 119.406 17.544 119.958 17.544ZM120.342 18.732C120.014 18.732 119.718 18.812 119.454 18.972C119.198 19.132 118.998 19.356 118.854 19.644C118.71 19.932 118.634 20.26 118.626 20.628C118.634 20.996 118.71 21.324 118.854 21.612C118.998 21.9 119.198 22.124 119.454 22.284C119.71 22.444 120.006 22.524 120.342 22.524C120.678 22.524 120.974 22.444 121.23 22.284C121.486 22.124 121.686 21.9 121.83 21.612C121.974 21.324 122.046 20.996 122.046 20.628C122.046 20.252 121.974 19.924 121.83 19.644C121.686 19.356 121.486 19.132 121.23 18.972C120.974 18.812 120.678 18.732 120.342 18.732ZM127.597 21.18C127.189 21.18 126.885 21.244 126.685 21.372C126.485 21.5 126.385 21.712 126.385 22.008C126.385 22.28 126.485 22.5 126.685 22.668C126.893 22.836 127.173 22.92 127.525 22.92C127.837 22.92 128.117 22.868 128.365 22.764C128.621 22.652 128.821 22.504 128.965 22.32C129.117 22.128 129.205 21.916 129.229 21.684L129.493 22.8C129.301 23.216 129.005 23.532 128.605 23.748C128.205 23.964 127.721 24.072 127.153 24.072C126.697 24.072 126.301 23.984 125.965 23.808C125.629 23.632 125.369 23.396 125.185 23.1C125.001 22.796 124.909 22.456 124.909 22.08C124.909 21.488 125.121 21.024 125.545 20.688C125.969 20.344 126.569 20.168 127.345 20.16H129.397V21.18H127.597ZM129.217 19.968C129.217 19.584 129.093 19.284 128.845 19.068C128.605 18.844 128.245 18.732 127.765 18.732C127.469 18.732 127.157 18.788 126.829 18.9C126.509 19.004 126.185 19.156 125.857 19.356L125.293 18.348C125.597 18.164 125.889 18.016 126.169 17.904C126.449 17.784 126.741 17.696 127.045 17.64C127.357 17.576 127.713 17.544 128.113 17.544C128.953 17.544 129.601 17.744 130.057 18.144C130.513 18.544 130.745 19.096 130.753 19.8L130.765 24H129.229L129.217 19.968ZM138.383 23.376C138.383 23.992 138.243 24.524 137.963 24.972C137.691 25.42 137.303 25.764 136.799 26.004C136.295 26.252 135.703 26.376 135.023 26.376C134.503 26.376 134.015 26.3 133.559 26.148C133.111 25.996 132.695 25.792 132.311 25.536L132.935 24.468C133.231 24.684 133.543 24.852 133.871 24.972C134.199 25.092 134.555 25.152 134.939 25.152C135.323 25.152 135.655 25.08 135.935 24.936C136.223 24.792 136.443 24.592 136.595 24.336C136.747 24.08 136.823 23.776 136.823 23.424V17.604H138.383V23.376ZM134.735 17.544C135.287 17.536 135.759 17.656 136.151 17.904C136.543 18.152 136.843 18.504 137.051 18.96C137.259 19.416 137.359 19.964 137.351 20.604C137.359 21.244 137.259 21.796 137.051 22.26C136.851 22.716 136.559 23.068 136.175 23.316C135.791 23.564 135.327 23.688 134.783 23.688C134.215 23.688 133.715 23.56 133.283 23.304C132.859 23.04 132.527 22.676 132.287 22.212C132.047 21.74 131.927 21.2 131.927 20.592C131.927 19.984 132.043 19.456 132.275 19.008C132.515 18.552 132.847 18.196 133.271 17.94C133.695 17.676 134.183 17.544 134.735 17.544ZM135.119 18.732C134.791 18.732 134.495 18.812 134.231 18.972C133.975 19.132 133.775 19.356 133.631 19.644C133.487 19.932 133.411 20.26 133.403 20.628C133.411 20.996 133.487 21.324 133.631 21.612C133.775 21.9 133.975 22.124 134.231 22.284C134.487 22.444 134.783 22.524 135.119 22.524C135.455 22.524 135.751 22.444 136.007 22.284C136.263 22.124 136.463 21.9 136.607 21.612C136.751 21.324 136.823 20.996 136.823 20.628C136.823 20.252 136.751 19.924 136.607 19.644C136.463 19.356 136.263 19.132 136.007 18.972C135.751 18.812 135.455 18.732 135.119 18.732ZM144.546 20.316C144.53 19.98 144.454 19.696 144.318 19.464C144.182 19.224 143.99 19.04 143.742 18.912C143.502 18.776 143.226 18.708 142.914 18.708C142.554 18.708 142.242 18.792 141.978 18.96C141.714 19.128 141.506 19.364 141.354 19.668C141.21 19.972 141.138 20.324 141.138 20.724C141.138 21.164 141.218 21.544 141.378 21.864C141.546 22.184 141.774 22.432 142.062 22.608C142.35 22.776 142.682 22.86 143.058 22.86C143.738 22.86 144.318 22.616 144.798 22.128L145.626 22.956C145.306 23.308 144.918 23.58 144.462 23.772C144.006 23.964 143.498 24.06 142.938 24.06C142.266 24.06 141.682 23.924 141.186 23.652C140.698 23.372 140.314 22.992 140.034 22.512C139.762 22.024 139.626 21.456 139.626 20.808C139.626 20.16 139.762 19.592 140.034 19.104C140.314 18.616 140.698 18.236 141.186 17.964C141.682 17.692 142.25 17.552 142.89 17.544C143.65 17.544 144.262 17.7 144.726 18.012C145.198 18.324 145.534 18.764 145.734 19.332C145.934 19.892 146.006 20.56 145.95 21.336H140.91V20.316H144.546ZM151.9 20.424C151.9 19.952 151.776 19.584 151.528 19.32C151.288 19.056 150.948 18.924 150.508 18.924C150.004 18.932 149.604 19.12 149.308 19.488C149.02 19.848 148.876 20.3 148.876 20.844H148.456C148.456 20.068 148.564 19.44 148.78 18.96C148.996 18.472 149.304 18.116 149.704 17.892C150.112 17.66 150.588 17.544 151.132 17.544C151.62 17.544 152.036 17.644 152.38 17.844C152.732 18.044 153 18.328 153.184 18.696C153.376 19.056 153.472 19.492 153.472 20.004V24H151.9V20.424ZM156.496 20.424C156.496 19.952 156.372 19.584 156.124 19.32C155.876 19.056 155.532 18.924 155.092 18.924C154.588 18.932 154.192 19.12 153.904 19.488C153.616 19.848 153.472 20.3 153.472 20.844H153.052C153.052 20.068 153.16 19.44 153.376 18.96C153.592 18.472 153.9 18.116 154.3 17.892C154.7 17.66 155.176 17.544 155.728 17.544C156.208 17.544 156.62 17.644 156.964 17.844C157.316 18.044 157.588 18.328 157.78 18.696C157.972 19.056 158.068 19.492 158.068 20.004V24H156.496V20.424ZM147.316 17.604H148.876V24H147.316V17.604ZM164.14 20.316C164.124 19.98 164.048 19.696 163.912 19.464C163.776 19.224 163.584 19.04 163.336 18.912C163.096 18.776 162.82 18.708 162.508 18.708C162.148 18.708 161.836 18.792 161.572 18.96C161.308 19.128 161.1 19.364 160.948 19.668C160.804 19.972 160.732 20.324 160.732 20.724C160.732 21.164 160.812 21.544 160.972 21.864C161.14 22.184 161.368 22.432 161.656 22.608C161.944 22.776 162.276 22.86 162.652 22.86C163.332 22.86 163.912 22.616 164.392 22.128L165.22 22.956C164.9 23.308 164.512 23.58 164.056 23.772C163.6 23.964 163.092 24.06 162.532 24.06C161.86 24.06 161.276 23.924 160.78 23.652C160.292 23.372 159.908 22.992 159.628 22.512C159.356 22.024 159.22 21.456 159.22 20.808C159.22 20.16 159.356 19.592 159.628 19.104C159.908 18.616 160.292 18.236 160.78 17.964C161.276 17.692 161.844 17.552 162.484 17.544C163.244 17.544 163.856 17.7 164.32 18.012C164.792 18.324 165.128 18.764 165.328 19.332C165.528 19.892 165.6 20.56 165.544 21.336H160.504V20.316H164.14ZM171.578 20.424C171.578 19.96 171.45 19.596 171.194 19.332C170.946 19.068 170.598 18.936 170.15 18.936C169.63 18.936 169.218 19.12 168.914 19.488C168.618 19.848 168.47 20.304 168.47 20.856H168.05C168.05 20.072 168.158 19.44 168.374 18.96C168.598 18.472 168.914 18.116 169.322 17.892C169.738 17.66 170.222 17.544 170.774 17.544C171.27 17.544 171.694 17.644 172.046 17.844C172.398 18.044 172.67 18.328 172.862 18.696C173.054 19.056 173.15 19.492 173.15 20.004V24H171.578V20.424ZM166.91 17.604H168.47V24H166.91V17.604ZM176.714 21.912C176.714 22.232 176.774 22.452 176.894 22.572C177.014 22.692 177.178 22.752 177.386 22.752C177.514 22.752 177.654 22.732 177.806 22.692C177.958 22.644 178.122 22.572 178.298 22.476L178.658 23.604C178.418 23.748 178.158 23.864 177.878 23.952C177.606 24.032 177.33 24.072 177.05 24.072C176.706 24.072 176.39 24.008 176.102 23.88C175.814 23.744 175.586 23.536 175.418 23.256C175.25 22.968 175.166 22.608 175.166 22.176V16.092H176.714V21.912ZM174.266 17.844H178.55V18.936H174.266V17.844ZM33.132 36.18C32.724 36.18 32.42 36.244 32.22 36.372C32.02 36.5 31.92 36.712 31.92 37.008C31.92 37.28 32.02 37.5 32.22 37.668C32.428 37.836 32.708 37.92 33.06 37.92C33.372 37.92 33.652 37.868 33.9 37.764C34.156 37.652 34.356 37.504 34.5 37.32C34.652 37.128 34.74 36.916 34.764 36.684L35.028 37.8C34.836 38.216 34.54 38.532 34.14 38.748C33.74 38.964 33.256 39.072 32.688 39.072C32.232 39.072 31.836 38.984 31.5 38.808C31.164 38.632 30.904 38.396 30.72 38.1C30.536 37.796 30.444 37.456 30.444 37.08C30.444 36.488 30.656 36.024 31.08 35.688C31.504 35.344 32.104 35.168 32.88 35.16H34.932V36.18H33.132ZM34.752 34.968C34.752 34.584 34.628 34.284 34.38 34.068C34.14 33.844 33.78 33.732 33.3 33.732C33.004 33.732 32.692 33.788 32.364 33.9C32.044 34.004 31.72 34.156 31.392 34.356L30.828 33.348C31.132 33.164 31.424 33.016 31.704 32.904C31.984 32.784 32.276 32.696 32.58 32.64C32.892 32.576 33.248 32.544 33.648 32.544C34.488 32.544 35.136 32.744 35.592 33.144C36.048 33.544 36.28 34.096 36.288 34.8L36.3 39H34.764L34.752 34.968ZM42.7181 35.424C42.7181 34.96 42.5901 34.596 42.3341 34.332C42.0861 34.068 41.7381 33.936 41.2901 33.936C40.7701 33.936 40.3581 34.12 40.0541 34.488C39.7581 34.848 39.6101 35.304 39.6101 35.856H39.1901C39.1901 35.072 39.2981 34.44 39.5141 33.96C39.7381 33.472 40.0541 33.116 40.4621 32.892C40.8781 32.66 41.3621 32.544 41.9141 32.544C42.4101 32.544 42.8341 32.644 43.1861 32.844C43.5381 33.044 43.8101 33.328 44.0021 33.696C44.1941 34.056 44.2901 34.492 44.2901 35.004V39H42.7181V35.424ZM38.0501 32.604H39.6101V39H38.0501V32.604ZM48.4783 32.532C49.0623 32.532 49.5583 32.664 49.9663 32.928C50.3743 33.192 50.6863 33.568 50.9023 34.056C51.1183 34.536 51.2223 35.116 51.2143 35.796C51.2223 36.468 51.1183 37.052 50.9023 37.548C50.6943 38.036 50.3863 38.412 49.9783 38.676C49.5703 38.932 49.0823 39.06 48.5143 39.06C47.9063 39.06 47.3703 38.924 46.9063 38.652C46.4503 38.372 46.0943 37.984 45.8383 37.488C45.5823 36.992 45.4543 36.424 45.4543 35.784C45.4543 35.136 45.5823 34.568 45.8383 34.08C46.0943 33.592 46.4463 33.212 46.8943 32.94C47.3503 32.668 47.8783 32.532 48.4783 32.532ZM48.8503 33.792C48.4983 33.792 48.1823 33.88 47.9023 34.056C47.6303 34.232 47.4183 34.472 47.2663 34.776C47.1143 35.08 47.0343 35.428 47.0263 35.82C47.0343 36.212 47.1143 36.56 47.2663 36.864C47.4183 37.168 47.6303 37.408 47.9023 37.584C48.1823 37.752 48.4983 37.836 48.8503 37.836C49.2103 37.836 49.5263 37.752 49.7983 37.584C50.0783 37.408 50.2943 37.168 50.4463 36.864C50.5983 36.56 50.6743 36.212 50.6743 35.82C50.6743 35.42 50.5983 35.072 50.4463 34.776C50.2943 34.472 50.0783 34.232 49.7983 34.056C49.5263 33.88 49.2103 33.792 48.8503 33.792ZM50.6743 30.096H52.2343V39H50.6743V30.096ZM61.2121 33.96C60.7641 33.928 60.3761 33.996 60.0481 34.164C59.7201 34.324 59.4681 34.556 59.2921 34.86C59.1161 35.164 59.0281 35.512 59.0281 35.904L58.6081 35.856C58.6081 35.144 58.7121 34.544 58.9201 34.056C59.1281 33.56 59.4281 33.184 59.8201 32.928C60.2121 32.672 60.6761 32.544 61.2121 32.544V33.96ZM57.4681 32.604H59.0281V39H57.4681V32.604ZM66.6399 35.316C66.6239 34.98 66.5479 34.696 66.4119 34.464C66.2759 34.224 66.0839 34.04 65.8359 33.912C65.5959 33.776 65.3199 33.708 65.0079 33.708C64.6479 33.708 64.3359 33.792 64.0719 33.96C63.8079 34.128 63.5999 34.364 63.4479 34.668C63.3039 34.972 63.2319 35.324 63.2319 35.724C63.2319 36.164 63.3119 36.544 63.4719 36.864C63.6399 37.184 63.8679 37.432 64.1559 37.608C64.4439 37.776 64.7759 37.86 65.1519 37.86C65.8319 37.86 66.4119 37.616 66.8919 37.128L67.7199 37.956C67.3999 38.308 67.0119 38.58 66.5559 38.772C66.0999 38.964 65.5919 39.06 65.0319 39.06C64.3599 39.06 63.7759 38.924 63.2799 38.652C62.7919 38.372 62.4079 37.992 62.1279 37.512C61.8559 37.024 61.7199 36.456 61.7199 35.808C61.7199 35.16 61.8559 34.592 62.1279 34.104C62.4079 33.616 62.7919 33.236 63.2799 32.964C63.7759 32.692 64.3439 32.552 64.9839 32.544C65.7439 32.544 66.3559 32.7 66.8199 33.012C67.2919 33.324 67.6279 33.764 67.8279 34.332C68.0279 34.892 68.0999 35.56 68.0439 36.336H63.0039V35.316H66.6399ZM71.2215 36.912C71.2215 37.232 71.2815 37.452 71.4015 37.572C71.5215 37.692 71.6855 37.752 71.8935 37.752C72.0215 37.752 72.1615 37.732 72.3135 37.692C72.4655 37.644 72.6295 37.572 72.8055 37.476L73.1655 38.604C72.9255 38.748 72.6655 38.864 72.3855 38.952C72.1135 39.032 71.8375 39.072 71.5575 39.072C71.2135 39.072 70.8975 39.008 70.6095 38.88C70.3215 38.744 70.0935 38.536 69.9255 38.256C69.7575 37.968 69.6735 37.608 69.6735 37.176V31.092H71.2215V36.912ZM68.7735 32.844H73.0575V33.936H68.7735V32.844ZM76.55 36.18C76.142 36.18 75.838 36.244 75.638 36.372C75.438 36.5 75.338 36.712 75.338 37.008C75.338 37.28 75.438 37.5 75.638 37.668C75.846 37.836 76.126 37.92 76.478 37.92C76.79 37.92 77.07 37.868 77.318 37.764C77.574 37.652 77.774 37.504 77.918 37.32C78.07 37.128 78.158 36.916 78.182 36.684L78.446 37.8C78.254 38.216 77.958 38.532 77.558 38.748C77.158 38.964 76.674 39.072 76.106 39.072C75.65 39.072 75.254 38.984 74.918 38.808C74.582 38.632 74.322 38.396 74.138 38.1C73.954 37.796 73.862 37.456 73.862 37.08C73.862 36.488 74.074 36.024 74.498 35.688C74.922 35.344 75.522 35.168 76.298 35.16H78.35V36.18H76.55ZM78.17 34.968C78.17 34.584 78.046 34.284 77.798 34.068C77.558 33.844 77.198 33.732 76.718 33.732C76.422 33.732 76.11 33.788 75.782 33.9C75.462 34.004 75.138 34.156 74.81 34.356L74.246 33.348C74.55 33.164 74.842 33.016 75.122 32.904C75.402 32.784 75.694 32.696 75.998 32.64C76.31 32.576 76.666 32.544 77.066 32.544C77.906 32.544 78.554 32.744 79.01 33.144C79.466 33.544 79.698 34.096 79.706 34.8L79.718 39H78.182L78.17 34.968ZM81.4681 32.604H83.0281V39H81.4681V32.604ZM82.2361 29.88C82.4921 29.88 82.7041 29.964 82.8721 30.132C83.0401 30.3 83.1241 30.512 83.1241 30.768C83.1241 31.016 83.0401 31.228 82.8721 31.404C82.7041 31.572 82.4921 31.656 82.2361 31.656C81.9881 31.656 81.7801 31.572 81.6121 31.404C81.4441 31.228 81.3601 31.016 81.3601 30.768C81.3601 30.512 81.4441 30.3 81.6121 30.132C81.7801 29.964 81.9881 29.88 82.2361 29.88ZM89.6283 35.424C89.6283 34.96 89.5003 34.596 89.2443 34.332C88.9963 34.068 88.6483 33.936 88.2003 33.936C87.6803 33.936 87.2683 34.12 86.9643 34.488C86.6683 34.848 86.5203 35.304 86.5203 35.856H86.1003C86.1003 35.072 86.2083 34.44 86.4243 33.96C86.6483 33.472 86.9643 33.116 87.3723 32.892C87.7883 32.66 88.2723 32.544 88.8243 32.544C89.3203 32.544 89.7443 32.644 90.0963 32.844C90.4483 33.044 90.7203 33.328 90.9123 33.696C91.1043 34.056 91.2003 34.492 91.2003 35.004V39H89.6283V35.424ZM84.9603 32.604H86.5203V39H84.9603V32.604Z" fill="black"/>
</g>
<defs>
<filter id="filter0_d_1272_1834" x="0" y="0" width="213" height="62" filterUnits="userSpaceOnUse" color-interpolation-filters="sRGB">
<feFlood flood-opacity="0" result="BackgroundImageFix"/>
<feColorMatrix in="SourceAlpha" type="matrix" values="0 0 0 0 0 0 0 0 0 0 0 0 0 0 0 0 0 0 127 0" result="hardAlpha"/>
<feOffset dy="4"/>
<feGaussianBlur stdDeviation="2"/>
<feComposite in2="hardAlpha" operator="out"/>
<feColorMatrix type="matrix" values="0 0 0 0 0.698039 0 0 0 0 0.709804 0 0 0 0 0.717647 0 0 0 0.25 0"/>
<feBlend mode="normal" in2="BackgroundImageFix" result="effect1_dropShadow_1272_1834"/>
<feBlend mode="normal" in="SourceGraphic" in2="effect1_dropShadow_1272_1834" result="shape"/>
</filter>
</defs>
</svg>
