<svg width="50" height="50" viewBox="0 0 50 50" fill="none" xmlns="http://www.w3.org/2000/svg">
<rect width="50" height="50" rx="25" fill="#7DE5A4" fill-opacity="0.3"/>
<g clip-path="url(#clip0_966_4898)">
<path d="M14.0097 24.9859C14.0097 24.61 14.0073 24.2334 14.0097 23.8575C14.0129 23.4002 14.1799 23.1066 14.634 23.0631C15.3889 22.9905 15.735 22.6276 15.8761 21.8912C15.9914 21.2911 16.302 20.7354 16.6319 20.2104C16.7674 19.995 16.7819 19.8216 16.6391 19.5885C15.9931 18.5352 16.0003 18.5303 16.8835 17.6423C17.2811 17.2423 17.6852 16.8479 18.0788 16.4446C18.3749 16.1414 18.7257 16.051 19.0491 16.3228C19.6355 16.8164 20.159 16.7479 20.768 16.3446C21.2801 16.0051 21.8891 15.8333 22.4908 15.6889C22.7303 15.6316 22.8497 15.5227 22.9037 15.2751C23.1764 14.0306 23.1393 13.9831 24.529 14.0032C25.0662 14.0105 25.6041 13.9976 26.1413 14.0073C26.6454 14.0161 26.8922 14.1686 26.9479 14.6678C27.0269 15.3808 27.3544 15.73 28.069 15.8647C28.6973 15.9833 29.2757 16.3091 29.8257 16.6455C30.0395 16.7761 30.1959 16.7737 30.4089 16.6438C31.4784 15.9865 31.4816 15.993 32.3648 16.8769C32.7536 17.2665 33.1472 17.6528 33.5327 18.0456C33.8973 18.4166 33.9804 18.6804 33.6674 19.0764C33.2109 19.653 33.2609 20.1402 33.6432 20.7257C33.9868 21.2524 34.1723 21.8686 34.3175 22.484C34.378 22.7413 34.503 22.8607 34.7611 22.9187C36.0024 23.1962 36.0008 23.2026 36.0008 24.477C36.0008 25.0415 35.9968 25.6053 36.0008 26.1691C36.0049 26.5925 35.8137 26.9095 35.3959 26.9385C34.5974 26.9942 34.2611 27.42 34.111 28.1701C33.9941 28.7573 33.686 29.2976 33.369 29.813C33.2407 30.0211 33.223 30.1913 33.3633 30.4018C34.1885 31.6423 33.8465 31.6165 33.1343 32.3569C32.7431 32.7634 32.3301 33.1489 31.9381 33.5546C31.6429 33.8594 31.2921 33.9562 30.9694 33.6893C30.3847 33.2069 29.8661 33.2473 29.2498 33.6546C28.728 34.0006 28.1085 34.1837 27.4915 34.3272C27.2754 34.3772 27.1616 34.4797 27.1092 34.7184C26.7898 36.1702 26.7237 35.9935 25.4573 35.996C24.9202 35.9968 24.383 35.9976 23.845 35.996C23.399 35.9944 23.1143 35.8403 23.0764 35.4007C23.007 34.6031 22.5795 34.299 21.8455 34.1087C20.7696 33.8288 20.7857 33.7715 21.5544 33.0053C22.2488 32.3133 22.9457 31.6237 23.6329 30.9236C23.7998 30.7535 23.9612 30.7034 24.2023 30.7333C27.4125 31.1237 30.2734 29.0581 30.7146 25.8771C31.1388 22.8187 29.4837 20.0257 26.0703 19.3232C22.2206 18.5303 18.7749 21.842 19.2863 25.7473C19.3177 25.99 19.2903 26.1828 19.104 26.3667C18.2442 27.216 17.39 28.0717 16.5464 28.9379C16.3246 29.1654 16.2512 29.0896 16.1495 28.8436C15.9689 28.4096 15.7922 27.9749 15.6858 27.5168C15.6301 27.2781 15.5172 27.1611 15.2671 27.1063C13.8597 26.7966 14.0065 26.7119 14.0097 25.5093C14.0097 25.3343 14.0097 25.1601 14.0097 24.9851V24.9859Z" fill="#6AC38B"/>
<path d="M25.0457 20.5015C25.3336 20.4861 25.6788 20.5353 26.0224 20.6039C26.2991 20.6595 26.5451 20.77 26.6306 21.0636C26.7137 21.3475 26.6064 21.5863 26.4023 21.7927C25.92 22.2783 25.424 22.7525 24.9666 23.2623C24.4746 23.8107 24.5287 24.5382 25.0529 25.0262C25.5635 25.5004 26.2781 25.4915 26.8314 24.977C27.2637 24.5745 27.6694 24.1438 28.0913 23.7292C28.322 23.5026 28.551 23.2606 28.9277 23.3744C29.3229 23.4937 29.3786 23.8365 29.4399 24.1688C30.0359 27.3901 27.2533 30.1033 24.0641 29.3903C23.6301 29.2936 23.3608 29.3662 23.0478 29.6847C21.2427 31.5269 19.4142 33.3456 17.5889 35.1676C17.1252 35.6306 16.6146 36.0274 15.908 35.9919C15.1878 35.9556 14.6143 35.637 14.2635 34.9982C13.8997 34.3344 13.9037 33.6634 14.3312 33.0174C14.5103 32.7472 14.7353 32.5165 14.9636 32.2882C16.7719 30.4872 18.5762 28.6822 20.3926 26.8885C20.6466 26.6376 20.7297 26.4279 20.6265 26.0505C19.8715 23.2856 22.0751 20.4958 25.0441 20.5015H25.0457Z" fill="#6AC38B"/>
</g>
<defs>
<clipPath id="clip0_966_4898">
<rect width="22" height="22" fill="white" transform="translate(14 14)"/>
</clipPath>
</defs>
</svg>
