<svg width="155" height="40" viewBox="0 0 155 40" fill="none" xmlns="http://www.w3.org/2000/svg">
<g filter="url(#filter0_d_1264_1047)">
<rect x="4" y="12" width="147" height="20" rx="10" fill="#7DE5A4" fill-opacity="0.3" shape-rendering="crispEdges"/>
</g>
<g filter="url(#filter1_d_1264_1047)">
<path d="M12 13.5C12 6.04416 18.0442 0 25.5 0H119C132.807 0 144 11.1929 144 25V27H25.5C18.0442 27 12 20.9558 12 13.5V13.5Z" fill="#7DE5A4" fill-opacity="0.85" shape-rendering="crispEdges"/>
<path d="M45.232 11.8C45.764 11.8 46.176 11.926 46.468 12.178C46.76 12.43 46.906 12.784 46.906 13.24C46.906 13.716 46.76 14.086 46.468 14.35C46.176 14.614 45.764 14.746 45.232 14.746H43.966L44.32 14.392V16H43.516V11.8H45.232ZM45.196 14.08C45.496 14.08 45.726 14.012 45.886 13.876C46.05 13.74 46.132 13.534 46.132 13.258C46.132 12.994 46.05 12.798 45.886 12.67C45.726 12.538 45.496 12.472 45.196 12.472H43.966L44.32 12.118V14.434L43.966 14.08H45.196ZM49.4068 13.48C49.1828 13.464 48.9888 13.498 48.8248 13.582C48.6608 13.662 48.5348 13.778 48.4468 13.93C48.3588 14.082 48.3148 14.256 48.3148 14.452L48.1048 14.428C48.1048 14.072 48.1568 13.772 48.2608 13.528C48.3648 13.28 48.5148 13.092 48.7108 12.964C48.9068 12.836 49.1388 12.772 49.4068 12.772V13.48ZM47.5348 12.802H48.3148V16H47.5348V12.802ZM51.3588 12.772C51.6908 12.772 51.9828 12.84 52.2348 12.976C52.4908 13.112 52.6888 13.302 52.8288 13.546C52.9728 13.79 53.0448 14.074 53.0448 14.398C53.0448 14.722 52.9728 15.006 52.8288 15.25C52.6888 15.494 52.4908 15.686 52.2348 15.826C51.9828 15.962 51.6908 16.03 51.3588 16.03C51.0228 16.03 50.7268 15.962 50.4708 15.826C50.2148 15.686 50.0148 15.494 49.8708 15.25C49.7308 15.006 49.6608 14.722 49.6608 14.398C49.6608 14.074 49.7308 13.79 49.8708 13.546C50.0148 13.302 50.2148 13.112 50.4708 12.976C50.7268 12.84 51.0228 12.772 51.3588 12.772ZM51.3588 13.402C51.1788 13.402 51.0188 13.446 50.8788 13.534C50.7428 13.618 50.6368 13.736 50.5608 13.888C50.4848 14.036 50.4468 14.208 50.4468 14.404C50.4468 14.604 50.4848 14.78 50.5608 14.932C50.6368 15.084 50.7428 15.202 50.8788 15.286C51.0188 15.37 51.1788 15.412 51.3588 15.412C51.5348 15.412 51.6908 15.37 51.8268 15.286C51.9628 15.202 52.0688 15.084 52.1448 14.932C52.2208 14.78 52.2588 14.604 52.2588 14.404C52.2588 14.208 52.2208 14.036 52.1448 13.888C52.0688 13.736 51.9628 13.618 51.8268 13.534C51.6908 13.446 51.5348 13.402 51.3588 13.402ZM56.0143 14.212C56.0143 13.976 55.9523 13.792 55.8283 13.66C55.7083 13.528 55.5383 13.462 55.3183 13.462C55.0663 13.466 54.8663 13.56 54.7183 13.744C54.5743 13.924 54.5023 14.15 54.5023 14.422H54.2923C54.2923 14.034 54.3463 13.72 54.4543 13.48C54.5623 13.236 54.7163 13.058 54.9163 12.946C55.1203 12.83 55.3583 12.772 55.6303 12.772C55.8743 12.772 56.0823 12.822 56.2543 12.922C56.4303 13.022 56.5643 13.164 56.6563 13.348C56.7523 13.528 56.8003 13.746 56.8003 14.002V16H56.0143V14.212ZM58.3123 14.212C58.3123 13.976 58.2503 13.792 58.1263 13.66C58.0023 13.528 57.8303 13.462 57.6103 13.462C57.3583 13.466 57.1603 13.56 57.0163 13.744C56.8723 13.924 56.8003 14.15 56.8003 14.422H56.5903C56.5903 14.034 56.6443 13.72 56.7523 13.48C56.8603 13.236 57.0143 13.058 57.2143 12.946C57.4143 12.83 57.6523 12.772 57.9283 12.772C58.1683 12.772 58.3743 12.822 58.5463 12.922C58.7223 13.022 58.8583 13.164 58.9543 13.348C59.0503 13.528 59.0983 13.746 59.0983 14.002V16H58.3123V14.212ZM53.7223 12.802H54.5023V16H53.7223V12.802ZM61.3724 12.772C61.7044 12.772 61.9964 12.84 62.2484 12.976C62.5044 13.112 62.7024 13.302 62.8424 13.546C62.9864 13.79 63.0584 14.074 63.0584 14.398C63.0584 14.722 62.9864 15.006 62.8424 15.25C62.7024 15.494 62.5044 15.686 62.2484 15.826C61.9964 15.962 61.7044 16.03 61.3724 16.03C61.0364 16.03 60.7404 15.962 60.4844 15.826C60.2284 15.686 60.0284 15.494 59.8844 15.25C59.7444 15.006 59.6744 14.722 59.6744 14.398C59.6744 14.074 59.7444 13.79 59.8844 13.546C60.0284 13.302 60.2284 13.112 60.4844 12.976C60.7404 12.84 61.0364 12.772 61.3724 12.772ZM61.3724 13.402C61.1924 13.402 61.0324 13.446 60.8924 13.534C60.7564 13.618 60.6504 13.736 60.5744 13.888C60.4984 14.036 60.4604 14.208 60.4604 14.404C60.4604 14.604 60.4984 14.78 60.5744 14.932C60.6504 15.084 60.7564 15.202 60.8924 15.286C61.0324 15.37 61.1924 15.412 61.3724 15.412C61.5484 15.412 61.7044 15.37 61.8404 15.286C61.9764 15.202 62.0824 15.084 62.1584 14.932C62.2344 14.78 62.2724 14.604 62.2724 14.404C62.2724 14.208 62.2344 14.036 62.1584 13.888C62.0824 13.736 61.9764 13.618 61.8404 13.534C61.7044 13.446 61.5484 13.402 61.3724 13.402ZM64.642 14.956C64.642 15.116 64.672 15.226 64.732 15.286C64.792 15.346 64.874 15.376 64.978 15.376C65.042 15.376 65.112 15.366 65.188 15.346C65.264 15.322 65.346 15.286 65.434 15.238L65.614 15.802C65.494 15.874 65.364 15.932 65.224 15.976C65.088 16.016 64.95 16.036 64.81 16.036C64.638 16.036 64.48 16.004 64.336 15.94C64.192 15.872 64.078 15.768 63.994 15.628C63.91 15.484 63.868 15.304 63.868 15.088V12.046H64.642V14.956ZM63.418 12.922H65.56V13.468H63.418V12.922ZM68.3629 14.158C68.3549 13.99 68.3169 13.848 68.2489 13.732C68.1809 13.612 68.0849 13.52 67.9609 13.456C67.8409 13.388 67.7029 13.354 67.5469 13.354C67.3669 13.354 67.2109 13.396 67.0789 13.48C66.9469 13.564 66.8429 13.682 66.7669 13.834C66.6949 13.986 66.6589 14.162 66.6589 14.362C66.6589 14.582 66.6989 14.772 66.7789 14.932C66.8629 15.092 66.9769 15.216 67.1209 15.304C67.2649 15.388 67.4309 15.43 67.6189 15.43C67.9589 15.43 68.2489 15.308 68.4889 15.064L68.9029 15.478C68.7429 15.654 68.5489 15.79 68.3209 15.886C68.0929 15.982 67.8389 16.03 67.5589 16.03C67.2229 16.03 66.9309 15.962 66.6829 15.826C66.4389 15.686 66.2469 15.496 66.1069 15.256C65.9709 15.012 65.9029 14.728 65.9029 14.404C65.9029 14.08 65.9709 13.796 66.1069 13.552C66.2469 13.308 66.4389 13.118 66.6829 12.982C66.9309 12.846 67.2149 12.776 67.5349 12.772C67.9149 12.772 68.2209 12.85 68.4529 13.006C68.6889 13.162 68.8569 13.382 68.9569 13.666C69.0569 13.946 69.0929 14.28 69.0649 14.668H66.5449V14.158H68.3629ZM73.6989 14.212C73.6989 13.98 73.6349 13.798 73.5069 13.666C73.3829 13.534 73.2089 13.468 72.9849 13.468C72.7249 13.468 72.5189 13.56 72.3669 13.744C72.2189 13.924 72.1449 14.152 72.1449 14.428H71.9349C71.9349 14.036 71.9889 13.72 72.0969 13.48C72.2089 13.236 72.3669 13.058 72.5709 12.946C72.7789 12.83 73.0209 12.772 73.2969 12.772C73.5449 12.772 73.7569 12.822 73.9329 12.922C74.1089 13.022 74.2449 13.164 74.3409 13.348C74.4369 13.528 74.4849 13.746 74.4849 14.002V16H73.6989V14.212ZM71.3649 12.802H72.1449V16H71.3649V12.802ZM77.527 14.158C77.519 13.99 77.481 13.848 77.413 13.732C77.345 13.612 77.249 13.52 77.125 13.456C77.005 13.388 76.867 13.354 76.711 13.354C76.531 13.354 76.375 13.396 76.243 13.48C76.111 13.564 76.007 13.682 75.931 13.834C75.859 13.986 75.823 14.162 75.823 14.362C75.823 14.582 75.863 14.772 75.943 14.932C76.027 15.092 76.141 15.216 76.285 15.304C76.429 15.388 76.595 15.43 76.783 15.43C77.123 15.43 77.413 15.308 77.653 15.064L78.067 15.478C77.907 15.654 77.713 15.79 77.485 15.886C77.257 15.982 77.003 16.03 76.723 16.03C76.387 16.03 76.095 15.962 75.847 15.826C75.603 15.686 75.411 15.496 75.271 15.256C75.135 15.012 75.067 14.728 75.067 14.404C75.067 14.08 75.135 13.796 75.271 13.552C75.411 13.308 75.603 13.118 75.847 12.982C76.095 12.846 76.379 12.776 76.699 12.772C77.079 12.772 77.385 12.85 77.617 13.006C77.853 13.162 78.021 13.382 78.121 13.666C78.221 13.946 78.257 14.28 78.229 14.668H75.709V14.158H77.527ZM78.3085 12.802H79.1125L79.8985 15.268L80.6605 12.802H81.4465L82.2205 15.268L82.9885 12.802H83.7805L82.6105 16H81.8065L81.0505 13.684L80.2825 16H79.4905L78.3085 12.802ZM85.8793 11.548H86.6593V16H85.8793V11.548ZM88.7398 14.59C88.5358 14.59 88.3838 14.622 88.2838 14.686C88.1838 14.75 88.1338 14.856 88.1338 15.004C88.1338 15.14 88.1838 15.25 88.2838 15.334C88.3878 15.418 88.5278 15.46 88.7038 15.46C88.8598 15.46 88.9998 15.434 89.1238 15.382C89.2518 15.326 89.3518 15.252 89.4238 15.16C89.4998 15.064 89.5438 14.958 89.5558 14.842L89.6878 15.4C89.5918 15.608 89.4438 15.766 89.2438 15.874C89.0438 15.982 88.8018 16.036 88.5178 16.036C88.2898 16.036 88.0918 15.992 87.9238 15.904C87.7558 15.816 87.6258 15.698 87.5338 15.55C87.4418 15.398 87.3958 15.228 87.3958 15.04C87.3958 14.744 87.5018 14.512 87.7138 14.344C87.9258 14.172 88.2258 14.084 88.6138 14.08H89.6398V14.59H88.7398ZM89.5498 13.984C89.5498 13.792 89.4878 13.642 89.3638 13.534C89.2438 13.422 89.0638 13.366 88.8238 13.366C88.6758 13.366 88.5198 13.394 88.3558 13.45C88.1958 13.502 88.0338 13.578 87.8698 13.678L87.5878 13.174C87.7398 13.082 87.8858 13.008 88.0258 12.952C88.1658 12.892 88.3118 12.848 88.4638 12.82C88.6198 12.788 88.7978 12.772 88.9978 12.772C89.4178 12.772 89.7418 12.872 89.9698 13.072C90.1978 13.272 90.3138 13.548 90.3178 13.9L90.3238 16H89.5558L89.5498 13.984ZM91.8829 14.584C91.8829 14.816 91.9429 15 92.0629 15.136C92.1869 15.268 92.3569 15.334 92.5729 15.334C92.8249 15.326 93.0209 15.232 93.1609 15.052C93.3049 14.872 93.3769 14.646 93.3769 14.374H93.5809C93.5809 14.762 93.5269 15.078 93.4189 15.322C93.3109 15.562 93.1589 15.74 92.9629 15.856C92.7669 15.968 92.5329 16.026 92.2609 16.03C92.0209 16.03 91.8129 15.98 91.6369 15.88C91.4649 15.78 91.3309 15.638 91.2349 15.454C91.1429 15.266 91.0969 15.046 91.0969 14.794V12.802H91.8829V14.584ZM93.3769 12.802H94.1629V16H93.3769V12.802ZM97.4704 14.212C97.4704 13.98 97.4064 13.798 97.2784 13.666C97.1544 13.534 96.9804 13.468 96.7564 13.468C96.4964 13.468 96.2904 13.56 96.1384 13.744C95.9904 13.924 95.9164 14.152 95.9164 14.428H95.7064C95.7064 14.036 95.7604 13.72 95.8684 13.48C95.9804 13.236 96.1384 13.058 96.3424 12.946C96.5504 12.83 96.7924 12.772 97.0684 12.772C97.3164 12.772 97.5284 12.822 97.7044 12.922C97.8804 13.022 98.0164 13.164 98.1124 13.348C98.2084 13.528 98.2564 13.746 98.2564 14.002V16H97.4704V14.212ZM95.1364 12.802H95.9164V16H95.1364V12.802ZM101.34 13.774C101.24 13.662 101.118 13.576 100.974 13.516C100.834 13.452 100.676 13.42 100.5 13.42C100.328 13.42 100.176 13.462 100.044 13.546C99.9125 13.626 99.8085 13.74 99.7325 13.888C99.6605 14.036 99.6245 14.208 99.6245 14.404C99.6245 14.6 99.6605 14.772 99.7325 14.92C99.8085 15.068 99.9125 15.184 100.044 15.268C100.176 15.352 100.328 15.394 100.5 15.394C100.684 15.394 100.85 15.362 100.998 15.298C101.146 15.234 101.268 15.138 101.364 15.01L101.85 15.406C101.71 15.602 101.522 15.756 101.286 15.868C101.05 15.976 100.776 16.03 100.464 16.03C100.144 16.03 99.8625 15.962 99.6185 15.826C99.3745 15.686 99.1825 15.496 99.0425 15.256C98.9065 15.012 98.8385 14.728 98.8385 14.404C98.8385 14.08 98.9065 13.796 99.0425 13.552C99.1825 13.308 99.3745 13.118 99.6185 12.982C99.8625 12.842 100.144 12.772 100.464 12.772C100.764 12.772 101.028 12.822 101.256 12.922C101.484 13.018 101.672 13.154 101.82 13.33L101.34 13.774ZM104.889 14.212C104.889 13.98 104.825 13.798 104.697 13.666C104.573 13.534 104.399 13.468 104.175 13.468C103.911 13.468 103.703 13.56 103.551 13.744C103.403 13.924 103.329 14.152 103.329 14.428H103.125C103.125 14.036 103.179 13.72 103.287 13.48C103.399 13.236 103.557 13.058 103.761 12.946C103.965 12.83 104.207 12.772 104.487 12.772C104.731 12.772 104.941 12.822 105.117 12.922C105.297 13.022 105.435 13.164 105.531 13.348C105.627 13.528 105.675 13.746 105.675 14.002V16H104.889V14.212ZM102.549 11.548H103.329V16H102.549V11.548ZM108.716 14.158C108.708 13.99 108.67 13.848 108.602 13.732C108.534 13.612 108.438 13.52 108.314 13.456C108.194 13.388 108.056 13.354 107.9 13.354C107.72 13.354 107.564 13.396 107.432 13.48C107.3 13.564 107.196 13.682 107.12 13.834C107.048 13.986 107.012 14.162 107.012 14.362C107.012 14.582 107.052 14.772 107.132 14.932C107.216 15.092 107.33 15.216 107.474 15.304C107.618 15.388 107.784 15.43 107.972 15.43C108.312 15.43 108.602 15.308 108.842 15.064L109.256 15.478C109.096 15.654 108.902 15.79 108.674 15.886C108.446 15.982 108.192 16.03 107.912 16.03C107.576 16.03 107.284 15.962 107.036 15.826C106.792 15.686 106.6 15.496 106.46 15.256C106.324 15.012 106.256 14.728 106.256 14.404C106.256 14.08 106.324 13.796 106.46 13.552C106.6 13.308 106.792 13.118 107.036 12.982C107.284 12.846 107.568 12.776 107.888 12.772C108.268 12.772 108.574 12.85 108.806 13.006C109.042 13.162 109.21 13.382 109.31 13.666C109.41 13.946 109.446 14.28 109.418 14.668H106.898V14.158H108.716ZM112.003 13.636C111.847 13.544 111.685 13.474 111.517 13.426C111.349 13.374 111.197 13.348 111.061 13.348C110.933 13.348 110.829 13.372 110.749 13.42C110.669 13.464 110.629 13.54 110.629 13.648C110.629 13.74 110.669 13.814 110.749 13.87C110.833 13.926 110.939 13.974 111.067 14.014C111.195 14.05 111.331 14.09 111.475 14.134C111.619 14.178 111.755 14.236 111.883 14.308C112.015 14.38 112.121 14.476 112.201 14.596C112.285 14.716 112.327 14.874 112.327 15.07C112.327 15.286 112.269 15.466 112.153 15.61C112.037 15.75 111.883 15.856 111.691 15.928C111.499 15.996 111.289 16.03 111.061 16.03C110.821 16.03 110.581 15.992 110.341 15.916C110.105 15.84 109.903 15.728 109.735 15.58L110.005 15.058C110.153 15.186 110.327 15.286 110.527 15.358C110.731 15.426 110.919 15.46 111.091 15.46C111.183 15.46 111.265 15.448 111.337 15.424C111.409 15.4 111.465 15.366 111.505 15.322C111.545 15.274 111.565 15.212 111.565 15.136C111.565 15.032 111.525 14.952 111.445 14.896C111.365 14.836 111.261 14.786 111.133 14.746C111.009 14.702 110.875 14.66 110.731 14.62C110.587 14.576 110.451 14.52 110.323 14.452C110.199 14.38 110.097 14.286 110.017 14.17C109.937 14.054 109.897 13.9 109.897 13.708C109.897 13.492 109.953 13.314 110.065 13.174C110.177 13.034 110.325 12.932 110.509 12.868C110.693 12.8 110.893 12.766 111.109 12.766C111.317 12.766 111.525 12.796 111.733 12.856C111.941 12.912 112.125 12.992 112.285 13.096L112.003 13.636Z" fill="black"/>
</g>
<defs>
<filter id="filter0_d_1264_1047" x="0" y="12" width="155" height="28" filterUnits="userSpaceOnUse" color-interpolation-filters="sRGB">
<feFlood flood-opacity="0" result="BackgroundImageFix"/>
<feColorMatrix in="SourceAlpha" type="matrix" values="0 0 0 0 0 0 0 0 0 0 0 0 0 0 0 0 0 0 127 0" result="hardAlpha"/>
<feOffset dy="4"/>
<feGaussianBlur stdDeviation="2"/>
<feComposite in2="hardAlpha" operator="out"/>
<feColorMatrix type="matrix" values="0 0 0 0 0.792157 0 0 0 0 0.803922 0 0 0 0 0.811765 0 0 0 0.24 0"/>
<feBlend mode="normal" in2="BackgroundImageFix" result="effect1_dropShadow_1264_1047"/>
<feBlend mode="normal" in="SourceGraphic" in2="effect1_dropShadow_1264_1047" result="shape"/>
</filter>
<filter id="filter1_d_1264_1047" x="8" y="0" width="140" height="35" filterUnits="userSpaceOnUse" color-interpolation-filters="sRGB">
<feFlood flood-opacity="0" result="BackgroundImageFix"/>
<feColorMatrix in="SourceAlpha" type="matrix" values="0 0 0 0 0 0 0 0 0 0 0 0 0 0 0 0 0 0 127 0" result="hardAlpha"/>
<feOffset dy="4"/>
<feGaussianBlur stdDeviation="2"/>
<feComposite in2="hardAlpha" operator="out"/>
<feColorMatrix type="matrix" values="0 0 0 0 0.682353 0 0 0 0 0.847059 0 0 0 0 0.784314 0 0 0 0.4 0"/>
<feBlend mode="normal" in2="BackgroundImageFix" result="effect1_dropShadow_1264_1047"/>
<feBlend mode="normal" in="SourceGraphic" in2="effect1_dropShadow_1264_1047" result="shape"/>
</filter>
</defs>
</svg>
