<svg width="201" height="88" viewBox="0 0 201 88" fill="none" xmlns="http://www.w3.org/2000/svg">
<g filter="url(#filter0_d_1269_1147)">
<rect x="4" y="16" width="193" height="26" rx="13" fill="#7DE5A4" fill-opacity="0.3" shape-rendering="crispEdges"/>
</g>
<g filter="url(#filter1_d_1269_1147)">
<path d="M7 25C7 11.1929 18.1929 0 32 0H170C183.807 0 195 11.1929 195 25V80H32C18.1929 80 7 68.8071 7 55V25Z" fill="#7DE5A4" fill-opacity="0.85" shape-rendering="crispEdges"/>
<path d="M27.176 36.9C27.576 36.9 27.92 36.956 28.208 37.068C28.496 37.18 28.7173 37.34 28.872 37.548C29.0267 37.756 29.104 38.0067 29.104 38.3C29.104 38.6093 29.016 38.876 28.84 39.1C28.6693 39.324 28.432 39.4707 28.128 39.54C28.496 39.6093 28.7867 39.7693 29 40.02C29.2133 40.2707 29.32 40.5827 29.32 40.956C29.32 41.276 29.2347 41.5533 29.064 41.788C28.8933 42.0173 28.6533 42.1933 28.344 42.316C28.04 42.4387 27.6747 42.5 27.248 42.5H24.688V36.9H27.176ZM27.12 39.204C27.3973 39.204 27.6133 39.14 27.768 39.012C27.928 38.884 28.008 38.7053 28.008 38.476C28.008 38.2573 27.928 38.0867 27.768 37.964C27.6133 37.8413 27.3973 37.7827 27.12 37.788H25.76V39.204H27.12ZM27.12 41.612C27.4613 41.6173 27.728 41.5507 27.92 41.412C28.112 41.2733 28.208 41.0787 28.208 40.828C28.208 40.5933 28.112 40.4093 27.92 40.276C27.728 40.1373 27.4613 40.068 27.12 40.068H25.76V41.612H27.12ZM32.1919 38.196C32.6345 38.196 33.0239 38.2867 33.3599 38.468C33.7012 38.6493 33.9652 38.9027 34.1519 39.228C34.3439 39.5533 34.4399 39.932 34.4399 40.364C34.4399 40.796 34.3439 41.1747 34.1519 41.5C33.9652 41.8253 33.7012 42.0813 33.3599 42.268C33.0239 42.4493 32.6345 42.54 32.1919 42.54C31.7439 42.54 31.3492 42.4493 31.0079 42.268C30.6665 42.0813 30.3999 41.8253 30.2079 41.5C30.0212 41.1747 29.9279 40.796 29.9279 40.364C29.9279 39.932 30.0212 39.5533 30.2079 39.228C30.3999 38.9027 30.6665 38.6493 31.0079 38.468C31.3492 38.2867 31.7439 38.196 32.1919 38.196ZM32.1919 39.036C31.9519 39.036 31.7385 39.0947 31.5519 39.212C31.3705 39.324 31.2292 39.4813 31.1279 39.684C31.0265 39.8813 30.9759 40.1107 30.9759 40.372C30.9759 40.6387 31.0265 40.8733 31.1279 41.076C31.2292 41.2787 31.3705 41.436 31.5519 41.548C31.7385 41.66 31.9519 41.716 32.1919 41.716C32.4265 41.716 32.6345 41.66 32.8159 41.548C32.9972 41.436 33.1385 41.2787 33.2399 41.076C33.3412 40.8733 33.3919 40.6387 33.3919 40.372C33.3919 40.1107 33.3412 39.8813 33.2399 39.684C33.1385 39.4813 32.9972 39.324 32.8159 39.212C32.6345 39.0947 32.4265 39.036 32.1919 39.036ZM37.2153 38.196C37.658 38.196 38.0473 38.2867 38.3833 38.468C38.7246 38.6493 38.9886 38.9027 39.1753 39.228C39.3673 39.5533 39.4633 39.932 39.4633 40.364C39.4633 40.796 39.3673 41.1747 39.1753 41.5C38.9886 41.8253 38.7246 42.0813 38.3833 42.268C38.0473 42.4493 37.658 42.54 37.2153 42.54C36.7673 42.54 36.3726 42.4493 36.0313 42.268C35.69 42.0813 35.4233 41.8253 35.2313 41.5C35.0446 41.1747 34.9513 40.796 34.9513 40.364C34.9513 39.932 35.0446 39.5533 35.2313 39.228C35.4233 38.9027 35.69 38.6493 36.0313 38.468C36.3726 38.2867 36.7673 38.196 37.2153 38.196ZM37.2153 39.036C36.9753 39.036 36.762 39.0947 36.5753 39.212C36.394 39.324 36.2526 39.4813 36.1513 39.684C36.05 39.8813 35.9993 40.1107 35.9993 40.372C35.9993 40.6387 36.05 40.8733 36.1513 41.076C36.2526 41.2787 36.394 41.436 36.5753 41.548C36.762 41.66 36.9753 41.716 37.2153 41.716C37.45 41.716 37.658 41.66 37.8393 41.548C38.0206 41.436 38.162 41.2787 38.2633 41.076C38.3646 40.8733 38.4153 40.6387 38.4153 40.372C38.4153 40.1107 38.3646 39.8813 38.2633 39.684C38.162 39.4813 38.0206 39.324 37.8393 39.212C37.658 39.0947 37.45 39.036 37.2153 39.036ZM42.9028 39.348C42.6948 39.2253 42.4788 39.132 42.2548 39.068C42.0308 38.9987 41.8281 38.964 41.6468 38.964C41.4761 38.964 41.3374 38.996 41.2308 39.06C41.1241 39.1187 41.0708 39.22 41.0708 39.364C41.0708 39.4867 41.1241 39.5853 41.2308 39.66C41.3428 39.7347 41.4841 39.7987 41.6548 39.852C41.8254 39.9 42.0068 39.9533 42.1988 40.012C42.3908 40.0707 42.5721 40.148 42.7428 40.244C42.9188 40.34 43.0601 40.468 43.1668 40.628C43.2788 40.788 43.3348 40.9987 43.3348 41.26C43.3348 41.548 43.2574 41.788 43.1028 41.98C42.9481 42.1667 42.7428 42.308 42.4868 42.404C42.2308 42.4947 41.9508 42.54 41.6468 42.54C41.3268 42.54 41.0068 42.4893 40.6868 42.388C40.3721 42.2867 40.1028 42.1373 39.8788 41.94L40.2388 41.244C40.4361 41.4147 40.6681 41.548 40.9348 41.644C41.2068 41.7347 41.4574 41.78 41.6868 41.78C41.8094 41.78 41.9188 41.764 42.0148 41.732C42.1108 41.7 42.1854 41.6547 42.2388 41.596C42.2921 41.532 42.3188 41.4493 42.3188 41.348C42.3188 41.2093 42.2654 41.1027 42.1588 41.028C42.0521 40.948 41.9134 40.8813 41.7428 40.828C41.5774 40.7693 41.3988 40.7133 41.2068 40.66C41.0148 40.6013 40.8334 40.5267 40.6628 40.436C40.4974 40.34 40.3614 40.2147 40.2548 40.06C40.1481 39.9053 40.0948 39.7 40.0948 39.444C40.0948 39.156 40.1694 38.9187 40.3188 38.732C40.4681 38.5453 40.6654 38.4093 40.9108 38.324C41.1561 38.2333 41.4228 38.188 41.7108 38.188C41.9881 38.188 42.2654 38.228 42.5428 38.308C42.8201 38.3827 43.0654 38.4893 43.2788 38.628L42.9028 39.348ZM45.4341 41.108C45.4341 41.3213 45.4741 41.468 45.5541 41.548C45.6341 41.628 45.7435 41.668 45.8821 41.668C45.9675 41.668 46.0608 41.6547 46.1621 41.628C46.2635 41.596 46.3728 41.548 46.4901 41.484L46.7301 42.236C46.5701 42.332 46.3968 42.4093 46.2101 42.468C46.0288 42.5213 45.8448 42.548 45.6581 42.548C45.4288 42.548 45.2181 42.5053 45.0261 42.42C44.8341 42.3293 44.6821 42.1907 44.5701 42.004C44.4581 41.812 44.4021 41.572 44.4021 41.284V37.228H45.4341V41.108ZM43.8021 38.396H46.6581V39.124H43.8021V38.396ZM49.7427 36.564H50.7827V42.5H49.7427V36.564ZM55.0048 40.044C54.9941 39.82 54.9434 39.6307 54.8528 39.476C54.7621 39.316 54.6341 39.1933 54.4688 39.108C54.3088 39.0173 54.1248 38.972 53.9168 38.972C53.6768 38.972 53.4688 39.028 53.2928 39.14C53.1168 39.252 52.9781 39.4093 52.8768 39.612C52.7808 39.8147 52.7328 40.0493 52.7328 40.316C52.7328 40.6093 52.7861 40.8627 52.8928 41.076C53.0048 41.2893 53.1568 41.4547 53.3488 41.572C53.5408 41.684 53.7621 41.74 54.0128 41.74C54.4661 41.74 54.8528 41.5773 55.1728 41.252L55.7248 41.804C55.5114 42.0387 55.2528 42.22 54.9488 42.348C54.6448 42.476 54.3061 42.54 53.9328 42.54C53.4848 42.54 53.0954 42.4493 52.7648 42.268C52.4394 42.0813 52.1834 41.828 51.9967 41.508C51.8154 41.1827 51.7248 40.804 51.7248 40.372C51.7248 39.94 51.8154 39.5613 51.9967 39.236C52.1834 38.9107 52.4394 38.6573 52.7648 38.476C53.0954 38.2947 53.4741 38.2013 53.9008 38.196C54.4074 38.196 54.8154 38.3 55.1248 38.508C55.4394 38.716 55.6634 39.0093 55.7968 39.388C55.9301 39.7613 55.9781 40.2067 55.9408 40.724H52.5808V40.044H55.0048ZM58.2911 40.62C58.0191 40.62 57.8165 40.6627 57.6831 40.748C57.5498 40.8333 57.4831 40.9747 57.4831 41.172C57.4831 41.3533 57.5498 41.5 57.6831 41.612C57.8218 41.724 58.0085 41.78 58.2431 41.78C58.4511 41.78 58.6378 41.7453 58.8031 41.676C58.9738 41.6013 59.1071 41.5027 59.2031 41.38C59.3045 41.252 59.3631 41.1107 59.3791 40.956L59.5551 41.7C59.4271 41.9773 59.2298 42.188 58.9631 42.332C58.6965 42.476 58.3738 42.548 57.9951 42.548C57.6911 42.548 57.4271 42.4893 57.2031 42.372C56.9791 42.2547 56.8058 42.0973 56.6831 41.9C56.5605 41.6973 56.4991 41.4707 56.4991 41.22C56.4991 40.8253 56.6405 40.516 56.9231 40.292C57.2058 40.0627 57.6058 39.9453 58.1231 39.94H59.4911V40.62H58.2911ZM59.3711 39.812C59.3711 39.556 59.2885 39.356 59.1231 39.212C58.9631 39.0627 58.7231 38.988 58.4031 38.988C58.2058 38.988 57.9978 39.0253 57.7791 39.1C57.5658 39.1693 57.3498 39.2707 57.1311 39.404L56.7551 38.732C56.9578 38.6093 57.1525 38.5107 57.3391 38.436C57.5258 38.356 57.7205 38.2973 57.9231 38.26C58.1311 38.2173 58.3685 38.196 58.6351 38.196C59.1951 38.196 59.6271 38.3293 59.9311 38.596C60.2351 38.8627 60.3898 39.2307 60.3951 39.7L60.4031 42.5H59.3791L59.3711 39.812ZM63.1939 38.188C63.5832 38.188 63.9139 38.276 64.1859 38.452C64.4579 38.628 64.6659 38.8787 64.8099 39.204C64.9539 39.524 65.0232 39.9107 65.0179 40.364C65.0232 40.812 64.9539 41.2013 64.8099 41.532C64.6712 41.8573 64.4659 42.108 64.1939 42.284C63.9219 42.4547 63.5965 42.54 63.2179 42.54C62.8125 42.54 62.4552 42.4493 62.1459 42.268C61.8419 42.0813 61.6045 41.8227 61.4339 41.492C61.2632 41.1613 61.1779 40.7827 61.1779 40.356C61.1779 39.924 61.2632 39.5453 61.4339 39.22C61.6045 38.8947 61.8392 38.6413 62.1379 38.46C62.4419 38.2787 62.7939 38.188 63.1939 38.188ZM63.4419 39.028C63.2072 39.028 62.9965 39.0867 62.8099 39.204C62.6285 39.3213 62.4872 39.4813 62.3859 39.684C62.2845 39.8867 62.2312 40.1187 62.2259 40.38C62.2312 40.6413 62.2845 40.8733 62.3859 41.076C62.4872 41.2787 62.6285 41.4387 62.8099 41.556C62.9965 41.668 63.2072 41.724 63.4419 41.724C63.6819 41.724 63.8925 41.668 64.0739 41.556C64.2605 41.4387 64.4045 41.2787 64.5059 41.076C64.6072 40.8733 64.6579 40.6413 64.6579 40.38C64.6579 40.1133 64.6072 39.8813 64.5059 39.684C64.4045 39.4813 64.2605 39.3213 64.0739 39.204C63.8925 39.0867 63.6819 39.028 63.4419 39.028ZM64.6579 36.564H65.6979V42.5H64.6579V36.564ZM73.0991 42.084C73.0991 42.4947 73.0057 42.8493 72.8191 43.148C72.6377 43.4467 72.3791 43.676 72.0431 43.836C71.7071 44.0013 71.3124 44.084 70.8591 44.084C70.5124 44.084 70.1871 44.0333 69.8831 43.932C69.5844 43.8307 69.3071 43.6947 69.0511 43.524L69.4671 42.812C69.6644 42.956 69.8724 43.068 70.0911 43.148C70.3097 43.228 70.5471 43.268 70.8031 43.268C71.0591 43.268 71.2804 43.22 71.4671 43.124C71.6591 43.028 71.8057 42.8947 71.9071 42.724C72.0084 42.5533 72.0591 42.3507 72.0591 42.116V38.236H73.0991V42.084ZM70.6671 38.196C71.0351 38.1907 71.3497 38.2707 71.6111 38.436C71.8724 38.6013 72.0724 38.836 72.2111 39.14C72.3497 39.444 72.4164 39.8093 72.4111 40.236C72.4164 40.6627 72.3497 41.0307 72.2111 41.34C72.0777 41.644 71.8831 41.8787 71.6271 42.044C71.3711 42.2093 71.0617 42.292 70.6991 42.292C70.3204 42.292 69.9871 42.2067 69.6991 42.036C69.4164 41.86 69.1951 41.6173 69.0351 41.308C68.8751 40.9933 68.7951 40.6333 68.7951 40.228C68.7951 39.8227 68.8724 39.4707 69.0271 39.172C69.1871 38.868 69.4084 38.6307 69.6911 38.46C69.9737 38.284 70.2991 38.196 70.6671 38.196ZM70.9231 38.988C70.7044 38.988 70.5071 39.0413 70.3311 39.148C70.1604 39.2547 70.0271 39.404 69.9311 39.596C69.8351 39.788 69.7844 40.0067 69.7791 40.252C69.7844 40.4973 69.8351 40.716 69.9311 40.908C70.0271 41.1 70.1604 41.2493 70.3311 41.356C70.5017 41.4627 70.6991 41.516 70.9231 41.516C71.1471 41.516 71.3444 41.4627 71.5151 41.356C71.6857 41.2493 71.8191 41.1 71.9151 40.908C72.0111 40.716 72.0591 40.4973 72.0591 40.252C72.0591 40.0013 72.0111 39.7827 71.9151 39.596C71.8191 39.404 71.6857 39.2547 71.5151 39.148C71.3444 39.0413 71.1471 38.988 70.9231 38.988ZM77.2079 40.044C77.1972 39.82 77.1465 39.6307 77.0559 39.476C76.9652 39.316 76.8372 39.1933 76.6719 39.108C76.5119 39.0173 76.3279 38.972 76.1199 38.972C75.8799 38.972 75.6719 39.028 75.4959 39.14C75.3199 39.252 75.1812 39.4093 75.0799 39.612C74.9839 39.8147 74.9359 40.0493 74.9359 40.316C74.9359 40.6093 74.9892 40.8627 75.0959 41.076C75.2079 41.2893 75.3599 41.4547 75.5519 41.572C75.7439 41.684 75.9652 41.74 76.2159 41.74C76.6692 41.74 77.0559 41.5773 77.3759 41.252L77.9279 41.804C77.7145 42.0387 77.4559 42.22 77.1519 42.348C76.8479 42.476 76.5092 42.54 76.1359 42.54C75.6879 42.54 75.2985 42.4493 74.9679 42.268C74.6425 42.0813 74.3865 41.828 74.1999 41.508C74.0185 41.1827 73.9279 40.804 73.9279 40.372C73.9279 39.94 74.0185 39.5613 74.1999 39.236C74.3865 38.9107 74.6425 38.6573 74.9679 38.476C75.2985 38.2947 75.6772 38.2013 76.1039 38.196C76.6105 38.196 77.0185 38.3 77.3279 38.508C77.6425 38.716 77.8665 39.0093 77.9999 39.388C78.1332 39.7613 78.1812 40.2067 78.1439 40.724H74.7839V40.044H77.2079ZM82.1663 40.116C82.1663 39.8067 82.0809 39.564 81.9103 39.388C81.7449 39.212 81.5129 39.124 81.2143 39.124C80.8676 39.124 80.5929 39.2467 80.3903 39.492C80.1929 39.732 80.0943 40.036 80.0943 40.404H79.8143C79.8143 39.8813 79.8863 39.46 80.0303 39.14C80.1796 38.8147 80.3903 38.5773 80.6623 38.428C80.9396 38.2733 81.2623 38.196 81.6303 38.196C81.9609 38.196 82.2436 38.2627 82.4783 38.396C82.7129 38.5293 82.8943 38.7187 83.0223 38.964C83.1503 39.204 83.2143 39.4947 83.2143 39.836V42.5H82.1663V40.116ZM79.0543 38.236H80.0943V42.5H79.0543V38.236ZM87.2704 40.044C87.2597 39.82 87.209 39.6307 87.1184 39.476C87.0277 39.316 86.8997 39.1933 86.7344 39.108C86.5744 39.0173 86.3904 38.972 86.1824 38.972C85.9424 38.972 85.7344 39.028 85.5584 39.14C85.3824 39.252 85.2437 39.4093 85.1424 39.612C85.0464 39.8147 84.9984 40.0493 84.9984 40.316C84.9984 40.6093 85.0517 40.8627 85.1584 41.076C85.2704 41.2893 85.4224 41.4547 85.6144 41.572C85.8064 41.684 86.0277 41.74 86.2784 41.74C86.7317 41.74 87.1184 41.5773 87.4384 41.252L87.9904 41.804C87.777 42.0387 87.5184 42.22 87.2144 42.348C86.9104 42.476 86.5717 42.54 86.1984 42.54C85.7504 42.54 85.361 42.4493 85.0304 42.268C84.705 42.0813 84.449 41.828 84.2624 41.508C84.081 41.1827 83.9904 40.804 83.9904 40.372C83.9904 39.94 84.081 39.5613 84.2624 39.236C84.449 38.9107 84.705 38.6573 85.0304 38.476C85.361 38.2947 85.7397 38.2013 86.1664 38.196C86.673 38.196 87.081 38.3 87.3904 38.508C87.705 38.716 87.929 39.0093 88.0624 39.388C88.1957 39.7613 88.2437 40.2067 88.2064 40.724H84.8464V40.044H87.2704ZM91.6128 39.14C91.3141 39.1187 91.0554 39.164 90.8368 39.276C90.6181 39.3827 90.4501 39.5373 90.3328 39.74C90.2154 39.9427 90.1568 40.1747 90.1568 40.436L89.8768 40.404C89.8768 39.9293 89.9461 39.5293 90.0848 39.204C90.2234 38.8733 90.4234 38.6227 90.6848 38.452C90.9461 38.2813 91.2554 38.196 91.6128 38.196V39.14ZM89.1168 38.236H90.1568V42.5H89.1168V38.236ZM93.6271 40.62C93.3551 40.62 93.1524 40.6627 93.0191 40.748C92.8857 40.8333 92.8191 40.9747 92.8191 41.172C92.8191 41.3533 92.8857 41.5 93.0191 41.612C93.1577 41.724 93.3444 41.78 93.5791 41.78C93.7871 41.78 93.9737 41.7453 94.1391 41.676C94.3097 41.6013 94.4431 41.5027 94.5391 41.38C94.6404 41.252 94.6991 41.1107 94.7151 40.956L94.8911 41.7C94.7631 41.9773 94.5657 42.188 94.2991 42.332C94.0324 42.476 93.7097 42.548 93.3311 42.548C93.0271 42.548 92.7631 42.4893 92.5391 42.372C92.3151 42.2547 92.1417 42.0973 92.0191 41.9C91.8964 41.6973 91.8351 41.4707 91.8351 41.22C91.8351 40.8253 91.9764 40.516 92.2591 40.292C92.5417 40.0627 92.9417 39.9453 93.4591 39.94H94.8271V40.62H93.6271ZM94.7071 39.812C94.7071 39.556 94.6244 39.356 94.4591 39.212C94.2991 39.0627 94.0591 38.988 93.7391 38.988C93.5417 38.988 93.3337 39.0253 93.1151 39.1C92.9017 39.1693 92.6857 39.2707 92.4671 39.404L92.0911 38.732C92.2937 38.6093 92.4884 38.5107 92.6751 38.436C92.8617 38.356 93.0564 38.2973 93.2591 38.26C93.4671 38.2173 93.7044 38.196 93.9711 38.196C94.5311 38.196 94.9631 38.3293 95.2671 38.596C95.5711 38.8627 95.7257 39.2307 95.7311 39.7L95.7391 42.5H94.7151L94.7071 39.812ZM98.1138 41.108C98.1138 41.3213 98.1538 41.468 98.2338 41.548C98.3138 41.628 98.4231 41.668 98.5618 41.668C98.6471 41.668 98.7405 41.6547 98.8418 41.628C98.9431 41.596 99.0525 41.548 99.1698 41.484L99.4098 42.236C99.2498 42.332 99.0765 42.4093 98.8898 42.468C98.7085 42.5213 98.5245 42.548 98.3378 42.548C98.1085 42.548 97.8978 42.5053 97.7058 42.42C97.5138 42.3293 97.3618 42.1907 97.2498 42.004C97.1378 41.812 97.0818 41.572 97.0818 41.284V37.228H98.1138V41.108ZM96.4818 38.396H99.3378V39.124H96.4818V38.396ZM100.226 38.236H101.266V42.5H100.226V38.236ZM100.738 36.42C100.909 36.42 101.05 36.476 101.162 36.588C101.274 36.7 101.33 36.8413 101.33 37.012C101.33 37.1773 101.274 37.3187 101.162 37.436C101.05 37.548 100.909 37.604 100.738 37.604C100.573 37.604 100.434 37.548 100.322 37.436C100.21 37.3187 100.154 37.1773 100.154 37.012C100.154 36.8413 100.21 36.7 100.322 36.588C100.434 36.476 100.573 36.42 100.738 36.42ZM104.426 38.196C104.869 38.196 105.258 38.2867 105.594 38.468C105.936 38.6493 106.2 38.9027 106.386 39.228C106.578 39.5533 106.674 39.932 106.674 40.364C106.674 40.796 106.578 41.1747 106.386 41.5C106.2 41.8253 105.936 42.0813 105.594 42.268C105.258 42.4493 104.869 42.54 104.426 42.54C103.978 42.54 103.584 42.4493 103.242 42.268C102.901 42.0813 102.634 41.8253 102.442 41.5C102.256 41.1747 102.162 40.796 102.162 40.364C102.162 39.932 102.256 39.5533 102.442 39.228C102.634 38.9027 102.901 38.6493 103.242 38.468C103.584 38.2867 103.978 38.196 104.426 38.196ZM104.426 39.036C104.186 39.036 103.973 39.0947 103.786 39.212C103.605 39.324 103.464 39.4813 103.362 39.684C103.261 39.8813 103.21 40.1107 103.21 40.372C103.21 40.6387 103.261 40.8733 103.362 41.076C103.464 41.2787 103.605 41.436 103.786 41.548C103.973 41.66 104.186 41.716 104.426 41.716C104.661 41.716 104.869 41.66 105.05 41.548C105.232 41.436 105.373 41.2787 105.474 41.076C105.576 40.8733 105.626 40.6387 105.626 40.372C105.626 40.1107 105.576 39.8813 105.474 39.684C105.373 39.4813 105.232 39.324 105.05 39.212C104.869 39.0947 104.661 39.036 104.426 39.036ZM110.69 40.116C110.69 39.8067 110.604 39.564 110.434 39.388C110.268 39.212 110.036 39.124 109.738 39.124C109.391 39.124 109.116 39.2467 108.914 39.492C108.716 39.732 108.618 40.036 108.618 40.404H108.338C108.338 39.8813 108.41 39.46 108.554 39.14C108.703 38.8147 108.914 38.5773 109.186 38.428C109.463 38.2733 109.786 38.196 110.154 38.196C110.484 38.196 110.767 38.2627 111.002 38.396C111.236 38.5293 111.418 38.7187 111.546 38.964C111.674 39.204 111.738 39.4947 111.738 39.836V42.5H110.69V40.116ZM107.578 38.236H108.618V42.5H107.578V38.236ZM116.502 40.62C116.23 40.62 116.027 40.6627 115.894 40.748C115.761 40.8333 115.694 40.9747 115.694 41.172C115.694 41.3533 115.761 41.5 115.894 41.612C116.033 41.724 116.219 41.78 116.454 41.78C116.662 41.78 116.849 41.7453 117.014 41.676C117.185 41.6013 117.318 41.5027 117.414 41.38C117.515 41.252 117.574 41.1107 117.59 40.956L117.766 41.7C117.638 41.9773 117.441 42.188 117.174 42.332C116.907 42.476 116.585 42.548 116.206 42.548C115.902 42.548 115.638 42.4893 115.414 42.372C115.19 42.2547 115.017 42.0973 114.894 41.9C114.771 41.6973 114.71 41.4707 114.71 41.22C114.71 40.8253 114.851 40.516 115.134 40.292C115.417 40.0627 115.817 39.9453 116.334 39.94H117.702V40.62H116.502ZM117.582 39.812C117.582 39.556 117.499 39.356 117.334 39.212C117.174 39.0627 116.934 38.988 116.614 38.988C116.417 38.988 116.209 39.0253 115.99 39.1C115.777 39.1693 115.561 39.2707 115.342 39.404L114.966 38.732C115.169 38.6093 115.363 38.5107 115.55 38.436C115.737 38.356 115.931 38.2973 116.134 38.26C116.342 38.2173 116.579 38.196 116.846 38.196C117.406 38.196 117.838 38.3293 118.142 38.596C118.446 38.8627 118.601 39.2307 118.606 39.7L118.614 42.5H117.59L117.582 39.812ZM122.893 40.116C122.893 39.8067 122.807 39.564 122.637 39.388C122.471 39.212 122.239 39.124 121.941 39.124C121.594 39.124 121.319 39.2467 121.117 39.492C120.919 39.732 120.821 40.036 120.821 40.404H120.541C120.541 39.8813 120.613 39.46 120.757 39.14C120.906 38.8147 121.117 38.5773 121.389 38.428C121.666 38.2733 121.989 38.196 122.357 38.196C122.687 38.196 122.97 38.2627 123.205 38.396C123.439 38.5293 123.621 38.7187 123.749 38.964C123.877 39.204 123.941 39.4947 123.941 39.836V42.5H122.893V40.116ZM119.781 38.236H120.821V42.5H119.781V38.236ZM126.733 38.188C127.122 38.188 127.453 38.276 127.725 38.452C127.997 38.628 128.205 38.8787 128.349 39.204C128.493 39.524 128.562 39.9107 128.557 40.364C128.562 40.812 128.493 41.2013 128.349 41.532C128.21 41.8573 128.005 42.108 127.733 42.284C127.461 42.4547 127.136 42.54 126.757 42.54C126.352 42.54 125.994 42.4493 125.685 42.268C125.381 42.0813 125.144 41.8227 124.973 41.492C124.802 41.1613 124.717 40.7827 124.717 40.356C124.717 39.924 124.802 39.5453 124.973 39.22C125.144 38.8947 125.378 38.6413 125.677 38.46C125.981 38.2787 126.333 38.188 126.733 38.188ZM126.981 39.028C126.746 39.028 126.536 39.0867 126.349 39.204C126.168 39.3213 126.026 39.4813 125.925 39.684C125.824 39.8867 125.77 40.1187 125.765 40.38C125.77 40.6413 125.824 40.8733 125.925 41.076C126.026 41.2787 126.168 41.4387 126.349 41.556C126.536 41.668 126.746 41.724 126.981 41.724C127.221 41.724 127.432 41.668 127.613 41.556C127.8 41.4387 127.944 41.2787 128.045 41.076C128.146 40.8733 128.197 40.6413 128.197 40.38C128.197 40.1133 128.146 39.8813 128.045 39.684C127.944 39.4813 127.8 39.3213 127.613 39.204C127.432 39.0867 127.221 39.028 126.981 39.028ZM128.197 36.564H129.237V42.5H128.197V36.564ZM135.262 39.348C135.054 39.2253 134.838 39.132 134.614 39.068C134.39 38.9987 134.187 38.964 134.006 38.964C133.835 38.964 133.697 38.996 133.59 39.06C133.483 39.1187 133.43 39.22 133.43 39.364C133.43 39.4867 133.483 39.5853 133.59 39.66C133.702 39.7347 133.843 39.7987 134.014 39.852C134.185 39.9 134.366 39.9533 134.558 40.012C134.75 40.0707 134.931 40.148 135.102 40.244C135.278 40.34 135.419 40.468 135.526 40.628C135.638 40.788 135.694 40.9987 135.694 41.26C135.694 41.548 135.617 41.788 135.462 41.98C135.307 42.1667 135.102 42.308 134.846 42.404C134.59 42.4947 134.31 42.54 134.006 42.54C133.686 42.54 133.366 42.4893 133.046 42.388C132.731 42.2867 132.462 42.1373 132.238 41.94L132.598 41.244C132.795 41.4147 133.027 41.548 133.294 41.644C133.566 41.7347 133.817 41.78 134.046 41.78C134.169 41.78 134.278 41.764 134.374 41.732C134.47 41.7 134.545 41.6547 134.598 41.596C134.651 41.532 134.678 41.4493 134.678 41.348C134.678 41.2093 134.625 41.1027 134.518 41.028C134.411 40.948 134.273 40.8813 134.102 40.828C133.937 40.7693 133.758 40.7133 133.566 40.66C133.374 40.6013 133.193 40.5267 133.022 40.436C132.857 40.34 132.721 40.2147 132.614 40.06C132.507 39.9053 132.454 39.7 132.454 39.444C132.454 39.156 132.529 38.9187 132.678 38.732C132.827 38.5453 133.025 38.4093 133.27 38.324C133.515 38.2333 133.782 38.188 134.07 38.188C134.347 38.188 134.625 38.228 134.902 38.308C135.179 38.3827 135.425 38.4893 135.638 38.628L135.262 39.348ZM138.026 40.62C137.754 40.62 137.551 40.6627 137.418 40.748C137.284 40.8333 137.218 40.9747 137.218 41.172C137.218 41.3533 137.284 41.5 137.418 41.612C137.556 41.724 137.743 41.78 137.978 41.78C138.186 41.78 138.372 41.7453 138.538 41.676C138.708 41.6013 138.842 41.5027 138.938 41.38C139.039 41.252 139.098 41.1107 139.114 40.956L139.29 41.7C139.162 41.9773 138.964 42.188 138.698 42.332C138.431 42.476 138.108 42.548 137.73 42.548C137.426 42.548 137.162 42.4893 136.938 42.372C136.714 42.2547 136.54 42.0973 136.418 41.9C136.295 41.6973 136.234 41.4707 136.234 41.22C136.234 40.8253 136.375 40.516 136.658 40.292C136.94 40.0627 137.34 39.9453 137.858 39.94H139.226V40.62H138.026ZM139.106 39.812C139.106 39.556 139.023 39.356 138.858 39.212C138.698 39.0627 138.458 38.988 138.138 38.988C137.94 38.988 137.732 39.0253 137.514 39.1C137.3 39.1693 137.084 39.2707 136.866 39.404L136.49 38.732C136.692 38.6093 136.887 38.5107 137.074 38.436C137.26 38.356 137.455 38.2973 137.658 38.26C137.866 38.2173 138.103 38.196 138.37 38.196C138.93 38.196 139.362 38.3293 139.666 38.596C139.97 38.8627 140.124 39.2307 140.13 39.7L140.138 42.5H139.114L139.106 39.812ZM141.344 36.564H142.384V42.5H141.344V36.564ZM146.606 40.044C146.596 39.82 146.545 39.6307 146.454 39.476C146.364 39.316 146.236 39.1933 146.07 39.108C145.91 39.0173 145.726 38.972 145.518 38.972C145.278 38.972 145.07 39.028 144.894 39.14C144.718 39.252 144.58 39.4093 144.478 39.612C144.382 39.8147 144.334 40.0493 144.334 40.316C144.334 40.6093 144.388 40.8627 144.494 41.076C144.606 41.2893 144.758 41.4547 144.95 41.572C145.142 41.684 145.364 41.74 145.614 41.74C146.068 41.74 146.454 41.5773 146.774 41.252L147.326 41.804C147.113 42.0387 146.854 42.22 146.55 42.348C146.246 42.476 145.908 42.54 145.534 42.54C145.086 42.54 144.697 42.4493 144.366 42.268C144.041 42.0813 143.785 41.828 143.598 41.508C143.417 41.1827 143.326 40.804 143.326 40.372C143.326 39.94 143.417 39.5613 143.598 39.236C143.785 38.9107 144.041 38.6573 144.366 38.476C144.697 38.2947 145.076 38.2013 145.502 38.196C146.009 38.196 146.417 38.3 146.726 38.508C147.041 38.716 147.265 39.0093 147.398 39.388C147.532 39.7613 147.58 40.2067 147.542 40.724H144.182V40.044H146.606ZM150.989 39.348C150.781 39.2253 150.565 39.132 150.341 39.068C150.117 38.9987 149.914 38.964 149.733 38.964C149.562 38.964 149.423 38.996 149.317 39.06C149.21 39.1187 149.157 39.22 149.157 39.364C149.157 39.4867 149.21 39.5853 149.317 39.66C149.429 39.7347 149.57 39.7987 149.741 39.852C149.911 39.9 150.093 39.9533 150.285 40.012C150.477 40.0707 150.658 40.148 150.829 40.244C151.005 40.34 151.146 40.468 151.253 40.628C151.365 40.788 151.421 40.9987 151.421 41.26C151.421 41.548 151.343 41.788 151.189 41.98C151.034 42.1667 150.829 42.308 150.573 42.404C150.317 42.4947 150.037 42.54 149.733 42.54C149.413 42.54 149.093 42.4893 148.773 42.388C148.458 42.2867 148.189 42.1373 147.965 41.94L148.325 41.244C148.522 41.4147 148.754 41.548 149.021 41.644C149.293 41.7347 149.543 41.78 149.773 41.78C149.895 41.78 150.005 41.764 150.101 41.732C150.197 41.7 150.271 41.6547 150.325 41.596C150.378 41.532 150.405 41.4493 150.405 41.348C150.405 41.2093 150.351 41.1027 150.245 41.028C150.138 40.948 149.999 40.8813 149.829 40.828C149.663 40.7693 149.485 40.7133 149.293 40.66C149.101 40.6013 148.919 40.5267 148.749 40.436C148.583 40.34 148.447 40.2147 148.341 40.06C148.234 39.9053 148.181 39.7 148.181 39.444C148.181 39.156 148.255 38.9187 148.405 38.732C148.554 38.5453 148.751 38.4093 148.997 38.324C149.242 38.2333 149.509 38.188 149.797 38.188C150.074 38.188 150.351 38.228 150.629 38.308C150.906 38.3827 151.151 38.4893 151.365 38.628L150.989 39.348ZM27.168 48.196C27.5733 48.196 27.928 48.2867 28.232 48.468C28.536 48.6493 28.7707 48.9053 28.936 49.236C29.1067 49.5613 29.192 49.9427 29.192 50.38C29.192 50.8067 29.1093 51.1827 28.944 51.508C28.7787 51.828 28.544 52.0813 28.24 52.268C27.9413 52.4493 27.5893 52.54 27.184 52.54C26.8053 52.54 26.48 52.4547 26.208 52.284C25.936 52.108 25.728 51.8573 25.584 51.532C25.44 51.2067 25.368 50.8227 25.368 50.38C25.368 49.9213 25.4373 49.5293 25.576 49.204C25.72 48.8787 25.928 48.6307 26.2 48.46C26.472 48.284 26.7947 48.196 27.168 48.196ZM26.936 49.02C26.7013 49.02 26.4907 49.0787 26.304 49.196C26.1227 49.308 25.9813 49.4653 25.88 49.668C25.7787 49.8653 25.728 50.0947 25.728 50.356C25.728 50.6173 25.7787 50.8493 25.88 51.052C25.9813 51.2547 26.1227 51.412 26.304 51.524C26.4907 51.636 26.7013 51.692 26.936 51.692C27.176 51.692 27.384 51.636 27.56 51.524C27.7413 51.4067 27.8827 51.2493 27.984 51.052C28.0853 50.8493 28.136 50.6173 28.136 50.356C28.136 50.0947 28.0853 49.8653 27.984 49.668C27.8827 49.4653 27.7413 49.308 27.56 49.196C27.384 49.0787 27.176 49.02 26.936 49.02ZM24.688 46.564H25.728V52.5H24.688V46.564ZM31.7769 53.06C31.6382 53.4013 31.4462 53.66 31.2009 53.836C30.9555 54.012 30.6622 54.1 30.3209 54.1C30.1129 54.1 29.9235 54.068 29.7529 54.004C29.5875 53.94 29.4222 53.8467 29.2569 53.724L29.7049 52.972C29.8969 53.116 30.0809 53.188 30.2569 53.188C30.3955 53.188 30.5155 53.1507 30.6169 53.076C30.7235 53.0013 30.8115 52.8867 30.8809 52.732L31.0089 52.436L29.2409 48.236H30.3209L31.5369 51.404L32.6489 48.236H33.6969L31.7769 53.06ZM38.9887 49.348C38.7807 49.2253 38.5647 49.132 38.3407 49.068C38.1167 48.9987 37.914 48.964 37.7327 48.964C37.562 48.964 37.4234 48.996 37.3167 49.06C37.21 49.1187 37.1567 49.22 37.1567 49.364C37.1567 49.4867 37.21 49.5853 37.3167 49.66C37.4287 49.7347 37.57 49.7987 37.7407 49.852C37.9114 49.9 38.0927 49.9533 38.2847 50.012C38.4767 50.0707 38.658 50.148 38.8287 50.244C39.0047 50.34 39.146 50.468 39.2527 50.628C39.3647 50.788 39.4207 50.9987 39.4207 51.26C39.4207 51.548 39.3434 51.788 39.1887 51.98C39.034 52.1667 38.8287 52.308 38.5727 52.404C38.3167 52.4947 38.0367 52.54 37.7327 52.54C37.4127 52.54 37.0927 52.4893 36.7727 52.388C36.458 52.2867 36.1887 52.1373 35.9647 51.94L36.3247 51.244C36.522 51.4147 36.754 51.548 37.0207 51.644C37.2927 51.7347 37.5434 51.78 37.7727 51.78C37.8954 51.78 38.0047 51.764 38.1007 51.732C38.1967 51.7 38.2714 51.6547 38.3247 51.596C38.378 51.532 38.4047 51.4493 38.4047 51.348C38.4047 51.2093 38.3514 51.1027 38.2447 51.028C38.138 50.948 37.9994 50.8813 37.8287 50.828C37.6634 50.7693 37.4847 50.7133 37.2927 50.66C37.1007 50.6013 36.9194 50.5267 36.7487 50.436C36.5834 50.34 36.4474 50.2147 36.3407 50.06C36.234 49.9053 36.1807 49.7 36.1807 49.444C36.1807 49.156 36.2554 48.9187 36.4047 48.732C36.554 48.5453 36.7514 48.4093 36.9967 48.324C37.242 48.2333 37.5087 48.188 37.7967 48.188C38.074 48.188 38.3514 48.228 38.6287 48.308C38.906 48.3827 39.1514 48.4893 39.3647 48.628L38.9887 49.348ZM43.4721 50.116C43.4721 49.8067 43.3867 49.564 43.2161 49.388C43.0507 49.212 42.8187 49.124 42.5201 49.124C42.1681 49.124 41.8907 49.2467 41.6881 49.492C41.4907 49.732 41.3921 50.036 41.3921 50.404H41.1201C41.1201 49.8813 41.1921 49.46 41.3361 49.14C41.4854 48.8147 41.6961 48.5773 41.9681 48.428C42.2401 48.2733 42.5627 48.196 42.9361 48.196C43.2614 48.196 43.5414 48.2627 43.7761 48.396C44.0161 48.5293 44.2001 48.7187 44.3281 48.964C44.4561 49.204 44.5201 49.4947 44.5201 49.836V52.5H43.4721V50.116ZM40.3521 46.564H41.3921V52.5H40.3521V46.564ZM47.1271 50.62C46.8551 50.62 46.6524 50.6627 46.5191 50.748C46.3857 50.8333 46.3191 50.9747 46.3191 51.172C46.3191 51.3533 46.3857 51.5 46.5191 51.612C46.6577 51.724 46.8444 51.78 47.0791 51.78C47.2871 51.78 47.4737 51.7453 47.6391 51.676C47.8097 51.6013 47.9431 51.5027 48.0391 51.38C48.1404 51.252 48.1991 51.1107 48.2151 50.956L48.3911 51.7C48.2631 51.9773 48.0657 52.188 47.7991 52.332C47.5324 52.476 47.2097 52.548 46.8311 52.548C46.5271 52.548 46.2631 52.4893 46.0391 52.372C45.8151 52.2547 45.6417 52.0973 45.5191 51.9C45.3964 51.6973 45.3351 51.4707 45.3351 51.22C45.3351 50.8253 45.4764 50.516 45.7591 50.292C46.0417 50.0627 46.4417 49.9453 46.9591 49.94H48.3271V50.62H47.1271ZM48.2071 49.812C48.2071 49.556 48.1244 49.356 47.9591 49.212C47.7991 49.0627 47.5591 48.988 47.2391 48.988C47.0417 48.988 46.8337 49.0253 46.6151 49.1C46.4017 49.1693 46.1857 49.2707 45.9671 49.404L45.5911 48.732C45.7937 48.6093 45.9884 48.5107 46.1751 48.436C46.3617 48.356 46.5564 48.2973 46.7591 48.26C46.9671 48.2173 47.2044 48.196 47.4711 48.196C48.0311 48.196 48.4631 48.3293 48.7671 48.596C49.0711 48.8627 49.2257 49.2307 49.2311 49.7L49.2391 52.5H48.2151L48.2071 49.812ZM52.9018 49.14C52.6031 49.1187 52.3445 49.164 52.1258 49.276C51.9071 49.3827 51.7391 49.5373 51.6218 49.74C51.5045 49.9427 51.4458 50.1747 51.4458 50.436L51.1658 50.404C51.1658 49.9293 51.2351 49.5293 51.3738 49.204C51.5125 48.8733 51.7125 48.6227 51.9738 48.452C52.2351 48.2813 52.5445 48.196 52.9018 48.196V49.14ZM50.4058 48.236H51.4458V52.5H50.4058V48.236ZM53.6324 48.236H54.6724V52.5H53.6324V48.236ZM54.1444 46.42C54.315 46.42 54.4564 46.476 54.5684 46.588C54.6804 46.7 54.7364 46.8413 54.7364 47.012C54.7364 47.1773 54.6804 47.3187 54.5684 47.436C54.4564 47.548 54.315 47.604 54.1444 47.604C53.979 47.604 53.8404 47.548 53.7284 47.436C53.6164 47.3187 53.5604 47.1773 53.5604 47.012C53.5604 46.8413 53.6164 46.7 53.7284 46.588C53.8404 46.476 53.979 46.42 54.1444 46.42ZM59.0725 50.116C59.0725 49.8067 58.9872 49.564 58.8165 49.388C58.6512 49.212 58.4192 49.124 58.1205 49.124C57.7738 49.124 57.4992 49.2467 57.2965 49.492C57.0992 49.732 57.0005 50.036 57.0005 50.404H56.7205C56.7205 49.8813 56.7925 49.46 56.9365 49.14C57.0858 48.8147 57.2965 48.5773 57.5685 48.428C57.8458 48.2733 58.1685 48.196 58.5365 48.196C58.8672 48.196 59.1498 48.2627 59.3845 48.396C59.6192 48.5293 59.8005 48.7187 59.9285 48.964C60.0565 49.204 60.1205 49.4947 60.1205 49.836V52.5H59.0725V50.116ZM55.9605 48.236H57.0005V52.5H55.9605V48.236ZM65.2006 52.084C65.2006 52.4947 65.1073 52.8493 64.9206 53.148C64.7393 53.4467 64.4806 53.676 64.1446 53.836C63.8086 54.0013 63.414 54.084 62.9606 54.084C62.614 54.084 62.2886 54.0333 61.9846 53.932C61.686 53.8307 61.4086 53.6947 61.1526 53.524L61.5686 52.812C61.766 52.956 61.974 53.068 62.1926 53.148C62.4113 53.228 62.6486 53.268 62.9046 53.268C63.1606 53.268 63.382 53.22 63.5686 53.124C63.7606 53.028 63.9073 52.8947 64.0086 52.724C64.11 52.5533 64.1606 52.3507 64.1606 52.116V48.236H65.2006V52.084ZM62.7686 48.196C63.1366 48.1907 63.4513 48.2707 63.7126 48.436C63.974 48.6013 64.174 48.836 64.3126 49.14C64.4513 49.444 64.518 49.8093 64.5126 50.236C64.518 50.6627 64.4513 51.0307 64.3126 51.34C64.1793 51.644 63.9846 51.8787 63.7286 52.044C63.4726 52.2093 63.1633 52.292 62.8006 52.292C62.422 52.292 62.0886 52.2067 61.8006 52.036C61.518 51.86 61.2966 51.6173 61.1366 51.308C60.9766 50.9933 60.8966 50.6333 60.8966 50.228C60.8966 49.8227 60.974 49.4707 61.1286 49.172C61.2886 48.868 61.51 48.6307 61.7926 48.46C62.0753 48.284 62.4006 48.196 62.7686 48.196ZM63.0246 48.988C62.806 48.988 62.6086 49.0413 62.4326 49.148C62.262 49.2547 62.1286 49.404 62.0326 49.596C61.9366 49.788 61.886 50.0067 61.8806 50.252C61.886 50.4973 61.9366 50.716 62.0326 50.908C62.1286 51.1 62.262 51.2493 62.4326 51.356C62.6033 51.4627 62.8006 51.516 63.0246 51.516C63.2486 51.516 63.446 51.4627 63.6166 51.356C63.7873 51.2493 63.9206 51.1 64.0166 50.908C64.1126 50.716 64.1606 50.4973 64.1606 50.252C64.1606 50.0013 64.1126 49.7827 64.0166 49.596C63.9206 49.404 63.7873 49.2547 63.6166 49.148C63.446 49.0413 63.2486 48.988 63.0246 48.988ZM68.5777 48.236H69.6177V52.5H68.5777V48.236ZM69.0897 46.42C69.2604 46.42 69.4017 46.476 69.5137 46.588C69.6257 46.7 69.6817 46.8413 69.6817 47.012C69.6817 47.1773 69.6257 47.3187 69.5137 47.436C69.4017 47.548 69.2604 47.604 69.0897 47.604C68.9244 47.604 68.7857 47.548 68.6737 47.436C68.5617 47.3187 68.5057 47.1773 68.5057 47.012C68.5057 46.8413 68.5617 46.7 68.6737 46.588C68.7857 46.476 68.9244 46.42 69.0897 46.42ZM73.9618 50.116C73.9618 49.8013 73.8791 49.556 73.7138 49.38C73.5538 49.204 73.3271 49.116 73.0338 49.116C72.6978 49.1213 72.4311 49.2467 72.2338 49.492C72.0418 49.732 71.9458 50.0333 71.9458 50.396H71.6658C71.6658 49.8787 71.7378 49.46 71.8818 49.14C72.0258 48.8147 72.2311 48.5773 72.4978 48.428C72.7698 48.2733 73.0871 48.196 73.4498 48.196C73.7751 48.196 74.0525 48.2627 74.2818 48.396C74.5165 48.5293 74.6951 48.7187 74.8178 48.964C74.9458 49.204 75.0098 49.4947 75.0098 49.836V52.5H73.9618V50.116ZM77.0258 50.116C77.0258 49.8013 76.9431 49.556 76.7778 49.38C76.6125 49.204 76.3831 49.116 76.0898 49.116C75.7538 49.1213 75.4898 49.2467 75.2978 49.492C75.1058 49.732 75.0098 50.0333 75.0098 50.396H74.7298C74.7298 49.8787 74.8018 49.46 74.9458 49.14C75.0898 48.8147 75.2951 48.5773 75.5618 48.428C75.8285 48.2733 76.1458 48.196 76.5138 48.196C76.8338 48.196 77.1085 48.2627 77.3378 48.396C77.5725 48.5293 77.7538 48.7187 77.8818 48.964C78.0098 49.204 78.0738 49.4947 78.0738 49.836V52.5H77.0258V50.116ZM70.9058 48.236H71.9458V52.5H70.9058V48.236ZM81.7539 48.196C82.1593 48.196 82.5139 48.2867 82.8179 48.468C83.1219 48.6493 83.3566 48.9053 83.5219 49.236C83.6926 49.5613 83.7779 49.9427 83.7779 50.38C83.7779 50.8067 83.6953 51.1827 83.5299 51.508C83.3646 51.828 83.1299 52.0813 82.8259 52.268C82.5273 52.4493 82.1753 52.54 81.7699 52.54C81.3913 52.54 81.0659 52.4547 80.7939 52.284C80.5219 52.108 80.3139 51.8573 80.1699 51.532C80.0259 51.2067 79.9539 50.8227 79.9539 50.38C79.9539 49.9213 80.0233 49.5293 80.1619 49.204C80.3059 48.8787 80.5139 48.6307 80.7859 48.46C81.0579 48.284 81.3806 48.196 81.7539 48.196ZM81.5219 49.02C81.2873 49.02 81.0766 49.0787 80.8899 49.196C80.7086 49.308 80.5673 49.4653 80.4659 49.668C80.3646 49.8653 80.3139 50.0947 80.3139 50.356C80.3139 50.6173 80.3646 50.8493 80.4659 51.052C80.5673 51.2547 80.7086 51.412 80.8899 51.524C81.0766 51.636 81.2873 51.692 81.5219 51.692C81.7619 51.692 81.9699 51.636 82.1459 51.524C82.3273 51.4067 82.4686 51.2493 82.5699 51.052C82.6713 50.8493 82.7219 50.6173 82.7219 50.356C82.7219 50.0947 82.6713 49.8653 82.5699 49.668C82.4686 49.4653 82.3273 49.308 82.1459 49.196C81.9699 49.0787 81.7619 49.02 81.5219 49.02ZM79.2739 48.236H80.3139V54.052H79.2739V48.236ZM86.1193 50.62C85.8473 50.62 85.6446 50.6627 85.5113 50.748C85.3779 50.8333 85.3113 50.9747 85.3113 51.172C85.3113 51.3533 85.3779 51.5 85.5113 51.612C85.6499 51.724 85.8366 51.78 86.0713 51.78C86.2793 51.78 86.4659 51.7453 86.6313 51.676C86.8019 51.6013 86.9353 51.5027 87.0313 51.38C87.1326 51.252 87.1913 51.1107 87.2073 50.956L87.3833 51.7C87.2553 51.9773 87.0579 52.188 86.7913 52.332C86.5246 52.476 86.2019 52.548 85.8233 52.548C85.5193 52.548 85.2553 52.4893 85.0312 52.372C84.8073 52.2547 84.6339 52.0973 84.5113 51.9C84.3886 51.6973 84.3273 51.4707 84.3273 51.22C84.3273 50.8253 84.4686 50.516 84.7513 50.292C85.0339 50.0627 85.4339 49.9453 85.9513 49.94H87.3193V50.62H86.1193ZM87.1993 49.812C87.1993 49.556 87.1166 49.356 86.9513 49.212C86.7913 49.0627 86.5513 48.988 86.2313 48.988C86.0339 48.988 85.8259 49.0253 85.6073 49.1C85.3939 49.1693 85.1779 49.2707 84.9593 49.404L84.5833 48.732C84.7859 48.6093 84.9806 48.5107 85.1673 48.436C85.3539 48.356 85.5486 48.2973 85.7513 48.26C85.9593 48.2173 86.1966 48.196 86.4633 48.196C87.0233 48.196 87.4553 48.3293 87.7593 48.596C88.0633 48.8627 88.2179 49.2307 88.2233 49.7L88.2313 52.5H87.2073L87.1993 49.812ZM92.342 49.532C92.2087 49.3827 92.046 49.268 91.854 49.188C91.6673 49.1027 91.4567 49.06 91.222 49.06C90.9927 49.06 90.79 49.116 90.614 49.228C90.438 49.3347 90.2993 49.4867 90.198 49.684C90.102 49.8813 90.054 50.1107 90.054 50.372C90.054 50.6333 90.102 50.8627 90.198 51.06C90.2993 51.2573 90.438 51.412 90.614 51.524C90.79 51.636 90.9927 51.692 91.222 51.692C91.4673 51.692 91.6887 51.6493 91.886 51.564C92.0833 51.4787 92.246 51.3507 92.374 51.18L93.022 51.708C92.8353 51.9693 92.5847 52.1747 92.27 52.324C91.9553 52.468 91.59 52.54 91.174 52.54C90.7473 52.54 90.3713 52.4493 90.046 52.268C89.7207 52.0813 89.4647 51.828 89.278 51.508C89.0967 51.1827 89.006 50.804 89.006 50.372C89.006 49.94 89.0967 49.5613 89.278 49.236C89.4647 48.9107 89.7207 48.6573 90.046 48.476C90.3713 48.2893 90.7473 48.196 91.174 48.196C91.574 48.196 91.926 48.2627 92.23 48.396C92.534 48.524 92.7847 48.7053 92.982 48.94L92.342 49.532ZM95.1216 51.108C95.1216 51.3213 95.1616 51.468 95.2416 51.548C95.3216 51.628 95.431 51.668 95.5696 51.668C95.655 51.668 95.7483 51.6547 95.8496 51.628C95.951 51.596 96.0603 51.548 96.1776 51.484L96.4176 52.236C96.2576 52.332 96.0843 52.4093 95.8976 52.468C95.7163 52.5213 95.5323 52.548 95.3456 52.548C95.1163 52.548 94.9056 52.5053 94.7136 52.42C94.5216 52.3293 94.3696 52.1907 94.2576 52.004C94.1456 51.812 94.0896 51.572 94.0896 51.284V47.228H95.1216V51.108ZM93.4896 48.396H96.3456V49.124H93.4896V48.396ZM97.4259 47.988C97.4259 47.6573 97.4979 47.3827 97.6419 47.164C97.7859 46.9453 97.9726 46.7827 98.2019 46.676C98.4313 46.5693 98.6793 46.516 98.9459 46.516C99.0793 46.516 99.2126 46.5347 99.3459 46.572C99.4846 46.604 99.6126 46.6493 99.7299 46.708L99.5459 47.5C99.4659 47.468 99.3806 47.4387 99.2899 47.412C99.1993 47.3853 99.1086 47.372 99.0179 47.372C98.9219 47.3667 98.8313 47.3853 98.7459 47.428C98.6606 47.4653 98.5913 47.5267 98.5379 47.612C98.4899 47.692 98.4659 47.7987 98.4659 47.932V52.5H97.4259V47.988ZM96.8659 48.396H99.5379V49.124H96.8659V48.396ZM101.154 50.612C101.154 50.9213 101.234 51.1667 101.394 51.348C101.559 51.524 101.786 51.612 102.074 51.612C102.41 51.6013 102.671 51.476 102.858 51.236C103.05 50.996 103.146 50.6947 103.146 50.332H103.418C103.418 50.8493 103.346 51.2707 103.202 51.596C103.058 51.916 102.855 52.1533 102.594 52.308C102.332 52.4573 102.02 52.5347 101.658 52.54C101.338 52.54 101.06 52.4733 100.826 52.34C100.596 52.2067 100.418 52.0173 100.29 51.772C100.167 51.5213 100.106 51.228 100.106 50.892V48.236H101.154V50.612ZM103.146 48.236H104.194V52.5H103.146V48.236ZM105.532 46.564H106.572V52.5H105.532V46.564ZM111.502 50.62C111.23 50.62 111.027 50.6627 110.894 50.748C110.761 50.8333 110.694 50.9747 110.694 51.172C110.694 51.3533 110.761 51.5 110.894 51.612C111.033 51.724 111.219 51.78 111.454 51.78C111.662 51.78 111.849 51.7453 112.014 51.676C112.185 51.6013 112.318 51.5027 112.414 51.38C112.515 51.252 112.574 51.1107 112.59 50.956L112.766 51.7C112.638 51.9773 112.441 52.188 112.174 52.332C111.907 52.476 111.585 52.548 111.206 52.548C110.902 52.548 110.638 52.4893 110.414 52.372C110.19 52.2547 110.017 52.0973 109.894 51.9C109.771 51.6973 109.71 51.4707 109.71 51.22C109.71 50.8253 109.851 50.516 110.134 50.292C110.417 50.0627 110.817 49.9453 111.334 49.94H112.702V50.62H111.502ZM112.582 49.812C112.582 49.556 112.499 49.356 112.334 49.212C112.174 49.0627 111.934 48.988 111.614 48.988C111.417 48.988 111.209 49.0253 110.99 49.1C110.777 49.1693 110.561 49.2707 110.342 49.404L109.966 48.732C110.169 48.6093 110.363 48.5107 110.55 48.436C110.737 48.356 110.931 48.2973 111.134 48.26C111.342 48.2173 111.579 48.196 111.846 48.196C112.406 48.196 112.838 48.3293 113.142 48.596C113.446 48.8627 113.601 49.2307 113.606 49.7L113.614 52.5H112.59L112.582 49.812ZM117.893 50.116C117.893 49.8067 117.807 49.564 117.637 49.388C117.471 49.212 117.239 49.124 116.941 49.124C116.594 49.124 116.319 49.2467 116.117 49.492C115.919 49.732 115.821 50.036 115.821 50.404H115.541C115.541 49.8813 115.613 49.46 115.757 49.14C115.906 48.8147 116.117 48.5773 116.389 48.428C116.666 48.2733 116.989 48.196 117.357 48.196C117.687 48.196 117.97 48.2627 118.205 48.396C118.439 48.5293 118.621 48.7187 118.749 48.964C118.877 49.204 118.941 49.4947 118.941 49.836V52.5H117.893V50.116ZM114.781 48.236H115.821V52.5H114.781V48.236ZM123.221 50.116C123.221 49.8067 123.136 49.564 122.965 49.388C122.8 49.212 122.568 49.124 122.269 49.124C121.922 49.124 121.648 49.2467 121.445 49.492C121.248 49.732 121.149 50.036 121.149 50.404H120.869C120.869 49.8813 120.941 49.46 121.085 49.14C121.234 48.8147 121.445 48.5773 121.717 48.428C121.994 48.2733 122.317 48.196 122.685 48.196C123.016 48.196 123.298 48.2627 123.533 48.396C123.768 48.5293 123.949 48.7187 124.077 48.964C124.205 49.204 124.269 49.4947 124.269 49.836V52.5H123.221V50.116ZM120.109 48.236H121.149V52.5H120.109V48.236ZM127.309 48.196C127.752 48.196 128.141 48.2867 128.477 48.468C128.818 48.6493 129.082 48.9027 129.269 49.228C129.461 49.5533 129.557 49.932 129.557 50.364C129.557 50.796 129.461 51.1747 129.269 51.5C129.082 51.8253 128.818 52.0813 128.477 52.268C128.141 52.4493 127.752 52.54 127.309 52.54C126.861 52.54 126.466 52.4493 126.125 52.268C125.784 52.0813 125.517 51.8253 125.325 51.5C125.138 51.1747 125.045 50.796 125.045 50.364C125.045 49.932 125.138 49.5533 125.325 49.228C125.517 48.9027 125.784 48.6493 126.125 48.468C126.466 48.2867 126.861 48.196 127.309 48.196ZM127.309 49.036C127.069 49.036 126.856 49.0947 126.669 49.212C126.488 49.324 126.346 49.4813 126.245 49.684C126.144 49.8813 126.093 50.1107 126.093 50.372C126.093 50.6387 126.144 50.8733 126.245 51.076C126.346 51.2787 126.488 51.436 126.669 51.548C126.856 51.66 127.069 51.716 127.309 51.716C127.544 51.716 127.752 51.66 127.933 51.548C128.114 51.436 128.256 51.2787 128.357 51.076C128.458 50.8733 128.509 50.6387 128.509 50.372C128.509 50.1107 128.458 49.8813 128.357 49.684C128.256 49.4813 128.114 49.324 127.933 49.212C127.752 49.0947 127.544 49.036 127.309 49.036ZM131.373 50.612C131.373 50.9213 131.453 51.1667 131.613 51.348C131.778 51.524 132.005 51.612 132.293 51.612C132.629 51.6013 132.89 51.476 133.077 51.236C133.269 50.996 133.365 50.6947 133.365 50.332H133.637C133.637 50.8493 133.565 51.2707 133.421 51.596C133.277 51.916 133.074 52.1533 132.813 52.308C132.551 52.4573 132.239 52.5347 131.877 52.54C131.557 52.54 131.279 52.4733 131.045 52.34C130.815 52.2067 130.637 52.0173 130.509 51.772C130.386 51.5213 130.325 51.228 130.325 50.892V48.236H131.373V50.612ZM133.365 48.236H134.413V52.5H133.365V48.236ZM138.823 50.116C138.823 49.8067 138.737 49.564 138.567 49.388C138.401 49.212 138.169 49.124 137.871 49.124C137.524 49.124 137.249 49.2467 137.047 49.492C136.849 49.732 136.751 50.036 136.751 50.404H136.471C136.471 49.8813 136.543 49.46 136.687 49.14C136.836 48.8147 137.047 48.5773 137.319 48.428C137.596 48.2733 137.919 48.196 138.287 48.196C138.617 48.196 138.9 48.2627 139.135 48.396C139.369 48.5293 139.551 48.7187 139.679 48.964C139.807 49.204 139.871 49.4947 139.871 49.836V52.5H138.823V50.116ZM135.711 48.236H136.751V52.5H135.711V48.236ZM143.983 49.532C143.849 49.3827 143.687 49.268 143.495 49.188C143.308 49.1027 143.097 49.06 142.863 49.06C142.633 49.06 142.431 49.116 142.255 49.228C142.079 49.3347 141.94 49.4867 141.839 49.684C141.743 49.8813 141.695 50.1107 141.695 50.372C141.695 50.6333 141.743 50.8627 141.839 51.06C141.94 51.2573 142.079 51.412 142.255 51.524C142.431 51.636 142.633 51.692 142.863 51.692C143.108 51.692 143.329 51.6493 143.527 51.564C143.724 51.4787 143.887 51.3507 144.015 51.18L144.663 51.708C144.476 51.9693 144.225 52.1747 143.911 52.324C143.596 52.468 143.231 52.54 142.815 52.54C142.388 52.54 142.012 52.4493 141.687 52.268C141.361 52.0813 141.105 51.828 140.919 51.508C140.737 51.1827 140.647 50.804 140.647 50.372C140.647 49.94 140.737 49.5613 140.919 49.236C141.105 48.9107 141.361 48.6573 141.687 48.476C142.012 48.2893 142.388 48.196 142.815 48.196C143.215 48.196 143.567 48.2627 143.871 48.396C144.175 48.524 144.425 48.7053 144.623 48.94L143.983 49.532ZM148.286 50.044C148.275 49.82 148.225 49.6307 148.134 49.476C148.043 49.316 147.915 49.1933 147.75 49.108C147.59 49.0173 147.406 48.972 147.198 48.972C146.958 48.972 146.75 49.028 146.574 49.14C146.398 49.252 146.259 49.4093 146.158 49.612C146.062 49.8147 146.014 50.0493 146.014 50.316C146.014 50.6093 146.067 50.8627 146.174 51.076C146.286 51.2893 146.438 51.4547 146.63 51.572C146.822 51.684 147.043 51.74 147.294 51.74C147.747 51.74 148.134 51.5773 148.454 51.252L149.006 51.804C148.793 52.0387 148.534 52.22 148.23 52.348C147.926 52.476 147.587 52.54 147.214 52.54C146.766 52.54 146.377 52.4493 146.046 52.268C145.721 52.0813 145.465 51.828 145.278 51.508C145.097 51.1827 145.006 50.804 145.006 50.372C145.006 49.94 145.097 49.5613 145.278 49.236C145.465 48.9107 145.721 48.6573 146.046 48.476C146.377 48.2947 146.755 48.2013 147.182 48.196C147.689 48.196 148.097 48.3 148.406 48.508C148.721 48.716 148.945 49.0093 149.078 49.388C149.211 49.7613 149.259 50.2067 149.222 50.724H145.862V50.044H148.286ZM153.188 50.116C153.188 49.8013 153.106 49.556 152.94 49.38C152.78 49.204 152.554 49.116 152.26 49.116C151.924 49.1213 151.658 49.2467 151.46 49.492C151.268 49.732 151.172 50.0333 151.172 50.396H150.892C150.892 49.8787 150.964 49.46 151.108 49.14C151.252 48.8147 151.458 48.5773 151.724 48.428C151.996 48.2733 152.314 48.196 152.676 48.196C153.002 48.196 153.279 48.2627 153.508 48.396C153.743 48.5293 153.922 48.7187 154.044 48.964C154.172 49.204 154.236 49.4947 154.236 49.836V52.5H153.188V50.116ZM156.252 50.116C156.252 49.8013 156.17 49.556 156.004 49.38C155.839 49.204 155.61 49.116 155.316 49.116C154.98 49.1213 154.716 49.2467 154.524 49.492C154.332 49.732 154.236 50.0333 154.236 50.396H153.956C153.956 49.8787 154.028 49.46 154.172 49.14C154.316 48.8147 154.522 48.5773 154.788 48.428C155.055 48.2733 155.372 48.196 155.74 48.196C156.06 48.196 156.335 48.2627 156.564 48.396C156.799 48.5293 156.98 48.7187 157.108 48.964C157.236 49.204 157.3 49.4947 157.3 49.836V52.5H156.252V50.116ZM150.132 48.236H151.172V52.5H150.132V48.236ZM161.349 50.044C161.338 49.82 161.287 49.6307 161.197 49.476C161.106 49.316 160.978 49.1933 160.813 49.108C160.653 49.0173 160.469 48.972 160.261 48.972C160.021 48.972 159.813 49.028 159.637 49.14C159.461 49.252 159.322 49.4093 159.221 49.612C159.125 49.8147 159.077 50.0493 159.077 50.316C159.077 50.6093 159.13 50.8627 159.237 51.076C159.349 51.2893 159.501 51.4547 159.693 51.572C159.885 51.684 160.106 51.74 160.357 51.74C160.81 51.74 161.197 51.5773 161.517 51.252L162.069 51.804C161.855 52.0387 161.597 52.22 161.293 52.348C160.989 52.476 160.65 52.54 160.277 52.54C159.829 52.54 159.439 52.4493 159.109 52.268C158.783 52.0813 158.527 51.828 158.34 51.508C158.159 51.1827 158.069 50.804 158.069 50.372C158.069 49.94 158.159 49.5613 158.34 49.236C158.527 48.9107 158.783 48.6573 159.109 48.476C159.439 48.2947 159.818 48.2013 160.245 48.196C160.751 48.196 161.159 48.3 161.469 48.508C161.783 48.716 162.007 49.0093 162.141 49.388C162.274 49.7613 162.322 50.2067 162.285 50.724H158.925V50.044H161.349ZM166.307 50.116C166.307 49.8067 166.222 49.564 166.051 49.388C165.886 49.212 165.654 49.124 165.355 49.124C165.008 49.124 164.734 49.2467 164.531 49.492C164.334 49.732 164.235 50.036 164.235 50.404H163.955C163.955 49.8813 164.027 49.46 164.171 49.14C164.32 48.8147 164.531 48.5773 164.803 48.428C165.08 48.2733 165.403 48.196 165.771 48.196C166.102 48.196 166.384 48.2627 166.619 48.396C166.854 48.5293 167.035 48.7187 167.163 48.964C167.291 49.204 167.355 49.4947 167.355 49.836V52.5H166.307V50.116ZM163.195 48.236H164.235V52.5H163.195V48.236ZM169.731 51.108C169.731 51.3213 169.771 51.468 169.851 51.548C169.931 51.628 170.04 51.668 170.179 51.668C170.264 51.668 170.358 51.6547 170.459 51.628C170.56 51.596 170.67 51.548 170.787 51.484L171.027 52.236C170.867 52.332 170.694 52.4093 170.507 52.468C170.326 52.5213 170.142 52.548 169.955 52.548C169.726 52.548 169.515 52.5053 169.323 52.42C169.131 52.3293 168.979 52.1907 168.867 52.004C168.755 51.812 168.699 51.572 168.699 51.284V47.228H169.731V51.108ZM168.099 48.396H170.955V49.124H168.099V48.396ZM174.379 49.348C174.171 49.2253 173.955 49.132 173.731 49.068C173.507 48.9987 173.305 48.964 173.123 48.964C172.953 48.964 172.814 48.996 172.707 49.06C172.601 49.1187 172.547 49.22 172.547 49.364C172.547 49.4867 172.601 49.5853 172.707 49.66C172.819 49.7347 172.961 49.7987 173.131 49.852C173.302 49.9 173.483 49.9533 173.675 50.012C173.867 50.0707 174.049 50.148 174.219 50.244C174.395 50.34 174.537 50.468 174.643 50.628C174.755 50.788 174.811 50.9987 174.811 51.26C174.811 51.548 174.734 51.788 174.579 51.98C174.425 52.1667 174.219 52.308 173.963 52.404C173.707 52.4947 173.427 52.54 173.123 52.54C172.803 52.54 172.483 52.4893 172.163 52.388C171.849 52.2867 171.579 52.1373 171.355 51.94L171.715 51.244C171.913 51.4147 172.145 51.548 172.411 51.644C172.683 51.7347 172.934 51.78 173.163 51.78C173.286 51.78 173.395 51.764 173.491 51.732C173.587 51.7 173.662 51.6547 173.715 51.596C173.769 51.532 173.795 51.4493 173.795 51.348C173.795 51.2093 173.742 51.1027 173.635 51.028C173.529 50.948 173.39 50.8813 173.219 50.828C173.054 50.7693 172.875 50.7133 172.683 50.66C172.491 50.6013 172.31 50.5267 172.139 50.436C171.974 50.34 171.838 50.2147 171.731 50.06C171.625 49.9053 171.571 49.7 171.571 49.444C171.571 49.156 171.646 48.9187 171.795 48.732C171.945 48.5453 172.142 48.4093 172.387 48.324C172.633 48.2333 172.899 48.188 173.187 48.188C173.465 48.188 173.742 48.228 174.019 48.308C174.297 48.3827 174.542 48.4893 174.755 48.628L174.379 49.348ZM24.84 57.988C24.84 57.6573 24.912 57.3827 25.056 57.164C25.2 56.9453 25.3867 56.7827 25.616 56.676C25.8453 56.5693 26.0933 56.516 26.36 56.516C26.4933 56.516 26.6267 56.5347 26.76 56.572C26.8987 56.604 27.0267 56.6493 27.144 56.708L26.96 57.5C26.88 57.468 26.7947 57.4387 26.704 57.412C26.6133 57.3853 26.5227 57.372 26.432 57.372C26.336 57.3667 26.2453 57.3853 26.16 57.428C26.0747 57.4653 26.0053 57.5267 25.952 57.612C25.904 57.692 25.88 57.7987 25.88 57.932V62.5H24.84V57.988ZM24.28 58.396H26.952V59.124H24.28V58.396ZM29.3638 58.196C29.8064 58.196 30.1958 58.2867 30.5318 58.468C30.8731 58.6493 31.1371 58.9027 31.3238 59.228C31.5158 59.5533 31.6118 59.932 31.6118 60.364C31.6118 60.796 31.5158 61.1747 31.3238 61.5C31.1371 61.8253 30.8731 62.0813 30.5318 62.268C30.1958 62.4493 29.8064 62.54 29.3638 62.54C28.9158 62.54 28.5211 62.4493 28.1798 62.268C27.8384 62.0813 27.5718 61.8253 27.3798 61.5C27.1931 61.1747 27.0998 60.796 27.0998 60.364C27.0998 59.932 27.1931 59.5533 27.3798 59.228C27.5718 58.9027 27.8384 58.6493 28.1798 58.468C28.5211 58.2867 28.9158 58.196 29.3638 58.196ZM29.3638 59.036C29.1238 59.036 28.9104 59.0947 28.7238 59.212C28.5424 59.324 28.4011 59.4813 28.2998 59.684C28.1984 59.8813 28.1478 60.1107 28.1478 60.372C28.1478 60.6387 28.1984 60.8733 28.2998 61.076C28.4011 61.2787 28.5424 61.436 28.7238 61.548C28.9104 61.66 29.1238 61.716 29.3638 61.716C29.5984 61.716 29.8064 61.66 29.9878 61.548C30.1691 61.436 30.3104 61.2787 30.4118 61.076C30.5131 60.8733 30.5638 60.6387 30.5638 60.372C30.5638 60.1107 30.5131 59.8813 30.4118 59.684C30.3104 59.4813 30.1691 59.324 29.9878 59.212C29.8064 59.0947 29.5984 59.036 29.3638 59.036ZM35.0112 59.14C34.7125 59.1187 34.4539 59.164 34.2352 59.276C34.0165 59.3827 33.8485 59.5373 33.7312 59.74C33.6139 59.9427 33.5552 60.1747 33.5552 60.436L33.2752 60.404C33.2752 59.9293 33.3445 59.5293 33.4832 59.204C33.6219 58.8733 33.8219 58.6227 34.0832 58.452C34.3445 58.2813 34.6539 58.196 35.0112 58.196V59.14ZM32.5152 58.236H33.5552V62.5H32.5152V58.236ZM41.01 60.116C41.01 59.8067 40.9247 59.564 40.754 59.388C40.5887 59.212 40.3567 59.124 40.058 59.124C39.7113 59.124 39.4367 59.2467 39.234 59.492C39.0367 59.732 38.938 60.036 38.938 60.404H38.658C38.658 59.8813 38.73 59.46 38.874 59.14C39.0233 58.8147 39.234 58.5773 39.506 58.428C39.7833 58.2733 40.106 58.196 40.474 58.196C40.8047 58.196 41.0873 58.2627 41.322 58.396C41.5567 58.5293 41.738 58.7187 41.866 58.964C41.994 59.204 42.058 59.4947 42.058 59.836V62.5H41.01V60.116ZM37.898 58.236H38.938V62.5H37.898V58.236ZM46.1141 60.044C46.1035 59.82 46.0528 59.6307 45.9621 59.476C45.8715 59.316 45.7435 59.1933 45.5781 59.108C45.4181 59.0173 45.2341 58.972 45.0261 58.972C44.7861 58.972 44.5781 59.028 44.4021 59.14C44.2261 59.252 44.0875 59.4093 43.9861 59.612C43.8901 59.8147 43.8421 60.0493 43.8421 60.316C43.8421 60.6093 43.8955 60.8627 44.0021 61.076C44.1141 61.2893 44.2661 61.4547 44.4581 61.572C44.6501 61.684 44.8715 61.74 45.1221 61.74C45.5755 61.74 45.9621 61.5773 46.2821 61.252L46.8341 61.804C46.6208 62.0387 46.3621 62.22 46.0581 62.348C45.7541 62.476 45.4155 62.54 45.0421 62.54C44.5941 62.54 44.2048 62.4493 43.8741 62.268C43.5488 62.0813 43.2928 61.828 43.1061 61.508C42.9248 61.1827 42.8341 60.804 42.8341 60.372C42.8341 59.94 42.9248 59.5613 43.1061 59.236C43.2928 58.9107 43.5488 58.6573 43.8741 58.476C44.2048 58.2947 44.5835 58.2013 45.0101 58.196C45.5168 58.196 45.9248 58.3 46.2341 58.508C46.5488 58.716 46.7728 59.0093 46.9061 59.388C47.0395 59.7613 47.0875 60.2067 47.0501 60.724H43.6901V60.044H46.1141ZM47.1561 58.236H48.2281L49.2761 61.524L50.2921 58.236H51.3401L52.3721 61.524L53.3961 58.236H54.4521L52.8921 62.5H51.8201L50.8121 59.412L49.7881 62.5H48.7321L47.1561 58.236ZM59.7065 59.14C59.4078 59.1187 59.1492 59.164 58.9305 59.276C58.7118 59.3827 58.5438 59.5373 58.4265 59.74C58.3092 59.9427 58.2505 60.1747 58.2505 60.436L57.9705 60.404C57.9705 59.9293 58.0398 59.5293 58.1785 59.204C58.3172 58.8733 58.5172 58.6227 58.7785 58.452C59.0398 58.2813 59.3492 58.196 59.7065 58.196V59.14ZM57.2105 58.236H58.2505V62.5H57.2105V58.236ZM63.3251 60.044C63.3144 59.82 63.2637 59.6307 63.1731 59.476C63.0824 59.316 62.9544 59.1933 62.7891 59.108C62.6291 59.0173 62.4451 58.972 62.2371 58.972C61.9971 58.972 61.7891 59.028 61.6131 59.14C61.4371 59.252 61.2984 59.4093 61.1971 59.612C61.1011 59.8147 61.0531 60.0493 61.0531 60.316C61.0531 60.6093 61.1064 60.8627 61.2131 61.076C61.3251 61.2893 61.4771 61.4547 61.6691 61.572C61.8611 61.684 62.0824 61.74 62.3331 61.74C62.7864 61.74 63.1731 61.5773 63.4931 61.252L64.0451 61.804C63.8317 62.0387 63.5731 62.22 63.2691 62.348C62.9651 62.476 62.6264 62.54 62.2531 62.54C61.8051 62.54 61.4157 62.4493 61.0851 62.268C60.7597 62.0813 60.5037 61.828 60.3171 61.508C60.1357 61.1827 60.0451 60.804 60.0451 60.372C60.0451 59.94 60.1357 59.5613 60.3171 59.236C60.5037 58.9107 60.7597 58.6573 61.0851 58.476C61.4157 58.2947 61.7944 58.2013 62.2211 58.196C62.7277 58.196 63.1357 58.3 63.4451 58.508C63.7597 58.716 63.9837 59.0093 64.1171 59.388C64.2504 59.7613 64.2984 60.2067 64.2611 60.724H60.9011V60.044H63.3251ZM65.2114 56.564H66.2514V62.5H65.2114V56.564ZM70.4735 60.044C70.4628 59.82 70.4122 59.6307 70.3215 59.476C70.2308 59.316 70.1028 59.1933 69.9375 59.108C69.7775 59.0173 69.5935 58.972 69.3855 58.972C69.1455 58.972 68.9375 59.028 68.7615 59.14C68.5855 59.252 68.4468 59.4093 68.3455 59.612C68.2495 59.8147 68.2015 60.0493 68.2015 60.316C68.2015 60.6093 68.2548 60.8627 68.3615 61.076C68.4735 61.2893 68.6255 61.4547 68.8175 61.572C69.0095 61.684 69.2308 61.74 69.4815 61.74C69.9348 61.74 70.3215 61.5773 70.6415 61.252L71.1935 61.804C70.9802 62.0387 70.7215 62.22 70.4175 62.348C70.1135 62.476 69.7748 62.54 69.4015 62.54C68.9535 62.54 68.5642 62.4493 68.2335 62.268C67.9082 62.0813 67.6522 61.828 67.4655 61.508C67.2842 61.1827 67.1935 60.804 67.1935 60.372C67.1935 59.94 67.2842 59.5613 67.4655 59.236C67.6522 58.9107 67.9082 58.6573 68.2335 58.476C68.5642 58.2947 68.9428 58.2013 69.3695 58.196C69.8762 58.196 70.2842 58.3 70.5935 58.508C70.9082 58.716 71.1322 59.0093 71.2655 59.388C71.3988 59.7613 71.4468 60.2067 71.4095 60.724H68.0495V60.044H70.4735ZM73.7599 60.62C73.4879 60.62 73.2852 60.6627 73.1519 60.748C73.0185 60.8333 72.9519 60.9747 72.9519 61.172C72.9519 61.3533 73.0185 61.5 73.1519 61.612C73.2905 61.724 73.4772 61.78 73.7119 61.78C73.9199 61.78 74.1065 61.7453 74.2719 61.676C74.4425 61.6013 74.5759 61.5027 74.6719 61.38C74.7732 61.252 74.8319 61.1107 74.8479 60.956L75.0239 61.7C74.8959 61.9773 74.6985 62.188 74.4319 62.332C74.1652 62.476 73.8425 62.548 73.4639 62.548C73.1599 62.548 72.8959 62.4893 72.6719 62.372C72.4479 62.2547 72.2745 62.0973 72.1519 61.9C72.0292 61.6973 71.9679 61.4707 71.9679 61.22C71.9679 60.8253 72.1092 60.516 72.3919 60.292C72.6745 60.0627 73.0745 59.9453 73.5919 59.94H74.9599V60.62H73.7599ZM74.8399 59.812C74.8399 59.556 74.7572 59.356 74.5919 59.212C74.4319 59.0627 74.1919 58.988 73.8719 58.988C73.6745 58.988 73.4665 59.0253 73.2479 59.1C73.0345 59.1693 72.8185 59.2707 72.5999 59.404L72.2239 58.732C72.4265 58.6093 72.6212 58.5107 72.8079 58.436C72.9945 58.356 73.1892 58.2973 73.3919 58.26C73.5999 58.2173 73.8372 58.196 74.1039 58.196C74.6639 58.196 75.0959 58.3293 75.3999 58.596C75.7039 58.8627 75.8585 59.2307 75.8639 59.7L75.8719 62.5H74.8479L74.8399 59.812ZM79.5746 59.348C79.3666 59.2253 79.1506 59.132 78.9266 59.068C78.7026 58.9987 78.5 58.964 78.3186 58.964C78.148 58.964 78.0093 58.996 77.9026 59.06C77.796 59.1187 77.7426 59.22 77.7426 59.364C77.7426 59.4867 77.796 59.5853 77.9026 59.66C78.0146 59.7347 78.156 59.7987 78.3266 59.852C78.4973 59.9 78.6786 59.9533 78.8706 60.012C79.0626 60.0707 79.244 60.148 79.4146 60.244C79.5906 60.34 79.732 60.468 79.8386 60.628C79.9506 60.788 80.0066 60.9987 80.0066 61.26C80.0066 61.548 79.9293 61.788 79.7746 61.98C79.62 62.1667 79.4146 62.308 79.1586 62.404C78.9026 62.4947 78.6226 62.54 78.3186 62.54C77.9986 62.54 77.6786 62.4893 77.3586 62.388C77.044 62.2867 76.7746 62.1373 76.5506 61.94L76.9106 61.244C77.108 61.4147 77.34 61.548 77.6066 61.644C77.8786 61.7347 78.1293 61.78 78.3586 61.78C78.4813 61.78 78.5906 61.764 78.6866 61.732C78.7826 61.7 78.8573 61.6547 78.9106 61.596C78.964 61.532 78.9906 61.4493 78.9906 61.348C78.9906 61.2093 78.9373 61.1027 78.8306 61.028C78.724 60.948 78.5853 60.8813 78.4146 60.828C78.2493 60.7693 78.0706 60.7133 77.8786 60.66C77.6866 60.6013 77.5053 60.5267 77.3346 60.436C77.1693 60.34 77.0333 60.2147 76.9266 60.06C76.82 59.9053 76.7666 59.7 76.7666 59.444C76.7666 59.156 76.8413 58.9187 76.9906 58.732C77.14 58.5453 77.3373 58.4093 77.5826 58.324C77.828 58.2333 78.0946 58.188 78.3826 58.188C78.66 58.188 78.9373 58.228 79.2146 58.308C79.492 58.3827 79.7373 58.4893 79.9506 58.628L79.5746 59.348ZM83.786 60.044C83.7753 59.82 83.7247 59.6307 83.634 59.476C83.5433 59.316 83.4153 59.1933 83.25 59.108C83.09 59.0173 82.906 58.972 82.698 58.972C82.458 58.972 82.25 59.028 82.074 59.14C81.898 59.252 81.7593 59.4093 81.658 59.612C81.562 59.8147 81.514 60.0493 81.514 60.316C81.514 60.6093 81.5673 60.8627 81.674 61.076C81.786 61.2893 81.938 61.4547 82.13 61.572C82.322 61.684 82.5433 61.74 82.794 61.74C83.2473 61.74 83.634 61.5773 83.954 61.252L84.506 61.804C84.2927 62.0387 84.034 62.22 83.73 62.348C83.426 62.476 83.0873 62.54 82.714 62.54C82.266 62.54 81.8767 62.4493 81.546 62.268C81.2207 62.0813 80.9647 61.828 80.778 61.508C80.5967 61.1827 80.506 60.804 80.506 60.372C80.506 59.94 80.5967 59.5613 80.778 59.236C80.9647 58.9107 81.2207 58.6573 81.546 58.476C81.8767 58.2947 82.2553 58.2013 82.682 58.196C83.1887 58.196 83.5967 58.3 83.906 58.508C84.2207 58.716 84.4447 59.0093 84.578 59.388C84.7113 59.7613 84.7593 60.2067 84.722 60.724H81.362V60.044H83.786ZM88.1684 59.348C87.9604 59.2253 87.7444 59.132 87.5204 59.068C87.2964 58.9987 87.0937 58.964 86.9124 58.964C86.7417 58.964 86.603 58.996 86.4964 59.06C86.3897 59.1187 86.3364 59.22 86.3364 59.364C86.3364 59.4867 86.3897 59.5853 86.4964 59.66C86.6084 59.7347 86.7497 59.7987 86.9204 59.852C87.091 59.9 87.2724 59.9533 87.4644 60.012C87.6564 60.0707 87.8377 60.148 88.0084 60.244C88.1844 60.34 88.3257 60.468 88.4324 60.628C88.5444 60.788 88.6004 60.9987 88.6004 61.26C88.6004 61.548 88.523 61.788 88.3684 61.98C88.2137 62.1667 88.0084 62.308 87.7524 62.404C87.4964 62.4947 87.2164 62.54 86.9124 62.54C86.5924 62.54 86.2724 62.4893 85.9524 62.388C85.6377 62.2867 85.3684 62.1373 85.1444 61.94L85.5044 61.244C85.7017 61.4147 85.9337 61.548 86.2004 61.644C86.4724 61.7347 86.723 61.78 86.9524 61.78C87.075 61.78 87.1844 61.764 87.2804 61.732C87.3764 61.7 87.451 61.6547 87.5044 61.596C87.5577 61.532 87.5844 61.4493 87.5844 61.348C87.5844 61.2093 87.531 61.1027 87.4244 61.028C87.3177 60.948 87.179 60.8813 87.0084 60.828C86.843 60.7693 86.6644 60.7133 86.4724 60.66C86.2804 60.6013 86.099 60.5267 85.9284 60.436C85.763 60.34 85.627 60.2147 85.5204 60.06C85.4137 59.9053 85.3604 59.7 85.3604 59.444C85.3604 59.156 85.435 58.9187 85.5844 58.732C85.7337 58.5453 85.931 58.4093 86.1764 58.324C86.4217 58.2333 86.6884 58.188 86.9764 58.188C87.2537 58.188 87.531 58.228 87.8084 58.308C88.0857 58.3827 88.331 58.4893 88.5444 58.628L88.1684 59.348ZM89.7398 61.468C89.8998 61.468 90.0304 61.5187 90.1318 61.62C90.2384 61.7213 90.2918 61.852 90.2918 62.012C90.2918 62.1773 90.2384 62.3133 90.1318 62.42C90.0304 62.5213 89.8998 62.572 89.7398 62.572C89.5851 62.572 89.4544 62.5213 89.3478 62.42C89.2464 62.3133 89.1958 62.1773 89.1958 62.012C89.1958 61.852 89.2464 61.7213 89.3478 61.62C89.4544 61.5187 89.5851 61.468 89.7398 61.468Z" fill="black"/>
<path d="M28.464 19.1C29.528 19.1 30.352 19.352 30.936 19.856C31.52 20.36 31.812 21.068 31.812 21.98C31.812 22.932 31.52 23.672 30.936 24.2C30.352 24.728 29.528 24.992 28.464 24.992H25.932L26.64 24.284V27.5H25.032V19.1H28.464ZM28.392 23.66C28.992 23.66 29.452 23.524 29.772 23.252C30.1 22.98 30.264 22.568 30.264 22.016C30.264 21.488 30.1 21.096 29.772 20.84C29.452 20.576 28.992 20.444 28.392 20.444H25.932L26.64 19.736V24.368L25.932 23.66H28.392ZM36.8137 22.46C36.3657 22.428 35.9777 22.496 35.6497 22.664C35.3217 22.824 35.0697 23.056 34.8937 23.36C34.7177 23.664 34.6297 24.012 34.6297 24.404L34.2097 24.356C34.2097 23.644 34.3137 23.044 34.5217 22.556C34.7297 22.06 35.0297 21.684 35.4217 21.428C35.8137 21.172 36.2777 21.044 36.8137 21.044V22.46ZM33.0697 21.104H34.6297V27.5H33.0697V21.104ZM40.7175 21.044C41.3815 21.044 41.9655 21.18 42.4695 21.452C42.9815 21.724 43.3775 22.104 43.6575 22.592C43.9455 23.08 44.0895 23.648 44.0895 24.296C44.0895 24.944 43.9455 25.512 43.6575 26C43.3775 26.488 42.9815 26.872 42.4695 27.152C41.9655 27.424 41.3815 27.56 40.7175 27.56C40.0455 27.56 39.4535 27.424 38.9415 27.152C38.4295 26.872 38.0295 26.488 37.7415 26C37.4615 25.512 37.3215 24.944 37.3215 24.296C37.3215 23.648 37.4615 23.08 37.7415 22.592C38.0295 22.104 38.4295 21.724 38.9415 21.452C39.4535 21.18 40.0455 21.044 40.7175 21.044ZM40.7175 22.304C40.3575 22.304 40.0375 22.392 39.7575 22.568C39.4855 22.736 39.2735 22.972 39.1215 23.276C38.9695 23.572 38.8935 23.916 38.8935 24.308C38.8935 24.708 38.9695 25.06 39.1215 25.364C39.2735 25.668 39.4855 25.904 39.7575 26.072C40.0375 26.24 40.3575 26.324 40.7175 26.324C41.0695 26.324 41.3815 26.24 41.6535 26.072C41.9255 25.904 42.1375 25.668 42.2895 25.364C42.4415 25.06 42.5175 24.708 42.5175 24.308C42.5175 23.916 42.4415 23.572 42.2895 23.276C42.1375 22.972 41.9255 22.736 41.6535 22.568C41.3815 22.392 41.0695 22.304 40.7175 22.304ZM50.0287 23.924C50.0287 23.452 49.9047 23.084 49.6567 22.82C49.4167 22.556 49.0767 22.424 48.6367 22.424C48.1327 22.432 47.7327 22.62 47.4367 22.988C47.1487 23.348 47.0047 23.8 47.0047 24.344H46.5847C46.5847 23.568 46.6927 22.94 46.9087 22.46C47.1247 21.972 47.4327 21.616 47.8327 21.392C48.2407 21.16 48.7167 21.044 49.2607 21.044C49.7487 21.044 50.1647 21.144 50.5087 21.344C50.8607 21.544 51.1287 21.828 51.3127 22.196C51.5047 22.556 51.6007 22.992 51.6007 23.504V27.5H50.0287V23.924ZM54.6247 23.924C54.6247 23.452 54.5007 23.084 54.2527 22.82C54.0047 22.556 53.6607 22.424 53.2207 22.424C52.7167 22.432 52.3207 22.62 52.0327 22.988C51.7447 23.348 51.6007 23.8 51.6007 24.344H51.1807C51.1807 23.568 51.2887 22.94 51.5047 22.46C51.7207 21.972 52.0287 21.616 52.4287 21.392C52.8287 21.16 53.3047 21.044 53.8567 21.044C54.3367 21.044 54.7487 21.144 55.0927 21.344C55.4447 21.544 55.7167 21.828 55.9087 22.196C56.1007 22.556 56.1967 22.992 56.1967 23.504V27.5H54.6247V23.924ZM45.4447 21.104H47.0047V27.5H45.4447V21.104ZM60.7448 21.044C61.4088 21.044 61.9928 21.18 62.4968 21.452C63.0088 21.724 63.4048 22.104 63.6848 22.592C63.9728 23.08 64.1168 23.648 64.1168 24.296C64.1168 24.944 63.9728 25.512 63.6848 26C63.4048 26.488 63.0088 26.872 62.4968 27.152C61.9928 27.424 61.4088 27.56 60.7448 27.56C60.0728 27.56 59.4808 27.424 58.9688 27.152C58.4568 26.872 58.0568 26.488 57.7688 26C57.4888 25.512 57.3488 24.944 57.3488 24.296C57.3488 23.648 57.4888 23.08 57.7688 22.592C58.0568 22.104 58.4568 21.724 58.9688 21.452C59.4808 21.18 60.0728 21.044 60.7448 21.044ZM60.7448 22.304C60.3848 22.304 60.0648 22.392 59.7848 22.568C59.5128 22.736 59.3008 22.972 59.1488 23.276C58.9968 23.572 58.9208 23.916 58.9208 24.308C58.9208 24.708 58.9968 25.06 59.1488 25.364C59.3008 25.668 59.5128 25.904 59.7848 26.072C60.0648 26.24 60.3848 26.324 60.7448 26.324C61.0968 26.324 61.4088 26.24 61.6808 26.072C61.9528 25.904 62.1648 25.668 62.3168 25.364C62.4688 25.06 62.5448 24.708 62.5448 24.308C62.5448 23.916 62.4688 23.572 62.3168 23.276C62.1648 22.972 61.9528 22.736 61.6808 22.568C61.4088 22.392 61.0968 22.304 60.7448 22.304ZM67.284 25.412C67.284 25.732 67.344 25.952 67.464 26.072C67.584 26.192 67.748 26.252 67.956 26.252C68.084 26.252 68.224 26.232 68.376 26.192C68.528 26.144 68.692 26.072 68.868 25.976L69.228 27.104C68.988 27.248 68.728 27.364 68.448 27.452C68.176 27.532 67.9 27.572 67.62 27.572C67.276 27.572 66.96 27.508 66.672 27.38C66.384 27.244 66.156 27.036 65.988 26.756C65.82 26.468 65.736 26.108 65.736 25.676V19.592H67.284V25.412ZM64.836 21.344H69.12V22.436H64.836V21.344ZM74.7259 23.816C74.7099 23.48 74.6339 23.196 74.4979 22.964C74.3619 22.724 74.1699 22.54 73.9219 22.412C73.6819 22.276 73.4059 22.208 73.0939 22.208C72.7339 22.208 72.4219 22.292 72.1579 22.46C71.8939 22.628 71.6859 22.864 71.5339 23.168C71.3899 23.472 71.3179 23.824 71.3179 24.224C71.3179 24.664 71.3979 25.044 71.5579 25.364C71.7259 25.684 71.9539 25.932 72.2419 26.108C72.5299 26.276 72.8619 26.36 73.2379 26.36C73.9179 26.36 74.4979 26.116 74.9779 25.628L75.8059 26.456C75.4859 26.808 75.0979 27.08 74.6419 27.272C74.1859 27.464 73.6779 27.56 73.1179 27.56C72.4459 27.56 71.8619 27.424 71.3659 27.152C70.8779 26.872 70.4939 26.492 70.2139 26.012C69.9419 25.524 69.8059 24.956 69.8059 24.308C69.8059 23.66 69.9419 23.092 70.2139 22.604C70.4939 22.116 70.8779 21.736 71.3659 21.464C71.8619 21.192 72.4299 21.052 73.0699 21.044C73.8299 21.044 74.4419 21.2 74.9059 21.512C75.3779 21.824 75.7139 22.264 75.9139 22.832C76.1139 23.392 76.1859 24.06 76.1299 24.836H71.0899V23.816H74.7259ZM85.3978 23.924C85.3978 23.46 85.2698 23.096 85.0138 22.832C84.7658 22.568 84.4178 22.436 83.9698 22.436C83.4498 22.436 83.0378 22.62 82.7338 22.988C82.4378 23.348 82.2898 23.804 82.2898 24.356H81.8698C81.8698 23.572 81.9778 22.94 82.1938 22.46C82.4178 21.972 82.7338 21.616 83.1418 21.392C83.5578 21.16 84.0418 21.044 84.5938 21.044C85.0898 21.044 85.5138 21.144 85.8658 21.344C86.2178 21.544 86.4898 21.828 86.6818 22.196C86.8738 22.556 86.9698 22.992 86.9698 23.504V27.5H85.3978V23.924ZM80.7298 21.104H82.2898V27.5H80.7298V21.104ZM93.054 23.816C93.038 23.48 92.962 23.196 92.826 22.964C92.69 22.724 92.498 22.54 92.25 22.412C92.01 22.276 91.734 22.208 91.422 22.208C91.062 22.208 90.75 22.292 90.486 22.46C90.222 22.628 90.014 22.864 89.862 23.168C89.718 23.472 89.646 23.824 89.646 24.224C89.646 24.664 89.726 25.044 89.886 25.364C90.054 25.684 90.282 25.932 90.57 26.108C90.858 26.276 91.19 26.36 91.566 26.36C92.246 26.36 92.826 26.116 93.306 25.628L94.134 26.456C93.814 26.808 93.426 27.08 92.97 27.272C92.514 27.464 92.006 27.56 91.446 27.56C90.774 27.56 90.19 27.424 89.694 27.152C89.206 26.872 88.822 26.492 88.542 26.012C88.27 25.524 88.134 24.956 88.134 24.308C88.134 23.66 88.27 23.092 88.542 22.604C88.822 22.116 89.206 21.736 89.694 21.464C90.19 21.192 90.758 21.052 91.398 21.044C92.158 21.044 92.77 21.2 93.234 21.512C93.706 21.824 94.042 22.264 94.242 22.832C94.442 23.392 94.514 24.06 94.458 24.836H89.418V23.816H93.054ZM94.6169 21.104H96.2249L97.7969 26.036L99.3209 21.104H100.893L102.441 26.036L103.977 21.104H105.561L103.221 27.5H101.613L100.101 22.868L98.5649 27.5H96.9809L94.6169 21.104ZM109.759 18.596H111.319V27.5H109.759V18.596ZM115.48 24.68C115.072 24.68 114.768 24.744 114.568 24.872C114.368 25 114.268 25.212 114.268 25.508C114.268 25.78 114.368 26 114.568 26.168C114.776 26.336 115.056 26.42 115.408 26.42C115.72 26.42 116 26.368 116.248 26.264C116.504 26.152 116.704 26.004 116.848 25.82C117 25.628 117.088 25.416 117.112 25.184L117.376 26.3C117.184 26.716 116.888 27.032 116.488 27.248C116.088 27.464 115.604 27.572 115.036 27.572C114.58 27.572 114.184 27.484 113.848 27.308C113.512 27.132 113.252 26.896 113.068 26.6C112.884 26.296 112.792 25.956 112.792 25.58C112.792 24.988 113.004 24.524 113.428 24.188C113.852 23.844 114.452 23.668 115.228 23.66H117.28V24.68H115.48ZM117.1 23.468C117.1 23.084 116.976 22.784 116.728 22.568C116.488 22.344 116.128 22.232 115.648 22.232C115.352 22.232 115.04 22.288 114.712 22.4C114.392 22.504 114.068 22.656 113.74 22.856L113.176 21.848C113.48 21.664 113.772 21.516 114.052 21.404C114.332 21.284 114.624 21.196 114.928 21.14C115.24 21.076 115.596 21.044 115.996 21.044C116.836 21.044 117.484 21.244 117.94 21.644C118.396 22.044 118.628 22.596 118.636 23.3L118.648 27.5H117.112L117.1 23.468ZM121.766 24.668C121.766 25.132 121.886 25.5 122.126 25.772C122.374 26.036 122.714 26.168 123.146 26.168C123.65 26.152 124.042 25.964 124.322 25.604C124.61 25.244 124.754 24.792 124.754 24.248H125.162C125.162 25.024 125.054 25.656 124.838 26.144C124.622 26.624 124.318 26.98 123.926 27.212C123.534 27.436 123.066 27.552 122.522 27.56C122.042 27.56 121.626 27.46 121.274 27.26C120.93 27.06 120.662 26.776 120.47 26.408C120.286 26.032 120.194 25.592 120.194 25.088V21.104H121.766V24.668ZM124.754 21.104H126.326V27.5H124.754V21.104ZM132.941 23.924C132.941 23.46 132.813 23.096 132.557 22.832C132.309 22.568 131.961 22.436 131.513 22.436C130.993 22.436 130.581 22.62 130.277 22.988C129.981 23.348 129.833 23.804 129.833 24.356H129.413C129.413 23.572 129.521 22.94 129.737 22.46C129.961 21.972 130.277 21.616 130.685 21.392C131.101 21.16 131.585 21.044 132.137 21.044C132.633 21.044 133.057 21.144 133.409 21.344C133.761 21.544 134.033 21.828 134.225 22.196C134.417 22.556 134.513 22.992 134.513 23.504V27.5H132.941V23.924ZM128.273 21.104H129.833V27.5H128.273V21.104ZM140.681 23.048C140.481 22.824 140.237 22.652 139.949 22.532C139.669 22.404 139.353 22.34 139.001 22.34C138.657 22.34 138.353 22.424 138.089 22.592C137.825 22.752 137.617 22.98 137.465 23.276C137.321 23.572 137.249 23.916 137.249 24.308C137.249 24.7 137.321 25.044 137.465 25.34C137.617 25.636 137.825 25.868 138.089 26.036C138.353 26.204 138.657 26.288 139.001 26.288C139.369 26.288 139.701 26.224 139.997 26.096C140.293 25.968 140.537 25.776 140.729 25.52L141.701 26.312C141.421 26.704 141.045 27.012 140.573 27.236C140.101 27.452 139.553 27.56 138.929 27.56C138.289 27.56 137.725 27.424 137.237 27.152C136.749 26.872 136.365 26.492 136.085 26.012C135.813 25.524 135.677 24.956 135.677 24.308C135.677 23.66 135.813 23.092 136.085 22.604C136.365 22.116 136.749 21.736 137.237 21.464C137.725 21.184 138.289 21.044 138.929 21.044C139.529 21.044 140.057 21.144 140.513 21.344C140.969 21.536 141.345 21.808 141.641 22.16L140.681 23.048ZM147.778 23.924C147.778 23.46 147.65 23.096 147.394 22.832C147.146 22.568 146.798 22.436 146.35 22.436C145.822 22.436 145.406 22.62 145.102 22.988C144.806 23.348 144.658 23.804 144.658 24.356H144.25C144.25 23.572 144.358 22.94 144.574 22.46C144.798 21.972 145.114 21.616 145.522 21.392C145.93 21.16 146.414 21.044 146.974 21.044C147.462 21.044 147.882 21.144 148.234 21.344C148.594 21.544 148.87 21.828 149.062 22.196C149.254 22.556 149.35 22.992 149.35 23.504V27.5H147.778V23.924ZM143.098 18.596H144.658V27.5H143.098V18.596ZM155.433 23.816C155.417 23.48 155.341 23.196 155.205 22.964C155.069 22.724 154.877 22.54 154.629 22.412C154.389 22.276 154.113 22.208 153.801 22.208C153.441 22.208 153.129 22.292 152.865 22.46C152.601 22.628 152.393 22.864 152.241 23.168C152.097 23.472 152.025 23.824 152.025 24.224C152.025 24.664 152.105 25.044 152.265 25.364C152.433 25.684 152.661 25.932 152.949 26.108C153.237 26.276 153.569 26.36 153.945 26.36C154.625 26.36 155.205 26.116 155.685 25.628L156.513 26.456C156.193 26.808 155.805 27.08 155.349 27.272C154.893 27.464 154.385 27.56 153.825 27.56C153.153 27.56 152.569 27.424 152.073 27.152C151.585 26.872 151.201 26.492 150.921 26.012C150.649 25.524 150.513 24.956 150.513 24.308C150.513 23.66 150.649 23.092 150.921 22.604C151.201 22.116 151.585 21.736 152.073 21.464C152.569 21.192 153.137 21.052 153.777 21.044C154.537 21.044 155.149 21.2 155.613 21.512C156.085 21.824 156.421 22.264 156.621 22.832C156.821 23.392 156.893 24.06 156.837 24.836H151.797V23.816H155.433ZM162.006 22.772C161.694 22.588 161.37 22.448 161.034 22.352C160.698 22.248 160.394 22.196 160.122 22.196C159.866 22.196 159.658 22.244 159.498 22.34C159.338 22.428 159.258 22.58 159.258 22.796C159.258 22.98 159.338 23.128 159.498 23.24C159.666 23.352 159.878 23.448 160.134 23.528C160.39 23.6 160.662 23.68 160.95 23.768C161.238 23.856 161.51 23.972 161.766 24.116C162.03 24.26 162.242 24.452 162.402 24.692C162.57 24.932 162.654 25.248 162.654 25.64C162.654 26.072 162.538 26.432 162.306 26.72C162.074 27 161.766 27.212 161.382 27.356C160.998 27.492 160.578 27.56 160.122 27.56C159.642 27.56 159.162 27.484 158.682 27.332C158.21 27.18 157.806 26.956 157.47 26.66L158.01 25.616C158.306 25.872 158.654 26.072 159.054 26.216C159.462 26.352 159.838 26.42 160.182 26.42C160.366 26.42 160.53 26.396 160.674 26.348C160.818 26.3 160.93 26.232 161.01 26.144C161.09 26.048 161.13 25.924 161.13 25.772C161.13 25.564 161.05 25.404 160.89 25.292C160.73 25.172 160.522 25.072 160.266 24.992C160.018 24.904 159.75 24.82 159.462 24.74C159.174 24.652 158.902 24.54 158.646 24.404C158.398 24.26 158.194 24.072 158.034 23.84C157.874 23.608 157.794 23.3 157.794 22.916C157.794 22.484 157.906 22.128 158.13 21.848C158.354 21.568 158.65 21.364 159.018 21.236C159.386 21.1 159.786 21.032 160.218 21.032C160.634 21.032 161.05 21.092 161.466 21.212C161.882 21.324 162.25 21.484 162.57 21.692L162.006 22.772Z" fill="black"/>
</g>
<defs>
<filter id="filter0_d_1269_1147" x="0" y="16" width="201" height="34" filterUnits="userSpaceOnUse" color-interpolation-filters="sRGB">
<feFlood flood-opacity="0" result="BackgroundImageFix"/>
<feColorMatrix in="SourceAlpha" type="matrix" values="0 0 0 0 0 0 0 0 0 0 0 0 0 0 0 0 0 0 127 0" result="hardAlpha"/>
<feOffset dy="4"/>
<feGaussianBlur stdDeviation="2"/>
<feComposite in2="hardAlpha" operator="out"/>
<feColorMatrix type="matrix" values="0 0 0 0 0.792157 0 0 0 0 0.803922 0 0 0 0 0.811765 0 0 0 0.24 0"/>
<feBlend mode="normal" in2="BackgroundImageFix" result="effect1_dropShadow_1269_1147"/>
<feBlend mode="normal" in="SourceGraphic" in2="effect1_dropShadow_1269_1147" result="shape"/>
</filter>
<filter id="filter1_d_1269_1147" x="3" y="0" width="196" height="88" filterUnits="userSpaceOnUse" color-interpolation-filters="sRGB">
<feFlood flood-opacity="0" result="BackgroundImageFix"/>
<feColorMatrix in="SourceAlpha" type="matrix" values="0 0 0 0 0 0 0 0 0 0 0 0 0 0 0 0 0 0 127 0" result="hardAlpha"/>
<feOffset dy="4"/>
<feGaussianBlur stdDeviation="2"/>
<feComposite in2="hardAlpha" operator="out"/>
<feColorMatrix type="matrix" values="0 0 0 0 0.682353 0 0 0 0 0.847059 0 0 0 0 0.784314 0 0 0 0.4 0"/>
<feBlend mode="normal" in2="BackgroundImageFix" result="effect1_dropShadow_1269_1147"/>
<feBlend mode="normal" in="SourceGraphic" in2="effect1_dropShadow_1269_1147" result="shape"/>
</filter>
</defs>
</svg>
