<svg width="220" height="88" viewBox="0 0 220 88" fill="none" xmlns="http://www.w3.org/2000/svg">
<g filter="url(#filter0_d_1269_1175)">
<path d="M4 25C4 11.1929 15.1929 0 29 0H191C204.807 0 216 11.1929 216 25V80H29C15.1929 80 4 68.8071 4 55V25Z" fill="#7DE5A4" fill-opacity="0.85" shape-rendering="crispEdges"/>
<path d="M24.024 41.9C24.7493 41.9 25.3093 42.068 25.704 42.404C26.0987 42.74 26.296 43.212 26.296 43.82C26.296 44.4547 26.0987 44.948 25.704 45.3C25.3093 45.652 24.7493 45.828 24.024 45.828H22.76V47.5H21.688V41.9H24.024ZM24.024 44.94C24.424 44.94 24.7333 44.8493 24.952 44.668C25.1707 44.4867 25.28 44.212 25.28 43.844C25.28 43.492 25.1707 43.2307 24.952 43.06C24.7333 42.884 24.424 42.796 24.024 42.796H22.76V44.94H24.024ZM23.984 45.42H25.032L26.408 47.5H25.192L23.984 45.42ZM30.3173 45.044C30.3066 44.82 30.2559 44.6307 30.1653 44.476C30.0746 44.316 29.9466 44.1933 29.7813 44.108C29.6213 44.0173 29.4373 43.972 29.2293 43.972C28.9893 43.972 28.7813 44.028 28.6053 44.14C28.4293 44.252 28.2906 44.4093 28.1893 44.612C28.0933 44.8147 28.0453 45.0493 28.0453 45.316C28.0453 45.6093 28.0986 45.8627 28.2053 46.076C28.3173 46.2893 28.4693 46.4547 28.6613 46.572C28.8533 46.684 29.0746 46.74 29.3253 46.74C29.7786 46.74 30.1653 46.5773 30.4853 46.252L31.0373 46.804C30.8239 47.0387 30.5653 47.22 30.2613 47.348C29.9573 47.476 29.6186 47.54 29.2453 47.54C28.7973 47.54 28.4079 47.4493 28.0773 47.268C27.7519 47.0813 27.4959 46.828 27.3092 46.508C27.1279 46.1827 27.0373 45.804 27.0373 45.372C27.0373 44.94 27.1279 44.5613 27.3092 44.236C27.4959 43.9107 27.7519 43.6573 28.0773 43.476C28.4079 43.2947 28.7866 43.2013 29.2133 43.196C29.7199 43.196 30.1279 43.3 30.4373 43.508C30.7519 43.716 30.9759 44.0093 31.1093 44.388C31.2426 44.7613 31.2906 45.2067 31.2533 45.724H27.8933V45.044H30.3173ZM32.1636 43.236H33.2036V47.5H32.1636V43.236ZM32.6756 41.42C32.8463 41.42 32.9876 41.476 33.0996 41.588C33.2116 41.7 33.2676 41.8413 33.2676 42.012C33.2676 42.1773 33.2116 42.3187 33.0996 42.436C32.9876 42.548 32.8463 42.604 32.6756 42.604C32.5103 42.604 32.3716 42.548 32.2596 42.436C32.1476 42.3187 32.0916 42.1773 32.0916 42.012C32.0916 41.8413 32.1476 41.7 32.2596 41.588C32.3716 41.476 32.5103 41.42 32.6756 41.42ZM38.4038 47.084C38.4038 47.4947 38.3104 47.8493 38.1238 48.148C37.9424 48.4467 37.6838 48.676 37.3478 48.836C37.0118 49.0013 36.6171 49.084 36.1638 49.084C35.8171 49.084 35.4918 49.0333 35.1878 48.932C34.8891 48.8307 34.6118 48.6947 34.3558 48.524L34.7718 47.812C34.9691 47.956 35.1771 48.068 35.3958 48.148C35.6144 48.228 35.8518 48.268 36.1078 48.268C36.3638 48.268 36.5851 48.22 36.7718 48.124C36.9638 48.028 37.1104 47.8947 37.2118 47.724C37.3131 47.5533 37.3638 47.3507 37.3638 47.116V43.236H38.4038V47.084ZM35.9718 43.196C36.3398 43.1907 36.6544 43.2707 36.9158 43.436C37.1771 43.6013 37.3771 43.836 37.5158 44.14C37.6544 44.444 37.7211 44.8093 37.7158 45.236C37.7211 45.6627 37.6544 46.0307 37.5158 46.34C37.3824 46.644 37.1878 46.8787 36.9318 47.044C36.6758 47.2093 36.3664 47.292 36.0038 47.292C35.6251 47.292 35.2918 47.2067 35.0038 47.036C34.7211 46.86 34.4998 46.6173 34.3398 46.308C34.1798 45.9933 34.0998 45.6333 34.0998 45.228C34.0998 44.8227 34.1771 44.4707 34.3318 44.172C34.4918 43.868 34.7131 43.6307 34.9958 43.46C35.2784 43.284 35.6038 43.196 35.9718 43.196ZM36.2278 43.988C36.0091 43.988 35.8118 44.0413 35.6358 44.148C35.4651 44.2547 35.3318 44.404 35.2358 44.596C35.1398 44.788 35.0891 45.0067 35.0838 45.252C35.0891 45.4973 35.1398 45.716 35.2358 45.908C35.3318 46.1 35.4651 46.2493 35.6358 46.356C35.8064 46.4627 36.0038 46.516 36.2278 46.516C36.4518 46.516 36.6491 46.4627 36.8198 46.356C36.9904 46.2493 37.1238 46.1 37.2198 45.908C37.3158 45.716 37.3638 45.4973 37.3638 45.252C37.3638 45.0013 37.3158 44.7827 37.2198 44.596C37.1238 44.404 36.9904 44.2547 36.8198 44.148C36.6491 44.0413 36.4518 43.988 36.2278 43.988ZM42.7366 45.116C42.7366 44.8067 42.6512 44.564 42.4806 44.388C42.3152 44.212 42.0832 44.124 41.7846 44.124C41.4379 44.124 41.1632 44.2467 40.9606 44.492C40.7632 44.732 40.6646 45.036 40.6646 45.404H40.3846C40.3846 44.8813 40.4566 44.46 40.6006 44.14C40.7499 43.8147 40.9606 43.5773 41.2326 43.428C41.5099 43.2733 41.8326 43.196 42.2006 43.196C42.5312 43.196 42.8139 43.2627 43.0486 43.396C43.2832 43.5293 43.4646 43.7187 43.5926 43.964C43.7206 44.204 43.7846 44.4947 43.7846 44.836V47.5H42.7366V45.116ZM39.6246 43.236H40.6646V47.5H39.6246V43.236ZM44.9527 43.236H45.9927V47.5H44.9527V43.236ZM45.4647 41.42C45.6354 41.42 45.7767 41.476 45.8887 41.588C46.0007 41.7 46.0567 41.8413 46.0567 42.012C46.0567 42.1773 46.0007 42.3187 45.8887 42.436C45.7767 42.548 45.6354 42.604 45.4647 42.604C45.2994 42.604 45.1607 42.548 45.0487 42.436C44.9367 42.3187 44.8807 42.1773 44.8807 42.012C44.8807 41.8413 44.9367 41.7 45.0487 41.588C45.1607 41.476 45.2994 41.42 45.4647 41.42ZM48.4888 46.108C48.4888 46.3213 48.5288 46.468 48.6088 46.548C48.6888 46.628 48.7981 46.668 48.9368 46.668C49.0221 46.668 49.1155 46.6547 49.2168 46.628C49.3181 46.596 49.4275 46.548 49.5448 46.484L49.7848 47.236C49.6248 47.332 49.4515 47.4093 49.2648 47.468C49.0835 47.5213 48.8995 47.548 48.7128 47.548C48.4835 47.548 48.2728 47.5053 48.0808 47.42C47.8888 47.3293 47.7368 47.1907 47.6248 47.004C47.5128 46.812 47.4568 46.572 47.4568 46.284V42.228H48.4888V46.108ZM46.8568 43.396H49.7128V44.124H46.8568V43.396ZM53.4501 45.044C53.4394 44.82 53.3887 44.6307 53.2981 44.476C53.2074 44.316 53.0794 44.1933 52.9141 44.108C52.7541 44.0173 52.5701 43.972 52.3621 43.972C52.1221 43.972 51.9141 44.028 51.7381 44.14C51.5621 44.252 51.4234 44.4093 51.3221 44.612C51.2261 44.8147 51.1781 45.0493 51.1781 45.316C51.1781 45.6093 51.2314 45.8627 51.3381 46.076C51.4501 46.2893 51.6021 46.4547 51.7941 46.572C51.9861 46.684 52.2074 46.74 52.4581 46.74C52.9114 46.74 53.2981 46.5773 53.6181 46.252L54.1701 46.804C53.9567 47.0387 53.6981 47.22 53.3941 47.348C53.0901 47.476 52.7514 47.54 52.3781 47.54C51.9301 47.54 51.5407 47.4493 51.2101 47.268C50.8847 47.0813 50.6287 46.828 50.4421 46.508C50.2607 46.1827 50.1701 45.804 50.1701 45.372C50.1701 44.94 50.2607 44.5613 50.4421 44.236C50.6287 43.9107 50.8847 43.6573 51.2101 43.476C51.5407 43.2947 51.9194 43.2013 52.3461 43.196C52.8527 43.196 53.2607 43.3 53.5701 43.508C53.8847 43.716 54.1087 44.0093 54.2421 44.388C54.3754 44.7613 54.4234 45.2067 54.3861 45.724H51.0261V45.044H53.4501ZM57.4527 43.236H58.4927V47.5H57.4527V43.236ZM57.9647 41.42C58.1354 41.42 58.2767 41.476 58.3887 41.588C58.5007 41.7 58.5567 41.8413 58.5567 42.012C58.5567 42.1773 58.5007 42.3187 58.3887 42.436C58.2767 42.548 58.1354 42.604 57.9647 42.604C57.7994 42.604 57.6607 42.548 57.5487 42.436C57.4367 42.3187 57.3807 42.1773 57.3807 42.012C57.3807 41.8413 57.4367 41.7 57.5487 41.588C57.6607 41.476 57.7994 41.42 57.9647 41.42ZM62.8928 45.116C62.8928 44.8067 62.8075 44.564 62.6368 44.388C62.4715 44.212 62.2395 44.124 61.9408 44.124C61.5941 44.124 61.3195 44.2467 61.1168 44.492C60.9195 44.732 60.8208 45.036 60.8208 45.404H60.5408C60.5408 44.8813 60.6128 44.46 60.7568 44.14C60.9061 43.8147 61.1168 43.5773 61.3888 43.428C61.6661 43.2733 61.9888 43.196 62.3568 43.196C62.6875 43.196 62.9701 43.2627 63.2048 43.396C63.4395 43.5293 63.6208 43.7187 63.7488 43.964C63.8768 44.204 63.9408 44.4947 63.9408 44.836V47.5H62.8928V45.116ZM59.7808 43.236H60.8208V47.5H59.7808V43.236ZM66.3169 46.108C66.3169 46.3213 66.3569 46.468 66.4369 46.548C66.5169 46.628 66.6263 46.668 66.7649 46.668C66.8503 46.668 66.9436 46.6547 67.0449 46.628C67.1463 46.596 67.2556 46.548 67.3729 46.484L67.6129 47.236C67.4529 47.332 67.2796 47.4093 67.0929 47.468C66.9116 47.5213 66.7276 47.548 66.5409 47.548C66.3116 47.548 66.1009 47.5053 65.9089 47.42C65.7169 47.3293 65.5649 47.1907 65.4529 47.004C65.3409 46.812 65.2849 46.572 65.2849 46.284V42.228H66.3169V46.108ZM64.6849 43.396H67.5409V44.124H64.6849V43.396ZM71.2782 45.044C71.2675 44.82 71.2169 44.6307 71.1262 44.476C71.0355 44.316 70.9075 44.1933 70.7422 44.108C70.5822 44.0173 70.3982 43.972 70.1902 43.972C69.9502 43.972 69.7422 44.028 69.5662 44.14C69.3902 44.252 69.2515 44.4093 69.1502 44.612C69.0542 44.8147 69.0062 45.0493 69.0062 45.316C69.0062 45.6093 69.0595 45.8627 69.1662 46.076C69.2782 46.2893 69.4302 46.4547 69.6222 46.572C69.8142 46.684 70.0355 46.74 70.2862 46.74C70.7395 46.74 71.1262 46.5773 71.4462 46.252L71.9982 46.804C71.7849 47.0387 71.5262 47.22 71.2222 47.348C70.9182 47.476 70.5795 47.54 70.2062 47.54C69.7582 47.54 69.3689 47.4493 69.0382 47.268C68.7129 47.0813 68.4569 46.828 68.2702 46.508C68.0889 46.1827 67.9982 45.804 67.9982 45.372C67.9982 44.94 68.0889 44.5613 68.2702 44.236C68.4569 43.9107 68.7129 43.6573 69.0382 43.476C69.3689 43.2947 69.7475 43.2013 70.1742 43.196C70.6809 43.196 71.0889 43.3 71.3982 43.508C71.7129 43.716 71.9369 44.0093 72.0702 44.388C72.2035 44.7613 72.2515 45.2067 72.2142 45.724H68.8542V45.044H71.2782ZM75.6206 44.14C75.3219 44.1187 75.0632 44.164 74.8446 44.276C74.6259 44.3827 74.4579 44.5373 74.3406 44.74C74.2232 44.9427 74.1646 45.1747 74.1646 45.436L73.8846 45.404C73.8846 44.9293 73.9539 44.5293 74.0926 44.204C74.2312 43.8733 74.4312 43.6227 74.6926 43.452C74.9539 43.2813 75.2632 43.196 75.6206 43.196V44.14ZM73.1246 43.236H74.1646V47.5H73.1246V43.236ZM79.2391 45.044C79.2285 44.82 79.1778 44.6307 79.0871 44.476C78.9965 44.316 78.8685 44.1933 78.7031 44.108C78.5431 44.0173 78.3591 43.972 78.1511 43.972C77.9111 43.972 77.7031 44.028 77.5271 44.14C77.3511 44.252 77.2125 44.4093 77.1111 44.612C77.0151 44.8147 76.9671 45.0493 76.9671 45.316C76.9671 45.6093 77.0205 45.8627 77.1271 46.076C77.2391 46.2893 77.3911 46.4547 77.5831 46.572C77.7751 46.684 77.9965 46.74 78.2471 46.74C78.7005 46.74 79.0871 46.5773 79.4071 46.252L79.9591 46.804C79.7458 47.0387 79.4871 47.22 79.1831 47.348C78.8791 47.476 78.5405 47.54 78.1671 47.54C77.7191 47.54 77.3298 47.4493 76.9991 47.268C76.6738 47.0813 76.4178 46.828 76.2311 46.508C76.0498 46.1827 75.9591 45.804 75.9591 45.372C75.9591 44.94 76.0498 44.5613 76.2311 44.236C76.4178 43.9107 76.6738 43.6573 76.9991 43.476C77.3298 43.2947 77.7085 43.2013 78.1351 43.196C78.6418 43.196 79.0498 43.3 79.3591 43.508C79.6738 43.716 79.8978 44.0093 80.0311 44.388C80.1645 44.7613 80.2125 45.2067 80.1751 45.724H76.8151V45.044H79.2391ZM83.6215 44.348C83.4135 44.2253 83.1975 44.132 82.9735 44.068C82.7495 43.9987 82.5468 43.964 82.3655 43.964C82.1948 43.964 82.0562 43.996 81.9495 44.06C81.8428 44.1187 81.7895 44.22 81.7895 44.364C81.7895 44.4867 81.8428 44.5853 81.9495 44.66C82.0615 44.7347 82.2028 44.7987 82.3735 44.852C82.5442 44.9 82.7255 44.9533 82.9175 45.012C83.1095 45.0707 83.2908 45.148 83.4615 45.244C83.6375 45.34 83.7788 45.468 83.8855 45.628C83.9975 45.788 84.0535 45.9987 84.0535 46.26C84.0535 46.548 83.9762 46.788 83.8215 46.98C83.6668 47.1667 83.4615 47.308 83.2055 47.404C82.9495 47.4947 82.6695 47.54 82.3655 47.54C82.0455 47.54 81.7255 47.4893 81.4055 47.388C81.0908 47.2867 80.8215 47.1373 80.5975 46.94L80.9575 46.244C81.1548 46.4147 81.3868 46.548 81.6535 46.644C81.9255 46.7347 82.1762 46.78 82.4055 46.78C82.5282 46.78 82.6375 46.764 82.7335 46.732C82.8295 46.7 82.9042 46.6547 82.9575 46.596C83.0108 46.532 83.0375 46.4493 83.0375 46.348C83.0375 46.2093 82.9842 46.1027 82.8775 46.028C82.7708 45.948 82.6322 45.8813 82.4615 45.828C82.2962 45.7693 82.1175 45.7133 81.9255 45.66C81.7335 45.6013 81.5522 45.5267 81.3815 45.436C81.2162 45.34 81.0802 45.2147 80.9735 45.06C80.8668 44.9053 80.8135 44.7 80.8135 44.444C80.8135 44.156 80.8882 43.9187 81.0375 43.732C81.1868 43.5453 81.3842 43.4093 81.6295 43.324C81.8748 43.2333 82.1415 43.188 82.4295 43.188C82.7068 43.188 82.9842 43.228 83.2615 43.308C83.5388 43.3827 83.7842 43.4893 83.9975 43.628L83.6215 44.348ZM86.1529 46.108C86.1529 46.3213 86.1929 46.468 86.2729 46.548C86.3529 46.628 86.4622 46.668 86.6009 46.668C86.6862 46.668 86.7795 46.6547 86.8809 46.628C86.9822 46.596 87.0915 46.548 87.2089 46.484L87.4489 47.236C87.2889 47.332 87.1155 47.4093 86.9289 47.468C86.7475 47.5213 86.5635 47.548 86.3769 47.548C86.1475 47.548 85.9369 47.5053 85.7449 47.42C85.5529 47.3293 85.4009 47.1907 85.2889 47.004C85.1769 46.812 85.1209 46.572 85.1209 46.284V42.228H86.1529V46.108ZM84.5209 43.396H87.3769V44.124H84.5209V43.396ZM91.8614 45.62C91.5894 45.62 91.3868 45.6627 91.2534 45.748C91.1201 45.8333 91.0534 45.9747 91.0534 46.172C91.0534 46.3533 91.1201 46.5 91.2534 46.612C91.3921 46.724 91.5788 46.78 91.8134 46.78C92.0214 46.78 92.2081 46.7453 92.3734 46.676C92.5441 46.6013 92.6774 46.5027 92.7734 46.38C92.8748 46.252 92.9334 46.1107 92.9494 45.956L93.1254 46.7C92.9974 46.9773 92.8001 47.188 92.5334 47.332C92.2668 47.476 91.9441 47.548 91.5654 47.548C91.2614 47.548 90.9974 47.4893 90.7734 47.372C90.5494 47.2547 90.3761 47.0973 90.2534 46.9C90.1308 46.6973 90.0694 46.4707 90.0694 46.22C90.0694 45.8253 90.2108 45.516 90.4934 45.292C90.7761 45.0627 91.1761 44.9453 91.6934 44.94H93.0614V45.62H91.8614ZM92.9414 44.812C92.9414 44.556 92.8588 44.356 92.6934 44.212C92.5334 44.0627 92.2934 43.988 91.9734 43.988C91.7761 43.988 91.5681 44.0253 91.3494 44.1C91.1361 44.1693 90.9201 44.2707 90.7014 44.404L90.3254 43.732C90.5281 43.6093 90.7228 43.5107 90.9094 43.436C91.0961 43.356 91.2908 43.2973 91.4934 43.26C91.7014 43.2173 91.9388 43.196 92.2054 43.196C92.7654 43.196 93.1974 43.3293 93.5014 43.596C93.8054 43.8627 93.9601 44.2307 93.9654 44.7L93.9734 47.5H92.9494L92.9414 44.812ZM98.1962 45.116C98.1962 44.8013 98.1135 44.556 97.9482 44.38C97.7882 44.204 97.5615 44.116 97.2682 44.116C96.9322 44.1213 96.6655 44.2467 96.4682 44.492C96.2762 44.732 96.1802 45.0333 96.1802 45.396H95.9002C95.9002 44.8787 95.9722 44.46 96.1162 44.14C96.2602 43.8147 96.4655 43.5773 96.7322 43.428C97.0042 43.2733 97.3215 43.196 97.6842 43.196C98.0095 43.196 98.2869 43.2627 98.5162 43.396C98.7509 43.5293 98.9295 43.7187 99.0522 43.964C99.1802 44.204 99.2442 44.4947 99.2442 44.836V47.5H98.1962V45.116ZM101.26 45.116C101.26 44.8013 101.178 44.556 101.012 44.38C100.847 44.204 100.618 44.116 100.324 44.116C99.9882 44.1213 99.7242 44.2467 99.5322 44.492C99.3402 44.732 99.2442 45.0333 99.2442 45.396H98.9642C98.9642 44.8787 99.0362 44.46 99.1802 44.14C99.3242 43.8147 99.5295 43.5773 99.7962 43.428C100.063 43.2733 100.38 43.196 100.748 43.196C101.068 43.196 101.343 43.2627 101.572 43.396C101.807 43.5293 101.988 43.7187 102.116 43.964C102.244 44.204 102.308 44.4947 102.308 44.836V47.5H101.26V45.116ZM95.1402 43.236H96.1802V47.5H95.1402V43.236ZM105.34 43.196C105.783 43.196 106.172 43.2867 106.508 43.468C106.85 43.6493 107.114 43.9027 107.3 44.228C107.492 44.5533 107.588 44.932 107.588 45.364C107.588 45.796 107.492 46.1747 107.3 46.5C107.114 46.8253 106.85 47.0813 106.508 47.268C106.172 47.4493 105.783 47.54 105.34 47.54C104.892 47.54 104.498 47.4493 104.156 47.268C103.815 47.0813 103.548 46.8253 103.356 46.5C103.17 46.1747 103.076 45.796 103.076 45.364C103.076 44.932 103.17 44.5533 103.356 44.228C103.548 43.9027 103.815 43.6493 104.156 43.468C104.498 43.2867 104.892 43.196 105.34 43.196ZM105.34 44.036C105.1 44.036 104.887 44.0947 104.7 44.212C104.519 44.324 104.378 44.4813 104.276 44.684C104.175 44.8813 104.124 45.1107 104.124 45.372C104.124 45.6387 104.175 45.8733 104.276 46.076C104.378 46.2787 104.519 46.436 104.7 46.548C104.887 46.66 105.1 46.716 105.34 46.716C105.575 46.716 105.783 46.66 105.964 46.548C106.146 46.436 106.287 46.2787 106.388 46.076C106.49 45.8733 106.54 45.6387 106.54 45.372C106.54 45.1107 106.49 44.8813 106.388 44.684C106.287 44.4813 106.146 44.324 105.964 44.212C105.783 44.0947 105.575 44.036 105.34 44.036ZM111.604 45.116C111.604 44.8067 111.518 44.564 111.348 44.388C111.182 44.212 110.95 44.124 110.652 44.124C110.305 44.124 110.03 44.2467 109.828 44.492C109.63 44.732 109.532 45.036 109.532 45.404H109.252C109.252 44.8813 109.324 44.46 109.468 44.14C109.617 43.8147 109.828 43.5773 110.1 43.428C110.377 43.2733 110.7 43.196 111.068 43.196C111.398 43.196 111.681 43.2627 111.916 43.396C112.15 43.5293 112.332 43.7187 112.46 43.964C112.588 44.204 112.652 44.4947 112.652 44.836V47.5H111.604V45.116ZM108.492 43.236H109.532V47.5H108.492V43.236ZM117.732 47.084C117.732 47.4947 117.639 47.8493 117.452 48.148C117.271 48.4467 117.012 48.676 116.676 48.836C116.34 49.0013 115.945 49.084 115.492 49.084C115.145 49.084 114.82 49.0333 114.516 48.932C114.217 48.8307 113.94 48.6947 113.684 48.524L114.1 47.812C114.297 47.956 114.505 48.068 114.724 48.148C114.943 48.228 115.18 48.268 115.436 48.268C115.692 48.268 115.913 48.22 116.1 48.124C116.292 48.028 116.439 47.8947 116.54 47.724C116.641 47.5533 116.692 47.3507 116.692 47.116V43.236H117.732V47.084ZM115.3 43.196C115.668 43.1907 115.983 43.2707 116.244 43.436C116.505 43.6013 116.705 43.836 116.844 44.14C116.983 44.444 117.049 44.8093 117.044 45.236C117.049 45.6627 116.983 46.0307 116.844 46.34C116.711 46.644 116.516 46.8787 116.26 47.044C116.004 47.2093 115.695 47.292 115.332 47.292C114.953 47.292 114.62 47.2067 114.332 47.036C114.049 46.86 113.828 46.6173 113.668 46.308C113.508 45.9933 113.428 45.6333 113.428 45.228C113.428 44.8227 113.505 44.4707 113.66 44.172C113.82 43.868 114.041 43.6307 114.324 43.46C114.607 43.284 114.932 43.196 115.3 43.196ZM115.556 43.988C115.337 43.988 115.14 44.0413 114.964 44.148C114.793 44.2547 114.66 44.404 114.564 44.596C114.468 44.788 114.417 45.0067 114.412 45.252C114.417 45.4973 114.468 45.716 114.564 45.908C114.66 46.1 114.793 46.2493 114.964 46.356C115.135 46.4627 115.332 46.516 115.556 46.516C115.78 46.516 115.977 46.4627 116.148 46.356C116.319 46.2493 116.452 46.1 116.548 45.908C116.644 45.716 116.692 45.4973 116.692 45.252C116.692 45.0013 116.644 44.7827 116.548 44.596C116.452 44.404 116.319 44.2547 116.148 44.148C115.977 44.0413 115.78 43.988 115.556 43.988ZM121.109 43.236H122.149V47.5H121.109V43.236ZM121.621 41.42C121.792 41.42 121.933 41.476 122.045 41.588C122.157 41.7 122.213 41.8413 122.213 42.012C122.213 42.1773 122.157 42.3187 122.045 42.436C121.933 42.548 121.792 42.604 121.621 42.604C121.456 42.604 121.317 42.548 121.205 42.436C121.093 42.3187 121.037 42.1773 121.037 42.012C121.037 41.8413 121.093 41.7 121.205 41.588C121.317 41.476 121.456 41.42 121.621 41.42ZM126.549 45.116C126.549 44.8067 126.464 44.564 126.293 44.388C126.128 44.212 125.896 44.124 125.597 44.124C125.25 44.124 124.976 44.2467 124.773 44.492C124.576 44.732 124.477 45.036 124.477 45.404H124.197C124.197 44.8813 124.269 44.46 124.413 44.14C124.562 43.8147 124.773 43.5773 125.045 43.428C125.322 43.2733 125.645 43.196 126.013 43.196C126.344 43.196 126.626 43.2627 126.861 43.396C127.096 43.5293 127.277 43.7187 127.405 43.964C127.533 44.204 127.597 44.4947 127.597 44.836V47.5H126.549V45.116ZM123.437 43.236H124.477V47.5H123.437V43.236ZM130.205 45.62C129.933 45.62 129.731 45.6627 129.597 45.748C129.464 45.8333 129.397 45.9747 129.397 46.172C129.397 46.3533 129.464 46.5 129.597 46.612C129.736 46.724 129.923 46.78 130.157 46.78C130.365 46.78 130.552 46.7453 130.717 46.676C130.888 46.6013 131.021 46.5027 131.117 46.38C131.219 46.252 131.277 46.1107 131.293 45.956L131.469 46.7C131.341 46.9773 131.144 47.188 130.877 47.332C130.611 47.476 130.288 47.548 129.909 47.548C129.605 47.548 129.341 47.4893 129.117 47.372C128.893 47.2547 128.72 47.0973 128.597 46.9C128.475 46.6973 128.413 46.4707 128.413 46.22C128.413 45.8253 128.555 45.516 128.837 45.292C129.12 45.0627 129.52 44.9453 130.037 44.94H131.405V45.62H130.205ZM131.285 44.812C131.285 44.556 131.203 44.356 131.037 44.212C130.877 44.0627 130.637 43.988 130.317 43.988C130.12 43.988 129.912 44.0253 129.693 44.1C129.48 44.1693 129.264 44.2707 129.045 44.404L128.669 43.732C128.872 43.6093 129.067 43.5107 129.253 43.436C129.44 43.356 129.635 43.2973 129.837 43.26C130.045 43.2173 130.283 43.196 130.549 43.196C131.109 43.196 131.541 43.3293 131.845 43.596C132.149 43.8627 132.304 44.2307 132.309 44.7L132.317 47.5H131.293L131.285 44.812ZM136.428 44.532C136.295 44.3827 136.132 44.268 135.94 44.188C135.753 44.1027 135.543 44.06 135.308 44.06C135.079 44.06 134.876 44.116 134.7 44.228C134.524 44.3347 134.385 44.4867 134.284 44.684C134.188 44.8813 134.14 45.1107 134.14 45.372C134.14 45.6333 134.188 45.8627 134.284 46.06C134.385 46.2573 134.524 46.412 134.7 46.524C134.876 46.636 135.079 46.692 135.308 46.692C135.553 46.692 135.775 46.6493 135.972 46.564C136.169 46.4787 136.332 46.3507 136.46 46.18L137.108 46.708C136.921 46.9693 136.671 47.1747 136.356 47.324C136.041 47.468 135.676 47.54 135.26 47.54C134.833 47.54 134.457 47.4493 134.132 47.268C133.807 47.0813 133.551 46.828 133.364 46.508C133.183 46.1827 133.092 45.804 133.092 45.372C133.092 44.94 133.183 44.5613 133.364 44.236C133.551 43.9107 133.807 43.6573 134.132 43.476C134.457 43.2893 134.833 43.196 135.26 43.196C135.66 43.196 136.012 43.2627 136.316 43.396C136.62 43.524 136.871 43.7053 137.068 43.94L136.428 44.532ZM139.208 46.108C139.208 46.3213 139.248 46.468 139.328 46.548C139.408 46.628 139.517 46.668 139.656 46.668C139.741 46.668 139.834 46.6547 139.936 46.628C140.037 46.596 140.146 46.548 140.264 46.484L140.504 47.236C140.344 47.332 140.17 47.4093 139.984 47.468C139.802 47.5213 139.618 47.548 139.432 47.548C139.202 47.548 138.992 47.5053 138.8 47.42C138.608 47.3293 138.456 47.1907 138.344 47.004C138.232 46.812 138.176 46.572 138.176 46.284V42.228H139.208V46.108ZM137.576 43.396H140.432V44.124H137.576V43.396ZM141.32 43.236H142.36V47.5H141.32V43.236ZM141.832 41.42C142.003 41.42 142.144 41.476 142.256 41.588C142.368 41.7 142.424 41.8413 142.424 42.012C142.424 42.1773 142.368 42.3187 142.256 42.436C142.144 42.548 142.003 42.604 141.832 42.604C141.667 42.604 141.528 42.548 141.416 42.436C141.304 42.3187 141.248 42.1773 141.248 42.012C141.248 41.8413 141.304 41.7 141.416 41.588C141.528 41.476 141.667 41.42 141.832 41.42ZM142.992 43.236H144.08L145.2 46.54L146.296 43.236H147.344L145.712 47.5H144.64L142.992 43.236ZM150.684 45.044C150.674 44.82 150.623 44.6307 150.532 44.476C150.442 44.316 150.314 44.1933 150.148 44.108C149.988 44.0173 149.804 43.972 149.596 43.972C149.356 43.972 149.148 44.028 148.972 44.14C148.796 44.252 148.658 44.4093 148.556 44.612C148.46 44.8147 148.412 45.0493 148.412 45.316C148.412 45.6093 148.466 45.8627 148.572 46.076C148.684 46.2893 148.836 46.4547 149.028 46.572C149.22 46.684 149.442 46.74 149.692 46.74C150.146 46.74 150.532 46.5773 150.852 46.252L151.404 46.804C151.191 47.0387 150.932 47.22 150.628 47.348C150.324 47.476 149.986 47.54 149.612 47.54C149.164 47.54 148.775 47.4493 148.444 47.268C148.119 47.0813 147.863 46.828 147.676 46.508C147.495 46.1827 147.404 45.804 147.404 45.372C147.404 44.94 147.495 44.5613 147.676 44.236C147.863 43.9107 148.119 43.6573 148.444 43.476C148.775 43.2947 149.154 43.2013 149.58 43.196C150.087 43.196 150.495 43.3 150.804 43.508C151.119 43.716 151.343 44.0093 151.476 44.388C151.61 44.7613 151.658 45.2067 151.62 45.724H148.26V45.044H150.684ZM157.631 44.532C157.498 44.3827 157.335 44.268 157.143 44.188C156.956 44.1027 156.746 44.06 156.511 44.06C156.282 44.06 156.079 44.116 155.903 44.228C155.727 44.3347 155.588 44.4867 155.487 44.684C155.391 44.8813 155.343 45.1107 155.343 45.372C155.343 45.6333 155.391 45.8627 155.487 46.06C155.588 46.2573 155.727 46.412 155.903 46.524C156.079 46.636 156.282 46.692 156.511 46.692C156.756 46.692 156.978 46.6493 157.175 46.564C157.372 46.4787 157.535 46.3507 157.663 46.18L158.311 46.708C158.124 46.9693 157.874 47.1747 157.559 47.324C157.244 47.468 156.879 47.54 156.463 47.54C156.036 47.54 155.66 47.4493 155.335 47.268C155.01 47.0813 154.754 46.828 154.567 46.508C154.386 46.1827 154.295 45.804 154.295 45.372C154.295 44.94 154.386 44.5613 154.567 44.236C154.754 43.9107 155.01 43.6573 155.335 43.476C155.66 43.2893 156.036 43.196 156.463 43.196C156.863 43.196 157.215 43.2627 157.519 43.396C157.823 43.524 158.074 43.7053 158.271 43.94L157.631 44.532ZM160.115 45.612C160.115 45.9213 160.195 46.1667 160.355 46.348C160.52 46.524 160.747 46.612 161.035 46.612C161.371 46.6013 161.632 46.476 161.819 46.236C162.011 45.996 162.107 45.6947 162.107 45.332H162.379C162.379 45.8493 162.307 46.2707 162.163 46.596C162.019 46.916 161.816 47.1533 161.555 47.308C161.293 47.4573 160.981 47.5347 160.619 47.54C160.299 47.54 160.021 47.4733 159.787 47.34C159.557 47.2067 159.379 47.0173 159.251 46.772C159.128 46.5213 159.067 46.228 159.067 45.892V43.236H160.115V45.612ZM162.107 43.236H163.155V47.5H162.107V43.236ZM166.989 44.348C166.781 44.2253 166.565 44.132 166.341 44.068C166.117 43.9987 165.914 43.964 165.733 43.964C165.562 43.964 165.423 43.996 165.317 44.06C165.21 44.1187 165.157 44.22 165.157 44.364C165.157 44.4867 165.21 44.5853 165.317 44.66C165.429 44.7347 165.57 44.7987 165.741 44.852C165.911 44.9 166.093 44.9533 166.285 45.012C166.477 45.0707 166.658 45.148 166.829 45.244C167.005 45.34 167.146 45.468 167.253 45.628C167.365 45.788 167.421 45.9987 167.421 46.26C167.421 46.548 167.343 46.788 167.189 46.98C167.034 47.1667 166.829 47.308 166.573 47.404C166.317 47.4947 166.037 47.54 165.733 47.54C165.413 47.54 165.093 47.4893 164.773 47.388C164.458 47.2867 164.189 47.1373 163.965 46.94L164.325 46.244C164.522 46.4147 164.754 46.548 165.021 46.644C165.293 46.7347 165.543 46.78 165.773 46.78C165.895 46.78 166.005 46.764 166.101 46.732C166.197 46.7 166.271 46.6547 166.325 46.596C166.378 46.532 166.405 46.4493 166.405 46.348C166.405 46.2093 166.351 46.1027 166.245 46.028C166.138 45.948 165.999 45.8813 165.829 45.828C165.663 45.7693 165.485 45.7133 165.293 45.66C165.101 45.6013 164.919 45.5267 164.749 45.436C164.583 45.34 164.447 45.2147 164.341 45.06C164.234 44.9053 164.181 44.7 164.181 44.444C164.181 44.156 164.255 43.9187 164.405 43.732C164.554 43.5453 164.751 43.4093 164.997 43.324C165.242 43.2333 165.509 43.188 165.797 43.188C166.074 43.188 166.351 43.228 166.629 43.308C166.906 43.3827 167.151 43.4893 167.365 43.628L166.989 44.348ZM169.52 46.108C169.52 46.3213 169.56 46.468 169.64 46.548C169.72 46.628 169.829 46.668 169.968 46.668C170.053 46.668 170.147 46.6547 170.248 46.628C170.349 46.596 170.459 46.548 170.576 46.484L170.816 47.236C170.656 47.332 170.483 47.4093 170.296 47.468C170.115 47.5213 169.931 47.548 169.744 47.548C169.515 47.548 169.304 47.5053 169.112 47.42C168.92 47.3293 168.768 47.1907 168.656 47.004C168.544 46.812 168.488 46.572 168.488 46.284V42.228H169.52V46.108ZM167.888 43.396H170.744V44.124H167.888V43.396ZM173.465 43.196C173.908 43.196 174.297 43.2867 174.633 43.468C174.975 43.6493 175.239 43.9027 175.425 44.228C175.617 44.5533 175.713 44.932 175.713 45.364C175.713 45.796 175.617 46.1747 175.425 46.5C175.239 46.8253 174.975 47.0813 174.633 47.268C174.297 47.4493 173.908 47.54 173.465 47.54C173.017 47.54 172.623 47.4493 172.281 47.268C171.94 47.0813 171.673 46.8253 171.481 46.5C171.295 46.1747 171.201 45.796 171.201 45.364C171.201 44.932 171.295 44.5533 171.481 44.228C171.673 43.9027 171.94 43.6493 172.281 43.468C172.623 43.2867 173.017 43.196 173.465 43.196ZM173.465 44.036C173.225 44.036 173.012 44.0947 172.825 44.212C172.644 44.324 172.503 44.4813 172.401 44.684C172.3 44.8813 172.249 45.1107 172.249 45.372C172.249 45.6387 172.3 45.8733 172.401 46.076C172.503 46.2787 172.644 46.436 172.825 46.548C173.012 46.66 173.225 46.716 173.465 46.716C173.7 46.716 173.908 46.66 174.089 46.548C174.271 46.436 174.412 46.2787 174.513 46.076C174.615 45.8733 174.665 45.6387 174.665 45.372C174.665 45.1107 174.615 44.8813 174.513 44.684C174.412 44.4813 174.271 44.324 174.089 44.212C173.908 44.0947 173.7 44.036 173.465 44.036ZM179.673 45.116C179.673 44.8013 179.59 44.556 179.425 44.38C179.265 44.204 179.038 44.116 178.745 44.116C178.409 44.1213 178.142 44.2467 177.945 44.492C177.753 44.732 177.657 45.0333 177.657 45.396H177.377C177.377 44.8787 177.449 44.46 177.593 44.14C177.737 43.8147 177.942 43.5773 178.209 43.428C178.481 43.2733 178.798 43.196 179.161 43.196C179.486 43.196 179.763 43.2627 179.993 43.396C180.227 43.5293 180.406 43.7187 180.529 43.964C180.657 44.204 180.721 44.4947 180.721 44.836V47.5H179.673V45.116ZM182.737 45.116C182.737 44.8013 182.654 44.556 182.489 44.38C182.323 44.204 182.094 44.116 181.801 44.116C181.465 44.1213 181.201 44.2467 181.009 44.492C180.817 44.732 180.721 45.0333 180.721 45.396H180.441C180.441 44.8787 180.513 44.46 180.657 44.14C180.801 43.8147 181.006 43.5773 181.273 43.428C181.539 43.2733 181.857 43.196 182.225 43.196C182.545 43.196 182.819 43.2627 183.049 43.396C183.283 43.5293 183.465 43.7187 183.593 43.964C183.721 44.204 183.785 44.4947 183.785 44.836V47.5H182.737V45.116ZM176.617 43.236H177.657V47.5H176.617V43.236ZM187.833 45.044C187.822 44.82 187.772 44.6307 187.681 44.476C187.59 44.316 187.462 44.1933 187.297 44.108C187.137 44.0173 186.953 43.972 186.745 43.972C186.505 43.972 186.297 44.028 186.121 44.14C185.945 44.252 185.806 44.4093 185.705 44.612C185.609 44.8147 185.561 45.0493 185.561 45.316C185.561 45.6093 185.614 45.8627 185.721 46.076C185.833 46.2893 185.985 46.4547 186.177 46.572C186.369 46.684 186.59 46.74 186.841 46.74C187.294 46.74 187.681 46.5773 188.001 46.252L188.553 46.804C188.34 47.0387 188.081 47.22 187.777 47.348C187.473 47.476 187.134 47.54 186.761 47.54C186.313 47.54 185.924 47.4493 185.593 47.268C185.268 47.0813 185.012 46.828 184.825 46.508C184.644 46.1827 184.553 45.804 184.553 45.372C184.553 44.94 184.644 44.5613 184.825 44.236C185.012 43.9107 185.268 43.6573 185.593 43.476C185.924 43.2947 186.302 43.2013 186.729 43.196C187.236 43.196 187.644 43.3 187.953 43.508C188.268 43.716 188.492 44.0093 188.625 44.388C188.758 44.7613 188.806 45.2067 188.769 45.724H185.409V45.044H187.833ZM192.175 44.14C191.877 44.1187 191.618 44.164 191.399 44.276C191.181 44.3827 191.013 44.5373 190.895 44.74C190.778 44.9427 190.719 45.1747 190.719 45.436L190.439 45.404C190.439 44.9293 190.509 44.5293 190.647 44.204C190.786 43.8733 190.986 43.6227 191.247 43.452C191.509 43.2813 191.818 43.196 192.175 43.196V44.14ZM189.679 43.236H190.719V47.5H189.679V43.236ZM195.442 44.348C195.234 44.2253 195.018 44.132 194.794 44.068C194.57 43.9987 194.367 43.964 194.186 43.964C194.015 43.964 193.876 43.996 193.77 44.06C193.663 44.1187 193.61 44.22 193.61 44.364C193.61 44.4867 193.663 44.5853 193.77 44.66C193.882 44.7347 194.023 44.7987 194.194 44.852C194.364 44.9 194.546 44.9533 194.738 45.012C194.93 45.0707 195.111 45.148 195.282 45.244C195.458 45.34 195.599 45.468 195.706 45.628C195.818 45.788 195.874 45.9987 195.874 46.26C195.874 46.548 195.796 46.788 195.642 46.98C195.487 47.1667 195.282 47.308 195.026 47.404C194.77 47.4947 194.49 47.54 194.186 47.54C193.866 47.54 193.546 47.4893 193.226 47.388C192.911 47.2867 192.642 47.1373 192.418 46.94L192.778 46.244C192.975 46.4147 193.207 46.548 193.474 46.644C193.746 46.7347 193.996 46.78 194.226 46.78C194.348 46.78 194.458 46.764 194.554 46.732C194.65 46.7 194.724 46.6547 194.778 46.596C194.831 46.532 194.858 46.4493 194.858 46.348C194.858 46.2093 194.804 46.1027 194.698 46.028C194.591 45.948 194.452 45.8813 194.282 45.828C194.116 45.7693 193.938 45.7133 193.746 45.66C193.554 45.6013 193.372 45.5267 193.202 45.436C193.036 45.34 192.9 45.2147 192.794 45.06C192.687 44.9053 192.634 44.7 192.634 44.444C192.634 44.156 192.708 43.9187 192.858 43.732C193.007 43.5453 193.204 43.4093 193.45 43.324C193.695 43.2333 193.962 43.188 194.25 43.188C194.527 43.188 194.804 43.228 195.082 43.308C195.359 43.3827 195.604 43.4893 195.818 43.628L195.442 44.348ZM22.856 56.108C22.856 56.3213 22.896 56.468 22.976 56.548C23.056 56.628 23.1653 56.668 23.304 56.668C23.3893 56.668 23.4827 56.6547 23.584 56.628C23.6853 56.596 23.7947 56.548 23.912 56.484L24.152 57.236C23.992 57.332 23.8187 57.4093 23.632 57.468C23.4507 57.5213 23.2667 57.548 23.08 57.548C22.8507 57.548 22.64 57.5053 22.448 57.42C22.256 57.3293 22.104 57.1907 21.992 57.004C21.88 56.812 21.824 56.572 21.824 56.284V52.228H22.856V56.108ZM21.224 53.396H24.08V54.124H21.224V53.396ZM28.1283 55.116C28.1283 54.8067 28.043 54.564 27.8723 54.388C27.707 54.212 27.475 54.124 27.1763 54.124C26.8243 54.124 26.547 54.2467 26.3443 54.492C26.147 54.732 26.0483 55.036 26.0483 55.404H25.7763C25.7763 54.8813 25.8483 54.46 25.9923 54.14C26.1416 53.8147 26.3523 53.5773 26.6243 53.428C26.8963 53.2733 27.219 53.196 27.5923 53.196C27.9176 53.196 28.1976 53.2627 28.4323 53.396C28.6723 53.5293 28.8563 53.7187 28.9843 53.964C29.1123 54.204 29.1763 54.4947 29.1763 54.836V57.5H28.1283V55.116ZM25.0083 51.564H26.0483V57.5H25.0083V51.564ZM32.8393 54.14C32.5406 54.1187 32.282 54.164 32.0633 54.276C31.8446 54.3827 31.6766 54.5373 31.5593 54.74C31.442 54.9427 31.3833 55.1747 31.3833 55.436L31.1033 55.404C31.1033 54.9293 31.1726 54.5293 31.3113 54.204C31.45 53.8733 31.65 53.6227 31.9113 53.452C32.1726 53.2813 32.482 53.196 32.8393 53.196V54.14ZM30.3433 53.236H31.3833V57.5H30.3433V53.236ZM35.4419 53.196C35.8845 53.196 36.2739 53.2867 36.6099 53.468C36.9512 53.6493 37.2152 53.9027 37.4019 54.228C37.5939 54.5533 37.6899 54.932 37.6899 55.364C37.6899 55.796 37.5939 56.1747 37.4019 56.5C37.2152 56.8253 36.9512 57.0813 36.6099 57.268C36.2739 57.4493 35.8845 57.54 35.4419 57.54C34.9939 57.54 34.5992 57.4493 34.2579 57.268C33.9165 57.0813 33.6499 56.8253 33.4579 56.5C33.2712 56.1747 33.1779 55.796 33.1779 55.364C33.1779 54.932 33.2712 54.5533 33.4579 54.228C33.6499 53.9027 33.9165 53.6493 34.2579 53.468C34.5992 53.2867 34.9939 53.196 35.4419 53.196ZM35.4419 54.036C35.2019 54.036 34.9885 54.0947 34.8019 54.212C34.6205 54.324 34.4792 54.4813 34.3779 54.684C34.2765 54.8813 34.2259 55.1107 34.2259 55.372C34.2259 55.6387 34.2765 55.8733 34.3779 56.076C34.4792 56.2787 34.6205 56.436 34.8019 56.548C34.9885 56.66 35.2019 56.716 35.4419 56.716C35.6765 56.716 35.8845 56.66 36.0659 56.548C36.2472 56.436 36.3885 56.2787 36.4899 56.076C36.5912 55.8733 36.6419 55.6387 36.6419 55.372C36.6419 55.1107 36.5912 54.8813 36.4899 54.684C36.3885 54.4813 36.2472 54.324 36.0659 54.212C35.8845 54.0947 35.6765 54.036 35.4419 54.036ZM39.5053 55.612C39.5053 55.9213 39.5853 56.1667 39.7453 56.348C39.9106 56.524 40.1373 56.612 40.4253 56.612C40.7613 56.6013 41.0226 56.476 41.2093 56.236C41.4013 55.996 41.4973 55.6947 41.4973 55.332H41.7693C41.7693 55.8493 41.6973 56.2707 41.5533 56.596C41.4093 56.916 41.2066 57.1533 40.9453 57.308C40.684 57.4573 40.372 57.5347 40.0093 57.54C39.6893 57.54 39.412 57.4733 39.1773 57.34C38.948 57.2067 38.7693 57.0173 38.6413 56.772C38.5186 56.5213 38.4573 56.228 38.4573 55.892V53.236H39.5053V55.612ZM41.4973 53.236H42.5453V57.5H41.4973V53.236ZM47.7553 57.084C47.7553 57.4947 47.662 57.8493 47.4753 58.148C47.294 58.4467 47.0353 58.676 46.6993 58.836C46.3633 59.0013 45.9686 59.084 45.5153 59.084C45.1686 59.084 44.8433 59.0333 44.5393 58.932C44.2406 58.8307 43.9633 58.6947 43.7073 58.524L44.1233 57.812C44.3206 57.956 44.5286 58.068 44.7473 58.148C44.966 58.228 45.2033 58.268 45.4593 58.268C45.7153 58.268 45.9366 58.22 46.1233 58.124C46.3153 58.028 46.462 57.8947 46.5633 57.724C46.6646 57.5533 46.7153 57.3507 46.7153 57.116V53.236H47.7553V57.084ZM45.3233 53.196C45.6913 53.1907 46.006 53.2707 46.2673 53.436C46.5286 53.6013 46.7286 53.836 46.8673 54.14C47.006 54.444 47.0726 54.8093 47.0673 55.236C47.0726 55.6627 47.006 56.0307 46.8673 56.34C46.734 56.644 46.5393 56.8787 46.2833 57.044C46.0273 57.2093 45.718 57.292 45.3553 57.292C44.9766 57.292 44.6433 57.2067 44.3553 57.036C44.0726 56.86 43.8513 56.6173 43.6913 56.308C43.5313 55.9933 43.4513 55.6333 43.4513 55.228C43.4513 54.8227 43.5286 54.4707 43.6833 54.172C43.8433 53.868 44.0646 53.6307 44.3473 53.46C44.63 53.284 44.9553 53.196 45.3233 53.196ZM45.5793 53.988C45.3606 53.988 45.1633 54.0413 44.9873 54.148C44.8166 54.2547 44.6833 54.404 44.5873 54.596C44.4913 54.788 44.4406 55.0067 44.4353 55.252C44.4406 55.4973 44.4913 55.716 44.5873 55.908C44.6833 56.1 44.8166 56.2493 44.9873 56.356C45.158 56.4627 45.3553 56.516 45.5793 56.516C45.8033 56.516 46.0006 56.4627 46.1713 56.356C46.342 56.2493 46.4753 56.1 46.5713 55.908C46.6673 55.716 46.7153 55.4973 46.7153 55.252C46.7153 55.0013 46.6673 54.7827 46.5713 54.596C46.4753 54.404 46.342 54.2547 46.1713 54.148C46.0006 54.0413 45.8033 53.988 45.5793 53.988ZM52.1361 55.116C52.1361 54.8067 52.0508 54.564 51.8801 54.388C51.7148 54.212 51.4828 54.124 51.1841 54.124C50.8321 54.124 50.5548 54.2467 50.3521 54.492C50.1548 54.732 50.0561 55.036 50.0561 55.404H49.7841C49.7841 54.8813 49.8561 54.46 50.0001 54.14C50.1495 53.8147 50.3601 53.5773 50.6321 53.428C50.9041 53.2733 51.2268 53.196 51.6001 53.196C51.9255 53.196 52.2055 53.2627 52.4401 53.396C52.6801 53.5293 52.8641 53.7187 52.9921 53.964C53.1201 54.204 53.1841 54.4947 53.1841 54.836V57.5H52.1361V55.116ZM49.0161 51.564H50.0561V57.5H49.0161V51.564ZM59.3954 55.044C59.3847 54.82 59.334 54.6307 59.2434 54.476C59.1527 54.316 59.0247 54.1933 58.8594 54.108C58.6994 54.0173 58.5154 53.972 58.3074 53.972C58.0674 53.972 57.8594 54.028 57.6834 54.14C57.5074 54.252 57.3687 54.4093 57.2674 54.612C57.1714 54.8147 57.1234 55.0493 57.1234 55.316C57.1234 55.6093 57.1767 55.8627 57.2834 56.076C57.3954 56.2893 57.5474 56.4547 57.7394 56.572C57.9314 56.684 58.1527 56.74 58.4034 56.74C58.8567 56.74 59.2434 56.5773 59.5634 56.252L60.1154 56.804C59.902 57.0387 59.6434 57.22 59.3394 57.348C59.0354 57.476 58.6967 57.54 58.3234 57.54C57.8754 57.54 57.486 57.4493 57.1554 57.268C56.83 57.0813 56.574 56.828 56.3874 56.508C56.206 56.1827 56.1154 55.804 56.1154 55.372C56.1154 54.94 56.206 54.5613 56.3874 54.236C56.574 53.9107 56.83 53.6573 57.1554 53.476C57.486 53.2947 57.8647 53.2013 58.2914 53.196C58.798 53.196 59.206 53.3 59.5154 53.508C59.83 53.716 60.054 54.0093 60.1874 54.388C60.3207 54.7613 60.3687 55.2067 60.3314 55.724H56.9714V55.044H59.3954ZM64.3538 55.116C64.3538 54.8067 64.2684 54.564 64.0978 54.388C63.9324 54.212 63.7004 54.124 63.4018 54.124C63.0551 54.124 62.7804 54.2467 62.5778 54.492C62.3804 54.732 62.2818 55.036 62.2818 55.404H62.0018C62.0018 54.8813 62.0738 54.46 62.2178 54.14C62.3671 53.8147 62.5778 53.5773 62.8498 53.428C63.1271 53.2733 63.4498 53.196 63.8178 53.196C64.1484 53.196 64.4311 53.2627 64.6658 53.396C64.9004 53.5293 65.0818 53.7187 65.2098 53.964C65.3378 54.204 65.4018 54.4947 65.4018 54.836V57.5H64.3538V55.116ZM61.2418 53.236H62.2818V57.5H61.2418V53.236ZM70.4819 57.084C70.4819 57.4947 70.3885 57.8493 70.2019 58.148C70.0205 58.4467 69.7619 58.676 69.4259 58.836C69.0899 59.0013 68.6952 59.084 68.2419 59.084C67.8952 59.084 67.5699 59.0333 67.2659 58.932C66.9672 58.8307 66.6899 58.6947 66.4339 58.524L66.8499 57.812C67.0472 57.956 67.2552 58.068 67.4739 58.148C67.6925 58.228 67.9299 58.268 68.1859 58.268C68.4419 58.268 68.6632 58.22 68.8499 58.124C69.0419 58.028 69.1885 57.8947 69.2899 57.724C69.3912 57.5533 69.4419 57.3507 69.4419 57.116V53.236H70.4819V57.084ZM68.0499 53.196C68.4179 53.1907 68.7325 53.2707 68.9939 53.436C69.2552 53.6013 69.4552 53.836 69.5939 54.14C69.7325 54.444 69.7992 54.8093 69.7939 55.236C69.7992 55.6627 69.7325 56.0307 69.5939 56.34C69.4605 56.644 69.2659 56.8787 69.0099 57.044C68.7539 57.2093 68.4445 57.292 68.0819 57.292C67.7032 57.292 67.3699 57.2067 67.0819 57.036C66.7992 56.86 66.5779 56.6173 66.4179 56.308C66.2579 55.9933 66.1779 55.6333 66.1779 55.228C66.1779 54.8227 66.2552 54.4707 66.4099 54.172C66.5699 53.868 66.7912 53.6307 67.0739 53.46C67.3565 53.284 67.6819 53.196 68.0499 53.196ZM68.3059 53.988C68.0872 53.988 67.8899 54.0413 67.7139 54.148C67.5432 54.2547 67.4099 54.404 67.3139 54.596C67.2179 54.788 67.1672 55.0067 67.1619 55.252C67.1672 55.4973 67.2179 55.716 67.3139 55.908C67.4099 56.1 67.5432 56.2493 67.7139 56.356C67.8845 56.4627 68.0819 56.516 68.3059 56.516C68.5299 56.516 68.7272 56.4627 68.8979 56.356C69.0685 56.2493 69.2019 56.1 69.2979 55.908C69.3939 55.716 69.4419 55.4973 69.4419 55.252C69.4419 55.0013 69.3939 54.7827 69.2979 54.596C69.2019 54.404 69.0685 54.2547 68.8979 54.148C68.7272 54.0413 68.5299 53.988 68.3059 53.988ZM73.1427 55.62C72.8707 55.62 72.668 55.6627 72.5347 55.748C72.4014 55.8333 72.3347 55.9747 72.3347 56.172C72.3347 56.3533 72.4014 56.5 72.5347 56.612C72.6734 56.724 72.86 56.78 73.0947 56.78C73.3027 56.78 73.4894 56.7453 73.6547 56.676C73.8254 56.6013 73.9587 56.5027 74.0547 56.38C74.156 56.252 74.2147 56.1107 74.2307 55.956L74.4067 56.7C74.2787 56.9773 74.0814 57.188 73.8147 57.332C73.548 57.476 73.2254 57.548 72.8467 57.548C72.5427 57.548 72.2787 57.4893 72.0547 57.372C71.8307 57.2547 71.6574 57.0973 71.5347 56.9C71.412 56.6973 71.3507 56.4707 71.3507 56.22C71.3507 55.8253 71.492 55.516 71.7747 55.292C72.0574 55.0627 72.4574 54.9453 72.9747 54.94H74.3427V55.62H73.1427ZM74.2227 54.812C74.2227 54.556 74.14 54.356 73.9747 54.212C73.8147 54.0627 73.5747 53.988 73.2547 53.988C73.0574 53.988 72.8494 54.0253 72.6307 54.1C72.4174 54.1693 72.2014 54.2707 71.9827 54.404L71.6067 53.732C71.8094 53.6093 72.004 53.5107 72.1907 53.436C72.3774 53.356 72.572 53.2973 72.7747 53.26C72.9827 53.2173 73.22 53.196 73.4867 53.196C74.0467 53.196 74.4787 53.3293 74.7827 53.596C75.0867 53.8627 75.2414 54.2307 75.2467 54.7L75.2547 57.5H74.2307L74.2227 54.812ZM80.3334 57.084C80.3334 57.4947 80.2401 57.8493 80.0534 58.148C79.8721 58.4467 79.6134 58.676 79.2774 58.836C78.9414 59.0013 78.5468 59.084 78.0934 59.084C77.7468 59.084 77.4214 59.0333 77.1174 58.932C76.8188 58.8307 76.5414 58.6947 76.2854 58.524L76.7014 57.812C76.8988 57.956 77.1068 58.068 77.3254 58.148C77.5441 58.228 77.7814 58.268 78.0374 58.268C78.2934 58.268 78.5148 58.22 78.7014 58.124C78.8934 58.028 79.0401 57.8947 79.1414 57.724C79.2428 57.5533 79.2934 57.3507 79.2934 57.116V53.236H80.3334V57.084ZM77.9014 53.196C78.2694 53.1907 78.5841 53.2707 78.8454 53.436C79.1068 53.6013 79.3068 53.836 79.4454 54.14C79.5841 54.444 79.6508 54.8093 79.6454 55.236C79.6508 55.6627 79.5841 56.0307 79.4454 56.34C79.3121 56.644 79.1174 56.8787 78.8614 57.044C78.6054 57.2093 78.2961 57.292 77.9334 57.292C77.5548 57.292 77.2214 57.2067 76.9334 57.036C76.6508 56.86 76.4294 56.6173 76.2694 56.308C76.1094 55.9933 76.0294 55.6333 76.0294 55.228C76.0294 54.8227 76.1068 54.4707 76.2614 54.172C76.4214 53.868 76.6428 53.6307 76.9254 53.46C77.2081 53.284 77.5334 53.196 77.9014 53.196ZM78.1574 53.988C77.9388 53.988 77.7414 54.0413 77.5654 54.148C77.3948 54.2547 77.2614 54.404 77.1654 54.596C77.0694 54.788 77.0188 55.0067 77.0134 55.252C77.0188 55.4973 77.0694 55.716 77.1654 55.908C77.2614 56.1 77.3948 56.2493 77.5654 56.356C77.7361 56.4627 77.9334 56.516 78.1574 56.516C78.3814 56.516 78.5788 56.4627 78.7494 56.356C78.9201 56.2493 79.0534 56.1 79.1494 55.908C79.2454 55.716 79.2934 55.4973 79.2934 55.252C79.2934 55.0013 79.2454 54.7827 79.1494 54.596C79.0534 54.404 78.9201 54.2547 78.7494 54.148C78.5788 54.0413 78.3814 53.988 78.1574 53.988ZM81.5543 53.236H82.5943V57.5H81.5543V53.236ZM82.0663 51.42C82.2369 51.42 82.3783 51.476 82.4903 51.588C82.6023 51.7 82.6583 51.8413 82.6583 52.012C82.6583 52.1773 82.6023 52.3187 82.4903 52.436C82.3783 52.548 82.2369 52.604 82.0663 52.604C81.9009 52.604 81.7623 52.548 81.6503 52.436C81.5383 52.3187 81.4823 52.1773 81.4823 52.012C81.4823 51.8413 81.5383 51.7 81.6503 51.588C81.7623 51.476 81.9009 51.42 82.0663 51.42ZM86.9944 55.116C86.9944 54.8067 86.909 54.564 86.7384 54.388C86.573 54.212 86.341 54.124 86.0424 54.124C85.6957 54.124 85.421 54.2467 85.2184 54.492C85.021 54.732 84.9224 55.036 84.9224 55.404H84.6424C84.6424 54.8813 84.7144 54.46 84.8584 54.14C85.0077 53.8147 85.2184 53.5773 85.4904 53.428C85.7677 53.2733 86.0904 53.196 86.4584 53.196C86.789 53.196 87.0717 53.2627 87.3064 53.396C87.541 53.5293 87.7224 53.7187 87.8504 53.964C87.9784 54.204 88.0424 54.4947 88.0424 54.836V57.5H86.9944V55.116ZM83.8824 53.236H84.9224V57.5H83.8824V53.236ZM93.1225 57.084C93.1225 57.4947 93.0292 57.8493 92.8425 58.148C92.6612 58.4467 92.4025 58.676 92.0665 58.836C91.7305 59.0013 91.3358 59.084 90.8825 59.084C90.5358 59.084 90.2105 59.0333 89.9065 58.932C89.6078 58.8307 89.3305 58.6947 89.0745 58.524L89.4905 57.812C89.6878 57.956 89.8958 58.068 90.1145 58.148C90.3332 58.228 90.5705 58.268 90.8265 58.268C91.0825 58.268 91.3038 58.22 91.4905 58.124C91.6825 58.028 91.8292 57.8947 91.9305 57.724C92.0318 57.5533 92.0825 57.3507 92.0825 57.116V53.236H93.1225V57.084ZM90.6905 53.196C91.0585 53.1907 91.3732 53.2707 91.6345 53.436C91.8958 53.6013 92.0958 53.836 92.2345 54.14C92.3732 54.444 92.4398 54.8093 92.4345 55.236C92.4398 55.6627 92.3732 56.0307 92.2345 56.34C92.1012 56.644 91.9065 56.8787 91.6505 57.044C91.3945 57.2093 91.0852 57.292 90.7225 57.292C90.3438 57.292 90.0105 57.2067 89.7225 57.036C89.4398 56.86 89.2185 56.6173 89.0585 56.308C88.8985 55.9933 88.8185 55.6333 88.8185 55.228C88.8185 54.8227 88.8958 54.4707 89.0505 54.172C89.2105 53.868 89.4318 53.6307 89.7145 53.46C89.9972 53.284 90.3225 53.196 90.6905 53.196ZM90.9465 53.988C90.7278 53.988 90.5305 54.0413 90.3545 54.148C90.1838 54.2547 90.0505 54.404 89.9545 54.596C89.8585 54.788 89.8078 55.0067 89.8025 55.252C89.8078 55.4973 89.8585 55.716 89.9545 55.908C90.0505 56.1 90.1838 56.2493 90.3545 56.356C90.5252 56.4627 90.7225 56.516 90.9465 56.516C91.1705 56.516 91.3678 56.4627 91.5385 56.356C91.7092 56.2493 91.8425 56.1 91.9385 55.908C92.0345 55.716 92.0825 55.4973 92.0825 55.252C92.0825 55.0013 92.0345 54.7827 91.9385 54.596C91.8425 54.404 91.7092 54.2547 91.5385 54.148C91.3678 54.0413 91.1705 53.988 90.9465 53.988ZM94.7113 57.556C94.482 57.556 94.314 57.5027 94.2073 57.396C94.106 57.2893 94.0553 57.164 94.0553 57.02C94.0553 56.8653 94.106 56.7373 94.2073 56.636C94.3086 56.5347 94.4393 56.484 94.5993 56.484C94.738 56.484 94.8606 56.532 94.9673 56.628C95.074 56.7187 95.1273 56.8493 95.1273 57.02C95.1273 57.1 95.1113 57.1773 95.0793 57.252C95.0526 57.3213 95.0206 57.388 94.9833 57.452L94.4793 58.404H93.9593L94.4473 57.076L94.7113 57.556ZM100.761 54.14C100.463 54.1187 100.204 54.164 99.9852 54.276C99.7665 54.3827 99.5985 54.5373 99.4812 54.74C99.3639 54.9427 99.3052 55.1747 99.3052 55.436L99.0252 55.404C99.0252 54.9293 99.0945 54.5293 99.2332 54.204C99.3719 53.8733 99.5719 53.6227 99.8332 53.452C100.095 53.2813 100.404 53.196 100.761 53.196V54.14ZM98.2652 53.236H99.3052V57.5H98.2652V53.236ZM104.38 55.044C104.369 54.82 104.318 54.6307 104.228 54.476C104.137 54.316 104.009 54.1933 103.844 54.108C103.684 54.0173 103.5 53.972 103.292 53.972C103.052 53.972 102.844 54.028 102.668 54.14C102.492 54.252 102.353 54.4093 102.252 54.612C102.156 54.8147 102.108 55.0493 102.108 55.316C102.108 55.6093 102.161 55.8627 102.268 56.076C102.38 56.2893 102.532 56.4547 102.724 56.572C102.916 56.684 103.137 56.74 103.388 56.74C103.841 56.74 104.228 56.5773 104.548 56.252L105.1 56.804C104.886 57.0387 104.628 57.22 104.324 57.348C104.02 57.476 103.681 57.54 103.308 57.54C102.86 57.54 102.47 57.4493 102.14 57.268C101.814 57.0813 101.558 56.828 101.372 56.508C101.19 56.1827 101.1 55.804 101.1 55.372C101.1 54.94 101.19 54.5613 101.372 54.236C101.558 53.9107 101.814 53.6573 102.14 53.476C102.47 53.2947 102.849 53.2013 103.276 53.196C103.782 53.196 104.19 53.3 104.5 53.508C104.814 53.716 105.038 54.0093 105.172 54.388C105.305 54.7613 105.353 55.2067 105.316 55.724H101.956V55.044H104.38ZM106.266 51.564H107.306V57.5H106.266V51.564ZM111.528 55.044C111.518 54.82 111.467 54.6307 111.376 54.476C111.286 54.316 111.158 54.1933 110.992 54.108C110.832 54.0173 110.648 53.972 110.44 53.972C110.2 53.972 109.992 54.028 109.816 54.14C109.64 54.252 109.502 54.4093 109.4 54.612C109.304 54.8147 109.256 55.0493 109.256 55.316C109.256 55.6093 109.31 55.8627 109.416 56.076C109.528 56.2893 109.68 56.4547 109.872 56.572C110.064 56.684 110.286 56.74 110.536 56.74C110.99 56.74 111.376 56.5773 111.696 56.252L112.248 56.804C112.035 57.0387 111.776 57.22 111.472 57.348C111.168 57.476 110.83 57.54 110.456 57.54C110.008 57.54 109.619 57.4493 109.288 57.268C108.963 57.0813 108.707 56.828 108.52 56.508C108.339 56.1827 108.248 55.804 108.248 55.372C108.248 54.94 108.339 54.5613 108.52 54.236C108.707 53.9107 108.963 53.6573 109.288 53.476C109.619 53.2947 109.998 53.2013 110.424 53.196C110.931 53.196 111.339 53.3 111.648 53.508C111.963 53.716 112.187 54.0093 112.32 54.388C112.454 54.7613 112.502 55.2067 112.464 55.724H109.104V55.044H111.528ZM112.57 53.236H113.658L114.778 56.54L115.874 53.236H116.922L115.29 57.5H114.218L112.57 53.236ZM118.846 55.62C118.574 55.62 118.371 55.6627 118.238 55.748C118.104 55.8333 118.038 55.9747 118.038 56.172C118.038 56.3533 118.104 56.5 118.238 56.612C118.376 56.724 118.563 56.78 118.798 56.78C119.006 56.78 119.192 56.7453 119.358 56.676C119.528 56.6013 119.662 56.5027 119.758 56.38C119.859 56.252 119.918 56.1107 119.934 55.956L120.11 56.7C119.982 56.9773 119.784 57.188 119.518 57.332C119.251 57.476 118.928 57.548 118.55 57.548C118.246 57.548 117.982 57.4893 117.758 57.372C117.534 57.2547 117.36 57.0973 117.238 56.9C117.115 56.6973 117.054 56.4707 117.054 56.22C117.054 55.8253 117.195 55.516 117.478 55.292C117.76 55.0627 118.16 54.9453 118.678 54.94H120.046V55.62H118.846ZM119.926 54.812C119.926 54.556 119.843 54.356 119.678 54.212C119.518 54.0627 119.278 53.988 118.958 53.988C118.76 53.988 118.552 54.0253 118.334 54.1C118.12 54.1693 117.904 54.2707 117.686 54.404L117.31 53.732C117.512 53.6093 117.707 53.5107 117.894 53.436C118.08 53.356 118.275 53.2973 118.478 53.26C118.686 53.2173 118.923 53.196 119.19 53.196C119.75 53.196 120.182 53.3293 120.486 53.596C120.79 53.8627 120.944 54.2307 120.95 54.7L120.958 57.5H119.934L119.926 54.812ZM125.237 55.116C125.237 54.8067 125.151 54.564 124.981 54.388C124.815 54.212 124.583 54.124 124.285 54.124C123.938 54.124 123.663 54.2467 123.461 54.492C123.263 54.732 123.165 55.036 123.165 55.404H122.885C122.885 54.8813 122.957 54.46 123.101 54.14C123.25 53.8147 123.461 53.5773 123.733 53.428C124.01 53.2733 124.333 53.196 124.701 53.196C125.031 53.196 125.314 53.2627 125.549 53.396C125.783 53.5293 125.965 53.7187 126.093 53.964C126.221 54.204 126.285 54.4947 126.285 54.836V57.5H125.237V55.116ZM122.125 53.236H123.165V57.5H122.125V53.236ZM128.661 56.108C128.661 56.3213 128.701 56.468 128.781 56.548C128.861 56.628 128.97 56.668 129.109 56.668C129.194 56.668 129.287 56.6547 129.389 56.628C129.49 56.596 129.599 56.548 129.717 56.484L129.957 57.236C129.797 57.332 129.623 57.4093 129.437 57.468C129.255 57.5213 129.071 57.548 128.885 57.548C128.655 57.548 128.445 57.5053 128.253 57.42C128.061 57.3293 127.909 57.1907 127.797 57.004C127.685 56.812 127.629 56.572 127.629 56.284V52.228H128.661V56.108ZM127.029 53.396H129.885V54.124H127.029V53.396ZM135.985 55.116C135.985 54.8013 135.903 54.556 135.737 54.38C135.577 54.204 135.351 54.116 135.057 54.116C134.721 54.1213 134.455 54.2467 134.257 54.492C134.065 54.732 133.969 55.0333 133.969 55.396H133.689C133.689 54.8787 133.761 54.46 133.905 54.14C134.049 53.8147 134.255 53.5773 134.521 53.428C134.793 53.2733 135.111 53.196 135.473 53.196C135.799 53.196 136.076 53.2627 136.305 53.396C136.54 53.5293 136.719 53.7187 136.841 53.964C136.969 54.204 137.033 54.4947 137.033 54.836V57.5H135.985V55.116ZM139.049 55.116C139.049 54.8013 138.967 54.556 138.801 54.38C138.636 54.204 138.407 54.116 138.113 54.116C137.777 54.1213 137.513 54.2467 137.321 54.492C137.129 54.732 137.033 55.0333 137.033 55.396H136.753C136.753 54.8787 136.825 54.46 136.969 54.14C137.113 53.8147 137.319 53.5773 137.585 53.428C137.852 53.2733 138.169 53.196 138.537 53.196C138.857 53.196 139.132 53.2627 139.361 53.396C139.596 53.5293 139.777 53.7187 139.905 53.964C140.033 54.204 140.097 54.4947 140.097 54.836V57.5H139.049V55.116ZM132.929 53.236H133.969V57.5H132.929V53.236ZM144.145 55.044C144.135 54.82 144.084 54.6307 143.993 54.476C143.903 54.316 143.775 54.1933 143.609 54.108C143.449 54.0173 143.265 53.972 143.057 53.972C142.817 53.972 142.609 54.028 142.433 54.14C142.257 54.252 142.119 54.4093 142.017 54.612C141.921 54.8147 141.873 55.0493 141.873 55.316C141.873 55.6093 141.927 55.8627 142.033 56.076C142.145 56.2893 142.297 56.4547 142.489 56.572C142.681 56.684 142.903 56.74 143.153 56.74C143.607 56.74 143.993 56.5773 144.313 56.252L144.865 56.804C144.652 57.0387 144.393 57.22 144.089 57.348C143.785 57.476 143.447 57.54 143.073 57.54C142.625 57.54 142.236 57.4493 141.905 57.268C141.58 57.0813 141.324 56.828 141.137 56.508C140.956 56.1827 140.865 55.804 140.865 55.372C140.865 54.94 140.956 54.5613 141.137 54.236C141.324 53.9107 141.58 53.6573 141.905 53.476C142.236 53.2947 142.615 53.2013 143.041 53.196C143.548 53.196 143.956 53.3 144.265 53.508C144.58 53.716 144.804 54.0093 144.937 54.388C145.071 54.7613 145.119 55.2067 145.081 55.724H141.721V55.044H144.145ZM148.528 54.348C148.32 54.2253 148.104 54.132 147.88 54.068C147.656 53.9987 147.453 53.964 147.272 53.964C147.101 53.964 146.962 53.996 146.856 54.06C146.749 54.1187 146.696 54.22 146.696 54.364C146.696 54.4867 146.749 54.5853 146.856 54.66C146.968 54.7347 147.109 54.7987 147.28 54.852C147.45 54.9 147.632 54.9533 147.824 55.012C148.016 55.0707 148.197 55.148 148.368 55.244C148.544 55.34 148.685 55.468 148.792 55.628C148.904 55.788 148.96 55.9987 148.96 56.26C148.96 56.548 148.882 56.788 148.728 56.98C148.573 57.1667 148.368 57.308 148.112 57.404C147.856 57.4947 147.576 57.54 147.272 57.54C146.952 57.54 146.632 57.4893 146.312 57.388C145.997 57.2867 145.728 57.1373 145.504 56.94L145.864 56.244C146.061 56.4147 146.293 56.548 146.56 56.644C146.832 56.7347 147.082 56.78 147.312 56.78C147.434 56.78 147.544 56.764 147.64 56.732C147.736 56.7 147.81 56.6547 147.864 56.596C147.917 56.532 147.944 56.4493 147.944 56.348C147.944 56.2093 147.89 56.1027 147.784 56.028C147.677 55.948 147.538 55.8813 147.368 55.828C147.202 55.7693 147.024 55.7133 146.832 55.66C146.64 55.6013 146.458 55.5267 146.288 55.436C146.122 55.34 145.986 55.2147 145.88 55.06C145.773 54.9053 145.72 54.7 145.72 54.444C145.72 54.156 145.794 53.9187 145.944 53.732C146.093 53.5453 146.29 53.4093 146.536 53.324C146.781 53.2333 147.048 53.188 147.336 53.188C147.613 53.188 147.89 53.228 148.168 53.308C148.445 53.3827 148.69 53.4893 148.904 53.628L148.528 54.348ZM152.387 54.348C152.179 54.2253 151.963 54.132 151.739 54.068C151.515 53.9987 151.312 53.964 151.131 53.964C150.96 53.964 150.822 53.996 150.715 54.06C150.608 54.1187 150.555 54.22 150.555 54.364C150.555 54.4867 150.608 54.5853 150.715 54.66C150.827 54.7347 150.968 54.7987 151.139 54.852C151.31 54.9 151.491 54.9533 151.683 55.012C151.875 55.0707 152.056 55.148 152.227 55.244C152.403 55.34 152.544 55.468 152.651 55.628C152.763 55.788 152.819 55.9987 152.819 56.26C152.819 56.548 152.742 56.788 152.587 56.98C152.432 57.1667 152.227 57.308 151.971 57.404C151.715 57.4947 151.435 57.54 151.131 57.54C150.811 57.54 150.491 57.4893 150.171 57.388C149.856 57.2867 149.587 57.1373 149.363 56.94L149.723 56.244C149.92 56.4147 150.152 56.548 150.419 56.644C150.691 56.7347 150.942 56.78 151.171 56.78C151.294 56.78 151.403 56.764 151.499 56.732C151.595 56.7 151.67 56.6547 151.723 56.596C151.776 56.532 151.803 56.4493 151.803 56.348C151.803 56.2093 151.75 56.1027 151.643 56.028C151.536 55.948 151.398 55.8813 151.227 55.828C151.062 55.7693 150.883 55.7133 150.691 55.66C150.499 55.6013 150.318 55.5267 150.147 55.436C149.982 55.34 149.846 55.2147 149.739 55.06C149.632 54.9053 149.579 54.7 149.579 54.444C149.579 54.156 149.654 53.9187 149.803 53.732C149.952 53.5453 150.15 53.4093 150.395 53.324C150.64 53.2333 150.907 53.188 151.195 53.188C151.472 53.188 151.75 53.228 152.027 53.308C152.304 53.3827 152.55 53.4893 152.763 53.628L152.387 54.348ZM155.151 55.62C154.879 55.62 154.676 55.6627 154.543 55.748C154.409 55.8333 154.343 55.9747 154.343 56.172C154.343 56.3533 154.409 56.5 154.543 56.612C154.681 56.724 154.868 56.78 155.103 56.78C155.311 56.78 155.497 56.7453 155.663 56.676C155.833 56.6013 155.967 56.5027 156.063 56.38C156.164 56.252 156.223 56.1107 156.239 55.956L156.415 56.7C156.287 56.9773 156.089 57.188 155.823 57.332C155.556 57.476 155.233 57.548 154.855 57.548C154.551 57.548 154.287 57.4893 154.062 57.372C153.839 57.2547 153.665 57.0973 153.543 56.9C153.42 56.6973 153.359 56.4707 153.359 56.22C153.359 55.8253 153.5 55.516 153.783 55.292C154.065 55.0627 154.465 54.9453 154.983 54.94H156.351V55.62H155.151ZM156.231 54.812C156.231 54.556 156.148 54.356 155.983 54.212C155.823 54.0627 155.583 53.988 155.263 53.988C155.065 53.988 154.857 54.0253 154.639 54.1C154.425 54.1693 154.209 54.2707 153.991 54.404L153.615 53.732C153.817 53.6093 154.012 53.5107 154.199 53.436C154.385 53.356 154.58 53.2973 154.783 53.26C154.991 53.2173 155.228 53.196 155.495 53.196C156.055 53.196 156.487 53.3293 156.791 53.596C157.095 53.8627 157.249 54.2307 157.255 54.7L157.263 57.5H156.239L156.231 54.812ZM162.341 57.084C162.341 57.4947 162.248 57.8493 162.061 58.148C161.88 58.4467 161.621 58.676 161.285 58.836C160.949 59.0013 160.555 59.084 160.101 59.084C159.755 59.084 159.429 59.0333 159.125 58.932C158.827 58.8307 158.549 58.6947 158.293 58.524L158.709 57.812C158.907 57.956 159.115 58.068 159.333 58.148C159.552 58.228 159.789 58.268 160.045 58.268C160.301 58.268 160.523 58.22 160.709 58.124C160.901 58.028 161.048 57.8947 161.149 57.724C161.251 57.5533 161.301 57.3507 161.301 57.116V53.236H162.341V57.084ZM159.909 53.196C160.277 53.1907 160.592 53.2707 160.853 53.436C161.115 53.6013 161.315 53.836 161.453 54.14C161.592 54.444 161.659 54.8093 161.653 55.236C161.659 55.6627 161.592 56.0307 161.453 56.34C161.32 56.644 161.125 56.8787 160.869 57.044C160.613 57.2093 160.304 57.292 159.941 57.292C159.563 57.292 159.229 57.2067 158.941 57.036C158.659 56.86 158.437 56.6173 158.277 56.308C158.117 55.9933 158.037 55.6333 158.037 55.228C158.037 54.8227 158.115 54.4707 158.269 54.172C158.429 53.868 158.651 53.6307 158.933 53.46C159.216 53.284 159.541 53.196 159.909 53.196ZM160.165 53.988C159.947 53.988 159.749 54.0413 159.573 54.148C159.403 54.2547 159.269 54.404 159.173 54.596C159.077 54.788 159.027 55.0067 159.021 55.252C159.027 55.4973 159.077 55.716 159.173 55.908C159.269 56.1 159.403 56.2493 159.573 56.356C159.744 56.4627 159.941 56.516 160.165 56.516C160.389 56.516 160.587 56.4627 160.757 56.356C160.928 56.2493 161.061 56.1 161.157 55.908C161.253 55.716 161.301 55.4973 161.301 55.252C161.301 55.0013 161.253 54.7827 161.157 54.596C161.061 54.404 160.928 54.2547 160.757 54.148C160.587 54.0413 160.389 53.988 160.165 53.988ZM166.45 55.044C166.439 54.82 166.389 54.6307 166.298 54.476C166.207 54.316 166.079 54.1933 165.914 54.108C165.754 54.0173 165.57 53.972 165.362 53.972C165.122 53.972 164.914 54.028 164.738 54.14C164.562 54.252 164.423 54.4093 164.322 54.612C164.226 54.8147 164.178 55.0493 164.178 55.316C164.178 55.6093 164.231 55.8627 164.338 56.076C164.45 56.2893 164.602 56.4547 164.794 56.572C164.986 56.684 165.207 56.74 165.458 56.74C165.911 56.74 166.298 56.5773 166.618 56.252L167.17 56.804C166.957 57.0387 166.698 57.22 166.394 57.348C166.09 57.476 165.751 57.54 165.378 57.54C164.93 57.54 164.541 57.4493 164.21 57.268C163.885 57.0813 163.629 56.828 163.442 56.508C163.261 56.1827 163.17 55.804 163.17 55.372C163.17 54.94 163.261 54.5613 163.442 54.236C163.629 53.9107 163.885 53.6573 164.21 53.476C164.541 53.2947 164.919 53.2013 165.346 53.196C165.853 53.196 166.261 53.3 166.57 53.508C166.885 53.716 167.109 54.0093 167.242 54.388C167.375 54.7613 167.423 55.2067 167.386 55.724H164.026V55.044H166.45ZM170.832 54.348C170.624 54.2253 170.408 54.132 170.184 54.068C169.96 53.9987 169.758 53.964 169.576 53.964C169.406 53.964 169.267 53.996 169.16 54.06C169.054 54.1187 169 54.22 169 54.364C169 54.4867 169.054 54.5853 169.16 54.66C169.272 54.7347 169.414 54.7987 169.584 54.852C169.755 54.9 169.936 54.9533 170.128 55.012C170.32 55.0707 170.502 55.148 170.672 55.244C170.848 55.34 170.99 55.468 171.096 55.628C171.208 55.788 171.264 55.9987 171.264 56.26C171.264 56.548 171.187 56.788 171.032 56.98C170.878 57.1667 170.672 57.308 170.416 57.404C170.16 57.4947 169.88 57.54 169.576 57.54C169.256 57.54 168.936 57.4893 168.616 57.388C168.302 57.2867 168.032 57.1373 167.808 56.94L168.168 56.244C168.366 56.4147 168.598 56.548 168.864 56.644C169.136 56.7347 169.387 56.78 169.616 56.78C169.739 56.78 169.848 56.764 169.944 56.732C170.04 56.7 170.115 56.6547 170.168 56.596C170.222 56.532 170.248 56.4493 170.248 56.348C170.248 56.2093 170.195 56.1027 170.088 56.028C169.982 55.948 169.843 55.8813 169.672 55.828C169.507 55.7693 169.328 55.7133 169.136 55.66C168.944 55.6013 168.763 55.5267 168.592 55.436C168.427 55.34 168.291 55.2147 168.184 55.06C168.078 54.9053 168.024 54.7 168.024 54.444C168.024 54.156 168.099 53.9187 168.248 53.732C168.398 53.5453 168.595 53.4093 168.84 53.324C169.086 53.2333 169.352 53.188 169.64 53.188C169.918 53.188 170.195 53.228 170.472 53.308C170.75 53.3827 170.995 53.4893 171.208 53.628L170.832 54.348Z" fill="black"/>
<path d="M25.536 24.1C26.624 24.1 27.464 24.352 28.056 24.856C28.648 25.36 28.944 26.068 28.944 26.98C28.944 27.932 28.648 28.672 28.056 29.2C27.464 29.728 26.624 29.992 25.536 29.992H23.64V32.5H22.032V24.1H25.536ZM25.536 28.66C26.136 28.66 26.6 28.524 26.928 28.252C27.256 27.98 27.42 27.568 27.42 27.016C27.42 26.488 27.256 26.096 26.928 25.84C26.6 25.576 26.136 25.444 25.536 25.444H23.64V28.66H25.536ZM25.476 29.38H27.048L29.112 32.5H27.288L25.476 29.38ZM34.9759 28.816C34.9599 28.48 34.8839 28.196 34.7479 27.964C34.6119 27.724 34.4199 27.54 34.1719 27.412C33.9319 27.276 33.6559 27.208 33.3439 27.208C32.9839 27.208 32.6719 27.292 32.4079 27.46C32.1439 27.628 31.9359 27.864 31.7839 28.168C31.6399 28.472 31.5679 28.824 31.5679 29.224C31.5679 29.664 31.6479 30.044 31.8079 30.364C31.9759 30.684 32.2039 30.932 32.4919 31.108C32.7799 31.276 33.1119 31.36 33.4879 31.36C34.1679 31.36 34.7479 31.116 35.2279 30.628L36.0559 31.456C35.7359 31.808 35.3479 32.08 34.8919 32.272C34.4359 32.464 33.9279 32.56 33.3679 32.56C32.6959 32.56 32.1119 32.424 31.6159 32.152C31.1279 31.872 30.7439 31.492 30.4639 31.012C30.1919 30.524 30.0559 29.956 30.0559 29.308C30.0559 28.66 30.1919 28.092 30.4639 27.604C30.7439 27.116 31.1279 26.736 31.6159 26.464C32.1119 26.192 32.6799 26.052 33.3199 26.044C34.0799 26.044 34.6919 26.2 35.1559 26.512C35.6279 26.824 35.9639 27.264 36.1639 27.832C36.3639 28.392 36.4359 29.06 36.3799 29.836H31.3399V28.816H34.9759ZM42.0774 28.816C42.0614 28.48 41.9854 28.196 41.8494 27.964C41.7134 27.724 41.5214 27.54 41.2734 27.412C41.0334 27.276 40.7574 27.208 40.4454 27.208C40.0854 27.208 39.7734 27.292 39.5094 27.46C39.2454 27.628 39.0374 27.864 38.8854 28.168C38.7414 28.472 38.6694 28.824 38.6694 29.224C38.6694 29.664 38.7494 30.044 38.9094 30.364C39.0774 30.684 39.3054 30.932 39.5934 31.108C39.8814 31.276 40.2134 31.36 40.5894 31.36C41.2694 31.36 41.8494 31.116 42.3294 30.628L43.1574 31.456C42.8374 31.808 42.4494 32.08 41.9934 32.272C41.5374 32.464 41.0294 32.56 40.4694 32.56C39.7974 32.56 39.2134 32.424 38.7174 32.152C38.2294 31.872 37.8454 31.492 37.5654 31.012C37.2934 30.524 37.1574 29.956 37.1574 29.308C37.1574 28.66 37.2934 28.092 37.5654 27.604C37.8454 27.116 38.2294 26.736 38.7174 26.464C39.2134 26.192 39.7814 26.052 40.4214 26.044C41.1814 26.044 41.7934 26.2 42.2574 26.512C42.7294 26.824 43.0654 27.264 43.2654 27.832C43.4654 28.392 43.5374 29.06 43.4814 29.836H38.4414V28.816H42.0774ZM49.515 28.924C49.515 28.46 49.387 28.096 49.131 27.832C48.883 27.568 48.535 27.436 48.087 27.436C47.567 27.436 47.155 27.62 46.851 27.988C46.555 28.348 46.407 28.804 46.407 29.356H45.987C45.987 28.572 46.095 27.94 46.311 27.46C46.535 26.972 46.851 26.616 47.259 26.392C47.675 26.16 48.159 26.044 48.711 26.044C49.207 26.044 49.631 26.144 49.983 26.344C50.335 26.544 50.607 26.828 50.799 27.196C50.991 27.556 51.087 27.992 51.087 28.504V32.5H49.515V28.924ZM44.847 26.104H46.407V32.5H44.847V26.104ZM58.7072 31.876C58.7072 32.492 58.5672 33.024 58.2872 33.472C58.0152 33.92 57.6272 34.264 57.1232 34.504C56.6192 34.752 56.0272 34.876 55.3472 34.876C54.8272 34.876 54.3392 34.8 53.8832 34.648C53.4352 34.496 53.0192 34.292 52.6352 34.036L53.2592 32.968C53.5552 33.184 53.8672 33.352 54.1952 33.472C54.5232 33.592 54.8792 33.652 55.2632 33.652C55.6472 33.652 55.9792 33.58 56.2592 33.436C56.5472 33.292 56.7672 33.092 56.9192 32.836C57.0712 32.58 57.1472 32.276 57.1472 31.924V26.104H58.7072V31.876ZM55.0592 26.044C55.6112 26.036 56.0832 26.156 56.4752 26.404C56.8672 26.652 57.1672 27.004 57.3752 27.46C57.5832 27.916 57.6832 28.464 57.6752 29.104C57.6832 29.744 57.5832 30.296 57.3752 30.76C57.1752 31.216 56.8832 31.568 56.4992 31.816C56.1152 32.064 55.6512 32.188 55.1072 32.188C54.5392 32.188 54.0392 32.06 53.6072 31.804C53.1832 31.54 52.8512 31.176 52.6112 30.712C52.3712 30.24 52.2512 29.7 52.2512 29.092C52.2512 28.484 52.3672 27.956 52.5992 27.508C52.8392 27.052 53.1712 26.696 53.5952 26.44C54.0192 26.176 54.5072 26.044 55.0592 26.044ZM55.4432 27.232C55.1152 27.232 54.8192 27.312 54.5552 27.472C54.2992 27.632 54.0992 27.856 53.9552 28.144C53.8112 28.432 53.7352 28.76 53.7272 29.128C53.7352 29.496 53.8112 29.824 53.9552 30.112C54.0992 30.4 54.2992 30.624 54.5552 30.784C54.8112 30.944 55.1072 31.024 55.4432 31.024C55.7792 31.024 56.0752 30.944 56.3312 30.784C56.5872 30.624 56.7872 30.4 56.9312 30.112C57.0752 29.824 57.1472 29.496 57.1472 29.128C57.1472 28.752 57.0752 28.424 56.9312 28.144C56.7872 27.856 56.5872 27.632 56.3312 27.472C56.0752 27.312 55.7792 27.232 55.4432 27.232ZM62.6984 29.68C62.2904 29.68 61.9864 29.744 61.7864 29.872C61.5864 30 61.4864 30.212 61.4864 30.508C61.4864 30.78 61.5864 31 61.7864 31.168C61.9944 31.336 62.2744 31.42 62.6264 31.42C62.9384 31.42 63.2184 31.368 63.4664 31.264C63.7224 31.152 63.9224 31.004 64.0664 30.82C64.2184 30.628 64.3064 30.416 64.3304 30.184L64.5944 31.3C64.4024 31.716 64.1064 32.032 63.7064 32.248C63.3064 32.464 62.8224 32.572 62.2544 32.572C61.7984 32.572 61.4024 32.484 61.0664 32.308C60.7304 32.132 60.4704 31.896 60.2864 31.6C60.1024 31.296 60.0104 30.956 60.0104 30.58C60.0104 29.988 60.2224 29.524 60.6464 29.188C61.0704 28.844 61.6704 28.668 62.4464 28.66H64.4984V29.68H62.6984ZM64.3184 28.468C64.3184 28.084 64.1944 27.784 63.9464 27.568C63.7064 27.344 63.3464 27.232 62.8664 27.232C62.5704 27.232 62.2584 27.288 61.9304 27.4C61.6104 27.504 61.2864 27.656 60.9584 27.856L60.3944 26.848C60.6984 26.664 60.9904 26.516 61.2704 26.404C61.5504 26.284 61.8424 26.196 62.1464 26.14C62.4584 26.076 62.8144 26.044 63.2144 26.044C64.0544 26.044 64.7024 26.244 65.1584 26.644C65.6144 27.044 65.8464 27.596 65.8544 28.3L65.8664 32.5H64.3304L64.3184 28.468ZM73.4845 31.876C73.4845 32.492 73.3445 33.024 73.0645 33.472C72.7925 33.92 72.4045 34.264 71.9005 34.504C71.3965 34.752 70.8045 34.876 70.1245 34.876C69.6045 34.876 69.1165 34.8 68.6605 34.648C68.2125 34.496 67.7965 34.292 67.4125 34.036L68.0365 32.968C68.3325 33.184 68.6445 33.352 68.9725 33.472C69.3005 33.592 69.6565 33.652 70.0405 33.652C70.4245 33.652 70.7565 33.58 71.0365 33.436C71.3245 33.292 71.5445 33.092 71.6965 32.836C71.8485 32.58 71.9245 32.276 71.9245 31.924V26.104H73.4845V31.876ZM69.8365 26.044C70.3885 26.036 70.8605 26.156 71.2525 26.404C71.6445 26.652 71.9445 27.004 72.1525 27.46C72.3605 27.916 72.4605 28.464 72.4525 29.104C72.4605 29.744 72.3605 30.296 72.1525 30.76C71.9525 31.216 71.6605 31.568 71.2765 31.816C70.8925 32.064 70.4285 32.188 69.8845 32.188C69.3165 32.188 68.8165 32.06 68.3845 31.804C67.9605 31.54 67.6285 31.176 67.3885 30.712C67.1485 30.24 67.0285 29.7 67.0285 29.092C67.0285 28.484 67.1445 27.956 67.3765 27.508C67.6165 27.052 67.9485 26.696 68.3725 26.44C68.7965 26.176 69.2845 26.044 69.8365 26.044ZM70.2205 27.232C69.8925 27.232 69.5965 27.312 69.3325 27.472C69.0765 27.632 68.8765 27.856 68.7325 28.144C68.5885 28.432 68.5125 28.76 68.5045 29.128C68.5125 29.496 68.5885 29.824 68.7325 30.112C68.8765 30.4 69.0765 30.624 69.3325 30.784C69.5885 30.944 69.8845 31.024 70.2205 31.024C70.5565 31.024 70.8525 30.944 71.1085 30.784C71.3645 30.624 71.5645 30.4 71.7085 30.112C71.8525 29.824 71.9245 29.496 71.9245 29.128C71.9245 28.752 71.8525 28.424 71.7085 28.144C71.5645 27.856 71.3645 27.632 71.1085 27.472C70.8525 27.312 70.5565 27.232 70.2205 27.232ZM79.6478 28.816C79.6318 28.48 79.5558 28.196 79.4198 27.964C79.2838 27.724 79.0918 27.54 78.8438 27.412C78.6038 27.276 78.3278 27.208 78.0158 27.208C77.6558 27.208 77.3438 27.292 77.0798 27.46C76.8158 27.628 76.6078 27.864 76.4558 28.168C76.3118 28.472 76.2398 28.824 76.2398 29.224C76.2398 29.664 76.3198 30.044 76.4798 30.364C76.6478 30.684 76.8758 30.932 77.1638 31.108C77.4518 31.276 77.7838 31.36 78.1598 31.36C78.8398 31.36 79.4198 31.116 79.8998 30.628L80.7278 31.456C80.4078 31.808 80.0198 32.08 79.5638 32.272C79.1078 32.464 78.5998 32.56 78.0398 32.56C77.3678 32.56 76.7838 32.424 76.2878 32.152C75.7998 31.872 75.4158 31.492 75.1357 31.012C74.8638 30.524 74.7278 29.956 74.7278 29.308C74.7278 28.66 74.8638 28.092 75.1357 27.604C75.4158 27.116 75.7998 26.736 76.2878 26.464C76.7838 26.192 77.3518 26.052 77.9918 26.044C78.7518 26.044 79.3638 26.2 79.8278 26.512C80.2998 26.824 80.6358 27.264 80.8358 27.832C81.0358 28.392 81.1078 29.06 81.0518 29.836H76.0118V28.816H79.6478ZM91.7957 26.44C91.4997 26.104 91.1477 25.84 90.7397 25.648C90.3317 25.448 89.9237 25.348 89.5157 25.348C89.1237 25.348 88.7557 25.424 88.4117 25.576C88.0757 25.72 87.7757 25.928 87.5117 26.2C87.2557 26.464 87.0557 26.772 86.9117 27.124C86.7677 27.476 86.6957 27.856 86.6957 28.264C86.6957 28.672 86.7677 29.056 86.9117 29.416C87.0557 29.768 87.2557 30.076 87.5117 30.34C87.7757 30.604 88.0757 30.812 88.4117 30.964C88.7557 31.116 89.1237 31.192 89.5157 31.192C89.9237 31.192 90.3277 31.104 90.7277 30.928C91.1277 30.744 91.4837 30.496 91.7957 30.184L92.7437 31.18C92.4637 31.468 92.1397 31.72 91.7717 31.936C91.4117 32.152 91.0317 32.32 90.6317 32.44C90.2397 32.552 89.8397 32.608 89.4317 32.608C88.8157 32.608 88.2397 32.5 87.7037 32.284C87.1757 32.06 86.7117 31.752 86.3117 31.36C85.9197 30.968 85.6117 30.508 85.3877 29.98C85.1637 29.452 85.0517 28.888 85.0517 28.288C85.0517 27.68 85.1637 27.12 85.3877 26.608C85.6117 26.088 85.9277 25.632 86.3357 25.24C86.7437 24.848 87.2117 24.544 87.7397 24.328C88.2757 24.112 88.8597 24.004 89.4917 24.004C89.8997 24.004 90.2957 24.06 90.6797 24.172C91.0717 24.276 91.4437 24.428 91.7957 24.628C92.1477 24.82 92.4597 25.056 92.7317 25.336L91.7957 26.44ZM98.7472 28.924C98.7472 28.46 98.6192 28.096 98.3632 27.832C98.1152 27.568 97.7672 27.436 97.3192 27.436C96.7912 27.436 96.3752 27.62 96.0712 27.988C95.7752 28.348 95.6272 28.804 95.6272 29.356H95.2192C95.2192 28.572 95.3272 27.94 95.5432 27.46C95.7672 26.972 96.0832 26.616 96.4912 26.392C96.8992 26.16 97.3832 26.044 97.9432 26.044C98.4312 26.044 98.8512 26.144 99.2032 26.344C99.5632 26.544 99.8392 26.828 100.031 27.196C100.223 27.556 100.319 27.992 100.319 28.504V32.5H98.7472V28.924ZM94.0672 23.596H95.6272V32.5H94.0672V23.596ZM103.438 29.668C103.438 30.132 103.558 30.5 103.798 30.772C104.046 31.036 104.386 31.168 104.818 31.168C105.322 31.152 105.714 30.964 105.994 30.604C106.282 30.244 106.426 29.792 106.426 29.248H106.834C106.834 30.024 106.726 30.656 106.51 31.144C106.294 31.624 105.99 31.98 105.598 32.212C105.206 32.436 104.738 32.552 104.194 32.56C103.714 32.56 103.298 32.46 102.946 32.26C102.602 32.06 102.334 31.776 102.142 31.408C101.958 31.032 101.866 30.592 101.866 30.088V26.104H103.438V29.668ZM106.426 26.104H107.998V32.5H106.426V26.104ZM113.689 27.46C113.241 27.428 112.853 27.496 112.525 27.664C112.197 27.824 111.945 28.056 111.769 28.36C111.593 28.664 111.505 29.012 111.505 29.404L111.085 29.356C111.085 28.644 111.189 28.044 111.397 27.556C111.605 27.06 111.905 26.684 112.297 26.428C112.689 26.172 113.153 26.044 113.689 26.044V27.46ZM109.945 26.104H111.505V32.5H109.945V26.104ZM119.453 28.924C119.453 28.46 119.325 28.096 119.069 27.832C118.821 27.568 118.473 27.436 118.025 27.436C117.505 27.436 117.093 27.62 116.789 27.988C116.493 28.348 116.345 28.804 116.345 29.356H115.925C115.925 28.572 116.033 27.94 116.249 27.46C116.473 26.972 116.789 26.616 117.197 26.392C117.613 26.16 118.097 26.044 118.649 26.044C119.145 26.044 119.569 26.144 119.921 26.344C120.273 26.544 120.545 26.828 120.737 27.196C120.929 27.556 121.025 27.992 121.025 28.504V32.5H119.453V28.924ZM114.785 26.104H116.345V32.5H114.785V26.104Z" fill="black"/>
</g>
<defs>
<filter id="filter0_d_1269_1175" x="0" y="0" width="220" height="88" filterUnits="userSpaceOnUse" color-interpolation-filters="sRGB">
<feFlood flood-opacity="0" result="BackgroundImageFix"/>
<feColorMatrix in="SourceAlpha" type="matrix" values="0 0 0 0 0 0 0 0 0 0 0 0 0 0 0 0 0 0 127 0" result="hardAlpha"/>
<feOffset dy="4"/>
<feGaussianBlur stdDeviation="2"/>
<feComposite in2="hardAlpha" operator="out"/>
<feColorMatrix type="matrix" values="0 0 0 0 0.682353 0 0 0 0 0.847059 0 0 0 0 0.784314 0 0 0 0.4 0"/>
<feBlend mode="normal" in2="BackgroundImageFix" result="effect1_dropShadow_1269_1175"/>
<feBlend mode="normal" in="SourceGraphic" in2="effect1_dropShadow_1269_1175" result="shape"/>
</filter>
</defs>
</svg>
