<svg width="62" height="62" viewBox="0 0 62 62" fill="none" xmlns="http://www.w3.org/2000/svg">
<g clip-path="url(#clip0_561_611)">
<path d="M30.93 0C13.85 0 0 13.85 0 30.93C0 48.01 13.85 61.85 30.93 61.85C48.01 61.85 61.85 48.01 61.85 30.93C61.85 13.85 48.01 0 30.93 0ZM24.58 47.12C24.58 47.99 23.86 48.71 22.99 48.71H14.75C13.87 48.71 13.16 47.99 13.16 47.12V38.88C13.16 38 13.87 37.29 14.75 37.29H22.52L17.03 42.77C16.46 43.34 16.46 44.27 17.03 44.84C17.6 45.4 18.53 45.4 19.09 44.84L24.58 39.35V47.12ZM48.92 43.37C48.92 44.68 47.84 45.75 46.53 45.75H25.31V38.62L42.34 21.59V23.56C42.34 24.37 43 25.02 43.8 25.02C44.6 25.02 45.26 24.37 45.26 23.56V18.07C45.26 17.26 44.61 16.61 43.8 16.61H38.31C37.5 16.61 36.85 17.26 36.85 18.07C36.85 18.88 37.5 19.53 38.31 19.53H40.28L23.25 36.56H16.11V15.33C16.11 14.02 17.19 12.95 18.5 12.95H46.53C47.84 12.95 48.92 14.02 48.92 15.33V43.37Z" fill="#0000FF"/>
</g>
<defs>
<clipPath id="clip0_561_611">
<rect width="61.85" height="61.85" fill="white"/>
</clipPath>
</defs>
</svg>
