<svg width="62" height="62" viewBox="0 0 62 62" fill="none" xmlns="http://www.w3.org/2000/svg">
<g clip-path="url(#clip0_561_600)">
<path d="M37.0895 25.69C37.7395 26.33 37.7495 27.39 37.1095 28.05L30.4395 34.71C29.7895 35.36 28.7295 35.36 28.0795 34.71L24.7495 31.38C24.1095 30.73 24.1095 29.69 24.7495 29.04C25.3995 28.38 26.4495 28.38 27.1095 29.02L29.2595 31.18L34.7495 25.69C35.3995 25.05 36.4395 25.05 37.0895 25.69Z" fill="#0000FF"/>
<path d="M30.93 0C13.85 0 0 13.85 0 30.93C0 48.01 13.85 61.85 30.93 61.85C48.01 61.85 61.85 48.01 61.85 30.93C61.85 13.85 48.01 0 30.93 0ZM44.26 34.06C44.26 36.9 42.82 39.54 40.43 41.07L31.83 46.6C31.28 46.95 30.58 46.95 30.03 46.6L21.42 41.07C19.04 39.54 17.6 36.9 17.6 34.06V19.37C17.6 18.66 18.04 18.03 18.7 17.8L30.37 13.63C30.73 13.5 31.13 13.5 31.49 13.63L43.16 17.8C43.82 18.03 44.26 18.66 44.26 19.37V34.06Z" fill="#0000FF"/>
</g>
<defs>
<clipPath id="clip0_561_600">
<rect width="61.85" height="61.85" fill="white"/>
</clipPath>
</defs>
</svg>
