<svg width="18" height="18" viewBox="0 0 18 18" fill="none" xmlns="http://www.w3.org/2000/svg">
<path d="M6.88565 9.28383L11.648 5.19078C11.796 5.06359 11.9843 5 12.213 5C12.4417 5 12.63 5.06359 12.778 5.19078C12.926 5.31796 13 5.47983 13 5.67639C13 5.87295 12.926 6.03482 12.778 6.16201L7.45067 10.7407C7.28924 10.8794 7.1009 10.9488 6.88565 10.9488C6.6704 10.9488 6.48206 10.8794 6.32063 10.7407L4.22197 8.93696C4.07399 8.80977 4 8.6479 4 8.45134C4 8.25478 4.07399 8.09291 4.22197 7.96572C4.36995 7.83854 4.5583 7.77495 4.787 7.77495C5.01569 7.77495 5.20404 7.83854 5.35202 7.96572L6.88565 9.28383Z" fill="#0000FF"/>
<circle cx="9" cy="9" r="8.5" stroke="#0000FF"/>
</svg>
