<svg width="234" height="78" viewBox="0 0 234 78" fill="none" xmlns="http://www.w3.org/2000/svg">
<g filter="url(#filter0_d_1353_879)">
<path d="M4 25.7522C4 11.9451 15.1929 0.752197 29 0.752197H230V44.248C230 58.0552 218.807 69.248 205 69.248H29C15.1929 69.248 4 58.0552 4 44.248V25.7522Z" fill="#FFC95C"/>
<path d="M32.4154 36.4436C33.7417 36.4436 35.0681 36.4362 36.3944 36.4436C37.8412 36.4535 38.907 37.5029 38.8988 38.8894C38.8984 39.5196 38.6505 40.1245 38.2085 40.5737C37.7664 41.0228 37.1655 41.2803 36.5354 41.2907C35.1579 41.3056 33.7805 41.2948 32.403 41.2957C32.3099 41.2957 32.2167 41.2907 32.1252 41.2957C31.8359 41.3212 31.6364 41.529 31.6405 41.7952C31.6446 42.0615 31.8457 42.261 32.1351 42.2775C32.2579 42.284 32.3824 42.2775 32.5052 42.2775C33.8003 42.2775 35.0961 42.2775 36.3912 42.2775C38.7999 42.2709 40.4205 40.0443 39.6811 37.7494C39.6553 37.6902 39.65 37.6242 39.6661 37.5617C39.6823 37.4993 39.7189 37.444 39.7701 37.4048C40.9992 36.1774 42.2159 34.9367 43.4549 33.7183C44.412 32.7761 45.9403 32.8116 46.8973 33.7711C47.8866 34.7603 47.9129 36.2441 46.9245 37.2523C45.6509 38.5523 44.3567 39.8316 43.0716 41.1201C41.873 42.3203 40.639 43.4876 39.4882 44.7323C38.6358 45.6597 37.6219 46.0908 36.3912 46.2368C33.9033 46.531 31.4237 46.9003 28.9408 47.2408C28.1371 47.3504 27.3341 47.4691 26.5296 47.5705C26.3978 47.5849 26.276 47.6474 26.1875 47.7461C25.899 48.0396 25.6105 48.3306 25.3129 48.6166C25.0309 48.8886 24.782 48.8952 24.5067 48.6216C23.0723 47.1927 21.641 45.76 20.2127 44.3235C19.9308 44.0399 19.9291 43.8 20.2077 43.5206C22.2911 41.4322 24.3764 39.3439 26.4636 37.2556C27.0217 36.7 27.71 36.4436 28.4989 36.4461C29.8047 36.4461 31.1104 36.4461 32.4154 36.4461V36.4436Z" fill="#FFF9ED"/>
<path d="M41.3344 25.78C41.3047 28.2802 39.2035 30.3139 36.6851 30.2743C34.2228 30.2372 32.2279 28.2027 32.2502 25.7495C32.2724 23.1347 34.2978 21.1423 36.8995 21.1769C39.3552 21.2099 41.3632 23.293 41.3344 25.78Z" fill="#FFF9ED"/>
<path d="M32.7518 35.4569C31.4469 35.4569 30.1411 35.4503 28.8362 35.4619C28.5782 35.4619 28.546 35.3951 28.6277 35.1643C29.424 32.8929 30.8973 31.2187 33.0478 30.1416C33.2439 30.0435 33.3709 30.0723 33.5424 30.1985C34.4798 30.8792 35.6078 31.2473 36.7663 31.2505C37.9248 31.2538 39.0549 30.892 39.9961 30.2166C40.1981 30.0699 40.3473 30.0517 40.5731 30.1663C41.6056 30.6816 42.5277 31.3934 43.2877 32.2618C43.427 32.42 43.4896 32.5157 43.2498 32.6401C43.0099 32.7646 42.8252 32.9625 42.6365 33.1521C41.5261 34.2649 40.4107 35.3778 39.3061 36.4939C39.1495 36.653 39.0778 36.667 38.9104 36.4939C38.2205 35.7718 37.3549 35.4536 36.3608 35.4577C35.1572 35.4602 33.9545 35.4569 32.7518 35.4569Z" fill="#FFF9ED"/>
<path d="M62.6843 14.3522H64.2923V22.7522H62.6843V14.3522ZM70.8763 19.1762C70.8763 18.7042 70.7523 18.3362 70.5043 18.0722C70.2643 17.8082 69.9243 17.6762 69.4843 17.6762C68.9803 17.6842 68.5803 17.8722 68.2843 18.2402C67.9963 18.6002 67.8523 19.0522 67.8523 19.5962H67.4323C67.4323 18.8202 67.5403 18.1922 67.7563 17.7122C67.9723 17.2242 68.2803 16.8682 68.6803 16.6442C69.0883 16.4122 69.5643 16.2962 70.1083 16.2962C70.5963 16.2962 71.0123 16.3962 71.3563 16.5962C71.7083 16.7962 71.9763 17.0802 72.1603 17.4482C72.3523 17.8082 72.4483 18.2442 72.4483 18.7562V22.7522H70.8763V19.1762ZM75.4723 19.1762C75.4723 18.7042 75.3483 18.3362 75.1003 18.0722C74.8523 17.8082 74.5083 17.6762 74.0683 17.6762C73.5643 17.6842 73.1683 17.8722 72.8803 18.2402C72.5923 18.6002 72.4483 19.0522 72.4483 19.5962H72.0283C72.0283 18.8202 72.1363 18.1922 72.3523 17.7122C72.5683 17.2242 72.8763 16.8682 73.2763 16.6442C73.6763 16.4122 74.1523 16.2962 74.7043 16.2962C75.1843 16.2962 75.5963 16.3962 75.9403 16.5962C76.2923 16.7962 76.5643 17.0802 76.7563 17.4482C76.9483 17.8082 77.0443 18.2442 77.0443 18.7562V22.7522H75.4723V19.1762ZM66.2923 16.3562H67.8523V22.7522H66.2923V16.3562ZM82.5645 16.2962C83.1725 16.2962 83.7045 16.4322 84.1605 16.7042C84.6165 16.9762 84.9685 17.3602 85.2165 17.8562C85.4725 18.3442 85.6005 18.9162 85.6005 19.5722C85.6005 20.2122 85.4765 20.7762 85.2285 21.2642C84.9805 21.7442 84.6285 22.1242 84.1725 22.4042C83.7245 22.6762 83.1965 22.8122 82.5885 22.8122C82.0205 22.8122 81.5325 22.6842 81.1245 22.4282C80.7165 22.1642 80.4045 21.7882 80.1885 21.3002C79.9725 20.8122 79.8645 20.2362 79.8645 19.5722C79.8645 18.8842 79.9685 18.2962 80.1765 17.8082C80.3925 17.3202 80.7045 16.9482 81.1125 16.6922C81.5205 16.4282 82.0045 16.2962 82.5645 16.2962ZM82.2165 17.5322C81.8645 17.5322 81.5485 17.6202 81.2685 17.7962C80.9965 17.9642 80.7845 18.2002 80.6325 18.5042C80.4805 18.8002 80.4045 19.1442 80.4045 19.5362C80.4045 19.9282 80.4805 20.2762 80.6325 20.5802C80.7845 20.8842 80.9965 21.1202 81.2685 21.2882C81.5485 21.4562 81.8645 21.5402 82.2165 21.5402C82.5765 21.5402 82.8885 21.4562 83.1525 21.2882C83.4245 21.1122 83.6365 20.8762 83.7885 20.5802C83.9405 20.2762 84.0165 19.9282 84.0165 19.5362C84.0165 19.1442 83.9405 18.8002 83.7885 18.5042C83.6365 18.2002 83.4245 17.9642 83.1525 17.7962C82.8885 17.6202 82.5765 17.5322 82.2165 17.5322ZM78.8445 16.3562H80.4045V25.0802H78.8445V16.3562ZM90.6965 17.7122C90.2485 17.6802 89.8605 17.7482 89.5325 17.9162C89.2045 18.0762 88.9525 18.3082 88.7765 18.6122C88.6005 18.9162 88.5125 19.2642 88.5125 19.6562L88.0925 19.6082C88.0925 18.8962 88.1965 18.2962 88.4045 17.8082C88.6125 17.3122 88.9125 16.9362 89.3045 16.6802C89.6965 16.4242 90.1605 16.2962 90.6965 16.2962V17.7122ZM86.9525 16.3562H88.5125V22.7522H86.9525V16.3562ZM96.1243 19.0682C96.1083 18.7322 96.0323 18.4482 95.8963 18.2162C95.7603 17.9762 95.5683 17.7922 95.3203 17.6642C95.0803 17.5282 94.8043 17.4602 94.4923 17.4602C94.1323 17.4602 93.8203 17.5442 93.5563 17.7122C93.2923 17.8802 93.0843 18.1162 92.9323 18.4202C92.7883 18.7242 92.7163 19.0762 92.7163 19.4762C92.7163 19.9162 92.7963 20.2962 92.9563 20.6162C93.1243 20.9362 93.3523 21.1842 93.6403 21.3602C93.9283 21.5282 94.2603 21.6122 94.6363 21.6122C95.3163 21.6122 95.8963 21.3682 96.3763 20.8802L97.2043 21.7082C96.8843 22.0602 96.4963 22.3322 96.0403 22.5242C95.5843 22.7162 95.0763 22.8122 94.5163 22.8122C93.8443 22.8122 93.2603 22.6762 92.7643 22.4042C92.2763 22.1242 91.8923 21.7442 91.6123 21.2642C91.3403 20.7762 91.2043 20.2082 91.2043 19.5602C91.2043 18.9122 91.3403 18.3442 91.6123 17.8562C91.8923 17.3682 92.2763 16.9882 92.7643 16.7162C93.2603 16.4442 93.8283 16.3042 94.4683 16.2962C95.2283 16.2962 95.8403 16.4522 96.3043 16.7642C96.7763 17.0762 97.1123 17.5162 97.3123 18.0842C97.5123 18.6442 97.5843 19.3122 97.5283 20.0882H92.4883V19.0682H96.1243ZM102.698 18.0242C102.386 17.8402 102.062 17.7002 101.726 17.6042C101.39 17.5002 101.086 17.4482 100.814 17.4482C100.558 17.4482 100.35 17.4962 100.19 17.5922C100.03 17.6802 99.9499 17.8322 99.9499 18.0482C99.9499 18.2322 100.03 18.3802 100.19 18.4922C100.358 18.6042 100.57 18.7002 100.826 18.7802C101.082 18.8522 101.354 18.9322 101.642 19.0202C101.93 19.1082 102.202 19.2242 102.458 19.3682C102.722 19.5122 102.934 19.7042 103.094 19.9442C103.262 20.1842 103.346 20.5002 103.346 20.8922C103.346 21.3242 103.23 21.6842 102.998 21.9722C102.766 22.2522 102.458 22.4642 102.074 22.6082C101.69 22.7442 101.27 22.8122 100.814 22.8122C100.334 22.8122 99.8539 22.7362 99.3739 22.5842C98.9019 22.4322 98.4979 22.2082 98.1619 21.9122L98.7019 20.8682C98.9979 21.1242 99.3459 21.3242 99.7459 21.4682C100.154 21.6042 100.53 21.6722 100.874 21.6722C101.058 21.6722 101.222 21.6482 101.366 21.6002C101.51 21.5522 101.622 21.4842 101.702 21.3962C101.782 21.3002 101.822 21.1762 101.822 21.0242C101.822 20.8162 101.742 20.6562 101.582 20.5442C101.422 20.4242 101.214 20.3242 100.958 20.2442C100.71 20.1562 100.442 20.0722 100.154 19.9922C99.8659 19.9042 99.5939 19.7922 99.3379 19.6562C99.0899 19.5122 98.8859 19.3242 98.7259 19.0922C98.5659 18.8602 98.4859 18.5522 98.4859 18.1682C98.4859 17.7362 98.5979 17.3802 98.8219 17.1002C99.0459 16.8202 99.3419 16.6162 99.7099 16.4882C100.078 16.3522 100.478 16.2842 100.91 16.2842C101.326 16.2842 101.742 16.3442 102.158 16.4642C102.574 16.5762 102.942 16.7362 103.262 16.9442L102.698 18.0242ZM108.487 18.0242C108.175 17.8402 107.851 17.7002 107.515 17.6042C107.179 17.5002 106.875 17.4482 106.603 17.4482C106.347 17.4482 106.139 17.4962 105.979 17.5922C105.819 17.6802 105.739 17.8322 105.739 18.0482C105.739 18.2322 105.819 18.3802 105.979 18.4922C106.147 18.6042 106.359 18.7002 106.615 18.7802C106.871 18.8522 107.143 18.9322 107.431 19.0202C107.719 19.1082 107.991 19.2242 108.247 19.3682C108.511 19.5122 108.723 19.7042 108.883 19.9442C109.051 20.1842 109.135 20.5002 109.135 20.8922C109.135 21.3242 109.019 21.6842 108.787 21.9722C108.555 22.2522 108.247 22.4642 107.863 22.6082C107.479 22.7442 107.059 22.8122 106.603 22.8122C106.123 22.8122 105.643 22.7362 105.163 22.5842C104.691 22.4322 104.287 22.2082 103.951 21.9122L104.491 20.8682C104.787 21.1242 105.135 21.3242 105.535 21.4682C105.943 21.6042 106.319 21.6722 106.663 21.6722C106.847 21.6722 107.011 21.6482 107.155 21.6002C107.299 21.5522 107.411 21.4842 107.491 21.3962C107.571 21.3002 107.611 21.1762 107.611 21.0242C107.611 20.8162 107.531 20.6562 107.371 20.5442C107.211 20.4242 107.003 20.3242 106.747 20.2442C106.499 20.1562 106.231 20.0722 105.943 19.9922C105.655 19.9042 105.383 19.7922 105.127 19.6562C104.879 19.5122 104.675 19.3242 104.515 19.0922C104.355 18.8602 104.275 18.5522 104.275 18.1682C104.275 17.7362 104.387 17.3802 104.611 17.1002C104.835 16.8202 105.131 16.6162 105.499 16.4882C105.867 16.3522 106.267 16.2842 106.699 16.2842C107.115 16.2842 107.531 16.3442 107.947 16.4642C108.363 16.5762 108.731 16.7362 109.051 16.9442L108.487 18.0242ZM116.514 16.2962C117.178 16.2962 117.762 16.4322 118.266 16.7042C118.778 16.9762 119.174 17.3562 119.454 17.8442C119.742 18.3322 119.886 18.9002 119.886 19.5482C119.886 20.1962 119.742 20.7642 119.454 21.2522C119.174 21.7402 118.778 22.1242 118.266 22.4042C117.762 22.6762 117.178 22.8122 116.514 22.8122C115.842 22.8122 115.25 22.6762 114.738 22.4042C114.226 22.1242 113.826 21.7402 113.538 21.2522C113.258 20.7642 113.118 20.1962 113.118 19.5482C113.118 18.9002 113.258 18.3322 113.538 17.8442C113.826 17.3562 114.226 16.9762 114.738 16.7042C115.25 16.4322 115.842 16.2962 116.514 16.2962ZM116.514 17.5562C116.154 17.5562 115.834 17.6442 115.554 17.8202C115.282 17.9882 115.07 18.2242 114.918 18.5282C114.766 18.8242 114.69 19.1682 114.69 19.5602C114.69 19.9602 114.766 20.3122 114.918 20.6162C115.07 20.9202 115.282 21.1562 115.554 21.3242C115.834 21.4922 116.154 21.5762 116.514 21.5762C116.866 21.5762 117.178 21.4922 117.45 21.3242C117.722 21.1562 117.934 20.9202 118.086 20.6162C118.238 20.3122 118.314 19.9602 118.314 19.5602C118.314 19.1682 118.238 18.8242 118.086 18.5282C117.934 18.2242 117.722 17.9882 117.45 17.8202C117.178 17.6442 116.866 17.5562 116.514 17.5562ZM125.91 19.1762C125.91 18.7122 125.782 18.3482 125.526 18.0842C125.278 17.8202 124.93 17.6882 124.482 17.6882C123.962 17.6882 123.55 17.8722 123.246 18.2402C122.95 18.6002 122.802 19.0562 122.802 19.6082H122.382C122.382 18.8242 122.49 18.1922 122.706 17.7122C122.93 17.2242 123.246 16.8682 123.654 16.6442C124.07 16.4122 124.554 16.2962 125.106 16.2962C125.602 16.2962 126.026 16.3962 126.378 16.5962C126.73 16.7962 127.002 17.0802 127.194 17.4482C127.386 17.8082 127.482 18.2442 127.482 18.7562V22.7522H125.91V19.1762ZM121.242 16.3562H122.802V22.7522H121.242V16.3562ZM133.014 16.2962C133.622 16.2962 134.154 16.4322 134.61 16.7042C135.066 16.9762 135.418 17.3602 135.666 17.8562C135.922 18.3442 136.05 18.9162 136.05 19.5722C136.05 20.2122 135.926 20.7762 135.678 21.2642C135.43 21.7442 135.078 22.1242 134.622 22.4042C134.174 22.6762 133.646 22.8122 133.038 22.8122C132.47 22.8122 131.982 22.6842 131.574 22.4282C131.166 22.1642 130.854 21.7882 130.638 21.3002C130.422 20.8122 130.314 20.2362 130.314 19.5722C130.314 18.8842 130.418 18.2962 130.626 17.8082C130.842 17.3202 131.154 16.9482 131.562 16.6922C131.97 16.4282 132.454 16.2962 133.014 16.2962ZM132.666 17.5322C132.314 17.5322 131.998 17.6202 131.718 17.7962C131.446 17.9642 131.234 18.2002 131.082 18.5042C130.93 18.8002 130.854 19.1442 130.854 19.5362C130.854 19.9282 130.93 20.2762 131.082 20.5802C131.234 20.8842 131.446 21.1202 131.718 21.2882C131.998 21.4562 132.314 21.5402 132.666 21.5402C133.026 21.5402 133.338 21.4562 133.602 21.2882C133.874 21.1122 134.086 20.8762 134.238 20.5802C134.39 20.2762 134.466 19.9282 134.466 19.5362C134.466 19.1442 134.39 18.8002 134.238 18.5042C134.086 18.2002 133.874 17.9642 133.602 17.7962C133.338 17.6202 133.026 17.5322 132.666 17.5322ZM129.294 13.8482H130.854V22.7522H129.294V13.8482ZM140.21 16.2962C140.874 16.2962 141.458 16.4322 141.962 16.7042C142.474 16.9762 142.87 17.3562 143.15 17.8442C143.438 18.3322 143.582 18.9002 143.582 19.5482C143.582 20.1962 143.438 20.7642 143.15 21.2522C142.87 21.7402 142.474 22.1242 141.962 22.4042C141.458 22.6762 140.874 22.8122 140.21 22.8122C139.538 22.8122 138.946 22.6762 138.434 22.4042C137.922 22.1242 137.522 21.7402 137.234 21.2522C136.954 20.7642 136.814 20.1962 136.814 19.5482C136.814 18.9002 136.954 18.3322 137.234 17.8442C137.522 17.3562 137.922 16.9762 138.434 16.7042C138.946 16.4322 139.538 16.2962 140.21 16.2962ZM140.21 17.5562C139.85 17.5562 139.53 17.6442 139.25 17.8202C138.978 17.9882 138.766 18.2242 138.614 18.5282C138.462 18.8242 138.386 19.1682 138.386 19.5602C138.386 19.9602 138.462 20.3122 138.614 20.6162C138.766 20.9202 138.978 21.1562 139.25 21.3242C139.53 21.4922 139.85 21.5762 140.21 21.5762C140.562 21.5762 140.874 21.4922 141.146 21.3242C141.418 21.1562 141.63 20.9202 141.782 20.6162C141.934 20.3122 142.01 19.9602 142.01 19.5602C142.01 19.1682 141.934 18.8242 141.782 18.5282C141.63 18.2242 141.418 17.9882 141.146 17.8202C140.874 17.6442 140.562 17.5562 140.21 17.5562ZM147.097 19.9322C146.689 19.9322 146.385 19.9962 146.185 20.1242C145.985 20.2522 145.885 20.4642 145.885 20.7602C145.885 21.0322 145.985 21.2522 146.185 21.4202C146.393 21.5882 146.673 21.6722 147.025 21.6722C147.337 21.6722 147.617 21.6202 147.865 21.5162C148.121 21.4042 148.321 21.2562 148.465 21.0722C148.617 20.8802 148.705 20.6682 148.729 20.4362L148.993 21.5522C148.801 21.9682 148.505 22.2842 148.105 22.5002C147.705 22.7162 147.221 22.8242 146.653 22.8242C146.197 22.8242 145.801 22.7362 145.465 22.5602C145.129 22.3842 144.869 22.1482 144.685 21.8522C144.501 21.5482 144.409 21.2082 144.409 20.8322C144.409 20.2402 144.621 19.7762 145.045 19.4402C145.469 19.0962 146.069 18.9202 146.845 18.9122H148.897V19.9322H147.097ZM148.717 18.7202C148.717 18.3362 148.593 18.0362 148.345 17.8202C148.105 17.5962 147.745 17.4842 147.265 17.4842C146.969 17.4842 146.657 17.5402 146.329 17.6522C146.009 17.7562 145.685 17.9082 145.357 18.1082L144.793 17.1002C145.097 16.9162 145.389 16.7682 145.669 16.6562C145.949 16.5362 146.241 16.4482 146.545 16.3922C146.857 16.3282 147.213 16.2962 147.613 16.2962C148.453 16.2962 149.101 16.4962 149.557 16.8962C150.013 17.2962 150.245 17.8482 150.253 18.5522L150.265 22.7522H148.729L148.717 18.7202ZM155.759 17.7122C155.311 17.6802 154.923 17.7482 154.595 17.9162C154.267 18.0762 154.015 18.3082 153.839 18.6122C153.663 18.9162 153.575 19.2642 153.575 19.6562L153.155 19.6082C153.155 18.8962 153.259 18.2962 153.467 17.8082C153.675 17.3122 153.975 16.9362 154.367 16.6802C154.759 16.4242 155.223 16.2962 155.759 16.2962V17.7122ZM152.015 16.3562H153.575V22.7522H152.015V16.3562ZM159.291 16.2842C159.875 16.2842 160.371 16.4162 160.779 16.6802C161.187 16.9442 161.499 17.3202 161.715 17.8082C161.931 18.2882 162.035 18.8682 162.027 19.5482C162.035 20.2202 161.931 20.8042 161.715 21.3002C161.507 21.7882 161.199 22.1642 160.791 22.4282C160.383 22.6842 159.895 22.8122 159.327 22.8122C158.719 22.8122 158.183 22.6762 157.719 22.4042C157.263 22.1242 156.907 21.7362 156.651 21.2402C156.395 20.7442 156.267 20.1762 156.267 19.5362C156.267 18.8882 156.395 18.3202 156.651 17.8322C156.907 17.3442 157.259 16.9642 157.707 16.6922C158.163 16.4202 158.691 16.2842 159.291 16.2842ZM159.663 17.5442C159.311 17.5442 158.995 17.6322 158.715 17.8082C158.443 17.9842 158.231 18.2242 158.079 18.5282C157.927 18.8322 157.847 19.1802 157.839 19.5722C157.847 19.9642 157.927 20.3122 158.079 20.6162C158.231 20.9202 158.443 21.1602 158.715 21.3362C158.995 21.5042 159.311 21.5882 159.663 21.5882C160.023 21.5882 160.339 21.5042 160.611 21.3362C160.891 21.1602 161.107 20.9202 161.259 20.6162C161.411 20.3122 161.487 19.9642 161.487 19.5722C161.487 19.1722 161.411 18.8242 161.259 18.5282C161.107 18.2242 160.891 17.9842 160.611 17.8082C160.339 17.6322 160.023 17.5442 159.663 17.5442ZM161.487 13.8482H163.047V22.7522H161.487V13.8482ZM165.046 16.3562H166.606V22.7522H165.046V16.3562ZM165.814 13.6322C166.07 13.6322 166.282 13.7162 166.45 13.8842C166.618 14.0522 166.702 14.2642 166.702 14.5202C166.702 14.7682 166.618 14.9802 166.45 15.1562C166.282 15.3242 166.07 15.4082 165.814 15.4082C165.566 15.4082 165.358 15.3242 165.19 15.1562C165.022 14.9802 164.938 14.7682 164.938 14.5202C164.938 14.2642 165.022 14.0522 165.19 13.8842C165.358 13.7162 165.566 13.6322 165.814 13.6322ZM173.206 19.1762C173.206 18.7122 173.078 18.3482 172.822 18.0842C172.574 17.8202 172.226 17.6882 171.778 17.6882C171.258 17.6882 170.846 17.8722 170.542 18.2402C170.246 18.6002 170.098 19.0562 170.098 19.6082H169.678C169.678 18.8242 169.786 18.1922 170.002 17.7122C170.226 17.2242 170.542 16.8682 170.95 16.6442C171.366 16.4122 171.85 16.2962 172.402 16.2962C172.898 16.2962 173.322 16.3962 173.674 16.5962C174.026 16.7962 174.298 17.0802 174.49 17.4482C174.682 17.8082 174.778 18.2442 174.778 18.7562V22.7522H173.206V19.1762ZM168.538 16.3562H170.098V22.7522H168.538V16.3562ZM182.399 22.1282C182.399 22.7442 182.259 23.2762 181.979 23.7242C181.707 24.1722 181.319 24.5162 180.815 24.7562C180.311 25.0042 179.719 25.1282 179.039 25.1282C178.519 25.1282 178.031 25.0522 177.575 24.9002C177.127 24.7482 176.711 24.5442 176.327 24.2882L176.951 23.2202C177.247 23.4362 177.559 23.6042 177.887 23.7242C178.215 23.8442 178.571 23.9042 178.955 23.9042C179.339 23.9042 179.671 23.8322 179.951 23.6882C180.239 23.5442 180.459 23.3442 180.611 23.0882C180.763 22.8322 180.839 22.5282 180.839 22.1762V16.3562H182.399V22.1282ZM178.751 16.2962C179.303 16.2882 179.775 16.4082 180.167 16.6562C180.559 16.9042 180.859 17.2562 181.067 17.7122C181.275 18.1682 181.375 18.7162 181.367 19.3562C181.375 19.9962 181.275 20.5482 181.067 21.0122C180.867 21.4682 180.575 21.8202 180.191 22.0682C179.807 22.3162 179.343 22.4402 178.799 22.4402C178.231 22.4402 177.731 22.3122 177.299 22.0562C176.875 21.7922 176.543 21.4282 176.303 20.9642C176.063 20.4922 175.943 19.9522 175.943 19.3442C175.943 18.7362 176.059 18.2082 176.291 17.7602C176.531 17.3042 176.863 16.9482 177.287 16.6922C177.711 16.4282 178.199 16.2962 178.751 16.2962ZM179.135 17.4842C178.807 17.4842 178.511 17.5642 178.247 17.7242C177.991 17.8842 177.791 18.1082 177.647 18.3962C177.503 18.6842 177.427 19.0122 177.419 19.3802C177.427 19.7482 177.503 20.0762 177.647 20.3642C177.791 20.6522 177.991 20.8762 178.247 21.0362C178.503 21.1962 178.799 21.2762 179.135 21.2762C179.471 21.2762 179.767 21.1962 180.023 21.0362C180.279 20.8762 180.479 20.6522 180.623 20.3642C180.767 20.0762 180.839 19.7482 180.839 19.3802C180.839 19.0042 180.767 18.6762 180.623 18.3962C180.479 18.1082 180.279 17.8842 180.023 17.7242C179.767 17.5642 179.471 17.4842 179.135 17.4842Z" fill="black"/>
<path d="M63.3403 31.648H67.4443V32.544H64.4123V33.992H67.1323V34.88H64.4123V36.352H67.5403V37.248H63.3403V31.648ZM71.7014 34.864C71.7014 34.5547 71.6161 34.312 71.4454 34.136C71.2801 33.96 71.0481 33.872 70.7494 33.872C70.4027 33.872 70.1281 33.9947 69.9254 34.24C69.7281 34.48 69.6294 34.784 69.6294 35.152H69.3494C69.3494 34.6294 69.4214 34.208 69.5654 33.888C69.7147 33.5627 69.9254 33.3254 70.1974 33.176C70.4747 33.0214 70.7974 32.944 71.1654 32.944C71.4961 32.944 71.7787 33.0107 72.0134 33.144C72.2481 33.2774 72.4294 33.4667 72.5574 33.712C72.6854 33.952 72.7494 34.2427 72.7494 34.584V37.248H71.7014V34.864ZM68.5894 32.984H69.6294V37.248H68.5894V32.984ZM76.4535 34.096C76.2455 33.9734 76.0295 33.88 75.8055 33.816C75.5815 33.7467 75.3789 33.712 75.1975 33.712C75.0269 33.712 74.8882 33.744 74.7815 33.808C74.6749 33.8667 74.6215 33.968 74.6215 34.112C74.6215 34.2347 74.6749 34.3334 74.7815 34.408C74.8935 34.4827 75.0349 34.5467 75.2055 34.6C75.3762 34.648 75.5575 34.7014 75.7495 34.76C75.9415 34.8187 76.1229 34.896 76.2935 34.992C76.4695 35.088 76.6109 35.216 76.7175 35.376C76.8295 35.536 76.8855 35.7467 76.8855 36.008C76.8855 36.296 76.8082 36.536 76.6535 36.728C76.4989 36.9147 76.2935 37.056 76.0375 37.152C75.7815 37.2427 75.5015 37.288 75.1975 37.288C74.8775 37.288 74.5575 37.2374 74.2375 37.136C73.9229 37.0347 73.6535 36.8854 73.4295 36.688L73.7895 35.992C73.9869 36.1627 74.2189 36.296 74.4855 36.392C74.7575 36.4827 75.0082 36.528 75.2375 36.528C75.3602 36.528 75.4695 36.512 75.5655 36.48C75.6615 36.448 75.7362 36.4027 75.7895 36.344C75.8429 36.28 75.8695 36.1974 75.8695 36.096C75.8695 35.9574 75.8162 35.8507 75.7095 35.776C75.6029 35.696 75.4642 35.6294 75.2935 35.576C75.1282 35.5174 74.9495 35.4614 74.7575 35.408C74.5655 35.3494 74.3842 35.2747 74.2135 35.184C74.0482 35.088 73.9122 34.9627 73.8055 34.808C73.6989 34.6534 73.6455 34.448 73.6455 34.192C73.6455 33.904 73.7202 33.6667 73.8695 33.48C74.0189 33.2934 74.2162 33.1574 74.4615 33.072C74.7069 32.9814 74.9735 32.936 75.2615 32.936C75.5389 32.936 75.8162 32.976 76.0935 33.056C76.3709 33.1307 76.6162 33.2374 76.8295 33.376L76.4535 34.096ZM78.6889 35.36C78.6889 35.6694 78.7689 35.9147 78.9289 36.096C79.0942 36.272 79.3209 36.36 79.6089 36.36C79.9449 36.3494 80.2062 36.224 80.3929 35.984C80.5849 35.744 80.6809 35.4427 80.6809 35.08H80.9529C80.9529 35.5974 80.8809 36.0187 80.7369 36.344C80.5929 36.664 80.3902 36.9014 80.1289 37.056C79.8676 37.2054 79.5556 37.2827 79.1929 37.288C78.8729 37.288 78.5956 37.2214 78.3609 37.088C78.1316 36.9547 77.9529 36.7654 77.8249 36.52C77.7022 36.2694 77.6409 35.976 77.6409 35.64V32.984H78.6889V35.36ZM80.6809 32.984H81.7289V37.248H80.6809V32.984ZM85.5229 33.888C85.2242 33.8667 84.9656 33.912 84.7469 34.024C84.5282 34.1307 84.3602 34.2854 84.2429 34.488C84.1256 34.6907 84.0669 34.9227 84.0669 35.184L83.7869 35.152C83.7869 34.6774 83.8562 34.2774 83.9949 33.952C84.1336 33.6214 84.3336 33.3707 84.5949 33.2C84.8562 33.0294 85.1656 32.944 85.5229 32.944V33.888ZM83.0269 32.984H84.0669V37.248H83.0269V32.984ZM89.1415 34.792C89.1308 34.568 89.0801 34.3787 88.9895 34.224C88.8988 34.064 88.7708 33.9414 88.6055 33.856C88.4455 33.7654 88.2615 33.72 88.0535 33.72C87.8135 33.72 87.6055 33.776 87.4295 33.888C87.2535 34 87.1148 34.1574 87.0135 34.36C86.9175 34.5627 86.8695 34.7974 86.8695 35.064C86.8695 35.3574 86.9228 35.6107 87.0295 35.824C87.1415 36.0374 87.2935 36.2027 87.4855 36.32C87.6775 36.432 87.8988 36.488 88.1495 36.488C88.6028 36.488 88.9895 36.3254 89.3095 36L89.8615 36.552C89.6481 36.7867 89.3895 36.968 89.0855 37.096C88.7815 37.224 88.4428 37.288 88.0695 37.288C87.6215 37.288 87.2321 37.1974 86.9015 37.016C86.5761 36.8294 86.3201 36.576 86.1335 36.256C85.9521 35.9307 85.8615 35.552 85.8615 35.12C85.8615 34.688 85.9521 34.3094 86.1335 33.984C86.3201 33.6587 86.5761 33.4054 86.9015 33.224C87.2321 33.0427 87.6108 32.9494 88.0375 32.944C88.5441 32.944 88.9521 33.048 89.2615 33.256C89.5761 33.464 89.8001 33.7574 89.9335 34.136C90.0668 34.5094 90.1148 34.9547 90.0775 35.472H86.7175V34.792H89.1415ZM95.6801 34.096C95.4721 33.9734 95.2561 33.88 95.0321 33.816C94.8081 33.7467 94.6054 33.712 94.4241 33.712C94.2534 33.712 94.1148 33.744 94.0081 33.808C93.9014 33.8667 93.8481 33.968 93.8481 34.112C93.8481 34.2347 93.9014 34.3334 94.0081 34.408C94.1201 34.4827 94.2614 34.5467 94.4321 34.6C94.6028 34.648 94.7841 34.7014 94.9761 34.76C95.1681 34.8187 95.3494 34.896 95.5201 34.992C95.6961 35.088 95.8374 35.216 95.9441 35.376C96.0561 35.536 96.1121 35.7467 96.1121 36.008C96.1121 36.296 96.0348 36.536 95.8801 36.728C95.7254 36.9147 95.5201 37.056 95.2641 37.152C95.0081 37.2427 94.7281 37.288 94.4241 37.288C94.1041 37.288 93.7841 37.2374 93.4641 37.136C93.1494 37.0347 92.8801 36.8854 92.6561 36.688L93.0161 35.992C93.2134 36.1627 93.4454 36.296 93.7121 36.392C93.9841 36.4827 94.2348 36.528 94.4641 36.528C94.5868 36.528 94.6961 36.512 94.7921 36.48C94.8881 36.448 94.9628 36.4027 95.0161 36.344C95.0694 36.28 95.0961 36.1974 95.0961 36.096C95.0961 35.9574 95.0428 35.8507 94.9361 35.776C94.8294 35.696 94.6908 35.6294 94.5201 35.576C94.3548 35.5174 94.1761 35.4614 93.9841 35.408C93.7921 35.3494 93.6108 35.2747 93.4401 35.184C93.2748 35.088 93.1388 34.9627 93.0321 34.808C92.9254 34.6534 92.8721 34.448 92.8721 34.192C92.8721 33.904 92.9468 33.6667 93.0961 33.48C93.2454 33.2934 93.4428 33.1574 93.6881 33.072C93.9334 32.9814 94.2001 32.936 94.4881 32.936C94.7654 32.936 95.0428 32.976 95.3201 33.056C95.5974 33.1307 95.8428 33.2374 96.0561 33.376L95.6801 34.096ZM99.8915 34.792C99.8808 34.568 99.8301 34.3787 99.7395 34.224C99.6488 34.064 99.5208 33.9414 99.3555 33.856C99.1955 33.7654 99.0115 33.72 98.8035 33.72C98.5635 33.72 98.3555 33.776 98.1795 33.888C98.0035 34 97.8648 34.1574 97.7635 34.36C97.6675 34.5627 97.6195 34.7974 97.6195 35.064C97.6195 35.3574 97.6728 35.6107 97.7795 35.824C97.8915 36.0374 98.0435 36.2027 98.2355 36.32C98.4275 36.432 98.6488 36.488 98.8995 36.488C99.3528 36.488 99.7395 36.3254 100.059 36L100.611 36.552C100.398 36.7867 100.139 36.968 99.8355 37.096C99.5315 37.224 99.1928 37.288 98.8195 37.288C98.3715 37.288 97.9821 37.1974 97.6515 37.016C97.3261 36.8294 97.0701 36.576 96.8835 36.256C96.7021 35.9307 96.6115 35.552 96.6115 35.12C96.6115 34.688 96.7021 34.3094 96.8835 33.984C97.0701 33.6587 97.3261 33.4054 97.6515 33.224C97.9821 33.0427 98.3608 32.9494 98.7875 32.944C99.2941 32.944 99.7021 33.048 100.011 33.256C100.326 33.464 100.55 33.7574 100.683 34.136C100.817 34.5094 100.865 34.9547 100.827 35.472H97.4675V34.792H99.8915ZM104.682 34.28C104.549 34.1307 104.386 34.016 104.194 33.936C104.007 33.8507 103.797 33.808 103.562 33.808C103.333 33.808 103.13 33.864 102.954 33.976C102.778 34.0827 102.639 34.2347 102.538 34.432C102.442 34.6294 102.394 34.8587 102.394 35.12C102.394 35.3814 102.442 35.6107 102.538 35.808C102.639 36.0054 102.778 36.16 102.954 36.272C103.13 36.384 103.333 36.44 103.562 36.44C103.807 36.44 104.029 36.3974 104.226 36.312C104.423 36.2267 104.586 36.0987 104.714 35.928L105.362 36.456C105.175 36.7174 104.925 36.9227 104.61 37.072C104.295 37.216 103.93 37.288 103.514 37.288C103.087 37.288 102.711 37.1974 102.386 37.016C102.061 36.8294 101.805 36.576 101.618 36.256C101.437 35.9307 101.346 35.552 101.346 35.12C101.346 34.688 101.437 34.3094 101.618 33.984C101.805 33.6587 102.061 33.4054 102.386 33.224C102.711 33.0374 103.087 32.944 103.514 32.944C103.914 32.944 104.266 33.0107 104.57 33.144C104.874 33.272 105.125 33.4534 105.322 33.688L104.682 34.28ZM107.165 35.36C107.165 35.6694 107.245 35.9147 107.405 36.096C107.571 36.272 107.797 36.36 108.085 36.36C108.421 36.3494 108.683 36.224 108.869 35.984C109.061 35.744 109.157 35.4427 109.157 35.08H109.429C109.429 35.5974 109.357 36.0187 109.213 36.344C109.069 36.664 108.867 36.9014 108.605 37.056C108.344 37.2054 108.032 37.2827 107.669 37.288C107.349 37.288 107.072 37.2214 106.837 37.088C106.608 36.9547 106.429 36.7654 106.301 36.52C106.179 36.2694 106.117 35.976 106.117 35.64V32.984H107.165V35.36ZM109.157 32.984H110.205V37.248H109.157V32.984ZM113.999 33.888C113.701 33.8667 113.442 33.912 113.223 34.024C113.005 34.1307 112.837 34.2854 112.719 34.488C112.602 34.6907 112.543 34.9227 112.543 35.184L112.263 35.152C112.263 34.6774 112.333 34.2774 112.471 33.952C112.61 33.6214 112.81 33.3707 113.071 33.2C113.333 33.0294 113.642 32.944 113.999 32.944V33.888ZM111.503 32.984H112.543V37.248H111.503V32.984ZM117.618 34.792C117.607 34.568 117.557 34.3787 117.466 34.224C117.375 34.064 117.247 33.9414 117.082 33.856C116.922 33.7654 116.738 33.72 116.53 33.72C116.29 33.72 116.082 33.776 115.906 33.888C115.73 34 115.591 34.1574 115.49 34.36C115.394 34.5627 115.346 34.7974 115.346 35.064C115.346 35.3574 115.399 35.6107 115.506 35.824C115.618 36.0374 115.77 36.2027 115.962 36.32C116.154 36.432 116.375 36.488 116.626 36.488C117.079 36.488 117.466 36.3254 117.786 36L118.338 36.552C118.125 36.7867 117.866 36.968 117.562 37.096C117.258 37.224 116.919 37.288 116.546 37.288C116.098 37.288 115.709 37.1974 115.378 37.016C115.053 36.8294 114.797 36.576 114.61 36.256C114.429 35.9307 114.338 35.552 114.338 35.12C114.338 34.688 114.429 34.3094 114.61 33.984C114.797 33.6587 115.053 33.4054 115.378 33.224C115.709 33.0427 116.087 32.9494 116.514 32.944C117.021 32.944 117.429 33.048 117.738 33.256C118.053 33.464 118.277 33.7574 118.41 34.136C118.543 34.5094 118.591 34.9547 118.554 35.472H115.194V34.792H117.618ZM124.565 34.28C124.431 34.1307 124.269 34.016 124.077 33.936C123.89 33.8507 123.679 33.808 123.445 33.808C123.215 33.808 123.013 33.864 122.837 33.976C122.661 34.0827 122.522 34.2347 122.421 34.432C122.325 34.6294 122.277 34.8587 122.277 35.12C122.277 35.3814 122.325 35.6107 122.421 35.808C122.522 36.0054 122.661 36.16 122.837 36.272C123.013 36.384 123.215 36.44 123.445 36.44C123.69 36.44 123.911 36.3974 124.109 36.312C124.306 36.2267 124.469 36.0987 124.597 35.928L125.245 36.456C125.058 36.7174 124.807 36.9227 124.493 37.072C124.178 37.216 123.813 37.288 123.397 37.288C122.97 37.288 122.594 37.1974 122.269 37.016C121.943 36.8294 121.687 36.576 121.501 36.256C121.319 35.9307 121.229 35.552 121.229 35.12C121.229 34.688 121.319 34.3094 121.501 33.984C121.687 33.6587 121.943 33.4054 122.269 33.224C122.594 33.0374 122.97 32.944 123.397 32.944C123.797 32.944 124.149 33.0107 124.453 33.144C124.757 33.272 125.007 33.4534 125.205 33.688L124.565 34.28ZM127.048 35.36C127.048 35.6694 127.128 35.9147 127.288 36.096C127.454 36.272 127.68 36.36 127.968 36.36C128.304 36.3494 128.566 36.224 128.752 35.984C128.944 35.744 129.04 35.4427 129.04 35.08H129.312C129.312 35.5974 129.24 36.0187 129.096 36.344C128.952 36.664 128.75 36.9014 128.488 37.056C128.227 37.2054 127.915 37.2827 127.552 37.288C127.232 37.288 126.955 37.2214 126.72 37.088C126.491 36.9547 126.312 36.7654 126.184 36.52C126.062 36.2694 126 35.976 126 35.64V32.984H127.048V35.36ZM129.04 32.984H130.088V37.248H129.04V32.984ZM133.922 34.096C133.714 33.9734 133.498 33.88 133.274 33.816C133.05 33.7467 132.848 33.712 132.666 33.712C132.496 33.712 132.357 33.744 132.25 33.808C132.144 33.8667 132.09 33.968 132.09 34.112C132.09 34.2347 132.144 34.3334 132.25 34.408C132.362 34.4827 132.504 34.5467 132.674 34.6C132.845 34.648 133.026 34.7014 133.218 34.76C133.41 34.8187 133.592 34.896 133.762 34.992C133.938 35.088 134.08 35.216 134.186 35.376C134.298 35.536 134.354 35.7467 134.354 36.008C134.354 36.296 134.277 36.536 134.122 36.728C133.968 36.9147 133.762 37.056 133.506 37.152C133.25 37.2427 132.97 37.288 132.666 37.288C132.346 37.288 132.026 37.2374 131.706 37.136C131.392 37.0347 131.122 36.8854 130.898 36.688L131.258 35.992C131.456 36.1627 131.688 36.296 131.954 36.392C132.226 36.4827 132.477 36.528 132.706 36.528C132.829 36.528 132.938 36.512 133.034 36.48C133.13 36.448 133.205 36.4027 133.258 36.344C133.312 36.28 133.338 36.1974 133.338 36.096C133.338 35.9574 133.285 35.8507 133.178 35.776C133.072 35.696 132.933 35.6294 132.762 35.576C132.597 35.5174 132.418 35.4614 132.226 35.408C132.034 35.3494 131.853 35.2747 131.682 35.184C131.517 35.088 131.381 34.9627 131.274 34.808C131.168 34.6534 131.114 34.448 131.114 34.192C131.114 33.904 131.189 33.6667 131.338 33.48C131.488 33.2934 131.685 33.1574 131.93 33.072C132.176 32.9814 132.442 32.936 132.73 32.936C133.008 32.936 133.285 32.976 133.562 33.056C133.84 33.1307 134.085 33.2374 134.298 33.376L133.922 34.096ZM136.454 35.856C136.454 36.0694 136.494 36.216 136.574 36.296C136.654 36.376 136.763 36.416 136.902 36.416C136.987 36.416 137.08 36.4027 137.182 36.376C137.283 36.344 137.392 36.296 137.51 36.232L137.75 36.984C137.59 37.08 137.416 37.1574 137.23 37.216C137.048 37.2694 136.864 37.296 136.678 37.296C136.448 37.296 136.238 37.2534 136.046 37.168C135.854 37.0774 135.702 36.9387 135.59 36.752C135.478 36.56 135.422 36.32 135.422 36.032V31.976H136.454V35.856ZM134.822 33.144H137.678V33.872H134.822V33.144ZM140.399 32.944C140.842 32.944 141.231 33.0347 141.567 33.216C141.908 33.3974 142.172 33.6507 142.359 33.976C142.551 34.3014 142.647 34.68 142.647 35.112C142.647 35.544 142.551 35.9227 142.359 36.248C142.172 36.5734 141.908 36.8294 141.567 37.016C141.231 37.1974 140.842 37.288 140.399 37.288C139.951 37.288 139.556 37.1974 139.215 37.016C138.874 36.8294 138.607 36.5734 138.415 36.248C138.228 35.9227 138.135 35.544 138.135 35.112C138.135 34.68 138.228 34.3014 138.415 33.976C138.607 33.6507 138.874 33.3974 139.215 33.216C139.556 33.0347 139.951 32.944 140.399 32.944ZM140.399 33.784C140.159 33.784 139.946 33.8427 139.759 33.96C139.578 34.072 139.436 34.2294 139.335 34.432C139.234 34.6294 139.183 34.8587 139.183 35.12C139.183 35.3867 139.234 35.6214 139.335 35.824C139.436 36.0267 139.578 36.184 139.759 36.296C139.946 36.408 140.159 36.464 140.399 36.464C140.634 36.464 140.842 36.408 141.023 36.296C141.204 36.184 141.346 36.0267 141.447 35.824C141.548 35.6214 141.599 35.3867 141.599 35.12C141.599 34.8587 141.548 34.6294 141.447 34.432C141.346 34.2294 141.204 34.072 141.023 33.96C140.842 33.8427 140.634 33.784 140.399 33.784ZM146.606 34.864C146.606 34.5494 146.524 34.304 146.358 34.128C146.198 33.952 145.972 33.864 145.678 33.864C145.342 33.8694 145.076 33.9947 144.878 34.24C144.686 34.48 144.59 34.7814 144.59 35.144H144.31C144.31 34.6267 144.382 34.208 144.526 33.888C144.67 33.5627 144.876 33.3254 145.142 33.176C145.414 33.0214 145.732 32.944 146.094 32.944C146.42 32.944 146.697 33.0107 146.926 33.144C147.161 33.2774 147.34 33.4667 147.462 33.712C147.59 33.952 147.654 34.2427 147.654 34.584V37.248H146.606V34.864ZM149.67 34.864C149.67 34.5494 149.588 34.304 149.422 34.128C149.257 33.952 149.028 33.864 148.734 33.864C148.398 33.8694 148.134 33.9947 147.942 34.24C147.75 34.48 147.654 34.7814 147.654 35.144H147.374C147.374 34.6267 147.446 34.208 147.59 33.888C147.734 33.5627 147.94 33.3254 148.206 33.176C148.473 33.0214 148.79 32.944 149.158 32.944C149.478 32.944 149.753 33.0107 149.982 33.144C150.217 33.2774 150.398 33.4667 150.526 33.712C150.654 33.952 150.718 34.2427 150.718 34.584V37.248H149.67V34.864ZM143.55 32.984H144.59V37.248H143.55V32.984ZM154.766 34.792C154.756 34.568 154.705 34.3787 154.614 34.224C154.524 34.064 154.396 33.9414 154.23 33.856C154.07 33.7654 153.886 33.72 153.678 33.72C153.438 33.72 153.23 33.776 153.054 33.888C152.878 34 152.74 34.1574 152.638 34.36C152.542 34.5627 152.494 34.7974 152.494 35.064C152.494 35.3574 152.548 35.6107 152.654 35.824C152.766 36.0374 152.918 36.2027 153.11 36.32C153.302 36.432 153.524 36.488 153.774 36.488C154.228 36.488 154.614 36.3254 154.934 36L155.486 36.552C155.273 36.7867 155.014 36.968 154.71 37.096C154.406 37.224 154.068 37.288 153.694 37.288C153.246 37.288 152.857 37.1974 152.526 37.016C152.201 36.8294 151.945 36.576 151.758 36.256C151.577 35.9307 151.486 35.552 151.486 35.12C151.486 34.688 151.577 34.3094 151.758 33.984C151.945 33.6587 152.201 33.4054 152.526 33.224C152.857 33.0427 153.236 32.9494 153.662 32.944C154.169 32.944 154.577 33.048 154.886 33.256C155.201 33.464 155.425 33.7574 155.558 34.136C155.692 34.5094 155.74 34.9547 155.702 35.472H152.342V34.792H154.766ZM159.109 33.888C158.81 33.8667 158.552 33.912 158.333 34.024C158.114 34.1307 157.946 34.2854 157.829 34.488C157.712 34.6907 157.653 34.9227 157.653 35.184L157.373 35.152C157.373 34.6774 157.442 34.2774 157.581 33.952C157.72 33.6214 157.92 33.3707 158.181 33.2C158.442 33.0294 158.752 32.944 159.109 32.944V33.888ZM156.613 32.984H157.653V37.248H156.613V32.984ZM161.996 32.984H163.036V37.248H161.996V32.984ZM162.508 31.168C162.678 31.168 162.82 31.224 162.932 31.336C163.044 31.448 163.1 31.5894 163.1 31.76C163.1 31.9254 163.044 32.0667 162.932 32.184C162.82 32.296 162.678 32.352 162.508 32.352C162.342 32.352 162.204 32.296 162.092 32.184C161.98 32.0667 161.924 31.9254 161.924 31.76C161.924 31.5894 161.98 31.448 162.092 31.336C162.204 31.224 162.342 31.168 162.508 31.168ZM165.948 32.936C166.337 32.936 166.668 33.024 166.94 33.2C167.212 33.376 167.42 33.6267 167.564 33.952C167.708 34.272 167.777 34.6587 167.772 35.112C167.777 35.56 167.708 35.9494 167.564 36.28C167.425 36.6054 167.22 36.856 166.948 37.032C166.676 37.2027 166.35 37.288 165.972 37.288C165.566 37.288 165.209 37.1974 164.9 37.016C164.596 36.8294 164.358 36.5707 164.188 36.24C164.017 35.9094 163.932 35.5307 163.932 35.104C163.932 34.672 164.017 34.2934 164.188 33.968C164.358 33.6427 164.593 33.3894 164.892 33.208C165.196 33.0267 165.548 32.936 165.948 32.936ZM166.196 33.776C165.961 33.776 165.75 33.8347 165.564 33.952C165.382 34.0694 165.241 34.2294 165.14 34.432C165.038 34.6347 164.985 34.8667 164.98 35.128C164.985 35.3894 165.038 35.6214 165.14 35.824C165.241 36.0267 165.382 36.1867 165.564 36.304C165.75 36.416 165.961 36.472 166.196 36.472C166.436 36.472 166.646 36.416 166.828 36.304C167.014 36.1867 167.158 36.0267 167.26 35.824C167.361 35.6214 167.412 35.3894 167.412 35.128C167.412 34.8614 167.361 34.6294 167.26 34.432C167.158 34.2294 167.014 34.0694 166.828 33.952C166.646 33.8347 166.436 33.776 166.196 33.776ZM167.412 31.312H168.452V37.248H167.412V31.312ZM172.673 34.792C172.662 34.568 172.611 34.3787 172.521 34.224C172.43 34.064 172.302 33.9414 172.137 33.856C171.977 33.7654 171.793 33.72 171.585 33.72C171.345 33.72 171.137 33.776 170.961 33.888C170.785 34 170.646 34.1574 170.545 34.36C170.449 34.5627 170.401 34.7974 170.401 35.064C170.401 35.3574 170.454 35.6107 170.561 35.824C170.673 36.0374 170.825 36.2027 171.017 36.32C171.209 36.432 171.43 36.488 171.681 36.488C172.134 36.488 172.521 36.3254 172.841 36L173.393 36.552C173.179 36.7867 172.921 36.968 172.617 37.096C172.313 37.224 171.974 37.288 171.601 37.288C171.153 37.288 170.763 37.1974 170.433 37.016C170.107 36.8294 169.851 36.576 169.665 36.256C169.483 35.9307 169.393 35.552 169.393 35.12C169.393 34.688 169.483 34.3094 169.665 33.984C169.851 33.6587 170.107 33.4054 170.433 33.224C170.763 33.0427 171.142 32.9494 171.569 32.944C172.075 32.944 172.483 33.048 172.793 33.256C173.107 33.464 173.331 33.7574 173.465 34.136C173.598 34.5094 173.646 34.9547 173.609 35.472H170.249V34.792H172.673ZM177.631 34.864C177.631 34.5547 177.546 34.312 177.375 34.136C177.21 33.96 176.978 33.872 176.679 33.872C176.332 33.872 176.058 33.9947 175.855 34.24C175.658 34.48 175.559 34.784 175.559 35.152H175.279C175.279 34.6294 175.351 34.208 175.495 33.888C175.644 33.5627 175.855 33.3254 176.127 33.176C176.404 33.0214 176.727 32.944 177.095 32.944C177.426 32.944 177.708 33.0107 177.943 33.144C178.178 33.2774 178.359 33.4667 178.487 33.712C178.615 33.952 178.679 34.2427 178.679 34.584V37.248H177.631V34.864ZM174.519 32.984H175.559V37.248H174.519V32.984ZM181.055 35.856C181.055 36.0694 181.095 36.216 181.175 36.296C181.255 36.376 181.365 36.416 181.503 36.416C181.589 36.416 181.682 36.4027 181.783 36.376C181.885 36.344 181.994 36.296 182.111 36.232L182.351 36.984C182.191 37.08 182.018 37.1574 181.831 37.216C181.65 37.2694 181.466 37.296 181.279 37.296C181.05 37.296 180.839 37.2534 180.647 37.168C180.455 37.0774 180.303 36.9387 180.191 36.752C180.079 36.56 180.023 36.32 180.023 36.032V31.976H181.055V35.856ZM179.423 33.144H182.279V33.872H179.423V33.144ZM183.168 32.984H184.208V37.248H183.168V32.984ZM183.68 31.168C183.85 31.168 183.992 31.224 184.104 31.336C184.216 31.448 184.272 31.5894 184.272 31.76C184.272 31.9254 184.216 32.0667 184.104 32.184C183.992 32.296 183.85 32.352 183.68 32.352C183.514 32.352 183.376 32.296 183.264 32.184C183.152 32.0667 183.096 31.9254 183.096 31.76C183.096 31.5894 183.152 31.448 183.264 31.336C183.376 31.224 183.514 31.168 183.68 31.168ZM185.688 32.736C185.688 32.4054 185.76 32.1307 185.904 31.912C186.048 31.6934 186.234 31.5307 186.464 31.424C186.693 31.3174 186.941 31.264 187.208 31.264C187.341 31.264 187.474 31.2827 187.608 31.32C187.746 31.352 187.874 31.3974 187.992 31.456L187.808 32.248C187.728 32.216 187.642 32.1867 187.552 32.16C187.461 32.1334 187.37 32.12 187.28 32.12C187.184 32.1147 187.093 32.1334 187.008 32.176C186.922 32.2134 186.853 32.2747 186.8 32.36C186.752 32.44 186.728 32.5467 186.728 32.68V37.248H185.688V32.736ZM185.128 33.144H187.8V33.872H185.128V33.144ZM188.416 32.984H189.456V37.248H188.416V32.984ZM188.928 31.168C189.098 31.168 189.24 31.224 189.352 31.336C189.464 31.448 189.52 31.5894 189.52 31.76C189.52 31.9254 189.464 32.0667 189.352 32.184C189.24 32.296 189.098 32.352 188.928 32.352C188.762 32.352 188.624 32.296 188.512 32.184C188.4 32.0667 188.344 31.9254 188.344 31.76C188.344 31.5894 188.4 31.448 188.512 31.336C188.624 31.224 188.762 31.168 188.928 31.168ZM193.69 34.28C193.556 34.1307 193.394 34.016 193.202 33.936C193.015 33.8507 192.804 33.808 192.57 33.808C192.34 33.808 192.138 33.864 191.962 33.976C191.786 34.0827 191.647 34.2347 191.546 34.432C191.45 34.6294 191.402 34.8587 191.402 35.12C191.402 35.3814 191.45 35.6107 191.546 35.808C191.647 36.0054 191.786 36.16 191.962 36.272C192.138 36.384 192.34 36.44 192.57 36.44C192.815 36.44 193.036 36.3974 193.234 36.312C193.431 36.2267 193.594 36.0987 193.722 35.928L194.37 36.456C194.183 36.7174 193.932 36.9227 193.618 37.072C193.303 37.216 192.938 37.288 192.522 37.288C192.095 37.288 191.719 37.1974 191.394 37.016C191.068 36.8294 190.812 36.576 190.626 36.256C190.444 35.9307 190.354 35.552 190.354 35.12C190.354 34.688 190.444 34.3094 190.626 33.984C190.812 33.6587 191.068 33.4054 191.394 33.224C191.719 33.0374 192.095 32.944 192.522 32.944C192.922 32.944 193.274 33.0107 193.578 33.144C193.882 33.272 194.132 33.4534 194.33 33.688L193.69 34.28ZM196.545 35.368C196.273 35.368 196.07 35.4107 195.937 35.496C195.804 35.5814 195.737 35.7227 195.737 35.92C195.737 36.1014 195.804 36.248 195.937 36.36C196.076 36.472 196.262 36.528 196.497 36.528C196.705 36.528 196.892 36.4934 197.057 36.424C197.228 36.3494 197.361 36.2507 197.457 36.128C197.558 36 197.617 35.8587 197.633 35.704L197.809 36.448C197.681 36.7254 197.484 36.936 197.217 37.08C196.95 37.224 196.628 37.296 196.249 37.296C195.945 37.296 195.681 37.2374 195.457 37.12C195.233 37.0027 195.06 36.8454 194.937 36.648C194.814 36.4454 194.753 36.2187 194.753 35.968C194.753 35.5734 194.894 35.264 195.177 35.04C195.46 34.8107 195.86 34.6934 196.377 34.688H197.745V35.368H196.545ZM197.625 34.56C197.625 34.304 197.542 34.104 197.377 33.96C197.217 33.8107 196.977 33.736 196.657 33.736C196.46 33.736 196.252 33.7734 196.033 33.848C195.82 33.9174 195.604 34.0187 195.385 34.152L195.009 33.48C195.212 33.3574 195.406 33.2587 195.593 33.184C195.78 33.104 195.974 33.0454 196.177 33.008C196.385 32.9654 196.622 32.944 196.889 32.944C197.449 32.944 197.881 33.0774 198.185 33.344C198.489 33.6107 198.644 33.9787 198.649 34.448L198.657 37.248H197.633L197.625 34.56ZM201.032 35.856C201.032 36.0694 201.072 36.216 201.152 36.296C201.232 36.376 201.341 36.416 201.48 36.416C201.565 36.416 201.658 36.4027 201.76 36.376C201.861 36.344 201.97 36.296 202.088 36.232L202.328 36.984C202.168 37.08 201.994 37.1574 201.808 37.216C201.626 37.2694 201.442 37.296 201.256 37.296C201.026 37.296 200.816 37.2534 200.624 37.168C200.432 37.0774 200.28 36.9387 200.168 36.752C200.056 36.56 200 36.32 200 36.032V31.976H201.032V35.856ZM199.4 33.144H202.256V33.872H199.4V33.144ZM203.144 32.984H204.184V37.248H203.144V32.984ZM203.656 31.168C203.827 31.168 203.968 31.224 204.08 31.336C204.192 31.448 204.248 31.5894 204.248 31.76C204.248 31.9254 204.192 32.0667 204.08 32.184C203.968 32.296 203.827 32.352 203.656 32.352C203.491 32.352 203.352 32.296 203.24 32.184C203.128 32.0667 203.072 31.9254 203.072 31.76C203.072 31.5894 203.128 31.448 203.24 31.336C203.352 31.224 203.491 31.168 203.656 31.168ZM207.344 32.944C207.787 32.944 208.176 33.0347 208.512 33.216C208.854 33.3974 209.118 33.6507 209.304 33.976C209.496 34.3014 209.592 34.68 209.592 35.112C209.592 35.544 209.496 35.9227 209.304 36.248C209.118 36.5734 208.854 36.8294 208.512 37.016C208.176 37.1974 207.787 37.288 207.344 37.288C206.896 37.288 206.502 37.1974 206.16 37.016C205.819 36.8294 205.552 36.5734 205.36 36.248C205.174 35.9227 205.08 35.544 205.08 35.112C205.08 34.68 205.174 34.3014 205.36 33.976C205.552 33.6507 205.819 33.3974 206.16 33.216C206.502 33.0347 206.896 32.944 207.344 32.944ZM207.344 33.784C207.104 33.784 206.891 33.8427 206.704 33.96C206.523 34.072 206.382 34.2294 206.28 34.432C206.179 34.6294 206.128 34.8587 206.128 35.12C206.128 35.3867 206.179 35.6214 206.28 35.824C206.382 36.0267 206.523 36.184 206.704 36.296C206.891 36.408 207.104 36.464 207.344 36.464C207.579 36.464 207.787 36.408 207.968 36.296C208.15 36.184 208.291 36.0267 208.392 35.824C208.494 35.6214 208.544 35.3867 208.544 35.12C208.544 34.8587 208.494 34.6294 208.392 34.432C208.291 34.2294 208.15 34.072 207.968 33.96C207.787 33.8427 207.579 33.784 207.344 33.784ZM213.608 34.864C213.608 34.5547 213.522 34.312 213.352 34.136C213.186 33.96 212.954 33.872 212.656 33.872C212.309 33.872 212.034 33.9947 211.832 34.24C211.634 34.48 211.536 34.784 211.536 35.152H211.256C211.256 34.6294 211.328 34.208 211.472 33.888C211.621 33.5627 211.832 33.3254 212.104 33.176C212.381 33.0214 212.704 32.944 213.072 32.944C213.402 32.944 213.685 33.0107 213.92 33.144C214.154 33.2774 214.336 33.4667 214.464 33.712C214.592 33.952 214.656 34.2427 214.656 34.584V37.248H213.608V34.864ZM210.496 32.984H211.536V37.248H210.496V32.984ZM64.7403 45.368C64.4683 45.368 64.2657 45.4107 64.1323 45.496C63.999 45.5814 63.9323 45.7227 63.9323 45.92C63.9323 46.1014 63.999 46.248 64.1323 46.36C64.271 46.472 64.4577 46.528 64.6923 46.528C64.9003 46.528 65.087 46.4934 65.2523 46.424C65.423 46.3494 65.5563 46.2507 65.6523 46.128C65.7537 46 65.8123 45.8587 65.8283 45.704L66.0043 46.448C65.8763 46.7254 65.679 46.936 65.4123 47.08C65.1457 47.224 64.823 47.296 64.4443 47.296C64.1403 47.296 63.8763 47.2374 63.6523 47.12C63.4283 47.0027 63.255 46.8454 63.1323 46.648C63.0097 46.4454 62.9483 46.2187 62.9483 45.968C62.9483 45.5734 63.0897 45.264 63.3723 45.04C63.655 44.8107 64.055 44.6934 64.5723 44.688H65.9403V45.368H64.7403ZM65.8203 44.56C65.8203 44.304 65.7377 44.104 65.5723 43.96C65.4123 43.8107 65.1723 43.736 64.8523 43.736C64.655 43.736 64.447 43.7734 64.2283 43.848C64.015 43.9174 63.799 44.0187 63.5803 44.152L63.2043 43.48C63.407 43.3574 63.6017 43.2587 63.7883 43.184C63.975 43.104 64.1697 43.0454 64.3723 43.008C64.5803 42.9654 64.8177 42.944 65.0843 42.944C65.6443 42.944 66.0763 43.0774 66.3803 43.344C66.6843 43.6107 66.839 43.9787 66.8443 44.448L66.8523 47.248H65.8283L65.8203 44.56ZM71.1311 44.864C71.1311 44.5547 71.0458 44.312 70.8751 44.136C70.7098 43.96 70.4778 43.872 70.1791 43.872C69.8324 43.872 69.5578 43.9947 69.3551 44.24C69.1578 44.48 69.0591 44.784 69.0591 45.152H68.7791C68.7791 44.6294 68.8511 44.208 68.9951 43.888C69.1444 43.5627 69.3551 43.3254 69.6271 43.176C69.9044 43.0214 70.2271 42.944 70.5951 42.944C70.9258 42.944 71.2084 43.0107 71.4431 43.144C71.6778 43.2774 71.8591 43.4667 71.9871 43.712C72.1151 43.952 72.1791 44.2427 72.1791 44.584V47.248H71.1311V44.864ZM68.0191 42.984H69.0591V47.248H68.0191V42.984ZM74.9712 42.936C75.3606 42.936 75.6912 43.024 75.9632 43.2C76.2352 43.376 76.4432 43.6267 76.5872 43.952C76.7312 44.272 76.8006 44.6587 76.7952 45.112C76.8006 45.56 76.7312 45.9494 76.5872 46.28C76.4486 46.6054 76.2432 46.856 75.9712 47.032C75.6992 47.2027 75.3739 47.288 74.9952 47.288C74.5899 47.288 74.2326 47.1974 73.9232 47.016C73.6192 46.8294 73.3819 46.5707 73.2112 46.24C73.0406 45.9094 72.9552 45.5307 72.9552 45.104C72.9552 44.672 73.0406 44.2934 73.2112 43.968C73.3819 43.6427 73.6166 43.3894 73.9152 43.208C74.2192 43.0267 74.5712 42.936 74.9712 42.936ZM75.2192 43.776C74.9846 43.776 74.7739 43.8347 74.5872 43.952C74.4059 44.0694 74.2646 44.2294 74.1632 44.432C74.0619 44.6347 74.0086 44.8667 74.0032 45.128C74.0086 45.3894 74.0619 45.6214 74.1632 45.824C74.2646 46.0267 74.4059 46.1867 74.5872 46.304C74.7739 46.416 74.9846 46.472 75.2192 46.472C75.4592 46.472 75.6699 46.416 75.8512 46.304C76.0379 46.1867 76.1819 46.0267 76.2832 45.824C76.3846 45.6214 76.4352 45.3894 76.4352 45.128C76.4352 44.8614 76.3846 44.6294 76.2832 44.432C76.1819 44.2294 76.0379 44.0694 75.8512 43.952C75.6699 43.8347 75.4592 43.776 75.2192 43.776ZM76.4352 41.312H77.4752V47.248H76.4352V41.312ZM82.5884 42.936C82.9777 42.936 83.3084 43.024 83.5804 43.2C83.8524 43.376 84.0604 43.6267 84.2044 43.952C84.3484 44.272 84.4177 44.6587 84.4124 45.112C84.4177 45.56 84.3484 45.9494 84.2044 46.28C84.0657 46.6054 83.8604 46.856 83.5884 47.032C83.3164 47.2027 82.9911 47.288 82.6124 47.288C82.2071 47.288 81.8497 47.1974 81.5404 47.016C81.2364 46.8294 80.9991 46.5707 80.8284 46.24C80.6577 45.9094 80.5724 45.5307 80.5724 45.104C80.5724 44.672 80.6577 44.2934 80.8284 43.968C80.9991 43.6427 81.2337 43.3894 81.5324 43.208C81.8364 43.0267 82.1884 42.936 82.5884 42.936ZM82.8364 43.776C82.6017 43.776 82.3911 43.8347 82.2044 43.952C82.0231 44.0694 81.8817 44.2294 81.7804 44.432C81.6791 44.6347 81.6257 44.8667 81.6204 45.128C81.6257 45.3894 81.6791 45.6214 81.7804 45.824C81.8817 46.0267 82.0231 46.1867 82.2044 46.304C82.3911 46.416 82.6017 46.472 82.8364 46.472C83.0764 46.472 83.2871 46.416 83.4684 46.304C83.6551 46.1867 83.7991 46.0267 83.9004 45.824C84.0017 45.6214 84.0524 45.3894 84.0524 45.128C84.0524 44.8614 84.0017 44.6294 83.9004 44.432C83.7991 44.2294 83.6551 44.0694 83.4684 43.952C83.2871 43.8347 83.0764 43.776 82.8364 43.776ZM84.0524 41.312H85.0924V47.248H84.0524V41.312ZM89.3133 44.792C89.3027 44.568 89.252 44.3787 89.1613 44.224C89.0707 44.064 88.9427 43.9414 88.7773 43.856C88.6173 43.7654 88.4333 43.72 88.2253 43.72C87.9853 43.72 87.7773 43.776 87.6013 43.888C87.4253 44 87.2867 44.1574 87.1853 44.36C87.0893 44.5627 87.0413 44.7974 87.0413 45.064C87.0413 45.3574 87.0947 45.6107 87.2013 45.824C87.3133 46.0374 87.4653 46.2027 87.6573 46.32C87.8493 46.432 88.0707 46.488 88.3213 46.488C88.7747 46.488 89.1613 46.3254 89.4813 46L90.0333 46.552C89.82 46.7867 89.5613 46.968 89.2573 47.096C88.9533 47.224 88.6147 47.288 88.2413 47.288C87.7933 47.288 87.404 47.1974 87.0733 47.016C86.748 46.8294 86.492 46.576 86.3053 46.256C86.124 45.9307 86.0333 45.552 86.0333 45.12C86.0333 44.688 86.124 44.3094 86.3053 43.984C86.492 43.6587 86.748 43.4054 87.0733 43.224C87.404 43.0427 87.7827 42.9494 88.2093 42.944C88.716 42.944 89.124 43.048 89.4333 43.256C89.748 43.464 89.972 43.7574 90.1053 44.136C90.2387 44.5094 90.2867 44.9547 90.2493 45.472H86.8893V44.792H89.3133ZM91.1997 41.312H92.2397V47.248H91.1997V41.312ZM93.5738 42.984H94.6138V47.248H93.5738V42.984ZM94.0858 41.168C94.2564 41.168 94.3978 41.224 94.5098 41.336C94.6218 41.448 94.6778 41.5894 94.6778 41.76C94.6778 41.9254 94.6218 42.0667 94.5098 42.184C94.3978 42.296 94.2564 42.352 94.0858 42.352C93.9204 42.352 93.7818 42.296 93.6698 42.184C93.5578 42.0667 93.5018 41.9254 93.5018 41.76C93.5018 41.5894 93.5578 41.448 93.6698 41.336C93.7818 41.224 93.9204 41.168 94.0858 41.168ZM95.2459 42.984H96.3339L97.4539 46.288L98.5499 42.984H99.5979L97.9659 47.248H96.8939L95.2459 42.984ZM102.938 44.792C102.928 44.568 102.877 44.3787 102.786 44.224C102.696 44.064 102.568 43.9414 102.402 43.856C102.242 43.7654 102.058 43.72 101.85 43.72C101.61 43.72 101.402 43.776 101.226 43.888C101.05 44 100.912 44.1574 100.81 44.36C100.714 44.5627 100.666 44.7974 100.666 45.064C100.666 45.3574 100.72 45.6107 100.826 45.824C100.938 46.0374 101.09 46.2027 101.282 46.32C101.474 46.432 101.696 46.488 101.946 46.488C102.4 46.488 102.786 46.3254 103.106 46L103.658 46.552C103.445 46.7867 103.186 46.968 102.882 47.096C102.578 47.224 102.24 47.288 101.866 47.288C101.418 47.288 101.029 47.1974 100.698 47.016C100.373 46.8294 100.117 46.576 99.9303 46.256C99.749 45.9307 99.6583 45.552 99.6583 45.12C99.6583 44.688 99.749 44.3094 99.9303 43.984C100.117 43.6587 100.373 43.4054 100.698 43.224C101.029 43.0427 101.408 42.9494 101.834 42.944C102.341 42.944 102.749 43.048 103.058 43.256C103.373 43.464 103.597 43.7574 103.73 44.136C103.864 44.5094 103.912 44.9547 103.874 45.472H100.514V44.792H102.938ZM107.281 43.888C106.982 43.8667 106.723 43.912 106.505 44.024C106.286 44.1307 106.118 44.2854 106.001 44.488C105.883 44.6907 105.825 44.9227 105.825 45.184L105.545 45.152C105.545 44.6774 105.614 44.2774 105.753 43.952C105.891 43.6214 106.091 43.3707 106.353 43.2C106.614 43.0294 106.923 42.944 107.281 42.944V43.888ZM104.785 42.984H105.825V47.248H104.785V42.984ZM112.688 42.944C113.093 42.944 113.448 43.0347 113.752 43.216C114.056 43.3974 114.29 43.6534 114.456 43.984C114.626 44.3094 114.712 44.6907 114.712 45.128C114.712 45.5547 114.629 45.9307 114.464 46.256C114.298 46.576 114.064 46.8294 113.76 47.016C113.461 47.1974 113.109 47.288 112.704 47.288C112.325 47.288 112 47.2027 111.728 47.032C111.456 46.856 111.248 46.6054 111.104 46.28C110.96 45.9547 110.888 45.5707 110.888 45.128C110.888 44.6694 110.957 44.2774 111.096 43.952C111.24 43.6267 111.448 43.3787 111.72 43.208C111.992 43.032 112.314 42.944 112.688 42.944ZM112.456 43.768C112.221 43.768 112.01 43.8267 111.824 43.944C111.642 44.056 111.501 44.2134 111.4 44.416C111.298 44.6134 111.248 44.8427 111.248 45.104C111.248 45.3654 111.298 45.5974 111.4 45.8C111.501 46.0027 111.642 46.16 111.824 46.272C112.01 46.384 112.221 46.44 112.456 46.44C112.696 46.44 112.904 46.384 113.08 46.272C113.261 46.1547 113.402 45.9974 113.504 45.8C113.605 45.5974 113.656 45.3654 113.656 45.104C113.656 44.8427 113.605 44.6134 113.504 44.416C113.402 44.2134 113.261 44.056 113.08 43.944C112.904 43.8267 112.696 43.768 112.456 43.768ZM110.208 42.984H111.248V48.8H110.208V42.984ZM118.501 44.792C118.49 44.568 118.44 44.3787 118.349 44.224C118.258 44.064 118.13 43.9414 117.965 43.856C117.805 43.7654 117.621 43.72 117.413 43.72C117.173 43.72 116.965 43.776 116.789 43.888C116.613 44 116.474 44.1574 116.373 44.36C116.277 44.5627 116.229 44.7974 116.229 45.064C116.229 45.3574 116.282 45.6107 116.389 45.824C116.501 46.0374 116.653 46.2027 116.845 46.32C117.037 46.432 117.258 46.488 117.509 46.488C117.962 46.488 118.349 46.3254 118.669 46L119.221 46.552C119.008 46.7867 118.749 46.968 118.445 47.096C118.141 47.224 117.802 47.288 117.429 47.288C116.981 47.288 116.592 47.1974 116.261 47.016C115.936 46.8294 115.68 46.576 115.493 46.256C115.312 45.9307 115.221 45.552 115.221 45.12C115.221 44.688 115.312 44.3094 115.493 43.984C115.68 43.6587 115.936 43.4054 116.261 43.224C116.592 43.0427 116.97 42.9494 117.397 42.944C117.904 42.944 118.312 43.048 118.621 43.256C118.936 43.464 119.16 43.7574 119.293 44.136C119.426 44.5094 119.474 44.9547 119.437 45.472H116.077V44.792H118.501ZM122.843 43.888C122.545 43.8667 122.286 43.912 122.067 44.024C121.849 44.1307 121.681 44.2854 121.563 44.488C121.446 44.6907 121.387 44.9227 121.387 45.184L121.107 45.152C121.107 44.6774 121.177 44.2774 121.315 43.952C121.454 43.6214 121.654 43.3707 121.915 43.2C122.177 43.0294 122.486 42.944 122.843 42.944V43.888ZM120.347 42.984H121.387V47.248H120.347V42.984ZM126.11 44.096C125.902 43.9734 125.686 43.88 125.462 43.816C125.238 43.7467 125.035 43.712 124.854 43.712C124.683 43.712 124.544 43.744 124.438 43.808C124.331 43.8667 124.278 43.968 124.278 44.112C124.278 44.2347 124.331 44.3334 124.438 44.408C124.55 44.4827 124.691 44.5467 124.862 44.6C125.032 44.648 125.214 44.7014 125.406 44.76C125.598 44.8187 125.779 44.896 125.95 44.992C126.126 45.088 126.267 45.216 126.374 45.376C126.486 45.536 126.542 45.7467 126.542 46.008C126.542 46.296 126.464 46.536 126.31 46.728C126.155 46.9147 125.95 47.056 125.694 47.152C125.438 47.2427 125.158 47.288 124.854 47.288C124.534 47.288 124.214 47.2374 123.894 47.136C123.579 47.0347 123.31 46.8854 123.086 46.688L123.446 45.992C123.643 46.1627 123.875 46.296 124.142 46.392C124.414 46.4827 124.664 46.528 124.894 46.528C125.016 46.528 125.126 46.512 125.222 46.48C125.318 46.448 125.392 46.4027 125.446 46.344C125.499 46.28 125.526 46.1974 125.526 46.096C125.526 45.9574 125.472 45.8507 125.366 45.776C125.259 45.696 125.12 45.6294 124.95 45.576C124.784 45.5174 124.606 45.4614 124.414 45.408C124.222 45.3494 124.04 45.2747 123.87 45.184C123.704 45.088 123.568 44.9627 123.462 44.808C123.355 44.6534 123.302 44.448 123.302 44.192C123.302 43.904 123.376 43.6667 123.526 43.48C123.675 43.2934 123.872 43.1574 124.118 43.072C124.363 42.9814 124.63 42.936 124.918 42.936C125.195 42.936 125.472 42.976 125.75 43.056C126.027 43.1307 126.272 43.2374 126.486 43.376L126.11 44.096ZM129.305 42.944C129.748 42.944 130.137 43.0347 130.473 43.216C130.814 43.3974 131.078 43.6507 131.265 43.976C131.457 44.3014 131.553 44.68 131.553 45.112C131.553 45.544 131.457 45.9227 131.265 46.248C131.078 46.5734 130.814 46.8294 130.473 47.016C130.137 47.1974 129.748 47.288 129.305 47.288C128.857 47.288 128.462 47.1974 128.121 47.016C127.78 46.8294 127.513 46.5734 127.321 46.248C127.134 45.9227 127.041 45.544 127.041 45.112C127.041 44.68 127.134 44.3014 127.321 43.976C127.513 43.6507 127.78 43.3974 128.121 43.216C128.462 43.0347 128.857 42.944 129.305 42.944ZM129.305 43.784C129.065 43.784 128.852 43.8427 128.665 43.96C128.484 44.072 128.342 44.2294 128.241 44.432C128.14 44.6294 128.089 44.8587 128.089 45.12C128.089 45.3867 128.14 45.6214 128.241 45.824C128.342 46.0267 128.484 46.184 128.665 46.296C128.852 46.408 129.065 46.464 129.305 46.464C129.54 46.464 129.748 46.408 129.929 46.296C130.11 46.184 130.252 46.0267 130.353 45.824C130.454 45.6214 130.505 45.3867 130.505 45.12C130.505 44.8587 130.454 44.6294 130.353 44.432C130.252 44.2294 130.11 44.072 129.929 43.96C129.748 43.8427 129.54 43.784 129.305 43.784ZM135.569 44.864C135.569 44.5547 135.483 44.312 135.313 44.136C135.147 43.96 134.915 43.872 134.617 43.872C134.27 43.872 133.995 43.9947 133.793 44.24C133.595 44.48 133.497 44.784 133.497 45.152H133.217C133.217 44.6294 133.289 44.208 133.433 43.888C133.582 43.5627 133.793 43.3254 134.065 43.176C134.342 43.0214 134.665 42.944 135.033 42.944C135.363 42.944 135.646 43.0107 135.881 43.144C136.115 43.2774 136.297 43.4667 136.425 43.712C136.553 43.952 136.617 44.2427 136.617 44.584V47.248H135.569V44.864ZM132.457 42.984H133.497V47.248H132.457V42.984ZM139.225 45.368C138.953 45.368 138.75 45.4107 138.617 45.496C138.483 45.5814 138.417 45.7227 138.417 45.92C138.417 46.1014 138.483 46.248 138.617 46.36C138.755 46.472 138.942 46.528 139.177 46.528C139.385 46.528 139.571 46.4934 139.737 46.424C139.907 46.3494 140.041 46.2507 140.137 46.128C140.238 46 140.297 45.8587 140.313 45.704L140.489 46.448C140.361 46.7254 140.163 46.936 139.897 47.08C139.63 47.224 139.307 47.296 138.929 47.296C138.625 47.296 138.361 47.2374 138.137 47.12C137.913 47.0027 137.739 46.8454 137.617 46.648C137.494 46.4454 137.433 46.2187 137.433 45.968C137.433 45.5734 137.574 45.264 137.857 45.04C138.139 44.8107 138.539 44.6934 139.057 44.688H140.425V45.368H139.225ZM140.305 44.56C140.305 44.304 140.222 44.104 140.057 43.96C139.897 43.8107 139.657 43.736 139.337 43.736C139.139 43.736 138.931 43.7734 138.713 43.848C138.499 43.9174 138.283 44.0187 138.065 44.152L137.689 43.48C137.891 43.3574 138.086 43.2587 138.273 43.184C138.459 43.104 138.654 43.0454 138.857 43.008C139.065 42.9654 139.302 42.944 139.569 42.944C140.129 42.944 140.561 43.0774 140.865 43.344C141.169 43.6107 141.323 43.9787 141.329 44.448L141.337 47.248H140.313L140.305 44.56ZM142.543 41.312H143.583V47.248H142.543V41.312ZM144.918 42.984H145.958V47.248H144.918V42.984ZM145.43 41.168C145.6 41.168 145.742 41.224 145.854 41.336C145.966 41.448 146.022 41.5894 146.022 41.76C146.022 41.9254 145.966 42.0667 145.854 42.184C145.742 42.296 145.6 42.352 145.43 42.352C145.264 42.352 145.126 42.296 145.014 42.184C144.902 42.0667 144.846 41.9254 144.846 41.76C144.846 41.5894 144.902 41.448 145.014 41.336C145.126 41.224 145.264 41.168 145.43 41.168ZM147.006 42.984L150.582 42.992V43.648L148.23 46.456H150.654V47.256L146.934 47.248V46.592L149.278 43.784L147.006 43.776V42.984ZM154.423 44.792C154.412 44.568 154.361 44.3787 154.271 44.224C154.18 44.064 154.052 43.9414 153.887 43.856C153.727 43.7654 153.543 43.72 153.335 43.72C153.095 43.72 152.887 43.776 152.711 43.888C152.535 44 152.396 44.1574 152.295 44.36C152.199 44.5627 152.151 44.7974 152.151 45.064C152.151 45.3574 152.204 45.6107 152.311 45.824C152.423 46.0374 152.575 46.2027 152.767 46.32C152.959 46.432 153.18 46.488 153.431 46.488C153.884 46.488 154.271 46.3254 154.591 46L155.143 46.552C154.929 46.7867 154.671 46.968 154.367 47.096C154.063 47.224 153.724 47.288 153.351 47.288C152.903 47.288 152.513 47.1974 152.183 47.016C151.857 46.8294 151.601 46.576 151.415 46.256C151.233 45.9307 151.143 45.552 151.143 45.12C151.143 44.688 151.233 44.3094 151.415 43.984C151.601 43.6587 151.857 43.4054 152.183 43.224C152.513 43.0427 152.892 42.9494 153.319 42.944C153.825 42.944 154.233 43.048 154.543 43.256C154.857 43.464 155.081 43.7574 155.215 44.136C155.348 44.5094 155.396 44.9547 155.359 45.472H151.999V44.792H154.423ZM157.893 42.936C158.282 42.936 158.613 43.024 158.885 43.2C159.157 43.376 159.365 43.6267 159.509 43.952C159.653 44.272 159.722 44.6587 159.717 45.112C159.722 45.56 159.653 45.9494 159.509 46.28C159.37 46.6054 159.165 46.856 158.893 47.032C158.621 47.2027 158.296 47.288 157.917 47.288C157.512 47.288 157.154 47.1974 156.845 47.016C156.541 46.8294 156.304 46.5707 156.133 46.24C155.962 45.9094 155.877 45.5307 155.877 45.104C155.877 44.672 155.962 44.2934 156.133 43.968C156.304 43.6427 156.538 43.3894 156.837 43.208C157.141 43.0267 157.493 42.936 157.893 42.936ZM158.141 43.776C157.906 43.776 157.696 43.8347 157.509 43.952C157.328 44.0694 157.186 44.2294 157.085 44.432C156.984 44.6347 156.93 44.8667 156.925 45.128C156.93 45.3894 156.984 45.6214 157.085 45.824C157.186 46.0267 157.328 46.1867 157.509 46.304C157.696 46.416 157.906 46.472 158.141 46.472C158.381 46.472 158.592 46.416 158.773 46.304C158.96 46.1867 159.104 46.0267 159.205 45.824C159.306 45.6214 159.357 45.3894 159.357 45.128C159.357 44.8614 159.306 44.6294 159.205 44.432C159.104 44.2294 158.96 44.0694 158.773 43.952C158.592 43.8347 158.381 43.776 158.141 43.776ZM159.357 41.312H160.397V47.248H159.357V41.312ZM163.23 42.984H164.302L165.35 46.272L166.366 42.984H167.414L168.446 46.272L169.47 42.984H170.526L168.966 47.248H167.894L166.886 44.16L165.862 47.248H164.806L163.23 42.984ZM173.868 44.792C173.857 44.568 173.807 44.3787 173.716 44.224C173.625 44.064 173.497 43.9414 173.332 43.856C173.172 43.7654 172.988 43.72 172.78 43.72C172.54 43.72 172.332 43.776 172.156 43.888C171.98 44 171.841 44.1574 171.74 44.36C171.644 44.5627 171.596 44.7974 171.596 45.064C171.596 45.3574 171.649 45.6107 171.756 45.824C171.868 46.0374 172.02 46.2027 172.212 46.32C172.404 46.432 172.625 46.488 172.876 46.488C173.329 46.488 173.716 46.3254 174.036 46L174.588 46.552C174.375 46.7867 174.116 46.968 173.812 47.096C173.508 47.224 173.169 47.288 172.796 47.288C172.348 47.288 171.959 47.1974 171.628 47.016C171.303 46.8294 171.047 46.576 170.86 46.256C170.679 45.9307 170.588 45.552 170.588 45.12C170.588 44.688 170.679 44.3094 170.86 43.984C171.047 43.6587 171.303 43.4054 171.628 43.224C171.959 43.0427 172.337 42.9494 172.764 42.944C173.271 42.944 173.679 43.048 173.988 43.256C174.303 43.464 174.527 43.7574 174.66 44.136C174.793 44.5094 174.841 44.9547 174.804 45.472H171.444V44.792H173.868ZM175.754 41.312H176.794V47.248H175.754V41.312ZM181.072 44.28C180.939 44.1307 180.776 44.016 180.584 43.936C180.398 43.8507 180.187 43.808 179.952 43.808C179.723 43.808 179.52 43.864 179.344 43.976C179.168 44.0827 179.03 44.2347 178.928 44.432C178.832 44.6294 178.784 44.8587 178.784 45.12C178.784 45.3814 178.832 45.6107 178.928 45.808C179.03 46.0054 179.168 46.16 179.344 46.272C179.52 46.384 179.723 46.44 179.952 46.44C180.198 46.44 180.419 46.3974 180.616 46.312C180.814 46.2267 180.976 46.0987 181.104 45.928L181.752 46.456C181.566 46.7174 181.315 46.9227 181 47.072C180.686 47.216 180.32 47.288 179.904 47.288C179.478 47.288 179.102 47.1974 178.776 47.016C178.451 46.8294 178.195 46.576 178.008 46.256C177.827 45.9307 177.736 45.552 177.736 45.12C177.736 44.688 177.827 44.3094 178.008 43.984C178.195 43.6587 178.451 43.4054 178.776 43.224C179.102 43.0374 179.478 42.944 179.904 42.944C180.304 42.944 180.656 43.0107 180.96 43.144C181.264 43.272 181.515 43.4534 181.712 43.688L181.072 44.28ZM184.36 42.944C184.803 42.944 185.192 43.0347 185.528 43.216C185.869 43.3974 186.133 43.6507 186.32 43.976C186.512 44.3014 186.608 44.68 186.608 45.112C186.608 45.544 186.512 45.9227 186.32 46.248C186.133 46.5734 185.869 46.8294 185.528 47.016C185.192 47.1974 184.803 47.288 184.36 47.288C183.912 47.288 183.517 47.1974 183.176 47.016C182.835 46.8294 182.568 46.5734 182.376 46.248C182.189 45.9227 182.096 45.544 182.096 45.112C182.096 44.68 182.189 44.3014 182.376 43.976C182.568 43.6507 182.835 43.3974 183.176 43.216C183.517 43.0347 183.912 42.944 184.36 42.944ZM184.36 43.784C184.12 43.784 183.907 43.8427 183.72 43.96C183.539 44.072 183.397 44.2294 183.296 44.432C183.195 44.6294 183.144 44.8587 183.144 45.12C183.144 45.3867 183.195 45.6214 183.296 45.824C183.397 46.0267 183.539 46.184 183.72 46.296C183.907 46.408 184.12 46.464 184.36 46.464C184.595 46.464 184.803 46.408 184.984 46.296C185.165 46.184 185.307 46.0267 185.408 45.824C185.509 45.6214 185.56 45.3867 185.56 45.12C185.56 44.8587 185.509 44.6294 185.408 44.432C185.307 44.2294 185.165 44.072 184.984 43.96C184.803 43.8427 184.595 43.784 184.36 43.784ZM190.567 44.864C190.567 44.5494 190.485 44.304 190.319 44.128C190.159 43.952 189.933 43.864 189.639 43.864C189.303 43.8694 189.037 43.9947 188.839 44.24C188.647 44.48 188.551 44.7814 188.551 45.144H188.271C188.271 44.6267 188.343 44.208 188.487 43.888C188.631 43.5627 188.837 43.3254 189.103 43.176C189.375 43.0214 189.693 42.944 190.055 42.944C190.381 42.944 190.658 43.0107 190.887 43.144C191.122 43.2774 191.301 43.4667 191.423 43.712C191.551 43.952 191.615 44.2427 191.615 44.584V47.248H190.567V44.864ZM193.631 44.864C193.631 44.5494 193.549 44.304 193.383 44.128C193.218 43.952 192.989 43.864 192.695 43.864C192.359 43.8694 192.095 43.9947 191.903 44.24C191.711 44.48 191.615 44.7814 191.615 45.144H191.335C191.335 44.6267 191.407 44.208 191.551 43.888C191.695 43.5627 191.901 43.3254 192.167 43.176C192.434 43.0214 192.751 42.944 193.119 42.944C193.439 42.944 193.714 43.0107 193.943 43.144C194.178 43.2774 194.359 43.4667 194.487 43.712C194.615 43.952 194.679 44.2427 194.679 44.584V47.248H193.631V44.864ZM187.511 42.984H188.551V47.248H187.511V42.984ZM198.727 44.792C198.717 44.568 198.666 44.3787 198.575 44.224C198.485 44.064 198.357 43.9414 198.191 43.856C198.031 43.7654 197.847 43.72 197.639 43.72C197.399 43.72 197.191 43.776 197.015 43.888C196.839 44 196.701 44.1574 196.599 44.36C196.503 44.5627 196.455 44.7974 196.455 45.064C196.455 45.3574 196.509 45.6107 196.615 45.824C196.727 46.0374 196.879 46.2027 197.071 46.32C197.263 46.432 197.485 46.488 197.735 46.488C198.189 46.488 198.575 46.3254 198.895 46L199.447 46.552C199.234 46.7867 198.975 46.968 198.671 47.096C198.367 47.224 198.029 47.288 197.655 47.288C197.207 47.288 196.818 47.1974 196.487 47.016C196.162 46.8294 195.906 46.576 195.719 46.256C195.538 45.9307 195.447 45.552 195.447 45.12C195.447 44.688 195.538 44.3094 195.719 43.984C195.906 43.6587 196.162 43.4054 196.487 43.224C196.818 43.0427 197.197 42.9494 197.623 42.944C198.13 42.944 198.538 43.048 198.847 43.256C199.162 43.464 199.386 43.7574 199.519 44.136C199.653 44.5094 199.701 44.9547 199.663 45.472H196.303V44.792H198.727ZM66.3563 54.864C66.3563 54.5494 66.2737 54.304 66.1083 54.128C65.9483 53.952 65.7217 53.864 65.4283 53.864C65.0923 53.8694 64.8257 53.9947 64.6283 54.24C64.4363 54.48 64.3403 54.7814 64.3403 55.144H64.0603C64.0603 54.6267 64.1323 54.208 64.2763 53.888C64.4203 53.5627 64.6257 53.3254 64.8923 53.176C65.1643 53.0214 65.4817 52.944 65.8443 52.944C66.1697 52.944 66.447 53.0107 66.6763 53.144C66.911 53.2774 67.0897 53.4667 67.2123 53.712C67.3403 53.952 67.4043 54.2427 67.4043 54.584V57.248H66.3563V54.864ZM69.4203 54.864C69.4203 54.5494 69.3377 54.304 69.1723 54.128C69.007 53.952 68.7777 53.864 68.4843 53.864C68.1483 53.8694 67.8843 53.9947 67.6923 54.24C67.5003 54.48 67.4043 54.7814 67.4043 55.144H67.1243C67.1243 54.6267 67.1963 54.208 67.3403 53.888C67.4843 53.5627 67.6897 53.3254 67.9563 53.176C68.223 53.0214 68.5403 52.944 68.9083 52.944C69.2283 52.944 69.503 53.0107 69.7323 53.144C69.967 53.2774 70.1483 53.4667 70.2763 53.712C70.4043 53.952 70.4683 54.2427 70.4683 54.584V57.248H69.4203V54.864ZM63.3003 52.984H64.3403V57.248H63.3003V52.984ZM74.5165 54.792C74.5058 54.568 74.4551 54.3787 74.3645 54.224C74.2738 54.064 74.1458 53.9414 73.9805 53.856C73.8205 53.7654 73.6365 53.72 73.4285 53.72C73.1885 53.72 72.9805 53.776 72.8045 53.888C72.6285 54 72.4898 54.1574 72.3885 54.36C72.2925 54.5627 72.2445 54.7974 72.2445 55.064C72.2445 55.3574 72.2978 55.6107 72.4045 55.824C72.5165 56.0374 72.6685 56.2027 72.8605 56.32C73.0525 56.432 73.2738 56.488 73.5245 56.488C73.9778 56.488 74.3645 56.3254 74.6845 56L75.2365 56.552C75.0231 56.7867 74.7645 56.968 74.4605 57.096C74.1565 57.224 73.8178 57.288 73.4445 57.288C72.9965 57.288 72.6071 57.1974 72.2765 57.016C71.9511 56.8294 71.6951 56.576 71.5085 56.256C71.3271 55.9307 71.2365 55.552 71.2365 55.12C71.2365 54.688 71.3271 54.3094 71.5085 53.984C71.6951 53.6587 71.9511 53.4054 72.2765 53.224C72.6071 53.0427 72.9858 52.9494 73.4125 52.944C73.9191 52.944 74.3271 53.048 74.6365 53.256C74.9511 53.464 75.1751 53.7574 75.3085 54.136C75.4418 54.5094 75.4898 54.9547 75.4525 55.472H72.0925V54.792H74.5165ZM78.8988 54.096C78.6908 53.9734 78.4748 53.88 78.2508 53.816C78.0268 53.7467 77.8242 53.712 77.6428 53.712C77.4722 53.712 77.3335 53.744 77.2268 53.808C77.1202 53.8667 77.0668 53.968 77.0668 54.112C77.0668 54.2347 77.1202 54.3334 77.2268 54.408C77.3388 54.4827 77.4802 54.5467 77.6508 54.6C77.8215 54.648 78.0028 54.7014 78.1948 54.76C78.3868 54.8187 78.5682 54.896 78.7388 54.992C78.9148 55.088 79.0562 55.216 79.1628 55.376C79.2748 55.536 79.3308 55.7467 79.3308 56.008C79.3308 56.296 79.2535 56.536 79.0988 56.728C78.9442 56.9147 78.7388 57.056 78.4828 57.152C78.2268 57.2427 77.9468 57.288 77.6428 57.288C77.3228 57.288 77.0028 57.2374 76.6828 57.136C76.3682 57.0347 76.0988 56.8854 75.8748 56.688L76.2348 55.992C76.4322 56.1627 76.6642 56.296 76.9308 56.392C77.2028 56.4827 77.4535 56.528 77.6828 56.528C77.8055 56.528 77.9148 56.512 78.0108 56.48C78.1068 56.448 78.1815 56.4027 78.2348 56.344C78.2882 56.28 78.3148 56.1974 78.3148 56.096C78.3148 55.9574 78.2615 55.8507 78.1548 55.776C78.0482 55.696 77.9095 55.6294 77.7388 55.576C77.5735 55.5174 77.3948 55.4614 77.2028 55.408C77.0108 55.3494 76.8295 55.2747 76.6588 55.184C76.4935 55.088 76.3575 54.9627 76.2508 54.808C76.1442 54.6534 76.0908 54.448 76.0908 54.192C76.0908 53.904 76.1655 53.6667 76.3148 53.48C76.4642 53.2934 76.6615 53.1574 76.9068 53.072C77.1522 52.9814 77.4188 52.936 77.7068 52.936C77.9842 52.936 78.2615 52.976 78.5388 53.056C78.8162 53.1307 79.0615 53.2374 79.2748 53.376L78.8988 54.096ZM82.7582 54.096C82.5502 53.9734 82.3342 53.88 82.1102 53.816C81.8862 53.7467 81.6836 53.712 81.5022 53.712C81.3316 53.712 81.1929 53.744 81.0862 53.808C80.9796 53.8667 80.9262 53.968 80.9262 54.112C80.9262 54.2347 80.9796 54.3334 81.0862 54.408C81.1982 54.4827 81.3396 54.5467 81.5102 54.6C81.6809 54.648 81.8622 54.7014 82.0542 54.76C82.2462 54.8187 82.4276 54.896 82.5982 54.992C82.7742 55.088 82.9156 55.216 83.0222 55.376C83.1342 55.536 83.1902 55.7467 83.1902 56.008C83.1902 56.296 83.1129 56.536 82.9582 56.728C82.8036 56.9147 82.5982 57.056 82.3422 57.152C82.0862 57.2427 81.8062 57.288 81.5022 57.288C81.1822 57.288 80.8622 57.2374 80.5422 57.136C80.2276 57.0347 79.9582 56.8854 79.7342 56.688L80.0942 55.992C80.2916 56.1627 80.5236 56.296 80.7902 56.392C81.0622 56.4827 81.3129 56.528 81.5422 56.528C81.6649 56.528 81.7742 56.512 81.8702 56.48C81.9662 56.448 82.0409 56.4027 82.0942 56.344C82.1476 56.28 82.1742 56.1974 82.1742 56.096C82.1742 55.9574 82.1209 55.8507 82.0142 55.776C81.9076 55.696 81.7689 55.6294 81.5982 55.576C81.4329 55.5174 81.2542 55.4614 81.0622 55.408C80.8702 55.3494 80.6889 55.2747 80.5182 55.184C80.3529 55.088 80.2169 54.9627 80.1102 54.808C80.0036 54.6534 79.9502 54.448 79.9502 54.192C79.9502 53.904 80.0249 53.6667 80.1742 53.48C80.3236 53.2934 80.5209 53.1574 80.7662 53.072C81.0116 52.9814 81.2782 52.936 81.5662 52.936C81.8436 52.936 82.1209 52.976 82.3982 53.056C82.6756 53.1307 82.9209 53.2374 83.1342 53.376L82.7582 54.096ZM85.5216 55.368C85.2496 55.368 85.0469 55.4107 84.9136 55.496C84.7803 55.5814 84.7136 55.7227 84.7136 55.92C84.7136 56.1014 84.7803 56.248 84.9136 56.36C85.0523 56.472 85.2389 56.528 85.4736 56.528C85.6816 56.528 85.8683 56.4934 86.0336 56.424C86.2043 56.3494 86.3376 56.2507 86.4336 56.128C86.5349 56 86.5936 55.8587 86.6096 55.704L86.7856 56.448C86.6576 56.7254 86.4603 56.936 86.1936 57.08C85.9269 57.224 85.6043 57.296 85.2256 57.296C84.9216 57.296 84.6576 57.2374 84.4336 57.12C84.2096 57.0027 84.0363 56.8454 83.9136 56.648C83.7909 56.4454 83.7296 56.2187 83.7296 55.968C83.7296 55.5734 83.8709 55.264 84.1536 55.04C84.4363 54.8107 84.8363 54.6934 85.3536 54.688H86.7216V55.368H85.5216ZM86.6016 54.56C86.6016 54.304 86.5189 54.104 86.3536 53.96C86.1936 53.8107 85.9536 53.736 85.6336 53.736C85.4363 53.736 85.2283 53.7734 85.0096 53.848C84.7963 53.9174 84.5803 54.0187 84.3616 54.152L83.9856 53.48C84.1883 53.3574 84.3829 53.2587 84.5696 53.184C84.7563 53.104 84.9509 53.0454 85.1536 53.008C85.3616 52.9654 85.5989 52.944 85.8656 52.944C86.4256 52.944 86.8576 53.0774 87.1616 53.344C87.4656 53.6107 87.6203 53.9787 87.6256 54.448L87.6336 57.248H86.6096L86.6016 54.56ZM92.7123 56.832C92.7123 57.2427 92.619 57.5974 92.4323 57.896C92.251 58.1947 91.9923 58.424 91.6563 58.584C91.3203 58.7494 90.9257 58.832 90.4723 58.832C90.1257 58.832 89.8003 58.7814 89.4963 58.68C89.1977 58.5787 88.9203 58.4427 88.6643 58.272L89.0803 57.56C89.2777 57.704 89.4857 57.816 89.7043 57.896C89.923 57.976 90.1603 58.016 90.4163 58.016C90.6723 58.016 90.8937 57.968 91.0803 57.872C91.2723 57.776 91.419 57.6427 91.5203 57.472C91.6217 57.3014 91.6723 57.0987 91.6723 56.864V52.984H92.7123V56.832ZM90.2803 52.944C90.6483 52.9387 90.963 53.0187 91.2243 53.184C91.4857 53.3494 91.6857 53.584 91.8243 53.888C91.963 54.192 92.0297 54.5574 92.0243 54.984C92.0297 55.4107 91.963 55.7787 91.8243 56.088C91.691 56.392 91.4963 56.6267 91.2403 56.792C90.9843 56.9574 90.675 57.04 90.3123 57.04C89.9337 57.04 89.6003 56.9547 89.3123 56.784C89.0297 56.608 88.8083 56.3654 88.6483 56.056C88.4883 55.7414 88.4083 55.3814 88.4083 54.976C88.4083 54.5707 88.4857 54.2187 88.6403 53.92C88.8003 53.616 89.0217 53.3787 89.3043 53.208C89.587 53.032 89.9123 52.944 90.2803 52.944ZM90.5363 53.736C90.3177 53.736 90.1203 53.7894 89.9443 53.896C89.7737 54.0027 89.6403 54.152 89.5443 54.344C89.4483 54.536 89.3977 54.7547 89.3923 55C89.3977 55.2454 89.4483 55.464 89.5443 55.656C89.6403 55.848 89.7737 55.9974 89.9443 56.104C90.115 56.2107 90.3123 56.264 90.5363 56.264C90.7603 56.264 90.9577 56.2107 91.1283 56.104C91.299 55.9974 91.4323 55.848 91.5283 55.656C91.6243 55.464 91.6723 55.2454 91.6723 55C91.6723 54.7494 91.6243 54.5307 91.5283 54.344C91.4323 54.152 91.299 54.0027 91.1283 53.896C90.9577 53.7894 90.7603 53.736 90.5363 53.736ZM96.8212 54.792C96.8105 54.568 96.7598 54.3787 96.6692 54.224C96.5785 54.064 96.4505 53.9414 96.2852 53.856C96.1252 53.7654 95.9412 53.72 95.7332 53.72C95.4932 53.72 95.2852 53.776 95.1092 53.888C94.9332 54 94.7945 54.1574 94.6932 54.36C94.5972 54.5627 94.5492 54.7974 94.5492 55.064C94.5492 55.3574 94.6025 55.6107 94.7092 55.824C94.8212 56.0374 94.9732 56.2027 95.1652 56.32C95.3572 56.432 95.5785 56.488 95.8292 56.488C96.2825 56.488 96.6692 56.3254 96.9892 56L97.5412 56.552C97.3278 56.7867 97.0692 56.968 96.7652 57.096C96.4612 57.224 96.1225 57.288 95.7492 57.288C95.3012 57.288 94.9118 57.1974 94.5812 57.016C94.2558 56.8294 93.9998 56.576 93.8132 56.256C93.6318 55.9307 93.5412 55.552 93.5412 55.12C93.5412 54.688 93.6318 54.3094 93.8132 53.984C93.9998 53.6587 94.2558 53.4054 94.5812 53.224C94.9118 53.0427 95.2905 52.9494 95.7172 52.944C96.2238 52.944 96.6318 53.048 96.9412 53.256C97.2558 53.464 97.4798 53.7574 97.6132 54.136C97.7465 54.5094 97.7945 54.9547 97.7572 55.472H94.3972V54.792H96.8212ZM101.204 54.096C100.996 53.9734 100.78 53.88 100.556 53.816C100.332 53.7467 100.129 53.712 99.9475 53.712C99.7769 53.712 99.6382 53.744 99.5315 53.808C99.4249 53.8667 99.3715 53.968 99.3715 54.112C99.3715 54.2347 99.4249 54.3334 99.5315 54.408C99.6435 54.4827 99.7849 54.5467 99.9555 54.6C100.126 54.648 100.308 54.7014 100.5 54.76C100.692 54.8187 100.873 54.896 101.044 54.992C101.22 55.088 101.361 55.216 101.468 55.376C101.58 55.536 101.636 55.7467 101.636 56.008C101.636 56.296 101.558 56.536 101.404 56.728C101.249 56.9147 101.044 57.056 100.788 57.152C100.532 57.2427 100.252 57.288 99.9475 57.288C99.6275 57.288 99.3075 57.2374 98.9875 57.136C98.6729 57.0347 98.4035 56.8854 98.1795 56.688L98.5395 55.992C98.7369 56.1627 98.9689 56.296 99.2355 56.392C99.5075 56.4827 99.7582 56.528 99.9875 56.528C100.11 56.528 100.22 56.512 100.316 56.48C100.412 56.448 100.486 56.4027 100.54 56.344C100.593 56.28 100.62 56.1974 100.62 56.096C100.62 55.9574 100.566 55.8507 100.46 55.776C100.353 55.696 100.214 55.6294 100.044 55.576C99.8782 55.5174 99.6995 55.4614 99.5075 55.408C99.3155 55.3494 99.1342 55.2747 98.9635 55.184C98.7982 55.088 98.6622 54.9627 98.5555 54.808C98.4489 54.6534 98.3955 54.448 98.3955 54.192C98.3955 53.904 98.4702 53.6667 98.6195 53.48C98.7689 53.2934 98.9662 53.1574 99.2115 53.072C99.4569 52.9814 99.7235 52.936 100.012 52.936C100.289 52.936 100.566 52.976 100.844 53.056C101.121 53.1307 101.366 53.2374 101.58 53.376L101.204 54.096Z" fill="black"/>
</g>
<defs>
<filter id="filter0_d_1353_879" x="0" y="0.752197" width="234" height="76.4958" filterUnits="userSpaceOnUse" color-interpolation-filters="sRGB">
<feFlood flood-opacity="0" result="BackgroundImageFix"/>
<feColorMatrix in="SourceAlpha" type="matrix" values="0 0 0 0 0 0 0 0 0 0 0 0 0 0 0 0 0 0 127 0" result="hardAlpha"/>
<feOffset dy="4"/>
<feGaussianBlur stdDeviation="2"/>
<feComposite in2="hardAlpha" operator="out"/>
<feColorMatrix type="matrix" values="0 0 0 0 0.360784 0 0 0 0 0.611765 0 0 0 0 0.933333 0 0 0 0.24 0"/>
<feBlend mode="normal" in2="BackgroundImageFix" result="effect1_dropShadow_1353_879"/>
<feBlend mode="normal" in="SourceGraphic" in2="effect1_dropShadow_1353_879" result="shape"/>
</filter>
</defs>
</svg>
