<svg width="234" height="60" viewBox="0 0 234 60" fill="none" xmlns="http://www.w3.org/2000/svg">
<g filter="url(#filter0_d_1353_877)">
<path d="M4 25C4 11.1929 15.1929 0 29 0H230V27C230 40.8071 218.807 52 205 52H29C15.1929 52 4 40.8071 4 27V25Z" fill="#FFC95C"/>
<path d="M62.484 27.044C62.484 27.732 62.672 28.272 63.048 28.664C63.424 29.056 63.928 29.252 64.56 29.252C65.184 29.252 65.68 29.06 66.048 28.676C66.416 28.284 66.6 27.74 66.6 27.044V22.1H68.208V27.044C68.208 27.78 68.06 28.416 67.764 28.952C67.476 29.48 67.056 29.888 66.504 30.176C65.96 30.464 65.312 30.608 64.56 30.608C63.8 30.608 63.144 30.464 62.592 30.176C62.04 29.888 61.616 29.48 61.32 28.952C61.024 28.416 60.876 27.78 60.876 27.044V22.1H62.484V27.044ZM73.8223 24.044C74.4303 24.044 74.9623 24.18 75.4183 24.452C75.8743 24.724 76.2263 25.108 76.4743 25.604C76.7303 26.092 76.8583 26.664 76.8583 27.32C76.8583 27.96 76.7343 28.524 76.4863 29.012C76.2383 29.492 75.8863 29.872 75.4303 30.152C74.9823 30.424 74.4543 30.56 73.8463 30.56C73.2783 30.56 72.7903 30.432 72.3823 30.176C71.9743 29.912 71.6623 29.536 71.4463 29.048C71.2303 28.56 71.1223 27.984 71.1223 27.32C71.1223 26.632 71.2263 26.044 71.4343 25.556C71.6503 25.068 71.9623 24.696 72.3703 24.44C72.7783 24.176 73.2623 24.044 73.8223 24.044ZM73.4743 25.28C73.1223 25.28 72.8063 25.368 72.5263 25.544C72.2543 25.712 72.0423 25.948 71.8903 26.252C71.7383 26.548 71.6623 26.892 71.6623 27.284C71.6623 27.676 71.7383 28.024 71.8903 28.328C72.0423 28.632 72.2543 28.868 72.5263 29.036C72.8063 29.204 73.1223 29.288 73.4743 29.288C73.8343 29.288 74.1463 29.204 74.4103 29.036C74.6823 28.86 74.8943 28.624 75.0463 28.328C75.1983 28.024 75.2743 27.676 75.2743 27.284C75.2743 26.892 75.1983 26.548 75.0463 26.252C74.8943 25.948 74.6823 25.712 74.4103 25.544C74.1463 25.368 73.8343 25.28 73.4743 25.28ZM70.1023 24.104H71.6623V32.828H70.1023V24.104ZM82.0143 25.772C81.7023 25.588 81.3783 25.448 81.0423 25.352C80.7063 25.248 80.4023 25.196 80.1303 25.196C79.8743 25.196 79.6663 25.244 79.5063 25.34C79.3463 25.428 79.2663 25.58 79.2663 25.796C79.2663 25.98 79.3463 26.128 79.5063 26.24C79.6743 26.352 79.8863 26.448 80.1423 26.528C80.3983 26.6 80.6703 26.68 80.9583 26.768C81.2463 26.856 81.5183 26.972 81.7743 27.116C82.0383 27.26 82.2503 27.452 82.4103 27.692C82.5783 27.932 82.6623 28.248 82.6623 28.64C82.6623 29.072 82.5463 29.432 82.3143 29.72C82.0823 30 81.7743 30.212 81.3903 30.356C81.0063 30.492 80.5863 30.56 80.1303 30.56C79.6503 30.56 79.1703 30.484 78.6903 30.332C78.2183 30.18 77.8143 29.956 77.4783 29.66L78.0183 28.616C78.3143 28.872 78.6623 29.072 79.0623 29.216C79.4703 29.352 79.8463 29.42 80.1903 29.42C80.3743 29.42 80.5383 29.396 80.6823 29.348C80.8263 29.3 80.9383 29.232 81.0183 29.144C81.0983 29.048 81.1383 28.924 81.1383 28.772C81.1383 28.564 81.0583 28.404 80.8983 28.292C80.7383 28.172 80.5303 28.072 80.2743 27.992C80.0263 27.904 79.7583 27.82 79.4703 27.74C79.1823 27.652 78.9103 27.54 78.6543 27.404C78.4063 27.26 78.2023 27.072 78.0423 26.84C77.8823 26.608 77.8023 26.3 77.8023 25.916C77.8023 25.484 77.9143 25.128 78.1383 24.848C78.3623 24.568 78.6583 24.364 79.0263 24.236C79.3943 24.1 79.7943 24.032 80.2263 24.032C80.6423 24.032 81.0583 24.092 81.4743 24.212C81.8903 24.324 82.2583 24.484 82.5783 24.692L82.0143 25.772ZM88.3313 26.816C88.3153 26.48 88.2393 26.196 88.1033 25.964C87.9673 25.724 87.7753 25.54 87.5273 25.412C87.2873 25.276 87.0113 25.208 86.6993 25.208C86.3393 25.208 86.0273 25.292 85.7633 25.46C85.4993 25.628 85.2913 25.864 85.1393 26.168C84.9953 26.472 84.9233 26.824 84.9233 27.224C84.9233 27.664 85.0033 28.044 85.1633 28.364C85.3313 28.684 85.5593 28.932 85.8473 29.108C86.1353 29.276 86.4673 29.36 86.8433 29.36C87.5233 29.36 88.1033 29.116 88.5833 28.628L89.4113 29.456C89.0913 29.808 88.7033 30.08 88.2473 30.272C87.7913 30.464 87.2833 30.56 86.7233 30.56C86.0513 30.56 85.4673 30.424 84.9713 30.152C84.4833 29.872 84.0993 29.492 83.8193 29.012C83.5473 28.524 83.4113 27.956 83.4113 27.308C83.4113 26.66 83.5473 26.092 83.8193 25.604C84.0993 25.116 84.4833 24.736 84.9713 24.464C85.4673 24.192 86.0353 24.052 86.6753 24.044C87.4353 24.044 88.0473 24.2 88.5113 24.512C88.9833 24.824 89.3193 25.264 89.5193 25.832C89.7193 26.392 89.7913 27.06 89.7353 27.836H84.6953V26.816H88.3313ZM91.1609 21.596H92.7209V30.5H91.1609V21.596ZM94.782 21.596H96.342V30.5H94.782V21.596ZM103.737 27.68C103.329 27.68 103.025 27.744 102.825 27.872C102.625 28 102.525 28.212 102.525 28.508C102.525 28.78 102.625 29 102.825 29.168C103.033 29.336 103.313 29.42 103.665 29.42C103.977 29.42 104.257 29.368 104.505 29.264C104.761 29.152 104.961 29.004 105.105 28.82C105.257 28.628 105.345 28.416 105.369 28.184L105.633 29.3C105.441 29.716 105.145 30.032 104.745 30.248C104.345 30.464 103.861 30.572 103.293 30.572C102.837 30.572 102.441 30.484 102.105 30.308C101.769 30.132 101.509 29.896 101.325 29.6C101.141 29.296 101.049 28.956 101.049 28.58C101.049 27.988 101.261 27.524 101.685 27.188C102.109 26.844 102.709 26.668 103.485 26.66H105.537V27.68H103.737ZM105.357 26.468C105.357 26.084 105.233 25.784 104.985 25.568C104.745 25.344 104.385 25.232 103.905 25.232C103.609 25.232 103.297 25.288 102.969 25.4C102.649 25.504 102.325 25.656 101.997 25.856L101.433 24.848C101.737 24.664 102.029 24.516 102.309 24.404C102.589 24.284 102.881 24.196 103.185 24.14C103.497 24.076 103.853 24.044 104.253 24.044C105.093 24.044 105.741 24.244 106.197 24.644C106.653 25.044 106.885 25.596 106.893 26.3L106.905 30.5H105.369L105.357 26.468ZM113.324 26.924C113.324 26.46 113.196 26.096 112.94 25.832C112.692 25.568 112.344 25.436 111.896 25.436C111.376 25.436 110.964 25.62 110.66 25.988C110.364 26.348 110.216 26.804 110.216 27.356H109.796C109.796 26.572 109.904 25.94 110.12 25.46C110.344 24.972 110.66 24.616 111.068 24.392C111.484 24.16 111.968 24.044 112.52 24.044C113.016 24.044 113.44 24.144 113.792 24.344C114.144 24.544 114.416 24.828 114.608 25.196C114.8 25.556 114.896 25.992 114.896 26.504V30.5H113.324V26.924ZM108.656 24.104H110.216V30.5H108.656V24.104ZM119.084 24.032C119.668 24.032 120.164 24.164 120.572 24.428C120.98 24.692 121.292 25.068 121.508 25.556C121.724 26.036 121.828 26.616 121.82 27.296C121.828 27.968 121.724 28.552 121.508 29.048C121.3 29.536 120.992 29.912 120.584 30.176C120.176 30.432 119.688 30.56 119.12 30.56C118.512 30.56 117.976 30.424 117.512 30.152C117.056 29.872 116.7 29.484 116.444 28.988C116.188 28.492 116.06 27.924 116.06 27.284C116.06 26.636 116.188 26.068 116.444 25.58C116.7 25.092 117.052 24.712 117.5 24.44C117.956 24.168 118.484 24.032 119.084 24.032ZM119.456 25.292C119.104 25.292 118.788 25.38 118.508 25.556C118.236 25.732 118.024 25.972 117.872 26.276C117.72 26.58 117.64 26.928 117.632 27.32C117.64 27.712 117.72 28.06 117.872 28.364C118.024 28.668 118.236 28.908 118.508 29.084C118.788 29.252 119.104 29.336 119.456 29.336C119.816 29.336 120.132 29.252 120.404 29.084C120.684 28.908 120.9 28.668 121.052 28.364C121.204 28.06 121.28 27.712 121.28 27.32C121.28 26.92 121.204 26.572 121.052 26.276C120.9 25.972 120.684 25.732 120.404 25.556C120.132 25.38 119.816 25.292 119.456 25.292ZM121.28 21.596H122.84V30.5H121.28V21.596ZM132.49 26.048C132.29 25.824 132.046 25.652 131.758 25.532C131.478 25.404 131.162 25.34 130.81 25.34C130.466 25.34 130.162 25.424 129.898 25.592C129.634 25.752 129.426 25.98 129.274 26.276C129.13 26.572 129.058 26.916 129.058 27.308C129.058 27.7 129.13 28.044 129.274 28.34C129.426 28.636 129.634 28.868 129.898 29.036C130.162 29.204 130.466 29.288 130.81 29.288C131.178 29.288 131.51 29.224 131.806 29.096C132.102 28.968 132.346 28.776 132.538 28.52L133.51 29.312C133.23 29.704 132.854 30.012 132.382 30.236C131.91 30.452 131.362 30.56 130.738 30.56C130.098 30.56 129.534 30.424 129.046 30.152C128.558 29.872 128.174 29.492 127.894 29.012C127.622 28.524 127.486 27.956 127.486 27.308C127.486 26.66 127.622 26.092 127.894 25.604C128.174 25.116 128.558 24.736 129.046 24.464C129.534 24.184 130.098 24.044 130.738 24.044C131.338 24.044 131.866 24.144 132.322 24.344C132.778 24.536 133.154 24.808 133.45 25.16L132.49 26.048ZM138.591 25.46C138.143 25.428 137.755 25.496 137.427 25.664C137.099 25.824 136.847 26.056 136.671 26.36C136.495 26.664 136.407 27.012 136.407 27.404L135.987 27.356C135.987 26.644 136.091 26.044 136.299 25.556C136.507 25.06 136.807 24.684 137.199 24.428C137.591 24.172 138.055 24.044 138.591 24.044V25.46ZM134.847 24.104H136.407V30.5H134.847V24.104ZM142.495 24.044C143.159 24.044 143.743 24.18 144.247 24.452C144.759 24.724 145.155 25.104 145.435 25.592C145.723 26.08 145.867 26.648 145.867 27.296C145.867 27.944 145.723 28.512 145.435 29C145.155 29.488 144.759 29.872 144.247 30.152C143.743 30.424 143.159 30.56 142.495 30.56C141.823 30.56 141.231 30.424 140.719 30.152C140.207 29.872 139.807 29.488 139.519 29C139.239 28.512 139.099 27.944 139.099 27.296C139.099 26.648 139.239 26.08 139.519 25.592C139.807 25.104 140.207 24.724 140.719 24.452C141.231 24.18 141.823 24.044 142.495 24.044ZM142.495 25.304C142.135 25.304 141.815 25.392 141.535 25.568C141.263 25.736 141.051 25.972 140.899 26.276C140.747 26.572 140.671 26.916 140.671 27.308C140.671 27.708 140.747 28.06 140.899 28.364C141.051 28.668 141.263 28.904 141.535 29.072C141.815 29.24 142.135 29.324 142.495 29.324C142.847 29.324 143.159 29.24 143.431 29.072C143.703 28.904 143.915 28.668 144.067 28.364C144.219 28.06 144.295 27.708 144.295 27.308C144.295 26.916 144.219 26.572 144.067 26.276C143.915 25.972 143.703 25.736 143.431 25.568C143.159 25.392 142.847 25.304 142.495 25.304ZM151.026 25.772C150.714 25.588 150.39 25.448 150.054 25.352C149.718 25.248 149.414 25.196 149.142 25.196C148.886 25.196 148.678 25.244 148.518 25.34C148.358 25.428 148.278 25.58 148.278 25.796C148.278 25.98 148.358 26.128 148.518 26.24C148.686 26.352 148.898 26.448 149.154 26.528C149.41 26.6 149.682 26.68 149.97 26.768C150.258 26.856 150.53 26.972 150.786 27.116C151.05 27.26 151.262 27.452 151.422 27.692C151.59 27.932 151.674 28.248 151.674 28.64C151.674 29.072 151.558 29.432 151.326 29.72C151.094 30 150.786 30.212 150.402 30.356C150.018 30.492 149.598 30.56 149.142 30.56C148.662 30.56 148.182 30.484 147.702 30.332C147.23 30.18 146.826 29.956 146.49 29.66L147.03 28.616C147.326 28.872 147.674 29.072 148.074 29.216C148.482 29.352 148.858 29.42 149.202 29.42C149.386 29.42 149.55 29.396 149.694 29.348C149.838 29.3 149.95 29.232 150.03 29.144C150.11 29.048 150.15 28.924 150.15 28.772C150.15 28.564 150.07 28.404 149.91 28.292C149.75 28.172 149.542 28.072 149.286 27.992C149.038 27.904 148.77 27.82 148.482 27.74C148.194 27.652 147.922 27.54 147.666 27.404C147.418 27.26 147.214 27.072 147.054 26.84C146.894 26.608 146.814 26.3 146.814 25.916C146.814 25.484 146.926 25.128 147.15 24.848C147.374 24.568 147.67 24.364 148.038 24.236C148.406 24.1 148.806 24.032 149.238 24.032C149.654 24.032 150.07 24.092 150.486 24.212C150.902 24.324 151.27 24.484 151.59 24.692L151.026 25.772ZM156.815 25.772C156.503 25.588 156.179 25.448 155.843 25.352C155.507 25.248 155.203 25.196 154.931 25.196C154.675 25.196 154.467 25.244 154.307 25.34C154.147 25.428 154.067 25.58 154.067 25.796C154.067 25.98 154.147 26.128 154.307 26.24C154.475 26.352 154.687 26.448 154.943 26.528C155.199 26.6 155.471 26.68 155.759 26.768C156.047 26.856 156.319 26.972 156.575 27.116C156.839 27.26 157.051 27.452 157.211 27.692C157.379 27.932 157.463 28.248 157.463 28.64C157.463 29.072 157.347 29.432 157.115 29.72C156.883 30 156.575 30.212 156.191 30.356C155.807 30.492 155.387 30.56 154.931 30.56C154.451 30.56 153.971 30.484 153.491 30.332C153.019 30.18 152.615 29.956 152.279 29.66L152.819 28.616C153.115 28.872 153.463 29.072 153.863 29.216C154.271 29.352 154.647 29.42 154.991 29.42C155.175 29.42 155.339 29.396 155.483 29.348C155.627 29.3 155.739 29.232 155.819 29.144C155.899 29.048 155.939 28.924 155.939 28.772C155.939 28.564 155.859 28.404 155.699 28.292C155.539 28.172 155.331 28.072 155.075 27.992C154.827 27.904 154.559 27.82 154.271 27.74C153.983 27.652 153.711 27.54 153.455 27.404C153.207 27.26 153.003 27.072 152.843 26.84C152.683 26.608 152.603 26.3 152.603 25.916C152.603 25.484 152.715 25.128 152.939 24.848C153.163 24.568 153.459 24.364 153.827 24.236C154.195 24.1 154.595 24.032 155.027 24.032C155.443 24.032 155.859 24.092 156.275 24.212C156.691 24.324 157.059 24.484 157.379 24.692L156.815 25.772ZM165.839 25.772C165.527 25.588 165.203 25.448 164.867 25.352C164.531 25.248 164.227 25.196 163.955 25.196C163.699 25.196 163.491 25.244 163.331 25.34C163.171 25.428 163.091 25.58 163.091 25.796C163.091 25.98 163.171 26.128 163.331 26.24C163.499 26.352 163.711 26.448 163.967 26.528C164.223 26.6 164.495 26.68 164.783 26.768C165.071 26.856 165.343 26.972 165.599 27.116C165.863 27.26 166.075 27.452 166.235 27.692C166.403 27.932 166.487 28.248 166.487 28.64C166.487 29.072 166.371 29.432 166.139 29.72C165.907 30 165.599 30.212 165.215 30.356C164.831 30.492 164.411 30.56 163.955 30.56C163.475 30.56 162.995 30.484 162.515 30.332C162.043 30.18 161.639 29.956 161.303 29.66L161.843 28.616C162.139 28.872 162.487 29.072 162.887 29.216C163.295 29.352 163.671 29.42 164.015 29.42C164.199 29.42 164.363 29.396 164.507 29.348C164.651 29.3 164.763 29.232 164.843 29.144C164.923 29.048 164.963 28.924 164.963 28.772C164.963 28.564 164.883 28.404 164.723 28.292C164.563 28.172 164.355 28.072 164.099 27.992C163.851 27.904 163.583 27.82 163.295 27.74C163.007 27.652 162.735 27.54 162.479 27.404C162.231 27.26 162.027 27.072 161.867 26.84C161.707 26.608 161.627 26.3 161.627 25.916C161.627 25.484 161.739 25.128 161.963 24.848C162.187 24.568 162.483 24.364 162.851 24.236C163.219 24.1 163.619 24.032 164.051 24.032C164.467 24.032 164.883 24.092 165.299 24.212C165.715 24.324 166.083 24.484 166.403 24.692L165.839 25.772ZM172.156 26.816C172.14 26.48 172.064 26.196 171.928 25.964C171.792 25.724 171.6 25.54 171.352 25.412C171.112 25.276 170.836 25.208 170.524 25.208C170.164 25.208 169.852 25.292 169.588 25.46C169.324 25.628 169.116 25.864 168.964 26.168C168.82 26.472 168.748 26.824 168.748 27.224C168.748 27.664 168.828 28.044 168.988 28.364C169.156 28.684 169.384 28.932 169.672 29.108C169.96 29.276 170.292 29.36 170.668 29.36C171.348 29.36 171.928 29.116 172.408 28.628L173.236 29.456C172.916 29.808 172.528 30.08 172.072 30.272C171.616 30.464 171.108 30.56 170.548 30.56C169.876 30.56 169.292 30.424 168.796 30.152C168.308 29.872 167.924 29.492 167.644 29.012C167.372 28.524 167.236 27.956 167.236 27.308C167.236 26.66 167.372 26.092 167.644 25.604C167.924 25.116 168.308 24.736 168.796 24.464C169.292 24.192 169.86 24.052 170.5 24.044C171.26 24.044 171.872 24.2 172.336 24.512C172.808 24.824 173.144 25.264 173.344 25.832C173.544 26.392 173.616 27.06 173.56 27.836H168.52V26.816H172.156ZM174.985 21.596H176.545V30.5H174.985V21.596ZM178.606 21.596H180.166V30.5H178.606V21.596Z" fill="black"/>
</g>
<g clip-path="url(#clip0_1353_877)">
<path d="M44.6565 27.1173V18.0223C44.6565 17.5252 44.7463 17.4315 45.2389 17.4315C46.2586 17.4315 47.2776 17.4315 48.2961 17.4315C48.7163 17.4315 48.8262 17.5455 48.8262 17.9793C48.8262 24.064 48.8262 30.1484 48.8262 36.2326C48.8262 36.679 48.7155 36.7904 48.2745 36.7913C47.2554 36.7913 46.2364 36.7913 45.2173 36.7913C44.7571 36.7913 44.6581 36.6875 44.6581 36.2098C44.6565 33.1798 44.6559 30.149 44.6565 27.1173Z" fill="#FFF9ED"/>
<path d="M39.1528 29.0745C39.1528 26.7282 39.1528 24.3818 39.1528 22.0355C39.1528 21.5409 39.246 21.4447 39.7352 21.4447C40.7338 21.4447 41.7323 21.4447 42.7308 21.4447C43.2052 21.4447 43.3092 21.5426 43.3092 22.0085C43.3092 26.7434 43.3092 31.4782 43.3092 36.2131C43.3092 36.6874 43.2101 36.7836 42.74 36.7845H39.7119C39.2476 36.7845 39.1528 36.6857 39.1528 36.2055C39.1522 33.8293 39.1522 31.4523 39.1528 29.0745Z" fill="#FFF9ED"/>
<path d="M33.8052 30.6275C33.8052 28.7651 33.8052 26.9026 33.8052 25.0402C33.8052 24.5271 33.9034 24.4258 34.401 24.4249H37.3966C37.8668 24.4249 37.9741 24.5313 37.9741 24.9929V36.2326C37.9741 36.6858 37.8693 36.793 37.4274 36.7938C36.3978 36.7938 35.3688 36.7938 34.3403 36.7938C33.9242 36.7938 33.8077 36.6765 33.8069 36.2477C33.8047 34.3741 33.8041 32.5006 33.8052 30.6275Z" fill="#FFF9ED"/>
<path d="M45.7419 13.5566C45.3566 13.4638 45.0221 13.3878 44.6909 13.3034C44.3955 13.2266 44.2657 13.0502 44.3448 12.8114C44.428 12.5523 44.6244 12.5118 44.8723 12.5725C45.4673 12.7177 46.0672 12.846 46.6639 12.9869C47.0275 13.0713 47.1132 13.2216 47.0292 13.6064C46.9016 14.191 46.7707 14.7751 46.6364 15.3586C46.5599 15.6962 46.3959 15.8329 46.1621 15.7806C45.9283 15.7283 45.8293 15.5358 45.9017 15.2033C45.9632 14.9079 46.0315 14.6125 46.0989 14.3112C45.9549 14.3002 45.885 14.3905 45.8035 14.4454C42.8633 16.4254 39.9232 18.4083 36.9831 20.3939C36.6827 20.5982 36.4497 20.6159 36.1368 20.4235C34.9552 19.6976 33.7561 19.0038 32.572 18.2831C32.3557 18.1522 32.2067 18.1489 31.9895 18.2923C28.6988 20.4806 25.4034 22.6623 22.1032 24.8376C22.0341 24.8832 21.9651 24.9313 21.8927 24.9726C21.693 25.0866 21.5024 25.0722 21.3734 24.8722C21.2361 24.6587 21.301 24.4721 21.5041 24.3304L21.6073 24.2637C25.035 21.9967 28.4617 19.7286 31.8872 17.4593C32.1485 17.2905 32.359 17.2804 32.6278 17.4433C33.8485 18.1835 35.0808 18.9043 36.3049 19.6377C36.4713 19.7356 36.5845 19.7499 36.7509 19.6377C39.691 17.6503 42.6312 15.6669 45.5713 13.6875C45.6129 13.6596 45.652 13.6292 45.7419 13.5566Z" fill="#FFF9ED"/>
<path d="M40.3677 13.1684C40.3693 13.7967 40.1872 14.4114 39.8445 14.9347C39.5017 15.458 39.0137 15.8665 38.4421 16.1085C37.8704 16.3505 37.2409 16.4152 36.633 16.2943C36.0252 16.1735 35.4663 15.8725 35.0271 15.4295C34.5878 14.9864 34.288 14.4213 34.1654 13.8054C34.0429 13.1895 34.1031 12.5507 34.3385 11.9695C34.5739 11.3884 34.9739 10.8911 35.488 10.5405C36.002 10.19 36.607 10.0019 37.2264 10C37.6379 9.99847 38.0456 10.0792 38.4263 10.2377C38.807 10.3961 39.1531 10.6292 39.4449 10.9235C39.7366 11.2178 39.9683 11.5675 40.1267 11.9527C40.285 12.338 40.3669 12.7511 40.3677 13.1684ZM38.4746 12.3632C38.4602 12.1619 38.3919 11.9683 38.2771 11.8034C38.1623 11.6384 38.0053 11.5084 37.8231 11.4272C37.6566 11.3471 37.5892 11.2534 37.6059 11.0711C37.6292 10.8077 37.5393 10.6077 37.2514 10.5773C37.0151 10.552 36.8645 10.7461 36.8611 11.0728C36.8611 11.2289 36.847 11.3344 36.6731 11.4154C36.242 11.6163 35.9966 11.9758 35.9982 12.4628C35.9982 12.9211 36.3011 13.1777 36.6731 13.3676C36.9602 13.5145 37.2556 13.652 37.5326 13.8115C37.7823 13.9533 37.7823 14.1567 37.551 14.3255C37.2348 14.5568 36.8303 14.3964 36.7405 13.9879C36.6847 13.7347 36.5474 13.614 36.302 13.6563C36.0565 13.6985 35.9741 13.8909 36.0049 14.128C36.0228 14.3126 36.0866 14.4895 36.1902 14.6422C36.2938 14.795 36.4339 14.9186 36.5974 15.0016C36.7638 15.086 36.8819 15.1611 36.8695 15.3907C36.857 15.6202 37.0059 15.7679 37.2439 15.762C37.4819 15.7561 37.6075 15.611 37.6034 15.3755C37.6034 15.2109 37.6392 15.1223 37.8031 15.0379C38.2191 14.8404 38.4613 14.4977 38.4688 14.02C38.4763 13.5423 38.1875 13.2959 37.8214 13.1001C37.5368 12.9481 37.2456 12.8089 36.961 12.6578C36.852 12.6004 36.7238 12.5388 36.7513 12.381C36.7638 12.3134 36.7934 12.2503 36.8371 12.1977C36.8809 12.1452 36.9373 12.1051 37.0009 12.0813C37.3321 11.9412 37.6425 12.1016 37.7257 12.473C37.7781 12.6991 37.9079 12.8384 38.1418 12.8106C38.3756 12.7827 38.4788 12.6274 38.4746 12.3632Z" fill="#FFF9ED"/>
<path d="M35.4788 39.0001H21.6258C21.1731 39.0001 20.9975 38.8929 21 38.6186C21.0025 38.3443 21.1764 38.2413 21.6316 38.2413H49.3701C49.812 38.2413 50.0025 38.3578 50 38.6245C49.9975 38.8912 49.8128 39.0001 49.3643 39.0001H35.4788Z" fill="#FFF9ED"/>
<path d="M29.9796 31.09C29.4421 31.0638 28.9295 30.9912 28.4743 30.7043C27.9634 30.3827 27.9517 29.9556 28.4835 29.6695C29.477 29.1336 30.4997 29.1378 31.4915 29.6746C32.0191 29.9599 32.0025 30.3903 31.4915 30.7085C31.0222 30.9963 30.4988 31.0672 29.9796 31.09Z" fill="#FFF9ED"/>
<path d="M31.8477 31.4218C31.9451 32.1316 31.8161 32.3772 31.1613 32.6194C30.3083 32.9359 29.4521 32.9266 28.6208 32.5392C28.1557 32.3232 28.0325 32.0615 28.0858 31.5551C28.0974 31.4395 28.1082 31.3745 28.2522 31.4412C29.4346 31.9982 30.6146 31.9797 31.7912 31.4167C31.8036 31.41 31.8278 31.4193 31.8477 31.4218Z" fill="#FFF9ED"/>
<path d="M23.2199 33.3967C22.7615 33.4053 22.3077 33.3032 21.896 33.0987C21.4799 32.8793 21.46 32.5839 21.8793 32.3653C22.7672 31.9028 23.6784 31.9036 24.5646 32.3729C24.954 32.5788 24.9423 32.8362 24.5646 33.0726C24.1535 33.33 23.6925 33.3916 23.2199 33.3967Z" fill="#FFF9ED"/>
<path d="M29.9642 34.515C29.465 34.5032 29.0015 34.4205 28.5704 34.1901C28.3988 34.112 28.254 33.9839 28.1544 33.8221C28.0495 33.628 28.0254 33.379 28.1186 33.2178C28.1977 33.081 28.3782 33.2752 28.5105 33.3233C29.5615 33.7039 30.6033 33.7031 31.6276 33.2389C31.8423 33.1418 31.8681 33.1764 31.8831 33.4001C31.9081 33.7697 31.7425 33.9909 31.4462 34.1597C30.9802 34.4247 30.4743 34.5082 29.9642 34.515Z" fill="#FFF9ED"/>
<path d="M28.1233 34.8484C29.9823 35.4097 29.9823 35.4097 31.8487 34.8484C31.9319 35.4662 31.8321 35.6831 31.2845 35.9127C30.3867 36.2883 29.4805 36.2916 28.596 35.8696C28.1158 35.6434 28.0201 35.3987 28.1233 34.8484Z" fill="#FFF9ED"/>
<path d="M21.5984 33.817C22.6685 34.2432 23.7386 34.2964 24.8045 33.8212C24.8944 34.1335 24.8628 34.2432 24.6381 34.412C23.9807 34.9134 22.4455 34.9075 21.7898 34.412C21.5826 34.2576 21.526 34.0719 21.5984 33.817Z" fill="#FFF9ED"/>
<path d="M24.8334 35.2063C24.9166 35.5439 24.786 35.7397 24.5397 35.8621C23.6535 36.301 22.7614 36.3018 21.8769 35.8553C21.6273 35.7296 21.5074 35.5236 21.5948 35.2131C22.6682 35.6578 23.7458 35.6739 24.8334 35.2063Z" fill="#FFF9ED"/>
</g>
<defs>
<filter id="filter0_d_1353_877" x="0" y="0" width="234" height="60" filterUnits="userSpaceOnUse" color-interpolation-filters="sRGB">
<feFlood flood-opacity="0" result="BackgroundImageFix"/>
<feColorMatrix in="SourceAlpha" type="matrix" values="0 0 0 0 0 0 0 0 0 0 0 0 0 0 0 0 0 0 127 0" result="hardAlpha"/>
<feOffset dy="4"/>
<feGaussianBlur stdDeviation="2"/>
<feComposite in2="hardAlpha" operator="out"/>
<feColorMatrix type="matrix" values="0 0 0 0 0.360784 0 0 0 0 0.611765 0 0 0 0 0.933333 0 0 0 0.24 0"/>
<feBlend mode="normal" in2="BackgroundImageFix" result="effect1_dropShadow_1353_877"/>
<feBlend mode="normal" in="SourceGraphic" in2="effect1_dropShadow_1353_877" result="shape"/>
</filter>
<clipPath id="clip0_1353_877">
<rect width="29" height="29" fill="white" transform="translate(21 10)"/>
</clipPath>
</defs>
</svg>
