<svg width="24" height="23" viewBox="0 0 24 23" fill="none" xmlns="http://www.w3.org/2000/svg">
<g clip-path="url(#clip0_1264_962)">
<path d="M8.71679 16.2725L11.9272 13.1989L15.0007 16.4093C15.2452 16.6647 15.5812 16.8126 15.9348 16.8203C16.2883 16.828 16.6304 16.6949 16.8859 16.4504C17.1413 16.2058 17.2891 15.8698 17.2968 15.5163C17.3045 15.1627 17.1715 14.8206 16.9269 14.5652L13.8534 11.3548L17.0638 8.28129C17.3192 8.03674 17.467 7.70074 17.4747 7.3472C17.4824 6.99366 17.3494 6.65155 17.1048 6.39611C16.8603 6.14068 16.5243 5.99285 16.1707 5.98516C15.8172 5.97746 15.4751 6.11051 15.2196 6.35506L12.0093 9.42859L8.93574 6.21821C8.6912 5.96278 8.3552 5.81495 8.00166 5.80725C7.64812 5.79956 7.306 5.93261 7.05057 6.17716C6.79514 6.4217 6.64731 6.7577 6.63961 7.11124C6.63191 7.46478 6.76497 7.8069 7.00952 8.06233L10.083 11.2727L6.87267 14.3462C6.61724 14.5908 6.46941 14.9268 6.46171 15.2803C6.45401 15.6339 6.58707 15.976 6.83161 16.2314C7.07616 16.4868 7.41216 16.6347 7.7657 16.6424C8.11924 16.6501 8.46135 16.517 8.71679 16.2725Z" fill="#FED369"/>
</g>
<defs>
<clipPath id="clip0_1264_962">
<rect width="16" height="16" fill="white" transform="translate(23.2793 11.5601) rotate(136.248)"/>
</clipPath>
</defs>
</svg>
