<svg xmlns="http://www.w3.org/2000/svg" width="633" height="433" fill="none"><path fill="#FAFAFA" d="M.724 18.826C.724 8.43 9.16 0 19.569 0h594.585C624.562 0 633 8.429 633 18.826v395.348c0 10.397-8.438 18.826-18.846 18.826H19.569C9.161 433 .724 424.571.724 414.174z"/><path fill="#000" d="M127.881 378.561v6.302q0 1.053-.65 1.689-.648.624-1.715.624-1.077 0-1.727-.636-.65-.648-.649-1.762h1.115q.012.624.318 1.015.32.393.943.392.625 0 .931-.367.307-.38.307-.955v-6.302zM129.66 383.713q0-1.028.417-1.799a3 3 0 0 1 1.139-1.211 3.17 3.17 0 0 1 1.629-.428q.882 0 1.531.379.65.38.968.954v-1.223h1.127v6.706h-1.127v-1.249q-.33.588-.992.979-.65.38-1.519.38a3.04 3.04 0 0 1-1.617-.441 3.1 3.1 0 0 1-1.139-1.236q-.417-.795-.417-1.811m5.684.012q0-.758-.306-1.321a2.1 2.1 0 0 0-.833-.857 2.2 2.2 0 0 0-1.139-.306q-.626 0-1.14.294a2.13 2.13 0 0 0-.82.857q-.306.562-.307 1.321 0 .771.307 1.346.306.563.82.869.514.294 1.14.294.624 0 1.139-.294.527-.305.833-.869.306-.575.306-1.334M141.626 380.262q1.225 0 1.984.747.759.734.759 2.129v3.953h-1.102v-3.794q0-1.004-.502-1.529-.502-.539-1.372-.539-.882 0-1.409.551-.514.55-.514 1.603v3.708h-1.115v-6.706h1.115v.954q.33-.514.894-.795a2.8 2.8 0 0 1 1.262-.282M179.928 378.561v.906h-3.712v2.876h3.014v.905h-3.014v3.843h-1.114v-8.53zM187.399 383.481q0 .318-.036.673h-5.366q.062.991.674 1.554.625.55 1.507.551.723 0 1.2-.331a1.8 1.8 0 0 0 .686-.905h1.201a2.9 2.9 0 0 1-1.078 1.578q-.809.6-2.009.6a3.4 3.4 0 0 1-1.715-.429 3.05 3.05 0 0 1-1.176-1.211q-.429-.795-.429-1.836t.416-1.823a2.9 2.9 0 0 1 1.164-1.199q.759-.428 1.74-.428.955 0 1.69.416t1.127 1.15q.405.722.404 1.64m-1.151-.233q0-.636-.282-1.089a1.77 1.77 0 0 0-.772-.697 2.3 2.3 0 0 0-1.065-.245q-.846 0-1.446.538-.588.539-.674 1.493zM189.985 381.633q.344-.6 1.005-.979.661-.38 1.507-.379a3.13 3.13 0 0 1 1.629.428 3 3 0 0 1 1.139 1.211q.417.771.417 1.799 0 1.016-.417 1.811a3.06 3.06 0 0 1-1.151 1.236 3.04 3.04 0 0 1-1.617.441q-.87 0-1.532-.38a2.6 2.6 0 0 1-.98-.966v1.236h-1.114v-9.056h1.114zm4.557 2.08q0-.759-.306-1.321a2.1 2.1 0 0 0-.833-.857 2.26 2.26 0 0 0-1.139-.294q-.612 0-1.139.306a2.2 2.2 0 0 0-.833.869q-.306.563-.307 1.309 0 .76.307 1.334a2.3 2.3 0 0 0 .833.869q.527.294 1.139.294.624 0 1.139-.294.527-.305.833-.869.306-.575.306-1.346M235.055 378.623v8.468h-1.115v-6.315l-2.817 6.315h-.784l-2.83-6.327v6.327h-1.115v-8.468h1.201l3.136 6.999 3.136-6.999zM236.529 383.713q0-1.028.416-1.799a3 3 0 0 1 1.14-1.211 3.17 3.17 0 0 1 1.629-.428q.882 0 1.531.379.65.38.968.954v-1.223h1.127v6.706h-1.127v-1.249q-.331.588-.992.979-.65.38-1.519.38a3.04 3.04 0 0 1-1.617-.441 3.1 3.1 0 0 1-1.14-1.236q-.416-.795-.416-1.811m5.684.012q0-.758-.306-1.321a2.1 2.1 0 0 0-.833-.857 2.2 2.2 0 0 0-1.14-.306q-.624 0-1.139.294a2.13 2.13 0 0 0-.821.857q-.306.562-.306 1.321 0 .771.306 1.346.307.563.821.869.515.294 1.139.294.626 0 1.14-.294.527-.305.833-.869.306-.575.306-1.334M246.338 381.474q.294-.575.833-.893.552-.32 1.336-.319v1.151h-.294q-1.875 0-1.875 2.031v3.647h-1.114v-6.706h1.114zM284.185 385.194h-3.723l-.686 1.897H278.6l3.087-8.481h1.286l3.074 8.481h-1.176zm-.318-.906-1.544-4.307-1.543 4.307zM288.508 381.621q.33-.576.979-.955.662-.391 1.532-.391.894 0 1.617.428.735.428 1.151 1.211.417.771.417 1.799 0 1.016-.417 1.811a3.06 3.06 0 0 1-1.151 1.236 3.04 3.04 0 0 1-1.617.441q-.858 0-1.519-.38a2.8 2.8 0 0 1-.992-.966v4.417h-1.115v-9.887h1.115zm4.556 2.092q0-.759-.306-1.321a2.1 2.1 0 0 0-.833-.857 2.26 2.26 0 0 0-1.139-.294q-.612 0-1.139.306a2.2 2.2 0 0 0-.833.869q-.306.563-.306 1.309 0 .76.306 1.334a2.3 2.3 0 0 0 .833.869q.527.294 1.139.294.624 0 1.139-.294.527-.305.833-.869.306-.575.306-1.346M296.786 381.474a2.14 2.14 0 0 1 .833-.893q.55-.32 1.335-.319v1.151h-.294q-1.875 0-1.874 2.031v3.647h-1.115v-6.706h1.115zM337.809 378.623v8.468h-1.115v-6.315l-2.817 6.315h-.784l-2.83-6.327v6.327h-1.115v-8.468h1.201l3.136 6.999 3.136-6.999zM339.283 383.713q0-1.028.416-1.799a3 3 0 0 1 1.14-1.211 3.17 3.17 0 0 1 1.629-.428q.882 0 1.531.379.65.38.968.954v-1.223h1.127v6.706h-1.127v-1.249q-.331.588-.992.979-.65.38-1.519.38a3.04 3.04 0 0 1-1.617-.441 3.1 3.1 0 0 1-1.14-1.236q-.416-.795-.416-1.811m5.684.012q0-.758-.306-1.321a2.1 2.1 0 0 0-.833-.857 2.2 2.2 0 0 0-1.14-.306q-.624 0-1.139.294a2.13 2.13 0 0 0-.821.857q-.306.562-.306 1.321 0 .771.306 1.346.307.563.821.869.515.294 1.139.294.625 0 1.14-.294.526-.305.833-.869.306-.575.306-1.334M353.76 380.385l-4.043 9.863h-1.151l1.323-3.231-2.708-6.632h1.238l2.107 5.433 2.082-5.433zM388.284 378.561v6.302q0 1.053-.649 1.689-.65.624-1.715.624-1.078 0-1.727-.636-.65-.648-.65-1.762h1.115q.012.624.319 1.015.318.393.943.392.624 0 .931-.367.306-.38.306-.955v-6.302zM396.433 380.385v6.706h-1.114v-.992a2.2 2.2 0 0 1-.894.808 2.76 2.76 0 0 1-1.25.282q-.784 0-1.409-.319a2.43 2.43 0 0 1-.992-.979q-.355-.648-.355-1.578v-3.928h1.102v3.781q0 .992.503 1.53.501.526 1.372.526.894 0 1.408-.551.515-.55.515-1.603v-3.683zM401.586 380.262q1.226 0 1.985.747.759.734.759 2.129v3.953h-1.102v-3.794q0-1.004-.502-1.529-.503-.539-1.372-.539-.882 0-1.409.551-.515.55-.515 1.603v3.708h-1.114v-6.706h1.114v.954q.331-.514.895-.795a2.8 2.8 0 0 1 1.261-.282M439.374 378.561v6.302q0 1.053-.649 1.689-.649.624-1.715.624-1.078 0-1.727-.636-.65-.648-.649-1.762h1.114q.013.624.319 1.015.318.393.943.392.625 0 .931-.367.306-.38.306-.955v-6.302zM447.524 380.385v6.706h-1.115v-.992q-.318.514-.894.808a2.75 2.75 0 0 1-1.25.282q-.784 0-1.408-.319a2.43 2.43 0 0 1-.993-.979q-.355-.648-.355-1.578v-3.928h1.103v3.781q0 .992.502 1.53.502.526 1.372.526.894 0 1.409-.551.514-.55.514-1.603v-3.683zM450.521 378.035v9.056h-1.115v-9.056zM486.019 385.194h-3.724l-.686 1.897h-1.176l3.087-8.481h1.287l3.074 8.481h-1.176zm-.318-.906-1.544-4.307-1.543 4.307zM495.18 380.385v6.706h-1.115v-.992q-.318.514-.894.808a2.75 2.75 0 0 1-1.249.282 3.06 3.06 0 0 1-1.409-.319 2.43 2.43 0 0 1-.992-.979q-.356-.648-.356-1.578v-3.928h1.103v3.781q0 .992.502 1.53.502.526 1.372.526.894 0 1.409-.551.514-.55.514-1.603v-3.683zM499.831 380.275q.869 0 1.519.379.661.38.98.954v-1.223h1.127v6.852q0 .918-.392 1.628a2.78 2.78 0 0 1-1.127 1.126q-.723.404-1.691.404-1.323 0-2.205-.624a2.44 2.44 0 0 1-1.041-1.701h1.102q.184.611.76.979.576.379 1.384.379.92 0 1.495-.575.588-.576.588-1.616v-1.407a2.7 2.7 0 0 1-.98.979q-.65.392-1.519.392-.895 0-1.63-.441a3.1 3.1 0 0 1-1.139-1.236q-.416-.795-.416-1.811 0-1.028.416-1.799a3.03 3.03 0 0 1 1.139-1.211 3.2 3.2 0 0 1 1.63-.428m2.499 3.45q0-.758-.307-1.321a2.1 2.1 0 0 0-.833-.857 2.2 2.2 0 0 0-1.139-.306q-.624 0-1.139.294a2.13 2.13 0 0 0-.821.857q-.306.562-.306 1.321 0 .771.306 1.346.306.563.821.869.515.294 1.139.294.625 0 1.139-.294.527-.305.833-.869.307-.575.307-1.334M536.656 387.176a3.8 3.8 0 0 1-1.519-.293 2.6 2.6 0 0 1-1.041-.833 2.15 2.15 0 0 1-.392-1.235h1.188q.061.599.49 1.015.441.404 1.274.404.796 0 1.25-.392a1.3 1.3 0 0 0 .465-1.027q0-.49-.269-.796a1.7 1.7 0 0 0-.674-.465q-.405-.159-1.09-.342a10 10 0 0 1-1.36-.441 2.26 2.26 0 0 1-.87-.685q-.355-.477-.355-1.273 0-.697.355-1.236.356-.538.992-.832.65-.294 1.483-.294 1.2 0 1.96.6.771.6.869 1.591h-1.225q-.06-.49-.514-.857-.453-.38-1.201-.379-.698 0-1.139.367-.441.355-.441 1.003 0 .465.257.759.27.294.65.453.391.147 1.09.342.845.233 1.36.465a2.2 2.2 0 0 1 .882.698q.367.465.367 1.273 0 .624-.331 1.174-.33.55-.98.894-.649.342-1.531.342M547.263 383.481q0 .318-.036.673h-5.366q.062.991.674 1.554.625.55 1.507.551.723 0 1.2-.331.49-.342.686-.905h1.201a2.9 2.9 0 0 1-1.078 1.578q-.809.6-2.009.6a3.4 3.4 0 0 1-1.715-.429 3.05 3.05 0 0 1-1.176-1.211q-.429-.795-.429-1.836t.416-1.823a2.9 2.9 0 0 1 1.164-1.199q.76-.428 1.74-.428.955 0 1.69.416t1.127 1.15q.405.722.404 1.64m-1.151-.233q0-.636-.282-1.089a1.77 1.77 0 0 0-.772-.697 2.3 2.3 0 0 0-1.065-.245q-.846 0-1.446.538-.588.539-.673 1.493zM549.85 381.621q.33-.576.98-.955.661-.391 1.531-.391.894 0 1.617.428.735.428 1.151 1.211.417.771.417 1.799 0 1.016-.417 1.811a3.05 3.05 0 0 1-1.151 1.236 3.04 3.04 0 0 1-1.617.441q-.858 0-1.519-.38a2.8 2.8 0 0 1-.992-.966v4.417h-1.115v-9.887h1.115zm4.556 2.092q0-.759-.306-1.321a2.1 2.1 0 0 0-.833-.857 2.26 2.26 0 0 0-1.139-.294q-.612 0-1.139.306a2.2 2.2 0 0 0-.833.869q-.306.563-.306 1.309 0 .76.306 1.334a2.3 2.3 0 0 0 .833.869q.527.294 1.139.294.624 0 1.139-.294.527-.305.833-.869.306-.575.306-1.346M64.663 120.351h-4.3v2.79q.282-.391.833-.636a2.8 2.8 0 0 1 1.188-.257q1.017 0 1.654.428.637.417.907 1.089.282.661.281 1.408 0 .88-.33 1.578-.33.697-1.017 1.102-.675.403-1.678.403-1.287 0-2.083-.66-.795-.661-.968-1.763h1.09q.16.698.674 1.09.515.391 1.299.391.968 0 1.458-.575.49-.588.49-1.542t-.49-1.468q-.49-.526-1.446-.526-.649 0-1.139.318a1.78 1.78 0 0 0-.698.844h-1.054v-4.993h5.329zM66.708 123.716q0-2.105.686-3.279.685-1.187 2.4-1.187 1.703 0 2.39 1.187.685 1.174.685 3.279 0 2.142-.686 3.329-.685 1.187-2.388 1.187-1.716 0-2.401-1.187-.686-1.187-.686-3.329m5.059 0q0-1.064-.147-1.798-.135-.747-.576-1.2-.429-.452-1.25-.452-.833 0-1.273.452-.429.453-.576 1.2-.135.734-.135 1.798 0 1.102.135 1.848.147.747.576 1.199.44.453 1.274.453.82 0 1.25-.453.44-.452.575-1.199.147-.746.147-1.848M74.155 121.379q0-.832.502-1.321.503-.502 1.286-.502.785 0 1.286.502.503.489.503 1.321 0 .845-.503 1.346-.501.49-1.286.49-.783 0-1.286-.49-.502-.501-.502-1.346m7.154-1.688-4.962 8.541h-1.102l4.961-8.541zm-5.366.55a.82.82 0 0 0-.661.294q-.234.282-.233.844 0 .563.233.857a.82.82 0 0 0 .661.294.82.82 0 0 0 .662-.294q.245-.306.245-.857 0-.562-.245-.844a.82.82 0 0 0-.662-.294m2.903 6.302q0-.844.503-1.334.501-.501 1.286-.501.783 0 1.274.501.502.49.502 1.334 0 .833-.502 1.334-.49.502-1.274.502-.785 0-1.286-.49-.503-.501-.503-1.346m1.777-1.138a.82.82 0 0 0-.662.294q-.245.282-.245.844 0 .55.245.845.245.28.662.281.416 0 .661-.281.245-.294.245-.845 0-.562-.245-.844a.82.82 0 0 0-.661-.294M59.069 183.844v-.845l4.3-5.947h1.335v5.825h1.225v.967h-1.225v1.97H63.6v-1.97zm4.581-5.629-3.295 4.662h3.295zM67.042 181.298q0-2.105.686-3.279.687-1.187 2.401-1.187 1.702 0 2.389 1.187.686 1.174.686 3.279 0 2.142-.686 3.329t-2.389 1.187q-1.715 0-2.4-1.187-.687-1.187-.687-3.329m5.06 0q0-1.064-.148-1.798-.135-.747-.575-1.2-.43-.452-1.25-.452-.833 0-1.274.452-.429.453-.576 1.2-.135.734-.134 1.798 0 1.103.134 1.848.147.747.576 1.199.441.453 1.274.453.82 0 1.25-.453.44-.452.575-1.199.147-.746.147-1.848M74.49 178.961q0-.832.501-1.321.502-.502 1.287-.502.783 0 1.286.502.502.489.502 1.321 0 .845-.502 1.346-.503.49-1.286.49-.784 0-1.287-.49-.501-.501-.502-1.346m7.153-1.689-4.961 8.542h-1.103l4.962-8.542zm-5.365.551a.82.82 0 0 0-.662.294q-.233.281-.233.844t.233.857q.245.294.662.293.416 0 .661-.293.245-.306.245-.857 0-.563-.245-.844a.82.82 0 0 0-.661-.294m2.903 6.302q0-.844.502-1.334.503-.501 1.286-.501.785 0 1.274.501.503.49.503 1.334 0 .833-.503 1.334-.49.502-1.274.502-.783 0-1.286-.49-.502-.501-.502-1.346m1.776-1.138a.82.82 0 0 0-.661.294q-.246.281-.246.844 0 .551.246.844.244.282.661.282t.662-.282q.245-.293.245-.844 0-.563-.246-.844a.82.82 0 0 0-.661-.294M59.23 236.776q.087-1.126.87-1.763.784-.636 2.034-.636.833 0 1.433.306.612.294.919.808.318.513.318 1.162 0 .758-.44 1.31a1.93 1.93 0 0 1-1.128.709v.062q.797.195 1.262.77.465.576.465 1.506 0 .697-.318 1.26-.318.55-.956.869t-1.53.318q-1.3 0-2.132-.673-.834-.685-.931-1.934h1.078q.085.735.6 1.2.514.465 1.372.465t1.298-.441q.454-.453.454-1.162 0-.918-.613-1.322-.612-.404-1.85-.404h-.281v-.93h.294q1.127-.012 1.702-.367.576-.367.576-1.126 0-.648-.429-1.04-.416-.391-1.2-.391-.76 0-1.225.391t-.551 1.053zM66.469 238.88q0-2.105.685-3.279.687-1.187 2.401-1.187 1.704 0 2.39 1.187.685 1.174.685 3.279 0 2.142-.686 3.329-.685 1.187-2.389 1.187-1.715 0-2.4-1.187-.686-1.187-.686-3.329m5.059 0q0-1.064-.147-1.798-.135-.747-.576-1.2-.428-.453-1.25-.452-.833 0-1.274.452-.428.453-.575 1.2-.135.734-.135 1.798 0 1.102.135 1.848.147.746.575 1.199.442.453 1.274.453.821 0 1.25-.453.441-.452.576-1.199.147-.746.147-1.848M73.916 236.543q0-.832.502-1.322.501-.501 1.286-.501.784 0 1.286.501.502.49.502 1.322 0 .845-.502 1.346-.502.49-1.286.49t-1.286-.49q-.503-.501-.503-1.346m7.153-1.689-4.96 8.542h-1.103l4.96-8.542zm-5.365.551a.82.82 0 0 0-.662.294q-.232.281-.232.844t.232.857a.82.82 0 0 0 .662.293.82.82 0 0 0 .661-.293q.245-.306.245-.857 0-.563-.245-.844a.82.82 0 0 0-.661-.294m2.903 6.302q0-.844.502-1.334.502-.501 1.287-.501.783 0 1.274.501.501.49.502 1.334 0 .832-.502 1.334-.49.502-1.274.502t-1.287-.49q-.501-.501-.502-1.346m1.776-1.138a.82.82 0 0 0-.661.294q-.245.281-.245.844 0 .551.245.844.245.282.661.282t.662-.282q.245-.293.245-.844 0-.563-.245-.844a.82.82 0 0 0-.662-.294M59.204 300.084a58 58 0 0 0 2.438-2.043 10 10 0 0 0 1.482-1.677q.612-.88.612-1.725 0-.795-.392-1.248-.38-.465-1.237-.465-.833 0-1.298.526-.454.514-.49 1.383H59.24q.048-1.371.833-2.117.783-.747 2.02-.747 1.263 0 1.998.698.747.697.747 1.921 0 1.016-.613 1.982a8.7 8.7 0 0 1-1.372 1.689 36 36 0 0 1-1.972 1.689h4.214v.93h-5.892zM66.385 296.462q0-2.105.686-3.279.686-1.187 2.4-1.187 1.703 0 2.39 1.187.685 1.174.685 3.279 0 2.141-.686 3.329-.685 1.187-2.388 1.187-1.716 0-2.401-1.187-.687-1.187-.686-3.329m5.059 0q0-1.064-.147-1.799-.135-.746-.576-1.199-.429-.453-1.25-.453-.833 0-1.273.453-.429.453-.576 1.199-.135.735-.135 1.799 0 1.101.135 1.848.147.747.576 1.199.44.453 1.274.453.82 0 1.25-.453.44-.452.575-1.199.147-.747.147-1.848M73.832 294.125q0-.832.502-1.322.502-.501 1.286-.501.785 0 1.286.501.503.49.503 1.322 0 .845-.503 1.346-.501.49-1.286.49-.784 0-1.286-.49-.502-.501-.502-1.346m7.154-1.689-4.962 8.542h-1.102l4.961-8.542zm-5.366.551a.82.82 0 0 0-.661.294q-.234.281-.233.844 0 .563.233.857a.82.82 0 0 0 .661.293.82.82 0 0 0 .662-.293q.245-.306.245-.857 0-.563-.245-.844a.82.82 0 0 0-.662-.294m2.903 6.302q0-.845.503-1.334.502-.502 1.286-.502t1.274.502q.502.49.502 1.334 0 .832-.502 1.334-.49.502-1.274.502t-1.286-.49q-.503-.501-.503-1.346m1.777-1.138a.82.82 0 0 0-.662.294q-.245.281-.245.844 0 .551.245.844.245.282.662.282.416 0 .661-.282.245-.293.245-.844 0-.563-.245-.844a.82.82 0 0 0-.661-.294M59.148 350.728v-1.016h2.303v8.848h-1.127v-7.832zM63.366 354.044q0-2.105.686-3.279.686-1.187 2.4-1.187 1.704 0 2.39 1.187.685 1.174.685 3.279 0 2.141-.686 3.329-.685 1.187-2.388 1.187-1.716 0-2.401-1.187-.687-1.188-.686-3.329m5.059 0q0-1.065-.147-1.799-.135-.746-.576-1.199-.428-.453-1.25-.453-.833 0-1.273.453-.429.453-.576 1.199-.135.734-.135 1.799 0 1.101.135 1.848.147.747.576 1.199.44.453 1.274.453.82 0 1.25-.453.44-.452.575-1.199.147-.747.147-1.848M70.813 351.707q0-.832.502-1.322.503-.501 1.286-.501.784 0 1.286.501.503.49.503 1.322 0 .845-.503 1.346-.502.489-1.286.489-.783 0-1.286-.489-.502-.501-.502-1.346m7.154-1.689-4.962 8.542h-1.102l4.961-8.542zm-5.366.551a.82.82 0 0 0-.661.294q-.233.281-.233.844t.233.857a.82.82 0 0 0 .661.293.82.82 0 0 0 .662-.293q.245-.306.245-.857 0-.563-.245-.844a.82.82 0 0 0-.662-.294m2.903 6.302q0-.845.503-1.334.501-.502 1.286-.502.783 0 1.274.502.502.49.502 1.334 0 .832-.502 1.334-.49.501-1.274.501-.785 0-1.286-.489-.503-.501-.503-1.346m1.776-1.138a.82.82 0 0 0-.661.294q-.245.281-.245.844 0 .55.245.844.245.282.662.282.416 0 .661-.282.245-.294.245-.844 0-.563-.245-.844a.82.82 0 0 0-.661-.294"/><path fill="url(#a)" d="M189.746 180.409c-24.904 0-19.635 57.107-71.707 57.107v128.181h446.174V126.135c-45.23 0-45.23 167.543-73.807 167.543s-10.528-56.162-44.374-56.162-27.09-79.848-54.258-79.848c-24.029 0-25.968 51.541-46.172 50.831-20.205-.71-24.095-82.364-49-82.364-24.904 0-29.427 111.381-55.236 111.381-31.696 0-26.716-57.107-51.62-57.107"/><path fill="#020202" d="M47.235 63.135h8.67v4.179H41.957V41.033h5.277zM61.934 43.97q-1.395 0-2.337-.867-.904-.903-.904-2.22 0-1.319.904-2.185.942-.903 2.337-.903t2.3.903q.942.867.942 2.184 0 1.319-.943 2.221-.905.867-2.299.866m2.6 2.485v20.859h-5.276v-20.86zM81.32 46.153q3.731 0 6.03 2.373 2.3 2.334 2.3 6.55v12.238h-5.277V55.792q0-2.484-1.244-3.803-1.244-1.355-3.392-1.355-2.187 0-3.468 1.355-1.245 1.319-1.244 3.803v11.522h-5.277v-20.86h5.277v2.599a7.15 7.15 0 0 1 2.676-2.109q1.659-.79 3.619-.79M114.079 56.432q0 1.13-.151 2.034H98.663q.189 2.259 1.583 3.539 1.395 1.28 3.43 1.28 2.94 0 4.184-2.523h5.691q-.904 3.012-3.468 4.97-2.562 1.92-6.294 1.92-3.015 0-5.428-1.317-2.375-1.356-3.731-3.803-1.32-2.447-1.32-5.648 0-3.238 1.32-5.685 1.319-2.448 3.694-3.765t5.465-1.318q2.978 0 5.314 1.28a8.83 8.83 0 0 1 3.656 3.652q1.32 2.334 1.32 5.384m-5.466-1.506q-.037-2.032-1.47-3.238-1.431-1.242-3.505-1.242-1.96 0-3.317 1.205-1.32 1.167-1.62 3.275zM125.63 54.136q0-3.879 1.734-6.928 1.771-3.088 4.787-4.782 3.052-1.732 6.822-1.732 4.41 0 7.727 2.259 3.316 2.26 4.636 6.25h-6.069q-.904-1.882-2.563-2.824-1.62-.94-3.769-.941-2.3 0-4.108 1.092-1.772 1.055-2.789 3.012-.98 1.958-.98 4.594 0 2.598.98 4.593 1.017 1.959 2.789 3.05 1.809 1.054 4.108 1.054 2.148 0 3.769-.941 1.659-.98 2.563-2.862h6.069q-1.32 4.029-4.636 6.288-3.28 2.222-7.727 2.222-3.77 0-6.822-1.695-3.016-1.731-4.787-4.781-1.734-3.05-1.734-6.928M167.602 46.153q2.376 0 4.222 1.055 1.846 1.016 2.865 3.05 1.055 1.995 1.055 4.819v12.237h-5.277V55.792q0-2.484-1.244-3.803-1.244-1.355-3.392-1.355-2.186 0-3.468 1.355-1.243 1.319-1.243 3.803v11.522h-5.277V39.45h5.277v9.602q1.018-1.356 2.713-2.109 1.696-.79 3.769-.79M179.405 56.809q0-3.164 1.244-5.61 1.28-2.448 3.43-3.765 2.186-1.318 4.862-1.318 2.337 0 4.071.941 1.771.942 2.827 2.372v-2.974h5.314v20.859h-5.314v-3.05q-1.018 1.468-2.827 2.448-1.772.94-4.109.94-2.638 0-4.824-1.355-2.15-1.355-3.43-3.803-1.244-2.484-1.244-5.685m16.434.075q0-1.92-.754-3.276-.754-1.392-2.036-2.108a5.34 5.34 0 0 0-2.751-.753q-1.47 0-2.714.715t-2.035 2.109q-.754 1.356-.754 3.238 0 1.883.754 3.313.791 1.395 2.035 2.147a5.27 5.27 0 0 0 2.714.753q1.47 0 2.751-.716a5.5 5.5 0 0 0 2.036-2.108q.754-1.395.754-3.314M211.584 49.693a7.46 7.46 0 0 1 2.638-2.598q1.659-.942 3.769-.942v5.535h-1.394q-2.488 0-3.77 1.167-1.243 1.168-1.243 4.067v10.392h-5.277v-20.86h5.277zM227.689 50.785v10.09q0 1.055.49 1.544.528.452 1.734.452h2.45v4.443h-3.317q-6.671 0-6.671-6.476V50.785h-2.488v-4.33h2.488v-5.159h5.314v5.159h4.674v4.33z"/><defs><linearGradient id="a" x1="316.862" x2="316.862" y1="0" y2="433" gradientUnits="userSpaceOnUse"><stop stop-color="#00F"/><stop offset="1" stop-color="#000DFF" stop-opacity="0"/></linearGradient></defs></svg>