<svg width="633" height="433" viewBox="0 0 633 433" fill="none" xmlns="http://www.w3.org/2000/svg">
<path d="M0.723633 18.8261C0.723633 8.42872 9.16116 0 19.5694 0H614.154C624.562 0 633 8.42873 633 18.8261V414.174C633 424.571 624.562 433 614.154 433H19.5694C9.16116 433 0.723633 424.571 0.723633 414.174V18.8261Z" fill="#FAFAFA"/>
<path d="M127.881 378.561V384.863C127.881 385.565 127.664 386.128 127.231 386.552C126.799 386.968 126.227 387.176 125.516 387.176C124.798 387.176 124.222 386.964 123.789 386.54C123.356 386.108 123.14 385.52 123.14 384.778H124.255C124.263 385.194 124.369 385.532 124.573 385.793C124.786 386.055 125.1 386.185 125.516 386.185C125.933 386.185 126.243 386.063 126.447 385.818C126.652 385.565 126.754 385.247 126.754 384.863V378.561H127.881Z" fill="black"/>
<path d="M129.66 383.713C129.66 383.028 129.799 382.428 130.077 381.914C130.354 381.392 130.734 380.988 131.216 380.703C131.706 380.417 132.249 380.275 132.845 380.275C133.433 380.275 133.944 380.401 134.376 380.654C134.809 380.907 135.132 381.225 135.344 381.608V380.385H136.471V387.091H135.344V385.842C135.124 386.234 134.793 386.56 134.352 386.821C133.919 387.074 133.413 387.201 132.833 387.201C132.237 387.201 131.698 387.054 131.216 386.76C130.734 386.467 130.354 386.055 130.077 385.524C129.799 384.994 129.66 384.39 129.66 383.713ZM135.344 383.725C135.344 383.22 135.242 382.779 135.038 382.404C134.834 382.029 134.556 381.743 134.205 381.547C133.862 381.343 133.482 381.241 133.066 381.241C132.649 381.241 132.269 381.339 131.926 381.535C131.583 381.731 131.31 382.016 131.106 382.392C130.902 382.767 130.799 383.207 130.799 383.713C130.799 384.227 130.902 384.676 131.106 385.059C131.31 385.435 131.583 385.724 131.926 385.928C132.269 386.124 132.649 386.222 133.066 386.222C133.482 386.222 133.862 386.124 134.205 385.928C134.556 385.724 134.834 385.435 135.038 385.059C135.242 384.676 135.344 384.231 135.344 383.725Z" fill="black"/>
<path d="M141.626 380.262C142.442 380.262 143.104 380.511 143.61 381.009C144.116 381.498 144.369 382.208 144.369 383.138V387.091H143.267V383.297C143.267 382.628 143.1 382.118 142.765 381.768C142.43 381.409 141.973 381.229 141.393 381.229C140.805 381.229 140.335 381.413 139.984 381.78C139.641 382.147 139.47 382.681 139.47 383.383V387.091H138.355V380.385H139.47V381.339C139.69 380.997 139.988 380.731 140.364 380.544C140.748 380.356 141.168 380.262 141.626 380.262Z" fill="black"/>
<path d="M179.928 378.561V379.467H176.216V382.343H179.23V383.248H176.216V387.091H175.102V378.561H179.928Z" fill="black"/>
<path d="M187.399 383.481C187.399 383.693 187.387 383.917 187.363 384.154H181.997C182.038 384.815 182.263 385.333 182.671 385.708C183.087 386.075 183.59 386.259 184.178 386.259C184.66 386.259 185.06 386.148 185.378 385.928C185.705 385.7 185.933 385.398 186.064 385.023H187.265C187.085 385.667 186.726 386.193 186.187 386.601C185.648 387.001 184.978 387.201 184.178 387.201C183.541 387.201 182.969 387.058 182.463 386.772C181.965 386.487 181.573 386.083 181.287 385.561C181.001 385.031 180.858 384.419 180.858 383.725C180.858 383.032 180.997 382.424 181.274 381.902C181.552 381.38 181.94 380.98 182.438 380.703C182.944 380.417 183.524 380.275 184.178 380.275C184.815 380.275 185.378 380.413 185.868 380.691C186.358 380.968 186.734 381.352 186.995 381.841C187.265 382.322 187.399 382.869 187.399 383.481ZM186.248 383.248C186.248 382.824 186.154 382.461 185.966 382.159C185.778 381.849 185.521 381.617 185.194 381.462C184.876 381.298 184.521 381.217 184.129 381.217C183.565 381.217 183.083 381.396 182.683 381.755C182.291 382.114 182.067 382.612 182.009 383.248H186.248Z" fill="black"/>
<path d="M189.985 381.633C190.214 381.233 190.549 380.907 190.99 380.654C191.431 380.401 191.933 380.275 192.497 380.275C193.101 380.275 193.644 380.417 194.126 380.703C194.608 380.988 194.987 381.392 195.265 381.914C195.543 382.428 195.682 383.028 195.682 383.713C195.682 384.39 195.543 384.994 195.265 385.524C194.987 386.055 194.604 386.467 194.114 386.76C193.632 387.054 193.093 387.201 192.497 387.201C191.917 387.201 191.406 387.074 190.965 386.821C190.533 386.568 190.206 386.246 189.985 385.855V387.091H188.871V378.035H189.985V381.633ZM194.542 383.713C194.542 383.207 194.44 382.767 194.236 382.392C194.032 382.016 193.754 381.731 193.403 381.535C193.06 381.339 192.68 381.241 192.264 381.241C191.856 381.241 191.476 381.343 191.125 381.547C190.782 381.743 190.504 382.033 190.292 382.416C190.088 382.791 189.985 383.228 189.985 383.725C189.985 384.231 190.088 384.676 190.292 385.059C190.504 385.435 190.782 385.724 191.125 385.928C191.476 386.124 191.856 386.222 192.264 386.222C192.68 386.222 193.06 386.124 193.403 385.928C193.754 385.724 194.032 385.435 194.236 385.059C194.44 384.676 194.542 384.227 194.542 383.713Z" fill="black"/>
<path d="M235.055 378.623V387.091H233.94V380.776L231.123 387.091H230.339L227.509 380.764V387.091H226.394V378.623H227.595L230.731 385.622L233.867 378.623H235.055Z" fill="black"/>
<path d="M236.529 383.713C236.529 383.028 236.668 382.428 236.945 381.914C237.223 381.392 237.603 380.988 238.085 380.703C238.575 380.417 239.118 380.275 239.714 380.275C240.302 380.275 240.812 380.401 241.245 380.654C241.678 380.907 242.001 381.225 242.213 381.608V380.385H243.34V387.091H242.213V385.842C241.992 386.234 241.662 386.56 241.221 386.821C240.788 387.074 240.282 387.201 239.702 387.201C239.106 387.201 238.567 387.054 238.085 386.76C237.603 386.467 237.223 386.055 236.945 385.524C236.668 384.994 236.529 384.39 236.529 383.713ZM242.213 383.725C242.213 383.22 242.111 382.779 241.907 382.404C241.703 382.029 241.425 381.743 241.074 381.547C240.731 381.343 240.351 381.241 239.934 381.241C239.518 381.241 239.138 381.339 238.795 381.535C238.452 381.731 238.179 382.016 237.974 382.392C237.77 382.767 237.668 383.207 237.668 383.713C237.668 384.227 237.77 384.676 237.974 385.059C238.179 385.435 238.452 385.724 238.795 385.928C239.138 386.124 239.518 386.222 239.934 386.222C240.351 386.222 240.731 386.124 241.074 385.928C241.425 385.724 241.703 385.435 241.907 385.059C242.111 384.676 242.213 384.231 242.213 383.725Z" fill="black"/>
<path d="M246.338 381.474C246.534 381.09 246.812 380.793 247.171 380.581C247.539 380.368 247.984 380.262 248.507 380.262V381.413H248.213C246.963 381.413 246.338 382.09 246.338 383.444V387.091H245.224V380.385H246.338V381.474Z" fill="black"/>
<path d="M284.185 385.194H280.462L279.776 387.091H278.6L281.687 378.61H282.973L286.047 387.091H284.871L284.185 385.194ZM283.867 384.288L282.323 379.981L280.78 384.288H283.867Z" fill="black"/>
<path d="M288.508 381.621C288.728 381.237 289.055 380.919 289.487 380.666C289.928 380.405 290.439 380.275 291.019 380.275C291.615 380.275 292.154 380.417 292.636 380.703C293.126 380.988 293.509 381.392 293.787 381.914C294.065 382.428 294.204 383.028 294.204 383.713C294.204 384.39 294.065 384.994 293.787 385.524C293.509 386.055 293.126 386.467 292.636 386.76C292.154 387.054 291.615 387.201 291.019 387.201C290.447 387.201 289.941 387.074 289.5 386.821C289.067 386.56 288.736 386.238 288.508 385.855V390.272H287.393V380.385H288.508V381.621ZM293.064 383.713C293.064 383.207 292.962 382.767 292.758 382.392C292.554 382.016 292.276 381.731 291.925 381.535C291.582 381.339 291.202 381.241 290.786 381.241C290.378 381.241 289.998 381.343 289.647 381.547C289.304 381.743 289.026 382.033 288.814 382.416C288.61 382.791 288.508 383.228 288.508 383.725C288.508 384.231 288.61 384.676 288.814 385.059C289.026 385.435 289.304 385.724 289.647 385.928C289.998 386.124 290.378 386.222 290.786 386.222C291.202 386.222 291.582 386.124 291.925 385.928C292.276 385.724 292.554 385.435 292.758 385.059C292.962 384.676 293.064 384.227 293.064 383.713Z" fill="black"/>
<path d="M296.786 381.474C296.982 381.09 297.259 380.793 297.619 380.581C297.986 380.368 298.431 380.262 298.954 380.262V381.413H298.66C297.41 381.413 296.786 382.09 296.786 383.444V387.091H295.671V380.385H296.786V381.474Z" fill="black"/>
<path d="M337.809 378.623V387.091H336.694V380.776L333.877 387.091H333.093L330.263 380.764V387.091H329.148V378.623H330.349L333.485 385.622L336.621 378.623H337.809Z" fill="black"/>
<path d="M339.283 383.713C339.283 383.028 339.422 382.428 339.699 381.914C339.977 381.392 340.357 380.988 340.839 380.703C341.329 380.417 341.872 380.275 342.468 380.275C343.056 380.275 343.566 380.401 343.999 380.654C344.432 380.907 344.755 381.225 344.967 381.608V380.385H346.094V387.091H344.967V385.842C344.746 386.234 344.416 386.56 343.975 386.821C343.542 387.074 343.035 387.201 342.456 387.201C341.859 387.201 341.32 387.054 340.839 386.76C340.357 386.467 339.977 386.055 339.699 385.524C339.422 384.994 339.283 384.39 339.283 383.713ZM344.967 383.725C344.967 383.22 344.865 382.779 344.661 382.404C344.456 382.029 344.179 381.743 343.828 381.547C343.485 381.343 343.105 381.241 342.688 381.241C342.272 381.241 341.892 381.339 341.549 381.535C341.206 381.731 340.933 382.016 340.728 382.392C340.524 382.767 340.422 383.207 340.422 383.713C340.422 384.227 340.524 384.676 340.728 385.059C340.933 385.435 341.206 385.724 341.549 385.928C341.892 386.124 342.272 386.222 342.688 386.222C343.105 386.222 343.485 386.124 343.828 385.928C344.179 385.724 344.456 385.435 344.661 385.059C344.865 384.676 344.967 384.231 344.967 383.725Z" fill="black"/>
<path d="M353.76 380.385L349.717 390.248H348.566L349.889 387.017L347.181 380.385H348.419L350.526 385.818L352.608 380.385H353.76Z" fill="black"/>
<path d="M388.284 378.561V384.863C388.284 385.565 388.068 386.128 387.635 386.552C387.202 386.968 386.63 387.176 385.92 387.176C385.201 387.176 384.626 386.964 384.193 386.54C383.76 386.108 383.543 385.52 383.543 384.778H384.658C384.666 385.194 384.772 385.532 384.977 385.793C385.189 386.055 385.503 386.185 385.92 386.185C386.336 386.185 386.647 386.063 386.851 385.818C387.055 385.565 387.157 385.247 387.157 384.863V378.561H388.284Z" fill="black"/>
<path d="M396.433 380.385V387.091H395.319V386.099C395.106 386.442 394.808 386.711 394.425 386.907C394.049 387.095 393.632 387.189 393.175 387.189C392.652 387.189 392.183 387.082 391.766 386.87C391.35 386.65 391.019 386.324 390.774 385.891C390.537 385.459 390.419 384.933 390.419 384.313V380.385H391.521V384.166C391.521 384.827 391.689 385.337 392.024 385.696C392.358 386.046 392.816 386.222 393.396 386.222C393.992 386.222 394.461 386.038 394.804 385.671C395.147 385.304 395.319 384.77 395.319 384.068V380.385H396.433Z" fill="black"/>
<path d="M401.586 380.262C402.403 380.262 403.065 380.511 403.571 381.009C404.077 381.498 404.33 382.208 404.33 383.138V387.091H403.228V383.297C403.228 382.628 403.06 382.118 402.726 381.768C402.391 381.409 401.933 381.229 401.354 381.229C400.766 381.229 400.296 381.413 399.945 381.78C399.602 382.147 399.43 382.681 399.43 383.383V387.091H398.316V380.385H399.43V381.339C399.651 380.997 399.949 380.731 400.325 380.544C400.708 380.356 401.129 380.262 401.586 380.262Z" fill="black"/>
<path d="M439.374 378.561V384.863C439.374 385.565 439.158 386.128 438.725 386.552C438.292 386.968 437.721 387.176 437.01 387.176C436.291 387.176 435.716 386.964 435.283 386.54C434.85 386.108 434.634 385.52 434.634 384.778H435.748C435.757 385.194 435.863 385.532 436.067 385.793C436.279 386.055 436.594 386.185 437.01 386.185C437.427 386.185 437.737 386.063 437.941 385.818C438.145 385.565 438.247 385.247 438.247 384.863V378.561H439.374Z" fill="black"/>
<path d="M447.524 380.385V387.091H446.409V386.099C446.197 386.442 445.899 386.711 445.515 386.907C445.139 387.095 444.723 387.189 444.265 387.189C443.743 387.189 443.273 387.082 442.857 386.87C442.44 386.65 442.109 386.324 441.864 385.891C441.628 385.459 441.509 384.933 441.509 384.313V380.385H442.612V384.166C442.612 384.827 442.779 385.337 443.114 385.696C443.449 386.046 443.906 386.222 444.486 386.222C445.082 386.222 445.552 386.038 445.895 385.671C446.238 385.304 446.409 384.77 446.409 384.068V380.385H447.524Z" fill="black"/>
<path d="M450.521 378.035V387.091H449.406V378.035H450.521Z" fill="black"/>
<path d="M486.019 385.194H482.295L481.609 387.091H480.433L483.52 378.61H484.807L487.881 387.091H486.705L486.019 385.194ZM485.701 384.288L484.157 379.981L482.614 384.288H485.701Z" fill="black"/>
<path d="M495.18 380.385V387.091H494.065V386.099C493.853 386.442 493.555 386.711 493.171 386.907C492.795 387.095 492.379 387.189 491.922 387.189C491.399 387.189 490.929 387.082 490.513 386.87C490.096 386.65 489.766 386.324 489.521 385.891C489.284 385.459 489.165 384.933 489.165 384.313V380.385H490.268V384.166C490.268 384.827 490.435 385.337 490.77 385.696C491.105 386.046 491.562 386.222 492.142 386.222C492.738 386.222 493.208 386.038 493.551 385.671C493.894 385.304 494.065 384.77 494.065 384.068V380.385H495.18Z" fill="black"/>
<path d="M499.831 380.275C500.41 380.275 500.917 380.401 501.35 380.654C501.791 380.907 502.117 381.225 502.33 381.608V380.385H503.457V387.237C503.457 387.849 503.326 388.392 503.065 388.865C502.803 389.346 502.428 389.722 501.938 389.991C501.456 390.26 500.892 390.395 500.247 390.395C499.365 390.395 498.63 390.187 498.042 389.771C497.454 389.354 497.107 388.787 497.001 388.07H498.103C498.226 388.477 498.479 388.804 498.863 389.049C499.247 389.301 499.708 389.428 500.247 389.428C500.86 389.428 501.358 389.236 501.742 388.853C502.134 388.469 502.33 387.931 502.33 387.237V385.83C502.109 386.222 501.782 386.548 501.35 386.809C500.917 387.07 500.41 387.201 499.831 387.201C499.234 387.201 498.691 387.054 498.201 386.76C497.72 386.467 497.34 386.055 497.062 385.524C496.785 384.994 496.646 384.39 496.646 383.713C496.646 383.028 496.785 382.428 497.062 381.914C497.34 381.392 497.72 380.988 498.201 380.703C498.691 380.417 499.234 380.275 499.831 380.275ZM502.33 383.725C502.33 383.22 502.227 382.779 502.023 382.404C501.819 382.029 501.541 381.743 501.19 381.547C500.847 381.343 500.468 381.241 500.051 381.241C499.635 381.241 499.255 381.339 498.912 381.535C498.569 381.731 498.295 382.016 498.091 382.392C497.887 382.767 497.785 383.207 497.785 383.713C497.785 384.227 497.887 384.676 498.091 385.059C498.295 385.435 498.569 385.724 498.912 385.928C499.255 386.124 499.635 386.222 500.051 386.222C500.468 386.222 500.847 386.124 501.19 385.928C501.541 385.724 501.819 385.435 502.023 385.059C502.227 384.676 502.33 384.231 502.33 383.725Z" fill="black"/>
<path d="M536.656 387.176C536.093 387.176 535.586 387.078 535.137 386.883C534.696 386.679 534.349 386.401 534.096 386.05C533.843 385.692 533.712 385.28 533.704 384.815H534.892C534.933 385.214 535.096 385.553 535.382 385.83C535.676 386.099 536.101 386.234 536.656 386.234C537.187 386.234 537.603 386.104 537.906 385.842C538.216 385.573 538.371 385.231 538.371 384.815C538.371 384.488 538.281 384.223 538.102 384.019C537.922 383.815 537.697 383.66 537.428 383.554C537.158 383.448 536.795 383.334 536.338 383.212C535.774 383.065 535.321 382.918 534.978 382.771C534.643 382.624 534.353 382.396 534.108 382.086C533.871 381.768 533.753 381.343 533.753 380.813C533.753 380.348 533.871 379.936 534.108 379.577C534.345 379.218 534.676 378.941 535.1 378.745C535.533 378.549 536.027 378.451 536.583 378.451C537.383 378.451 538.036 378.651 538.543 379.051C539.057 379.451 539.347 379.981 539.412 380.642H538.187C538.147 380.315 537.975 380.03 537.673 379.785C537.371 379.532 536.971 379.406 536.472 379.406C536.007 379.406 535.627 379.528 535.333 379.773C535.039 380.01 534.892 380.344 534.892 380.776C534.892 381.086 534.978 381.339 535.149 381.535C535.329 381.731 535.545 381.882 535.799 381.988C536.06 382.086 536.423 382.2 536.889 382.33C537.452 382.485 537.906 382.64 538.249 382.795C538.592 382.942 538.886 383.175 539.131 383.493C539.376 383.803 539.498 384.227 539.498 384.766C539.498 385.182 539.388 385.573 539.167 385.94C538.947 386.307 538.62 386.605 538.187 386.834C537.755 387.062 537.244 387.176 536.656 387.176Z" fill="black"/>
<path d="M547.263 383.481C547.263 383.693 547.251 383.917 547.227 384.154H541.861C541.902 384.815 542.127 385.333 542.535 385.708C542.952 386.075 543.454 386.259 544.042 386.259C544.524 386.259 544.924 386.148 545.242 385.928C545.569 385.7 545.798 385.398 545.928 385.023H547.129C546.949 385.667 546.59 386.193 546.051 386.601C545.512 387.001 544.842 387.201 544.042 387.201C543.405 387.201 542.833 387.058 542.327 386.772C541.829 386.487 541.437 386.083 541.151 385.561C540.865 385.031 540.722 384.419 540.722 383.725C540.722 383.032 540.861 382.424 541.138 381.902C541.416 381.38 541.804 380.98 542.302 380.703C542.809 380.417 543.388 380.275 544.042 380.275C544.679 380.275 545.242 380.413 545.732 380.691C546.222 380.968 546.598 381.352 546.859 381.841C547.129 382.322 547.263 382.869 547.263 383.481ZM546.112 383.248C546.112 382.824 546.018 382.461 545.83 382.159C545.642 381.849 545.385 381.617 545.058 381.462C544.74 381.298 544.385 381.217 543.993 381.217C543.429 381.217 542.947 381.396 542.547 381.755C542.155 382.114 541.931 382.612 541.874 383.248H546.112Z" fill="black"/>
<path d="M549.85 381.621C550.07 381.237 550.397 380.919 550.83 380.666C551.271 380.405 551.781 380.275 552.361 380.275C552.957 380.275 553.496 380.417 553.978 380.703C554.468 380.988 554.852 381.392 555.129 381.914C555.407 382.428 555.546 383.028 555.546 383.713C555.546 384.39 555.407 384.994 555.129 385.524C554.852 386.055 554.468 386.467 553.978 386.76C553.496 387.054 552.957 387.201 552.361 387.201C551.789 387.201 551.283 387.074 550.842 386.821C550.409 386.56 550.078 386.238 549.85 385.855V390.272H548.735V380.385H549.85V381.621ZM554.406 383.713C554.406 383.207 554.304 382.767 554.1 382.392C553.896 382.016 553.618 381.731 553.267 381.535C552.924 381.339 552.544 381.241 552.128 381.241C551.72 381.241 551.34 381.343 550.989 381.547C550.646 381.743 550.368 382.033 550.156 382.416C549.952 382.791 549.85 383.228 549.85 383.725C549.85 384.231 549.952 384.676 550.156 385.059C550.368 385.435 550.646 385.724 550.989 385.928C551.34 386.124 551.72 386.222 552.128 386.222C552.544 386.222 552.924 386.124 553.267 385.928C553.618 385.724 553.896 385.435 554.1 385.059C554.304 384.676 554.406 384.227 554.406 383.713Z" fill="black"/>
<path d="M64.6629 120.351H60.3632V123.141C60.551 122.88 60.8287 122.668 61.1962 122.505C61.5637 122.334 61.9598 122.248 62.3844 122.248C63.0622 122.248 63.6135 122.391 64.0381 122.676C64.4628 122.954 64.765 123.317 64.9446 123.765C65.1325 124.206 65.2264 124.675 65.2264 125.173C65.2264 125.76 65.1161 126.286 64.8956 126.751C64.6751 127.216 64.3362 127.583 63.8789 127.853C63.4297 128.122 62.8703 128.256 62.2007 128.256C61.3432 128.256 60.649 128.036 60.1182 127.596C59.5874 127.155 59.2648 126.568 59.1505 125.833H60.2407C60.3469 126.298 60.5715 126.662 60.9145 126.923C61.2575 127.184 61.6903 127.314 62.2129 127.314C62.8581 127.314 63.344 127.122 63.6706 126.739C63.9973 126.347 64.1606 125.833 64.1606 125.197C64.1606 124.561 63.9973 124.071 63.6706 123.729C63.344 123.378 62.8621 123.203 62.2252 123.203C61.7923 123.203 61.4126 123.309 61.086 123.521C60.7675 123.725 60.5347 124.006 60.3877 124.365H59.3343V119.372H64.6629V120.351Z" fill="black"/>
<path d="M66.7077 123.716C66.7077 122.313 66.9364 121.22 67.3937 120.437C67.851 119.646 68.6513 119.25 69.7946 119.25C70.9298 119.25 71.7261 119.646 72.1834 120.437C72.6407 121.22 72.8694 122.313 72.8694 123.716C72.8694 125.144 72.6407 126.254 72.1834 127.045C71.7261 127.836 70.9298 128.232 69.7946 128.232C68.6513 128.232 67.851 127.836 67.3937 127.045C66.9364 126.254 66.7077 125.144 66.7077 123.716ZM71.7669 123.716C71.7669 123.007 71.7179 122.407 71.6199 121.918C71.53 121.42 71.3381 121.02 71.0441 120.718C70.7583 120.417 70.3418 120.266 69.7946 120.266C69.2393 120.266 68.8147 120.417 68.5207 120.718C68.2349 121.02 68.0429 121.42 67.9449 121.918C67.8551 122.407 67.8102 123.007 67.8102 123.716C67.8102 124.451 67.8551 125.067 67.9449 125.564C68.0429 126.062 68.2349 126.462 68.5207 126.763C68.8147 127.065 69.2393 127.216 69.7946 127.216C70.3418 127.216 70.7583 127.065 71.0441 126.763C71.3381 126.462 71.53 126.062 71.6199 125.564C71.7179 125.067 71.7669 124.451 71.7669 123.716Z" fill="black"/>
<path d="M74.1547 121.379C74.1547 120.824 74.3221 120.384 74.657 120.058C74.9918 119.723 75.4205 119.556 75.9432 119.556C76.4658 119.556 76.8946 119.723 77.2294 120.058C77.5643 120.384 77.7317 120.824 77.7317 121.379C77.7317 121.942 77.5643 122.391 77.2294 122.725C76.8946 123.052 76.4658 123.215 75.9432 123.215C75.4205 123.215 74.9918 123.052 74.657 122.725C74.3221 122.391 74.1547 121.942 74.1547 121.379ZM81.3086 119.691L76.3474 128.232H75.245L80.2061 119.691H81.3086ZM75.9432 120.241C75.6655 120.241 75.445 120.339 75.2817 120.535C75.1265 120.723 75.049 121.004 75.049 121.379C75.049 121.754 75.1265 122.04 75.2817 122.236C75.445 122.432 75.6655 122.53 75.9432 122.53C76.2208 122.53 76.4413 122.432 76.6047 122.236C76.768 122.032 76.8497 121.746 76.8497 121.379C76.8497 121.004 76.768 120.723 76.6047 120.535C76.4413 120.339 76.2208 120.241 75.9432 120.241ZM78.8464 126.543C78.8464 125.98 79.0138 125.536 79.3486 125.209C79.6834 124.875 80.1122 124.708 80.6349 124.708C81.1575 124.708 81.5822 124.875 81.9088 125.209C82.2436 125.536 82.411 125.98 82.411 126.543C82.411 127.098 82.2436 127.543 81.9088 127.877C81.5822 128.212 81.1575 128.379 80.6349 128.379C80.1122 128.379 79.6834 128.216 79.3486 127.889C79.0138 127.555 78.8464 127.106 78.8464 126.543ZM80.6226 125.405C80.345 125.405 80.1244 125.503 79.9611 125.699C79.7978 125.887 79.7161 126.168 79.7161 126.543C79.7161 126.91 79.7978 127.192 79.9611 127.388C80.1244 127.575 80.345 127.669 80.6226 127.669C80.9003 127.669 81.1208 127.575 81.2841 127.388C81.4474 127.192 81.5291 126.91 81.5291 126.543C81.5291 126.168 81.4474 125.887 81.2841 125.699C81.1208 125.503 80.9003 125.405 80.6226 125.405Z" fill="black"/>
<path d="M59.0687 183.844V182.999L63.3683 177.052H64.7036V182.877H65.9286V183.844H64.7036V185.814H63.6011V183.844H59.0687ZM63.6501 178.215L60.3549 182.877H63.6501V178.215Z" fill="black"/>
<path d="M67.0421 181.298C67.0421 179.895 67.2708 178.802 67.7281 178.019C68.1855 177.228 68.9858 176.832 70.1291 176.832C71.2643 176.832 72.0605 177.228 72.5178 178.019C72.9751 178.802 73.2038 179.895 73.2038 181.298C73.2038 182.726 72.9751 183.836 72.5178 184.627C72.0605 185.418 71.2643 185.814 70.1291 185.814C68.9858 185.814 68.1855 185.418 67.7281 184.627C67.2708 183.836 67.0421 182.726 67.0421 181.298ZM72.1013 181.298C72.1013 180.589 72.0523 179.989 71.9543 179.5C71.8645 179.002 71.6725 178.602 71.3785 178.3C71.0927 177.999 70.6763 177.848 70.1291 177.848C69.5738 177.848 69.1491 177.999 68.8551 178.3C68.5693 178.602 68.3774 179.002 68.2794 179.5C68.1895 179.989 68.1447 180.589 68.1447 181.298C68.1447 182.033 68.1895 182.649 68.2794 183.146C68.3774 183.644 68.5693 184.044 68.8551 184.345C69.1491 184.647 69.5738 184.798 70.1291 184.798C70.6763 184.798 71.0927 184.647 71.3785 184.345C71.6725 184.044 71.8645 183.644 71.9543 183.146C72.0523 182.649 72.1013 182.033 72.1013 181.298Z" fill="black"/>
<path d="M74.4892 178.961C74.4892 178.406 74.6566 177.966 74.9914 177.64C75.3262 177.305 75.7549 177.138 76.2776 177.138C76.8002 177.138 77.229 177.305 77.5638 177.64C77.8987 177.966 78.0661 178.406 78.0661 178.961C78.0661 179.524 77.8987 179.973 77.5638 180.307C77.229 180.634 76.8002 180.797 76.2776 180.797C75.7549 180.797 75.3262 180.634 74.9914 180.307C74.6566 179.973 74.4892 179.524 74.4892 178.961ZM81.643 177.272L76.6819 185.814H75.5794L80.5405 177.272H81.643ZM76.2776 177.823C75.9999 177.823 75.7794 177.921 75.6161 178.117C75.461 178.304 75.3834 178.586 75.3834 178.961C75.3834 179.336 75.461 179.622 75.6161 179.818C75.7794 180.014 75.9999 180.111 76.2776 180.111C76.5553 180.111 76.7758 180.014 76.9391 179.818C77.1024 179.614 77.1841 179.328 77.1841 178.961C77.1841 178.586 77.1024 178.304 76.9391 178.117C76.7758 177.921 76.5553 177.823 76.2776 177.823ZM79.1808 184.125C79.1808 183.562 79.3483 183.118 79.6831 182.791C80.0179 182.457 80.4466 182.29 80.9693 182.29C81.4919 182.29 81.9166 182.457 82.2433 182.791C82.5781 183.118 82.7455 183.562 82.7455 184.125C82.7455 184.68 82.5781 185.125 82.2433 185.459C81.9166 185.793 81.4919 185.961 80.9693 185.961C80.4466 185.961 80.0179 185.798 79.6831 185.471C79.3483 185.137 79.1808 184.688 79.1808 184.125ZM80.957 182.987C80.6794 182.987 80.4589 183.085 80.2956 183.281C80.1322 183.468 80.0505 183.75 80.0505 184.125C80.0505 184.492 80.1322 184.774 80.2956 184.969C80.4589 185.157 80.6794 185.251 80.957 185.251C81.2347 185.251 81.4552 185.157 81.6185 184.969C81.7818 184.774 81.8635 184.492 81.8635 184.125C81.8635 183.75 81.7818 183.468 81.6185 183.281C81.4552 183.085 81.2347 182.987 80.957 182.987Z" fill="black"/>
<path d="M59.2305 236.776C59.2877 236.025 59.5776 235.438 60.1002 235.013C60.6229 234.589 61.3007 234.377 62.1337 234.377C62.689 234.377 63.1668 234.479 63.5669 234.683C63.9753 234.879 64.2815 235.148 64.4857 235.491C64.698 235.833 64.8041 236.221 64.8041 236.653C64.8041 237.159 64.6571 237.595 64.3631 237.963C64.0773 238.33 63.7017 238.566 63.2362 238.672V238.734C63.767 238.864 64.1876 239.121 64.4979 239.504C64.8082 239.888 64.9634 240.39 64.9634 241.01C64.9634 241.475 64.8572 241.895 64.6449 242.27C64.4326 242.637 64.1141 242.927 63.6894 243.139C63.2648 243.351 62.7544 243.457 62.1582 243.457C61.2926 243.457 60.5821 243.233 60.0267 242.784C59.4714 242.327 59.1611 241.683 59.0958 240.85H60.1737C60.2309 241.34 60.4309 241.74 60.7739 242.05C61.1169 242.36 61.5742 242.515 62.1459 242.515C62.7176 242.515 63.1504 242.368 63.4444 242.074C63.7466 241.772 63.8976 241.385 63.8976 240.912C63.8976 240.3 63.6935 239.859 63.2852 239.59C62.8768 239.321 62.2603 239.186 61.4355 239.186H61.1537V238.256H61.4477C62.199 238.248 62.7666 238.126 63.1504 237.889C63.5342 237.644 63.7262 237.269 63.7262 236.763C63.7262 236.331 63.5833 235.984 63.2974 235.723C63.0198 235.462 62.6196 235.332 62.0969 235.332C61.5906 235.332 61.1823 235.462 60.8719 235.723C60.5616 235.984 60.3779 236.335 60.3207 236.776H59.2305Z" fill="black"/>
<path d="M66.4685 238.88C66.4685 237.477 66.6971 236.384 67.1544 235.601C67.6118 234.81 68.4121 234.414 69.5554 234.414C70.6906 234.414 71.4868 234.81 71.9441 235.601C72.4014 236.384 72.6301 237.477 72.6301 238.88C72.6301 240.308 72.4014 241.417 71.9441 242.209C71.4868 243 70.6906 243.396 69.5554 243.396C68.4121 243.396 67.6118 243 67.1544 242.209C66.6971 241.417 66.4685 240.308 66.4685 238.88ZM71.5276 238.88C71.5276 238.171 71.4786 237.571 71.3806 237.082C71.2908 236.584 71.0989 236.184 70.8049 235.882C70.5191 235.58 70.1026 235.43 69.5554 235.43C69.0001 235.43 68.5755 235.58 68.2815 235.882C67.9956 236.184 67.8037 236.584 67.7057 237.082C67.6159 237.571 67.571 238.171 67.571 238.88C67.571 239.615 67.6159 240.23 67.7057 240.728C67.8037 241.226 67.9956 241.625 68.2815 241.927C68.5755 242.229 69.0001 242.38 69.5554 242.38C70.1026 242.38 70.5191 242.229 70.8049 241.927C71.0989 241.625 71.2908 241.226 71.3806 240.728C71.4786 240.23 71.5276 239.615 71.5276 238.88Z" fill="black"/>
<path d="M73.9155 236.543C73.9155 235.988 74.0829 235.548 74.4177 235.221C74.7525 234.887 75.1813 234.72 75.7039 234.72C76.2266 234.72 76.6553 234.887 76.9901 235.221C77.325 235.548 77.4924 235.988 77.4924 236.543C77.4924 237.106 77.325 237.555 76.9901 237.889C76.6553 238.215 76.2266 238.379 75.7039 238.379C75.1813 238.379 74.7525 238.215 74.4177 237.889C74.0829 237.555 73.9155 237.106 73.9155 236.543ZM81.0693 234.854L76.1082 243.396H75.0057L79.9668 234.854H81.0693ZM75.7039 235.405C75.4263 235.405 75.2057 235.503 75.0424 235.699C74.8873 235.886 74.8097 236.168 74.8097 236.543C74.8097 236.918 74.8873 237.204 75.0424 237.4C75.2057 237.595 75.4263 237.693 75.7039 237.693C75.9816 237.693 76.2021 237.595 76.3654 237.4C76.5287 237.196 76.6104 236.91 76.6104 236.543C76.6104 236.168 76.5287 235.886 76.3654 235.699C76.2021 235.503 75.9816 235.405 75.7039 235.405ZM78.6071 241.707C78.6071 241.144 78.7746 240.7 79.1094 240.373C79.4442 240.039 79.8729 239.872 80.3956 239.872C80.9182 239.872 81.3429 240.039 81.6696 240.373C82.0044 240.7 82.1718 241.144 82.1718 241.707C82.1718 242.262 82.0044 242.706 81.6696 243.041C81.3429 243.375 80.9182 243.543 80.3956 243.543C79.8729 243.543 79.4442 243.379 79.1094 243.053C78.7746 242.719 78.6071 242.27 78.6071 241.707ZM80.3833 240.569C80.1057 240.569 79.8852 240.667 79.7219 240.863C79.5585 241.05 79.4768 241.332 79.4768 241.707C79.4768 242.074 79.5585 242.356 79.7219 242.551C79.8852 242.739 80.1057 242.833 80.3833 242.833C80.661 242.833 80.8815 242.739 81.0448 242.551C81.2081 242.356 81.2898 242.074 81.2898 241.707C81.2898 241.332 81.2081 241.05 81.0448 240.863C80.8815 240.667 80.661 240.569 80.3833 240.569Z" fill="black"/>
<path d="M59.204 300.084C60.2411 299.252 61.0537 298.571 61.6417 298.041C62.2297 297.502 62.7237 296.944 63.1239 296.364C63.5322 295.777 63.7364 295.202 63.7364 294.639C63.7364 294.109 63.6058 293.693 63.3444 293.391C63.0913 293.081 62.6788 292.926 62.1072 292.926C61.5519 292.926 61.119 293.101 60.8087 293.452C60.5065 293.795 60.3432 294.256 60.3187 294.835H59.2407C59.2734 293.921 59.551 293.215 60.0737 292.718C60.5964 292.22 61.2701 291.971 62.0949 291.971C62.9361 291.971 63.6016 292.204 64.0916 292.669C64.5898 293.134 64.8389 293.774 64.8389 294.59C64.8389 295.267 64.6347 295.928 64.2264 296.572C63.8263 297.209 63.3689 297.772 62.8544 298.261C62.3399 298.742 61.6825 299.305 60.8822 299.95H65.0961V300.88H59.204V300.084Z" fill="black"/>
<path d="M66.3847 296.462C66.3847 295.059 66.6134 293.966 67.0707 293.183C67.528 292.391 68.3284 291.996 69.4717 291.996C70.6068 291.996 71.403 292.391 71.8604 293.183C72.3177 293.966 72.5464 295.059 72.5464 296.462C72.5464 297.89 72.3177 298.999 71.8604 299.791C71.403 300.582 70.6068 300.978 69.4717 300.978C68.3284 300.978 67.528 300.582 67.0707 299.791C66.6134 298.999 66.3847 297.89 66.3847 296.462ZM71.4439 296.462C71.4439 295.753 71.3949 295.153 71.2969 294.663C71.2071 294.166 71.0152 293.766 70.7212 293.464C70.4353 293.162 70.0188 293.011 69.4717 293.011C68.9164 293.011 68.4917 293.162 68.1977 293.464C67.9119 293.766 67.7199 294.166 67.6219 294.663C67.5321 295.153 67.4872 295.753 67.4872 296.462C67.4872 297.196 67.5321 297.812 67.6219 298.31C67.7199 298.808 67.9119 299.207 68.1977 299.509C68.4917 299.811 68.9164 299.962 69.4717 299.962C70.0188 299.962 70.4353 299.811 70.7212 299.509C71.0152 299.207 71.2071 298.808 71.2969 298.31C71.3949 297.812 71.4439 297.196 71.4439 296.462Z" fill="black"/>
<path d="M73.8318 294.125C73.8318 293.57 73.9992 293.13 74.334 292.803C74.6688 292.469 75.0975 292.302 75.6202 292.302C76.1429 292.302 76.5716 292.469 76.9064 292.803C77.2412 293.13 77.4086 293.57 77.4086 294.125C77.4086 294.688 77.2412 295.137 76.9064 295.471C76.5716 295.797 76.1429 295.961 75.6202 295.961C75.0975 295.961 74.6688 295.797 74.334 295.471C73.9992 295.137 73.8318 294.688 73.8318 294.125ZM80.9856 292.436L76.0244 300.978H74.9219L79.8831 292.436H80.9856ZM75.6202 292.987C75.3425 292.987 75.122 293.085 74.9587 293.281C74.8035 293.468 74.726 293.75 74.726 294.125C74.726 294.5 74.8035 294.786 74.9587 294.982C75.122 295.177 75.3425 295.275 75.6202 295.275C75.8979 295.275 76.1183 295.177 76.2817 294.982C76.445 294.778 76.5267 294.492 76.5267 294.125C76.5267 293.75 76.445 293.468 76.2817 293.281C76.1183 293.085 75.8979 292.987 75.6202 292.987ZM78.5234 299.289C78.5234 298.726 78.6908 298.281 79.0256 297.955C79.3605 297.621 79.7892 297.453 80.3118 297.453C80.8345 297.453 81.2592 297.621 81.5858 297.955C81.9207 298.281 82.0881 298.726 82.0881 299.289C82.0881 299.844 81.9207 300.288 81.5858 300.623C81.2592 300.957 80.8345 301.125 80.3118 301.125C79.7892 301.125 79.3605 300.961 79.0256 300.635C78.6908 300.301 78.5234 299.852 78.5234 299.289ZM80.2996 298.151C80.0219 298.151 79.8015 298.249 79.6381 298.445C79.4748 298.632 79.3931 298.914 79.3931 299.289C79.3931 299.656 79.4748 299.938 79.6381 300.133C79.8015 300.321 80.0219 300.415 80.2996 300.415C80.5773 300.415 80.7977 300.321 80.9611 300.133C81.1244 299.938 81.2061 299.656 81.2061 299.289C81.2061 298.914 81.1244 298.632 80.9611 298.445C80.7977 298.249 80.5773 298.151 80.2996 298.151Z" fill="black"/>
<path d="M59.1479 350.728V349.712H61.4509V358.56H60.3239V350.728H59.1479Z" fill="black"/>
<path d="M63.3657 354.044C63.3657 352.641 63.5943 351.548 64.0517 350.765C64.509 349.973 65.3093 349.578 66.4526 349.578C67.5878 349.578 68.384 349.973 68.8413 350.765C69.2986 351.548 69.5273 352.641 69.5273 354.044C69.5273 355.472 69.2986 356.581 68.8413 357.373C68.384 358.164 67.5878 358.56 66.4526 358.56C65.3093 358.56 64.509 358.164 64.0517 357.373C63.5943 356.581 63.3657 355.472 63.3657 354.044ZM68.4248 354.044C68.4248 353.334 68.3758 352.735 68.2778 352.245C68.188 351.748 67.9961 351.348 67.7021 351.046C67.4163 350.744 66.9998 350.593 66.4526 350.593C65.8973 350.593 65.4726 350.744 65.1786 351.046C64.8928 351.348 64.7009 351.748 64.6029 352.245C64.5131 352.735 64.4682 353.334 64.4682 354.044C64.4682 354.778 64.5131 355.394 64.6029 355.892C64.7009 356.39 64.8928 356.789 65.1786 357.091C65.4726 357.393 65.8973 357.544 66.4526 357.544C66.9998 357.544 67.4163 357.393 67.7021 357.091C67.9961 356.789 68.188 356.39 68.2778 355.892C68.3758 355.394 68.4248 354.778 68.4248 354.044Z" fill="black"/>
<path d="M70.8127 351.707C70.8127 351.152 70.9801 350.712 71.3149 350.385C71.6497 350.051 72.0785 349.884 72.6011 349.884C73.1238 349.884 73.5525 350.051 73.8874 350.385C74.2222 350.712 74.3896 351.152 74.3896 351.707C74.3896 352.27 74.2222 352.719 73.8874 353.053C73.5525 353.379 73.1238 353.542 72.6011 353.542C72.0785 353.542 71.6497 353.379 71.3149 353.053C70.9801 352.719 70.8127 352.27 70.8127 351.707ZM77.9666 350.018L73.0054 358.56H71.9029L76.864 350.018H77.9666ZM72.6011 350.569C72.3235 350.569 72.103 350.667 71.9396 350.863C71.7845 351.05 71.7069 351.332 71.7069 351.707C71.7069 352.082 71.7845 352.368 71.9396 352.564C72.103 352.759 72.3235 352.857 72.6011 352.857C72.8788 352.857 73.0993 352.759 73.2626 352.564C73.426 352.36 73.5076 352.074 73.5076 351.707C73.5076 351.332 73.426 351.05 73.2626 350.863C73.0993 350.667 72.8788 350.569 72.6011 350.569ZM75.5043 356.871C75.5043 356.308 75.6717 355.863 76.0066 355.537C76.3414 355.203 76.7701 355.035 77.2928 355.035C77.8154 355.035 78.2401 355.203 78.5667 355.537C78.9016 355.863 79.069 356.308 79.069 356.871C79.069 357.426 78.9016 357.87 78.5667 358.205C78.2401 358.539 77.8154 358.706 77.2928 358.706C76.7701 358.706 76.3414 358.543 76.0066 358.217C75.6717 357.883 75.5043 357.434 75.5043 356.871ZM77.2805 355.733C77.0029 355.733 76.7823 355.831 76.619 356.027C76.4557 356.214 76.3741 356.496 76.3741 356.871C76.3741 357.238 76.4557 357.519 76.619 357.715C76.7823 357.903 77.0029 357.997 77.2805 357.997C77.5582 357.997 77.7787 357.903 77.942 357.715C78.1053 357.519 78.187 357.238 78.187 356.871C78.187 356.496 78.1053 356.214 77.942 356.027C77.7787 355.831 77.5582 355.733 77.2805 355.733Z" fill="black"/>
<path d="M189.746 180.409C164.842 180.409 170.111 237.516 118.039 237.516V365.697H564.213V126.135C518.983 126.135 518.983 293.678 490.406 293.678C461.829 293.678 479.878 237.516 446.032 237.516C412.185 237.516 418.942 157.668 391.774 157.668C367.745 157.668 365.806 209.209 345.602 208.499C325.397 207.789 321.507 126.135 296.602 126.135C271.698 126.135 267.175 237.516 241.366 237.516C209.67 237.516 214.65 180.409 189.746 180.409Z" fill="url(#paint0_linear_963_4413)"/>
<path d="M47.235 63.1345H55.9041V67.3139H41.9582V41.0327H47.235V63.1345Z" fill="#020202"/>
<path d="M61.9342 43.9695C61.0044 43.9695 60.2255 43.6809 59.5973 43.1035C58.9942 42.5011 58.6927 41.7606 58.6927 40.8821C58.6927 40.0035 58.9942 39.2756 59.5973 38.6982C60.2255 38.0958 61.0044 37.7946 61.9342 37.7946C62.8639 37.7946 63.6303 38.0958 64.2333 38.6982C64.8615 39.2756 65.1757 40.0035 65.1757 40.8821C65.1757 41.7606 64.8615 42.5011 64.2333 43.1035C63.6303 43.6809 62.8639 43.9695 61.9342 43.9695ZM64.5349 46.4546V67.3139H59.2581V46.4546H64.5349Z" fill="#020202"/>
<path d="M81.3197 46.1534C83.8073 46.1534 85.8176 46.9441 87.3504 48.5255C88.8832 50.0817 89.6495 52.2656 89.6495 55.0769V67.3139H84.3727V55.7923C84.3727 54.1356 83.9581 52.868 83.1289 51.9895C82.2997 51.0858 81.1689 50.634 79.7366 50.634C78.2792 50.634 77.1234 51.0858 76.269 51.9895C75.4398 52.868 75.0252 54.1356 75.0252 55.7923V67.3139H69.7484V46.4546H75.0252V49.0526C75.7288 48.1489 76.6208 47.4461 77.7013 46.9441C78.8069 46.4169 80.013 46.1534 81.3197 46.1534Z" fill="#020202"/>
<path d="M114.079 56.4324C114.079 57.1855 114.028 57.8632 113.928 58.4656H98.6628C98.7885 59.9717 99.3162 61.1515 100.246 62.0049C101.176 62.8584 102.319 63.2851 103.676 63.2851C105.636 63.2851 107.03 62.4442 107.86 60.7624H113.551C112.948 62.7705 111.792 64.4272 110.083 65.7325C108.375 67.0127 106.277 67.6528 103.789 67.6528C101.779 67.6528 99.9695 67.2135 98.3613 66.3349C96.7783 65.4313 95.5344 64.1637 94.6299 62.5321C93.7504 60.9005 93.3106 59.0179 93.3106 56.8842C93.3106 54.7255 93.7504 52.8304 94.6299 51.1988C95.5093 49.5672 96.7405 48.3121 98.3236 47.4335C99.9066 46.555 101.728 46.1157 103.789 46.1157C105.774 46.1157 107.546 46.5424 109.103 47.3959C110.686 48.2493 111.905 49.4668 112.759 51.0481C113.639 52.6044 114.079 54.3992 114.079 56.4324ZM108.613 54.9263C108.588 53.5708 108.098 52.4915 107.143 51.6882C106.189 50.8599 105.02 50.4457 103.638 50.4457C102.331 50.4457 101.226 50.8473 100.321 51.6506C99.4418 52.4287 98.9016 53.5206 98.7005 54.9263H108.613Z" fill="#020202"/>
<path d="M125.63 54.1356C125.63 51.5502 126.208 49.2408 127.364 47.2076C128.545 45.1493 130.14 43.5554 132.151 42.4258C134.186 41.2711 136.46 40.6938 138.973 40.6938C141.913 40.6938 144.488 41.4468 146.7 42.9529C148.911 44.459 150.456 46.5424 151.336 49.2032H145.267C144.664 47.9481 143.81 47.0068 142.704 46.3793C141.624 45.7517 140.367 45.438 138.935 45.438C137.402 45.438 136.033 45.8019 134.827 46.5299C133.646 47.2327 132.716 48.2368 132.038 49.5421C131.384 50.8473 131.058 52.3785 131.058 54.1356C131.058 55.8676 131.384 57.3988 132.038 58.7292C132.716 60.0345 133.646 61.0511 134.827 61.779C136.033 62.4819 137.402 62.8333 138.935 62.8333C140.367 62.8333 141.624 62.5195 142.704 61.892C143.81 61.2393 144.664 60.2855 145.267 59.0304H151.336C150.456 61.7163 148.911 63.8122 146.7 65.3183C144.513 66.7993 141.938 67.5398 138.973 67.5398C136.46 67.5398 134.186 66.975 132.151 65.8455C130.14 64.6908 128.545 63.0968 127.364 61.0636C126.208 59.0304 125.63 56.7211 125.63 54.1356Z" fill="#020202"/>
<path d="M167.602 46.1534C169.186 46.1534 170.593 46.5048 171.824 47.2076C173.055 47.8854 174.01 48.902 174.689 50.2575C175.392 51.5878 175.744 53.1943 175.744 55.0769V67.3139H170.467V55.7923C170.467 54.1356 170.052 52.868 169.223 51.9895C168.394 51.0858 167.263 50.634 165.831 50.634C164.374 50.634 163.218 51.0858 162.363 51.9895C161.534 52.868 161.12 54.1356 161.12 55.7923V67.3139H155.843V39.4513H161.12V49.0526C161.798 48.1489 162.703 47.4461 163.833 46.9441C164.964 46.4169 166.22 46.1534 167.602 46.1534Z" fill="#020202"/>
<path d="M179.405 56.8089C179.405 54.7004 179.82 52.8304 180.649 51.1988C181.503 49.5672 182.646 48.3121 184.079 47.4335C185.536 46.555 187.157 46.1157 188.941 46.1157C190.499 46.1157 191.856 46.4295 193.012 47.057C194.193 47.6846 195.135 48.4753 195.839 49.4291V46.4546H201.153V67.3139H195.839V64.2641C195.16 65.243 194.218 66.0588 193.012 66.7115C191.831 67.339 190.461 67.6528 188.903 67.6528C187.144 67.6528 185.536 67.2009 184.079 66.2973C182.646 65.3936 181.503 64.126 180.649 62.4944C179.82 60.8377 179.405 58.9426 179.405 56.8089ZM195.839 56.8842C195.839 55.6041 195.587 54.5121 195.085 53.6085C194.582 52.6797 193.904 51.9769 193.049 51.5C192.195 50.9979 191.278 50.7469 190.298 50.7469C189.318 50.7469 188.413 50.9854 187.584 51.4623C186.755 51.9393 186.076 52.6421 185.549 53.5708C185.046 54.4745 184.795 55.5539 184.795 56.8089C184.795 58.064 185.046 59.1685 185.549 60.1223C186.076 61.0511 186.755 61.7665 187.584 62.2685C188.438 62.7705 189.343 63.0215 190.298 63.0215C191.278 63.0215 192.195 62.7831 193.049 62.3062C193.904 61.8041 194.582 61.1013 195.085 60.1976C195.587 59.2689 195.839 58.1644 195.839 56.8842Z" fill="#020202"/>
<path d="M211.584 49.6927C212.262 48.5882 213.141 47.7222 214.222 47.0947C215.328 46.4671 216.584 46.1534 217.991 46.1534V51.6882H216.597C214.938 51.6882 213.682 52.0773 212.827 52.8555C211.998 53.6336 211.584 54.9891 211.584 56.9219V67.3139H206.307V46.4546H211.584V49.6927Z" fill="#020202"/>
<path d="M227.689 50.7846V60.8754C227.689 61.5782 227.852 62.0928 228.179 62.4191C228.531 62.7203 229.109 62.8709 229.913 62.8709H232.363V67.3139H229.046C224.598 67.3139 222.375 65.1552 222.375 60.8377V50.7846H219.887V46.4546H222.375V41.2962H227.689V46.4546H232.363V50.7846H227.689Z" fill="#020202"/>
<defs>
<linearGradient id="paint0_linear_963_4413" x1="316.862" y1="0" x2="316.862" y2="433" gradientUnits="userSpaceOnUse">
<stop stop-color="#0000FF"/>
<stop offset="1" stop-color="#000DFF" stop-opacity="0"/>
</linearGradient>
</defs>
</svg>
