<svg width="350" height="457" viewBox="0 0 350 457" fill="none" xmlns="http://www.w3.org/2000/svg">
<g filter="url(#filter0_dd_963_4412)">
<rect x="8" width="334" height="433" rx="25" fill="white"/>
</g>
<path d="M9 23.8261C9 13.4287 17.4375 5 27.8458 5H320.898C331.306 5 339.744 13.4287 339.744 23.8261V419.174C339.744 429.571 331.306 438 320.898 438H27.8458C17.4375 438 9 429.571 9 419.174V23.8261Z" fill="#FAFAFA"/>
<path d="M293.503 340.126C291.517 341.79 289.157 342.948 286.625 343.501C284.093 344.053 281.464 343.984 278.964 343.298C276.465 342.613 274.169 341.331 272.275 339.564C270.38 337.797 268.943 335.598 268.087 333.154C267.23 330.71 266.981 328.095 267.359 325.533C267.737 322.971 268.732 320.54 270.257 318.447C271.783 316.354 273.795 314.662 276.12 313.516C278.444 312.371 281.012 311.806 283.603 311.87L283.445 318.269C281.89 318.231 280.349 318.569 278.954 319.257C277.559 319.944 276.353 320.959 275.437 322.215C274.521 323.471 273.925 324.93 273.698 326.467C273.471 328.004 273.621 329.573 274.134 331.039C274.648 332.505 275.51 333.825 276.647 334.886C277.784 335.946 279.161 336.715 280.661 337.126C282.161 337.537 283.738 337.579 285.257 337.247C286.777 336.916 288.193 336.221 289.384 335.222L293.503 340.126Z" fill="#0000FF"/>
<path d="M293.503 340.126C291.517 341.79 289.157 342.948 286.625 343.501C284.093 344.053 281.464 343.984 278.964 343.298C276.465 342.613 274.169 341.331 272.275 339.564C270.38 337.797 268.943 335.598 268.087 333.154C267.23 330.71 266.981 328.095 267.359 325.533C267.737 322.971 268.732 320.54 270.257 318.447C271.783 316.354 273.795 314.662 276.12 313.516C278.444 312.371 281.012 311.806 283.603 311.87L283.445 318.269C281.89 318.231 280.349 318.569 278.954 319.257C277.559 319.944 276.353 320.959 275.437 322.215C274.521 323.471 273.925 324.93 273.698 326.467C273.471 328.004 273.621 329.573 274.134 331.039C274.648 332.505 275.51 333.825 276.647 334.886C277.784 335.946 279.161 336.715 280.661 337.126C282.161 337.537 283.738 337.579 285.257 337.247C286.777 336.916 288.193 336.221 289.384 335.222L293.503 340.126Z" fill="url(#paint0_linear_963_4412)" fill-opacity="0.2"/>
<path d="M283.206 311.865C286.374 311.865 289.472 312.804 292.106 314.562C294.74 316.32 296.793 318.82 298.006 321.744C299.218 324.668 299.535 327.885 298.917 330.989C298.299 334.093 296.774 336.945 294.533 339.183C292.293 341.421 289.439 342.945 286.331 343.562C283.224 344.18 280.003 343.863 277.076 342.651C274.149 341.44 271.647 339.389 269.887 336.758C268.127 334.126 267.187 331.032 267.187 327.867H273.595C273.595 329.766 274.159 331.623 275.215 333.202C276.271 334.78 277.772 336.011 279.528 336.738C281.284 337.465 283.217 337.655 285.081 337.284C286.946 336.914 288.658 335.999 290.002 334.657C291.347 333.314 292.262 331.603 292.633 329.741C293.004 327.878 292.813 325.948 292.086 324.193C291.358 322.439 290.127 320.939 288.546 319.884C286.965 318.829 285.107 318.266 283.206 318.266V311.865Z" fill="#00D9FF"/>
<path d="M293.503 294.944C291.518 296.608 289.157 297.766 286.625 298.319C284.093 298.871 281.464 298.802 278.964 298.116C276.465 297.431 274.169 296.149 272.275 294.382C270.38 292.615 268.943 290.415 268.087 287.972C267.23 285.528 266.981 282.913 267.359 280.351C267.737 277.789 268.732 275.358 270.258 273.265C271.784 271.172 273.795 269.48 276.12 268.334C278.444 267.189 281.012 266.624 283.604 266.688L283.445 273.087C281.89 273.048 280.349 273.387 278.954 274.075C277.56 274.762 276.353 275.777 275.437 277.033C274.522 278.289 273.925 279.748 273.698 281.285C273.471 282.822 273.621 284.391 274.135 285.857C274.648 287.323 275.511 288.643 276.647 289.704C277.784 290.764 279.162 291.533 280.661 291.944C282.161 292.355 283.738 292.397 285.258 292.065C286.777 291.734 288.193 291.039 289.384 290.04L293.503 294.944Z" fill="#0000FF"/>
<path d="M293.503 294.944C291.518 296.608 289.157 297.766 286.625 298.319C284.093 298.871 281.464 298.802 278.964 298.116C276.465 297.431 274.169 296.149 272.275 294.382C270.38 292.615 268.943 290.415 268.087 287.972C267.23 285.528 266.981 282.913 267.359 280.351C267.737 277.789 268.732 275.358 270.258 273.265C271.784 271.172 273.795 269.48 276.12 268.334C278.444 267.189 281.012 266.624 283.604 266.688L283.445 273.087C281.89 273.048 280.349 273.387 278.954 274.075C277.56 274.762 276.353 275.777 275.437 277.033C274.522 278.289 273.925 279.748 273.698 281.285C273.471 282.822 273.621 284.391 274.135 285.857C274.648 287.323 275.511 288.643 276.647 289.704C277.784 290.764 279.162 291.533 280.661 291.944C282.161 292.355 283.738 292.397 285.258 292.065C286.777 291.734 288.193 291.039 289.384 290.04L293.503 294.944Z" fill="url(#paint1_linear_963_4412)" fill-opacity="0.2"/>
<path d="M283.206 266.683C285.31 266.683 287.393 267.097 289.337 267.901C291.28 268.705 293.046 269.884 294.533 271.37C296.021 272.856 297.201 274.62 298.006 276.562C298.811 278.503 299.225 280.584 299.225 282.685C299.225 284.787 298.811 286.868 298.006 288.809C297.201 290.751 296.021 292.515 294.533 294.001C293.046 295.487 291.28 296.665 289.337 297.469C287.393 298.274 285.31 298.688 283.206 298.688V292.287C284.469 292.287 285.718 292.038 286.884 291.556C288.051 291.073 289.11 290.366 290.003 289.475C290.895 288.583 291.603 287.525 292.086 286.36C292.569 285.195 292.818 283.946 292.818 282.685C292.818 281.424 292.569 280.176 292.086 279.011C291.603 277.846 290.895 276.788 290.003 275.896C289.11 275.005 288.051 274.297 286.884 273.815C285.718 273.332 284.469 273.084 283.206 273.084V266.683Z" fill="#00D9FF"/>
<path d="M285.822 255.173C282.407 255.737 278.9 255.182 275.827 253.588C272.754 251.995 270.281 249.451 268.777 246.335C267.274 243.22 266.821 239.702 267.486 236.308C268.152 232.914 269.9 229.827 272.47 227.509C275.039 225.191 278.291 223.767 281.738 223.45C285.186 223.133 288.643 223.941 291.593 225.751C294.543 227.562 296.826 230.279 298.1 233.494C299.375 236.71 299.572 240.251 298.663 243.588L292.48 241.907C293.026 239.905 292.907 237.78 292.143 235.851C291.378 233.921 290.008 232.291 288.238 231.205C286.469 230.118 284.394 229.634 282.326 229.824C280.257 230.014 278.306 230.869 276.764 232.26C275.223 233.65 274.174 235.503 273.774 237.539C273.375 239.575 273.647 241.686 274.549 243.555C275.451 245.424 276.935 246.951 278.779 247.907C280.623 248.863 282.727 249.196 284.776 248.858L285.822 255.173Z" fill="#0000FF"/>
<path d="M285.822 255.173C282.407 255.737 278.9 255.182 275.827 253.588C272.754 251.995 270.281 249.451 268.777 246.335C267.274 243.22 266.821 239.702 267.486 236.308C268.152 232.914 269.9 229.827 272.47 227.509C275.039 225.191 278.291 223.767 281.738 223.45C285.186 223.133 288.643 223.941 291.593 225.751C294.543 227.562 296.826 230.279 298.1 233.494C299.375 236.71 299.572 240.251 298.663 243.588L292.48 241.907C293.026 239.905 292.907 237.78 292.143 235.851C291.378 233.921 290.008 232.291 288.238 231.205C286.469 230.118 284.394 229.634 282.326 229.824C280.257 230.014 278.306 230.869 276.764 232.26C275.223 233.65 274.174 235.503 273.774 237.539C273.375 239.575 273.647 241.686 274.549 243.555C275.451 245.424 276.935 246.951 278.779 247.907C280.623 248.863 282.727 249.196 284.776 248.858L285.822 255.173Z" fill="url(#paint2_linear_963_4412)" fill-opacity="0.2"/>
<path d="M298.809 243.008C297.978 246.581 295.943 249.761 293.045 252.014C290.147 254.267 286.562 255.457 282.89 255.384L283.017 248.985C285.219 249.028 287.37 248.314 289.109 246.962C290.848 245.61 292.069 243.703 292.568 241.559L298.809 243.008Z" fill="#00D9FF"/>
<path d="M299.152 197.611C298.85 200.762 297.619 203.752 295.616 206.204C293.612 208.656 290.926 210.459 287.897 211.386C284.867 212.312 281.631 212.321 278.597 211.41C275.562 210.499 272.867 208.71 270.85 206.269C268.834 203.828 267.587 200.844 267.269 197.695C266.95 194.546 267.573 191.374 269.059 188.579C270.545 185.783 272.828 183.491 275.618 181.992C278.408 180.493 281.58 179.854 284.734 180.156L284.123 186.527C282.231 186.346 280.327 186.73 278.653 187.629C276.979 188.529 275.609 189.904 274.718 191.581C273.826 193.258 273.452 195.162 273.644 197.051C273.835 198.94 274.583 200.731 275.793 202.195C277.002 203.66 278.62 204.734 280.44 205.28C282.261 205.826 284.203 205.821 286.02 205.265C287.838 204.709 289.45 203.627 290.652 202.156C291.854 200.685 292.592 198.891 292.774 197.001L299.152 197.611Z" fill="#0000FF"/>
<path d="M299.152 197.611C298.85 200.762 297.619 203.752 295.616 206.204C293.612 208.656 290.926 210.459 287.897 211.386C284.867 212.312 281.631 212.321 278.597 211.41C275.562 210.499 272.867 208.71 270.85 206.269C268.834 203.828 267.587 200.844 267.269 197.695C266.95 194.546 267.573 191.374 269.059 188.579C270.545 185.783 272.828 183.491 275.618 181.992C278.408 180.493 281.58 179.854 284.734 180.156L284.123 186.527C282.231 186.346 280.327 186.73 278.653 187.629C276.979 188.529 275.609 189.904 274.718 191.581C273.826 193.258 273.452 195.162 273.644 197.051C273.835 198.94 274.583 200.731 275.793 202.195C277.002 203.66 278.62 204.734 280.44 205.28C282.261 205.826 284.203 205.821 286.02 205.265C287.838 204.709 289.45 203.627 290.652 202.156C291.854 200.685 292.592 198.891 292.774 197.001L299.152 197.611Z" fill="url(#paint3_linear_963_4412)" fill-opacity="0.2"/>
<path d="M283.206 180.083C285.699 180.083 288.158 180.664 290.386 181.78C292.615 182.896 294.552 184.517 296.043 186.512C297.534 188.508 298.539 190.824 298.976 193.276C299.414 195.727 299.273 198.247 298.564 200.635L292.421 198.815C292.846 197.382 292.931 195.87 292.668 194.399C292.406 192.928 291.803 191.539 290.908 190.341C290.013 189.144 288.851 188.172 287.514 187.502C286.177 186.832 284.702 186.483 283.206 186.483V180.083Z" fill="#00D9FF"/>
<path d="M47.6895 195.59C47.6895 196.299 47.4445 196.891 46.9545 197.364C46.4727 197.829 45.7336 198.061 44.7373 198.061H43.0958V201.622H41.9811V193.093H44.7373C45.7009 193.093 46.4318 193.326 46.93 193.791C47.4363 194.256 47.6895 194.855 47.6895 195.59ZM44.7373 197.144C45.3579 197.144 45.8152 197.009 46.1092 196.74C46.4032 196.471 46.5502 196.087 46.5502 195.59C46.5502 194.537 45.9459 194.011 44.7373 194.011H43.0958V197.144H44.7373Z" fill="black"/>
<path d="M50.1897 196.006C50.3857 195.622 50.6633 195.324 51.0226 195.112C51.3901 194.9 51.8352 194.794 52.3579 194.794V195.944H52.0639C50.8144 195.944 50.1897 196.622 50.1897 197.976V201.622H49.0749V194.917H50.1897V196.006Z" fill="black"/>
<path d="M56.5724 201.733C55.9435 201.733 55.3719 201.59 54.8574 201.304C54.3511 201.019 53.9509 200.615 53.6569 200.093C53.3711 199.563 53.2282 198.951 53.2282 198.257C53.2282 197.572 53.3752 196.968 53.6692 196.446C53.9713 195.916 54.3797 195.512 54.8941 195.235C55.4086 194.949 55.9844 194.806 56.6214 194.806C57.2583 194.806 57.8341 194.949 58.3486 195.235C58.8631 195.512 59.2673 195.912 59.5613 196.434C59.8635 196.956 60.0145 197.564 60.0145 198.257C60.0145 198.951 59.8594 199.563 59.549 200.093C59.2469 200.615 58.8345 201.019 58.3118 201.304C57.7892 201.59 57.2093 201.733 56.5724 201.733ZM56.5724 200.754C56.9725 200.754 57.3482 200.66 57.6993 200.472C58.0505 200.285 58.3322 200.003 58.5446 199.628C58.7651 199.253 58.8753 198.796 58.8753 198.257C58.8753 197.719 58.7691 197.262 58.5568 196.887C58.3445 196.511 58.0668 196.234 57.7238 196.055C57.3808 195.867 57.0093 195.773 56.6091 195.773C56.2008 195.773 55.8251 195.867 55.4821 196.055C55.1473 196.234 54.8778 196.511 54.6736 196.887C54.4695 197.262 54.3674 197.719 54.3674 198.257C54.3674 198.804 54.4654 199.265 54.6614 199.64C54.8656 200.015 55.135 200.297 55.4699 200.484C55.8047 200.664 56.1722 200.754 56.5724 200.754Z" fill="black"/>
<path d="M61.0637 198.245C61.0637 197.56 61.2025 196.96 61.4802 196.446C61.7579 195.924 62.1376 195.52 62.6194 195.235C63.1094 194.949 63.6566 194.806 64.2609 194.806C64.7836 194.806 65.2695 194.929 65.7186 195.174C66.1678 195.41 66.5108 195.724 66.7476 196.116V192.567H67.8746V201.622H66.7476V200.362C66.5271 200.762 66.2004 201.092 65.7676 201.353C65.3348 201.606 64.8285 201.733 64.2486 201.733C63.6525 201.733 63.1094 201.586 62.6194 201.292C62.1376 200.998 61.7579 200.586 61.4802 200.056C61.2025 199.526 61.0637 198.922 61.0637 198.245ZM66.7476 198.257C66.7476 197.751 66.6455 197.311 66.4414 196.936C66.2372 196.56 65.9595 196.275 65.6084 196.079C65.2654 195.875 64.8856 195.773 64.4691 195.773C64.0527 195.773 63.6729 195.871 63.3299 196.067C62.9869 196.263 62.7133 196.548 62.5092 196.923C62.305 197.299 62.2029 197.739 62.2029 198.245C62.2029 198.759 62.305 199.208 62.5092 199.591C62.7133 199.966 62.9869 200.256 63.3299 200.46C63.6729 200.656 64.0527 200.754 64.4691 200.754C64.8856 200.754 65.2654 200.656 65.6084 200.46C65.9595 200.256 66.2372 199.966 66.4414 199.591C66.6455 199.208 66.7476 198.763 66.7476 198.257Z" fill="black"/>
<path d="M75.7117 194.917V201.622H74.597V200.631C74.3847 200.974 74.0866 201.243 73.7028 201.439C73.3271 201.627 72.9106 201.72 72.4533 201.72C71.9307 201.72 71.4611 201.614 71.0446 201.402C70.6281 201.182 70.2974 200.856 70.0524 200.423C69.8155 199.991 69.6971 199.465 69.6971 198.845V194.917H70.7996V198.698C70.7996 199.359 70.967 199.868 71.3018 200.227C71.6367 200.578 72.094 200.754 72.6738 200.754C73.27 200.754 73.7395 200.57 74.0825 200.203C74.4255 199.836 74.597 199.301 74.597 198.6V194.917H75.7117Z" fill="black"/>
<path d="M77.1774 198.257C77.1774 197.564 77.3162 196.96 77.5939 196.446C77.8716 195.924 78.2554 195.52 78.7454 195.235C79.2435 194.949 79.8111 194.806 80.4481 194.806C81.2729 194.806 81.9507 195.006 82.4816 195.406C83.0205 195.806 83.3758 196.361 83.5473 197.07H82.3468C82.2325 196.662 82.0079 196.34 81.6731 196.104C81.3464 195.867 80.9381 195.749 80.4481 195.749C79.8111 195.749 79.2966 195.969 78.9046 196.409C78.5126 196.842 78.3166 197.458 78.3166 198.257C78.3166 199.065 78.5126 199.689 78.9046 200.13C79.2966 200.57 79.8111 200.79 80.4481 200.79C80.9381 200.79 81.3464 200.676 81.6731 200.448C81.9997 200.219 82.2243 199.893 82.3468 199.469H83.5473C83.3676 200.154 83.0083 200.705 82.4693 201.121C81.9303 201.529 81.2566 201.733 80.4481 201.733C79.8111 201.733 79.2435 201.59 78.7454 201.304C78.2554 201.019 77.8716 200.615 77.5939 200.093C77.3162 199.571 77.1774 198.959 77.1774 198.257Z" fill="black"/>
<path d="M86.3944 195.834V199.787C86.3944 200.113 86.4638 200.346 86.6026 200.484C86.7415 200.615 86.9824 200.68 87.3254 200.68H88.1461V201.622H87.1416C86.521 201.622 86.0555 201.48 85.7452 201.194C85.4348 200.909 85.2797 200.44 85.2797 199.787V195.834H84.4099V194.917H85.2797V193.228H86.3944V194.917H88.1461V195.834H86.3944Z" fill="black"/>
<path d="M44.3575 245.195C43.843 245.195 43.3816 245.109 42.9733 244.938C42.565 244.758 42.2424 244.514 42.0056 244.204C41.7687 243.886 41.6381 243.523 41.6136 243.115H42.7651C42.7977 243.449 42.9529 243.722 43.2305 243.935C43.5164 244.147 43.888 244.253 44.3453 244.253C44.7699 244.253 45.1048 244.159 45.3498 243.971C45.5947 243.784 45.7172 243.547 45.7172 243.261C45.7172 242.968 45.5866 242.752 45.3253 242.613C45.0639 242.466 44.6597 242.323 44.1125 242.185C43.6144 242.054 43.206 241.924 42.8876 241.793C42.5772 241.654 42.3077 241.455 42.0791 241.193C41.8586 240.924 41.7483 240.573 41.7483 240.141C41.7483 239.798 41.8504 239.484 42.0546 239.199C42.2587 238.913 42.5486 238.689 42.9243 238.526C43.3 238.354 43.7287 238.269 44.2105 238.269C44.9537 238.269 45.5539 238.456 46.0112 238.832C46.4686 239.207 46.7136 239.721 46.7462 240.374H45.6315C45.607 240.023 45.4641 239.741 45.2028 239.529C44.9496 239.317 44.6066 239.211 44.1738 239.211C43.7736 239.211 43.4551 239.297 43.2183 239.468C42.9815 239.639 42.8631 239.864 42.8631 240.141C42.8631 240.361 42.9325 240.545 43.0713 240.692C43.2183 240.83 43.398 240.945 43.6103 241.034C43.8308 241.116 44.1329 241.21 44.5168 241.316C44.9986 241.446 45.3906 241.577 45.6927 241.707C45.9949 241.83 46.2522 242.017 46.4645 242.27C46.685 242.523 46.7993 242.854 46.8075 243.261C46.8075 243.629 46.7054 243.959 46.5012 244.253C46.2971 244.546 46.0072 244.779 45.6315 244.95C45.264 245.113 44.8393 245.195 44.3575 245.195Z" fill="black"/>
<path d="M47.9646 241.707C47.9646 241.022 48.1034 240.423 48.3811 239.909C48.6588 239.386 49.0385 238.983 49.5203 238.697C50.0103 238.412 50.5534 238.269 51.1495 238.269C51.7375 238.269 52.2479 238.395 52.6808 238.648C53.1136 238.901 53.4362 239.219 53.6485 239.603V238.379H54.7755V245.085H53.6485V243.837C53.428 244.228 53.0972 244.555 52.6563 244.816C52.2234 245.068 51.7171 245.195 51.1373 245.195C50.5411 245.195 50.0021 245.048 49.5203 244.754C49.0385 244.461 48.6588 244.049 48.3811 243.518C48.1034 242.988 47.9646 242.385 47.9646 241.707ZM53.6485 241.72C53.6485 241.214 53.5464 240.773 53.3422 240.398C53.1381 240.023 52.8604 239.737 52.5093 239.541C52.1663 239.338 51.7865 239.236 51.37 239.236C50.9535 239.236 50.5738 239.333 50.2308 239.529C49.8878 239.725 49.6142 240.011 49.4101 240.386C49.2059 240.761 49.1038 241.202 49.1038 241.707C49.1038 242.221 49.2059 242.67 49.4101 243.053C49.6142 243.429 49.8878 243.718 50.2308 243.922C50.5738 244.118 50.9535 244.216 51.37 244.216C51.7865 244.216 52.1663 244.118 52.5093 243.922C52.8604 243.718 53.1381 243.429 53.3422 243.053C53.5464 242.67 53.6485 242.225 53.6485 241.72Z" fill="black"/>
<path d="M57.774 236.029V245.085H56.6593V236.029H57.774Z" fill="black"/>
<path d="M65.7987 241.475C65.7987 241.687 65.7865 241.911 65.762 242.148H60.3966C60.4374 242.809 60.662 243.327 61.0703 243.702C61.4868 244.069 61.989 244.253 62.577 244.253C63.0589 244.253 63.459 244.143 63.7775 243.922C64.1042 243.694 64.3328 243.392 64.4635 243.017H65.664C65.4843 243.661 65.125 244.187 64.586 244.595C64.047 244.995 63.3774 245.195 62.577 245.195C61.9401 245.195 61.3684 245.052 60.8621 244.767C60.3639 244.481 59.9719 244.077 59.6861 243.555C59.4003 243.025 59.2574 242.413 59.2574 241.72C59.2574 241.026 59.3962 240.418 59.6738 239.896C59.9515 239.374 60.3394 238.974 60.8376 238.697C61.3439 238.412 61.9237 238.269 62.577 238.269C63.214 238.269 63.7775 238.407 64.2675 238.685C64.7575 238.962 65.1332 239.346 65.3945 239.835C65.664 240.316 65.7987 240.863 65.7987 241.475ZM64.6472 241.242C64.6472 240.818 64.5533 240.455 64.3655 240.153C64.1777 239.843 63.9204 239.611 63.5938 239.456C63.2753 239.293 62.92 239.211 62.528 239.211C61.9645 239.211 61.4827 239.391 61.0826 239.749C60.6906 240.108 60.466 240.606 60.4088 241.242H64.6472Z" fill="black"/>
<path d="M69.6466 245.195C69.1321 245.195 68.6707 245.109 68.2624 244.938C67.854 244.758 67.5315 244.514 67.2946 244.204C67.0578 243.886 66.9271 243.523 66.9026 243.115H68.0541C68.0868 243.449 68.2419 243.722 68.5196 243.935C68.8054 244.147 69.177 244.253 69.6343 244.253C70.059 244.253 70.3938 244.159 70.6388 243.971C70.8838 243.784 71.0063 243.547 71.0063 243.261C71.0063 242.968 70.8756 242.752 70.6143 242.613C70.353 242.466 69.9487 242.323 69.4016 242.185C68.9034 242.054 68.4951 241.924 68.1766 241.793C67.8663 241.654 67.5968 241.455 67.3681 241.193C67.1476 240.924 67.0374 240.573 67.0374 240.141C67.0374 239.798 67.1395 239.484 67.3436 239.199C67.5478 238.913 67.8377 238.689 68.2134 238.526C68.589 238.354 69.0178 238.269 69.4996 238.269C70.2427 238.269 70.843 238.456 71.3003 238.832C71.7576 239.207 72.0026 239.721 72.0353 240.374H70.9206C70.8961 240.023 70.7532 239.741 70.4918 239.529C70.2387 239.317 69.8957 239.211 69.4628 239.211C69.0627 239.211 68.7442 239.297 68.5074 239.468C68.2705 239.639 68.1521 239.864 68.1521 240.141C68.1521 240.361 68.2215 240.545 68.3604 240.692C68.5074 240.83 68.687 240.945 68.8993 241.034C69.1198 241.116 69.422 241.21 69.8058 241.316C70.2877 241.446 70.6796 241.577 70.9818 241.707C71.284 241.83 71.5412 242.017 71.7535 242.27C71.974 242.523 72.0884 242.854 72.0965 243.261C72.0965 243.629 71.9945 243.959 71.7903 244.253C71.5861 244.546 71.2962 244.779 70.9206 244.95C70.5531 245.113 70.1284 245.195 69.6466 245.195Z" fill="black"/>
<path d="M42.5568 280.752C42.3445 280.752 42.1648 280.679 42.0178 280.532C41.8708 280.385 41.7973 280.206 41.7973 279.994C41.7973 279.781 41.8708 279.602 42.0178 279.455C42.1648 279.308 42.3445 279.235 42.5568 279.235C42.761 279.235 42.9325 279.308 43.0713 279.455C43.2183 279.602 43.2918 279.781 43.2918 279.994C43.2918 280.206 43.2183 280.385 43.0713 280.532C42.9325 280.679 42.761 280.752 42.5568 280.752ZM43.0958 281.841V288.547H41.9811V281.841H43.0958Z" fill="black"/>
<path d="M48.2663 281.719C49.083 281.719 49.7445 281.968 50.2508 282.465C50.7571 282.955 51.0103 283.665 51.0103 284.595V288.547H49.9078V284.754C49.9078 284.085 49.7404 283.575 49.4056 283.224C49.0707 282.865 48.6134 282.686 48.0336 282.686C47.4456 282.686 46.976 282.869 46.6249 283.236C46.2819 283.603 46.1104 284.138 46.1104 284.839V288.547H44.9957V281.841H46.1104V282.796C46.3309 282.453 46.629 282.188 47.0046 282C47.3885 281.813 47.809 281.719 48.2663 281.719Z" fill="black"/>
<path d="M52.4147 285.182C52.4147 284.489 52.5535 283.885 52.8312 283.371C53.1089 282.849 53.4927 282.445 53.9827 282.159C54.4808 281.874 55.0484 281.731 55.6854 281.731C56.5102 281.731 57.188 281.931 57.7189 282.331C58.2578 282.731 58.6131 283.285 58.7846 283.995H57.5841C57.4698 283.587 57.2452 283.265 56.9104 283.028C56.5837 282.792 56.1754 282.673 55.6854 282.673C55.0484 282.673 54.5339 282.894 54.1419 283.334C53.7499 283.767 53.5539 284.383 53.5539 285.182C53.5539 285.99 53.7499 286.614 54.1419 287.054C54.5339 287.495 55.0484 287.715 55.6854 287.715C56.1754 287.715 56.5837 287.601 56.9104 287.372C57.237 287.144 57.4616 286.818 57.5841 286.393H58.7846C58.6049 287.079 58.2456 287.629 57.7066 288.045C57.1676 288.453 56.4939 288.657 55.6854 288.657C55.0484 288.657 54.4808 288.515 53.9827 288.229C53.4927 287.943 53.1089 287.54 52.8312 287.018C52.5535 286.495 52.4147 285.884 52.4147 285.182Z" fill="black"/>
<path d="M63.1997 288.657C62.5708 288.657 61.9992 288.515 61.4847 288.229C60.9784 287.943 60.5782 287.54 60.2842 287.018C59.9984 286.487 59.8555 285.875 59.8555 285.182C59.8555 284.497 60.0025 283.893 60.2965 283.371C60.5986 282.841 61.007 282.437 61.5215 282.159C62.0359 281.874 62.6117 281.731 63.2487 281.731C63.8857 281.731 64.4614 281.874 64.9759 282.159C65.4904 282.437 65.8946 282.837 66.1886 283.359C66.4908 283.881 66.6419 284.489 66.6419 285.182C66.6419 285.875 66.4867 286.487 66.1764 287.018C65.8742 287.54 65.4618 287.943 64.9391 288.229C64.4165 288.515 63.8367 288.657 63.1997 288.657ZM63.1997 287.678C63.5998 287.678 63.9755 287.585 64.3266 287.397C64.6778 287.209 64.9595 286.928 65.1719 286.553C65.3924 286.177 65.5026 285.72 65.5026 285.182C65.5026 284.644 65.3965 284.187 65.1841 283.811C64.9718 283.436 64.6941 283.159 64.3511 282.979C64.0082 282.792 63.6366 282.698 63.2364 282.698C62.8281 282.698 62.4524 282.792 62.1094 282.979C61.7746 283.159 61.5051 283.436 61.301 283.811C61.0968 284.187 60.9947 284.644 60.9947 285.182C60.9947 285.729 61.0927 286.189 61.2887 286.565C61.4929 286.94 61.7624 287.221 62.0972 287.409C62.432 287.589 62.7995 287.678 63.1997 287.678Z" fill="black"/>
<path d="M76.1801 281.719C76.7028 281.719 77.1683 281.829 77.5766 282.049C77.9849 282.261 78.3075 282.584 78.5443 283.016C78.7811 283.448 78.8996 283.975 78.8996 284.595V288.547H77.7971V284.754C77.7971 284.085 77.6297 283.575 77.2948 283.224C76.9682 282.865 76.5231 282.686 75.9596 282.686C75.3798 282.686 74.9184 282.873 74.5754 283.249C74.2324 283.616 74.0609 284.15 74.0609 284.852V288.547H72.9584V284.754C72.9584 284.085 72.791 283.575 72.4562 283.224C72.1295 282.865 71.6844 282.686 71.121 282.686C70.5411 282.686 70.0797 282.873 69.7367 283.249C69.3937 283.616 69.2222 284.15 69.2222 284.852V288.547H68.1075V281.841H69.2222V282.808C69.4427 282.457 69.7367 282.188 70.1042 282C70.4799 281.813 70.8923 281.719 71.3415 281.719C71.9049 281.719 72.4031 281.845 72.8359 282.098C73.2687 282.351 73.5913 282.722 73.8037 283.212C73.9915 282.739 74.3018 282.372 74.7346 282.111C75.1675 281.849 75.6493 281.719 76.1801 281.719Z" fill="black"/>
<path d="M86.853 284.937C86.853 285.149 86.8407 285.374 86.8162 285.61H81.4509C81.4917 286.271 81.7163 286.789 82.1246 287.164C82.5411 287.531 83.0433 287.715 83.6313 287.715C84.1131 287.715 84.5133 287.605 84.8318 287.385C85.1584 287.156 85.3871 286.854 85.5178 286.479H86.7183C86.5386 287.124 86.1793 287.65 85.6403 288.058C85.1013 288.457 84.4316 288.657 83.6313 288.657C82.9943 288.657 82.4227 288.515 81.9163 288.229C81.4182 287.943 81.0262 287.54 80.7404 287.018C80.4545 286.487 80.3116 285.875 80.3116 285.182C80.3116 284.489 80.4505 283.881 80.7281 283.359C81.0058 282.837 81.3937 282.437 81.8918 282.159C82.3982 281.874 82.978 281.731 83.6313 281.731C84.2683 281.731 84.8318 281.87 85.3218 282.147C85.8118 282.425 86.1874 282.808 86.4488 283.297C86.7182 283.779 86.853 284.325 86.853 284.937ZM85.7015 284.705C85.7015 284.281 85.6076 283.918 85.4198 283.616C85.2319 283.306 84.9747 283.073 84.648 282.918C84.3295 282.755 83.9743 282.673 83.5823 282.673C83.0188 282.673 82.537 282.853 82.1368 283.212C81.7449 283.571 81.5203 284.068 81.4631 284.705H85.7015Z" fill="black"/>
<path d="M43.3408 326.221V330.174C43.3408 330.5 43.4102 330.733 43.549 330.871C43.6879 331.002 43.9288 331.067 44.2718 331.067H45.0925V332.009H44.088C43.4674 332.009 43.0019 331.867 42.6916 331.581C42.3812 331.296 42.2261 330.827 42.2261 330.174V326.221H41.3563V325.304H42.2261V323.615H43.3408V325.304H45.0925V326.221H43.3408Z" fill="black"/>
<path d="M47.5579 326.393C47.7539 326.009 48.0315 325.712 48.3909 325.499C48.7583 325.287 49.2034 325.181 49.7261 325.181V326.332H49.4321C48.1826 326.332 47.5579 327.009 47.5579 328.363V332.009H46.4431V325.304H47.5579V326.393Z" fill="black"/>
<path d="M50.5964 328.632C50.5964 327.947 50.7352 327.347 51.0129 326.833C51.2905 326.311 51.6703 325.907 52.1521 325.622C52.6421 325.336 53.1852 325.194 53.7813 325.194C54.3693 325.194 54.8797 325.32 55.3125 325.573C55.7454 325.826 56.0679 326.144 56.2803 326.527V325.304H57.4073V332.009H56.2803V330.761C56.0598 331.153 55.729 331.479 55.288 331.74C54.8552 331.993 54.3489 332.12 53.7691 332.12C53.1729 332.12 52.6339 331.973 52.1521 331.679C51.6703 331.385 51.2905 330.973 51.0129 330.443C50.7352 329.913 50.5964 329.309 50.5964 328.632ZM56.2803 328.644C56.2803 328.139 56.1782 327.698 55.974 327.323C55.7699 326.947 55.4922 326.662 55.141 326.466C54.7981 326.262 54.4183 326.16 54.0018 326.16C53.5853 326.16 53.2056 326.258 52.8626 326.454C52.5196 326.65 52.246 326.935 52.0419 327.311C51.8377 327.686 51.7356 328.126 51.7356 328.632C51.7356 329.146 51.8377 329.595 52.0419 329.978C52.246 330.353 52.5196 330.643 52.8626 330.847C53.2056 331.043 53.5853 331.141 54.0018 331.141C54.4183 331.141 54.7981 331.043 55.141 330.847C55.4922 330.643 55.7699 330.353 55.974 329.978C56.1782 329.595 56.2803 329.15 56.2803 328.644Z" fill="black"/>
<path d="M62.0227 326.221H60.614V332.009H59.4993V326.221H58.6296V325.304H59.4993V324.826C59.4993 324.076 59.6912 323.529 60.075 323.187C60.467 322.836 61.0918 322.66 61.9492 322.66V323.59C61.4592 323.59 61.1122 323.688 60.908 323.884C60.712 324.072 60.614 324.386 60.614 324.826V325.304H62.0227V326.221Z" fill="black"/>
<path d="M66.0541 326.221H64.6454V332.009H63.5307V326.221H62.661V325.304H63.5307V324.826C63.5307 324.076 63.7226 323.529 64.1064 323.187C64.4984 322.836 65.1232 322.66 65.9807 322.66V323.59C65.4907 323.59 65.1436 323.688 64.9394 323.884C64.7434 324.072 64.6454 324.386 64.6454 324.826V325.304H66.0541V326.221Z" fill="black"/>
<path d="M67.9296 324.215C67.7173 324.215 67.5376 324.141 67.3906 323.994C67.2436 323.847 67.1701 323.668 67.1701 323.456C67.1701 323.244 67.2436 323.064 67.3906 322.917C67.5376 322.771 67.7173 322.697 67.9296 322.697C68.1338 322.697 68.3053 322.771 68.4441 322.917C68.5911 323.064 68.6646 323.244 68.6646 323.456C68.6646 323.668 68.5911 323.847 68.4441 323.994C68.3053 324.141 68.1338 324.215 67.9296 324.215ZM68.4686 325.304V332.009H67.3539V325.304H68.4686Z" fill="black"/>
<path d="M69.952 328.644C69.952 327.951 70.0908 327.347 70.3685 326.833C70.6461 326.311 71.0299 325.907 71.5199 325.622C72.0181 325.336 72.5857 325.194 73.2227 325.194C74.0475 325.194 74.7253 325.393 75.2561 325.793C75.7951 326.193 76.1503 326.748 76.3218 327.457H75.1214C75.007 327.049 74.7824 326.727 74.4476 326.491C74.121 326.254 73.7126 326.136 73.2227 326.136C72.5857 326.136 72.0712 326.356 71.6792 326.797C71.2872 327.229 71.0912 327.845 71.0912 328.644C71.0912 329.452 71.2872 330.076 71.6792 330.517C72.0712 330.957 72.5857 331.177 73.2227 331.177C73.7126 331.177 74.121 331.063 74.4476 330.835C74.7743 330.606 74.9989 330.28 75.1214 329.856H76.3218C76.1422 330.541 75.7828 331.092 75.2439 331.508C74.7049 331.916 74.0311 332.12 73.2227 332.12C72.5857 332.12 72.0181 331.977 71.5199 331.691C71.0299 331.406 70.6461 331.002 70.3685 330.48C70.0908 329.958 69.952 329.346 69.952 328.644Z" fill="black"/>
<path d="M55.8506 72.0623C53.3881 72.0623 51.1266 71.485 49.0661 70.3303C47.0057 69.1757 45.3724 67.5817 44.1662 65.5485C42.9601 63.4902 42.357 61.1683 42.357 58.5829C42.357 56.0225 42.9601 53.7257 44.1662 51.6925C45.3724 49.6342 47.0057 48.0277 49.0661 46.873C51.1266 45.7184 53.3881 45.141 55.8506 45.141C58.3383 45.141 60.5998 45.7184 62.6351 46.873C64.6956 48.0277 66.3163 49.6342 67.4973 51.6925C68.7035 53.7257 69.3065 56.0225 69.3065 58.5829C69.3065 61.1683 68.7035 63.4902 67.4973 65.5485C66.3163 67.5817 64.6956 69.1757 62.6351 70.3303C60.5746 71.485 58.3131 72.0623 55.8506 72.0623ZM55.8506 67.3558C57.4337 67.3558 58.8283 67.0044 60.0344 66.3016C61.2405 65.5736 62.1828 64.5445 62.8613 63.2141C63.5397 61.8837 63.8789 60.34 63.8789 58.5829C63.8789 56.8258 63.5397 55.2946 62.8613 53.9893C62.1828 52.6589 61.2405 51.6423 60.0344 50.9395C58.8283 50.2366 57.4337 49.8852 55.8506 49.8852C54.2676 49.8852 52.8604 50.2366 51.6292 50.9395C50.423 51.6423 49.4808 52.6589 48.8023 53.9893C48.1239 55.2946 47.7846 56.8258 47.7846 58.5829C47.7846 60.34 48.1239 61.8837 48.8023 63.2141C49.4808 64.5445 50.423 65.5736 51.6292 66.3016C52.8604 67.0044 54.2676 67.3558 55.8506 67.3558Z" fill="black"/>
<path d="M81.9391 66.9417L87.2159 50.9395H92.832L85.1052 71.7988H78.6976L71.0085 50.9395H76.6623L81.9391 66.9417Z" fill="black"/>
<path d="M115.207 60.9173C115.207 61.6703 115.157 62.3481 115.056 62.9505H99.7911C99.9167 64.4566 100.444 65.6364 101.374 66.4898C102.304 67.3433 103.447 67.77 104.804 67.77C106.764 67.77 108.159 66.9291 108.988 65.2473H114.679C114.076 67.2554 112.92 68.9121 111.212 70.2174C109.503 71.4976 107.405 72.1376 104.917 72.1376C102.907 72.1376 101.098 71.6984 99.4895 70.8198C97.9065 69.9162 96.6627 68.6486 95.7581 67.017C94.8786 65.3854 94.4389 63.5028 94.4389 61.3691C94.4389 59.2104 94.8786 57.3152 95.7581 55.6836C96.6375 54.0521 97.8688 52.797 99.4518 51.9184C101.035 51.0399 102.857 50.6006 104.917 50.6006C106.902 50.6006 108.674 51.0273 110.232 51.8808C111.815 52.7342 113.033 53.9517 113.888 55.533C114.767 57.0893 115.207 58.8841 115.207 60.9173ZM109.742 59.4112C109.716 58.0557 109.227 56.9764 108.272 56.1731C107.317 55.3448 106.148 54.9306 104.766 54.9306C103.46 54.9306 102.354 55.3322 101.449 56.1355C100.57 56.9136 100.03 58.0055 99.8287 59.4112H109.742Z" fill="black"/>
<path d="M124.335 54.1776C125.014 53.0731 125.893 52.2071 126.974 51.5796C128.079 50.952 129.336 50.6383 130.743 50.6383V56.1731H129.348C127.69 56.1731 126.433 56.5622 125.579 57.3403C124.75 58.1185 124.335 59.474 124.335 61.4068V71.7988H119.059V50.9395H124.335V54.1776Z" fill="black"/>
<path d="M166.911 45.5176L157.262 71.7988H150.854L141.205 45.5176H146.859L154.096 66.4145L161.295 45.5176H166.911Z" fill="black"/>
<path d="M172.751 48.4544C171.821 48.4544 171.042 48.1658 170.414 47.5884C169.811 46.986 169.509 46.2455 169.509 45.367C169.509 44.4884 169.811 43.7605 170.414 43.1831C171.042 42.5807 171.821 42.2795 172.751 42.2795C173.68 42.2795 174.447 42.5807 175.05 43.1831C175.678 43.7605 175.992 44.4884 175.992 45.367C175.992 46.2455 175.678 46.986 175.05 47.5884C174.447 48.1658 173.68 48.4544 172.751 48.4544ZM175.351 50.9395V71.7988H170.075V50.9395H175.351Z" fill="black"/>
<path d="M199.976 60.9173C199.976 61.6703 199.926 62.3481 199.825 62.9505H184.56C184.686 64.4566 185.214 65.6364 186.143 66.4898C187.073 67.3433 188.216 67.77 189.573 67.77C191.533 67.77 192.928 66.9291 193.757 65.2473H199.448C198.845 67.2554 197.69 68.9121 195.981 70.2174C194.272 71.4976 192.174 72.1376 189.686 72.1376C187.676 72.1376 185.867 71.6984 184.259 70.8198C182.676 69.9162 181.432 68.6486 180.527 67.017C179.648 65.3854 179.208 63.5028 179.208 61.3691C179.208 59.2104 179.648 57.3152 180.527 55.6836C181.407 54.0521 182.638 52.797 184.221 51.9184C185.804 51.0399 187.626 50.6006 189.686 50.6006C191.671 50.6006 193.443 51.0273 195.001 51.8808C196.584 52.7342 197.803 53.9517 198.657 55.533C199.536 57.0893 199.976 58.8841 199.976 60.9173ZM194.511 59.4112C194.486 58.0557 193.996 56.9764 193.041 56.1731C192.086 55.3448 190.918 54.9306 189.536 54.9306C188.229 54.9306 187.123 55.3322 186.219 56.1355C185.339 56.9136 184.799 58.0055 184.598 59.4112H194.511Z" fill="black"/>
<path d="M232.775 50.9395L226.669 71.7988H220.977L217.171 57.2274L213.364 71.7988H207.635L201.491 50.9395H206.843L210.537 66.8287L214.532 50.9395H220.111L224.03 66.791L227.724 50.9395H232.775Z" fill="black"/>
<path d="M42.5568 108.92C42.3445 108.92 42.1648 108.846 42.0178 108.699C41.8708 108.553 41.7973 108.373 41.7973 108.161C41.7973 107.949 41.8708 107.769 42.0178 107.623C42.1648 107.476 42.3445 107.402 42.5568 107.402C42.761 107.402 42.9325 107.476 43.0713 107.623C43.2183 107.769 43.2918 107.949 43.2918 108.161C43.2918 108.373 43.2183 108.553 43.0713 108.699C42.9325 108.846 42.761 108.92 42.5568 108.92ZM43.0958 110.009V116.715H41.9811V110.009H43.0958Z" fill="black"/>
<path d="M48.2663 109.886C49.083 109.886 49.7445 110.135 50.2508 110.633C50.7571 111.122 51.0103 111.832 51.0103 112.762V116.715H49.9078V112.921C49.9078 112.252 49.7404 111.742 49.4056 111.392C49.0707 111.033 48.6134 110.853 48.0336 110.853C47.4456 110.853 46.976 111.037 46.6249 111.404C46.2819 111.771 46.1104 112.305 46.1104 113.007V116.715H44.9957V110.009H46.1104V110.963C46.3309 110.621 46.629 110.356 47.0046 110.168C47.3885 109.98 47.809 109.886 48.2663 109.886Z" fill="black"/>
<path d="M54.1909 110.927V114.879C54.1909 115.205 54.2603 115.438 54.3992 115.577C54.538 115.707 54.7789 115.772 55.1219 115.772H55.9426V116.715H54.9382C54.3175 116.715 53.852 116.572 53.5417 116.286C53.2314 116.001 53.0762 115.532 53.0762 114.879V110.927H52.2065V110.009H53.0762V108.32H54.1909V110.009H55.9426V110.927H54.1909Z" fill="black"/>
<path d="M63.4182 113.105C63.4182 113.317 63.4059 113.541 63.3814 113.778H58.016C58.0568 114.439 58.2814 114.957 58.6897 115.332C59.1062 115.699 59.6085 115.883 60.1965 115.883C60.6783 115.883 61.0784 115.772 61.3969 115.552C61.7236 115.324 61.9523 115.022 62.0829 114.647H63.2834C63.1037 115.291 62.7444 115.817 62.2054 116.225C61.6664 116.625 60.9968 116.825 60.1965 116.825C59.5595 116.825 58.9878 116.682 58.4815 116.396C57.9833 116.111 57.5914 115.707 57.3055 115.185C57.0197 114.655 56.8768 114.043 56.8768 113.349C56.8768 112.656 57.0156 112.048 57.2933 111.526C57.5709 111.004 57.9588 110.604 58.457 110.327C58.9633 110.041 59.5431 109.899 60.1965 109.899C60.8335 109.899 61.3969 110.037 61.8869 110.315C62.3769 110.592 62.7526 110.976 63.0139 111.465C63.2834 111.946 63.4182 112.493 63.4182 113.105ZM62.2667 112.872C62.2667 112.448 62.1728 112.085 61.9849 111.783C61.7971 111.473 61.5399 111.241 61.2132 111.086C60.8947 110.922 60.5395 110.841 60.1475 110.841C59.584 110.841 59.1021 111.02 58.702 111.379C58.31 111.738 58.0854 112.236 58.0283 112.872H62.2667Z" fill="black"/>
<path d="M66.0043 111.098C66.2003 110.714 66.4779 110.417 66.8373 110.205C67.2048 109.992 67.6498 109.886 68.1725 109.886V111.037H67.8785C66.629 111.037 66.0043 111.714 66.0043 113.068V116.715H64.8896V110.009H66.0043V111.098Z" fill="black"/>
<path d="M75.5842 113.105C75.5842 113.317 75.5719 113.541 75.5474 113.778H70.182C70.2229 114.439 70.4474 114.957 70.8558 115.332C71.2723 115.699 71.7745 115.883 72.3625 115.883C72.8443 115.883 73.2445 115.772 73.563 115.552C73.8896 115.324 74.1183 115.022 74.249 114.647H75.4494C75.2698 115.291 74.9104 115.817 74.3715 116.225C73.8325 116.625 73.1628 116.825 72.3625 116.825C71.7255 116.825 71.1538 116.682 70.6475 116.396C70.1494 116.111 69.7574 115.707 69.4715 115.185C69.1857 114.655 69.0428 114.043 69.0428 113.349C69.0428 112.656 69.1816 112.048 69.4593 111.526C69.737 111.004 70.1249 110.604 70.623 110.327C71.1293 110.041 71.7092 109.899 72.3625 109.899C72.9995 109.899 73.563 110.037 74.053 110.315C74.5429 110.592 74.9186 110.976 75.1799 111.465C75.4494 111.946 75.5842 112.493 75.5842 113.105ZM74.4327 112.872C74.4327 112.448 74.3388 112.085 74.151 111.783C73.9631 111.473 73.7059 111.241 73.3792 111.086C73.0607 110.922 72.7055 110.841 72.3135 110.841C71.75 110.841 71.2682 111.02 70.868 111.379C70.476 111.738 70.2514 112.236 70.1943 112.872H74.4327Z" fill="black"/>
<path d="M76.6391 113.349C76.6391 112.656 76.7779 112.052 77.0556 111.538C77.3332 111.016 77.7171 110.612 78.2071 110.327C78.7052 110.041 79.2728 109.899 79.9098 109.899C80.7346 109.899 81.4124 110.099 81.9432 110.498C82.4822 110.898 82.8375 111.453 83.009 112.163H81.8085C81.6942 111.755 81.4696 111.432 81.1348 111.196C80.8081 110.959 80.3998 110.841 79.9098 110.841C79.2728 110.841 78.7583 111.061 78.3663 111.502C77.9743 111.934 77.7783 112.55 77.7783 113.349C77.7783 114.157 77.9743 114.781 78.3663 115.222C78.7583 115.662 79.2728 115.883 79.9098 115.883C80.3998 115.883 80.8081 115.768 81.1348 115.54C81.4614 115.311 81.686 114.985 81.8085 114.561H83.009C82.8293 115.246 82.47 115.797 81.931 116.213C81.392 116.621 80.7183 116.825 79.9098 116.825C79.2728 116.825 78.7052 116.682 78.2071 116.396C77.7171 116.111 77.3332 115.707 77.0556 115.185C76.7779 114.663 76.6391 114.051 76.6391 113.349Z" fill="black"/>
<path d="M85.8561 110.927V114.879C85.8561 115.205 85.9255 115.438 86.0643 115.577C86.2032 115.707 86.4441 115.772 86.7871 115.772H87.6078V116.715H86.6033C85.9827 116.715 85.5172 116.572 85.2068 116.286C84.8965 116.001 84.7413 115.532 84.7413 114.879V110.927H83.8716V110.009H84.7413V108.32H85.8561V110.009H87.6078V110.927H85.8561Z" fill="black"/>
<path d="M89.5342 108.92C89.3218 108.92 89.1422 108.846 88.9952 108.699C88.8482 108.553 88.7747 108.373 88.7747 108.161C88.7747 107.949 88.8482 107.769 88.9952 107.623C89.1422 107.476 89.3218 107.402 89.5342 107.402C89.7383 107.402 89.9098 107.476 90.0487 107.623C90.1957 107.769 90.2692 107.949 90.2692 108.161C90.2692 108.373 90.1957 108.553 90.0487 108.699C89.9098 108.846 89.7383 108.92 89.5342 108.92ZM90.0732 110.009V116.715H88.9584V110.009H90.0732Z" fill="black"/>
<path d="M94.9007 116.825C94.2719 116.825 93.7002 116.682 93.1857 116.396C92.6794 116.111 92.2793 115.707 91.9853 115.185C91.6994 114.655 91.5565 114.043 91.5565 113.349C91.5565 112.664 91.7035 112.061 91.9975 111.538C92.2997 111.008 92.708 110.604 93.2225 110.327C93.737 110.041 94.3127 109.899 94.9497 109.899C95.5867 109.899 96.1624 110.041 96.6769 110.327C97.1914 110.604 97.5957 111.004 97.8896 111.526C98.1918 112.048 98.3429 112.656 98.3429 113.349C98.3429 114.043 98.1877 114.655 97.8774 115.185C97.5752 115.707 97.1628 116.111 96.6402 116.396C96.1175 116.682 95.5377 116.825 94.9007 116.825ZM94.9007 115.846C95.3009 115.846 95.6765 115.752 96.0277 115.564C96.3788 115.377 96.6606 115.095 96.8729 114.72C97.0934 114.345 97.2037 113.888 97.2037 113.349C97.2037 112.811 97.0975 112.354 96.8852 111.979C96.6728 111.604 96.3952 111.326 96.0522 111.147C95.7092 110.959 95.3376 110.865 94.9375 110.865C94.5291 110.865 94.1535 110.959 93.8105 111.147C93.4757 111.326 93.2062 111.604 93.002 111.979C92.7978 112.354 92.6958 112.811 92.6958 113.349C92.6958 113.896 92.7937 114.357 92.9897 114.732C93.1939 115.108 93.4634 115.389 93.7982 115.577C94.1331 115.756 94.5005 115.846 94.9007 115.846Z" fill="black"/>
<path d="M103.079 109.886C103.896 109.886 104.557 110.135 105.064 110.633C105.57 111.122 105.823 111.832 105.823 112.762V116.715H104.721V112.921C104.721 112.252 104.553 111.742 104.218 111.392C103.884 111.033 103.426 110.853 102.847 110.853C102.259 110.853 101.789 111.037 101.438 111.404C101.095 111.771 100.923 112.305 100.923 113.007V116.715H99.8086V110.009H100.923V110.963C101.144 110.621 101.442 110.356 101.818 110.168C102.201 109.98 102.622 109.886 103.079 109.886Z" fill="black"/>
<path d="M43.3408 376.374V380.327C43.3408 380.653 43.4102 380.886 43.549 381.024C43.6879 381.155 43.9288 381.22 44.2718 381.22H45.0925V382.162H44.088C43.4674 382.162 43.0019 382.02 42.6916 381.734C42.3812 381.449 42.2261 380.98 42.2261 380.327V376.374H41.3563V375.457H42.2261V373.768H43.3408V375.457H45.0925V376.374H43.3408Z" fill="black"/>
<path d="M49.3708 382.273C48.742 382.273 48.1704 382.13 47.6559 381.844C47.1495 381.559 46.7494 381.155 46.4554 380.633C46.1696 380.103 46.0266 379.491 46.0266 378.797C46.0266 378.112 46.1736 377.508 46.4676 376.986C46.7698 376.456 47.1781 376.052 47.6926 375.775C48.2071 375.489 48.7828 375.346 49.4198 375.346C50.0568 375.346 50.6326 375.489 51.147 375.775C51.6615 376.052 52.0658 376.452 52.3598 376.974C52.6619 377.496 52.813 378.104 52.813 378.797C52.813 379.491 52.6579 380.103 52.3475 380.633C52.0454 381.155 51.633 381.559 51.1103 381.844C50.5876 382.13 50.0078 382.273 49.3708 382.273ZM49.3708 381.294C49.771 381.294 50.1467 381.2 50.4978 381.012C50.849 380.825 51.1307 380.543 51.343 380.168C51.5635 379.793 51.6738 379.336 51.6738 378.797C51.6738 378.259 51.5676 377.802 51.3553 377.427C51.143 377.052 50.8653 376.774 50.5223 376.595C50.1793 376.407 49.8077 376.313 49.4076 376.313C48.9993 376.313 48.6236 376.407 48.2806 376.595C47.9458 376.774 47.6763 377.052 47.4721 377.427C47.268 377.802 47.1659 378.259 47.1659 378.797C47.1659 379.344 47.2639 379.805 47.4599 380.18C47.664 380.555 47.9335 380.837 48.2684 381.024C48.6032 381.204 48.9707 381.294 49.3708 381.294Z" fill="black"/>
<path d="M58.6592 373.107V382.162H57.5445V373.107H58.6592Z" fill="black"/>
<path d="M60.1426 378.785C60.1426 378.1 60.2814 377.5 60.5591 376.986C60.8367 376.464 61.2165 376.06 61.6983 375.775C62.1883 375.489 62.7314 375.346 63.3275 375.346C63.9155 375.346 64.4259 375.473 64.8587 375.726C65.2916 375.979 65.6141 376.297 65.8265 376.68V375.457H66.9535V382.162H65.8265V380.914C65.606 381.306 65.2752 381.632 64.8342 381.893C64.4014 382.146 63.8951 382.273 63.3153 382.273C62.7191 382.273 62.1801 382.126 61.6983 381.832C61.2165 381.538 60.8367 381.126 60.5591 380.596C60.2814 380.066 60.1426 379.462 60.1426 378.785ZM65.8265 378.797C65.8265 378.292 65.7244 377.851 65.5202 377.476C65.3161 377.1 65.0384 376.815 64.6872 376.619C64.3443 376.415 63.9645 376.313 63.548 376.313C63.1315 376.313 62.7518 376.411 62.4088 376.607C62.0658 376.803 61.7922 377.088 61.5881 377.464C61.3839 377.839 61.2818 378.279 61.2818 378.785C61.2818 379.299 61.3839 379.748 61.5881 380.131C61.7922 380.506 62.0658 380.796 62.4088 381C62.7518 381.196 63.1315 381.294 63.548 381.294C63.9645 381.294 64.3443 381.196 64.6872 381C65.0384 380.796 65.3161 380.506 65.5202 380.131C65.7244 379.748 65.8265 379.303 65.8265 378.797Z" fill="black"/>
<path d="M71.2137 382.273C70.6992 382.273 70.2378 382.187 69.8295 382.016C69.4211 381.836 69.0986 381.591 68.8617 381.281C68.6249 380.963 68.4942 380.6 68.4697 380.192H69.6212C69.6539 380.527 69.8091 380.8 70.0867 381.012C70.3725 381.224 70.7441 381.33 71.2014 381.33C71.6261 381.33 71.9609 381.237 72.2059 381.049C72.4509 380.861 72.5734 380.625 72.5734 380.339C72.5734 380.045 72.4428 379.829 72.1814 379.691C71.9201 379.544 71.5159 379.401 70.9687 379.262C70.4705 379.132 70.0622 379.001 69.7437 378.871C69.4334 378.732 69.1639 378.532 68.9352 378.271C68.7147 378.002 68.6045 377.651 68.6045 377.219C68.6045 376.876 68.7066 376.562 68.9107 376.276C69.1149 375.991 69.4048 375.767 69.7805 375.603C70.1561 375.432 70.5849 375.346 71.0667 375.346C71.8098 375.346 72.4101 375.534 72.8674 375.909C73.3247 376.285 73.5697 376.799 73.6024 377.451H72.4877C72.4632 377.1 72.3203 376.819 72.0589 376.607C71.8058 376.395 71.4628 376.289 71.0299 376.289C70.6298 376.289 70.3113 376.374 70.0745 376.546C69.8376 376.717 69.7192 376.941 69.7192 377.219C69.7192 377.439 69.7886 377.623 69.9275 377.769C70.0745 377.908 70.2541 378.022 70.4665 378.112C70.687 378.194 70.9891 378.287 71.3729 378.393C71.8548 378.524 72.2468 378.655 72.5489 378.785C72.8511 378.907 73.1083 379.095 73.3206 379.348C73.5411 379.601 73.6555 379.931 73.6636 380.339C73.6636 380.706 73.5616 381.037 73.3574 381.33C73.1532 381.624 72.8633 381.857 72.4877 382.028C72.1202 382.191 71.6955 382.273 71.2137 382.273Z" fill="black"/>
<path d="M76.597 376.374V380.327C76.597 380.653 76.6664 380.886 76.8052 381.024C76.9441 381.155 77.185 381.22 77.528 381.22H78.3487V382.162H77.3442C76.7236 382.162 76.2581 382.02 75.9477 381.734C75.6374 381.449 75.4823 380.98 75.4823 380.327V376.374H74.6125V375.457H75.4823V373.768H76.597V375.457H78.3487V376.374H76.597Z" fill="black"/>
<path d="M91.0377 375.334C91.5604 375.334 92.0259 375.444 92.4342 375.665C92.8425 375.877 93.1651 376.199 93.4019 376.631C93.6388 377.064 93.7572 377.59 93.7572 378.21V382.162H92.6547V378.369C92.6547 377.7 92.4873 377.19 92.1525 376.839C91.8258 376.48 91.3807 376.301 90.8172 376.301C90.2374 376.301 89.776 376.489 89.433 376.864C89.09 377.231 88.9185 377.765 88.9185 378.467V382.162H87.816V378.369C87.816 377.7 87.6486 377.19 87.3138 376.839C86.9871 376.48 86.5421 376.301 85.9786 376.301C85.3988 376.301 84.9373 376.489 84.5944 376.864C84.2514 377.231 84.0799 377.765 84.0799 378.467V382.162H82.9651V375.457H84.0799V376.423C84.3004 376.073 84.5944 375.803 84.9619 375.616C85.3375 375.428 85.7499 375.334 86.1991 375.334C86.7626 375.334 87.2607 375.461 87.6935 375.714C88.1264 375.966 88.449 376.338 88.6613 376.827C88.8491 376.354 89.1594 375.987 89.5923 375.726C90.0251 375.465 90.5069 375.334 91.0377 375.334Z" fill="black"/>
<path d="M98.5134 382.273C97.8846 382.273 97.313 382.13 96.7985 381.844C96.2921 381.559 95.892 381.155 95.598 380.633C95.3122 380.103 95.1692 379.491 95.1692 378.797C95.1692 378.112 95.3162 377.508 95.6102 376.986C95.9124 376.456 96.3207 376.052 96.8352 375.775C97.3497 375.489 97.9254 375.346 98.5624 375.346C99.1994 375.346 99.7752 375.489 100.29 375.775C100.804 376.052 101.208 376.452 101.502 376.974C101.805 377.496 101.956 378.104 101.956 378.797C101.956 379.491 101.8 380.103 101.49 380.633C101.188 381.155 100.776 381.559 100.253 381.844C99.7302 382.13 99.1504 382.273 98.5134 382.273ZM98.5134 381.294C98.9136 381.294 99.2893 381.2 99.6404 381.012C99.9916 380.825 100.273 380.543 100.486 380.168C100.706 379.793 100.816 379.336 100.816 378.797C100.816 378.259 100.71 377.802 100.498 377.427C100.286 377.052 100.008 376.774 99.6649 376.595C99.3219 376.407 98.9503 376.313 98.5502 376.313C98.1419 376.313 97.7662 376.407 97.4232 376.595C97.0884 376.774 96.8189 377.052 96.6147 377.427C96.4106 377.802 96.3085 378.259 96.3085 378.797C96.3085 379.344 96.4065 379.805 96.6025 380.18C96.8066 380.555 97.0761 380.837 97.4109 381.024C97.7458 381.204 98.1133 381.294 98.5134 381.294Z" fill="black"/>
<path d="M106.692 375.334C107.509 375.334 108.17 375.583 108.676 376.081C109.183 376.57 109.436 377.28 109.436 378.21V382.162H108.333V378.369C108.333 377.7 108.166 377.19 107.831 376.839C107.496 376.48 107.039 376.301 106.459 376.301C105.871 376.301 105.402 376.485 105.05 376.852C104.707 377.219 104.536 377.753 104.536 378.455V382.162H103.421V375.457H104.536V376.411C104.757 376.068 105.055 375.803 105.43 375.616C105.814 375.428 106.235 375.334 106.692 375.334Z" fill="black"/>
<path d="M112.617 376.374V380.327C112.617 380.653 112.686 380.886 112.825 381.024C112.964 381.155 113.205 381.22 113.548 381.22H114.368V382.162H113.364C112.743 382.162 112.278 382.02 111.967 381.734C111.657 381.449 111.502 380.98 111.502 380.327V376.374H110.632V375.457H111.502V373.768H112.617V375.457H114.368V376.374H112.617Z" fill="black"/>
<path d="M119.051 375.334C119.557 375.334 120.014 375.444 120.423 375.665C120.831 375.877 121.15 376.199 121.378 376.631C121.615 377.064 121.734 377.59 121.734 378.21V382.162H120.631V378.369C120.631 377.7 120.464 377.19 120.129 376.839C119.794 376.48 119.337 376.301 118.757 376.301C118.169 376.301 117.699 376.485 117.348 376.852C117.005 377.219 116.834 377.753 116.834 378.455V382.162H115.719V373.107H116.834V376.411C117.054 376.068 117.356 375.803 117.74 375.616C118.132 375.428 118.569 375.334 119.051 375.334Z" fill="black"/>
<defs>
<filter id="filter0_dd_963_4412" x="0" y="0" width="350" height="457" filterUnits="userSpaceOnUse" color-interpolation-filters="sRGB">
<feFlood flood-opacity="0" result="BackgroundImageFix"/>
<feColorMatrix in="SourceAlpha" type="matrix" values="0 0 0 0 0 0 0 0 0 0 0 0 0 0 0 0 0 0 127 0" result="hardAlpha"/>
<feMorphology radius="4" operator="erode" in="SourceAlpha" result="effect1_dropShadow_963_4412"/>
<feOffset dy="4"/>
<feGaussianBlur stdDeviation="2"/>
<feComposite in2="hardAlpha" operator="out"/>
<feColorMatrix type="matrix" values="0 0 0 0 0.0470588 0 0 0 0 0.0470588 0 0 0 0 0.0509804 0 0 0 0.05 0"/>
<feBlend mode="normal" in2="BackgroundImageFix" result="effect1_dropShadow_963_4412"/>
<feColorMatrix in="SourceAlpha" type="matrix" values="0 0 0 0 0 0 0 0 0 0 0 0 0 0 0 0 0 0 127 0" result="hardAlpha"/>
<feMorphology radius="8" operator="erode" in="SourceAlpha" result="effect2_dropShadow_963_4412"/>
<feOffset dy="16"/>
<feGaussianBlur stdDeviation="8"/>
<feComposite in2="hardAlpha" operator="out"/>
<feColorMatrix type="matrix" values="0 0 0 0 0.0470588 0 0 0 0 0.0470588 0 0 0 0 0.0509804 0 0 0 0.1 0"/>
<feBlend mode="normal" in2="effect1_dropShadow_963_4412" result="effect2_dropShadow_963_4412"/>
<feBlend mode="normal" in="SourceGraphic" in2="effect2_dropShadow_963_4412" result="shape"/>
</filter>
<linearGradient id="paint0_linear_963_4412" x1="174.372" y1="5" x2="174.372" y2="438" gradientUnits="userSpaceOnUse">
<stop stop-color="#0000FF"/>
<stop offset="1" stop-color="#C9C9FF"/>
</linearGradient>
<linearGradient id="paint1_linear_963_4412" x1="174.372" y1="5" x2="174.372" y2="438" gradientUnits="userSpaceOnUse">
<stop stop-color="#0000FF"/>
<stop offset="1" stop-color="#C9C9FF"/>
</linearGradient>
<linearGradient id="paint2_linear_963_4412" x1="174.372" y1="5" x2="174.372" y2="438" gradientUnits="userSpaceOnUse">
<stop stop-color="#0000FF"/>
<stop offset="1" stop-color="#C9C9FF"/>
</linearGradient>
<linearGradient id="paint3_linear_963_4412" x1="174.372" y1="5" x2="174.372" y2="438" gradientUnits="userSpaceOnUse">
<stop stop-color="#0000FF"/>
<stop offset="1" stop-color="#C9C9FF"/>
</linearGradient>
</defs>
</svg>
