<svg xmlns="http://www.w3.org/2000/svg" width="350" height="457" fill="none"><g filter="url(#a)"><rect width="334" height="433" x="8" fill="#fff" rx="25"/></g><path fill="#FAFAFA" d="M9 23.826C9 13.43 17.438 5 27.846 5h293.052c10.408 0 18.846 8.429 18.846 18.826v395.348c0 10.397-8.438 18.826-18.846 18.826H27.846C17.438 438 9 429.571 9 419.174z"/><path fill="#00F" d="M293.503 340.126a16.04 16.04 0 0 1-14.539 3.172 16.01 16.01 0 0 1-10.877-10.144 15.98 15.98 0 0 1 2.17-14.707 16.02 16.02 0 0 1 13.346-6.577l-.158 6.399a9.62 9.62 0 0 0-8.008 3.946 9.593 9.593 0 0 0 1.21 12.671 9.61 9.61 0 0 0 8.61 2.361 9.6 9.6 0 0 0 4.127-2.025z"/><path fill="url(#b)" fill-opacity=".2" d="M293.503 340.126a16.04 16.04 0 0 1-14.539 3.172 16.01 16.01 0 0 1-10.877-10.144 15.98 15.98 0 0 1 2.17-14.707 16.02 16.02 0 0 1 13.346-6.577l-.158 6.399a9.62 9.62 0 0 0-8.008 3.946 9.593 9.593 0 0 0 1.21 12.671 9.61 9.61 0 0 0 8.61 2.361 9.6 9.6 0 0 0 4.127-2.025z"/><path fill="#00D9FF" d="M283.206 311.865c3.168 0 6.266.939 8.9 2.697a15.989 15.989 0 0 1 2.427 24.621 16 16 0 0 1-8.202 4.379 16.02 16.02 0 0 1-16.444-6.804 16 16 0 0 1-2.7-8.891h6.408a9.6 9.6 0 0 0 5.933 8.871 9.61 9.61 0 0 0 10.474-2.081 9.597 9.597 0 0 0-1.456-14.773 9.6 9.6 0 0 0-5.34-1.618z"/><path fill="#00F" d="M293.503 294.944a16.03 16.03 0 0 1-21.228-.562 16 16 0 0 1-4.916-14.031 16 16 0 0 1 2.899-7.086 16.02 16.02 0 0 1 13.346-6.577l-.159 6.399a9.61 9.61 0 0 0-9.747 8.198 9.609 9.609 0 0 0 11.56 10.78 9.6 9.6 0 0 0 4.126-2.025z"/><path fill="url(#c)" fill-opacity=".2" d="M293.503 294.944a16.03 16.03 0 0 1-21.228-.562 16 16 0 0 1-4.916-14.031 16 16 0 0 1 2.899-7.086 16.02 16.02 0 0 1 13.346-6.577l-.159 6.399a9.61 9.61 0 0 0-9.747 8.198 9.609 9.609 0 0 0 11.56 10.78 9.6 9.6 0 0 0 4.126-2.025z"/><path fill="#00D9FF" d="M283.206 266.683a16.013 16.013 0 0 1 16.019 16.002 15.99 15.99 0 0 1-4.692 11.316 16.024 16.024 0 0 1-11.327 4.687v-6.401a9.63 9.63 0 0 0 6.797-2.812 9.6 9.6 0 0 0 2.815-6.79 9.6 9.6 0 0 0-2.815-6.789 9.6 9.6 0 0 0-6.797-2.812z"/><path fill="#00F" d="M285.822 255.173a16.03 16.03 0 0 1-9.995-1.585 15.996 15.996 0 0 1-8.341-17.28 16 16 0 0 1 4.984-8.799 16.03 16.03 0 0 1 19.123-1.758 16 16 0 0 1 6.507 7.743 16 16 0 0 1 .563 10.094l-6.183-1.681a9.59 9.59 0 0 0-4.242-10.702 9.614 9.614 0 0 0-14.464 6.334 9.6 9.6 0 0 0 5.005 10.368 9.63 9.63 0 0 0 5.997.951z"/><path fill="url(#d)" fill-opacity=".2" d="M285.822 255.173a16.03 16.03 0 0 1-9.995-1.585 15.996 15.996 0 0 1-8.341-17.28 16 16 0 0 1 4.984-8.799 16.03 16.03 0 0 1 19.123-1.758 16 16 0 0 1 6.507 7.743 16 16 0 0 1 .563 10.094l-6.183-1.681a9.59 9.59 0 0 0-4.242-10.702 9.614 9.614 0 0 0-14.464 6.334 9.6 9.6 0 0 0 5.005 10.368 9.63 9.63 0 0 0 5.997.951z"/><path fill="#00D9FF" d="M298.809 243.008a16 16 0 0 1-5.764 9.006 16.03 16.03 0 0 1-10.155 3.37l.127-6.399a9.62 9.62 0 0 0 6.092-2.023 9.6 9.6 0 0 0 3.459-5.403z"/><path fill="#00F" d="M299.152 197.611a16 16 0 0 1-3.536 8.593 16.025 16.025 0 0 1-17.019 5.206 16.02 16.02 0 0 1-7.747-5.141 15.99 15.99 0 0 1-1.791-17.69 16 16 0 0 1 6.559-6.587 16.03 16.03 0 0 1 9.116-1.836l-.611 6.371a9.63 9.63 0 0 0-5.47 1.102 9.605 9.605 0 0 0-5.009 9.422 9.604 9.604 0 0 0 6.796 8.229 9.625 9.625 0 0 0 10.212-3.124 9.6 9.6 0 0 0 2.122-5.155z"/><path fill="url(#e)" fill-opacity=".2" d="M299.152 197.611a16 16 0 0 1-3.536 8.593 16.025 16.025 0 0 1-17.019 5.206 16.02 16.02 0 0 1-7.747-5.141 15.99 15.99 0 0 1-1.791-17.69 16 16 0 0 1 6.559-6.587 16.03 16.03 0 0 1 9.116-1.836l-.611 6.371a9.63 9.63 0 0 0-5.47 1.102 9.605 9.605 0 0 0-5.009 9.422 9.604 9.604 0 0 0 6.796 8.229 9.625 9.625 0 0 0 10.212-3.124 9.6 9.6 0 0 0 2.122-5.155z"/><path fill="#00D9FF" d="M283.206 180.083a16.03 16.03 0 0 1 12.837 6.429 16 16 0 0 1 2.521 14.123l-6.143-1.82a9.6 9.6 0 0 0-1.513-8.474 9.62 9.62 0 0 0-7.702-3.858z"/><path fill="#000" d="M47.69 195.59q0 1.064-.735 1.774-.723.697-2.218.697h-1.641v3.561H41.98v-8.529h2.756q1.446 0 2.193.698.76.697.76 1.799m-2.953 1.554q.93 0 1.372-.404.441-.404.441-1.15 0-1.58-1.813-1.579h-1.641v3.133zM50.19 196.006q.294-.576.833-.894.55-.318 1.335-.318v1.15h-.294q-1.874 0-1.874 2.032v3.646h-1.115v-6.705h1.115zM56.572 201.733a3.47 3.47 0 0 1-1.715-.429 3.1 3.1 0 0 1-1.2-1.211q-.429-.795-.429-1.836 0-1.028.441-1.811.453-.795 1.225-1.211a3.5 3.5 0 0 1 1.727-.429q.956 0 1.728.429.771.416 1.212 1.199.454.783.453 1.823 0 1.041-.465 1.836a3.15 3.15 0 0 1-1.237 1.211 3.56 3.56 0 0 1-1.74.429m0-.979q.6 0 1.127-.282a2.1 2.1 0 0 0 .846-.844q.33-.562.33-1.371 0-.807-.318-1.37a2.04 2.04 0 0 0-.833-.832 2.3 2.3 0 0 0-1.115-.282q-.612 0-1.127.282a2 2 0 0 0-.808.832q-.307.563-.307 1.37 0 .82.294 1.383.307.563.809.844.502.27 1.102.27M61.064 198.245q0-1.028.416-1.799a3 3 0 0 1 1.14-1.211 3.2 3.2 0 0 1 1.64-.429q.786 0 1.459.368.674.354 1.029.942v-3.549h1.127v9.055h-1.127v-1.26q-.331.6-.98.991-.65.38-1.52.38-.894 0-1.629-.441a3.1 3.1 0 0 1-1.139-1.236q-.416-.795-.416-1.811m5.684.012q0-.759-.307-1.321a2.1 2.1 0 0 0-.833-.857 2.2 2.2 0 0 0-1.139-.306q-.624 0-1.14.294a2.13 2.13 0 0 0-.82.856q-.306.564-.306 1.322 0 .771.306 1.346.307.563.82.869.516.294 1.14.294.625 0 1.14-.294.525-.306.832-.869.306-.575.307-1.334M75.712 194.917v6.705h-1.115v-.991q-.318.514-.894.808a2.75 2.75 0 0 1-1.25.281q-.784 0-1.408-.318a2.43 2.43 0 0 1-.993-.979q-.355-.648-.355-1.578v-3.928H70.8v3.781q0 .991.502 1.529.502.527 1.372.527.895 0 1.408-.551.516-.551.515-1.603v-3.683zM77.177 198.257q0-1.04.417-1.811a3 3 0 0 1 1.151-1.211q.747-.429 1.703-.429 1.237 0 2.034.6.808.6 1.065 1.664h-1.2a1.7 1.7 0 0 0-.674-.966q-.49-.355-1.225-.355-.955 0-1.543.66-.588.65-.588 1.848 0 1.212.588 1.873.588.66 1.543.66.735 0 1.225-.342.49-.343.674-.979h1.2a2.98 2.98 0 0 1-1.078 1.652q-.808.612-2.02.612-.957 0-1.704-.429a3 3 0 0 1-1.151-1.211q-.417-.783-.417-1.836M86.394 195.834v3.953q0 .49.209.697.209.196.722.196h.821v.942h-1.004q-.932 0-1.397-.428-.465-.427-.465-1.407v-3.953h-.87v-.917h.87v-1.689h1.114v1.689h1.752v.917zM44.358 245.195q-.772 0-1.385-.257a2.4 2.4 0 0 1-.967-.734 2 2 0 0 1-.392-1.089h1.151q.05.5.465.82.43.318 1.115.318.637 0 1.005-.282.367-.28.367-.71a.69.69 0 0 0-.392-.648q-.391-.22-1.213-.428a10 10 0 0 1-1.224-.392 2.3 2.3 0 0 1-.809-.6q-.33-.404-.33-1.052 0-.514.306-.942.306-.429.87-.673a3.1 3.1 0 0 1 1.286-.257q1.114 0 1.8.563.687.563.735 1.542h-1.114a1.14 1.14 0 0 0-.43-.845q-.378-.318-1.028-.318-.6 0-.956.257a.8.8 0 0 0-.355.673q0 .33.208.551.22.208.54.342.33.123.906.282.723.195 1.176.391.454.184.772.563.33.38.342.991 0 .552-.306.992a2.1 2.1 0 0 1-.87.697q-.551.245-1.273.245M47.965 241.707q0-1.027.416-1.798a3 3 0 0 1 1.14-1.212 3.2 3.2 0 0 1 1.629-.428q.881 0 1.53.379.65.38.968.955v-1.224h1.127v6.706H53.65v-1.248q-.331.587-.993.979-.65.379-1.519.379a3.04 3.04 0 0 1-1.617-.441 3.1 3.1 0 0 1-1.139-1.236q-.416-.795-.416-1.811m5.683.013q0-.76-.306-1.322a2.1 2.1 0 0 0-.833-.857 2.2 2.2 0 0 0-1.139-.305q-.624 0-1.14.293a2.13 2.13 0 0 0-.82.857q-.306.563-.306 1.321 0 .771.306 1.346.306.564.82.869.516.294 1.14.294t1.14-.294q.526-.305.832-.869.306-.575.306-1.333M57.774 236.029v9.056h-1.115v-9.056zM65.799 241.475q0 .318-.037.673h-5.365q.06.992.673 1.554.625.55 1.507.551.723 0 1.2-.331a1.8 1.8 0 0 0 .686-.905h1.201a2.9 2.9 0 0 1-1.078 1.578q-.809.6-2.009.6a3.44 3.44 0 0 1-1.715-.428 3.06 3.06 0 0 1-1.176-1.212q-.429-.795-.429-1.835t.417-1.824a2.9 2.9 0 0 1 1.164-1.199q.76-.428 1.739-.428.955 0 1.69.416t1.127 1.15q.405.722.405 1.64m-1.152-.233q0-.636-.282-1.089a1.77 1.77 0 0 0-.771-.697 2.3 2.3 0 0 0-1.066-.245q-.845 0-1.445.538-.588.539-.674 1.493zM69.647 245.195q-.772 0-1.385-.257a2.4 2.4 0 0 1-.967-.734 2 2 0 0 1-.392-1.089h1.151q.05.5.466.82.428.318 1.114.318.638 0 1.005-.282.367-.28.367-.71a.69.69 0 0 0-.392-.648q-.391-.22-1.212-.428a10 10 0 0 1-1.225-.392 2.3 2.3 0 0 1-.809-.6q-.33-.404-.33-1.052 0-.514.306-.942.306-.429.87-.673a3.06 3.06 0 0 1 1.286-.257q1.115 0 1.8.563.687.563.735 1.542h-1.114a1.14 1.14 0 0 0-.43-.845q-.378-.318-1.028-.318-.6 0-.956.257a.8.8 0 0 0-.355.673q0 .33.208.551.22.208.54.342.33.123.906.282.723.195 1.176.391.454.184.772.563.33.38.343.991 0 .552-.307.992a2.1 2.1 0 0 1-.87.697q-.551.245-1.273.245M42.557 280.752a.73.73 0 0 1-.54-.22.73.73 0 0 1-.22-.538q0-.319.22-.539a.73.73 0 0 1 .54-.22q.306 0 .514.22.22.22.22.539a.73.73 0 0 1-.22.538.68.68 0 0 1-.514.22m.539 1.089v6.706H41.98v-6.706zM48.266 281.719q1.226 0 1.985.746.76.735.76 2.13v3.952h-1.103v-3.793q0-1.003-.502-1.53-.503-.538-1.372-.538-.882 0-1.41.55-.513.551-.514 1.603v3.708h-1.114v-6.706h1.114v.955q.33-.514.895-.796a2.84 2.84 0 0 1 1.261-.281M52.415 285.182q0-1.04.416-1.811a3 3 0 0 1 1.152-1.212q.747-.428 1.702-.428 1.237 0 2.034.6.808.6 1.066 1.664h-1.2a1.7 1.7 0 0 0-.675-.967q-.49-.355-1.225-.355-.955 0-1.543.661-.588.65-.588 1.848 0 1.212.588 1.872t1.543.661q.736 0 1.225-.343.49-.342.674-.979h1.2a2.98 2.98 0 0 1-1.077 1.652q-.81.612-2.022.612-.955 0-1.702-.428a3 3 0 0 1-1.152-1.211q-.416-.784-.416-1.836M63.2 288.657q-.944 0-1.715-.428a3.1 3.1 0 0 1-1.2-1.211q-.43-.796-.43-1.836 0-1.028.442-1.811.453-.795 1.225-1.212a3.5 3.5 0 0 1 1.727-.428q.955 0 1.727.428.772.417 1.213 1.2.453.783.453 1.823t-.466 1.836a3.16 3.16 0 0 1-1.237 1.211 3.56 3.56 0 0 1-1.74.428m0-.979q.6 0 1.127-.281.526-.282.845-.844.33-.564.33-1.371t-.318-1.371a2.05 2.05 0 0 0-.833-.832 2.3 2.3 0 0 0-1.115-.281q-.612 0-1.127.281-.502.27-.808.832-.306.564-.306 1.371 0 .82.294 1.383.306.562.808.844.503.27 1.103.269M76.18 281.719q.784 0 1.397.33.612.318.967.967.356.648.356 1.579v3.952h-1.103v-3.793q0-1.003-.502-1.53-.49-.538-1.335-.538-.87 0-1.385.563-.514.55-.514 1.603v3.695h-1.103v-3.793q0-1.003-.502-1.53-.49-.538-1.335-.538-.87 0-1.384.563-.515.55-.515 1.603v3.695h-1.114v-6.706h1.114v.967q.33-.526.882-.808a2.74 2.74 0 0 1 1.237-.281q.846 0 1.495.379.649.38.968 1.114a2.2 2.2 0 0 1 .93-1.101 2.74 2.74 0 0 1 1.446-.392M86.853 284.937q0 .318-.037.673h-5.365q.06.991.674 1.554.624.55 1.506.551.723 0 1.2-.33.49-.344.687-.906h1.2a2.9 2.9 0 0 1-1.078 1.579q-.808.599-2.009.599-.955 0-1.715-.428a3.06 3.06 0 0 1-1.176-1.211q-.428-.796-.428-1.836t.416-1.823a2.9 2.9 0 0 1 1.164-1.2q.759-.428 1.74-.428.954 0 1.69.416.734.417 1.127 1.15.404.723.404 1.64m-1.151-.232q0-.636-.282-1.089a1.77 1.77 0 0 0-.772-.698 2.3 2.3 0 0 0-1.066-.245 2.1 2.1 0 0 0-1.445.539q-.588.538-.674 1.493zM43.34 326.221v3.953q0 .49.209.697.209.196.723.196h.82v.942h-1.004q-.93 0-1.396-.428t-.466-1.407v-3.953h-.87v-.917h.87v-1.689h1.115v1.689h1.752v.917zM47.558 326.393q.294-.575.833-.894.55-.318 1.335-.318v1.151h-.294q-1.874 0-1.874 2.031v3.646h-1.115v-6.705h1.115zM50.596 328.632q0-1.028.417-1.799a3 3 0 0 1 1.14-1.211 3.17 3.17 0 0 1 1.628-.428q.882 0 1.532.379.648.38.967.954v-1.223h1.127v6.705H56.28v-1.248q-.33.588-.992.979-.65.38-1.519.38a3.04 3.04 0 0 1-1.617-.441 3.1 3.1 0 0 1-1.14-1.236q-.416-.795-.416-1.811m5.684.012q0-.758-.306-1.321a2.1 2.1 0 0 0-.833-.857 2.2 2.2 0 0 0-1.14-.306q-.624 0-1.138.294a2.13 2.13 0 0 0-.821.857q-.306.562-.306 1.321 0 .771.306 1.346.306.563.82.869.515.294 1.14.294t1.139-.294q.527-.306.833-.869.306-.575.306-1.334M62.023 326.221h-1.409v5.788h-1.115v-5.788h-.87v-.917h.87v-.478q0-1.125.576-1.639.588-.527 1.874-.527v.93q-.735 0-1.041.294-.294.282-.294.942v.478h1.409zM66.054 326.221h-1.409v5.788h-1.114v-5.788h-.87v-.917h.87v-.478q0-1.125.575-1.639.588-.527 1.875-.527v.93q-.735 0-1.042.294-.294.282-.294.942v.478h1.41zM67.93 324.215a.73.73 0 0 1-.54-.221.73.73 0 0 1-.22-.538q0-.318.22-.539a.74.74 0 0 1 .54-.22q.306 0 .514.22.22.22.22.539a.73.73 0 0 1-.22.538.68.68 0 0 1-.514.221m.539 1.089v6.705h-1.115v-6.705zM69.952 328.644q0-1.04.416-1.811a3 3 0 0 1 1.152-1.211q.747-.428 1.703-.428 1.237 0 2.033.599.809.6 1.066 1.664h-1.2a1.7 1.7 0 0 0-.674-.966q-.49-.355-1.225-.355-.956 0-1.544.661-.588.648-.588 1.847 0 1.212.588 1.873.588.66 1.544.66.735 0 1.225-.342.489-.343.673-.979h1.2a2.98 2.98 0 0 1-1.077 1.652q-.81.612-2.021.612-.956 0-1.703-.429a3 3 0 0 1-1.151-1.211q-.417-.783-.417-1.836M55.85 72.062q-3.693 0-6.784-1.732a13 13 0 0 1-4.9-4.781q-1.809-3.088-1.809-6.966 0-3.84 1.81-6.89 1.808-3.088 4.9-4.82 3.09-1.732 6.784-1.732 3.731 0 6.784 1.732a12.63 12.63 0 0 1 4.862 4.82q1.81 3.05 1.81 6.89 0 3.878-1.81 6.966a12.7 12.7 0 0 1-4.862 4.781q-3.09 1.732-6.784 1.732m0-4.706q2.376 0 4.184-1.054 1.81-1.092 2.827-3.088 1.018-1.995 1.018-4.631 0-2.635-1.018-4.594-1.017-1.995-2.827-3.05-1.809-1.054-4.183-1.054t-4.222 1.055q-1.809 1.053-2.827 3.05-1.017 1.957-1.017 4.593 0 2.635 1.017 4.631 1.018 1.995 2.827 3.088 1.847 1.053 4.222 1.054M81.94 66.942l5.276-16.002h5.616l-7.727 20.859h-6.407l-7.69-20.86h5.654zM115.207 60.917q0 1.13-.151 2.033H99.791q.189 2.26 1.583 3.54 1.395 1.28 3.43 1.28 2.94 0 4.184-2.523h5.691q-.905 3.012-3.467 4.97-2.563 1.92-6.295 1.92-3.015 0-5.427-1.317-2.375-1.355-3.732-3.803-1.32-2.448-1.32-5.648 0-3.239 1.32-5.685 1.319-2.448 3.694-3.766 2.375-1.317 5.465-1.317 2.978 0 5.315 1.28a8.84 8.84 0 0 1 3.656 3.652q1.319 2.334 1.319 5.384m-5.465-1.506q-.038-2.033-1.47-3.238-1.433-1.242-3.506-1.242-1.96 0-3.317 1.205-1.319 1.167-1.62 3.275zM124.335 54.178a7.47 7.47 0 0 1 2.639-2.598q1.658-.942 3.769-.942v5.535h-1.395q-2.487 0-3.769 1.167-1.244 1.167-1.244 4.067v10.392h-5.276v-20.86h5.276zM166.911 45.518l-9.649 26.28h-6.408l-9.649-26.28h5.654l7.237 20.897 7.199-20.897zM172.751 48.454q-1.395 0-2.337-.866-.905-.904-.905-2.221t.905-2.184q.942-.904 2.337-.904 1.394 0 2.299.904.942.866.942 2.184t-.942 2.221q-.905.867-2.299.866m2.6 2.486v20.859h-5.276v-20.86zM199.976 60.917q0 1.13-.151 2.033H184.56q.19 2.26 1.583 3.54 1.395 1.28 3.43 1.28 2.94 0 4.184-2.523h5.691q-.904 3.012-3.467 4.97-2.563 1.92-6.295 1.92-3.015 0-5.427-1.317-2.374-1.355-3.732-3.803-1.319-2.448-1.319-5.648 0-3.239 1.319-5.685 1.32-2.448 3.694-3.766 2.375-1.317 5.465-1.317 2.978 0 5.315 1.28a8.83 8.83 0 0 1 3.656 3.652q1.319 2.334 1.319 5.384m-5.465-1.506q-.037-2.033-1.47-3.238-1.432-1.242-3.505-1.242-1.96 0-3.317 1.205-1.32 1.167-1.621 3.275zM232.775 50.94l-6.106 20.859h-5.692l-3.806-14.572-3.807 14.572h-5.729l-6.144-20.86h5.352l3.694 15.89 3.995-15.89h5.579l3.919 15.852 3.694-15.851zM42.557 108.92a.73.73 0 0 1-.54-.221.73.73 0 0 1-.22-.538.73.73 0 0 1 .22-.538.73.73 0 0 1 .54-.221.68.68 0 0 1 .514.221.73.73 0 0 1 .22.538.73.73 0 0 1-.22.538.68.68 0 0 1-.514.221m.539 1.089v6.706H41.98v-6.706zM48.266 109.886q1.226 0 1.985.747.76.734.76 2.129v3.953h-1.103v-3.794q0-1.004-.502-1.529-.503-.539-1.372-.539-.882 0-1.41.551-.513.55-.514 1.603v3.708h-1.114v-6.706h1.114v.954q.33-.513.895-.795a2.8 2.8 0 0 1 1.261-.282M54.19 110.927v3.952q0 .49.21.698.207.195.722.195h.82v.943h-1.004q-.93 0-1.396-.429-.465-.427-.466-1.407v-3.952h-.87v-.918h.87v-1.689h1.115v1.689h1.752v.918zM63.418 113.105q0 .318-.037.673h-5.365q.06.992.674 1.554.624.55 1.507.551.722 0 1.2-.331a1.8 1.8 0 0 0 .686-.905h1.2a2.9 2.9 0 0 1-1.078 1.578q-.808.6-2.008.6a3.4 3.4 0 0 1-1.716-.429 3.05 3.05 0 0 1-1.175-1.211q-.43-.795-.43-1.836t.417-1.823a2.9 2.9 0 0 1 1.164-1.199q.759-.428 1.74-.428.955 0 1.69.416t1.127 1.15q.404.722.404 1.64m-1.151-.233q0-.636-.282-1.089a1.77 1.77 0 0 0-.772-.697 2.3 2.3 0 0 0-1.065-.245q-.846 0-1.446.538-.588.539-.674 1.493zM66.004 111.098q.294-.576.833-.893.552-.32 1.335-.319v1.151h-.293q-1.875 0-1.875 2.031v3.647H64.89v-6.706h1.114zM75.584 113.105q0 .318-.037.673h-5.365q.06.992.674 1.554.624.55 1.507.551.722 0 1.2-.331.49-.342.686-.905h1.2a2.9 2.9 0 0 1-1.078 1.578q-.808.6-2.008.6a3.4 3.4 0 0 1-1.716-.429 3.05 3.05 0 0 1-1.175-1.211q-.43-.795-.43-1.836t.417-1.823a2.9 2.9 0 0 1 1.164-1.199q.759-.428 1.74-.428.954 0 1.69.416.735.416 1.127 1.15.404.722.404 1.64m-1.151-.233q0-.636-.282-1.089a1.77 1.77 0 0 0-.772-.697 2.3 2.3 0 0 0-1.065-.245q-.846 0-1.446.538-.588.539-.674 1.493zM76.64 113.349q0-1.04.416-1.811a3 3 0 0 1 1.151-1.211q.747-.428 1.703-.428 1.237 0 2.033.599.81.6 1.066 1.665h-1.2a1.7 1.7 0 0 0-.674-.967q-.49-.355-1.225-.355-.956 0-1.544.661-.588.648-.588 1.847 0 1.212.588 1.873.588.66 1.544.661.735 0 1.225-.343t.673-.979h1.201a2.98 2.98 0 0 1-1.078 1.652q-.809.612-2.021.612-.956 0-1.703-.429a3 3 0 0 1-1.151-1.211q-.417-.783-.417-1.836M85.856 110.927v3.952q0 .49.208.698.21.195.723.195h.82v.943h-1.004q-.93 0-1.396-.429-.465-.427-.466-1.407v-3.952h-.87v-.918h.87v-1.689h1.115v1.689h1.752v.918zM89.534 108.92a.73.73 0 0 1-.539-.221.73.73 0 0 1-.22-.538.73.73 0 0 1 .22-.538.73.73 0 0 1 .54-.221.68.68 0 0 1 .514.221.73.73 0 0 1 .22.538.73.73 0 0 1-.22.538.68.68 0 0 1-.515.221m.54 1.089v6.706h-1.116v-6.706zM94.9 116.825a3.47 3.47 0 0 1-1.714-.429 3.1 3.1 0 0 1-1.2-1.211q-.43-.795-.43-1.836 0-1.027.442-1.811.453-.795 1.224-1.211a3.5 3.5 0 0 1 1.728-.428q.955 0 1.727.428.771.416 1.213 1.199.453.783.453 1.823t-.466 1.836a3.15 3.15 0 0 1-1.237 1.211 3.56 3.56 0 0 1-1.74.429m0-.979q.6 0 1.128-.282a2.1 2.1 0 0 0 .845-.844q.33-.562.33-1.371 0-.807-.318-1.37a2.04 2.04 0 0 0-.833-.832 2.3 2.3 0 0 0-1.115-.282q-.613 0-1.126.282a2 2 0 0 0-.809.832q-.306.563-.306 1.37 0 .82.294 1.383.306.564.808.845.503.269 1.103.269M103.079 109.886q1.225 0 1.985.747.759.734.759 2.129v3.953h-1.102v-3.794q0-1.004-.503-1.529-.502-.539-1.371-.539-.882 0-1.409.551-.515.55-.515 1.603v3.708h-1.114v-6.706h1.114v.954q.331-.513.895-.795a2.8 2.8 0 0 1 1.261-.282M43.34 376.374v3.953q0 .49.209.697.209.196.723.196h.82v.942h-1.004q-.93 0-1.396-.428t-.466-1.407v-3.953h-.87v-.917h.87v-1.689h1.115v1.689h1.752v.917zM49.37 382.273a3.47 3.47 0 0 1-1.714-.429 3.1 3.1 0 0 1-1.2-1.211q-.43-.795-.43-1.836 0-1.028.442-1.811.453-.795 1.225-1.211a3.5 3.5 0 0 1 1.727-.429q.956 0 1.727.429.771.416 1.213 1.199.453.783.453 1.823t-.466 1.836a3.15 3.15 0 0 1-1.237 1.211 3.56 3.56 0 0 1-1.74.429m0-.979q.602 0 1.128-.282a2.1 2.1 0 0 0 .845-.844q.33-.562.33-1.371 0-.807-.318-1.37a2.04 2.04 0 0 0-.833-.832 2.3 2.3 0 0 0-1.114-.282q-.613 0-1.127.282a2 2 0 0 0-.809.832q-.306.563-.306 1.37 0 .82.294 1.383.306.563.808.844.503.27 1.103.27M58.66 373.107v9.055h-1.115v-9.055zM60.143 378.785q0-1.028.416-1.799a3 3 0 0 1 1.14-1.211 3.2 3.2 0 0 1 1.629-.429q.881 0 1.53.38.65.38.968.954v-1.223h1.128v6.705h-1.127v-1.248q-.332.588-.993.979-.65.38-1.519.38a3.04 3.04 0 0 1-1.617-.441 3.1 3.1 0 0 1-1.139-1.236q-.416-.795-.416-1.811m5.683.012q0-.758-.306-1.321a2.1 2.1 0 0 0-.833-.857 2.2 2.2 0 0 0-1.139-.306q-.624 0-1.14.294a2.13 2.13 0 0 0-.82.857q-.306.562-.306 1.321 0 .771.306 1.346.306.563.82.869.516.294 1.14.294t1.14-.294q.525-.306.832-.869.306-.575.306-1.334M71.214 382.273q-.772 0-1.385-.257a2.4 2.4 0 0 1-.967-.735 2 2 0 0 1-.392-1.089h1.151q.05.502.466.82.428.318 1.114.318.638 0 1.005-.281t.367-.71q0-.441-.392-.648-.39-.22-1.212-.429a10 10 0 0 1-1.225-.391 2.3 2.3 0 0 1-.809-.6q-.33-.404-.33-1.052 0-.514.306-.943.306-.427.87-.673a3.1 3.1 0 0 1 1.286-.257q1.115 0 1.8.563.687.564.735 1.542h-1.114a1.14 1.14 0 0 0-.43-.844q-.378-.318-1.028-.318-.6 0-.956.257a.8.8 0 0 0-.355.673q0 .33.209.55.22.208.538.343.331.123.907.281.723.197 1.176.392.454.183.772.563.33.38.343.991 0 .551-.307.991a2.1 2.1 0 0 1-.87.698q-.55.245-1.273.245M76.597 376.374v3.953q0 .49.208.697.21.196.723.196h.82v.942h-1.004q-.93 0-1.396-.428t-.466-1.407v-3.953h-.87v-.917h.87v-1.689h1.115v1.689h1.752v.917zM91.038 375.334q.784 0 1.396.331.613.318.968.966.355.65.355 1.579v3.952h-1.102v-3.793q0-1.003-.502-1.53-.49-.538-1.336-.538-.87 0-1.384.563-.515.55-.515 1.603v3.695h-1.102v-3.793q0-1.003-.502-1.53-.49-.538-1.335-.538-.87 0-1.385.563-.514.55-.514 1.603v3.695h-1.115v-6.705h1.115v.966q.33-.526.882-.807a2.7 2.7 0 0 1 1.237-.282q.846 0 1.495.38.649.379.967 1.113a2.2 2.2 0 0 1 .931-1.101 2.75 2.75 0 0 1 1.446-.392M98.513 382.273a3.47 3.47 0 0 1-1.715-.429 3.1 3.1 0 0 1-1.2-1.211q-.429-.795-.429-1.836 0-1.028.441-1.811.453-.795 1.225-1.211a3.5 3.5 0 0 1 1.727-.429q.956 0 1.728.429.771.416 1.212 1.199.454.783.454 1.823t-.466 1.836a3.14 3.14 0 0 1-1.237 1.211 3.56 3.56 0 0 1-1.74.429m0-.979q.6 0 1.127-.282t.846-.844q.33-.562.33-1.371 0-.807-.318-1.37a2.04 2.04 0 0 0-.833-.832 2.3 2.3 0 0 0-1.115-.282q-.612 0-1.127.282a2 2 0 0 0-.808.832q-.306.563-.306 1.37 0 .82.294 1.383.306.563.808.844.502.27 1.102.27M106.692 375.334q1.225 0 1.984.747.76.734.76 2.129v3.952h-1.103v-3.793q0-1.003-.502-1.53-.502-.538-1.372-.538-.881 0-1.409.551-.514.55-.514 1.603v3.707h-1.115v-6.705h1.115v.954a2.2 2.2 0 0 1 .894-.795 2.8 2.8 0 0 1 1.262-.282M112.617 376.374v3.953q0 .49.208.697.209.196.723.196h.82v.942h-1.004q-.931 0-1.397-.428t-.465-1.407v-3.953h-.87v-.917h.87v-1.689h1.115v1.689h1.751v.917zM119.051 375.334q.759 0 1.372.331.613.318.955.966.356.65.356 1.579v3.952h-1.103v-3.793q0-1.003-.502-1.53-.502-.538-1.372-.538-.882 0-1.409.551-.514.55-.514 1.603v3.707h-1.115v-9.055h1.115v3.304a2.2 2.2 0 0 1 .906-.795 3 3 0 0 1 1.311-.282"/><defs><linearGradient id="b" x1="174.372" x2="174.372" y1="5" y2="438" gradientUnits="userSpaceOnUse"><stop stop-color="#00F"/><stop offset="1" stop-color="#C9C9FF"/></linearGradient><linearGradient id="c" x1="174.372" x2="174.372" y1="5" y2="438" gradientUnits="userSpaceOnUse"><stop stop-color="#00F"/><stop offset="1" stop-color="#C9C9FF"/></linearGradient><linearGradient id="d" x1="174.372" x2="174.372" y1="5" y2="438" gradientUnits="userSpaceOnUse"><stop stop-color="#00F"/><stop offset="1" stop-color="#C9C9FF"/></linearGradient><linearGradient id="e" x1="174.372" x2="174.372" y1="5" y2="438" gradientUnits="userSpaceOnUse"><stop stop-color="#00F"/><stop offset="1" stop-color="#C9C9FF"/></linearGradient><filter id="a" width="350" height="457" x="0" y="0" color-interpolation-filters="sRGB" filterUnits="userSpaceOnUse"><feFlood flood-opacity="0" result="BackgroundImageFix"/><feColorMatrix in="SourceAlpha" result="hardAlpha" values="0 0 0 0 0 0 0 0 0 0 0 0 0 0 0 0 0 0 127 0"/><feMorphology in="SourceAlpha" radius="4" result="effect1_dropShadow_963_4412"/><feOffset dy="4"/><feGaussianBlur stdDeviation="2"/><feComposite in2="hardAlpha" operator="out"/><feColorMatrix values="0 0 0 0 0.0470588 0 0 0 0 0.0470588 0 0 0 0 0.0509804 0 0 0 0.05 0"/><feBlend in2="BackgroundImageFix" result="effect1_dropShadow_963_4412"/><feColorMatrix in="SourceAlpha" result="hardAlpha" values="0 0 0 0 0 0 0 0 0 0 0 0 0 0 0 0 0 0 127 0"/><feMorphology in="SourceAlpha" radius="8" result="effect2_dropShadow_963_4412"/><feOffset dy="16"/><feGaussianBlur stdDeviation="8"/><feComposite in2="hardAlpha" operator="out"/><feColorMatrix values="0 0 0 0 0.0470588 0 0 0 0 0.0470588 0 0 0 0 0.0509804 0 0 0 0.1 0"/><feBlend in2="effect1_dropShadow_963_4412" result="effect2_dropShadow_963_4412"/><feBlend in="SourceGraphic" in2="effect2_dropShadow_963_4412" result="shape"/></filter></defs></svg>