<svg width="996" height="433" viewBox="0 0 996 433" fill="none" xmlns="http://www.w3.org/2000/svg">
<path d="M0 18.8261C0 8.42872 8.43755 0 18.8458 0H311.898C322.306 0 330.744 8.42873 330.744 18.8261V414.174C330.744 424.571 322.306 433 311.898 433H18.8458C8.43753 433 0 424.571 0 414.174V18.8261Z" fill="#FAFAFA"/>
<path d="M284.503 335.126C282.517 336.79 280.157 337.948 277.625 338.501C275.093 339.054 272.464 338.984 269.964 338.298C267.465 337.613 265.169 336.331 263.275 334.564C261.38 332.797 259.943 330.598 259.087 328.154C258.23 325.71 257.981 323.095 258.359 320.533C258.737 317.971 259.731 315.54 261.257 313.447C262.783 311.354 264.795 309.662 267.12 308.516C269.444 307.371 272.012 306.806 274.603 306.87L274.445 313.269C272.89 313.231 271.349 313.569 269.954 314.257C268.559 314.944 267.353 315.959 266.437 317.215C265.521 318.471 264.925 319.93 264.698 321.467C264.471 323.004 264.621 324.573 265.134 326.039C265.648 327.505 266.51 328.825 267.647 329.886C268.784 330.946 270.161 331.715 271.661 332.126C273.161 332.537 274.738 332.579 276.257 332.247C277.777 331.916 279.193 331.221 280.384 330.222L284.503 335.126Z" fill="#0000FF"/>
<path d="M284.503 335.126C282.517 336.79 280.157 337.948 277.625 338.501C275.093 339.054 272.464 338.984 269.964 338.298C267.465 337.613 265.169 336.331 263.275 334.564C261.38 332.797 259.943 330.598 259.087 328.154C258.23 325.71 257.981 323.095 258.359 320.533C258.737 317.971 259.731 315.54 261.257 313.447C262.783 311.354 264.795 309.662 267.12 308.516C269.444 307.371 272.012 306.806 274.603 306.87L274.445 313.269C272.89 313.231 271.349 313.569 269.954 314.257C268.559 314.944 267.353 315.959 266.437 317.215C265.521 318.471 264.925 319.93 264.698 321.467C264.471 323.004 264.621 324.573 265.134 326.039C265.648 327.505 266.51 328.825 267.647 329.886C268.784 330.946 270.161 331.715 271.661 332.126C273.161 332.537 274.738 332.579 276.257 332.247C277.777 331.916 279.193 331.221 280.384 330.222L284.503 335.126Z" fill="url(#paint0_linear_598_3567)" fill-opacity="0.2"/>
<path d="M274.206 306.865C277.374 306.865 280.472 307.804 283.106 309.562C285.74 311.32 287.793 313.82 289.006 316.744C290.218 319.668 290.535 322.885 289.917 325.989C289.299 329.093 287.774 331.945 285.533 334.183C283.293 336.421 280.439 337.945 277.331 338.562C274.224 339.18 271.003 338.863 268.076 337.651C265.149 336.44 262.647 334.389 260.887 331.758C259.127 329.126 258.187 326.032 258.187 322.867H264.595C264.595 324.766 265.159 326.623 266.215 328.202C267.271 329.78 268.772 331.011 270.528 331.738C272.284 332.465 274.217 332.655 276.081 332.284C277.946 331.914 279.658 330.999 281.002 329.657C282.347 328.314 283.262 326.603 283.633 324.741C284.004 322.878 283.813 320.948 283.086 319.193C282.358 317.439 281.127 315.939 279.546 314.884C277.965 313.829 276.107 313.266 274.206 313.266V306.865Z" fill="#00D9FF"/>
<path d="M284.503 289.944C282.518 291.608 280.157 292.766 277.625 293.319C275.093 293.871 272.464 293.802 269.964 293.116C267.465 292.431 265.169 291.149 263.275 289.382C261.38 287.615 259.943 285.415 259.087 282.972C258.23 280.528 257.981 277.913 258.359 275.351C258.737 272.789 259.732 270.358 261.258 268.265C262.784 266.172 264.795 264.48 267.12 263.334C269.444 262.189 272.012 261.624 274.604 261.688L274.445 268.087C272.89 268.048 271.349 268.387 269.954 269.075C268.56 269.762 267.353 270.777 266.437 272.033C265.522 273.289 264.925 274.748 264.698 276.285C264.471 277.822 264.621 279.391 265.135 280.857C265.648 282.323 266.511 283.643 267.647 284.704C268.784 285.764 270.162 286.533 271.661 286.944C273.161 287.355 274.738 287.397 276.258 287.065C277.777 286.734 279.193 286.039 280.384 285.04L284.503 289.944Z" fill="#0000FF"/>
<path d="M284.503 289.944C282.518 291.608 280.157 292.766 277.625 293.319C275.093 293.871 272.464 293.802 269.964 293.116C267.465 292.431 265.169 291.149 263.275 289.382C261.38 287.615 259.943 285.415 259.087 282.972C258.23 280.528 257.981 277.913 258.359 275.351C258.737 272.789 259.732 270.358 261.258 268.265C262.784 266.172 264.795 264.48 267.12 263.334C269.444 262.189 272.012 261.624 274.604 261.688L274.445 268.087C272.89 268.048 271.349 268.387 269.954 269.075C268.56 269.762 267.353 270.777 266.437 272.033C265.522 273.289 264.925 274.748 264.698 276.285C264.471 277.822 264.621 279.391 265.135 280.857C265.648 282.323 266.511 283.643 267.647 284.704C268.784 285.764 270.162 286.533 271.661 286.944C273.161 287.355 274.738 287.397 276.258 287.065C277.777 286.734 279.193 286.039 280.384 285.04L284.503 289.944Z" fill="url(#paint1_linear_598_3567)" fill-opacity="0.2"/>
<path d="M274.206 261.683C276.31 261.683 278.393 262.097 280.337 262.901C282.28 263.705 284.046 264.884 285.533 266.37C287.021 267.856 288.201 269.62 289.006 271.562C289.811 273.503 290.225 275.584 290.225 277.685C290.225 279.787 289.811 281.868 289.006 283.809C288.201 285.751 287.021 287.515 285.533 289.001C284.046 290.487 282.28 291.665 280.337 292.469C278.393 293.274 276.31 293.688 274.206 293.688V287.287C275.469 287.287 276.718 287.038 277.884 286.556C279.051 286.073 280.11 285.366 281.003 284.475C281.895 283.583 282.603 282.525 283.086 281.36C283.569 280.195 283.818 278.946 283.818 277.685C283.818 276.425 283.569 275.176 283.086 274.011C282.603 272.846 281.895 271.788 281.003 270.896C280.11 270.005 279.051 269.297 277.884 268.815C276.718 268.332 275.469 268.084 274.206 268.084V261.683Z" fill="#00D9FF"/>
<path d="M276.822 250.173C273.407 250.737 269.9 250.182 266.827 248.588C263.754 246.995 261.281 244.451 259.777 241.335C258.274 238.22 257.821 234.702 258.486 231.308C259.152 227.914 260.9 224.827 263.47 222.509C266.039 220.191 269.291 218.767 272.738 218.45C276.186 218.133 279.643 218.941 282.593 220.751C285.543 222.562 287.826 225.279 289.1 228.494C290.375 231.71 290.572 235.251 289.663 238.588L283.48 236.907C284.026 234.905 283.907 232.78 283.143 230.851C282.378 228.921 281.008 227.291 279.238 226.205C277.469 225.118 275.394 224.634 273.326 224.824C271.257 225.014 269.306 225.869 267.764 227.26C266.223 228.65 265.174 230.503 264.774 232.539C264.375 234.575 264.647 236.686 265.549 238.555C266.451 240.424 267.935 241.951 269.779 242.907C271.623 243.863 273.727 244.196 275.776 243.858L276.822 250.173Z" fill="#0000FF"/>
<path d="M276.822 250.173C273.407 250.737 269.9 250.182 266.827 248.588C263.754 246.995 261.281 244.451 259.777 241.335C258.274 238.22 257.821 234.702 258.486 231.308C259.152 227.914 260.9 224.827 263.47 222.509C266.039 220.191 269.291 218.767 272.738 218.45C276.186 218.133 279.643 218.941 282.593 220.751C285.543 222.562 287.826 225.279 289.1 228.494C290.375 231.71 290.572 235.251 289.663 238.588L283.48 236.907C284.026 234.905 283.907 232.78 283.143 230.851C282.378 228.921 281.008 227.291 279.238 226.205C277.469 225.118 275.394 224.634 273.326 224.824C271.257 225.014 269.306 225.869 267.764 227.26C266.223 228.65 265.174 230.503 264.774 232.539C264.375 234.575 264.647 236.686 265.549 238.555C266.451 240.424 267.935 241.951 269.779 242.907C271.623 243.863 273.727 244.196 275.776 243.858L276.822 250.173Z" fill="url(#paint2_linear_598_3567)" fill-opacity="0.2"/>
<path d="M289.809 238.008C288.978 241.581 286.943 244.761 284.045 247.014C281.147 249.267 277.562 250.457 273.89 250.384L274.017 243.985C276.219 244.028 278.37 243.314 280.109 241.962C281.848 240.61 283.069 238.703 283.568 236.559L289.809 238.008Z" fill="#00D9FF"/>
<path d="M290.152 192.611C289.85 195.762 288.619 198.752 286.616 201.204C284.612 203.656 281.926 205.459 278.897 206.386C275.867 207.312 272.631 207.321 269.597 206.41C266.562 205.499 263.867 203.71 261.85 201.269C259.834 198.828 258.587 195.844 258.269 192.695C257.95 189.546 258.573 186.374 260.059 183.579C261.545 180.783 263.828 178.491 266.618 176.992C269.408 175.493 272.58 174.854 275.734 175.156L275.123 181.527C273.231 181.346 271.327 181.73 269.653 182.629C267.979 183.529 266.61 184.904 265.718 186.581C264.826 188.258 264.452 190.162 264.644 192.051C264.835 193.94 265.583 195.731 266.793 197.195C268.002 198.66 269.62 199.734 271.44 200.28C273.261 200.826 275.203 200.821 277.02 200.265C278.838 199.709 280.45 198.627 281.652 197.156C282.854 195.685 283.592 193.891 283.774 192.001L290.152 192.611Z" fill="#0000FF"/>
<path d="M290.152 192.611C289.85 195.762 288.619 198.752 286.616 201.204C284.612 203.656 281.926 205.459 278.897 206.386C275.867 207.312 272.631 207.321 269.597 206.41C266.562 205.499 263.867 203.71 261.85 201.269C259.834 198.828 258.587 195.844 258.269 192.695C257.95 189.546 258.573 186.374 260.059 183.579C261.545 180.783 263.828 178.491 266.618 176.992C269.408 175.493 272.58 174.854 275.734 175.156L275.123 181.527C273.231 181.346 271.327 181.73 269.653 182.629C267.979 183.529 266.61 184.904 265.718 186.581C264.826 188.258 264.452 190.162 264.644 192.051C264.835 193.94 265.583 195.731 266.793 197.195C268.002 198.66 269.62 199.734 271.44 200.28C273.261 200.826 275.203 200.821 277.02 200.265C278.838 199.709 280.45 198.627 281.652 197.156C282.854 195.685 283.592 193.891 283.774 192.001L290.152 192.611Z" fill="url(#paint3_linear_598_3567)" fill-opacity="0.2"/>
<path d="M274.206 175.083C276.699 175.083 279.158 175.664 281.386 176.78C283.615 177.896 285.552 179.517 287.043 181.512C288.534 183.508 289.539 185.824 289.976 188.276C290.414 190.727 290.273 193.247 289.564 195.635L283.421 193.815C283.846 192.382 283.931 190.87 283.668 189.399C283.406 187.928 282.803 186.539 281.908 185.341C281.013 184.144 279.851 183.172 278.514 182.502C277.177 181.832 275.702 181.483 274.206 181.483V175.083Z" fill="#00D9FF"/>
<path d="M38.6895 190.59C38.6895 191.299 38.4445 191.891 37.9545 192.364C37.4727 192.829 36.7336 193.061 35.7373 193.061H34.0958V196.622H32.9811V188.093H35.7373C36.7009 188.093 37.4318 188.326 37.93 188.791C38.4363 189.256 38.6895 189.855 38.6895 190.59ZM35.7373 192.144C36.3579 192.144 36.8152 192.009 37.1092 191.74C37.4032 191.471 37.5502 191.087 37.5502 190.59C37.5502 189.537 36.9459 189.011 35.7373 189.011H34.0958V192.144H35.7373Z" fill="black"/>
<path d="M41.1897 191.006C41.3857 190.622 41.6633 190.324 42.0226 190.112C42.3901 189.9 42.8352 189.794 43.3579 189.794V190.944H43.0639C41.8144 190.944 41.1897 191.622 41.1897 192.976V196.622H40.0749V189.917H41.1897V191.006Z" fill="black"/>
<path d="M47.5724 196.733C46.9435 196.733 46.3719 196.59 45.8574 196.304C45.3511 196.019 44.9509 195.615 44.6569 195.093C44.3711 194.563 44.2282 193.951 44.2282 193.257C44.2282 192.572 44.3752 191.968 44.6692 191.446C44.9713 190.916 45.3796 190.512 45.8941 190.235C46.4086 189.949 46.9844 189.806 47.6214 189.806C48.2583 189.806 48.8341 189.949 49.3486 190.235C49.8631 190.512 50.2673 190.912 50.5613 191.434C50.8635 191.956 51.0145 192.564 51.0145 193.257C51.0145 193.951 50.8594 194.563 50.549 195.093C50.2469 195.615 49.8345 196.019 49.3118 196.304C48.7892 196.59 48.2093 196.733 47.5724 196.733ZM47.5724 195.754C47.9725 195.754 48.3482 195.66 48.6993 195.472C49.0505 195.285 49.3322 195.003 49.5446 194.628C49.7651 194.253 49.8753 193.796 49.8753 193.257C49.8753 192.719 49.7691 192.262 49.5568 191.887C49.3445 191.511 49.0668 191.234 48.7238 191.055C48.3808 190.867 48.0093 190.773 47.6091 190.773C47.2008 190.773 46.8251 190.867 46.4821 191.055C46.1473 191.234 45.8778 191.511 45.6736 191.887C45.4695 192.262 45.3674 192.719 45.3674 193.257C45.3674 193.804 45.4654 194.265 45.6614 194.64C45.8656 195.015 46.135 195.297 46.4699 195.484C46.8047 195.664 47.1722 195.754 47.5724 195.754Z" fill="black"/>
<path d="M52.0637 193.245C52.0637 192.56 52.2025 191.96 52.4802 191.446C52.7579 190.924 53.1376 190.52 53.6194 190.235C54.1094 189.949 54.6566 189.806 55.2609 189.806C55.7836 189.806 56.2695 189.929 56.7186 190.174C57.1678 190.41 57.5108 190.724 57.7476 191.116V187.567H58.8746V196.622H57.7476V195.362C57.5271 195.762 57.2004 196.092 56.7676 196.353C56.3348 196.606 55.8285 196.733 55.2486 196.733C54.6525 196.733 54.1094 196.586 53.6194 196.292C53.1376 195.998 52.7579 195.586 52.4802 195.056C52.2025 194.526 52.0637 193.922 52.0637 193.245ZM57.7476 193.257C57.7476 192.751 57.6455 192.311 57.4414 191.936C57.2372 191.56 56.9595 191.275 56.6084 191.079C56.2654 190.875 55.8856 190.773 55.4691 190.773C55.0527 190.773 54.6729 190.871 54.3299 191.067C53.9869 191.263 53.7133 191.548 53.5092 191.923C53.305 192.299 53.2029 192.739 53.2029 193.245C53.2029 193.759 53.305 194.208 53.5092 194.591C53.7133 194.966 53.9869 195.256 54.3299 195.46C54.6729 195.656 55.0527 195.754 55.4691 195.754C55.8856 195.754 56.2654 195.656 56.6084 195.46C56.9595 195.256 57.2372 194.966 57.4414 194.591C57.6455 194.208 57.7476 193.763 57.7476 193.257Z" fill="black"/>
<path d="M66.7117 189.917V196.622H65.597V195.631C65.3847 195.974 65.0866 196.243 64.7028 196.439C64.3271 196.627 63.9106 196.72 63.4533 196.72C62.9307 196.72 62.4611 196.614 62.0446 196.402C61.6281 196.182 61.2974 195.856 61.0524 195.423C60.8155 194.991 60.6971 194.465 60.6971 193.845V189.917H61.7996V193.698C61.7996 194.359 61.967 194.868 62.3018 195.227C62.6367 195.578 63.094 195.754 63.6738 195.754C64.27 195.754 64.7395 195.57 65.0825 195.203C65.4255 194.836 65.597 194.301 65.597 193.6V189.917H66.7117Z" fill="black"/>
<path d="M68.1774 193.257C68.1774 192.564 68.3162 191.96 68.5939 191.446C68.8716 190.924 69.2554 190.52 69.7454 190.235C70.2435 189.949 70.8111 189.806 71.4481 189.806C72.2729 189.806 72.9507 190.006 73.4816 190.406C74.0205 190.806 74.3758 191.361 74.5473 192.07H73.3468C73.2325 191.662 73.0079 191.34 72.6731 191.104C72.3464 190.867 71.9381 190.749 71.4481 190.749C70.8111 190.749 70.2966 190.969 69.9046 191.409C69.5126 191.842 69.3166 192.458 69.3166 193.257C69.3166 194.065 69.5126 194.689 69.9046 195.13C70.2966 195.57 70.8111 195.79 71.4481 195.79C71.9381 195.79 72.3464 195.676 72.6731 195.448C72.9997 195.219 73.2243 194.893 73.3468 194.469H74.5473C74.3676 195.154 74.0083 195.705 73.4693 196.121C72.9303 196.529 72.2566 196.733 71.4481 196.733C70.8111 196.733 70.2435 196.59 69.7454 196.304C69.2554 196.019 68.8716 195.615 68.5939 195.093C68.3162 194.571 68.1774 193.959 68.1774 193.257Z" fill="black"/>
<path d="M77.3944 190.834V194.787C77.3944 195.113 77.4638 195.346 77.6026 195.484C77.7415 195.615 77.9824 195.68 78.3254 195.68H79.1461V196.622H78.1416C77.521 196.622 77.0555 196.48 76.7452 196.194C76.4348 195.909 76.2797 195.44 76.2797 194.787V190.834H75.4099V189.917H76.2797V188.228H77.3944V189.917H79.1461V190.834H77.3944Z" fill="black"/>
<path d="M35.3575 240.195C34.843 240.195 34.3816 240.109 33.9733 239.938C33.565 239.758 33.2424 239.514 33.0056 239.204C32.7687 238.886 32.6381 238.523 32.6136 238.115H33.7651C33.7977 238.449 33.9529 238.722 34.2305 238.935C34.5164 239.147 34.888 239.253 35.3453 239.253C35.7699 239.253 36.1048 239.159 36.3498 238.971C36.5947 238.784 36.7172 238.547 36.7172 238.261C36.7172 237.968 36.5866 237.752 36.3253 237.613C36.0639 237.466 35.6597 237.323 35.1125 237.185C34.6144 237.054 34.206 236.924 33.8876 236.793C33.5772 236.654 33.3077 236.455 33.0791 236.193C32.8586 235.924 32.7483 235.573 32.7483 235.141C32.7483 234.798 32.8504 234.484 33.0546 234.199C33.2587 233.913 33.5486 233.689 33.9243 233.526C34.3 233.354 34.7287 233.269 35.2105 233.269C35.9537 233.269 36.5539 233.456 37.0112 233.832C37.4686 234.207 37.7136 234.721 37.7462 235.374H36.6315C36.607 235.023 36.4641 234.741 36.2028 234.529C35.9496 234.317 35.6066 234.211 35.1738 234.211C34.7736 234.211 34.4551 234.297 34.2183 234.468C33.9815 234.639 33.8631 234.864 33.8631 235.141C33.8631 235.361 33.9325 235.545 34.0713 235.692C34.2183 235.83 34.398 235.945 34.6103 236.034C34.8308 236.116 35.1329 236.21 35.5168 236.316C35.9986 236.446 36.3906 236.577 36.6927 236.707C36.9949 236.83 37.2522 237.017 37.4645 237.27C37.685 237.523 37.7993 237.854 37.8075 238.261C37.8075 238.629 37.7054 238.959 37.5012 239.253C37.2971 239.546 37.0072 239.779 36.6315 239.95C36.264 240.113 35.8393 240.195 35.3575 240.195Z" fill="black"/>
<path d="M38.9646 236.707C38.9646 236.022 39.1034 235.423 39.3811 234.909C39.6588 234.386 40.0385 233.983 40.5203 233.697C41.0103 233.412 41.5534 233.269 42.1495 233.269C42.7375 233.269 43.2479 233.395 43.6808 233.648C44.1136 233.901 44.4362 234.219 44.6485 234.603V233.379H45.7755V240.085H44.6485V238.837C44.428 239.228 44.0972 239.555 43.6563 239.816C43.2234 240.068 42.7171 240.195 42.1373 240.195C41.5411 240.195 41.0021 240.048 40.5203 239.754C40.0385 239.461 39.6588 239.049 39.3811 238.518C39.1034 237.988 38.9646 237.385 38.9646 236.707ZM44.6485 236.72C44.6485 236.214 44.5464 235.773 44.3422 235.398C44.1381 235.023 43.8604 234.737 43.5093 234.541C43.1663 234.338 42.7865 234.236 42.37 234.236C41.9535 234.236 41.5738 234.333 41.2308 234.529C40.8878 234.725 40.6142 235.011 40.4101 235.386C40.2059 235.761 40.1038 236.202 40.1038 236.707C40.1038 237.221 40.2059 237.67 40.4101 238.053C40.6142 238.429 40.8878 238.718 41.2308 238.922C41.5738 239.118 41.9535 239.216 42.37 239.216C42.7865 239.216 43.1663 239.118 43.5093 238.922C43.8604 238.718 44.1381 238.429 44.3422 238.053C44.5464 237.67 44.6485 237.225 44.6485 236.72Z" fill="black"/>
<path d="M48.774 231.029V240.085H47.6593V231.029H48.774Z" fill="black"/>
<path d="M56.7987 236.475C56.7987 236.687 56.7865 236.911 56.762 237.148H51.3966C51.4374 237.809 51.662 238.327 52.0703 238.702C52.4868 239.069 52.989 239.253 53.577 239.253C54.0589 239.253 54.459 239.143 54.7775 238.922C55.1042 238.694 55.3328 238.392 55.4635 238.017H56.664C56.4843 238.661 56.125 239.187 55.586 239.595C55.047 239.995 54.3774 240.195 53.577 240.195C52.9401 240.195 52.3684 240.052 51.8621 239.767C51.3639 239.481 50.9719 239.077 50.6861 238.555C50.4003 238.025 50.2574 237.413 50.2574 236.72C50.2574 236.026 50.3962 235.418 50.6738 234.896C50.9515 234.374 51.3394 233.974 51.8376 233.697C52.3439 233.412 52.9237 233.269 53.577 233.269C54.214 233.269 54.7775 233.407 55.2675 233.685C55.7575 233.962 56.1332 234.346 56.3945 234.835C56.664 235.316 56.7987 235.863 56.7987 236.475ZM55.6472 236.242C55.6472 235.818 55.5533 235.455 55.3655 235.153C55.1777 234.843 54.9204 234.611 54.5938 234.456C54.2753 234.293 53.92 234.211 53.528 234.211C52.9645 234.211 52.4827 234.391 52.0826 234.749C51.6906 235.108 51.466 235.606 51.4088 236.242H55.6472Z" fill="black"/>
<path d="M60.6466 240.195C60.1321 240.195 59.6707 240.109 59.2624 239.938C58.854 239.758 58.5315 239.514 58.2946 239.204C58.0578 238.886 57.9271 238.523 57.9026 238.115H59.0541C59.0868 238.449 59.2419 238.722 59.5196 238.935C59.8054 239.147 60.177 239.253 60.6343 239.253C61.059 239.253 61.3938 239.159 61.6388 238.971C61.8838 238.784 62.0063 238.547 62.0063 238.261C62.0063 237.968 61.8756 237.752 61.6143 237.613C61.353 237.466 60.9487 237.323 60.4016 237.185C59.9034 237.054 59.4951 236.924 59.1766 236.793C58.8663 236.654 58.5968 236.455 58.3681 236.193C58.1476 235.924 58.0374 235.573 58.0374 235.141C58.0374 234.798 58.1395 234.484 58.3436 234.199C58.5478 233.913 58.8377 233.689 59.2134 233.526C59.589 233.354 60.0178 233.269 60.4996 233.269C61.2427 233.269 61.843 233.456 62.3003 233.832C62.7576 234.207 63.0026 234.721 63.0353 235.374H61.9206C61.8961 235.023 61.7531 234.741 61.4918 234.529C61.2387 234.317 60.8957 234.211 60.4628 234.211C60.0627 234.211 59.7442 234.297 59.5074 234.468C59.2705 234.639 59.1521 234.864 59.1521 235.141C59.1521 235.361 59.2215 235.545 59.3604 235.692C59.5074 235.83 59.687 235.945 59.8993 236.034C60.1198 236.116 60.422 236.21 60.8058 236.316C61.2877 236.446 61.6796 236.577 61.9818 236.707C62.284 236.83 62.5412 237.017 62.7535 237.27C62.974 237.523 63.0884 237.854 63.0965 238.261C63.0965 238.629 62.9945 238.959 62.7903 239.253C62.5861 239.546 62.2962 239.779 61.9206 239.95C61.5531 240.113 61.1284 240.195 60.6466 240.195Z" fill="black"/>
<path d="M33.5568 275.752C33.3445 275.752 33.1648 275.679 33.0178 275.532C32.8708 275.385 32.7973 275.206 32.7973 274.994C32.7973 274.781 32.8708 274.602 33.0178 274.455C33.1648 274.308 33.3445 274.235 33.5568 274.235C33.761 274.235 33.9325 274.308 34.0713 274.455C34.2183 274.602 34.2918 274.781 34.2918 274.994C34.2918 275.206 34.2183 275.385 34.0713 275.532C33.9325 275.679 33.761 275.752 33.5568 275.752ZM34.0958 276.841V283.547H32.9811V276.841H34.0958Z" fill="black"/>
<path d="M39.2663 276.719C40.083 276.719 40.7445 276.968 41.2508 277.465C41.7571 277.955 42.0103 278.665 42.0103 279.595V283.547H40.9078V279.754C40.9078 279.085 40.7404 278.575 40.4056 278.224C40.0707 277.865 39.6134 277.686 39.0336 277.686C38.4456 277.686 37.976 277.869 37.6249 278.236C37.2819 278.603 37.1104 279.138 37.1104 279.839V283.547H35.9957V276.841H37.1104V277.796C37.3309 277.453 37.629 277.188 38.0046 277C38.3884 276.813 38.809 276.719 39.2663 276.719Z" fill="black"/>
<path d="M43.4147 280.182C43.4147 279.489 43.5535 278.885 43.8312 278.371C44.1089 277.849 44.4927 277.445 44.9827 277.159C45.4808 276.874 46.0484 276.731 46.6854 276.731C47.5102 276.731 48.188 276.931 48.7189 277.331C49.2578 277.731 49.6131 278.285 49.7846 278.995H48.5841C48.4698 278.587 48.2452 278.265 47.9104 278.028C47.5837 277.792 47.1754 277.673 46.6854 277.673C46.0484 277.673 45.5339 277.894 45.1419 278.334C44.7499 278.767 44.5539 279.382 44.5539 280.182C44.5539 280.99 44.7499 281.614 45.1419 282.054C45.5339 282.495 46.0484 282.715 46.6854 282.715C47.1754 282.715 47.5837 282.601 47.9104 282.372C48.237 282.144 48.4616 281.818 48.5841 281.393H49.7846C49.6049 282.079 49.2456 282.629 48.7066 283.045C48.1676 283.453 47.4939 283.657 46.6854 283.657C46.0484 283.657 45.4808 283.515 44.9827 283.229C44.4927 282.943 44.1089 282.54 43.8312 282.018C43.5535 281.495 43.4147 280.884 43.4147 280.182Z" fill="black"/>
<path d="M54.1997 283.657C53.5708 283.657 52.9992 283.515 52.4847 283.229C51.9784 282.943 51.5782 282.54 51.2842 282.018C50.9984 281.487 50.8555 280.875 50.8555 280.182C50.8555 279.497 51.0025 278.893 51.2965 278.371C51.5986 277.841 52.007 277.437 52.5215 277.159C53.0359 276.874 53.6117 276.731 54.2487 276.731C54.8857 276.731 55.4614 276.874 55.9759 277.159C56.4904 277.437 56.8946 277.837 57.1886 278.359C57.4908 278.881 57.6419 279.489 57.6419 280.182C57.6419 280.875 57.4867 281.487 57.1764 282.018C56.8742 282.54 56.4618 282.943 55.9391 283.229C55.4165 283.515 54.8367 283.657 54.1997 283.657ZM54.1997 282.678C54.5998 282.678 54.9755 282.585 55.3266 282.397C55.6778 282.209 55.9595 281.928 56.1719 281.553C56.3924 281.177 56.5026 280.72 56.5026 280.182C56.5026 279.644 56.3965 279.187 56.1841 278.811C55.9718 278.436 55.6941 278.159 55.3511 277.979C55.0082 277.792 54.6366 277.698 54.2364 277.698C53.8281 277.698 53.4524 277.792 53.1094 277.979C52.7746 278.159 52.5051 278.436 52.301 278.811C52.0968 279.187 51.9947 279.644 51.9947 280.182C51.9947 280.729 52.0927 281.189 52.2887 281.565C52.4929 281.94 52.7624 282.221 53.0972 282.409C53.432 282.589 53.7995 282.678 54.1997 282.678Z" fill="black"/>
<path d="M67.1801 276.719C67.7028 276.719 68.1683 276.829 68.5766 277.049C68.9849 277.261 69.3075 277.584 69.5443 278.016C69.7811 278.448 69.8996 278.975 69.8996 279.595V283.547H68.7971V279.754C68.7971 279.085 68.6297 278.575 68.2948 278.224C67.9682 277.865 67.5231 277.686 66.9596 277.686C66.3798 277.686 65.9184 277.873 65.5754 278.249C65.2324 278.616 65.0609 279.15 65.0609 279.852V283.547H63.9584V279.754C63.9584 279.085 63.791 278.575 63.4562 278.224C63.1295 277.865 62.6844 277.686 62.121 277.686C61.5411 277.686 61.0797 277.873 60.7367 278.249C60.3937 278.616 60.2222 279.15 60.2222 279.852V283.547H59.1075V276.841H60.2222V277.808C60.4427 277.457 60.7367 277.188 61.1042 277C61.4799 276.813 61.8923 276.719 62.3415 276.719C62.9049 276.719 63.4031 276.845 63.8359 277.098C64.2687 277.351 64.5913 277.722 64.8037 278.212C64.9915 277.739 65.3018 277.372 65.7346 277.111C66.1675 276.849 66.6493 276.719 67.1801 276.719Z" fill="black"/>
<path d="M77.853 279.937C77.853 280.149 77.8407 280.374 77.8162 280.61H72.4509C72.4917 281.271 72.7163 281.789 73.1246 282.164C73.5411 282.531 74.0433 282.715 74.6313 282.715C75.1131 282.715 75.5133 282.605 75.8318 282.385C76.1584 282.156 76.3871 281.854 76.5178 281.479H77.7183C77.5386 282.124 77.1793 282.65 76.6403 283.058C76.1013 283.457 75.4316 283.657 74.6313 283.657C73.9943 283.657 73.4227 283.515 72.9163 283.229C72.4182 282.943 72.0262 282.54 71.7404 282.018C71.4545 281.487 71.3116 280.875 71.3116 280.182C71.3116 279.489 71.4505 278.881 71.7281 278.359C72.0058 277.837 72.3937 277.437 72.8918 277.159C73.3982 276.874 73.978 276.731 74.6313 276.731C75.2683 276.731 75.8318 276.87 76.3218 277.147C76.8118 277.425 77.1874 277.808 77.4488 278.297C77.7182 278.779 77.853 279.325 77.853 279.937ZM76.7015 279.705C76.7015 279.281 76.6076 278.918 76.4198 278.616C76.2319 278.306 75.9747 278.073 75.648 277.918C75.3295 277.755 74.9743 277.673 74.5823 277.673C74.0188 277.673 73.537 277.853 73.1368 278.212C72.7448 278.571 72.5203 279.068 72.4631 279.705H76.7015Z" fill="black"/>
<path d="M34.3408 321.221V325.174C34.3408 325.5 34.4102 325.733 34.549 325.871C34.6879 326.002 34.9288 326.067 35.2718 326.067H36.0925V327.009H35.088C34.4674 327.009 34.0019 326.867 33.6916 326.581C33.3812 326.296 33.2261 325.827 33.2261 325.174V321.221H32.3563V320.304H33.2261V318.615H34.3408V320.304H36.0925V321.221H34.3408Z" fill="black"/>
<path d="M38.5579 321.393C38.7539 321.009 39.0315 320.712 39.3909 320.499C39.7583 320.287 40.2034 320.181 40.7261 320.181V321.332H40.4321C39.1826 321.332 38.5579 322.009 38.5579 323.363V327.009H37.4431V320.304H38.5579V321.393Z" fill="black"/>
<path d="M41.5964 323.632C41.5964 322.947 41.7352 322.347 42.0129 321.833C42.2905 321.311 42.6703 320.907 43.1521 320.622C43.6421 320.336 44.1852 320.194 44.7813 320.194C45.3693 320.194 45.8797 320.32 46.3125 320.573C46.7454 320.826 47.0679 321.144 47.2803 321.527V320.304H48.4073V327.009H47.2803V325.761C47.0598 326.153 46.729 326.479 46.288 326.74C45.8552 326.993 45.3489 327.12 44.7691 327.12C44.1729 327.12 43.6339 326.973 43.1521 326.679C42.6703 326.385 42.2905 325.973 42.0129 325.443C41.7352 324.913 41.5964 324.309 41.5964 323.632ZM47.2803 323.644C47.2803 323.139 47.1782 322.698 46.974 322.323C46.7699 321.947 46.4922 321.662 46.141 321.466C45.7981 321.262 45.4183 321.16 45.0018 321.16C44.5853 321.16 44.2056 321.258 43.8626 321.454C43.5196 321.65 43.246 321.935 43.0419 322.311C42.8377 322.686 42.7356 323.126 42.7356 323.632C42.7356 324.146 42.8377 324.595 43.0419 324.978C43.246 325.353 43.5196 325.643 43.8626 325.847C44.2056 326.043 44.5853 326.141 45.0018 326.141C45.4183 326.141 45.7981 326.043 46.141 325.847C46.4922 325.643 46.7699 325.353 46.974 324.978C47.1782 324.595 47.2803 324.15 47.2803 323.644Z" fill="black"/>
<path d="M53.0227 321.221H51.614V327.009H50.4993V321.221H49.6296V320.304H50.4993V319.826C50.4993 319.076 50.6912 318.529 51.075 318.187C51.467 317.836 52.0918 317.66 52.9492 317.66V318.59C52.4592 318.59 52.1122 318.688 51.908 318.884C51.712 319.072 51.614 319.386 51.614 319.826V320.304H53.0227V321.221Z" fill="black"/>
<path d="M57.0541 321.221H55.6454V327.009H54.5307V321.221H53.661V320.304H54.5307V319.826C54.5307 319.076 54.7226 318.529 55.1064 318.187C55.4984 317.836 56.1232 317.66 56.9807 317.66V318.59C56.4907 318.59 56.1436 318.688 55.9394 318.884C55.7434 319.072 55.6454 319.386 55.6454 319.826V320.304H57.0541V321.221Z" fill="black"/>
<path d="M58.9296 319.215C58.7173 319.215 58.5376 319.141 58.3906 318.994C58.2436 318.847 58.1701 318.668 58.1701 318.456C58.1701 318.244 58.2436 318.064 58.3906 317.917C58.5376 317.771 58.7173 317.697 58.9296 317.697C59.1338 317.697 59.3053 317.771 59.4441 317.917C59.5911 318.064 59.6646 318.244 59.6646 318.456C59.6646 318.668 59.5911 318.847 59.4441 318.994C59.3053 319.141 59.1338 319.215 58.9296 319.215ZM59.4686 320.304V327.009H58.3539V320.304H59.4686Z" fill="black"/>
<path d="M60.952 323.644C60.952 322.951 61.0908 322.347 61.3685 321.833C61.6461 321.311 62.0299 320.907 62.5199 320.622C63.0181 320.336 63.5857 320.194 64.2227 320.194C65.0475 320.194 65.7253 320.393 66.2561 320.793C66.7951 321.193 67.1503 321.748 67.3218 322.457H66.1214C66.007 322.049 65.7825 321.727 65.4476 321.491C65.121 321.254 64.7126 321.136 64.2227 321.136C63.5857 321.136 63.0712 321.356 62.6792 321.797C62.2872 322.229 62.0912 322.845 62.0912 323.644C62.0912 324.452 62.2872 325.076 62.6792 325.517C63.0712 325.957 63.5857 326.177 64.2227 326.177C64.7126 326.177 65.121 326.063 65.4476 325.835C65.7743 325.606 65.9989 325.28 66.1214 324.856H67.3218C67.1422 325.541 66.7828 326.092 66.2439 326.508C65.7049 326.916 65.0311 327.12 64.2227 327.12C63.5857 327.12 63.0181 326.977 62.5199 326.691C62.0299 326.406 61.6461 326.002 61.3685 325.48C61.0908 324.958 60.952 324.346 60.952 323.644Z" fill="black"/>
<path d="M46.8506 67.0623C44.3881 67.0623 42.1266 66.485 40.0661 65.3303C38.0057 64.1757 36.3724 62.5817 35.1662 60.5485C33.9601 58.4902 33.357 56.1683 33.357 53.5829C33.357 51.0225 33.9601 48.7257 35.1662 46.6925C36.3724 44.6342 38.0057 43.0277 40.0661 41.873C42.1266 40.7184 44.3881 40.141 46.8506 40.141C49.3383 40.141 51.5998 40.7184 53.6351 41.873C55.6956 43.0277 57.3163 44.6342 58.4973 46.6925C59.7035 48.7257 60.3065 51.0225 60.3065 53.5829C60.3065 56.1683 59.7035 58.4902 58.4973 60.5485C57.3163 62.5817 55.6956 64.1757 53.6351 65.3303C51.5746 66.485 49.3131 67.0623 46.8506 67.0623ZM46.8506 62.3558C48.4337 62.3558 49.8283 62.0044 51.0344 61.3016C52.2405 60.5736 53.1828 59.5445 53.8613 58.2141C54.5397 56.8837 54.8789 55.34 54.8789 53.5829C54.8789 51.8258 54.5397 50.2946 53.8613 48.9893C53.1828 47.6589 52.2405 46.6423 51.0344 45.9395C49.8283 45.2366 48.4337 44.8852 46.8506 44.8852C45.2676 44.8852 43.8604 45.2366 42.6292 45.9395C41.423 46.6423 40.4808 47.6589 39.8023 48.9893C39.1239 50.2946 38.7846 51.8258 38.7846 53.5829C38.7846 55.34 39.1239 56.8837 39.8023 58.2141C40.4808 59.5445 41.423 60.5736 42.6292 61.3016C43.8604 62.0044 45.2676 62.3558 46.8506 62.3558Z" fill="black"/>
<path d="M72.9391 61.9417L78.2159 45.9395H83.832L76.1052 66.7988H69.6976L62.0085 45.9395H67.6623L72.9391 61.9417Z" fill="black"/>
<path d="M106.207 55.9173C106.207 56.6703 106.157 57.3481 106.056 57.9505H90.7911C90.9167 59.4566 91.4444 60.6364 92.3741 61.4898C93.3038 62.3433 94.4471 62.77 95.804 62.77C97.764 62.77 99.1586 61.9291 99.9878 60.2473H105.679C105.076 62.2554 103.92 63.9121 102.212 65.2174C100.503 66.4976 98.4048 67.1376 95.9171 67.1376C93.9069 67.1376 92.0977 66.6984 90.4895 65.8198C88.9065 64.9162 87.6627 63.6486 86.7581 62.017C85.8786 60.3854 85.4389 58.5028 85.4389 56.3691C85.4389 54.2104 85.8786 52.3152 86.7581 50.6836C87.6375 49.0521 88.8688 47.797 90.4518 46.9184C92.0349 46.0399 93.8566 45.6006 95.9171 45.6006C97.9022 45.6006 99.6737 46.0273 101.232 46.8808C102.815 47.7342 104.033 48.9517 104.888 50.533C105.767 52.0893 106.207 53.8841 106.207 55.9173ZM100.742 54.4112C100.716 53.0557 100.227 51.9764 99.2717 51.1731C98.3168 50.3448 97.1484 49.9306 95.7663 49.9306C94.4597 49.9306 93.3541 50.3322 92.4495 51.1355C91.57 51.9136 91.0298 53.0055 90.8287 54.4112H100.742Z" fill="black"/>
<path d="M115.335 49.1776C116.014 48.0731 116.893 47.2071 117.974 46.5796C119.079 45.952 120.336 45.6383 121.743 45.6383V51.1731H120.348C118.69 51.1731 117.433 51.5622 116.579 52.3403C115.75 53.1185 115.335 54.474 115.335 56.4068V66.7988H110.059V45.9395H115.335V49.1776Z" fill="black"/>
<path d="M157.911 40.5176L148.262 66.7988H141.854L132.205 40.5176H137.859L145.096 61.4145L152.295 40.5176H157.911Z" fill="black"/>
<path d="M163.751 43.4544C162.821 43.4544 162.042 43.1658 161.414 42.5884C160.811 41.986 160.509 41.2455 160.509 40.367C160.509 39.4884 160.811 38.7605 161.414 38.1831C162.042 37.5807 162.821 37.2795 163.751 37.2795C164.68 37.2795 165.447 37.5807 166.05 38.1831C166.678 38.7605 166.992 39.4884 166.992 40.367C166.992 41.2455 166.678 41.986 166.05 42.5884C165.447 43.1658 164.68 43.4544 163.751 43.4544ZM166.351 45.9395V66.7988H161.075V45.9395H166.351Z" fill="black"/>
<path d="M190.976 55.9173C190.976 56.6703 190.926 57.3481 190.825 57.9505H175.56C175.686 59.4566 176.214 60.6364 177.143 61.4898C178.073 62.3433 179.216 62.77 180.573 62.77C182.533 62.77 183.928 61.9291 184.757 60.2473H190.448C189.845 62.2554 188.69 63.9121 186.981 65.2174C185.272 66.4976 183.174 67.1376 180.686 67.1376C178.676 67.1376 176.867 66.6984 175.259 65.8198C173.676 64.9162 172.432 63.6486 171.527 62.017C170.648 60.3854 170.208 58.5028 170.208 56.3691C170.208 54.2104 170.648 52.3152 171.527 50.6836C172.407 49.0521 173.638 47.797 175.221 46.9184C176.804 46.0399 178.626 45.6006 180.686 45.6006C182.671 45.6006 184.443 46.0273 186.001 46.8808C187.584 47.7342 188.803 48.9517 189.657 50.533C190.536 52.0893 190.976 53.8841 190.976 55.9173ZM185.511 54.4112C185.486 53.0557 184.996 51.9764 184.041 51.1731C183.086 50.3448 181.918 49.9306 180.536 49.9306C179.229 49.9306 178.123 50.3322 177.219 51.1355C176.339 51.9136 175.799 53.0055 175.598 54.4112H185.511Z" fill="black"/>
<path d="M223.775 45.9395L217.669 66.7988H211.977L208.171 52.2274L204.364 66.7988H198.635L192.491 45.9395H197.843L201.537 61.8287L205.532 45.9395H211.111L215.03 61.791L218.724 45.9395H223.775Z" fill="black"/>
<path d="M33.5568 103.92C33.3445 103.92 33.1648 103.846 33.0178 103.699C32.8708 103.553 32.7973 103.373 32.7973 103.161C32.7973 102.949 32.8708 102.769 33.0178 102.623C33.1648 102.476 33.3445 102.402 33.5568 102.402C33.761 102.402 33.9325 102.476 34.0713 102.623C34.2183 102.769 34.2918 102.949 34.2918 103.161C34.2918 103.373 34.2183 103.553 34.0713 103.699C33.9325 103.846 33.761 103.92 33.5568 103.92ZM34.0958 105.009V111.715H32.9811V105.009H34.0958Z" fill="black"/>
<path d="M39.2663 104.886C40.083 104.886 40.7445 105.135 41.2508 105.633C41.7571 106.122 42.0103 106.832 42.0103 107.762V111.715H40.9078V107.921C40.9078 107.252 40.7404 106.742 40.4056 106.392C40.0707 106.033 39.6134 105.853 39.0336 105.853C38.4456 105.853 37.976 106.037 37.6249 106.404C37.2819 106.771 37.1104 107.305 37.1104 108.007V111.715H35.9957V105.009H37.1104V105.963C37.3309 105.621 37.629 105.356 38.0046 105.168C38.3884 104.98 38.809 104.886 39.2663 104.886Z" fill="black"/>
<path d="M45.1909 105.927V109.879C45.1909 110.205 45.2603 110.438 45.3992 110.577C45.538 110.707 45.7789 110.772 46.1219 110.772H46.9426V111.715H45.9382C45.3175 111.715 44.852 111.572 44.5417 111.286C44.2314 111.001 44.0762 110.532 44.0762 109.879V105.927H43.2065V105.009H44.0762V103.32H45.1909V105.009H46.9426V105.927H45.1909Z" fill="black"/>
<path d="M54.4182 108.105C54.4182 108.317 54.4059 108.541 54.3814 108.778H49.016C49.0568 109.439 49.2814 109.957 49.6897 110.332C50.1062 110.699 50.6085 110.883 51.1965 110.883C51.6783 110.883 52.0784 110.772 52.3969 110.552C52.7236 110.324 52.9523 110.022 53.0829 109.647H54.2834C54.1037 110.291 53.7444 110.817 53.2054 111.225C52.6664 111.625 51.9968 111.825 51.1965 111.825C50.5595 111.825 49.9878 111.682 49.4815 111.396C48.9833 111.111 48.5914 110.707 48.3055 110.185C48.0197 109.655 47.8768 109.043 47.8768 108.349C47.8768 107.656 48.0156 107.048 48.2933 106.526C48.5709 106.004 48.9588 105.604 49.457 105.327C49.9633 105.041 50.5431 104.899 51.1965 104.899C51.8335 104.899 52.3969 105.037 52.8869 105.315C53.3769 105.592 53.7526 105.976 54.0139 106.465C54.2834 106.946 54.4182 107.493 54.4182 108.105ZM53.2667 107.872C53.2667 107.448 53.1728 107.085 52.9849 106.783C52.7971 106.473 52.5399 106.241 52.2132 106.086C51.8947 105.922 51.5395 105.841 51.1475 105.841C50.584 105.841 50.1022 106.02 49.702 106.379C49.31 106.738 49.0854 107.236 49.0283 107.872H53.2667Z" fill="black"/>
<path d="M57.0043 106.098C57.2003 105.714 57.4779 105.417 57.8373 105.205C58.2048 104.992 58.6498 104.886 59.1725 104.886V106.037H58.8785C57.629 106.037 57.0043 106.714 57.0043 108.068V111.715H55.8896V105.009H57.0043V106.098Z" fill="black"/>
<path d="M66.5842 108.105C66.5842 108.317 66.5719 108.541 66.5474 108.778H61.182C61.2229 109.439 61.4474 109.957 61.8558 110.332C62.2723 110.699 62.7745 110.883 63.3625 110.883C63.8443 110.883 64.2445 110.772 64.563 110.552C64.8896 110.324 65.1183 110.022 65.249 109.647H66.4494C66.2698 110.291 65.9104 110.817 65.3715 111.225C64.8325 111.625 64.1628 111.825 63.3625 111.825C62.7255 111.825 62.1538 111.682 61.6475 111.396C61.1494 111.111 60.7574 110.707 60.4715 110.185C60.1857 109.655 60.0428 109.043 60.0428 108.349C60.0428 107.656 60.1816 107.048 60.4593 106.526C60.737 106.004 61.1249 105.604 61.623 105.327C62.1293 105.041 62.7092 104.899 63.3625 104.899C63.9995 104.899 64.563 105.037 65.053 105.315C65.5429 105.592 65.9186 105.976 66.1799 106.465C66.4494 106.946 66.5842 107.493 66.5842 108.105ZM65.4327 107.872C65.4327 107.448 65.3388 107.085 65.151 106.783C64.9631 106.473 64.7059 106.241 64.3792 106.086C64.0607 105.922 63.7055 105.841 63.3135 105.841C62.75 105.841 62.2682 106.02 61.868 106.379C61.476 106.738 61.2514 107.236 61.1943 107.872H65.4327Z" fill="black"/>
<path d="M67.6391 108.349C67.6391 107.656 67.7779 107.052 68.0556 106.538C68.3332 106.016 68.7171 105.612 69.2071 105.327C69.7052 105.041 70.2728 104.899 70.9098 104.899C71.7346 104.899 72.4124 105.099 72.9432 105.498C73.4822 105.898 73.8375 106.453 74.009 107.163H72.8085C72.6942 106.755 72.4696 106.432 72.1348 106.196C71.8081 105.959 71.3998 105.841 70.9098 105.841C70.2728 105.841 69.7583 106.061 69.3663 106.502C68.9743 106.934 68.7783 107.55 68.7783 108.349C68.7783 109.157 68.9743 109.781 69.3663 110.222C69.7583 110.662 70.2728 110.883 70.9098 110.883C71.3998 110.883 71.8081 110.768 72.1348 110.54C72.4614 110.311 72.686 109.985 72.8085 109.561H74.009C73.8293 110.246 73.47 110.797 72.931 111.213C72.392 111.621 71.7183 111.825 70.9098 111.825C70.2728 111.825 69.7052 111.682 69.2071 111.396C68.7171 111.111 68.3332 110.707 68.0556 110.185C67.7779 109.663 67.6391 109.051 67.6391 108.349Z" fill="black"/>
<path d="M76.8561 105.927V109.879C76.8561 110.205 76.9255 110.438 77.0643 110.577C77.2032 110.707 77.4441 110.772 77.7871 110.772H78.6078V111.715H77.6033C76.9827 111.715 76.5172 111.572 76.2068 111.286C75.8965 111.001 75.7413 110.532 75.7413 109.879V105.927H74.8716V105.009H75.7413V103.32H76.8561V105.009H78.6078V105.927H76.8561Z" fill="black"/>
<path d="M80.5342 103.92C80.3218 103.92 80.1422 103.846 79.9952 103.699C79.8482 103.553 79.7747 103.373 79.7747 103.161C79.7747 102.949 79.8482 102.769 79.9952 102.623C80.1422 102.476 80.3218 102.402 80.5342 102.402C80.7383 102.402 80.9098 102.476 81.0487 102.623C81.1957 102.769 81.2692 102.949 81.2692 103.161C81.2692 103.373 81.1957 103.553 81.0487 103.699C80.9098 103.846 80.7383 103.92 80.5342 103.92ZM81.0732 105.009V111.715H79.9584V105.009H81.0732Z" fill="black"/>
<path d="M85.9007 111.825C85.2719 111.825 84.7002 111.682 84.1857 111.396C83.6794 111.111 83.2793 110.707 82.9853 110.185C82.6994 109.655 82.5565 109.043 82.5565 108.349C82.5565 107.664 82.7035 107.061 82.9975 106.538C83.2997 106.008 83.708 105.604 84.2225 105.327C84.737 105.041 85.3127 104.899 85.9497 104.899C86.5867 104.899 87.1624 105.041 87.6769 105.327C88.1914 105.604 88.5957 106.004 88.8896 106.526C89.1918 107.048 89.3429 107.656 89.3429 108.349C89.3429 109.043 89.1877 109.655 88.8774 110.185C88.5752 110.707 88.1628 111.111 87.6402 111.396C87.1175 111.682 86.5377 111.825 85.9007 111.825ZM85.9007 110.846C86.3009 110.846 86.6765 110.752 87.0277 110.564C87.3788 110.377 87.6606 110.095 87.8729 109.72C88.0934 109.345 88.2037 108.888 88.2037 108.349C88.2037 107.811 88.0975 107.354 87.8852 106.979C87.6728 106.604 87.3952 106.326 87.0522 106.147C86.7092 105.959 86.3376 105.865 85.9375 105.865C85.5291 105.865 85.1535 105.959 84.8105 106.147C84.4757 106.326 84.2062 106.604 84.002 106.979C83.7978 107.354 83.6958 107.811 83.6958 108.349C83.6958 108.896 83.7937 109.357 83.9897 109.732C84.1939 110.108 84.4634 110.389 84.7982 110.577C85.1331 110.756 85.5006 110.846 85.9007 110.846Z" fill="black"/>
<path d="M94.0792 104.886C94.8959 104.886 95.5574 105.135 96.0637 105.633C96.57 106.122 96.8232 106.832 96.8232 107.762V111.715H95.7207V107.921C95.7207 107.252 95.5533 106.742 95.2185 106.392C94.8836 106.033 94.4263 105.853 93.8465 105.853C93.2585 105.853 92.7889 106.037 92.4378 106.404C92.0948 106.771 91.9233 107.305 91.9233 108.007V111.715H90.8086V105.009H91.9233V105.963C92.1438 105.621 92.4419 105.356 92.8175 105.168C93.2013 104.98 93.6219 104.886 94.0792 104.886Z" fill="black"/>
<path d="M34.3408 371.374V375.327C34.3408 375.653 34.4102 375.886 34.549 376.024C34.6879 376.155 34.9288 376.22 35.2718 376.22H36.0925V377.162H35.088C34.4674 377.162 34.0019 377.02 33.6916 376.734C33.3812 376.449 33.2261 375.98 33.2261 375.327V371.374H32.3563V370.457H33.2261V368.768H34.3408V370.457H36.0925V371.374H34.3408Z" fill="black"/>
<path d="M40.3708 377.273C39.742 377.273 39.1704 377.13 38.6559 376.844C38.1495 376.559 37.7494 376.155 37.4554 375.633C37.1696 375.103 37.0266 374.491 37.0266 373.797C37.0266 373.112 37.1736 372.508 37.4676 371.986C37.7698 371.456 38.1781 371.052 38.6926 370.775C39.2071 370.489 39.7828 370.346 40.4198 370.346C41.0568 370.346 41.6326 370.489 42.147 370.775C42.6615 371.052 43.0658 371.452 43.3598 371.974C43.6619 372.496 43.813 373.104 43.813 373.797C43.813 374.491 43.6579 375.103 43.3475 375.633C43.0454 376.155 42.633 376.559 42.1103 376.844C41.5876 377.13 41.0078 377.273 40.3708 377.273ZM40.3708 376.294C40.771 376.294 41.1467 376.2 41.4978 376.012C41.849 375.825 42.1307 375.543 42.343 375.168C42.5635 374.793 42.6738 374.336 42.6738 373.797C42.6738 373.259 42.5676 372.802 42.3553 372.427C42.143 372.052 41.8653 371.774 41.5223 371.595C41.1793 371.407 40.8077 371.313 40.4076 371.313C39.9993 371.313 39.6236 371.407 39.2806 371.595C38.9458 371.774 38.6763 372.052 38.4721 372.427C38.268 372.802 38.1659 373.259 38.1659 373.797C38.1659 374.344 38.2639 374.805 38.4599 375.18C38.664 375.555 38.9335 375.837 39.2684 376.024C39.6032 376.204 39.9707 376.294 40.3708 376.294Z" fill="black"/>
<path d="M49.6592 368.107V377.162H48.5445V368.107H49.6592Z" fill="black"/>
<path d="M51.1426 373.785C51.1426 373.1 51.2814 372.5 51.5591 371.986C51.8367 371.464 52.2165 371.06 52.6983 370.775C53.1883 370.489 53.7314 370.346 54.3275 370.346C54.9155 370.346 55.4259 370.473 55.8587 370.726C56.2916 370.979 56.6141 371.297 56.8265 371.68V370.457H57.9535V377.162H56.8265V375.914C56.606 376.306 56.2752 376.632 55.8342 376.893C55.4014 377.146 54.8951 377.273 54.3153 377.273C53.7191 377.273 53.1801 377.126 52.6983 376.832C52.2165 376.538 51.8367 376.126 51.5591 375.596C51.2814 375.066 51.1426 374.462 51.1426 373.785ZM56.8265 373.797C56.8265 373.292 56.7244 372.851 56.5202 372.476C56.3161 372.1 56.0384 371.815 55.6872 371.619C55.3443 371.415 54.9645 371.313 54.548 371.313C54.1315 371.313 53.7518 371.411 53.4088 371.607C53.0658 371.803 52.7922 372.088 52.5881 372.464C52.3839 372.839 52.2818 373.279 52.2818 373.785C52.2818 374.299 52.3839 374.748 52.5881 375.131C52.7922 375.506 53.0658 375.796 53.4088 376C53.7518 376.196 54.1315 376.294 54.548 376.294C54.9645 376.294 55.3443 376.196 55.6872 376C56.0384 375.796 56.3161 375.506 56.5202 375.131C56.7244 374.748 56.8265 374.303 56.8265 373.797Z" fill="black"/>
<path d="M62.2137 377.273C61.6992 377.273 61.2378 377.187 60.8295 377.016C60.4211 376.836 60.0986 376.591 59.8617 376.281C59.6249 375.963 59.4942 375.6 59.4697 375.192H60.6212C60.6539 375.527 60.8091 375.8 61.0867 376.012C61.3725 376.224 61.7441 376.33 62.2014 376.33C62.6261 376.33 62.9609 376.237 63.2059 376.049C63.4509 375.861 63.5734 375.625 63.5734 375.339C63.5734 375.045 63.4428 374.829 63.1814 374.691C62.9201 374.544 62.5159 374.401 61.9687 374.262C61.4705 374.132 61.0622 374.001 60.7437 373.871C60.4334 373.732 60.1639 373.532 59.9352 373.271C59.7147 373.002 59.6045 372.651 59.6045 372.219C59.6045 371.876 59.7066 371.562 59.9107 371.276C60.1149 370.991 60.4048 370.767 60.7805 370.603C61.1561 370.432 61.5849 370.346 62.0667 370.346C62.8098 370.346 63.4101 370.534 63.8674 370.909C64.3247 371.285 64.5697 371.799 64.6024 372.451H63.4877C63.4632 372.1 63.3203 371.819 63.0589 371.607C62.8058 371.395 62.4628 371.289 62.0299 371.289C61.6298 371.289 61.3113 371.374 61.0745 371.546C60.8376 371.717 60.7192 371.941 60.7192 372.219C60.7192 372.439 60.7886 372.623 60.9275 372.769C61.0745 372.908 61.2541 373.022 61.4665 373.112C61.6869 373.194 61.9891 373.287 62.3729 373.393C62.8548 373.524 63.2468 373.655 63.5489 373.785C63.8511 373.907 64.1083 374.095 64.3206 374.348C64.5411 374.601 64.6555 374.931 64.6636 375.339C64.6636 375.706 64.5616 376.037 64.3574 376.33C64.1532 376.624 63.8633 376.857 63.4877 377.028C63.1202 377.191 62.6955 377.273 62.2137 377.273Z" fill="black"/>
<path d="M67.597 371.374V375.327C67.597 375.653 67.6664 375.886 67.8052 376.024C67.9441 376.155 68.185 376.22 68.528 376.22H69.3487V377.162H68.3442C67.7236 377.162 67.2581 377.02 66.9477 376.734C66.6374 376.449 66.4823 375.98 66.4823 375.327V371.374H65.6125V370.457H66.4823V368.768H67.597V370.457H69.3487V371.374H67.597Z" fill="black"/>
<path d="M82.0377 370.334C82.5604 370.334 83.0259 370.444 83.4342 370.665C83.8425 370.877 84.1651 371.199 84.4019 371.631C84.6388 372.064 84.7572 372.59 84.7572 373.21V377.162H83.6547V373.369C83.6547 372.7 83.4873 372.19 83.1525 371.839C82.8258 371.48 82.3807 371.301 81.8172 371.301C81.2374 371.301 80.776 371.489 80.433 371.864C80.09 372.231 79.9185 372.765 79.9185 373.467V377.162H78.816V373.369C78.816 372.7 78.6486 372.19 78.3138 371.839C77.9871 371.48 77.5421 371.301 76.9786 371.301C76.3988 371.301 75.9373 371.489 75.5944 371.864C75.2514 372.231 75.0799 372.765 75.0799 373.467V377.162H73.9651V370.457H75.0799V371.423C75.3004 371.073 75.5944 370.803 75.9619 370.616C76.3375 370.428 76.7499 370.334 77.1991 370.334C77.7626 370.334 78.2607 370.461 78.6935 370.714C79.1264 370.966 79.4489 371.338 79.6613 371.827C79.8491 371.354 80.1594 370.987 80.5923 370.726C81.0251 370.465 81.5069 370.334 82.0377 370.334Z" fill="black"/>
<path d="M89.5134 377.273C88.8846 377.273 88.313 377.13 87.7985 376.844C87.2921 376.559 86.892 376.155 86.598 375.633C86.3122 375.103 86.1692 374.491 86.1692 373.797C86.1692 373.112 86.3162 372.508 86.6102 371.986C86.9124 371.456 87.3207 371.052 87.8352 370.775C88.3497 370.489 88.9254 370.346 89.5624 370.346C90.1994 370.346 90.7752 370.489 91.2896 370.775C91.8041 371.052 92.2084 371.452 92.5024 371.974C92.8045 372.496 92.9556 373.104 92.9556 373.797C92.9556 374.491 92.8005 375.103 92.4901 375.633C92.188 376.155 91.7756 376.559 91.2529 376.844C90.7302 377.13 90.1504 377.273 89.5134 377.273ZM89.5134 376.294C89.9136 376.294 90.2893 376.2 90.6404 376.012C90.9916 375.825 91.2733 375.543 91.4856 375.168C91.7061 374.793 91.8164 374.336 91.8164 373.797C91.8164 373.259 91.7102 372.802 91.4979 372.427C91.2856 372.052 91.0079 371.774 90.6649 371.595C90.3219 371.407 89.9503 371.313 89.5502 371.313C89.1419 371.313 88.7662 371.407 88.4232 371.595C88.0884 371.774 87.8189 372.052 87.6147 372.427C87.4106 372.802 87.3085 373.259 87.3085 373.797C87.3085 374.344 87.4065 374.805 87.6025 375.18C87.8066 375.555 88.0761 375.837 88.4109 376.024C88.7458 376.204 89.1133 376.294 89.5134 376.294Z" fill="black"/>
<path d="M97.692 370.334C98.5086 370.334 99.1701 370.583 99.6764 371.081C100.183 371.57 100.436 372.28 100.436 373.21V377.162H99.3334V373.369C99.3334 372.7 99.166 372.19 98.8312 371.839C98.4964 371.48 98.039 371.301 97.4592 371.301C96.8712 371.301 96.4017 371.485 96.0505 371.852C95.7075 372.219 95.536 372.753 95.536 373.455V377.162H94.4213V370.457H95.536V371.411C95.7565 371.068 96.0546 370.803 96.4302 370.616C96.8141 370.428 97.2346 370.334 97.692 370.334Z" fill="black"/>
<path d="M103.617 371.374V375.327C103.617 375.653 103.686 375.886 103.825 376.024C103.964 376.155 104.205 376.22 104.548 376.22H105.368V377.162H104.364C103.743 377.162 103.278 377.02 102.967 376.734C102.657 376.449 102.502 375.98 102.502 375.327V371.374H101.632V370.457H102.502V368.768H103.617V370.457H105.368V371.374H103.617Z" fill="black"/>
<path d="M110.051 370.334C110.557 370.334 111.014 370.444 111.423 370.665C111.831 370.877 112.15 371.199 112.378 371.631C112.615 372.064 112.734 372.59 112.734 373.21V377.162H111.631V373.369C111.631 372.7 111.464 372.19 111.129 371.839C110.794 371.48 110.337 371.301 109.757 371.301C109.169 371.301 108.699 371.485 108.348 371.852C108.005 372.219 107.834 372.753 107.834 373.455V377.162H106.719V368.107H107.834V371.411C108.054 371.068 108.356 370.803 108.74 370.616C109.132 370.428 109.569 370.334 110.051 370.334Z" fill="black"/>
<path d="M363.724 18.8261C363.724 8.42872 372.161 0 382.57 0H977.154C987.562 0 996 8.42873 996 18.8261V414.174C996 424.571 987.562 433 977.154 433H382.57C372.161 433 363.724 424.571 363.724 414.174V18.8261Z" fill="#FAFAFA"/>
<path d="M490.881 378.561V384.863C490.881 385.565 490.664 386.128 490.232 386.552C489.799 386.968 489.227 387.176 488.517 387.176C487.798 387.176 487.222 386.964 486.789 386.54C486.357 386.108 486.14 385.52 486.14 384.778H487.255C487.263 385.194 487.369 385.532 487.573 385.793C487.786 386.055 488.1 386.185 488.517 386.185C488.933 386.185 489.243 386.063 489.448 385.818C489.652 385.565 489.754 385.247 489.754 384.863V378.561H490.881Z" fill="black"/>
<path d="M492.66 383.713C492.66 383.028 492.799 382.428 493.077 381.914C493.355 381.392 493.734 380.988 494.216 380.703C494.706 380.417 495.249 380.275 495.845 380.275C496.433 380.275 496.944 380.401 497.377 380.654C497.809 380.907 498.132 381.225 498.344 381.608V380.385H499.471V387.091H498.344V385.842C498.124 386.234 497.793 386.56 497.352 386.821C496.919 387.074 496.413 387.201 495.833 387.201C495.237 387.201 494.698 387.054 494.216 386.76C493.734 386.467 493.355 386.055 493.077 385.524C492.799 384.994 492.66 384.39 492.66 383.713ZM498.344 383.725C498.344 383.22 498.242 382.779 498.038 382.404C497.834 382.029 497.556 381.743 497.205 381.547C496.862 381.343 496.482 381.241 496.066 381.241C495.649 381.241 495.27 381.339 494.927 381.535C494.584 381.731 494.31 382.016 494.106 382.392C493.902 382.767 493.8 383.207 493.8 383.713C493.8 384.227 493.902 384.676 494.106 385.059C494.31 385.435 494.584 385.724 494.927 385.928C495.27 386.124 495.649 386.222 496.066 386.222C496.482 386.222 496.862 386.124 497.205 385.928C497.556 385.724 497.834 385.435 498.038 385.059C498.242 384.676 498.344 384.231 498.344 383.725Z" fill="black"/>
<path d="M504.626 380.262C505.442 380.262 506.104 380.511 506.61 381.009C507.116 381.498 507.37 382.208 507.37 383.138V387.091H506.267V383.297C506.267 382.628 506.1 382.118 505.765 381.768C505.43 381.409 504.973 381.229 504.393 381.229C503.805 381.229 503.335 381.413 502.984 381.78C502.641 382.147 502.47 382.681 502.47 383.383V387.091H501.355V380.385H502.47V381.339C502.69 380.997 502.988 380.731 503.364 380.544C503.748 380.356 504.168 380.262 504.626 380.262Z" fill="black"/>
<path d="M542.928 378.561V379.467H539.217V382.343H542.23V383.248H539.217V387.091H538.102V378.561H542.928Z" fill="black"/>
<path d="M550.4 383.481C550.4 383.693 550.387 383.917 550.363 384.154H544.997C545.038 384.815 545.263 385.333 545.671 385.708C546.088 386.075 546.59 386.259 547.178 386.259C547.66 386.259 548.06 386.148 548.378 385.928C548.705 385.7 548.934 385.398 549.064 385.023H550.265C550.085 385.667 549.726 386.193 549.187 386.601C548.648 387.001 547.978 387.201 547.178 387.201C546.541 387.201 545.969 387.058 545.463 386.772C544.965 386.487 544.573 386.083 544.287 385.561C544.001 385.031 543.858 384.419 543.858 383.725C543.858 383.032 543.997 382.424 544.275 381.902C544.552 381.38 544.94 380.98 545.438 380.703C545.945 380.417 546.525 380.275 547.178 380.275C547.815 380.275 548.378 380.413 548.868 380.691C549.358 380.968 549.734 381.351 549.995 381.841C550.265 382.322 550.4 382.869 550.4 383.481ZM549.248 383.248C549.248 382.824 549.154 382.461 548.966 382.159C548.778 381.849 548.521 381.617 548.195 381.462C547.876 381.298 547.521 381.217 547.129 381.217C546.565 381.217 546.084 381.396 545.683 381.755C545.291 382.114 545.067 382.612 545.01 383.248H549.248Z" fill="black"/>
<path d="M552.986 381.633C553.214 381.233 553.549 380.907 553.99 380.654C554.431 380.401 554.933 380.275 555.497 380.275C556.101 380.275 556.644 380.417 557.126 380.703C557.608 380.988 557.988 381.392 558.265 381.914C558.543 382.428 558.682 383.028 558.682 383.713C558.682 384.39 558.543 384.994 558.265 385.524C557.988 386.055 557.604 386.467 557.114 386.76C556.632 387.054 556.093 387.201 555.497 387.201C554.917 387.201 554.407 387.074 553.966 386.821C553.533 386.568 553.206 386.246 552.986 385.855V387.091H551.871V378.035H552.986V381.633ZM557.543 383.713C557.543 383.207 557.44 382.767 557.236 382.392C557.032 382.016 556.755 381.731 556.403 381.535C556.06 381.339 555.681 381.241 555.264 381.241C554.856 381.241 554.476 381.343 554.125 381.547C553.782 381.743 553.504 382.033 553.292 382.416C553.088 382.791 552.986 383.228 552.986 383.725C552.986 384.231 553.088 384.676 553.292 385.059C553.504 385.435 553.782 385.724 554.125 385.928C554.476 386.124 554.856 386.222 555.264 386.222C555.681 386.222 556.06 386.124 556.403 385.928C556.755 385.724 557.032 385.435 557.236 385.059C557.44 384.676 557.543 384.227 557.543 383.713Z" fill="black"/>
<path d="M598.055 378.623V387.091H596.94V380.776L594.123 387.091H593.339L590.509 380.764V387.091H589.395V378.623H590.595L593.731 385.622L596.867 378.623H598.055Z" fill="black"/>
<path d="M599.529 383.713C599.529 383.028 599.668 382.428 599.946 381.914C600.223 381.392 600.603 380.988 601.085 380.703C601.575 380.417 602.118 380.275 602.714 380.275C603.302 380.275 603.813 380.401 604.245 380.654C604.678 380.907 605.001 381.225 605.213 381.608V380.385H606.34V387.091H605.213V385.842C604.993 386.234 604.662 386.56 604.221 386.821C603.788 387.074 603.282 387.201 602.702 387.201C602.106 387.201 601.567 387.054 601.085 386.76C600.603 386.467 600.223 386.055 599.946 385.524C599.668 384.994 599.529 384.39 599.529 383.713ZM605.213 383.725C605.213 383.22 605.111 382.779 604.907 382.404C604.703 382.029 604.425 381.743 604.074 381.547C603.731 381.343 603.351 381.241 602.935 381.241C602.518 381.241 602.138 381.339 601.795 381.535C601.452 381.731 601.179 382.016 600.975 382.392C600.771 382.767 600.668 383.207 600.668 383.713C600.668 384.227 600.771 384.676 600.975 385.059C601.179 385.435 601.452 385.724 601.795 385.928C602.138 386.124 602.518 386.222 602.935 386.222C603.351 386.222 603.731 386.124 604.074 385.928C604.425 385.724 604.703 385.435 604.907 385.059C605.111 384.676 605.213 384.231 605.213 383.725Z" fill="black"/>
<path d="M609.339 381.474C609.535 381.09 609.812 380.793 610.172 380.581C610.539 380.368 610.984 380.262 611.507 380.262V381.413H611.213C609.963 381.413 609.339 382.09 609.339 383.444V387.091H608.224V380.385H609.339V381.474Z" fill="black"/>
<path d="M647.186 385.194H643.462L642.776 387.091H641.6L644.687 378.61H645.973L649.048 387.091H647.872L647.186 385.194ZM646.867 384.288L645.324 379.981L643.78 384.288H646.867Z" fill="black"/>
<path d="M651.508 381.621C651.728 381.237 652.055 380.919 652.488 380.666C652.929 380.405 653.439 380.275 654.019 380.275C654.615 380.275 655.154 380.417 655.636 380.703C656.126 380.988 656.51 381.392 656.787 381.914C657.065 382.428 657.204 383.028 657.204 383.713C657.204 384.39 657.065 384.994 656.787 385.524C656.51 386.055 656.126 386.467 655.636 386.76C655.154 387.054 654.615 387.201 654.019 387.201C653.447 387.201 652.941 387.074 652.5 386.821C652.067 386.56 651.736 386.238 651.508 385.855V390.272H650.393V380.385H651.508V381.621ZM656.065 383.713C656.065 383.207 655.963 382.767 655.758 382.392C655.554 382.016 655.277 381.731 654.925 381.535C654.582 381.339 654.203 381.241 653.786 381.241C653.378 381.241 652.998 381.343 652.647 381.547C652.304 381.743 652.026 382.033 651.814 382.416C651.61 382.791 651.508 383.228 651.508 383.725C651.508 384.231 651.61 384.676 651.814 385.059C652.026 385.435 652.304 385.724 652.647 385.928C652.998 386.124 653.378 386.222 653.786 386.222C654.203 386.222 654.582 386.124 654.925 385.928C655.277 385.724 655.554 385.435 655.758 385.059C655.963 384.676 656.065 384.227 656.065 383.713Z" fill="black"/>
<path d="M659.786 381.474C659.982 381.09 660.259 380.793 660.619 380.581C660.986 380.368 661.431 380.262 661.954 380.262V381.413H661.66C660.411 381.413 659.786 382.09 659.786 383.444V387.091H658.671V380.385H659.786V381.474Z" fill="black"/>
<path d="M700.809 378.623V387.091H699.694V380.776L696.877 387.091H696.093L693.263 380.764V387.091H692.149V378.623H693.349L696.485 385.622L699.621 378.623H700.809Z" fill="black"/>
<path d="M702.283 383.713C702.283 383.028 702.422 382.428 702.7 381.914C702.977 381.392 703.357 380.988 703.839 380.703C704.329 380.417 704.872 380.275 705.468 380.275C706.056 380.275 706.567 380.401 706.999 380.654C707.432 380.907 707.755 381.225 707.967 381.608V380.385H709.094V387.091H707.967V385.842C707.747 386.234 707.416 386.56 706.975 386.821C706.542 387.074 706.036 387.201 705.456 387.201C704.86 387.201 704.321 387.054 703.839 386.76C703.357 386.467 702.977 386.055 702.7 385.524C702.422 384.994 702.283 384.39 702.283 383.713ZM707.967 383.725C707.967 383.22 707.865 382.779 707.661 382.404C707.457 382.029 707.179 381.743 706.828 381.547C706.485 381.343 706.105 381.241 705.689 381.241C705.272 381.241 704.892 381.339 704.549 381.535C704.206 381.731 703.933 382.016 703.729 382.392C703.524 382.767 703.422 383.207 703.422 383.713C703.422 384.227 703.524 384.676 703.729 385.059C703.933 385.435 704.206 385.724 704.549 385.928C704.892 386.124 705.272 386.222 705.689 386.222C706.105 386.222 706.485 386.124 706.828 385.928C707.179 385.724 707.457 385.435 707.661 385.059C707.865 384.676 707.967 384.231 707.967 383.725Z" fill="black"/>
<path d="M716.76 380.385L712.717 390.248H711.566L712.889 387.017L710.182 380.385H711.419L713.526 385.818L715.608 380.385H716.76Z" fill="black"/>
<path d="M751.284 378.561V384.863C751.284 385.565 751.068 386.128 750.635 386.552C750.202 386.968 749.631 387.176 748.92 387.176C748.201 387.176 747.626 386.964 747.193 386.54C746.76 386.108 746.544 385.52 746.544 384.778H747.658C747.666 385.194 747.773 385.532 747.977 385.793C748.189 386.055 748.504 386.185 748.92 386.185C749.337 386.185 749.647 386.063 749.851 385.818C750.055 385.565 750.157 385.247 750.157 384.863V378.561H751.284Z" fill="black"/>
<path d="M759.434 380.385V387.091H758.319V386.099C758.107 386.442 757.809 386.711 757.425 386.907C757.049 387.095 756.633 387.189 756.175 387.189C755.653 387.189 755.183 387.082 754.767 386.87C754.35 386.65 754.019 386.324 753.774 385.891C753.537 385.459 753.419 384.933 753.419 384.313V380.385H754.521V384.166C754.521 384.827 754.689 385.337 755.024 385.696C755.359 386.046 755.816 386.222 756.396 386.222C756.992 386.222 757.461 386.038 757.804 385.671C758.147 385.304 758.319 384.77 758.319 384.068V380.385H759.434Z" fill="black"/>
<path d="M764.587 380.262C765.403 380.262 766.065 380.511 766.571 381.009C767.077 381.498 767.331 382.208 767.331 383.138V387.091H766.228V383.297C766.228 382.628 766.061 382.118 765.726 381.768C765.391 381.409 764.934 381.229 764.354 381.229C763.766 381.229 763.296 381.413 762.945 381.78C762.602 382.147 762.431 382.681 762.431 383.383V387.091H761.316V380.385H762.431V381.339C762.651 380.997 762.949 380.731 763.325 380.544C763.709 380.356 764.129 380.262 764.587 380.262Z" fill="black"/>
<path d="M802.375 378.561V384.863C802.375 385.565 802.158 386.128 801.725 386.552C801.293 386.968 800.721 387.176 800.01 387.176C799.292 387.176 798.716 386.964 798.283 386.54C797.85 386.108 797.634 385.52 797.634 384.778H798.749C798.757 385.194 798.863 385.532 799.067 385.793C799.279 386.055 799.594 386.185 800.01 386.185C800.427 386.185 800.737 386.063 800.941 385.818C801.145 385.565 801.248 385.247 801.248 384.863V378.561H802.375Z" fill="black"/>
<path d="M810.524 380.385V387.091H809.409V386.099C809.197 386.442 808.899 386.711 808.515 386.907C808.139 387.095 807.723 387.189 807.266 387.189C806.743 387.189 806.273 387.082 805.857 386.87C805.44 386.65 805.11 386.324 804.865 385.891C804.628 385.459 804.509 384.933 804.509 384.313V380.385H805.612V384.166C805.612 384.827 805.779 385.337 806.114 385.696C806.449 386.046 806.906 386.222 807.486 386.222C808.082 386.222 808.552 386.038 808.895 385.671C809.238 385.304 809.409 384.77 809.409 384.068V380.385H810.524Z" fill="black"/>
<path d="M813.521 378.035V387.091H812.406V378.035H813.521Z" fill="black"/>
<path d="M849.019 385.194H845.296L844.61 387.091H843.434L846.521 378.61H847.807L850.881 387.091H849.705L849.019 385.194ZM848.701 384.288L847.158 379.981L845.614 384.288H848.701Z" fill="black"/>
<path d="M858.18 380.385V387.091H857.065V386.099C856.853 386.442 856.555 386.711 856.171 386.907C855.796 387.095 855.379 387.189 854.922 387.189C854.399 387.189 853.929 387.082 853.513 386.87C853.097 386.65 852.766 386.324 852.521 385.891C852.284 385.459 852.166 384.933 852.166 384.313V380.385H853.268V384.166C853.268 384.827 853.435 385.337 853.77 385.696C854.105 386.046 854.562 386.222 855.142 386.222C855.738 386.222 856.208 386.038 856.551 385.671C856.894 385.304 857.065 384.77 857.065 384.068V380.385H858.18Z" fill="black"/>
<path d="M862.831 380.275C863.411 380.275 863.917 380.401 864.35 380.654C864.791 380.907 865.117 381.225 865.33 381.608V380.385H866.457V387.237C866.457 387.849 866.326 388.392 866.065 388.865C865.803 389.346 865.428 389.722 864.938 389.991C864.456 390.26 863.892 390.395 863.247 390.395C862.365 390.395 861.63 390.187 861.042 389.771C860.454 389.354 860.107 388.787 860.001 388.07H861.104C861.226 388.477 861.479 388.804 861.863 389.049C862.247 389.301 862.708 389.428 863.247 389.428C863.86 389.428 864.358 389.236 864.742 388.853C865.134 388.469 865.33 387.931 865.33 387.237V385.83C865.109 386.222 864.783 386.548 864.35 386.809C863.917 387.07 863.411 387.201 862.831 387.201C862.235 387.201 861.692 387.054 861.202 386.76C860.72 386.467 860.34 386.055 860.062 385.524C859.785 384.994 859.646 384.39 859.646 383.713C859.646 383.028 859.785 382.428 860.062 381.914C860.34 381.392 860.72 380.988 861.202 380.703C861.692 380.417 862.235 380.275 862.831 380.275ZM865.33 383.725C865.33 383.22 865.228 382.779 865.023 382.404C864.819 382.029 864.542 381.743 864.19 381.547C863.847 381.343 863.468 381.241 863.051 381.241C862.635 381.241 862.255 381.339 861.912 381.535C861.569 381.731 861.295 382.016 861.091 382.392C860.887 382.767 860.785 383.207 860.785 383.713C860.785 384.227 860.887 384.676 861.091 385.059C861.295 385.435 861.569 385.724 861.912 385.928C862.255 386.124 862.635 386.222 863.051 386.222C863.468 386.222 863.847 386.124 864.19 385.928C864.542 385.724 864.819 385.435 865.023 385.059C865.228 384.676 865.33 384.231 865.33 383.725Z" fill="black"/>
<path d="M899.656 387.176C899.093 387.176 898.587 387.078 898.137 386.883C897.696 386.679 897.349 386.401 897.096 386.05C896.843 385.692 896.712 385.28 896.704 384.815H897.892C897.933 385.214 898.097 385.553 898.382 385.83C898.676 386.099 899.101 386.234 899.656 386.234C900.187 386.234 900.604 386.104 900.906 385.842C901.216 385.573 901.371 385.231 901.371 384.815C901.371 384.488 901.281 384.223 901.102 384.019C900.922 383.815 900.698 383.66 900.428 383.554C900.159 383.448 899.795 383.334 899.338 383.212C898.774 383.065 898.321 382.918 897.978 382.771C897.643 382.624 897.353 382.396 897.108 382.086C896.872 381.768 896.753 381.343 896.753 380.813C896.753 380.348 896.872 379.936 897.108 379.577C897.345 379.218 897.676 378.941 898.101 378.745C898.533 378.549 899.028 378.451 899.583 378.451C900.383 378.451 901.036 378.651 901.543 379.051C902.057 379.451 902.347 379.981 902.413 380.642H901.188C901.147 380.315 900.975 380.03 900.673 379.785C900.371 379.532 899.971 379.406 899.473 379.406C899.007 379.406 898.627 379.528 898.333 379.773C898.039 380.01 897.892 380.344 897.892 380.776C897.892 381.086 897.978 381.339 898.15 381.535C898.329 381.731 898.546 381.882 898.799 381.988C899.06 382.086 899.424 382.2 899.889 382.33C900.453 382.485 900.906 382.64 901.249 382.795C901.592 382.942 901.886 383.175 902.131 383.493C902.376 383.803 902.498 384.227 902.498 384.766C902.498 385.182 902.388 385.573 902.168 385.94C901.947 386.307 901.62 386.605 901.188 386.834C900.755 387.062 900.244 387.176 899.656 387.176Z" fill="black"/>
<path d="M910.264 383.481C910.264 383.693 910.251 383.917 910.227 384.154H904.861C904.902 384.815 905.127 385.333 905.535 385.708C905.952 386.075 906.454 386.259 907.042 386.259C907.524 386.259 907.924 386.148 908.242 385.928C908.569 385.7 908.798 385.398 908.928 385.023H910.129C909.949 385.667 909.59 386.193 909.051 386.601C908.512 387.001 907.842 387.201 907.042 387.201C906.405 387.201 905.833 387.058 905.327 386.772C904.829 386.487 904.437 386.083 904.151 385.561C903.865 385.031 903.722 384.419 903.722 383.725C903.722 383.032 903.861 382.424 904.139 381.902C904.416 381.38 904.804 380.98 905.302 380.703C905.809 380.417 906.389 380.275 907.042 380.275C907.679 380.275 908.242 380.413 908.732 380.691C909.222 380.968 909.598 381.351 909.859 381.841C910.129 382.322 910.264 382.869 910.264 383.481ZM909.112 383.248C909.112 382.824 909.018 382.461 908.83 382.159C908.642 381.849 908.385 381.617 908.059 381.462C907.74 381.298 907.385 381.217 906.993 381.217C906.429 381.217 905.948 381.396 905.547 381.755C905.155 382.114 904.931 382.612 904.874 383.248H909.112Z" fill="black"/>
<path d="M912.85 381.621C913.07 381.237 913.397 380.919 913.83 380.666C914.271 380.405 914.781 380.275 915.361 380.275C915.957 380.275 916.496 380.417 916.978 380.703C917.468 380.988 917.852 381.392 918.129 381.914C918.407 382.428 918.546 383.028 918.546 383.713C918.546 384.39 918.407 384.994 918.129 385.524C917.852 386.055 917.468 386.467 916.978 386.76C916.496 387.054 915.957 387.201 915.361 387.201C914.789 387.201 914.283 387.074 913.842 386.821C913.409 386.56 913.078 386.238 912.85 385.855V390.272H911.735V380.385H912.85V381.621ZM917.407 383.713C917.407 383.207 917.305 382.767 917.1 382.392C916.896 382.016 916.619 381.731 916.267 381.535C915.924 381.339 915.545 381.241 915.128 381.241C914.72 381.241 914.34 381.343 913.989 381.547C913.646 381.743 913.368 382.033 913.156 382.416C912.952 382.791 912.85 383.228 912.85 383.725C912.85 384.231 912.952 384.676 913.156 385.059C913.368 385.435 913.646 385.724 913.989 385.928C914.34 386.124 914.72 386.222 915.128 386.222C915.545 386.222 915.924 386.124 916.267 385.928C916.619 385.724 916.896 385.435 917.1 385.059C917.305 384.676 917.407 384.227 917.407 383.713Z" fill="black"/>
<path d="M427.663 120.351H423.363V123.141C423.551 122.88 423.829 122.668 424.196 122.505C424.564 122.334 424.96 122.248 425.385 122.248C426.062 122.248 426.614 122.391 427.038 122.676C427.463 122.954 427.765 123.317 427.945 123.765C428.133 124.206 428.227 124.675 428.227 125.173C428.227 125.76 428.116 126.286 427.896 126.751C427.675 127.216 427.336 127.583 426.879 127.853C426.43 128.122 425.871 128.256 425.201 128.256C424.343 128.256 423.649 128.036 423.118 127.596C422.588 127.155 422.265 126.568 422.151 125.833H423.241C423.347 126.298 423.572 126.662 423.915 126.923C424.258 127.184 424.69 127.314 425.213 127.314C425.858 127.314 426.344 127.122 426.671 126.739C426.997 126.347 427.161 125.833 427.161 125.197C427.161 124.561 426.997 124.071 426.671 123.729C426.344 123.378 425.862 123.203 425.225 123.203C424.793 123.203 424.413 123.309 424.086 123.521C423.768 123.725 423.535 124.006 423.388 124.365H422.334V119.372H427.663V120.351Z" fill="black"/>
<path d="M429.708 123.716C429.708 122.313 429.937 121.22 430.394 120.437C430.851 119.646 431.652 119.25 432.795 119.25C433.93 119.25 434.726 119.646 435.184 120.437C435.641 121.22 435.87 122.313 435.87 123.716C435.87 125.144 435.641 126.254 435.184 127.045C434.726 127.836 433.93 128.232 432.795 128.232C431.652 128.232 430.851 127.836 430.394 127.045C429.937 126.254 429.708 125.144 429.708 123.716ZM434.767 123.716C434.767 123.007 434.718 122.407 434.62 121.918C434.53 121.42 434.338 121.02 434.044 120.718C433.758 120.417 433.342 120.266 432.795 120.266C432.24 120.266 431.815 120.417 431.521 120.718C431.235 121.02 431.043 121.42 430.945 121.918C430.855 122.407 430.81 123.007 430.81 123.716C430.81 124.451 430.855 125.067 430.945 125.564C431.043 126.062 431.235 126.462 431.521 126.763C431.815 127.065 432.24 127.216 432.795 127.216C433.342 127.216 433.758 127.065 434.044 126.763C434.338 126.462 434.53 126.062 434.62 125.564C434.718 125.067 434.767 124.451 434.767 123.716Z" fill="black"/>
<path d="M437.155 121.379C437.155 120.824 437.322 120.384 437.657 120.058C437.992 119.723 438.421 119.556 438.943 119.556C439.466 119.556 439.895 119.723 440.23 120.058C440.564 120.384 440.732 120.824 440.732 121.379C440.732 121.942 440.564 122.391 440.23 122.725C439.895 123.052 439.466 123.215 438.943 123.215C438.421 123.215 437.992 123.052 437.657 122.725C437.322 122.391 437.155 121.942 437.155 121.379ZM444.309 119.691L439.348 128.232H438.245L443.206 119.691H444.309ZM438.943 120.241C438.666 120.241 438.445 120.339 438.282 120.535C438.127 120.723 438.049 121.004 438.049 121.379C438.049 121.754 438.127 122.04 438.282 122.236C438.445 122.432 438.666 122.53 438.943 122.53C439.221 122.53 439.442 122.432 439.605 122.236C439.768 122.032 439.85 121.746 439.85 121.379C439.85 121.004 439.768 120.723 439.605 120.535C439.442 120.339 439.221 120.241 438.943 120.241ZM441.847 126.543C441.847 125.98 442.014 125.536 442.349 125.209C442.684 124.875 443.112 124.708 443.635 124.708C444.158 124.708 444.582 124.875 444.909 125.209C445.244 125.536 445.411 125.98 445.411 126.543C445.411 127.098 445.244 127.543 444.909 127.877C444.582 128.212 444.158 128.379 443.635 128.379C443.112 128.379 442.684 128.216 442.349 127.889C442.014 127.555 441.847 127.106 441.847 126.543ZM443.623 125.405C443.345 125.405 443.125 125.503 442.961 125.699C442.798 125.887 442.716 126.168 442.716 126.543C442.716 126.91 442.798 127.192 442.961 127.388C443.125 127.575 443.345 127.669 443.623 127.669C443.9 127.669 444.121 127.575 444.284 127.388C444.448 127.192 444.529 126.91 444.529 126.543C444.529 126.168 444.448 125.887 444.284 125.699C444.121 125.503 443.9 125.405 443.623 125.405Z" fill="black"/>
<path d="M422.069 183.844V182.999L426.369 177.052H427.704V182.877H428.929V183.844H427.704V185.814H426.601V183.844H422.069ZM426.65 178.215L423.355 182.877H426.65V178.215Z" fill="black"/>
<path d="M430.042 181.298C430.042 179.895 430.271 178.802 430.728 178.019C431.186 177.228 431.986 176.832 433.129 176.832C434.264 176.832 435.061 177.228 435.518 178.019C435.975 178.802 436.204 179.895 436.204 181.298C436.204 182.726 435.975 183.836 435.518 184.627C435.061 185.418 434.264 185.814 433.129 185.814C431.986 185.814 431.186 185.418 430.728 184.627C430.271 183.836 430.042 182.726 430.042 181.298ZM435.101 181.298C435.101 180.589 435.052 179.989 434.954 179.5C434.865 179.002 434.673 178.602 434.379 178.3C434.093 177.999 433.676 177.848 433.129 177.848C432.574 177.848 432.149 177.999 431.855 178.3C431.569 178.602 431.378 179.002 431.28 179.5C431.19 179.989 431.145 180.589 431.145 181.298C431.145 182.033 431.19 182.649 431.28 183.146C431.378 183.644 431.569 184.044 431.855 184.345C432.149 184.647 432.574 184.798 433.129 184.798C433.676 184.798 434.093 184.647 434.379 184.345C434.673 184.044 434.865 183.644 434.954 183.146C435.052 182.649 435.101 182.033 435.101 181.298Z" fill="black"/>
<path d="M437.489 178.961C437.489 178.406 437.657 177.966 437.992 177.64C438.326 177.305 438.755 177.138 439.278 177.138C439.8 177.138 440.229 177.305 440.564 177.64C440.899 177.966 441.066 178.406 441.066 178.961C441.066 179.524 440.899 179.973 440.564 180.307C440.229 180.634 439.8 180.797 439.278 180.797C438.755 180.797 438.326 180.634 437.992 180.307C437.657 179.973 437.489 179.524 437.489 178.961ZM444.643 177.272L439.682 185.814H438.58L443.541 177.272H444.643ZM439.278 177.823C439 177.823 438.78 177.921 438.616 178.117C438.461 178.304 438.384 178.586 438.384 178.961C438.384 179.336 438.461 179.622 438.616 179.818C438.78 180.014 439 180.111 439.278 180.111C439.555 180.111 439.776 180.014 439.939 179.818C440.103 179.614 440.184 179.328 440.184 178.961C440.184 178.586 440.103 178.304 439.939 178.117C439.776 177.921 439.555 177.823 439.278 177.823ZM442.181 184.125C442.181 183.562 442.348 183.118 442.683 182.791C443.018 182.457 443.447 182.29 443.969 182.29C444.492 182.29 444.917 182.457 445.243 182.791C445.578 183.118 445.746 183.562 445.746 184.125C445.746 184.68 445.578 185.125 445.243 185.459C444.917 185.793 444.492 185.961 443.969 185.961C443.447 185.961 443.018 185.798 442.683 185.471C442.348 185.137 442.181 184.688 442.181 184.125ZM443.957 182.987C443.68 182.987 443.459 183.085 443.296 183.281C443.132 183.468 443.051 183.75 443.051 184.125C443.051 184.492 443.132 184.774 443.296 184.969C443.459 185.157 443.68 185.251 443.957 185.251C444.235 185.251 444.455 185.157 444.619 184.969C444.782 184.774 444.864 184.492 444.864 184.125C444.864 183.75 444.782 183.468 444.619 183.281C444.455 183.085 444.235 182.987 443.957 182.987Z" fill="black"/>
<path d="M422.231 236.776C422.288 236.025 422.578 235.438 423.1 235.013C423.623 234.589 424.301 234.377 425.134 234.377C425.689 234.377 426.167 234.479 426.567 234.683C426.975 234.879 427.282 235.148 427.486 235.491C427.698 235.833 427.804 236.221 427.804 236.653C427.804 237.159 427.657 237.595 427.363 237.963C427.077 238.33 426.702 238.566 426.236 238.672V238.734C426.767 238.864 427.188 239.121 427.498 239.504C427.808 239.888 427.964 240.39 427.964 241.01C427.964 241.475 427.857 241.895 427.645 242.27C427.433 242.637 427.114 242.927 426.69 243.139C426.265 243.351 425.755 243.457 425.158 243.457C424.293 243.457 423.582 243.233 423.027 242.784C422.472 242.327 422.161 241.683 422.096 240.85H423.174C423.231 241.34 423.431 241.74 423.774 242.05C424.117 242.36 424.574 242.515 425.146 242.515C425.718 242.515 426.151 242.368 426.445 242.074C426.747 241.772 426.898 241.385 426.898 240.912C426.898 240.3 426.694 239.859 426.285 239.59C425.877 239.321 425.26 239.186 424.436 239.186H424.154V238.256H424.448C425.199 238.248 425.767 238.126 426.151 237.889C426.534 237.644 426.726 237.269 426.726 236.763C426.726 236.331 426.583 235.984 426.298 235.723C426.02 235.462 425.62 235.332 425.097 235.332C424.591 235.332 424.182 235.462 423.872 235.723C423.562 235.984 423.378 236.335 423.321 236.776H422.231Z" fill="black"/>
<path d="M429.469 238.88C429.469 237.477 429.697 236.384 430.155 235.601C430.612 234.81 431.412 234.414 432.556 234.414C433.691 234.414 434.487 234.81 434.944 235.601C435.402 236.384 435.63 237.477 435.63 238.88C435.63 240.308 435.402 241.417 434.944 242.209C434.487 243 433.691 243.396 432.556 243.396C431.412 243.396 430.612 243 430.155 242.209C429.697 241.417 429.469 240.308 429.469 238.88ZM434.528 238.88C434.528 238.171 434.479 237.571 434.381 237.082C434.291 236.584 434.099 236.184 433.805 235.882C433.519 235.58 433.103 235.43 432.556 235.43C432 235.43 431.576 235.58 431.282 235.882C430.996 236.184 430.804 236.584 430.706 237.082C430.616 237.571 430.571 238.171 430.571 238.88C430.571 239.615 430.616 240.23 430.706 240.728C430.804 241.226 430.996 241.625 431.282 241.927C431.576 242.229 432 242.38 432.556 242.38C433.103 242.38 433.519 242.229 433.805 241.927C434.099 241.625 434.291 241.226 434.381 240.728C434.479 240.23 434.528 239.615 434.528 238.88Z" fill="black"/>
<path d="M436.916 236.543C436.916 235.988 437.083 235.548 437.418 235.221C437.753 234.887 438.181 234.72 438.704 234.72C439.227 234.72 439.655 234.887 439.99 235.221C440.325 235.548 440.493 235.988 440.493 236.543C440.493 237.106 440.325 237.555 439.99 237.889C439.655 238.215 439.227 238.379 438.704 238.379C438.181 238.379 437.753 238.215 437.418 237.889C437.083 237.555 436.916 237.106 436.916 236.543ZM444.07 234.854L439.108 243.396H438.006L442.967 234.854H444.07ZM438.704 235.405C438.426 235.405 438.206 235.503 438.043 235.699C437.887 235.886 437.81 236.168 437.81 236.543C437.81 236.918 437.887 237.204 438.043 237.4C438.206 237.595 438.426 237.693 438.704 237.693C438.982 237.693 439.202 237.595 439.366 237.4C439.529 237.196 439.611 236.91 439.611 236.543C439.611 236.168 439.529 235.886 439.366 235.699C439.202 235.503 438.982 235.405 438.704 235.405ZM441.607 241.707C441.607 241.144 441.775 240.7 442.11 240.373C442.444 240.039 442.873 239.872 443.396 239.872C443.918 239.872 444.343 240.039 444.67 240.373C445.005 240.7 445.172 241.144 445.172 241.707C445.172 242.262 445.005 242.706 444.67 243.041C444.343 243.375 443.918 243.543 443.396 243.543C442.873 243.543 442.444 243.379 442.11 243.053C441.775 242.719 441.607 242.27 441.607 241.707ZM443.384 240.569C443.106 240.569 442.885 240.667 442.722 240.863C442.559 241.05 442.477 241.332 442.477 241.707C442.477 242.074 442.559 242.356 442.722 242.551C442.885 242.739 443.106 242.833 443.384 242.833C443.661 242.833 443.882 242.739 444.045 242.551C444.208 242.356 444.29 242.074 444.29 241.707C444.29 241.332 444.208 241.05 444.045 240.863C443.882 240.667 443.661 240.569 443.384 240.569Z" fill="black"/>
<path d="M422.204 300.084C423.241 299.252 424.054 298.571 424.642 298.041C425.23 297.502 425.724 296.944 426.124 296.364C426.532 295.777 426.737 295.202 426.737 294.639C426.737 294.109 426.606 293.693 426.345 293.391C426.091 293.081 425.679 292.926 425.107 292.926C424.552 292.926 424.119 293.101 423.809 293.452C423.507 293.795 423.343 294.256 423.319 294.835H422.241C422.274 293.921 422.551 293.215 423.074 292.718C423.597 292.22 424.27 291.971 425.095 291.971C425.936 291.971 426.602 292.204 427.092 292.669C427.59 293.134 427.839 293.774 427.839 294.59C427.839 295.267 427.635 295.928 427.227 296.572C426.826 297.209 426.369 297.772 425.855 298.261C425.34 298.742 424.683 299.305 423.882 299.95H428.096V300.88H422.204V300.084Z" fill="black"/>
<path d="M429.385 296.462C429.385 295.059 429.614 293.966 430.071 293.183C430.528 292.391 431.329 291.996 432.472 291.996C433.607 291.996 434.403 292.391 434.861 293.183C435.318 293.966 435.547 295.059 435.547 296.462C435.547 297.89 435.318 298.999 434.861 299.791C434.403 300.582 433.607 300.978 432.472 300.978C431.329 300.978 430.528 300.582 430.071 299.791C429.614 298.999 429.385 297.89 429.385 296.462ZM434.444 296.462C434.444 295.753 434.395 295.153 434.297 294.663C434.207 294.166 434.015 293.766 433.721 293.464C433.436 293.162 433.019 293.011 432.472 293.011C431.917 293.011 431.492 293.162 431.198 293.464C430.912 293.766 430.72 294.166 430.622 294.663C430.532 295.153 430.487 295.753 430.487 296.462C430.487 297.196 430.532 297.812 430.622 298.31C430.72 298.808 430.912 299.207 431.198 299.509C431.492 299.811 431.917 299.962 432.472 299.962C433.019 299.962 433.436 299.811 433.721 299.509C434.015 299.207 434.207 298.808 434.297 298.31C434.395 297.812 434.444 297.196 434.444 296.462Z" fill="black"/>
<path d="M436.832 294.125C436.832 293.57 436.999 293.13 437.334 292.803C437.669 292.469 438.098 292.302 438.62 292.302C439.143 292.302 439.572 292.469 439.907 292.803C440.241 293.13 440.409 293.57 440.409 294.125C440.409 294.688 440.241 295.137 439.907 295.471C439.572 295.797 439.143 295.961 438.62 295.961C438.098 295.961 437.669 295.797 437.334 295.471C436.999 295.137 436.832 294.688 436.832 294.125ZM443.986 292.436L439.025 300.978H437.922L442.883 292.436H443.986ZM438.62 292.987C438.343 292.987 438.122 293.085 437.959 293.281C437.804 293.468 437.726 293.75 437.726 294.125C437.726 294.5 437.804 294.786 437.959 294.982C438.122 295.177 438.343 295.275 438.62 295.275C438.898 295.275 439.119 295.177 439.282 294.982C439.445 294.778 439.527 294.492 439.527 294.125C439.527 293.75 439.445 293.468 439.282 293.281C439.119 293.085 438.898 292.987 438.62 292.987ZM441.524 299.289C441.524 298.726 441.691 298.281 442.026 297.955C442.361 297.621 442.789 297.453 443.312 297.453C443.835 297.453 444.259 297.621 444.586 297.955C444.921 298.281 445.088 298.726 445.088 299.289C445.088 299.844 444.921 300.288 444.586 300.623C444.259 300.957 443.835 301.125 443.312 301.125C442.789 301.125 442.361 300.961 442.026 300.635C441.691 300.301 441.524 299.852 441.524 299.289ZM443.3 298.151C443.022 298.151 442.802 298.249 442.638 298.445C442.475 298.632 442.393 298.914 442.393 299.289C442.393 299.656 442.475 299.938 442.638 300.133C442.802 300.321 443.022 300.415 443.3 300.415C443.577 300.415 443.798 300.321 443.961 300.133C444.125 299.938 444.206 299.656 444.206 299.289C444.206 298.914 444.125 298.632 443.961 298.445C443.798 298.249 443.577 298.151 443.3 298.151Z" fill="black"/>
<path d="M422.148 350.728V349.712H424.451V358.56H423.324V350.728H422.148Z" fill="black"/>
<path d="M426.366 354.044C426.366 352.641 426.595 351.548 427.052 350.765C427.509 349.973 428.31 349.578 429.453 349.578C430.588 349.578 431.384 349.973 431.841 350.765C432.299 351.548 432.527 352.641 432.527 354.044C432.527 355.472 432.299 356.581 431.841 357.373C431.384 358.164 430.588 358.56 429.453 358.56C428.31 358.56 427.509 358.164 427.052 357.373C426.595 356.581 426.366 355.472 426.366 354.044ZM431.425 354.044C431.425 353.334 431.376 352.735 431.278 352.245C431.188 351.748 430.996 351.348 430.702 351.046C430.416 350.744 430 350.593 429.453 350.593C428.897 350.593 428.473 350.744 428.179 351.046C427.893 351.348 427.701 351.748 427.603 352.245C427.513 352.735 427.468 353.334 427.468 354.044C427.468 354.778 427.513 355.394 427.603 355.892C427.701 356.39 427.893 356.789 428.179 357.091C428.473 357.393 428.897 357.544 429.453 357.544C430 357.544 430.416 357.393 430.702 357.091C430.996 356.789 431.188 356.39 431.278 355.892C431.376 355.394 431.425 354.778 431.425 354.044Z" fill="black"/>
<path d="M433.813 351.707C433.813 351.152 433.98 350.712 434.315 350.385C434.65 350.051 435.079 349.884 435.601 349.884C436.124 349.884 436.553 350.051 436.888 350.385C437.222 350.712 437.39 351.152 437.39 351.707C437.39 352.27 437.222 352.719 436.888 353.053C436.553 353.379 436.124 353.542 435.601 353.542C435.079 353.542 434.65 353.379 434.315 353.053C433.98 352.719 433.813 352.27 433.813 351.707ZM440.967 350.018L436.006 358.56H434.903L439.864 350.018H440.967ZM435.601 350.569C435.324 350.569 435.103 350.667 434.94 350.863C434.785 351.05 434.707 351.332 434.707 351.707C434.707 352.082 434.785 352.368 434.94 352.564C435.103 352.759 435.324 352.857 435.601 352.857C435.879 352.857 436.099 352.759 436.263 352.564C436.426 352.36 436.508 352.074 436.508 351.707C436.508 351.332 436.426 351.05 436.263 350.863C436.099 350.667 435.879 350.569 435.601 350.569ZM438.504 356.871C438.504 356.308 438.672 355.863 439.007 355.537C439.342 355.203 439.77 355.035 440.293 355.035C440.816 355.035 441.24 355.203 441.567 355.537C441.902 355.863 442.069 356.308 442.069 356.871C442.069 357.426 441.902 357.87 441.567 358.205C441.24 358.539 440.816 358.706 440.293 358.706C439.77 358.706 439.342 358.543 439.007 358.217C438.672 357.883 438.504 357.434 438.504 356.871ZM440.281 355.733C440.003 355.733 439.783 355.831 439.619 356.027C439.456 356.214 439.374 356.496 439.374 356.871C439.374 357.238 439.456 357.519 439.619 357.715C439.783 357.903 440.003 357.997 440.281 357.997C440.558 357.997 440.779 357.903 440.942 357.715C441.106 357.519 441.187 357.238 441.187 356.871C441.187 356.496 441.106 356.214 440.942 356.027C440.779 355.831 440.558 355.733 440.281 355.733Z" fill="black"/>
<path d="M552.746 180.409C527.842 180.409 533.111 237.516 481.039 237.516V365.697H927.213V126.135C881.983 126.135 881.983 293.678 853.406 293.678C824.83 293.678 842.878 237.516 809.032 237.516C775.186 237.516 781.942 157.668 754.774 157.668C730.745 157.668 728.806 209.209 708.602 208.499C688.398 207.789 684.507 126.135 659.603 126.135C634.699 126.135 630.175 237.516 604.366 237.516C572.67 237.516 577.651 180.409 552.746 180.409Z" fill="url(#paint4_linear_598_3567)"/>
<path d="M410.235 63.1345H418.904V67.3139H404.958V41.0327H410.235V63.1345Z" fill="#020202"/>
<path d="M424.934 43.9695C424.005 43.9695 423.226 43.6809 422.597 43.1035C421.994 42.5011 421.693 41.7606 421.693 40.8821C421.693 40.0035 421.994 39.2756 422.597 38.6982C423.226 38.0958 424.005 37.7946 424.934 37.7946C425.864 37.7946 426.63 38.0958 427.234 38.6982C427.862 39.2756 428.176 40.0035 428.176 40.8821C428.176 41.7606 427.862 42.5011 427.234 43.1035C426.63 43.6809 425.864 43.9695 424.934 43.9695ZM427.535 46.4546V67.3139H422.258V46.4546H427.535Z" fill="#020202"/>
<path d="M444.32 46.1534C446.807 46.1534 448.818 46.9441 450.351 48.5255C451.883 50.0817 452.65 52.2656 452.65 55.0769V67.3139H447.373V55.7923C447.373 54.1356 446.958 52.868 446.129 51.9895C445.3 51.0858 444.169 50.634 442.737 50.634C441.279 50.634 440.124 51.0858 439.269 51.9895C438.44 52.868 438.025 54.1356 438.025 55.7923V67.3139H432.749V46.4546H438.025V49.0526C438.729 48.1489 439.621 47.4461 440.702 46.9441C441.807 46.4169 443.013 46.1534 444.32 46.1534Z" fill="#020202"/>
<path d="M477.079 56.4324C477.079 57.1855 477.029 57.8632 476.928 58.4656H461.663C461.789 59.9717 462.316 61.1515 463.246 62.0049C464.176 62.8584 465.319 63.2851 466.676 63.2851C468.636 63.2851 470.031 62.4442 470.86 60.7624H476.551C475.948 62.7705 474.792 64.4272 473.084 65.7325C471.375 67.0127 469.277 67.6528 466.789 67.6528C464.779 67.6528 462.97 67.2135 461.362 66.3349C459.778 65.4313 458.535 64.1637 457.63 62.5321C456.751 60.9005 456.311 59.0179 456.311 56.8842C456.311 54.7255 456.751 52.8304 457.63 51.1988C458.51 49.5672 459.741 48.3121 461.324 47.4335C462.907 46.555 464.729 46.1157 466.789 46.1157C468.774 46.1157 470.546 46.5424 472.104 47.3959C473.687 48.2493 474.905 49.4668 475.76 51.0481C476.639 52.6044 477.079 54.3992 477.079 56.4324ZM471.614 54.9263C471.588 53.5708 471.098 52.4915 470.144 51.6882C469.189 50.8599 468.02 50.4457 466.638 50.4457C465.332 50.4457 464.226 50.8473 463.321 51.6506C462.442 52.4287 461.902 53.5206 461.701 54.9263H471.614Z" fill="#020202"/>
<path d="M488.63 54.1356C488.63 51.5502 489.208 49.2408 490.364 47.2076C491.545 45.1493 493.141 43.5554 495.151 42.4258C497.186 41.2711 499.46 40.6938 501.973 40.6938C504.913 40.6938 507.488 41.4468 509.7 42.9529C511.911 44.459 513.456 46.5424 514.336 49.2032H508.267C507.664 47.9481 506.81 47.0068 505.704 46.3793C504.624 45.7517 503.368 45.438 501.935 45.438C500.402 45.438 499.033 45.8019 497.827 46.5299C496.646 47.2327 495.716 48.2368 495.038 49.5421C494.384 50.8473 494.058 52.3785 494.058 54.1356C494.058 55.8676 494.384 57.3988 495.038 58.7292C495.716 60.0345 496.646 61.0511 497.827 61.779C499.033 62.4819 500.402 62.8333 501.935 62.8333C503.368 62.8333 504.624 62.5195 505.704 61.892C506.81 61.2393 507.664 60.2855 508.267 59.0304H514.336C513.456 61.7163 511.911 63.8122 509.7 65.3183C507.514 66.7993 504.938 67.5398 501.973 67.5398C499.46 67.5398 497.186 66.975 495.151 65.8455C493.141 64.6908 491.545 63.0968 490.364 61.0636C489.208 59.0304 488.63 56.7211 488.63 54.1356Z" fill="#020202"/>
<path d="M530.603 46.1534C532.186 46.1534 533.593 46.5048 534.824 47.2076C536.055 47.8854 537.01 48.902 537.689 50.2575C538.392 51.5878 538.744 53.1943 538.744 55.0769V67.3139H533.467V55.7923C533.467 54.1356 533.053 52.868 532.223 51.9895C531.394 51.0858 530.263 50.634 528.831 50.634C527.374 50.634 526.218 51.0858 525.364 51.9895C524.534 52.868 524.12 54.1356 524.12 55.7923V67.3139H518.843V39.4513H524.12V49.0526C524.798 48.1489 525.703 47.4461 526.833 46.9441C527.964 46.4169 529.221 46.1534 530.603 46.1534Z" fill="#020202"/>
<path d="M542.405 56.8089C542.405 54.7004 542.82 52.8304 543.649 51.1988C544.503 49.5672 545.647 48.3121 547.079 47.4335C548.536 46.555 550.157 46.1157 551.941 46.1157C553.499 46.1157 554.856 46.4295 556.012 47.057C557.193 47.6846 558.135 48.4752 558.839 49.4291V46.4546H564.153V67.3139H558.839V64.2641C558.16 65.243 557.218 66.0588 556.012 66.7115C554.831 67.339 553.461 67.6528 551.903 67.6528C550.144 67.6528 548.536 67.2009 547.079 66.2973C545.647 65.3936 544.503 64.126 543.649 62.4944C542.82 60.8377 542.405 58.9426 542.405 56.8089ZM558.839 56.8842C558.839 55.6041 558.587 54.5121 558.085 53.6085C557.582 52.6797 556.904 51.9769 556.049 51.5C555.195 50.9979 554.278 50.7469 553.298 50.7469C552.318 50.7469 551.413 50.9854 550.584 51.4623C549.755 51.9393 549.077 52.6421 548.549 53.5708C548.046 54.4745 547.795 55.5539 547.795 56.8089C547.795 58.064 548.046 59.1685 548.549 60.1223C549.077 61.0511 549.755 61.7665 550.584 62.2685C551.439 62.7705 552.343 63.0215 553.298 63.0215C554.278 63.0215 555.195 62.7831 556.049 62.3062C556.904 61.8041 557.582 61.1013 558.085 60.1976C558.587 59.2689 558.839 58.1644 558.839 56.8842Z" fill="#020202"/>
<path d="M574.584 49.6927C575.262 48.5882 576.142 47.7222 577.222 47.0947C578.328 46.4671 579.584 46.1534 580.991 46.1534V51.6882H579.597C577.938 51.6882 576.682 52.0773 575.828 52.8555C574.998 53.6336 574.584 54.9891 574.584 56.9219V67.3139H569.307V46.4546H574.584V49.6927Z" fill="#020202"/>
<path d="M590.689 50.7846V60.8754C590.689 61.5782 590.853 62.0928 591.179 62.4191C591.531 62.7203 592.109 62.8709 592.913 62.8709H595.363V67.3139H592.046C587.599 67.3139 585.375 65.1552 585.375 60.8377V50.7846H582.887V46.4546H585.375V41.2962H590.689V46.4546H595.363V50.7846H590.689Z" fill="#020202"/>
<defs>
<linearGradient id="paint0_linear_598_3567" x1="498" y1="0" x2="498" y2="433" gradientUnits="userSpaceOnUse">
<stop stop-color="#0000FF"/>
<stop offset="1" stop-color="#C9C9FF"/>
</linearGradient>
<linearGradient id="paint1_linear_598_3567" x1="498" y1="0" x2="498" y2="433" gradientUnits="userSpaceOnUse">
<stop stop-color="#0000FF"/>
<stop offset="1" stop-color="#C9C9FF"/>
</linearGradient>
<linearGradient id="paint2_linear_598_3567" x1="498" y1="0" x2="498" y2="433" gradientUnits="userSpaceOnUse">
<stop stop-color="#0000FF"/>
<stop offset="1" stop-color="#C9C9FF"/>
</linearGradient>
<linearGradient id="paint3_linear_598_3567" x1="498" y1="0" x2="498" y2="433" gradientUnits="userSpaceOnUse">
<stop stop-color="#0000FF"/>
<stop offset="1" stop-color="#C9C9FF"/>
</linearGradient>
<linearGradient id="paint4_linear_598_3567" x1="498" y1="0" x2="498" y2="433" gradientUnits="userSpaceOnUse">
<stop stop-color="#0000FF"/>
<stop offset="1" stop-color="#000DFF" stop-opacity="0"/>
</linearGradient>
</defs>
</svg>
