<svg xmlns="http://www.w3.org/2000/svg" width="16" height="16" fill="none"><path fill="#A5A5B0" d="M13.5 14a.5.5 0 0 1-.354-.147l-11-11a.5.5 0 0 1 .707-.706l11 11A.5.5 0 0 1 13.5 14m-5.51-2c-1.297 0-2.548-.384-3.717-1.14-1.065-.688-2.023-1.673-2.772-2.844v-.003c.623-.893 1.306-1.648 2.039-2.256a.063.063 0 0 0 .004-.092l-.622-.622a.06.06 0 0 0-.085-.004A12.4 12.4 0 0 0 .678 7.443a1 1 0 0 0-.02 1.11c.826 1.292 1.888 2.38 3.072 3.146C5.062 12.563 6.497 13 7.99 13a7.5 7.5 0 0 0 2.368-.393.06.06 0 0 0 .04-.045.062.062 0 0 0-.017-.058l-.673-.675a.13.13 0 0 0-.12-.031A6.4 6.4 0 0 1 7.989 12m7.349-4.544c-.827-1.279-1.9-2.365-3.103-3.141C10.907 3.455 9.438 3 7.99 3a7.1 7.1 0 0 0-2.34.4.063.063 0 0 0-.023.104l.673.674a.13.13 0 0 0 .121.031A6 6 0 0 1 7.99 4c1.27 0 2.517.388 3.704 1.156 1.085.7 2.054 1.684 2.805 2.844v.005a9.7 9.7 0 0 1-2.004 2.273.063.063 0 0 0-.004.092l.621.622a.06.06 0 0 0 .085.004 10.7 10.7 0 0 0 2.145-2.453 1.01 1.01 0 0 0-.003-1.087"/><path fill="#A5A5B0" d="M8 5q-.338 0-.668.075a.062.062 0 0 0-.031.106l3.518 3.517a.062.062 0 0 0 .106-.031A3 3 0 0 0 8 5M5.18 7.302a.062.062 0 0 0-.105.031 3 3 0 0 0 3.594 3.594.06.06 0 0 0 .047-.044.06.06 0 0 0-.016-.062z"/></svg>