<svg xmlns="http://www.w3.org/2000/svg" width="144" height="100" fill="none"><path fill="#A5A5B0" d="M72.488 23.198c-14.91 0-27 12.09-27 27 0 14.908 12.09 27 27 27s27-12.09 27-27-12.089-27-27-27m0 45c-9.925 0-18.207-8.271-18.207-18.196s8.075-18 18-18c9.927 0 18 8.075 18 18s-7.866 18.196-17.793 18.196m71.467-19.242c-.052-.227-.029-.468-.097-.69-.029-.095-.087-.149-.121-.232-.047-.128-.036-.28-.101-.403C130.547 17.663 102.339.415 72.279.415S13.446 17.632.351 47.602c-.056.126-.047.256-.092.4-.032.088-.097.138-.126.22-.07.228-.043.464-.086.694-.083.405-.16.799-.16 1.208 0 .414.077.797.16 1.208.045.225.016.47.086.687.03.1.095.144.126.236.047.123.036.276.092.4 13.097 29.961 41.59 46.929 71.65 46.929s58.546-16.932 71.639-46.9c.065-.128.052-.263.101-.405.032-.078.093-.137.12-.225.069-.22.047-.46.096-.69.079-.403.153-.797.153-1.213 0-.396-.074-.788-.155-1.195M72 90.584c-25.495 0-50.589-13.44-62.919-40.455 12.213-26.926 37.643-40.712 63.2-40.712 25.55 0 50.414 13.801 62.631 40.74C122.704 77.076 97.558 90.585 72 90.585"/></svg>