<?xml version="1.0" encoding="UTF-8"?>
<svg id="Layer_2" xmlns="http://www.w3.org/2000/svg" viewBox="0 0 16 13.38">
  <defs>
    <style>
      .cls-1 {
        fill: blue;
      }
    </style>
  </defs>
  <g id="Layer_1-2" data-name="Layer_1">
    <path class="cls-1" d="M11.37,10.88c1.13,0,2.05-.88,2.13-1.99.08-1.24-.94-2.31-2.18-2.27-.44.01-.85.16-1.19.4v-2.73c.5-.14,1.04-.2,1.59-.16,2.27.17,4.1,2,4.26,4.27.19,2.7-1.95,4.97-4.61,4.97h-4.58c-3.67,0-6.73-2.92-6.79-6.59S2.97,0,6.69,0c1.26,0,2.44.35,3.44.95v3.34c-.8-1.15-2.16-1.88-3.68-1.79-2.14.12-3.86,1.88-3.95,4.02-.09,2.39,1.82,4.36,4.19,4.36h4.68Z"/>
  </g>
</svg>