<?xml version="1.0" encoding="UTF-8"?>
<svg id="Layer_2" xmlns="http://www.w3.org/2000/svg" viewBox="0 0 32 26.76">
  <defs>
    <style>
      .cls-1 {
        fill: blue;
      }
    </style>
  </defs>
  <g id="Layer_1-2" data-name="Layer_1">
    <path class="cls-1" d="M22.75,21.77c2.25,0,4.11-1.76,4.25-3.98.17-2.48-1.89-4.61-4.37-4.55-.88.02-1.7.32-2.37.8v-5.45c1-.28,2.08-.4,3.19-.31,4.54.34,8.2,4.01,8.53,8.55.39,5.41-3.9,9.94-9.23,9.94h-9.16c-7.34,0-13.47-5.83-13.58-13.17S5.93,0,13.38,0c2.52,0,4.87.7,6.88,1.91v6.68c-1.6-2.3-4.33-3.76-7.37-3.58-4.28.24-7.73,3.75-7.9,8.03-.19,4.78,3.64,8.73,8.38,8.73h9.37Z"/>
  </g>
</svg>