<?xml version="1.0" encoding="UTF-8"?>
<svg id="Layer_2" xmlns="http://www.w3.org/2000/svg" viewBox="0 0 64 53.51">
  <defs>
    <style>
      .cls-1 {
        fill: blue;
      }
    </style>
  </defs>
  <g id="Layer_1-2" data-name="Layer_1">
    <path class="cls-1" d="M45.49,43.53c4.51,0,8.21-3.52,8.51-7.95.33-4.95-3.77-9.23-8.74-9.1-1.77.05-3.4.63-4.74,1.6v-10.91c2.01-.56,4.16-.79,6.38-.63,9.08.67,16.4,8.01,17.05,17.09.78,10.82-7.8,19.87-18.46,19.87h-18.33c-14.68,0-26.94-11.66-27.16-26.35C-.22,12.22,11.87,0,26.76,0c5.03,0,9.74,1.39,13.77,3.82v13.36c-3.21-4.59-8.65-7.51-14.73-7.17-8.56.48-15.45,7.5-15.79,16.07-.38,9.56,7.29,17.46,16.76,17.46h18.74Z"/>
  </g>
</svg>