<svg width="210" height="75" viewBox="0 0 210 75" fill="none" xmlns="http://www.w3.org/2000/svg">
<g filter="url(#filter0_d_1272_1292)">
<path d="M4 25.25C4 11.4429 15.1929 0.25 29 0.25H181C194.807 0.25 206 11.4429 206 25.25V41.75C206 55.5571 194.807 66.75 181 66.75H4V25.25Z" fill="#9ACEFF"/>
<path d="M28.536 15.85C29.624 15.85 30.464 16.102 31.056 16.606C31.648 17.11 31.944 17.818 31.944 18.73C31.944 19.682 31.648 20.422 31.056 20.95C30.464 21.478 29.624 21.742 28.536 21.742H26.64V24.25H25.032V15.85H28.536ZM28.536 20.41C29.136 20.41 29.6 20.274 29.928 20.002C30.256 19.73 30.42 19.318 30.42 18.766C30.42 18.238 30.256 17.846 29.928 17.59C29.6 17.326 29.136 17.194 28.536 17.194H26.64V20.41H28.536ZM28.476 21.13H30.048L32.112 24.25H30.288L28.476 21.13ZM37.9759 20.566C37.9599 20.23 37.8839 19.946 37.7479 19.714C37.6119 19.474 37.4199 19.29 37.1719 19.162C36.9319 19.026 36.6559 18.958 36.3439 18.958C35.9839 18.958 35.6719 19.042 35.4079 19.21C35.1439 19.378 34.9359 19.614 34.7839 19.918C34.6399 20.222 34.5679 20.574 34.5679 20.974C34.5679 21.414 34.6479 21.794 34.8079 22.114C34.9759 22.434 35.2039 22.682 35.4919 22.858C35.7799 23.026 36.1119 23.11 36.4879 23.11C37.1679 23.11 37.7479 22.866 38.2279 22.378L39.0559 23.206C38.7359 23.558 38.3479 23.83 37.8919 24.022C37.4359 24.214 36.9279 24.31 36.3679 24.31C35.6959 24.31 35.1119 24.174 34.6159 23.902C34.1279 23.622 33.7439 23.242 33.4639 22.762C33.1919 22.274 33.0559 21.706 33.0559 21.058C33.0559 20.41 33.1919 19.842 33.4639 19.354C33.7439 18.866 34.1279 18.486 34.6159 18.214C35.1119 17.942 35.6799 17.802 36.3199 17.794C37.0799 17.794 37.6919 17.95 38.1559 18.262C38.6279 18.574 38.9639 19.014 39.1639 19.582C39.3639 20.142 39.4359 20.81 39.3799 21.586H34.3399V20.566H37.9759ZM40.9631 17.482C40.9631 16.986 41.0711 16.574 41.2871 16.246C41.5031 15.918 41.7831 15.674 42.1271 15.514C42.4711 15.354 42.8431 15.274 43.2431 15.274C43.4431 15.274 43.6431 15.302 43.8431 15.358C44.0511 15.406 44.2431 15.474 44.4191 15.562L44.1431 16.75C44.0231 16.702 43.8951 16.658 43.7591 16.618C43.6231 16.578 43.4871 16.558 43.3511 16.558C43.2071 16.55 43.0711 16.578 42.9431 16.642C42.8151 16.698 42.7111 16.79 42.6311 16.918C42.5591 17.038 42.5231 17.198 42.5231 17.398V24.25H40.9631V17.482ZM40.1231 18.094H44.1311V19.186H40.1231V18.094ZM49.2728 20.566C49.2568 20.23 49.1808 19.946 49.0448 19.714C48.9088 19.474 48.7168 19.29 48.4688 19.162C48.2288 19.026 47.9528 18.958 47.6408 18.958C47.2808 18.958 46.9688 19.042 46.7048 19.21C46.4408 19.378 46.2328 19.614 46.0808 19.918C45.9368 20.222 45.8648 20.574 45.8648 20.974C45.8648 21.414 45.9448 21.794 46.1048 22.114C46.2728 22.434 46.5008 22.682 46.7888 22.858C47.0768 23.026 47.4088 23.11 47.7848 23.11C48.4648 23.11 49.0448 22.866 49.5248 22.378L50.3528 23.206C50.0328 23.558 49.6448 23.83 49.1888 24.022C48.7328 24.214 48.2248 24.31 47.6648 24.31C46.9928 24.31 46.4088 24.174 45.9128 23.902C45.4248 23.622 45.0408 23.242 44.7607 22.762C44.4888 22.274 44.3528 21.706 44.3528 21.058C44.3528 20.41 44.4888 19.842 44.7607 19.354C45.0408 18.866 45.4248 18.486 45.9128 18.214C46.4088 17.942 46.9768 17.802 47.6168 17.794C48.3768 17.794 48.9888 17.95 49.4528 18.262C49.9248 18.574 50.2608 19.014 50.4608 19.582C50.6608 20.142 50.7328 20.81 50.6768 21.586H45.6368V20.566H49.2728ZM55.7863 19.21C55.3383 19.178 54.9503 19.246 54.6223 19.414C54.2943 19.574 54.0423 19.806 53.8663 20.11C53.6903 20.414 53.6023 20.762 53.6023 21.154L53.1823 21.106C53.1823 20.394 53.2863 19.794 53.4943 19.306C53.7023 18.81 54.0023 18.434 54.3943 18.178C54.7863 17.922 55.2503 17.794 55.7863 17.794V19.21ZM52.0423 17.854H53.6023V24.25H52.0423V17.854ZM60.6262 19.21C60.1782 19.178 59.7902 19.246 59.4622 19.414C59.1342 19.574 58.8822 19.806 58.7062 20.11C58.5302 20.414 58.4422 20.762 58.4422 21.154L58.0222 21.106C58.0222 20.394 58.1262 19.794 58.3342 19.306C58.5422 18.81 58.8422 18.434 59.2342 18.178C59.6262 17.922 60.0902 17.794 60.6262 17.794V19.21ZM56.8822 17.854H58.4422V24.25H56.8822V17.854ZM63.6476 21.43C63.2396 21.43 62.9356 21.494 62.7356 21.622C62.5356 21.75 62.4356 21.962 62.4356 22.258C62.4356 22.53 62.5356 22.75 62.7356 22.918C62.9436 23.086 63.2236 23.17 63.5756 23.17C63.8876 23.17 64.1676 23.118 64.4156 23.014C64.6716 22.902 64.8716 22.754 65.0156 22.57C65.1676 22.378 65.2556 22.166 65.2796 21.934L65.5436 23.05C65.3516 23.466 65.0556 23.782 64.6556 23.998C64.2556 24.214 63.7716 24.322 63.2036 24.322C62.7476 24.322 62.3516 24.234 62.0156 24.058C61.6796 23.882 61.4196 23.646 61.2356 23.35C61.0516 23.046 60.9596 22.706 60.9596 22.33C60.9596 21.738 61.1716 21.274 61.5956 20.938C62.0196 20.594 62.6196 20.418 63.3956 20.41H65.4476V21.43H63.6476ZM65.2676 20.218C65.2676 19.834 65.1436 19.534 64.8956 19.318C64.6556 19.094 64.2956 18.982 63.8156 18.982C63.5196 18.982 63.2076 19.038 62.8796 19.15C62.5596 19.254 62.2356 19.406 61.9076 19.606L61.3436 18.598C61.6476 18.414 61.9396 18.266 62.2196 18.154C62.4996 18.034 62.7916 17.946 63.0956 17.89C63.4076 17.826 63.7636 17.794 64.1636 17.794C65.0036 17.794 65.6516 17.994 66.1076 18.394C66.5636 18.794 66.7956 19.346 66.8036 20.05L66.8156 24.25H65.2796L65.2676 20.218ZM68.6258 15.346H70.1858V24.25H68.6258V15.346Z" fill="black"/>
<path d="M25.064 37.15H29.632V38.054H27.888V42.75H26.808V38.054H25.064V37.15ZM31.0053 40.862C31.0053 41.1713 31.0853 41.4167 31.2453 41.598C31.4106 41.774 31.6373 41.862 31.9253 41.862C32.2613 41.8513 32.5226 41.726 32.7093 41.486C32.9013 41.246 32.9973 40.9447 32.9973 40.582H33.2693C33.2693 41.0993 33.1973 41.5207 33.0533 41.846C32.9093 42.166 32.7066 42.4033 32.4453 42.558C32.184 42.7073 31.872 42.7847 31.5093 42.79C31.1893 42.79 30.912 42.7233 30.6773 42.59C30.448 42.4567 30.2693 42.2673 30.1413 42.022C30.0186 41.7713 29.9573 41.478 29.9573 41.142V38.486H31.0053V40.862ZM32.9973 38.486H34.0453V42.75H32.9973V38.486ZM37.8393 39.39C37.5406 39.3687 37.282 39.414 37.0633 39.526C36.8446 39.6327 36.6766 39.7873 36.5593 39.99C36.442 40.1927 36.3833 40.4247 36.3833 40.686L36.1033 40.654C36.1033 40.1793 36.1726 39.7793 36.3113 39.454C36.45 39.1233 36.65 38.8727 36.9113 38.702C37.1726 38.5313 37.482 38.446 37.8393 38.446V39.39ZM35.3433 38.486H36.3833V42.75H35.3433V38.486ZM41.6819 40.366C41.6819 40.0567 41.5965 39.814 41.4259 39.638C41.2605 39.462 41.0285 39.374 40.7299 39.374C40.3832 39.374 40.1085 39.4967 39.9059 39.742C39.7085 39.982 39.6099 40.286 39.6099 40.654H39.3299C39.3299 40.1313 39.4019 39.71 39.5459 39.39C39.6952 39.0647 39.9059 38.8273 40.1779 38.678C40.4552 38.5233 40.7779 38.446 41.1459 38.446C41.4765 38.446 41.7592 38.5127 41.9939 38.646C42.2285 38.7793 42.4099 38.9687 42.5379 39.214C42.6659 39.454 42.7299 39.7447 42.7299 40.086V42.75H41.6819V40.366ZM38.5699 38.486H39.6099V42.75H38.5699V38.486ZM48.5903 39.598C48.3823 39.4753 48.1663 39.382 47.9423 39.318C47.7183 39.2487 47.5156 39.214 47.3343 39.214C47.1636 39.214 47.0249 39.246 46.9183 39.31C46.8116 39.3687 46.7583 39.47 46.7583 39.614C46.7583 39.7367 46.8116 39.8353 46.9183 39.91C47.0303 39.9847 47.1716 40.0487 47.3423 40.102C47.5129 40.15 47.6943 40.2033 47.8863 40.262C48.0783 40.3207 48.2596 40.398 48.4303 40.494C48.6063 40.59 48.7476 40.718 48.8543 40.878C48.9663 41.038 49.0223 41.2487 49.0223 41.51C49.0223 41.798 48.9449 42.038 48.7903 42.23C48.6356 42.4167 48.4303 42.558 48.1743 42.654C47.9183 42.7447 47.6383 42.79 47.3343 42.79C47.0143 42.79 46.6943 42.7393 46.3743 42.638C46.0596 42.5367 45.7903 42.3873 45.5663 42.19L45.9263 41.494C46.1236 41.6647 46.3556 41.798 46.6223 41.894C46.8943 41.9847 47.1449 42.03 47.3743 42.03C47.4969 42.03 47.6063 42.014 47.7023 41.982C47.7983 41.95 47.8729 41.9047 47.9263 41.846C47.9796 41.782 48.0063 41.6993 48.0063 41.598C48.0063 41.4593 47.9529 41.3527 47.8463 41.278C47.7396 41.198 47.6009 41.1313 47.4303 41.078C47.2649 41.0193 47.0863 40.9633 46.8943 40.91C46.7023 40.8513 46.5209 40.7767 46.3503 40.686C46.1849 40.59 46.0489 40.4647 45.9423 40.31C45.8356 40.1553 45.7823 39.95 45.7823 39.694C45.7823 39.406 45.8569 39.1687 46.0063 38.982C46.1556 38.7953 46.3529 38.6593 46.5983 38.574C46.8436 38.4833 47.1103 38.438 47.3983 38.438C47.6756 38.438 47.9529 38.478 48.2303 38.558C48.5076 38.6327 48.7529 38.7393 48.9663 38.878L48.5903 39.598ZM51.3536 40.87C51.0816 40.87 50.879 40.9127 50.7456 40.998C50.6123 41.0833 50.5456 41.2247 50.5456 41.422C50.5456 41.6033 50.6123 41.75 50.7456 41.862C50.8843 41.974 51.071 42.03 51.3056 42.03C51.5136 42.03 51.7003 41.9953 51.8656 41.926C52.0363 41.8513 52.1696 41.7527 52.2656 41.63C52.367 41.502 52.4256 41.3607 52.4416 41.206L52.6176 41.95C52.4896 42.2273 52.2923 42.438 52.0256 42.582C51.759 42.726 51.4363 42.798 51.0576 42.798C50.7536 42.798 50.4896 42.7393 50.2656 42.622C50.0416 42.5047 49.8683 42.3473 49.7456 42.15C49.623 41.9473 49.5616 41.7207 49.5616 41.47C49.5616 41.0753 49.703 40.766 49.9856 40.542C50.2683 40.3127 50.6683 40.1953 51.1856 40.19H52.5536V40.87H51.3536ZM52.4336 40.062C52.4336 39.806 52.351 39.606 52.1856 39.462C52.0256 39.3127 51.7856 39.238 51.4656 39.238C51.2683 39.238 51.0603 39.2753 50.8416 39.35C50.6283 39.4193 50.4123 39.5207 50.1936 39.654L49.8176 38.982C50.0203 38.8593 50.215 38.7607 50.4016 38.686C50.5883 38.606 50.783 38.5473 50.9856 38.51C51.1936 38.4673 51.431 38.446 51.6976 38.446C52.2576 38.446 52.6896 38.5793 52.9936 38.846C53.2976 39.1127 53.4523 39.4807 53.4576 39.95L53.4656 42.75H52.4416L52.4336 40.062ZM55.8404 41.358C55.8404 41.5713 55.8804 41.718 55.9604 41.798C56.0404 41.878 56.1497 41.918 56.2884 41.918C56.3737 41.918 56.467 41.9047 56.5684 41.878C56.6697 41.846 56.779 41.798 56.8964 41.734L57.1364 42.486C56.9764 42.582 56.803 42.6593 56.6164 42.718C56.435 42.7713 56.251 42.798 56.0644 42.798C55.835 42.798 55.6244 42.7553 55.4324 42.67C55.2404 42.5793 55.0884 42.4407 54.9764 42.254C54.8644 42.062 54.8084 41.822 54.8084 41.534V37.478H55.8404V41.358ZM54.2084 38.646H57.0644V39.374H54.2084V38.646ZM57.9527 38.486H58.9927V42.75H57.9527V38.486ZM58.4647 36.67C58.6354 36.67 58.7767 36.726 58.8887 36.838C59.0007 36.95 59.0567 37.0913 59.0567 37.262C59.0567 37.4273 59.0007 37.5687 58.8887 37.686C58.7767 37.798 58.6354 37.854 58.4647 37.854C58.2994 37.854 58.1607 37.798 58.0487 37.686C57.9367 37.5687 57.8807 37.4273 57.8807 37.262C57.8807 37.0913 57.9367 36.95 58.0487 36.838C58.1607 36.726 58.2994 36.67 58.4647 36.67ZM62.8168 39.598C62.6088 39.4753 62.3928 39.382 62.1688 39.318C61.9448 39.2487 61.7421 39.214 61.5608 39.214C61.3901 39.214 61.2515 39.246 61.1448 39.31C61.0381 39.3687 60.9848 39.47 60.9848 39.614C60.9848 39.7367 61.0381 39.8353 61.1448 39.91C61.2568 39.9847 61.3981 40.0487 61.5688 40.102C61.7395 40.15 61.9208 40.2033 62.1128 40.262C62.3048 40.3207 62.4861 40.398 62.6568 40.494C62.8328 40.59 62.9741 40.718 63.0808 40.878C63.1928 41.038 63.2488 41.2487 63.2488 41.51C63.2488 41.798 63.1715 42.038 63.0168 42.23C62.8621 42.4167 62.6568 42.558 62.4008 42.654C62.1448 42.7447 61.8648 42.79 61.5608 42.79C61.2408 42.79 60.9208 42.7393 60.6008 42.638C60.2861 42.5367 60.0168 42.3873 59.7928 42.19L60.1528 41.494C60.3501 41.6647 60.5821 41.798 60.8488 41.894C61.1208 41.9847 61.3715 42.03 61.6008 42.03C61.7235 42.03 61.8328 42.014 61.9288 41.982C62.0248 41.95 62.0995 41.9047 62.1528 41.846C62.2061 41.782 62.2328 41.6993 62.2328 41.598C62.2328 41.4593 62.1795 41.3527 62.0728 41.278C61.9661 41.198 61.8275 41.1313 61.6568 41.078C61.4915 41.0193 61.3128 40.9633 61.1208 40.91C60.9288 40.8513 60.7475 40.7767 60.5768 40.686C60.4115 40.59 60.2755 40.4647 60.1688 40.31C60.0621 40.1553 60.0088 39.95 60.0088 39.694C60.0088 39.406 60.0835 39.1687 60.2328 38.982C60.3821 38.7953 60.5795 38.6593 60.8248 38.574C61.0701 38.4833 61.3368 38.438 61.6248 38.438C61.9021 38.438 62.1795 38.478 62.4568 38.558C62.7341 38.6327 62.9795 38.7393 63.1928 38.878L62.8168 39.598ZM64.3322 38.238C64.3322 37.9073 64.4042 37.6327 64.5482 37.414C64.6922 37.1953 64.8789 37.0327 65.1082 36.926C65.3375 36.8193 65.5855 36.766 65.8522 36.766C65.9855 36.766 66.1189 36.7847 66.2522 36.822C66.3909 36.854 66.5189 36.8993 66.6362 36.958L66.4522 37.75C66.3722 37.718 66.2869 37.6887 66.1962 37.662C66.1055 37.6353 66.0149 37.622 65.9242 37.622C65.8282 37.6167 65.7375 37.6353 65.6522 37.678C65.5669 37.7153 65.4975 37.7767 65.4442 37.862C65.3962 37.942 65.3722 38.0487 65.3722 38.182V42.75H64.3322V38.238ZM63.7722 38.646H66.4442V39.374H63.7722V38.646ZM67.0602 38.486H68.1002V42.75H67.0602V38.486ZM67.5722 36.67C67.7429 36.67 67.8842 36.726 67.9962 36.838C68.1082 36.95 68.1642 37.0913 68.1642 37.262C68.1642 37.4273 68.1082 37.5687 67.9962 37.686C67.8842 37.798 67.7429 37.854 67.5722 37.854C67.4069 37.854 67.2682 37.798 67.1562 37.686C67.0442 37.5687 66.9882 37.4273 66.9882 37.262C66.9882 37.0913 67.0442 36.95 67.1562 36.838C67.2682 36.726 67.4069 36.67 67.5722 36.67ZM72.2782 40.294C72.2675 40.07 72.2169 39.8807 72.1262 39.726C72.0355 39.566 71.9075 39.4433 71.7422 39.358C71.5822 39.2673 71.3982 39.222 71.1902 39.222C70.9502 39.222 70.7422 39.278 70.5662 39.39C70.3902 39.502 70.2515 39.6593 70.1502 39.862C70.0542 40.0647 70.0062 40.2993 70.0062 40.566C70.0062 40.8593 70.0595 41.1127 70.1662 41.326C70.2782 41.5393 70.4302 41.7047 70.6222 41.822C70.8142 41.934 71.0355 41.99 71.2862 41.99C71.7395 41.99 72.1262 41.8273 72.4462 41.502L72.9982 42.054C72.7849 42.2887 72.5262 42.47 72.2222 42.598C71.9182 42.726 71.5795 42.79 71.2062 42.79C70.7582 42.79 70.3689 42.6993 70.0382 42.518C69.7129 42.3313 69.4569 42.078 69.2702 41.758C69.0889 41.4327 68.9982 41.054 68.9982 40.622C68.9982 40.19 69.0889 39.8113 69.2702 39.486C69.4569 39.1607 69.7129 38.9073 70.0382 38.726C70.3689 38.5447 70.7475 38.4513 71.1742 38.446C71.6809 38.446 72.0889 38.55 72.3982 38.758C72.7129 38.966 72.9369 39.2593 73.0702 39.638C73.2035 40.0113 73.2515 40.4567 73.2142 40.974H69.8542V40.294H72.2782ZM75.7486 38.438C76.1379 38.438 76.4686 38.526 76.7406 38.702C77.0126 38.878 77.2206 39.1287 77.3646 39.454C77.5086 39.774 77.5779 40.1607 77.5726 40.614C77.5779 41.062 77.5086 41.4513 77.3646 41.782C77.2259 42.1073 77.0206 42.358 76.7486 42.534C76.4766 42.7047 76.1512 42.79 75.7726 42.79C75.3672 42.79 75.0099 42.6993 74.7006 42.518C74.3966 42.3313 74.1592 42.0727 73.9886 41.742C73.8179 41.4113 73.7326 41.0327 73.7326 40.606C73.7326 40.174 73.8179 39.7953 73.9886 39.47C74.1592 39.1447 74.3939 38.8913 74.6926 38.71C74.9966 38.5287 75.3486 38.438 75.7486 38.438ZM75.9966 39.278C75.7619 39.278 75.5512 39.3367 75.3646 39.454C75.1832 39.5713 75.0419 39.7313 74.9406 39.934C74.8392 40.1367 74.7859 40.3687 74.7806 40.63C74.7859 40.8913 74.8392 41.1233 74.9406 41.326C75.0419 41.5287 75.1832 41.6887 75.3646 41.806C75.5512 41.918 75.7619 41.974 75.9966 41.974C76.2366 41.974 76.4472 41.918 76.6286 41.806C76.8152 41.6887 76.9592 41.5287 77.0606 41.326C77.1619 41.1233 77.2126 40.8913 77.2126 40.63C77.2126 40.3633 77.1619 40.1313 77.0606 39.934C76.9592 39.7313 76.8152 39.5713 76.6286 39.454C76.4472 39.3367 76.2366 39.278 75.9966 39.278ZM77.2126 36.814H78.2526V42.75H77.2126V36.814ZM84.6858 39.782C84.5524 39.6327 84.3898 39.518 84.1978 39.438C84.0111 39.3527 83.8004 39.31 83.5658 39.31C83.3364 39.31 83.1338 39.366 82.9578 39.478C82.7818 39.5847 82.6431 39.7367 82.5418 39.934C82.4458 40.1313 82.3978 40.3607 82.3978 40.622C82.3978 40.8833 82.4458 41.1127 82.5418 41.31C82.6431 41.5073 82.7818 41.662 82.9578 41.774C83.1338 41.886 83.3364 41.942 83.5658 41.942C83.8111 41.942 84.0324 41.8993 84.2298 41.814C84.4271 41.7287 84.5898 41.6007 84.7178 41.43L85.3658 41.958C85.1791 42.2193 84.9284 42.4247 84.6138 42.574C84.2991 42.718 83.9338 42.79 83.5178 42.79C83.0911 42.79 82.7151 42.6993 82.3898 42.518C82.0644 42.3313 81.8084 42.078 81.6217 41.758C81.4404 41.4327 81.3498 41.054 81.3498 40.622C81.3498 40.19 81.4404 39.8113 81.6217 39.486C81.8084 39.1607 82.0644 38.9073 82.3898 38.726C82.7151 38.5393 83.0911 38.446 83.5178 38.446C83.9178 38.446 84.2698 38.5127 84.5738 38.646C84.8778 38.774 85.1284 38.9553 85.3258 39.19L84.6858 39.782ZM87.1694 40.862C87.1694 41.1713 87.2494 41.4167 87.4094 41.598C87.5747 41.774 87.8014 41.862 88.0894 41.862C88.4254 41.8513 88.6867 41.726 88.8734 41.486C89.0654 41.246 89.1614 40.9447 89.1614 40.582H89.4334C89.4334 41.0993 89.3614 41.5207 89.2174 41.846C89.0734 42.166 88.8707 42.4033 88.6094 42.558C88.348 42.7073 88.036 42.7847 87.6734 42.79C87.3534 42.79 87.076 42.7233 86.8414 42.59C86.612 42.4567 86.4334 42.2673 86.3054 42.022C86.1827 41.7713 86.1214 41.478 86.1214 41.142V38.486H87.1694V40.862ZM89.1614 38.486H90.2094V42.75H89.1614V38.486ZM94.0434 39.598C93.8354 39.4753 93.6194 39.382 93.3954 39.318C93.1714 39.2487 92.9687 39.214 92.7874 39.214C92.6167 39.214 92.478 39.246 92.3714 39.31C92.2647 39.3687 92.2114 39.47 92.2114 39.614C92.2114 39.7367 92.2647 39.8353 92.3714 39.91C92.4834 39.9847 92.6247 40.0487 92.7954 40.102C92.966 40.15 93.1474 40.2033 93.3394 40.262C93.5314 40.3207 93.7127 40.398 93.8834 40.494C94.0594 40.59 94.2007 40.718 94.3074 40.878C94.4194 41.038 94.4754 41.2487 94.4754 41.51C94.4754 41.798 94.398 42.038 94.2434 42.23C94.0887 42.4167 93.8834 42.558 93.6274 42.654C93.3714 42.7447 93.0914 42.79 92.7874 42.79C92.4674 42.79 92.1474 42.7393 91.8274 42.638C91.5127 42.5367 91.2434 42.3873 91.0194 42.19L91.3794 41.494C91.5767 41.6647 91.8087 41.798 92.0754 41.894C92.3474 41.9847 92.598 42.03 92.8274 42.03C92.95 42.03 93.0594 42.014 93.1554 41.982C93.2514 41.95 93.326 41.9047 93.3794 41.846C93.4327 41.782 93.4594 41.6993 93.4594 41.598C93.4594 41.4593 93.406 41.3527 93.2994 41.278C93.1927 41.198 93.054 41.1313 92.8834 41.078C92.718 41.0193 92.5394 40.9633 92.3474 40.91C92.1554 40.8513 91.974 40.7767 91.8034 40.686C91.638 40.59 91.502 40.4647 91.3954 40.31C91.2887 40.1553 91.2354 39.95 91.2354 39.694C91.2354 39.406 91.31 39.1687 91.4594 38.982C91.6087 38.7953 91.806 38.6593 92.0514 38.574C92.2967 38.4833 92.5634 38.438 92.8514 38.438C93.1287 38.438 93.406 38.478 93.6834 38.558C93.9607 38.6327 94.206 38.7393 94.4194 38.878L94.0434 39.598ZM96.5748 41.358C96.5748 41.5713 96.6148 41.718 96.6948 41.798C96.7748 41.878 96.8841 41.918 97.0228 41.918C97.1081 41.918 97.2014 41.9047 97.3028 41.878C97.4041 41.846 97.5134 41.798 97.6308 41.734L97.8708 42.486C97.7108 42.582 97.5374 42.6593 97.3508 42.718C97.1694 42.7713 96.9854 42.798 96.7988 42.798C96.5694 42.798 96.3588 42.7553 96.1668 42.67C95.9748 42.5793 95.8228 42.4407 95.7108 42.254C95.5988 42.062 95.5428 41.822 95.5428 41.534V37.478H96.5748V41.358ZM94.9428 38.646H97.7988V39.374H94.9428V38.646ZM100.52 38.446C100.963 38.446 101.352 38.5367 101.688 38.718C102.029 38.8993 102.293 39.1527 102.48 39.478C102.672 39.8033 102.768 40.182 102.768 40.614C102.768 41.046 102.672 41.4247 102.48 41.75C102.293 42.0753 102.029 42.3313 101.688 42.518C101.352 42.6993 100.963 42.79 100.52 42.79C100.072 42.79 99.6773 42.6993 99.336 42.518C98.9947 42.3313 98.728 42.0753 98.536 41.75C98.3493 41.4247 98.256 41.046 98.256 40.614C98.256 40.182 98.3493 39.8033 98.536 39.478C98.728 39.1527 98.9947 38.8993 99.336 38.718C99.6773 38.5367 100.072 38.446 100.52 38.446ZM100.52 39.286C100.28 39.286 100.067 39.3447 99.88 39.462C99.6987 39.574 99.5573 39.7313 99.456 39.934C99.3547 40.1313 99.304 40.3607 99.304 40.622C99.304 40.8887 99.3547 41.1233 99.456 41.326C99.5573 41.5287 99.6987 41.686 99.88 41.798C100.067 41.91 100.28 41.966 100.52 41.966C100.755 41.966 100.963 41.91 101.144 41.798C101.325 41.686 101.467 41.5287 101.568 41.326C101.669 41.1233 101.72 40.8887 101.72 40.622C101.72 40.3607 101.669 40.1313 101.568 39.934C101.467 39.7313 101.325 39.574 101.144 39.462C100.963 39.3447 100.755 39.286 100.52 39.286ZM106.727 40.366C106.727 40.0513 106.645 39.806 106.479 39.63C106.319 39.454 106.093 39.366 105.799 39.366C105.463 39.3713 105.197 39.4967 104.999 39.742C104.807 39.982 104.711 40.2833 104.711 40.646H104.431C104.431 40.1287 104.503 39.71 104.647 39.39C104.791 39.0647 104.997 38.8273 105.263 38.678C105.535 38.5233 105.853 38.446 106.215 38.446C106.541 38.446 106.818 38.5127 107.047 38.646C107.282 38.7793 107.461 38.9687 107.583 39.214C107.711 39.454 107.775 39.7447 107.775 40.086V42.75H106.727V40.366ZM109.791 40.366C109.791 40.0513 109.709 39.806 109.543 39.63C109.378 39.454 109.149 39.366 108.855 39.366C108.519 39.3713 108.255 39.4967 108.063 39.742C107.871 39.982 107.775 40.2833 107.775 40.646H107.495C107.495 40.1287 107.567 39.71 107.711 39.39C107.855 39.0647 108.061 38.8273 108.327 38.678C108.594 38.5233 108.911 38.446 109.279 38.446C109.599 38.446 109.874 38.5127 110.103 38.646C110.338 38.7793 110.519 38.9687 110.647 39.214C110.775 39.454 110.839 39.7447 110.839 40.086V42.75H109.791V40.366ZM103.671 38.486H104.711V42.75H103.671V38.486ZM114.888 40.294C114.877 40.07 114.826 39.8807 114.736 39.726C114.645 39.566 114.517 39.4433 114.352 39.358C114.192 39.2673 114.008 39.222 113.8 39.222C113.56 39.222 113.352 39.278 113.176 39.39C113 39.502 112.861 39.6593 112.76 39.862C112.664 40.0647 112.616 40.2993 112.616 40.566C112.616 40.8593 112.669 41.1127 112.776 41.326C112.888 41.5393 113.04 41.7047 113.232 41.822C113.424 41.934 113.645 41.99 113.896 41.99C114.349 41.99 114.736 41.8273 115.056 41.502L115.608 42.054C115.394 42.2887 115.136 42.47 114.832 42.598C114.528 42.726 114.189 42.79 113.816 42.79C113.368 42.79 112.978 42.6993 112.648 42.518C112.322 42.3313 112.066 42.078 111.88 41.758C111.698 41.4327 111.608 41.054 111.608 40.622C111.608 40.19 111.698 39.8113 111.88 39.486C112.066 39.1607 112.322 38.9073 112.648 38.726C112.978 38.5447 113.357 38.4513 113.784 38.446C114.29 38.446 114.698 38.55 115.008 38.758C115.322 38.966 115.546 39.2593 115.68 39.638C115.813 40.0113 115.861 40.4567 115.824 40.974H112.464V40.294H114.888ZM119.23 39.39C118.931 39.3687 118.673 39.414 118.454 39.526C118.235 39.6327 118.067 39.7873 117.95 39.99C117.833 40.1927 117.774 40.4247 117.774 40.686L117.494 40.654C117.494 40.1793 117.563 39.7793 117.702 39.454C117.841 39.1233 118.041 38.8727 118.302 38.702C118.563 38.5313 118.873 38.446 119.23 38.446V39.39ZM116.734 38.486H117.774V42.75H116.734V38.486ZM122.497 39.598C122.289 39.4753 122.073 39.382 121.849 39.318C121.625 39.2487 121.422 39.214 121.241 39.214C121.07 39.214 120.931 39.246 120.825 39.31C120.718 39.3687 120.665 39.47 120.665 39.614C120.665 39.7367 120.718 39.8353 120.825 39.91C120.937 39.9847 121.078 40.0487 121.249 40.102C121.419 40.15 121.601 40.2033 121.793 40.262C121.985 40.3207 122.166 40.398 122.337 40.494C122.513 40.59 122.654 40.718 122.761 40.878C122.873 41.038 122.929 41.2487 122.929 41.51C122.929 41.798 122.851 42.038 122.697 42.23C122.542 42.4167 122.337 42.558 122.081 42.654C121.825 42.7447 121.545 42.79 121.241 42.79C120.921 42.79 120.601 42.7393 120.281 42.638C119.966 42.5367 119.697 42.3873 119.473 42.19L119.833 41.494C120.03 41.6647 120.262 41.798 120.529 41.894C120.801 41.9847 121.051 42.03 121.281 42.03C121.403 42.03 121.513 42.014 121.609 41.982C121.705 41.95 121.779 41.9047 121.833 41.846C121.886 41.782 121.913 41.6993 121.913 41.598C121.913 41.4593 121.859 41.3527 121.753 41.278C121.646 41.198 121.507 41.1313 121.337 41.078C121.171 41.0193 120.993 40.9633 120.801 40.91C120.609 40.8513 120.427 40.7767 120.257 40.686C120.091 40.59 119.955 40.4647 119.849 40.31C119.742 40.1553 119.689 39.95 119.689 39.694C119.689 39.406 119.763 39.1687 119.913 38.982C120.062 38.7953 120.259 38.6593 120.505 38.574C120.75 38.4833 121.017 38.438 121.305 38.438C121.582 38.438 121.859 38.478 122.137 38.558C122.414 38.6327 122.659 38.7393 122.873 38.878L122.497 39.598ZM125.976 38.486H127.016V42.75H125.976V38.486ZM126.488 36.67C126.659 36.67 126.8 36.726 126.912 36.838C127.024 36.95 127.08 37.0913 127.08 37.262C127.08 37.4273 127.024 37.5687 126.912 37.686C126.8 37.798 126.659 37.854 126.488 37.854C126.323 37.854 126.184 37.798 126.072 37.686C125.96 37.5687 125.904 37.4273 125.904 37.262C125.904 37.0913 125.96 36.95 126.072 36.838C126.184 36.726 126.323 36.67 126.488 36.67ZM131.416 40.366C131.416 40.0567 131.331 39.814 131.16 39.638C130.995 39.462 130.763 39.374 130.464 39.374C130.118 39.374 129.843 39.4967 129.64 39.742C129.443 39.982 129.344 40.286 129.344 40.654H129.064C129.064 40.1313 129.136 39.71 129.28 39.39C129.43 39.0647 129.64 38.8273 129.912 38.678C130.19 38.5233 130.512 38.446 130.88 38.446C131.211 38.446 131.494 38.5127 131.728 38.646C131.963 38.7793 132.144 38.9687 132.272 39.214C132.4 39.454 132.464 39.7447 132.464 40.086V42.75H131.416V40.366ZM128.304 38.486H129.344V42.75H128.304V38.486ZM134.84 41.358C134.84 41.5713 134.88 41.718 134.96 41.798C135.04 41.878 135.15 41.918 135.288 41.918C135.374 41.918 135.467 41.9047 135.568 41.878C135.67 41.846 135.779 41.798 135.896 41.734L136.136 42.486C135.976 42.582 135.803 42.6593 135.616 42.718C135.435 42.7713 135.251 42.798 135.064 42.798C134.835 42.798 134.624 42.7553 134.432 42.67C134.24 42.5793 134.088 42.4407 133.976 42.254C133.864 42.062 133.808 41.822 133.808 41.534V37.478H134.84V41.358ZM133.208 38.646H136.064V39.374H133.208V38.646ZM138.786 38.446C139.228 38.446 139.618 38.5367 139.954 38.718C140.295 38.8993 140.559 39.1527 140.746 39.478C140.938 39.8033 141.034 40.182 141.034 40.614C141.034 41.046 140.938 41.4247 140.746 41.75C140.559 42.0753 140.295 42.3313 139.954 42.518C139.618 42.6993 139.228 42.79 138.786 42.79C138.338 42.79 137.943 42.6993 137.602 42.518C137.26 42.3313 136.994 42.0753 136.802 41.75C136.615 41.4247 136.522 41.046 136.522 40.614C136.522 40.182 136.615 39.8033 136.802 39.478C136.994 39.1527 137.26 38.8993 137.602 38.718C137.943 38.5367 138.338 38.446 138.786 38.446ZM138.786 39.286C138.546 39.286 138.332 39.3447 138.146 39.462C137.964 39.574 137.823 39.7313 137.722 39.934C137.62 40.1313 137.57 40.3607 137.57 40.622C137.57 40.8887 137.62 41.1233 137.722 41.326C137.823 41.5287 137.964 41.686 138.146 41.798C138.332 41.91 138.546 41.966 138.786 41.966C139.02 41.966 139.228 41.91 139.41 41.798C139.591 41.686 139.732 41.5287 139.834 41.326C139.935 41.1233 139.986 40.8887 139.986 40.622C139.986 40.3607 139.935 40.1313 139.834 39.934C139.732 39.7313 139.591 39.574 139.41 39.462C139.228 39.3447 139.02 39.286 138.786 39.286ZM146.613 38.446C147.019 38.446 147.373 38.5367 147.677 38.718C147.981 38.8993 148.216 39.1553 148.381 39.486C148.552 39.8113 148.637 40.1927 148.637 40.63C148.637 41.0567 148.555 41.4327 148.389 41.758C148.224 42.078 147.989 42.3313 147.685 42.518C147.387 42.6993 147.035 42.79 146.629 42.79C146.251 42.79 145.925 42.7047 145.653 42.534C145.381 42.358 145.173 42.1073 145.029 41.782C144.885 41.4567 144.813 41.0727 144.813 40.63C144.813 40.1713 144.883 39.7793 145.021 39.454C145.165 39.1287 145.373 38.8807 145.645 38.71C145.917 38.534 146.24 38.446 146.613 38.446ZM146.381 39.27C146.147 39.27 145.936 39.3287 145.749 39.446C145.568 39.558 145.427 39.7153 145.325 39.918C145.224 40.1153 145.173 40.3447 145.173 40.606C145.173 40.8673 145.224 41.0993 145.325 41.302C145.427 41.5047 145.568 41.662 145.749 41.774C145.936 41.886 146.147 41.942 146.381 41.942C146.621 41.942 146.829 41.886 147.005 41.774C147.187 41.6567 147.328 41.4993 147.429 41.302C147.531 41.0993 147.581 40.8673 147.581 40.606C147.581 40.3447 147.531 40.1153 147.429 39.918C147.328 39.7153 147.187 39.558 147.005 39.446C146.829 39.3287 146.621 39.27 146.381 39.27ZM144.133 38.486H145.173V44.302H144.133V38.486ZM152.035 39.39C151.736 39.3687 151.477 39.414 151.259 39.526C151.04 39.6327 150.872 39.7873 150.755 39.99C150.637 40.1927 150.579 40.4247 150.579 40.686L150.299 40.654C150.299 40.1793 150.368 39.7793 150.507 39.454C150.645 39.1233 150.845 38.8727 151.107 38.702C151.368 38.5313 151.677 38.446 152.035 38.446V39.39ZM149.539 38.486H150.579V42.75H149.539V38.486ZM154.637 38.446C155.08 38.446 155.469 38.5367 155.805 38.718C156.147 38.8993 156.411 39.1527 156.597 39.478C156.789 39.8033 156.885 40.182 156.885 40.614C156.885 41.046 156.789 41.4247 156.597 41.75C156.411 42.0753 156.147 42.3313 155.805 42.518C155.469 42.6993 155.08 42.79 154.637 42.79C154.189 42.79 153.795 42.6993 153.453 42.518C153.112 42.3313 152.845 42.0753 152.653 41.75C152.467 41.4247 152.373 41.046 152.373 40.614C152.373 40.182 152.467 39.8033 152.653 39.478C152.845 39.1527 153.112 38.8993 153.453 38.718C153.795 38.5367 154.189 38.446 154.637 38.446ZM154.637 39.286C154.397 39.286 154.184 39.3447 153.997 39.462C153.816 39.574 153.675 39.7313 153.573 39.934C153.472 40.1313 153.421 40.3607 153.421 40.622C153.421 40.8887 153.472 41.1233 153.573 41.326C153.675 41.5287 153.816 41.686 153.997 41.798C154.184 41.91 154.397 41.966 154.637 41.966C154.872 41.966 155.08 41.91 155.261 41.798C155.443 41.686 155.584 41.5287 155.685 41.326C155.787 41.1233 155.837 40.8887 155.837 40.622C155.837 40.3607 155.787 40.1313 155.685 39.934C155.584 39.7313 155.443 39.574 155.261 39.462C155.08 39.3447 154.872 39.286 154.637 39.286ZM160.845 40.366C160.845 40.0513 160.762 39.806 160.597 39.63C160.437 39.454 160.21 39.366 159.917 39.366C159.581 39.3713 159.314 39.4967 159.117 39.742C158.925 39.982 158.829 40.2833 158.829 40.646H158.549C158.549 40.1287 158.621 39.71 158.765 39.39C158.909 39.0647 159.114 38.8273 159.381 38.678C159.653 38.5233 159.97 38.446 160.333 38.446C160.658 38.446 160.935 38.5127 161.165 38.646C161.399 38.7793 161.578 38.9687 161.701 39.214C161.829 39.454 161.893 39.7447 161.893 40.086V42.75H160.845V40.366ZM163.909 40.366C163.909 40.0513 163.826 39.806 163.661 39.63C163.495 39.454 163.266 39.366 162.973 39.366C162.637 39.3713 162.373 39.4967 162.181 39.742C161.989 39.982 161.893 40.2833 161.893 40.646H161.613C161.613 40.1287 161.685 39.71 161.829 39.39C161.973 39.0647 162.178 38.8273 162.445 38.678C162.711 38.5233 163.029 38.446 163.397 38.446C163.717 38.446 163.991 38.5127 164.221 38.646C164.455 38.7793 164.637 38.9687 164.765 39.214C164.893 39.454 164.957 39.7447 164.957 40.086V42.75H163.909V40.366ZM157.789 38.486H158.829V42.75H157.789V38.486ZM167.989 38.446C168.431 38.446 168.821 38.5367 169.157 38.718C169.498 38.8993 169.762 39.1527 169.949 39.478C170.141 39.8033 170.237 40.182 170.237 40.614C170.237 41.046 170.141 41.4247 169.949 41.75C169.762 42.0753 169.498 42.3313 169.157 42.518C168.821 42.6993 168.431 42.79 167.989 42.79C167.541 42.79 167.146 42.6993 166.805 42.518C166.463 42.3313 166.197 42.0753 166.005 41.75C165.818 41.4247 165.725 41.046 165.725 40.614C165.725 40.182 165.818 39.8033 166.005 39.478C166.197 39.1527 166.463 38.8993 166.805 38.718C167.146 38.5367 167.541 38.446 167.989 38.446ZM167.989 39.286C167.749 39.286 167.535 39.3447 167.349 39.462C167.167 39.574 167.026 39.7313 166.925 39.934C166.823 40.1313 166.773 40.3607 166.773 40.622C166.773 40.8887 166.823 41.1233 166.925 41.326C167.026 41.5287 167.167 41.686 167.349 41.798C167.535 41.91 167.749 41.966 167.989 41.966C168.223 41.966 168.431 41.91 168.613 41.798C168.794 41.686 168.935 41.5287 169.037 41.326C169.138 41.1233 169.189 40.8887 169.189 40.622C169.189 40.3607 169.138 40.1313 169.037 39.934C168.935 39.7313 168.794 39.574 168.613 39.462C168.431 39.3447 168.223 39.286 167.989 39.286ZM172.348 41.358C172.348 41.5713 172.388 41.718 172.468 41.798C172.548 41.878 172.658 41.918 172.796 41.918C172.882 41.918 172.975 41.9047 173.076 41.878C173.178 41.846 173.287 41.798 173.404 41.734L173.644 42.486C173.484 42.582 173.311 42.6593 173.124 42.718C172.943 42.7713 172.759 42.798 172.572 42.798C172.343 42.798 172.132 42.7553 171.94 42.67C171.748 42.5793 171.596 42.4407 171.484 42.254C171.372 42.062 171.316 41.822 171.316 41.534V37.478H172.348V41.358ZM170.716 38.646H173.572V39.374H170.716V38.646ZM177.309 40.294C177.299 40.07 177.248 39.8807 177.157 39.726C177.067 39.566 176.939 39.4433 176.773 39.358C176.613 39.2673 176.429 39.222 176.221 39.222C175.981 39.222 175.773 39.278 175.597 39.39C175.421 39.502 175.283 39.6593 175.181 39.862C175.085 40.0647 175.037 40.2993 175.037 40.566C175.037 40.8593 175.091 41.1127 175.197 41.326C175.309 41.5393 175.461 41.7047 175.653 41.822C175.845 41.934 176.067 41.99 176.317 41.99C176.771 41.99 177.157 41.8273 177.477 41.502L178.029 42.054C177.816 42.2887 177.557 42.47 177.253 42.598C176.949 42.726 176.611 42.79 176.237 42.79C175.789 42.79 175.4 42.6993 175.069 42.518C174.744 42.3313 174.488 42.078 174.301 41.758C174.12 41.4327 174.029 41.054 174.029 40.622C174.029 40.19 174.12 39.8113 174.301 39.486C174.488 39.1607 174.744 38.9073 175.069 38.726C175.4 38.5447 175.779 38.4513 176.205 38.446C176.712 38.446 177.12 38.55 177.429 38.758C177.744 38.966 177.968 39.2593 178.101 39.638C178.235 40.0113 178.283 40.4567 178.245 40.974H174.885V40.294H177.309ZM181.652 39.39C181.353 39.3687 181.094 39.414 180.876 39.526C180.657 39.6327 180.489 39.7873 180.372 39.99C180.254 40.1927 180.196 40.4247 180.196 40.686L179.916 40.654C179.916 40.1793 179.985 39.7793 180.124 39.454C180.262 39.1233 180.462 38.8727 180.724 38.702C180.985 38.5313 181.294 38.446 181.652 38.446V39.39ZM179.156 38.486H180.196V42.75H179.156V38.486ZM184.918 39.598C184.71 39.4753 184.494 39.382 184.27 39.318C184.046 39.2487 183.844 39.214 183.662 39.214C183.492 39.214 183.353 39.246 183.246 39.31C183.14 39.3687 183.086 39.47 183.086 39.614C183.086 39.7367 183.14 39.8353 183.246 39.91C183.358 39.9847 183.5 40.0487 183.67 40.102C183.841 40.15 184.022 40.2033 184.214 40.262C184.406 40.3207 184.588 40.398 184.758 40.494C184.934 40.59 185.076 40.718 185.182 40.878C185.294 41.038 185.35 41.2487 185.35 41.51C185.35 41.798 185.273 42.038 185.118 42.23C184.964 42.4167 184.758 42.558 184.502 42.654C184.246 42.7447 183.966 42.79 183.662 42.79C183.342 42.79 183.022 42.7393 182.702 42.638C182.388 42.5367 182.118 42.3873 181.894 42.19L182.254 41.494C182.452 41.6647 182.684 41.798 182.95 41.894C183.222 41.9847 183.473 42.03 183.702 42.03C183.825 42.03 183.934 42.014 184.03 41.982C184.126 41.95 184.201 41.9047 184.254 41.846C184.308 41.782 184.334 41.6993 184.334 41.598C184.334 41.4593 184.281 41.3527 184.174 41.278C184.068 41.198 183.929 41.1313 183.758 41.078C183.593 41.0193 183.414 40.9633 183.222 40.91C183.03 40.8513 182.849 40.7767 182.678 40.686C182.513 40.59 182.377 40.4647 182.27 40.31C182.164 40.1553 182.11 39.95 182.11 39.694C182.11 39.406 182.185 39.1687 182.334 38.982C182.484 38.7953 182.681 38.6593 182.926 38.574C183.172 38.4833 183.438 38.438 183.726 38.438C184.004 38.438 184.281 38.478 184.558 38.558C184.836 38.6327 185.081 38.7393 185.294 38.878L184.918 39.598ZM26.856 51.358C26.856 51.5713 26.896 51.718 26.976 51.798C27.056 51.878 27.1653 51.918 27.304 51.918C27.3893 51.918 27.4827 51.9047 27.584 51.878C27.6853 51.846 27.7947 51.798 27.912 51.734L28.152 52.486C27.992 52.582 27.8187 52.6593 27.632 52.718C27.4507 52.7713 27.2667 52.798 27.08 52.798C26.8507 52.798 26.64 52.7553 26.448 52.67C26.256 52.5793 26.104 52.4407 25.992 52.254C25.88 52.062 25.824 51.822 25.824 51.534V47.478H26.856V51.358ZM25.224 48.646H28.08V49.374H25.224V48.646ZM32.1283 50.366C32.1283 50.0567 32.043 49.814 31.8723 49.638C31.707 49.462 31.475 49.374 31.1763 49.374C30.8243 49.374 30.547 49.4967 30.3443 49.742C30.147 49.982 30.0483 50.286 30.0483 50.654H29.7763C29.7763 50.1313 29.8483 49.71 29.9923 49.39C30.1416 49.0647 30.3523 48.8273 30.6243 48.678C30.8963 48.5233 31.219 48.446 31.5923 48.446C31.9176 48.446 32.1976 48.5127 32.4323 48.646C32.6723 48.7793 32.8563 48.9687 32.9843 49.214C33.1123 49.454 33.1763 49.7447 33.1763 50.086V52.75H32.1283V50.366ZM29.0083 46.814H30.0483V52.75H29.0083V46.814ZM36.8393 49.39C36.5406 49.3687 36.282 49.414 36.0633 49.526C35.8446 49.6327 35.6766 49.7873 35.5593 49.99C35.442 50.1927 35.3833 50.4247 35.3833 50.686L35.1033 50.654C35.1033 50.1793 35.1726 49.7793 35.3113 49.454C35.45 49.1233 35.65 48.8727 35.9113 48.702C36.1726 48.5313 36.482 48.446 36.8393 48.446V49.39ZM34.3433 48.486H35.3833V52.75H34.3433V48.486ZM39.4419 48.446C39.8845 48.446 40.2739 48.5367 40.6099 48.718C40.9512 48.8993 41.2152 49.1527 41.4019 49.478C41.5939 49.8033 41.6899 50.182 41.6899 50.614C41.6899 51.046 41.5939 51.4247 41.4019 51.75C41.2152 52.0753 40.9512 52.3313 40.6099 52.518C40.2739 52.6993 39.8845 52.79 39.4419 52.79C38.9939 52.79 38.5992 52.6993 38.2579 52.518C37.9165 52.3313 37.6499 52.0753 37.4579 51.75C37.2712 51.4247 37.1779 51.046 37.1779 50.614C37.1779 50.182 37.2712 49.8033 37.4579 49.478C37.6499 49.1527 37.9165 48.8993 38.2579 48.718C38.5992 48.5367 38.9939 48.446 39.4419 48.446ZM39.4419 49.286C39.2019 49.286 38.9885 49.3447 38.8019 49.462C38.6205 49.574 38.4792 49.7313 38.3779 49.934C38.2765 50.1313 38.2259 50.3607 38.2259 50.622C38.2259 50.8887 38.2765 51.1233 38.3779 51.326C38.4792 51.5287 38.6205 51.686 38.8019 51.798C38.9885 51.91 39.2019 51.966 39.4419 51.966C39.6765 51.966 39.8845 51.91 40.0659 51.798C40.2472 51.686 40.3885 51.5287 40.4899 51.326C40.5912 51.1233 40.6419 50.8887 40.6419 50.622C40.6419 50.3607 40.5912 50.1313 40.4899 49.934C40.3885 49.7313 40.2472 49.574 40.0659 49.462C39.8845 49.3447 39.6765 49.286 39.4419 49.286ZM43.5053 50.862C43.5053 51.1713 43.5853 51.4167 43.7453 51.598C43.9106 51.774 44.1373 51.862 44.4253 51.862C44.7613 51.8513 45.0226 51.726 45.2093 51.486C45.4013 51.246 45.4973 50.9447 45.4973 50.582H45.7693C45.7693 51.0993 45.6973 51.5207 45.5533 51.846C45.4093 52.166 45.2066 52.4033 44.9453 52.558C44.684 52.7073 44.372 52.7847 44.0093 52.79C43.6893 52.79 43.412 52.7233 43.1773 52.59C42.948 52.4567 42.7693 52.2673 42.6413 52.022C42.5186 51.7713 42.4573 51.478 42.4573 51.142V48.486H43.5053V50.862ZM45.4973 48.486H46.5453V52.75H45.4973V48.486ZM51.7553 52.334C51.7553 52.7447 51.662 53.0993 51.4753 53.398C51.294 53.6967 51.0353 53.926 50.6993 54.086C50.3633 54.2513 49.9686 54.334 49.5153 54.334C49.1686 54.334 48.8433 54.2833 48.5393 54.182C48.2406 54.0807 47.9633 53.9447 47.7073 53.774L48.1233 53.062C48.3206 53.206 48.5286 53.318 48.7473 53.398C48.966 53.478 49.2033 53.518 49.4593 53.518C49.7153 53.518 49.9366 53.47 50.1233 53.374C50.3153 53.278 50.462 53.1447 50.5633 52.974C50.6646 52.8033 50.7153 52.6007 50.7153 52.366V48.486H51.7553V52.334ZM49.3233 48.446C49.6913 48.4407 50.006 48.5207 50.2673 48.686C50.5286 48.8513 50.7286 49.086 50.8673 49.39C51.006 49.694 51.0726 50.0593 51.0673 50.486C51.0726 50.9127 51.006 51.2807 50.8673 51.59C50.734 51.894 50.5393 52.1287 50.2833 52.294C50.0273 52.4593 49.718 52.542 49.3553 52.542C48.9766 52.542 48.6433 52.4567 48.3553 52.286C48.0726 52.11 47.8513 51.8673 47.6913 51.558C47.5313 51.2433 47.4513 50.8833 47.4513 50.478C47.4513 50.0727 47.5286 49.7207 47.6833 49.422C47.8433 49.118 48.0646 48.8807 48.3473 48.71C48.63 48.534 48.9553 48.446 49.3233 48.446ZM49.5793 49.238C49.3606 49.238 49.1633 49.2913 48.9873 49.398C48.8166 49.5047 48.6833 49.654 48.5873 49.846C48.4913 50.038 48.4406 50.2567 48.4353 50.502C48.4406 50.7473 48.4913 50.966 48.5873 51.158C48.6833 51.35 48.8166 51.4993 48.9873 51.606C49.158 51.7127 49.3553 51.766 49.5793 51.766C49.8033 51.766 50.0006 51.7127 50.1713 51.606C50.342 51.4993 50.4753 51.35 50.5713 51.158C50.6673 50.966 50.7153 50.7473 50.7153 50.502C50.7153 50.2513 50.6673 50.0327 50.5713 49.846C50.4753 49.654 50.342 49.5047 50.1713 49.398C50.0006 49.2913 49.8033 49.238 49.5793 49.238ZM56.1361 50.366C56.1361 50.0567 56.0508 49.814 55.8801 49.638C55.7148 49.462 55.4828 49.374 55.1841 49.374C54.8321 49.374 54.5548 49.4967 54.3521 49.742C54.1548 49.982 54.0561 50.286 54.0561 50.654H53.7841C53.7841 50.1313 53.8561 49.71 54.0001 49.39C54.1495 49.0647 54.3601 48.8273 54.6321 48.678C54.9041 48.5233 55.2268 48.446 55.6001 48.446C55.9255 48.446 56.2055 48.5127 56.4401 48.646C56.6801 48.7793 56.8641 48.9687 56.9921 49.214C57.1201 49.454 57.1841 49.7447 57.1841 50.086V52.75H56.1361V50.366ZM53.0161 46.814H54.0561V52.75H53.0161V46.814ZM63.0034 49.39C62.7047 49.3687 62.446 49.414 62.2274 49.526C62.0087 49.6327 61.8407 49.7873 61.7234 49.99C61.606 50.1927 61.5474 50.4247 61.5474 50.686L61.2674 50.654C61.2674 50.1793 61.3367 49.7793 61.4754 49.454C61.614 49.1233 61.814 48.8727 62.0754 48.702C62.3367 48.5313 62.646 48.446 63.0034 48.446V49.39ZM60.5074 48.486H61.5474V52.75H60.5074V48.486ZM66.6219 50.294C66.6113 50.07 66.5606 49.8807 66.4699 49.726C66.3793 49.566 66.2513 49.4433 66.0859 49.358C65.9259 49.2673 65.7419 49.222 65.5339 49.222C65.2939 49.222 65.0859 49.278 64.9099 49.39C64.7339 49.502 64.5953 49.6593 64.4939 49.862C64.3979 50.0647 64.3499 50.2993 64.3499 50.566C64.3499 50.8593 64.4033 51.1127 64.5099 51.326C64.6219 51.5393 64.7739 51.7047 64.9659 51.822C65.1579 51.934 65.3793 51.99 65.6299 51.99C66.0833 51.99 66.4699 51.8273 66.7899 51.502L67.3419 52.054C67.1286 52.2887 66.8699 52.47 66.5659 52.598C66.2619 52.726 65.9233 52.79 65.5499 52.79C65.1019 52.79 64.7126 52.6993 64.3819 52.518C64.0566 52.3313 63.8006 52.078 63.6139 51.758C63.4326 51.4327 63.3419 51.054 63.3419 50.622C63.3419 50.19 63.4326 49.8113 63.6139 49.486C63.8006 49.1607 64.0566 48.9073 64.3819 48.726C64.7126 48.5447 65.0913 48.4513 65.5179 48.446C66.0246 48.446 66.4326 48.55 66.7419 48.758C67.0566 48.966 67.2806 49.2593 67.4139 49.638C67.5473 50.0113 67.5953 50.4567 67.5579 50.974H64.1979V50.294H66.6219ZM67.6639 48.486H68.7359L69.7839 51.774L70.7999 48.486H71.8479L72.8799 51.774L73.9039 48.486H74.9599L73.3999 52.75H72.3279L71.3199 49.662L70.2959 52.75H69.2399L67.6639 48.486ZM76.8849 50.87C76.6129 50.87 76.4102 50.9127 76.2769 50.998C76.1435 51.0833 76.0769 51.2247 76.0769 51.422C76.0769 51.6033 76.1435 51.75 76.2769 51.862C76.4155 51.974 76.6022 52.03 76.8369 52.03C77.0449 52.03 77.2315 51.9953 77.3969 51.926C77.5675 51.8513 77.7009 51.7527 77.7969 51.63C77.8982 51.502 77.9569 51.3607 77.9729 51.206L78.1489 51.95C78.0209 52.2273 77.8235 52.438 77.5569 52.582C77.2902 52.726 76.9675 52.798 76.5889 52.798C76.2849 52.798 76.0209 52.7393 75.7969 52.622C75.5729 52.5047 75.3995 52.3473 75.2769 52.15C75.1542 51.9473 75.0929 51.7207 75.0929 51.47C75.0929 51.0753 75.2342 50.766 75.5169 50.542C75.7995 50.3127 76.1995 50.1953 76.7169 50.19H78.0849V50.87H76.8849ZM77.9649 50.062C77.9649 49.806 77.8822 49.606 77.7169 49.462C77.5569 49.3127 77.3169 49.238 76.9969 49.238C76.7995 49.238 76.5915 49.2753 76.3729 49.35C76.1595 49.4193 75.9435 49.5207 75.7249 49.654L75.3489 48.982C75.5515 48.8593 75.7462 48.7607 75.9329 48.686C76.1195 48.606 76.3142 48.5473 76.5169 48.51C76.7249 48.4673 76.9622 48.446 77.2289 48.446C77.7889 48.446 78.2209 48.5793 78.5249 48.846C78.8289 49.1127 78.9835 49.4807 78.9889 49.95L78.9969 52.75H77.9729L77.9649 50.062ZM82.6596 49.39C82.361 49.3687 82.1023 49.414 81.8836 49.526C81.665 49.6327 81.497 49.7873 81.3796 49.99C81.2623 50.1927 81.2036 50.4247 81.2036 50.686L80.9236 50.654C80.9236 50.1793 80.993 49.7793 81.1316 49.454C81.2703 49.1233 81.4703 48.8727 81.7316 48.702C81.993 48.5313 82.3023 48.446 82.6596 48.446V49.39ZM80.1636 48.486H81.2036V52.75H80.1636V48.486ZM85.0142 48.438C85.4035 48.438 85.7342 48.526 86.0062 48.702C86.2782 48.878 86.4862 49.1287 86.6302 49.454C86.7742 49.774 86.8435 50.1607 86.8382 50.614C86.8435 51.062 86.7742 51.4513 86.6302 51.782C86.4915 52.1073 86.2862 52.358 86.0142 52.534C85.7422 52.7047 85.4169 52.79 85.0382 52.79C84.6329 52.79 84.2755 52.6993 83.9662 52.518C83.6622 52.3313 83.4249 52.0727 83.2542 51.742C83.0835 51.4113 82.9982 51.0327 82.9982 50.606C82.9982 50.174 83.0835 49.7953 83.2542 49.47C83.4249 49.1447 83.6595 48.8913 83.9582 48.71C84.2622 48.5287 84.6142 48.438 85.0142 48.438ZM85.2622 49.278C85.0275 49.278 84.8169 49.3367 84.6302 49.454C84.4489 49.5713 84.3075 49.7313 84.2062 49.934C84.1049 50.1367 84.0515 50.3687 84.0462 50.63C84.0515 50.8913 84.1049 51.1233 84.2062 51.326C84.3075 51.5287 84.4489 51.6887 84.6302 51.806C84.8169 51.918 85.0275 51.974 85.2622 51.974C85.5022 51.974 85.7129 51.918 85.8942 51.806C86.0809 51.6887 86.2249 51.5287 86.3262 51.326C86.4275 51.1233 86.4782 50.8913 86.4782 50.63C86.4782 50.3633 86.4275 50.1313 86.3262 49.934C86.2249 49.7313 86.0809 49.5713 85.8942 49.454C85.7129 49.3367 85.5022 49.278 85.2622 49.278ZM86.4782 46.814H87.5182V52.75H86.4782V46.814ZM88.6751 49.974H90.6831V50.654H88.6751V49.974ZM94.3321 48.446C94.7374 48.446 95.0921 48.5367 95.3961 48.718C95.7001 48.8993 95.9347 49.1553 96.1001 49.486C96.2707 49.8113 96.3561 50.1927 96.3561 50.63C96.3561 51.0567 96.2734 51.4327 96.1081 51.758C95.9427 52.078 95.7081 52.3313 95.4041 52.518C95.1054 52.6993 94.7534 52.79 94.3481 52.79C93.9694 52.79 93.6441 52.7047 93.3721 52.534C93.1001 52.358 92.8921 52.1073 92.7481 51.782C92.6041 51.4567 92.5321 51.0727 92.5321 50.63C92.5321 50.1713 92.6014 49.7793 92.7401 49.454C92.8841 49.1287 93.0921 48.8807 93.3641 48.71C93.6361 48.534 93.9587 48.446 94.3321 48.446ZM94.1001 49.27C93.8654 49.27 93.6547 49.3287 93.4681 49.446C93.2867 49.558 93.1454 49.7153 93.0441 49.918C92.9427 50.1153 92.8921 50.3447 92.8921 50.606C92.8921 50.8673 92.9427 51.0993 93.0441 51.302C93.1454 51.5047 93.2867 51.662 93.4681 51.774C93.6547 51.886 93.8654 51.942 94.1001 51.942C94.3401 51.942 94.5481 51.886 94.7241 51.774C94.9054 51.6567 95.0467 51.4993 95.1481 51.302C95.2494 51.0993 95.3001 50.8673 95.3001 50.606C95.3001 50.3447 95.2494 50.1153 95.1481 49.918C95.0467 49.7153 94.9054 49.558 94.7241 49.446C94.5481 49.3287 94.3401 49.27 94.1001 49.27ZM91.8521 46.814H92.8921V52.75H91.8521V46.814ZM98.6974 50.87C98.4254 50.87 98.2227 50.9127 98.0894 50.998C97.956 51.0833 97.8894 51.2247 97.8894 51.422C97.8894 51.6033 97.956 51.75 98.0894 51.862C98.228 51.974 98.4147 52.03 98.6494 52.03C98.8574 52.03 99.044 51.9953 99.2094 51.926C99.38 51.8513 99.5134 51.7527 99.6094 51.63C99.7107 51.502 99.7694 51.3607 99.7854 51.206L99.9614 51.95C99.8334 52.2273 99.636 52.438 99.3694 52.582C99.1027 52.726 98.78 52.798 98.4014 52.798C98.0974 52.798 97.8334 52.7393 97.6094 52.622C97.3854 52.5047 97.212 52.3473 97.0894 52.15C96.9667 51.9473 96.9054 51.7207 96.9054 51.47C96.9054 51.0753 97.0467 50.766 97.3294 50.542C97.612 50.3127 98.012 50.1953 98.5294 50.19H99.8974V50.87H98.6974ZM99.7774 50.062C99.7774 49.806 99.6947 49.606 99.5294 49.462C99.3694 49.3127 99.1294 49.238 98.8094 49.238C98.612 49.238 98.404 49.2753 98.1854 49.35C97.972 49.4193 97.756 49.5207 97.5374 49.654L97.1614 48.982C97.364 48.8593 97.5587 48.7607 97.7454 48.686C97.932 48.606 98.1267 48.5473 98.3294 48.51C98.5374 48.4673 98.7747 48.446 99.0414 48.446C99.6014 48.446 100.033 48.5793 100.337 48.846C100.641 49.1127 100.796 49.4807 100.801 49.95L100.809 52.75H99.7854L99.7774 50.062ZM104.512 49.598C104.304 49.4753 104.088 49.382 103.864 49.318C103.64 49.2487 103.437 49.214 103.256 49.214C103.085 49.214 102.947 49.246 102.84 49.31C102.733 49.3687 102.68 49.47 102.68 49.614C102.68 49.7367 102.733 49.8353 102.84 49.91C102.952 49.9847 103.093 50.0487 103.264 50.102C103.435 50.15 103.616 50.2033 103.808 50.262C104 50.3207 104.181 50.398 104.352 50.494C104.528 50.59 104.669 50.718 104.776 50.878C104.888 51.038 104.944 51.2487 104.944 51.51C104.944 51.798 104.867 52.038 104.712 52.23C104.557 52.4167 104.352 52.558 104.096 52.654C103.84 52.7447 103.56 52.79 103.256 52.79C102.936 52.79 102.616 52.7393 102.296 52.638C101.981 52.5367 101.712 52.3873 101.488 52.19L101.848 51.494C102.045 51.6647 102.277 51.798 102.544 51.894C102.816 51.9847 103.067 52.03 103.296 52.03C103.419 52.03 103.528 52.014 103.624 51.982C103.72 51.95 103.795 51.9047 103.848 51.846C103.901 51.782 103.928 51.6993 103.928 51.598C103.928 51.4593 103.875 51.3527 103.768 51.278C103.661 51.198 103.523 51.1313 103.352 51.078C103.187 51.0193 103.008 50.9633 102.816 50.91C102.624 50.8513 102.443 50.7767 102.272 50.686C102.107 50.59 101.971 50.4647 101.864 50.31C101.757 50.1553 101.704 49.95 101.704 49.694C101.704 49.406 101.779 49.1687 101.928 48.982C102.077 48.7953 102.275 48.6593 102.52 48.574C102.765 48.4833 103.032 48.438 103.32 48.438C103.597 48.438 103.875 48.478 104.152 48.558C104.429 48.6327 104.675 48.7393 104.888 48.878L104.512 49.598ZM108.724 50.294C108.713 50.07 108.662 49.8807 108.572 49.726C108.481 49.566 108.353 49.4433 108.188 49.358C108.028 49.2673 107.844 49.222 107.636 49.222C107.396 49.222 107.188 49.278 107.012 49.39C106.836 49.502 106.697 49.6593 106.596 49.862C106.5 50.0647 106.452 50.2993 106.452 50.566C106.452 50.8593 106.505 51.1127 106.612 51.326C106.724 51.5393 106.876 51.7047 107.068 51.822C107.26 51.934 107.481 51.99 107.732 51.99C108.185 51.99 108.572 51.8273 108.892 51.502L109.444 52.054C109.23 52.2887 108.972 52.47 108.668 52.598C108.364 52.726 108.025 52.79 107.652 52.79C107.204 52.79 106.814 52.6993 106.484 52.518C106.158 52.3313 105.902 52.078 105.715 51.758C105.534 51.4327 105.444 51.054 105.444 50.622C105.444 50.19 105.534 49.8113 105.715 49.486C105.902 49.1607 106.158 48.9073 106.484 48.726C106.814 48.5447 107.193 48.4513 107.62 48.446C108.126 48.446 108.534 48.55 108.844 48.758C109.158 48.966 109.382 49.2593 109.516 49.638C109.649 50.0113 109.697 50.4567 109.66 50.974H106.3V50.294H108.724ZM112.194 48.438C112.583 48.438 112.914 48.526 113.186 48.702C113.458 48.878 113.666 49.1287 113.81 49.454C113.954 49.774 114.023 50.1607 114.018 50.614C114.023 51.062 113.954 51.4513 113.81 51.782C113.671 52.1073 113.466 52.358 113.194 52.534C112.922 52.7047 112.597 52.79 112.218 52.79C111.813 52.79 111.455 52.6993 111.146 52.518C110.842 52.3313 110.605 52.0727 110.434 51.742C110.263 51.4113 110.178 51.0327 110.178 50.606C110.178 50.174 110.263 49.7953 110.434 49.47C110.605 49.1447 110.839 48.8913 111.138 48.71C111.442 48.5287 111.794 48.438 112.194 48.438ZM112.442 49.278C112.207 49.278 111.997 49.3367 111.81 49.454C111.629 49.5713 111.487 49.7313 111.386 49.934C111.285 50.1367 111.231 50.3687 111.226 50.63C111.231 50.8913 111.285 51.1233 111.386 51.326C111.487 51.5287 111.629 51.6887 111.81 51.806C111.997 51.918 112.207 51.974 112.442 51.974C112.682 51.974 112.893 51.918 113.074 51.806C113.261 51.6887 113.405 51.5287 113.506 51.326C113.607 51.1233 113.658 50.8913 113.658 50.63C113.658 50.3633 113.607 50.1313 113.506 49.934C113.405 49.7313 113.261 49.5713 113.074 49.454C112.893 49.3367 112.682 49.278 112.442 49.278ZM113.658 46.814H114.698V52.75H113.658V46.814ZM120.683 49.39C120.384 49.3687 120.126 49.414 119.907 49.526C119.688 49.6327 119.52 49.7873 119.403 49.99C119.286 50.1927 119.227 50.4247 119.227 50.686L118.947 50.654C118.947 50.1793 119.016 49.7793 119.155 49.454C119.294 49.1233 119.494 48.8727 119.755 48.702C120.016 48.5313 120.326 48.446 120.683 48.446V49.39ZM118.187 48.486H119.227V52.75H118.187V48.486ZM124.302 50.294C124.291 50.07 124.24 49.8807 124.15 49.726C124.059 49.566 123.931 49.4433 123.766 49.358C123.606 49.2673 123.422 49.222 123.214 49.222C122.974 49.222 122.766 49.278 122.59 49.39C122.414 49.502 122.275 49.6593 122.174 49.862C122.078 50.0647 122.03 50.2993 122.03 50.566C122.03 50.8593 122.083 51.1127 122.19 51.326C122.302 51.5393 122.454 51.7047 122.646 51.822C122.838 51.934 123.059 51.99 123.31 51.99C123.763 51.99 124.15 51.8273 124.47 51.502L125.022 52.054C124.808 52.2887 124.55 52.47 124.246 52.598C123.942 52.726 123.603 52.79 123.23 52.79C122.782 52.79 122.392 52.6993 122.062 52.518C121.736 52.3313 121.48 52.078 121.294 51.758C121.112 51.4327 121.022 51.054 121.022 50.622C121.022 50.19 121.112 49.8113 121.294 49.486C121.48 49.1607 121.736 48.9073 122.062 48.726C122.392 48.5447 122.771 48.4513 123.198 48.446C123.704 48.446 124.112 48.55 124.422 48.758C124.736 48.966 124.96 49.2593 125.094 49.638C125.227 50.0113 125.275 50.4567 125.238 50.974H121.878V50.294H124.302ZM126.293 48.238C126.293 47.9073 126.365 47.6327 126.509 47.414C126.653 47.1953 126.84 47.0327 127.069 46.926C127.298 46.8193 127.546 46.766 127.813 46.766C127.946 46.766 128.08 46.7847 128.213 46.822C128.352 46.854 128.48 46.8993 128.597 46.958L128.413 47.75C128.333 47.718 128.248 47.6887 128.157 47.662C128.066 47.6353 127.976 47.622 127.885 47.622C127.789 47.6167 127.698 47.6353 127.613 47.678C127.528 47.7153 127.458 47.7767 127.405 47.862C127.357 47.942 127.333 48.0487 127.333 48.182V52.75H126.293V48.238ZM125.733 48.646H128.405V49.374H125.733V48.646ZM131.833 50.294C131.822 50.07 131.772 49.8807 131.681 49.726C131.59 49.566 131.462 49.4433 131.297 49.358C131.137 49.2673 130.953 49.222 130.745 49.222C130.505 49.222 130.297 49.278 130.121 49.39C129.945 49.502 129.806 49.6593 129.705 49.862C129.609 50.0647 129.561 50.2993 129.561 50.566C129.561 50.8593 129.614 51.1127 129.721 51.326C129.833 51.5393 129.985 51.7047 130.177 51.822C130.369 51.934 130.59 51.99 130.841 51.99C131.294 51.99 131.681 51.8273 132.001 51.502L132.553 52.054C132.34 52.2887 132.081 52.47 131.777 52.598C131.473 52.726 131.134 52.79 130.761 52.79C130.313 52.79 129.924 52.6993 129.593 52.518C129.268 52.3313 129.012 52.078 128.825 51.758C128.644 51.4327 128.553 51.054 128.553 50.622C128.553 50.19 128.644 49.8113 128.825 49.486C129.012 49.1607 129.268 48.9073 129.593 48.726C129.924 48.5447 130.302 48.4513 130.729 48.446C131.236 48.446 131.644 48.55 131.953 48.758C132.268 48.966 132.492 49.2593 132.625 49.638C132.758 50.0113 132.806 50.4567 132.769 50.974H129.409V50.294H131.833ZM136.175 49.39C135.877 49.3687 135.618 49.414 135.399 49.526C135.181 49.6327 135.013 49.7873 134.895 49.99C134.778 50.1927 134.719 50.4247 134.719 50.686L134.439 50.654C134.439 50.1793 134.509 49.7793 134.647 49.454C134.786 49.1233 134.986 48.8727 135.247 48.702C135.509 48.5313 135.818 48.446 136.175 48.446V49.39ZM133.679 48.486H134.719V52.75H133.679V48.486ZM139.402 49.39C139.103 49.3687 138.844 49.414 138.626 49.526C138.407 49.6327 138.239 49.7873 138.122 49.99C138.004 50.1927 137.946 50.4247 137.946 50.686L137.666 50.654C137.666 50.1793 137.735 49.7793 137.874 49.454C138.012 49.1233 138.212 48.8727 138.474 48.702C138.735 48.5313 139.044 48.446 139.402 48.446V49.39ZM136.906 48.486H137.946V52.75H136.906V48.486ZM141.416 50.87C141.144 50.87 140.941 50.9127 140.808 50.998C140.675 51.0833 140.608 51.2247 140.608 51.422C140.608 51.6033 140.675 51.75 140.808 51.862C140.947 51.974 141.133 52.03 141.368 52.03C141.576 52.03 141.763 51.9953 141.928 51.926C142.099 51.8513 142.232 51.7527 142.328 51.63C142.429 51.502 142.488 51.3607 142.504 51.206L142.68 51.95C142.552 52.2273 142.355 52.438 142.088 52.582C141.821 52.726 141.499 52.798 141.12 52.798C140.816 52.798 140.552 52.7393 140.328 52.622C140.104 52.5047 139.931 52.3473 139.808 52.15C139.685 51.9473 139.624 51.7207 139.624 51.47C139.624 51.0753 139.765 50.766 140.048 50.542C140.331 50.3127 140.731 50.1953 141.248 50.19H142.616V50.87H141.416ZM142.496 50.062C142.496 49.806 142.413 49.606 142.248 49.462C142.088 49.3127 141.848 49.238 141.528 49.238C141.331 49.238 141.123 49.2753 140.904 49.35C140.691 49.4193 140.475 49.5207 140.256 49.654L139.88 48.982C140.083 48.8593 140.277 48.7607 140.464 48.686C140.651 48.606 140.845 48.5473 141.048 48.51C141.256 48.4673 141.493 48.446 141.76 48.446C142.32 48.446 142.752 48.5793 143.056 48.846C143.36 49.1127 143.515 49.4807 143.52 49.95L143.528 52.75H142.504L142.496 50.062ZM144.735 46.814H145.775V52.75H144.735V46.814ZM151.785 48.446C152.191 48.446 152.545 48.5367 152.849 48.718C153.153 48.8993 153.388 49.1553 153.553 49.486C153.724 49.8113 153.809 50.1927 153.809 50.63C153.809 51.0567 153.727 51.4327 153.561 51.758C153.396 52.078 153.161 52.3313 152.857 52.518C152.559 52.6993 152.207 52.79 151.801 52.79C151.423 52.79 151.097 52.7047 150.825 52.534C150.553 52.358 150.345 52.1073 150.201 51.782C150.057 51.4567 149.985 51.0727 149.985 50.63C149.985 50.1713 150.055 49.7793 150.193 49.454C150.337 49.1287 150.545 48.8807 150.817 48.71C151.089 48.534 151.412 48.446 151.785 48.446ZM151.553 49.27C151.319 49.27 151.108 49.3287 150.921 49.446C150.74 49.558 150.599 49.7153 150.497 49.918C150.396 50.1153 150.345 50.3447 150.345 50.606C150.345 50.8673 150.396 51.0993 150.497 51.302C150.599 51.5047 150.74 51.662 150.921 51.774C151.108 51.886 151.319 51.942 151.553 51.942C151.793 51.942 152.001 51.886 152.177 51.774C152.359 51.6567 152.5 51.4993 152.601 51.302C152.703 51.0993 152.753 50.8673 152.753 50.606C152.753 50.3447 152.703 50.1153 152.601 49.918C152.5 49.7153 152.359 49.558 152.177 49.446C152.001 49.3287 151.793 49.27 151.553 49.27ZM149.305 48.486H150.345V54.302H149.305V48.486ZM154.751 46.814H155.791V52.75H154.751V46.814ZM158.565 50.87C158.293 50.87 158.09 50.9127 157.957 50.998C157.823 51.0833 157.757 51.2247 157.757 51.422C157.757 51.6033 157.823 51.75 157.957 51.862C158.095 51.974 158.282 52.03 158.517 52.03C158.725 52.03 158.911 51.9953 159.077 51.926C159.247 51.8513 159.381 51.7527 159.477 51.63C159.578 51.502 159.637 51.3607 159.653 51.206L159.829 51.95C159.701 52.2273 159.503 52.438 159.237 52.582C158.97 52.726 158.647 52.798 158.269 52.798C157.965 52.798 157.701 52.7393 157.477 52.622C157.253 52.5047 157.079 52.3473 156.957 52.15C156.834 51.9473 156.773 51.7207 156.773 51.47C156.773 51.0753 156.914 50.766 157.197 50.542C157.479 50.3127 157.879 50.1953 158.397 50.19H159.765V50.87H158.565ZM159.645 50.062C159.645 49.806 159.562 49.606 159.397 49.462C159.237 49.3127 158.997 49.238 158.677 49.238C158.479 49.238 158.271 49.2753 158.053 49.35C157.839 49.4193 157.623 49.5207 157.405 49.654L157.029 48.982C157.231 48.8593 157.426 48.7607 157.613 48.686C157.799 48.606 157.994 48.5473 158.197 48.51C158.405 48.4673 158.642 48.446 158.909 48.446C159.469 48.446 159.901 48.5793 160.205 48.846C160.509 49.1127 160.663 49.4807 160.669 49.95L160.677 52.75H159.653L159.645 50.062ZM164.955 50.366C164.955 50.0567 164.87 49.814 164.699 49.638C164.534 49.462 164.302 49.374 164.003 49.374C163.657 49.374 163.382 49.4967 163.179 49.742C162.982 49.982 162.883 50.286 162.883 50.654H162.603C162.603 50.1313 162.675 49.71 162.819 49.39C162.969 49.0647 163.179 48.8273 163.451 48.678C163.729 48.5233 164.051 48.446 164.419 48.446C164.75 48.446 165.033 48.5127 165.267 48.646C165.502 48.7793 165.683 48.9687 165.811 49.214C165.939 49.454 166.003 49.7447 166.003 50.086V52.75H164.955V50.366ZM161.843 48.486H162.883V52.75H161.843V48.486ZM169.707 49.598C169.499 49.4753 169.283 49.382 169.059 49.318C168.835 49.2487 168.633 49.214 168.451 49.214C168.281 49.214 168.142 49.246 168.035 49.31C167.929 49.3687 167.875 49.47 167.875 49.614C167.875 49.7367 167.929 49.8353 168.035 49.91C168.147 49.9847 168.289 50.0487 168.459 50.102C168.63 50.15 168.811 50.2033 169.003 50.262C169.195 50.3207 169.377 50.398 169.547 50.494C169.723 50.59 169.865 50.718 169.971 50.878C170.083 51.038 170.139 51.2487 170.139 51.51C170.139 51.798 170.062 52.038 169.907 52.23C169.753 52.4167 169.547 52.558 169.291 52.654C169.035 52.7447 168.755 52.79 168.451 52.79C168.131 52.79 167.811 52.7393 167.491 52.638C167.177 52.5367 166.907 52.3873 166.683 52.19L167.043 51.494C167.241 51.6647 167.473 51.798 167.739 51.894C168.011 51.9847 168.262 52.03 168.491 52.03C168.614 52.03 168.723 52.014 168.819 51.982C168.915 51.95 168.99 51.9047 169.043 51.846C169.097 51.782 169.123 51.6993 169.123 51.598C169.123 51.4593 169.07 51.3527 168.963 51.278C168.857 51.198 168.718 51.1313 168.547 51.078C168.382 51.0193 168.203 50.9633 168.011 50.91C167.819 50.8513 167.638 50.7767 167.467 50.686C167.302 50.59 167.166 50.4647 167.059 50.31C166.953 50.1553 166.899 49.95 166.899 49.694C166.899 49.406 166.974 49.1687 167.123 48.982C167.273 48.7953 167.47 48.6593 167.715 48.574C167.961 48.4833 168.227 48.438 168.515 48.438C168.793 48.438 169.07 48.478 169.347 48.558C169.625 48.6327 169.87 48.7393 170.083 48.878L169.707 49.598ZM171.279 51.718C171.439 51.718 171.569 51.7687 171.671 51.87C171.777 51.9713 171.831 52.102 171.831 52.262C171.831 52.4273 171.777 52.5633 171.671 52.67C171.569 52.7713 171.439 52.822 171.279 52.822C171.124 52.822 170.993 52.7713 170.887 52.67C170.785 52.5633 170.735 52.4273 170.735 52.262C170.735 52.102 170.785 51.9713 170.887 51.87C170.993 51.7687 171.124 51.718 171.279 51.718Z" fill="black"/>
</g>
<defs>
<filter id="filter0_d_1272_1292" x="0" y="0.25" width="210" height="74.5" filterUnits="userSpaceOnUse" color-interpolation-filters="sRGB">
<feFlood flood-opacity="0" result="BackgroundImageFix"/>
<feColorMatrix in="SourceAlpha" type="matrix" values="0 0 0 0 0 0 0 0 0 0 0 0 0 0 0 0 0 0 127 0" result="hardAlpha"/>
<feOffset dy="4"/>
<feGaussianBlur stdDeviation="2"/>
<feComposite in2="hardAlpha" operator="out"/>
<feColorMatrix type="matrix" values="0 0 0 0 0.698039 0 0 0 0 0.870588 0 0 0 0 0.972549 0 0 0 0.25 0"/>
<feBlend mode="normal" in2="BackgroundImageFix" result="effect1_dropShadow_1272_1292"/>
<feBlend mode="normal" in="SourceGraphic" in2="effect1_dropShadow_1272_1292" result="shape"/>
</filter>
</defs>
</svg>
