<svg width="38" height="37" viewBox="0 0 38 37" fill="none" xmlns="http://www.w3.org/2000/svg">
<path d="M19.1922 0.258383C9.16381 0.115682 0.918498 8.12963 0.775796 18.158C0.633095 28.1864 8.64704 36.4317 18.6754 36.5744C28.7038 36.7171 36.9491 28.7032 37.0918 18.6748L37.3502 0.516766L19.1922 0.258383Z" fill="#E373A4" fill-opacity="0.2"/>
<g clip-path="url(#clip0_1274_707)">
<path d="M22.0268 21.5835C22.0268 22.1516 22.1884 22.3781 22.6111 22.3781C23.5531 22.3781 24.153 21.1777 24.153 19.1814C24.153 16.1301 21.9294 14.6693 19.1533 14.6693C16.2974 14.6693 13.6999 16.5845 13.6999 20.2039C13.6999 23.661 15.9721 25.5437 19.4617 25.5437C20.6465 25.5437 21.4418 25.4139 22.6584 25.0081L22.9195 26.0949C21.7184 26.4851 20.4348 26.598 19.4455 26.598C14.8685 26.598 12.417 24.0823 12.417 20.2032C12.417 16.2917 15.258 13.6299 19.1695 13.6299C23.2434 13.6299 25.4014 16.0645 25.4014 19.0509C25.4014 21.5828 24.6067 23.5142 22.1073 23.5142C20.9704 23.5142 20.2245 23.0598 20.1271 22.0528C19.835 23.1727 19.0559 23.5142 18.0003 23.5142C16.5882 23.5142 15.4034 22.4261 15.4034 20.2357C15.4034 18.0283 16.4428 16.665 18.3093 16.665C19.2994 16.665 19.9161 17.0545 20.1907 17.6713L20.6621 16.8111H22.0254V21.5835H22.0268ZM20.0311 19.4411C20.0311 18.5491 19.365 18.1751 18.8131 18.1751C18.2126 18.1751 17.5478 18.6613 17.5478 20.0903C17.5478 21.2264 18.051 21.8594 18.8131 21.8594C19.3488 21.8594 20.0311 21.5186 20.0311 20.5772V19.4411Z" fill="#EF5758"/>
</g>
<defs>
<clipPath id="clip0_1274_707">
<rect width="13.5254" height="13.5254" fill="white" transform="translate(12.147 13.3521)"/>
</clipPath>
</defs>
</svg>
