<svg width="30" height="30" viewBox="0 0 30 30" fill="none" xmlns="http://www.w3.org/2000/svg">
<rect width="30" height="30" rx="15" fill="#7DE5A4" fill-opacity="0.3"/>
<path d="M17.2635 16.4212C16.7593 16.3934 16.2569 16.338 15.7516 16.3333C15.0623 16.3255 14.3941 16.4201 13.7645 16.7163C13.7063 16.744 13.6813 16.7296 13.6516 16.6775C13.2158 15.9193 12.7784 15.1625 12.3394 14.4069C12.3136 14.3623 12.3144 14.3393 12.3591 14.3085C13.0248 13.8467 13.4797 13.209 13.8419 12.4981C14.03 12.1289 14.2105 11.7559 14.3922 11.3834C14.4516 11.261 14.5273 11.1678 14.6768 11.1615C14.8263 11.1551 14.915 11.2425 14.9855 11.3648C15.8581 12.8798 16.7321 14.3939 17.6074 15.9072C17.6773 16.0279 17.7212 16.1438 17.6443 16.2764C17.5642 16.4151 17.4374 16.4362 17.2946 16.4215C17.2842 16.4208 17.2739 16.4207 17.2635 16.4212Z" fill="#6AC38B"/>
<path d="M10.1251 16.4062C10.1484 15.8989 10.3581 15.4948 10.7988 15.2285C11.1236 15.0311 11.4565 14.848 11.7838 14.6544C11.8487 14.6158 11.8725 14.6305 11.9072 14.6904C12.3338 15.4334 12.7626 16.1751 13.1936 16.9155C13.2322 16.9818 13.2275 17.0087 13.1584 17.0472C12.8239 17.2345 12.4972 17.4356 12.1599 17.6181C11.9726 17.7203 11.764 17.7775 11.5508 17.7851C11.3375 17.7928 11.1254 17.7507 10.9312 17.6622C10.7371 17.5737 10.5662 17.4412 10.4321 17.2752C10.298 17.1092 10.2044 16.9142 10.1587 16.7058C10.135 16.6077 10.1237 16.5071 10.1251 16.4062Z" fill="#6AC38B"/>
<path d="M13.919 19.6797C13.8469 19.6761 13.7768 19.6543 13.7154 19.6162C13.654 19.5781 13.6034 19.525 13.5682 19.4619C13.2778 18.9679 12.9935 18.4703 12.7039 17.9744C12.6761 17.9286 12.69 17.9117 12.7316 17.8887C12.9685 17.7535 13.2045 17.617 13.4397 17.479C13.4808 17.4549 13.503 17.4568 13.5285 17.5012C13.8131 17.9985 14.1071 18.4909 14.3831 18.9929C14.5542 19.3058 14.3193 19.6786 13.919 19.6797Z" fill="#6AC38B"/>
<path d="M18.309 12.7449C18.2522 12.7478 18.1961 12.7317 18.1494 12.6993C18.1027 12.6669 18.068 12.6199 18.0508 12.5657C18.0319 12.5112 18.0326 12.4518 18.0529 12.3977C18.0731 12.3437 18.1116 12.2984 18.1617 12.2698C18.3115 12.1774 18.4652 12.0917 18.6175 12.0035C18.7758 11.912 18.9337 11.8196 19.0929 11.7298C19.2438 11.6449 19.3949 11.6782 19.4715 11.8105C19.548 11.9428 19.5031 12.0909 19.353 12.1785C19.0515 12.353 18.7489 12.5258 18.4458 12.6997C18.4055 12.7276 18.358 12.7432 18.309 12.7449Z" fill="#6AC38B"/>
<path d="M16.9356 11.3099C16.9353 11.2567 16.9512 11.2046 16.9813 11.1607C17.1503 10.8678 17.3186 10.5746 17.4892 10.2828C17.5774 10.1317 17.7222 10.0851 17.8559 10.1605C17.9896 10.236 18.0245 10.388 17.9391 10.5375C17.7684 10.8374 17.5959 11.136 17.4215 11.4334C17.3525 11.551 17.2426 11.5942 17.1228 11.5615C17.0683 11.546 17.0204 11.5129 16.9866 11.4674C16.9527 11.422 16.9348 11.3666 16.9356 11.3099Z" fill="#6AC38B"/>
<path d="M19.2934 14.2854C19.1067 14.2854 18.9198 14.291 18.7334 14.2835C18.6133 14.2788 18.5295 14.1917 18.5082 14.0752C18.498 14.0204 18.5061 13.9638 18.5311 13.914C18.5562 13.8642 18.5968 13.824 18.6469 13.7995C18.6909 13.7791 18.7393 13.7696 18.7878 13.7717C19.127 13.7717 19.4659 13.7695 19.8049 13.7717C19.9802 13.7717 20.0931 13.8791 20.0922 14.0319C20.0914 14.1847 19.9793 14.286 19.8021 14.289C19.6326 14.2921 19.4632 14.289 19.2937 14.289L19.2934 14.2854Z" fill="#6AC38B"/>
<path d="M16.6685 12.6699C17.0013 12.6799 17.2696 12.8688 17.3788 13.1589C17.43 13.2973 17.44 13.4475 17.4076 13.5914C17.3753 13.7353 17.302 13.8668 17.1966 13.9699C17.1442 14.0207 17.1184 14.0271 17.0779 13.9552C16.8604 13.571 16.6395 13.1887 16.415 12.8083C16.3739 12.7387 16.3895 12.7176 16.4602 12.7002C16.5286 12.6841 16.5983 12.674 16.6685 12.6699Z" fill="#6AC38B"/>
</svg>
