<svg width="234" height="78" viewBox="0 0 234 78" fill="none" xmlns="http://www.w3.org/2000/svg">
<g filter="url(#filter0_d_1272_1626)">
<path d="M4 25.7522C4 11.9451 15.1929 0.752197 29 0.752197H230V44.248C230 58.0552 218.807 69.248 205 69.248H29C15.1929 69.248 4 58.0552 4 44.248V25.7522Z" fill="#FFC95C"/>
<path d="M62.484 19.2962C62.484 19.9842 62.672 20.5242 63.048 20.9162C63.424 21.3082 63.928 21.5042 64.56 21.5042C65.184 21.5042 65.68 21.3122 66.048 20.9282C66.416 20.5362 66.6 19.9922 66.6 19.2962V14.3522H68.208V19.2962C68.208 20.0322 68.06 20.6682 67.764 21.2042C67.476 21.7322 67.056 22.1402 66.504 22.4282C65.96 22.7162 65.312 22.8602 64.56 22.8602C63.8 22.8602 63.144 22.7162 62.592 22.4282C62.04 22.1402 61.616 21.7322 61.32 21.2042C61.024 20.6682 60.876 20.0322 60.876 19.2962V14.3522H62.484V19.2962ZM73.8223 16.2962C74.4303 16.2962 74.9623 16.4322 75.4183 16.7042C75.8743 16.9762 76.2263 17.3602 76.4743 17.8562C76.7303 18.3442 76.8583 18.9162 76.8583 19.5722C76.8583 20.2122 76.7343 20.7762 76.4863 21.2642C76.2383 21.7442 75.8863 22.1242 75.4303 22.4042C74.9823 22.6762 74.4543 22.8122 73.8463 22.8122C73.2783 22.8122 72.7903 22.6842 72.3823 22.4282C71.9743 22.1642 71.6623 21.7882 71.4463 21.3002C71.2303 20.8122 71.1223 20.2362 71.1223 19.5722C71.1223 18.8842 71.2263 18.2962 71.4343 17.8082C71.6503 17.3202 71.9623 16.9482 72.3703 16.6922C72.7783 16.4282 73.2623 16.2962 73.8223 16.2962ZM73.4743 17.5322C73.1223 17.5322 72.8063 17.6202 72.5263 17.7962C72.2543 17.9642 72.0423 18.2002 71.8903 18.5042C71.7383 18.8002 71.6623 19.1442 71.6623 19.5362C71.6623 19.9282 71.7383 20.2762 71.8903 20.5802C72.0423 20.8842 72.2543 21.1202 72.5263 21.2882C72.8063 21.4562 73.1223 21.5402 73.4743 21.5402C73.8343 21.5402 74.1463 21.4562 74.4103 21.2882C74.6823 21.1122 74.8943 20.8762 75.0463 20.5802C75.1983 20.2762 75.2743 19.9282 75.2743 19.5362C75.2743 19.1442 75.1983 18.8002 75.0463 18.5042C74.8943 18.2002 74.6823 17.9642 74.4103 17.7962C74.1463 17.6202 73.8343 17.5322 73.4743 17.5322ZM70.1023 16.3562H71.6623V25.0802H70.1023V16.3562ZM82.0143 18.0242C81.7023 17.8402 81.3783 17.7002 81.0423 17.6042C80.7063 17.5002 80.4023 17.4482 80.1303 17.4482C79.8743 17.4482 79.6663 17.4962 79.5063 17.5922C79.3463 17.6802 79.2663 17.8322 79.2663 18.0482C79.2663 18.2322 79.3463 18.3802 79.5063 18.4922C79.6743 18.6042 79.8863 18.7002 80.1423 18.7802C80.3983 18.8522 80.6703 18.9322 80.9583 19.0202C81.2463 19.1082 81.5183 19.2242 81.7743 19.3682C82.0383 19.5122 82.2503 19.7042 82.4103 19.9442C82.5783 20.1842 82.6623 20.5002 82.6623 20.8922C82.6623 21.3242 82.5463 21.6842 82.3143 21.9722C82.0823 22.2522 81.7743 22.4642 81.3903 22.6082C81.0063 22.7442 80.5863 22.8122 80.1303 22.8122C79.6503 22.8122 79.1703 22.7362 78.6903 22.5842C78.2183 22.4322 77.8143 22.2082 77.4783 21.9122L78.0183 20.8682C78.3143 21.1242 78.6623 21.3242 79.0623 21.4682C79.4703 21.6042 79.8463 21.6722 80.1903 21.6722C80.3743 21.6722 80.5383 21.6482 80.6823 21.6002C80.8263 21.5522 80.9383 21.4842 81.0183 21.3962C81.0983 21.3002 81.1383 21.1762 81.1383 21.0242C81.1383 20.8162 81.0583 20.6562 80.8983 20.5442C80.7383 20.4242 80.5303 20.3242 80.2743 20.2442C80.0263 20.1562 79.7583 20.0722 79.4703 19.9922C79.1823 19.9042 78.9103 19.7922 78.6543 19.6562C78.4063 19.5122 78.2023 19.3242 78.0423 19.0922C77.8823 18.8602 77.8023 18.5522 77.8023 18.1682C77.8023 17.7362 77.9143 17.3802 78.1383 17.1002C78.3623 16.8202 78.6583 16.6162 79.0263 16.4882C79.3943 16.3522 79.7943 16.2842 80.2263 16.2842C80.6423 16.2842 81.0583 16.3442 81.4743 16.4642C81.8903 16.5762 82.2583 16.7362 82.5783 16.9442L82.0143 18.0242ZM88.3313 19.0682C88.3153 18.7322 88.2393 18.4482 88.1033 18.2162C87.9673 17.9762 87.7753 17.7922 87.5273 17.6642C87.2873 17.5282 87.0113 17.4602 86.6993 17.4602C86.3393 17.4602 86.0273 17.5442 85.7633 17.7122C85.4993 17.8802 85.2913 18.1162 85.1393 18.4202C84.9953 18.7242 84.9233 19.0762 84.9233 19.4762C84.9233 19.9162 85.0033 20.2962 85.1633 20.6162C85.3313 20.9362 85.5593 21.1842 85.8473 21.3602C86.1353 21.5282 86.4673 21.6122 86.8433 21.6122C87.5233 21.6122 88.1033 21.3682 88.5833 20.8802L89.4113 21.7082C89.0913 22.0602 88.7033 22.3322 88.2473 22.5242C87.7913 22.7162 87.2833 22.8122 86.7233 22.8122C86.0513 22.8122 85.4673 22.6762 84.9713 22.4042C84.4833 22.1242 84.0993 21.7442 83.8193 21.2642C83.5473 20.7762 83.4113 20.2082 83.4113 19.5602C83.4113 18.9122 83.5473 18.3442 83.8193 17.8562C84.0993 17.3682 84.4833 16.9882 84.9713 16.7162C85.4673 16.4442 86.0353 16.3042 86.6753 16.2962C87.4353 16.2962 88.0473 16.4522 88.5113 16.7642C88.9833 17.0762 89.3193 17.5162 89.5193 18.0842C89.7193 18.6442 89.7913 19.3122 89.7353 20.0882H84.6953V19.0682H88.3313ZM91.1609 13.8482H92.7209V22.7522H91.1609V13.8482ZM94.782 13.8482H96.342V22.7522H94.782V13.8482ZM103.737 19.9322C103.329 19.9322 103.025 19.9962 102.825 20.1242C102.625 20.2522 102.525 20.4642 102.525 20.7602C102.525 21.0322 102.625 21.2522 102.825 21.4202C103.033 21.5882 103.313 21.6722 103.665 21.6722C103.977 21.6722 104.257 21.6202 104.505 21.5162C104.761 21.4042 104.961 21.2562 105.105 21.0722C105.257 20.8802 105.345 20.6682 105.369 20.4362L105.633 21.5522C105.441 21.9682 105.145 22.2842 104.745 22.5002C104.345 22.7162 103.861 22.8242 103.293 22.8242C102.837 22.8242 102.441 22.7362 102.105 22.5602C101.769 22.3842 101.509 22.1482 101.325 21.8522C101.141 21.5482 101.049 21.2082 101.049 20.8322C101.049 20.2402 101.261 19.7762 101.685 19.4402C102.109 19.0962 102.709 18.9202 103.485 18.9122H105.537V19.9322H103.737ZM105.357 18.7202C105.357 18.3362 105.233 18.0362 104.985 17.8202C104.745 17.5962 104.385 17.4842 103.905 17.4842C103.609 17.4842 103.297 17.5402 102.969 17.6522C102.649 17.7562 102.325 17.9082 101.997 18.1082L101.433 17.1002C101.737 16.9162 102.029 16.7682 102.309 16.6562C102.589 16.5362 102.881 16.4482 103.185 16.3922C103.497 16.3282 103.853 16.2962 104.253 16.2962C105.093 16.2962 105.741 16.4962 106.197 16.8962C106.653 17.2962 106.885 17.8482 106.893 18.5522L106.905 22.7522H105.369L105.357 18.7202ZM113.324 19.1762C113.324 18.7122 113.196 18.3482 112.94 18.0842C112.692 17.8202 112.344 17.6882 111.896 17.6882C111.376 17.6882 110.964 17.8722 110.66 18.2402C110.364 18.6002 110.216 19.0562 110.216 19.6082H109.796C109.796 18.8242 109.904 18.1922 110.12 17.7122C110.344 17.2242 110.66 16.8682 111.068 16.6442C111.484 16.4122 111.968 16.2962 112.52 16.2962C113.016 16.2962 113.44 16.3962 113.792 16.5962C114.144 16.7962 114.416 17.0802 114.608 17.4482C114.8 17.8082 114.896 18.2442 114.896 18.7562V22.7522H113.324V19.1762ZM108.656 16.3562H110.216V22.7522H108.656V16.3562ZM119.084 16.2842C119.668 16.2842 120.164 16.4162 120.572 16.6802C120.98 16.9442 121.292 17.3202 121.508 17.8082C121.724 18.2882 121.828 18.8682 121.82 19.5482C121.828 20.2202 121.724 20.8042 121.508 21.3002C121.3 21.7882 120.992 22.1642 120.584 22.4282C120.176 22.6842 119.688 22.8122 119.12 22.8122C118.512 22.8122 117.976 22.6762 117.512 22.4042C117.056 22.1242 116.7 21.7362 116.444 21.2402C116.188 20.7442 116.06 20.1762 116.06 19.5362C116.06 18.8882 116.188 18.3202 116.444 17.8322C116.7 17.3442 117.052 16.9642 117.5 16.6922C117.956 16.4202 118.484 16.2842 119.084 16.2842ZM119.456 17.5442C119.104 17.5442 118.788 17.6322 118.508 17.8082C118.236 17.9842 118.024 18.2242 117.872 18.5282C117.72 18.8322 117.64 19.1802 117.632 19.5722C117.64 19.9642 117.72 20.3122 117.872 20.6162C118.024 20.9202 118.236 21.1602 118.508 21.3362C118.788 21.5042 119.104 21.5882 119.456 21.5882C119.816 21.5882 120.132 21.5042 120.404 21.3362C120.684 21.1602 120.9 20.9202 121.052 20.6162C121.204 20.3122 121.28 19.9642 121.28 19.5722C121.28 19.1722 121.204 18.8242 121.052 18.5282C120.9 18.2242 120.684 17.9842 120.404 17.8082C120.132 17.6322 119.816 17.5442 119.456 17.5442ZM121.28 13.8482H122.84V22.7522H121.28V13.8482ZM132.49 18.3002C132.29 18.0762 132.046 17.9042 131.758 17.7842C131.478 17.6562 131.162 17.5922 130.81 17.5922C130.466 17.5922 130.162 17.6762 129.898 17.8442C129.634 18.0042 129.426 18.2322 129.274 18.5282C129.13 18.8242 129.058 19.1682 129.058 19.5602C129.058 19.9522 129.13 20.2962 129.274 20.5922C129.426 20.8882 129.634 21.1202 129.898 21.2882C130.162 21.4562 130.466 21.5402 130.81 21.5402C131.178 21.5402 131.51 21.4762 131.806 21.3482C132.102 21.2202 132.346 21.0282 132.538 20.7722L133.51 21.5642C133.23 21.9562 132.854 22.2642 132.382 22.4882C131.91 22.7042 131.362 22.8122 130.738 22.8122C130.098 22.8122 129.534 22.6762 129.046 22.4042C128.558 22.1242 128.174 21.7442 127.894 21.2642C127.622 20.7762 127.486 20.2082 127.486 19.5602C127.486 18.9122 127.622 18.3442 127.894 17.8562C128.174 17.3682 128.558 16.9882 129.046 16.7162C129.534 16.4362 130.098 16.2962 130.738 16.2962C131.338 16.2962 131.866 16.3962 132.322 16.5962C132.778 16.7882 133.154 17.0602 133.45 17.4122L132.49 18.3002ZM138.591 17.7122C138.143 17.6802 137.755 17.7482 137.427 17.9162C137.099 18.0762 136.847 18.3082 136.671 18.6122C136.495 18.9162 136.407 19.2642 136.407 19.6562L135.987 19.6082C135.987 18.8962 136.091 18.2962 136.299 17.8082C136.507 17.3122 136.807 16.9362 137.199 16.6802C137.591 16.4242 138.055 16.2962 138.591 16.2962V17.7122ZM134.847 16.3562H136.407V22.7522H134.847V16.3562ZM142.495 16.2962C143.159 16.2962 143.743 16.4322 144.247 16.7042C144.759 16.9762 145.155 17.3562 145.435 17.8442C145.723 18.3322 145.867 18.9002 145.867 19.5482C145.867 20.1962 145.723 20.7642 145.435 21.2522C145.155 21.7402 144.759 22.1242 144.247 22.4042C143.743 22.6762 143.159 22.8122 142.495 22.8122C141.823 22.8122 141.231 22.6762 140.719 22.4042C140.207 22.1242 139.807 21.7402 139.519 21.2522C139.239 20.7642 139.099 20.1962 139.099 19.5482C139.099 18.9002 139.239 18.3322 139.519 17.8442C139.807 17.3562 140.207 16.9762 140.719 16.7042C141.231 16.4322 141.823 16.2962 142.495 16.2962ZM142.495 17.5562C142.135 17.5562 141.815 17.6442 141.535 17.8202C141.263 17.9882 141.051 18.2242 140.899 18.5282C140.747 18.8242 140.671 19.1682 140.671 19.5602C140.671 19.9602 140.747 20.3122 140.899 20.6162C141.051 20.9202 141.263 21.1562 141.535 21.3242C141.815 21.4922 142.135 21.5762 142.495 21.5762C142.847 21.5762 143.159 21.4922 143.431 21.3242C143.703 21.1562 143.915 20.9202 144.067 20.6162C144.219 20.3122 144.295 19.9602 144.295 19.5602C144.295 19.1682 144.219 18.8242 144.067 18.5282C143.915 18.2242 143.703 17.9882 143.431 17.8202C143.159 17.6442 142.847 17.5562 142.495 17.5562ZM151.026 18.0242C150.714 17.8402 150.39 17.7002 150.054 17.6042C149.718 17.5002 149.414 17.4482 149.142 17.4482C148.886 17.4482 148.678 17.4962 148.518 17.5922C148.358 17.6802 148.278 17.8322 148.278 18.0482C148.278 18.2322 148.358 18.3802 148.518 18.4922C148.686 18.6042 148.898 18.7002 149.154 18.7802C149.41 18.8522 149.682 18.9322 149.97 19.0202C150.258 19.1082 150.53 19.2242 150.786 19.3682C151.05 19.5122 151.262 19.7042 151.422 19.9442C151.59 20.1842 151.674 20.5002 151.674 20.8922C151.674 21.3242 151.558 21.6842 151.326 21.9722C151.094 22.2522 150.786 22.4642 150.402 22.6082C150.018 22.7442 149.598 22.8122 149.142 22.8122C148.662 22.8122 148.182 22.7362 147.702 22.5842C147.23 22.4322 146.826 22.2082 146.49 21.9122L147.03 20.8682C147.326 21.1242 147.674 21.3242 148.074 21.4682C148.482 21.6042 148.858 21.6722 149.202 21.6722C149.386 21.6722 149.55 21.6482 149.694 21.6002C149.838 21.5522 149.95 21.4842 150.03 21.3962C150.11 21.3002 150.15 21.1762 150.15 21.0242C150.15 20.8162 150.07 20.6562 149.91 20.5442C149.75 20.4242 149.542 20.3242 149.286 20.2442C149.038 20.1562 148.77 20.0722 148.482 19.9922C148.194 19.9042 147.922 19.7922 147.666 19.6562C147.418 19.5122 147.214 19.3242 147.054 19.0922C146.894 18.8602 146.814 18.5522 146.814 18.1682C146.814 17.7362 146.926 17.3802 147.15 17.1002C147.374 16.8202 147.67 16.6162 148.038 16.4882C148.406 16.3522 148.806 16.2842 149.238 16.2842C149.654 16.2842 150.07 16.3442 150.486 16.4642C150.902 16.5762 151.27 16.7362 151.59 16.9442L151.026 18.0242ZM156.815 18.0242C156.503 17.8402 156.179 17.7002 155.843 17.6042C155.507 17.5002 155.203 17.4482 154.931 17.4482C154.675 17.4482 154.467 17.4962 154.307 17.5922C154.147 17.6802 154.067 17.8322 154.067 18.0482C154.067 18.2322 154.147 18.3802 154.307 18.4922C154.475 18.6042 154.687 18.7002 154.943 18.7802C155.199 18.8522 155.471 18.9322 155.759 19.0202C156.047 19.1082 156.319 19.2242 156.575 19.3682C156.839 19.5122 157.051 19.7042 157.211 19.9442C157.379 20.1842 157.463 20.5002 157.463 20.8922C157.463 21.3242 157.347 21.6842 157.115 21.9722C156.883 22.2522 156.575 22.4642 156.191 22.6082C155.807 22.7442 155.387 22.8122 154.931 22.8122C154.451 22.8122 153.971 22.7362 153.491 22.5842C153.019 22.4322 152.615 22.2082 152.279 21.9122L152.819 20.8682C153.115 21.1242 153.463 21.3242 153.863 21.4682C154.271 21.6042 154.647 21.6722 154.991 21.6722C155.175 21.6722 155.339 21.6482 155.483 21.6002C155.627 21.5522 155.739 21.4842 155.819 21.3962C155.899 21.3002 155.939 21.1762 155.939 21.0242C155.939 20.8162 155.859 20.6562 155.699 20.5442C155.539 20.4242 155.331 20.3242 155.075 20.2442C154.827 20.1562 154.559 20.0722 154.271 19.9922C153.983 19.9042 153.711 19.7922 153.455 19.6562C153.207 19.5122 153.003 19.3242 152.843 19.0922C152.683 18.8602 152.603 18.5522 152.603 18.1682C152.603 17.7362 152.715 17.3802 152.939 17.1002C153.163 16.8202 153.459 16.6162 153.827 16.4882C154.195 16.3522 154.595 16.2842 155.027 16.2842C155.443 16.2842 155.859 16.3442 156.275 16.4642C156.691 16.5762 157.059 16.7362 157.379 16.9442L156.815 18.0242ZM165.839 18.0242C165.527 17.8402 165.203 17.7002 164.867 17.6042C164.531 17.5002 164.227 17.4482 163.955 17.4482C163.699 17.4482 163.491 17.4962 163.331 17.5922C163.171 17.6802 163.091 17.8322 163.091 18.0482C163.091 18.2322 163.171 18.3802 163.331 18.4922C163.499 18.6042 163.711 18.7002 163.967 18.7802C164.223 18.8522 164.495 18.9322 164.783 19.0202C165.071 19.1082 165.343 19.2242 165.599 19.3682C165.863 19.5122 166.075 19.7042 166.235 19.9442C166.403 20.1842 166.487 20.5002 166.487 20.8922C166.487 21.3242 166.371 21.6842 166.139 21.9722C165.907 22.2522 165.599 22.4642 165.215 22.6082C164.831 22.7442 164.411 22.8122 163.955 22.8122C163.475 22.8122 162.995 22.7362 162.515 22.5842C162.043 22.4322 161.639 22.2082 161.303 21.9122L161.843 20.8682C162.139 21.1242 162.487 21.3242 162.887 21.4682C163.295 21.6042 163.671 21.6722 164.015 21.6722C164.199 21.6722 164.363 21.6482 164.507 21.6002C164.651 21.5522 164.763 21.4842 164.843 21.3962C164.923 21.3002 164.963 21.1762 164.963 21.0242C164.963 20.8162 164.883 20.6562 164.723 20.5442C164.563 20.4242 164.355 20.3242 164.099 20.2442C163.851 20.1562 163.583 20.0722 163.295 19.9922C163.007 19.9042 162.735 19.7922 162.479 19.6562C162.231 19.5122 162.027 19.3242 161.867 19.0922C161.707 18.8602 161.627 18.5522 161.627 18.1682C161.627 17.7362 161.739 17.3802 161.963 17.1002C162.187 16.8202 162.483 16.6162 162.851 16.4882C163.219 16.3522 163.619 16.2842 164.051 16.2842C164.467 16.2842 164.883 16.3442 165.299 16.4642C165.715 16.5762 166.083 16.7362 166.403 16.9442L165.839 18.0242ZM172.156 19.0682C172.14 18.7322 172.064 18.4482 171.928 18.2162C171.792 17.9762 171.6 17.7922 171.352 17.6642C171.112 17.5282 170.836 17.4602 170.524 17.4602C170.164 17.4602 169.852 17.5442 169.588 17.7122C169.324 17.8802 169.116 18.1162 168.964 18.4202C168.82 18.7242 168.748 19.0762 168.748 19.4762C168.748 19.9162 168.828 20.2962 168.988 20.6162C169.156 20.9362 169.384 21.1842 169.672 21.3602C169.96 21.5282 170.292 21.6122 170.668 21.6122C171.348 21.6122 171.928 21.3682 172.408 20.8802L173.236 21.7082C172.916 22.0602 172.528 22.3322 172.072 22.5242C171.616 22.7162 171.108 22.8122 170.548 22.8122C169.876 22.8122 169.292 22.6762 168.796 22.4042C168.308 22.1242 167.924 21.7442 167.644 21.2642C167.372 20.7762 167.236 20.2082 167.236 19.5602C167.236 18.9122 167.372 18.3442 167.644 17.8562C167.924 17.3682 168.308 16.9882 168.796 16.7162C169.292 16.4442 169.86 16.3042 170.5 16.2962C171.26 16.2962 171.872 16.4522 172.336 16.7642C172.808 17.0762 173.144 17.5162 173.344 18.0842C173.544 18.6442 173.616 19.3122 173.56 20.0882H168.52V19.0682H172.156ZM174.985 13.8482H176.545V22.7522H174.985V13.8482ZM178.606 13.8482H180.166V22.7522H178.606V13.8482Z" fill="black"/>
<path d="M61.688 31.648H62.76V37.248H61.688V31.648ZM67.2053 34.864C67.2053 34.5547 67.12 34.312 66.9493 34.136C66.784 33.96 66.552 33.872 66.2533 33.872C65.9066 33.872 65.632 33.9947 65.4293 34.24C65.232 34.48 65.1333 34.784 65.1333 35.152H64.8533C64.8533 34.6294 64.9253 34.208 65.0693 33.888C65.2186 33.5627 65.4293 33.3254 65.7013 33.176C65.9786 33.0214 66.3013 32.944 66.6693 32.944C67 32.944 67.2826 33.0107 67.5173 33.144C67.752 33.2774 67.9333 33.4667 68.0613 33.712C68.1893 33.952 68.2533 34.2427 68.2533 34.584V37.248H67.2053V34.864ZM64.0933 32.984H65.1333V37.248H64.0933V32.984ZM72.3654 34.28C72.2321 34.1307 72.0694 34.016 71.8774 33.936C71.6908 33.8507 71.4801 33.808 71.2454 33.808C71.0161 33.808 70.8134 33.864 70.6374 33.976C70.4614 34.0827 70.3228 34.2347 70.2214 34.432C70.1254 34.6294 70.0774 34.8587 70.0774 35.12C70.0774 35.3814 70.1254 35.6107 70.2214 35.808C70.3228 36.0054 70.4614 36.16 70.6374 36.272C70.8134 36.384 71.0161 36.44 71.2454 36.44C71.4908 36.44 71.7121 36.3974 71.9094 36.312C72.1068 36.2267 72.2694 36.0987 72.3974 35.928L73.0454 36.456C72.8588 36.7174 72.6081 36.9227 72.2934 37.072C71.9788 37.216 71.6134 37.288 71.1974 37.288C70.7708 37.288 70.3948 37.1974 70.0694 37.016C69.7441 36.8294 69.4881 36.576 69.3014 36.256C69.1201 35.9307 69.0294 35.552 69.0294 35.12C69.0294 34.688 69.1201 34.3094 69.3014 33.984C69.4881 33.6587 69.7441 33.4054 70.0694 33.224C70.3948 33.0374 70.7708 32.944 71.1974 32.944C71.5974 32.944 71.9494 33.0107 72.2534 33.144C72.5574 33.272 72.8081 33.4534 73.0054 33.688L72.3654 34.28ZM76.4331 33.888C76.1344 33.8667 75.8757 33.912 75.6571 34.024C75.4384 34.1307 75.2704 34.2854 75.1531 34.488C75.0357 34.6907 74.9771 34.9227 74.9771 35.184L74.6971 35.152C74.6971 34.6774 74.7664 34.2774 74.9051 33.952C75.0437 33.6214 75.2437 33.3707 75.5051 33.2C75.7664 33.0294 76.0757 32.944 76.4331 32.944V33.888ZM73.9371 32.984H74.9771V37.248H73.9371V32.984ZM80.0516 34.792C80.041 34.568 79.9903 34.3787 79.8996 34.224C79.809 34.064 79.681 33.9414 79.5156 33.856C79.3556 33.7654 79.1716 33.72 78.9636 33.72C78.7236 33.72 78.5156 33.776 78.3396 33.888C78.1636 34 78.025 34.1574 77.9236 34.36C77.8276 34.5627 77.7796 34.7974 77.7796 35.064C77.7796 35.3574 77.833 35.6107 77.9396 35.824C78.0516 36.0374 78.2036 36.2027 78.3956 36.32C78.5876 36.432 78.809 36.488 79.0596 36.488C79.513 36.488 79.8996 36.3254 80.2196 36L80.7716 36.552C80.5583 36.7867 80.2996 36.968 79.9956 37.096C79.6916 37.224 79.353 37.288 78.9796 37.288C78.5316 37.288 78.1423 37.1974 77.8116 37.016C77.4863 36.8294 77.2303 36.576 77.0436 36.256C76.8623 35.9307 76.7716 35.552 76.7716 35.12C76.7716 34.688 76.8623 34.3094 77.0436 33.984C77.2303 33.6587 77.4863 33.4054 77.8116 33.224C78.1423 33.0427 78.521 32.9494 78.9476 32.944C79.4543 32.944 79.8623 33.048 80.1716 33.256C80.4863 33.464 80.7103 33.7574 80.8436 34.136C80.977 34.5094 81.025 34.9547 80.9876 35.472H77.6276V34.792H80.0516ZM83.338 35.368C83.066 35.368 82.8633 35.4107 82.73 35.496C82.5967 35.5814 82.53 35.7227 82.53 35.92C82.53 36.1014 82.5967 36.248 82.73 36.36C82.8687 36.472 83.0553 36.528 83.29 36.528C83.498 36.528 83.6847 36.4934 83.85 36.424C84.0207 36.3494 84.154 36.2507 84.25 36.128C84.3513 36 84.41 35.8587 84.426 35.704L84.602 36.448C84.474 36.7254 84.2767 36.936 84.01 37.08C83.7433 37.224 83.4207 37.296 83.042 37.296C82.738 37.296 82.474 37.2374 82.25 37.12C82.026 37.0027 81.8527 36.8454 81.73 36.648C81.6073 36.4454 81.546 36.2187 81.546 35.968C81.546 35.5734 81.6873 35.264 81.97 35.04C82.2527 34.8107 82.6527 34.6934 83.17 34.688H84.538V35.368H83.338ZM84.418 34.56C84.418 34.304 84.3353 34.104 84.17 33.96C84.01 33.8107 83.77 33.736 83.45 33.736C83.2527 33.736 83.0447 33.7734 82.826 33.848C82.6127 33.9174 82.3967 34.0187 82.178 34.152L81.802 33.48C82.0047 33.3574 82.1993 33.2587 82.386 33.184C82.5727 33.104 82.7673 33.0454 82.97 33.008C83.178 32.9654 83.4153 32.944 83.682 32.944C84.242 32.944 84.674 33.0774 84.978 33.344C85.282 33.6107 85.4367 33.9787 85.442 34.448L85.45 37.248H84.426L84.418 34.56ZM89.1528 34.096C88.9448 33.9734 88.7288 33.88 88.5048 33.816C88.2808 33.7467 88.0781 33.712 87.8968 33.712C87.7261 33.712 87.5874 33.744 87.4808 33.808C87.3741 33.8667 87.3208 33.968 87.3208 34.112C87.3208 34.2347 87.3741 34.3334 87.4808 34.408C87.5928 34.4827 87.7341 34.5467 87.9048 34.6C88.0754 34.648 88.2568 34.7014 88.4488 34.76C88.6408 34.8187 88.8221 34.896 88.9928 34.992C89.1688 35.088 89.3101 35.216 89.4168 35.376C89.5288 35.536 89.5848 35.7467 89.5848 36.008C89.5848 36.296 89.5074 36.536 89.3528 36.728C89.1981 36.9147 88.9928 37.056 88.7368 37.152C88.4808 37.2427 88.2008 37.288 87.8968 37.288C87.5768 37.288 87.2568 37.2374 86.9368 37.136C86.6221 37.0347 86.3528 36.8854 86.1288 36.688L86.4888 35.992C86.6861 36.1627 86.9181 36.296 87.1848 36.392C87.4568 36.4827 87.7074 36.528 87.9368 36.528C88.0594 36.528 88.1688 36.512 88.2648 36.48C88.3608 36.448 88.4354 36.4027 88.4888 36.344C88.5421 36.28 88.5688 36.1974 88.5688 36.096C88.5688 35.9574 88.5154 35.8507 88.4088 35.776C88.3021 35.696 88.1634 35.6294 87.9928 35.576C87.8274 35.5174 87.6488 35.4614 87.4568 35.408C87.2648 35.3494 87.0834 35.2747 86.9128 35.184C86.7474 35.088 86.6114 34.9627 86.5048 34.808C86.3981 34.6534 86.3448 34.448 86.3448 34.192C86.3448 33.904 86.4194 33.6667 86.5688 33.48C86.7181 33.2934 86.9154 33.1574 87.1608 33.072C87.4061 32.9814 87.6728 32.936 87.9608 32.936C88.2381 32.936 88.5154 32.976 88.7928 33.056C89.0701 33.1307 89.3154 33.2374 89.5288 33.376L89.1528 34.096ZM93.3641 34.792C93.3535 34.568 93.3028 34.3787 93.2121 34.224C93.1215 34.064 92.9935 33.9414 92.8281 33.856C92.6681 33.7654 92.4841 33.72 92.2761 33.72C92.0361 33.72 91.8281 33.776 91.6521 33.888C91.4761 34 91.3375 34.1574 91.2361 34.36C91.1401 34.5627 91.0921 34.7974 91.0921 35.064C91.0921 35.3574 91.1455 35.6107 91.2521 35.824C91.3641 36.0374 91.5161 36.2027 91.7081 36.32C91.9001 36.432 92.1215 36.488 92.3721 36.488C92.8255 36.488 93.2121 36.3254 93.5321 36L94.0841 36.552C93.8708 36.7867 93.6121 36.968 93.3081 37.096C93.0041 37.224 92.6655 37.288 92.2921 37.288C91.8441 37.288 91.4548 37.1974 91.1241 37.016C90.7988 36.8294 90.5428 36.576 90.3561 36.256C90.1748 35.9307 90.0841 35.552 90.0841 35.12C90.0841 34.688 90.1748 34.3094 90.3561 33.984C90.5428 33.6587 90.7988 33.4054 91.1241 33.224C91.4548 33.0427 91.8335 32.9494 92.2601 32.944C92.7668 32.944 93.1748 33.048 93.4841 33.256C93.7988 33.464 94.0228 33.7574 94.1561 34.136C94.2895 34.5094 94.3375 34.9547 94.3001 35.472H90.9401V34.792H93.3641ZM99.8628 33.888C99.5641 33.8667 99.3054 33.912 99.0868 34.024C98.8681 34.1307 98.7001 34.2854 98.5828 34.488C98.4654 34.6907 98.4068 34.9227 98.4068 35.184L98.1268 35.152C98.1268 34.6774 98.1961 34.2774 98.3348 33.952C98.4734 33.6214 98.6734 33.3707 98.9348 33.2C99.1961 33.0294 99.5054 32.944 99.8628 32.944V33.888ZM97.3668 32.984H98.4068V37.248H97.3668V32.984ZM103.481 34.792C103.471 34.568 103.42 34.3787 103.329 34.224C103.239 34.064 103.111 33.9414 102.945 33.856C102.785 33.7654 102.601 33.72 102.393 33.72C102.153 33.72 101.945 33.776 101.769 33.888C101.593 34 101.455 34.1574 101.353 34.36C101.257 34.5627 101.209 34.7974 101.209 35.064C101.209 35.3574 101.263 35.6107 101.369 35.824C101.481 36.0374 101.633 36.2027 101.825 36.32C102.017 36.432 102.239 36.488 102.489 36.488C102.943 36.488 103.329 36.3254 103.649 36L104.201 36.552C103.988 36.7867 103.729 36.968 103.425 37.096C103.121 37.224 102.783 37.288 102.409 37.288C101.961 37.288 101.572 37.1974 101.241 37.016C100.916 36.8294 100.66 36.576 100.473 36.256C100.292 35.9307 100.201 35.552 100.201 35.12C100.201 34.688 100.292 34.3094 100.473 33.984C100.66 33.6587 100.916 33.4054 101.241 33.224C101.572 33.0427 101.951 32.9494 102.377 32.944C102.884 32.944 103.292 33.048 103.601 33.256C103.916 33.464 104.14 33.7574 104.273 34.136C104.407 34.5094 104.455 34.9547 104.417 35.472H101.057V34.792H103.481ZM104.523 32.984H105.611L106.731 36.288L107.827 32.984H108.875L107.243 37.248H106.171L104.523 32.984ZM112.216 34.792C112.205 34.568 112.154 34.3787 112.064 34.224C111.973 34.064 111.845 33.9414 111.68 33.856C111.52 33.7654 111.336 33.72 111.128 33.72C110.888 33.72 110.68 33.776 110.504 33.888C110.328 34 110.189 34.1574 110.088 34.36C109.992 34.5627 109.944 34.7974 109.944 35.064C109.944 35.3574 109.997 35.6107 110.104 35.824C110.216 36.0374 110.368 36.2027 110.56 36.32C110.752 36.432 110.973 36.488 111.224 36.488C111.677 36.488 112.064 36.3254 112.384 36L112.936 36.552C112.722 36.7867 112.464 36.968 112.16 37.096C111.856 37.224 111.517 37.288 111.144 37.288C110.696 37.288 110.306 37.1974 109.976 37.016C109.65 36.8294 109.394 36.576 109.208 36.256C109.026 35.9307 108.936 35.552 108.936 35.12C108.936 34.688 109.026 34.3094 109.208 33.984C109.394 33.6587 109.65 33.4054 109.976 33.224C110.306 33.0427 110.685 32.9494 111.112 32.944C111.618 32.944 112.026 33.048 112.336 33.256C112.65 33.464 112.874 33.7574 113.008 34.136C113.141 34.5094 113.189 34.9547 113.152 35.472H109.792V34.792H112.216ZM117.174 34.864C117.174 34.5547 117.089 34.312 116.918 34.136C116.753 33.96 116.521 33.872 116.222 33.872C115.875 33.872 115.601 33.9947 115.398 34.24C115.201 34.48 115.102 34.784 115.102 35.152H114.822C114.822 34.6294 114.894 34.208 115.038 33.888C115.187 33.5627 115.398 33.3254 115.67 33.176C115.947 33.0214 116.27 32.944 116.638 32.944C116.969 32.944 117.251 33.0107 117.486 33.144C117.721 33.2774 117.902 33.4667 118.03 33.712C118.158 33.952 118.222 34.2427 118.222 34.584V37.248H117.174V34.864ZM114.062 32.984H115.102V37.248H114.062V32.984ZM120.302 35.36C120.302 35.6694 120.382 35.9147 120.542 36.096C120.708 36.272 120.934 36.36 121.222 36.36C121.558 36.3494 121.82 36.224 122.006 35.984C122.198 35.744 122.294 35.4427 122.294 35.08H122.566C122.566 35.5974 122.494 36.0187 122.35 36.344C122.206 36.664 122.004 36.9014 121.742 37.056C121.481 37.2054 121.169 37.2827 120.806 37.288C120.486 37.288 120.209 37.2214 119.974 37.088C119.745 36.9547 119.566 36.7654 119.438 36.52C119.316 36.2694 119.254 35.976 119.254 35.64V32.984H120.302V35.36ZM122.294 32.984H123.342V37.248H122.294V32.984ZM127.528 34.792C127.518 34.568 127.467 34.3787 127.376 34.224C127.286 34.064 127.158 33.9414 126.992 33.856C126.832 33.7654 126.648 33.72 126.44 33.72C126.2 33.72 125.992 33.776 125.816 33.888C125.64 34 125.502 34.1574 125.4 34.36C125.304 34.5627 125.256 34.7974 125.256 35.064C125.256 35.3574 125.31 35.6107 125.416 35.824C125.528 36.0374 125.68 36.2027 125.872 36.32C126.064 36.432 126.286 36.488 126.536 36.488C126.99 36.488 127.376 36.3254 127.696 36L128.248 36.552C128.035 36.7867 127.776 36.968 127.472 37.096C127.168 37.224 126.83 37.288 126.456 37.288C126.008 37.288 125.619 37.1974 125.288 37.016C124.963 36.8294 124.707 36.576 124.52 36.256C124.339 35.9307 124.248 35.552 124.248 35.12C124.248 34.688 124.339 34.3094 124.52 33.984C124.707 33.6587 124.963 33.4054 125.288 33.224C125.619 33.0427 125.998 32.9494 126.424 32.944C126.931 32.944 127.339 33.048 127.648 33.256C127.963 33.464 128.187 33.7574 128.32 34.136C128.454 34.5094 128.502 34.9547 128.464 35.472H125.104V34.792H127.528ZM134.051 32.944C134.456 32.944 134.811 33.0347 135.115 33.216C135.419 33.3974 135.653 33.6534 135.819 33.984C135.989 34.3094 136.075 34.6907 136.075 35.128C136.075 35.5547 135.992 35.9307 135.827 36.256C135.661 36.576 135.427 36.8294 135.123 37.016C134.824 37.1974 134.472 37.288 134.067 37.288C133.688 37.288 133.363 37.2027 133.091 37.032C132.819 36.856 132.611 36.6054 132.467 36.28C132.323 35.9547 132.251 35.5707 132.251 35.128C132.251 34.6694 132.32 34.2774 132.459 33.952C132.603 33.6267 132.811 33.3787 133.083 33.208C133.355 33.032 133.677 32.944 134.051 32.944ZM133.819 33.768C133.584 33.768 133.373 33.8267 133.187 33.944C133.005 34.056 132.864 34.2134 132.763 34.416C132.661 34.6134 132.611 34.8427 132.611 35.104C132.611 35.3654 132.661 35.5974 132.763 35.8C132.864 36.0027 133.005 36.16 133.187 36.272C133.373 36.384 133.584 36.44 133.819 36.44C134.059 36.44 134.267 36.384 134.443 36.272C134.624 36.1547 134.765 35.9974 134.867 35.8C134.968 35.5974 135.019 35.3654 135.019 35.104C135.019 34.8427 134.968 34.6134 134.867 34.416C134.765 34.2134 134.624 34.056 134.443 33.944C134.267 33.8267 134.059 33.768 133.819 33.768ZM131.571 31.312H132.611V37.248H131.571V31.312ZM138.66 37.808C138.521 38.1494 138.329 38.408 138.084 38.584C137.838 38.76 137.545 38.848 137.204 38.848C136.996 38.848 136.806 38.816 136.636 38.752C136.47 38.688 136.305 38.5947 136.14 38.472L136.588 37.72C136.78 37.864 136.964 37.936 137.14 37.936C137.278 37.936 137.398 37.8987 137.5 37.824C137.606 37.7494 137.694 37.6347 137.764 37.48L137.892 37.184L136.124 32.984H137.204L138.42 36.152L139.532 32.984H140.58L138.66 37.808ZM145.208 32.944C145.65 32.944 146.04 33.0347 146.376 33.216C146.717 33.3974 146.981 33.6507 147.168 33.976C147.36 34.3014 147.456 34.68 147.456 35.112C147.456 35.544 147.36 35.9227 147.168 36.248C146.981 36.5734 146.717 36.8294 146.376 37.016C146.04 37.1974 145.65 37.288 145.208 37.288C144.76 37.288 144.365 37.1974 144.024 37.016C143.682 36.8294 143.416 36.5734 143.224 36.248C143.037 35.9227 142.944 35.544 142.944 35.112C142.944 34.68 143.037 34.3014 143.224 33.976C143.416 33.6507 143.682 33.3974 144.024 33.216C144.365 33.0347 144.76 32.944 145.208 32.944ZM145.208 33.784C144.968 33.784 144.754 33.8427 144.568 33.96C144.386 34.072 144.245 34.2294 144.144 34.432C144.042 34.6294 143.992 34.8587 143.992 35.12C143.992 35.3867 144.042 35.6214 144.144 35.824C144.245 36.0267 144.386 36.184 144.568 36.296C144.754 36.408 144.968 36.464 145.208 36.464C145.442 36.464 145.65 36.408 145.832 36.296C146.013 36.184 146.154 36.0267 146.256 35.824C146.357 35.6214 146.408 35.3867 146.408 35.12C146.408 34.8587 146.357 34.6294 146.256 34.432C146.154 34.2294 146.013 34.072 145.832 33.96C145.65 33.8427 145.442 33.784 145.208 33.784ZM148.504 32.736C148.504 32.4054 148.576 32.1307 148.72 31.912C148.864 31.6934 149.051 31.5307 149.28 31.424C149.509 31.3174 149.757 31.264 150.024 31.264C150.157 31.264 150.291 31.2827 150.424 31.32C150.563 31.352 150.691 31.3974 150.808 31.456L150.624 32.248C150.544 32.216 150.459 32.1867 150.368 32.16C150.277 32.1334 150.187 32.12 150.096 32.12C150 32.1147 149.909 32.1334 149.824 32.176C149.739 32.2134 149.669 32.2747 149.616 32.36C149.568 32.44 149.544 32.5467 149.544 32.68V37.248H148.504V32.736ZM147.944 33.144H150.616V33.872H147.944V33.144ZM151.464 32.736C151.464 32.4054 151.536 32.1307 151.68 31.912C151.824 31.6934 152.011 31.5307 152.24 31.424C152.469 31.3174 152.717 31.264 152.984 31.264C153.117 31.264 153.251 31.2827 153.384 31.32C153.523 31.352 153.651 31.3974 153.768 31.456L153.584 32.248C153.504 32.216 153.419 32.1867 153.328 32.16C153.237 32.1334 153.147 32.12 153.056 32.12C152.96 32.1147 152.869 32.1334 152.784 32.176C152.699 32.2134 152.629 32.2747 152.576 32.36C152.528 32.44 152.504 32.5467 152.504 32.68V37.248H151.464V32.736ZM150.904 33.144H153.576V33.872H150.904V33.144ZM157.005 34.792C156.994 34.568 156.943 34.3787 156.853 34.224C156.762 34.064 156.634 33.9414 156.469 33.856C156.309 33.7654 156.125 33.72 155.917 33.72C155.677 33.72 155.469 33.776 155.293 33.888C155.117 34 154.978 34.1574 154.877 34.36C154.781 34.5627 154.733 34.7974 154.733 35.064C154.733 35.3574 154.786 35.6107 154.893 35.824C155.005 36.0374 155.157 36.2027 155.349 36.32C155.541 36.432 155.762 36.488 156.013 36.488C156.466 36.488 156.853 36.3254 157.173 36L157.725 36.552C157.511 36.7867 157.253 36.968 156.949 37.096C156.645 37.224 156.306 37.288 155.933 37.288C155.485 37.288 155.095 37.1974 154.765 37.016C154.439 36.8294 154.183 36.576 153.997 36.256C153.815 35.9307 153.725 35.552 153.725 35.12C153.725 34.688 153.815 34.3094 153.997 33.984C154.183 33.6587 154.439 33.4054 154.765 33.224C155.095 33.0427 155.474 32.9494 155.901 32.944C156.407 32.944 156.815 33.048 157.125 33.256C157.439 33.464 157.663 33.7574 157.797 34.136C157.93 34.5094 157.978 34.9547 157.941 35.472H154.581V34.792H157.005ZM161.347 33.888C161.048 33.8667 160.79 33.912 160.571 34.024C160.352 34.1307 160.184 34.2854 160.067 34.488C159.95 34.6907 159.891 34.9227 159.891 35.184L159.611 35.152C159.611 34.6774 159.68 34.2774 159.819 33.952C159.958 33.6214 160.158 33.3707 160.419 33.2C160.68 33.0294 160.99 32.944 161.347 32.944V33.888ZM158.851 32.984H159.891V37.248H158.851V32.984ZM162.078 32.984H163.118V37.248H162.078V32.984ZM162.59 31.168C162.76 31.168 162.902 31.224 163.014 31.336C163.126 31.448 163.182 31.5894 163.182 31.76C163.182 31.9254 163.126 32.0667 163.014 32.184C162.902 32.296 162.76 32.352 162.59 32.352C162.424 32.352 162.286 32.296 162.174 32.184C162.062 32.0667 162.006 31.9254 162.006 31.76C162.006 31.5894 162.062 31.448 162.174 31.336C162.286 31.224 162.424 31.168 162.59 31.168ZM167.518 34.864C167.518 34.5547 167.432 34.312 167.262 34.136C167.096 33.96 166.864 33.872 166.566 33.872C166.219 33.872 165.944 33.9947 165.742 34.24C165.544 34.48 165.446 34.784 165.446 35.152H165.166C165.166 34.6294 165.238 34.208 165.382 33.888C165.531 33.5627 165.742 33.3254 166.014 33.176C166.291 33.0214 166.614 32.944 166.982 32.944C167.312 32.944 167.595 33.0107 167.83 33.144C168.064 33.2774 168.246 33.4667 168.374 33.712C168.502 33.952 168.566 34.2427 168.566 34.584V37.248H167.518V34.864ZM164.406 32.984H165.446V37.248H164.406V32.984ZM173.646 36.832C173.646 37.2427 173.553 37.5974 173.366 37.896C173.185 38.1947 172.926 38.424 172.59 38.584C172.254 38.7494 171.859 38.832 171.406 38.832C171.059 38.832 170.734 38.7814 170.43 38.68C170.131 38.5787 169.854 38.4427 169.598 38.272L170.014 37.56C170.211 37.704 170.419 37.816 170.638 37.896C170.857 37.976 171.094 38.016 171.35 38.016C171.606 38.016 171.827 37.968 172.014 37.872C172.206 37.776 172.353 37.6427 172.454 37.472C172.555 37.3014 172.606 37.0987 172.606 36.864V32.984H173.646V36.832ZM171.214 32.944C171.582 32.9387 171.897 33.0187 172.158 33.184C172.419 33.3494 172.619 33.584 172.758 33.888C172.897 34.192 172.963 34.5574 172.958 34.984C172.963 35.4107 172.897 35.7787 172.758 36.088C172.625 36.392 172.43 36.6267 172.174 36.792C171.918 36.9574 171.609 37.04 171.246 37.04C170.867 37.04 170.534 36.9547 170.246 36.784C169.963 36.608 169.742 36.3654 169.582 36.056C169.422 35.7414 169.342 35.3814 169.342 34.976C169.342 34.5707 169.419 34.2187 169.574 33.92C169.734 33.616 169.955 33.3787 170.238 33.208C170.521 33.032 170.846 32.944 171.214 32.944ZM171.47 33.736C171.251 33.736 171.054 33.7894 170.878 33.896C170.707 34.0027 170.574 34.152 170.478 34.344C170.382 34.536 170.331 34.7547 170.326 35C170.331 35.2454 170.382 35.464 170.478 35.656C170.574 35.848 170.707 35.9974 170.878 36.104C171.049 36.2107 171.246 36.264 171.47 36.264C171.694 36.264 171.891 36.2107 172.062 36.104C172.233 35.9974 172.366 35.848 172.462 35.656C172.558 35.464 172.606 35.2454 172.606 35C172.606 34.7494 172.558 34.5307 172.462 34.344C172.366 34.152 172.233 34.0027 172.062 33.896C171.891 33.7894 171.694 33.736 171.47 33.736ZM178.231 35.856C178.231 36.0694 178.271 36.216 178.351 36.296C178.431 36.376 178.54 36.416 178.679 36.416C178.764 36.416 178.858 36.4027 178.959 36.376C179.06 36.344 179.17 36.296 179.287 36.232L179.527 36.984C179.367 37.08 179.194 37.1574 179.007 37.216C178.826 37.2694 178.642 37.296 178.455 37.296C178.226 37.296 178.015 37.2534 177.823 37.168C177.631 37.0774 177.479 36.9387 177.367 36.752C177.255 36.56 177.199 36.32 177.199 36.032V31.976H178.231V35.856ZM176.599 33.144H179.455V33.872H176.599V33.144ZM183.503 34.864C183.503 34.5547 183.418 34.312 183.247 34.136C183.082 33.96 182.85 33.872 182.551 33.872C182.199 33.872 181.922 33.9947 181.719 34.24C181.522 34.48 181.423 34.784 181.423 35.152H181.151C181.151 34.6294 181.223 34.208 181.367 33.888C181.517 33.5627 181.727 33.3254 181.999 33.176C182.271 33.0214 182.594 32.944 182.967 32.944C183.293 32.944 183.573 33.0107 183.807 33.144C184.047 33.2774 184.231 33.4667 184.359 33.712C184.487 33.952 184.551 34.2427 184.551 34.584V37.248H183.503V34.864ZM180.383 31.312H181.423V37.248H180.383V31.312ZM188.606 34.792C188.596 34.568 188.545 34.3787 188.454 34.224C188.364 34.064 188.236 33.9414 188.07 33.856C187.91 33.7654 187.726 33.72 187.518 33.72C187.278 33.72 187.07 33.776 186.894 33.888C186.718 34 186.58 34.1574 186.478 34.36C186.382 34.5627 186.334 34.7974 186.334 35.064C186.334 35.3574 186.388 35.6107 186.494 35.824C186.606 36.0374 186.758 36.2027 186.95 36.32C187.142 36.432 187.364 36.488 187.614 36.488C188.068 36.488 188.454 36.3254 188.774 36L189.326 36.552C189.113 36.7867 188.854 36.968 188.55 37.096C188.246 37.224 187.908 37.288 187.534 37.288C187.086 37.288 186.697 37.1974 186.366 37.016C186.041 36.8294 185.785 36.576 185.598 36.256C185.417 35.9307 185.326 35.552 185.326 35.12C185.326 34.688 185.417 34.3094 185.598 33.984C185.785 33.6587 186.041 33.4054 186.366 33.224C186.697 33.0427 187.076 32.9494 187.502 32.944C188.009 32.944 188.417 33.048 188.726 33.256C189.041 33.464 189.265 33.7574 189.398 34.136C189.532 34.5094 189.58 34.9547 189.542 35.472H186.182V34.792H188.606ZM195.105 33.888C194.806 33.8667 194.548 33.912 194.329 34.024C194.11 34.1307 193.942 34.2854 193.825 34.488C193.708 34.6907 193.649 34.9227 193.649 35.184L193.369 35.152C193.369 34.6774 193.438 34.2774 193.577 33.952C193.716 33.6214 193.916 33.3707 194.177 33.2C194.438 33.0294 194.748 32.944 195.105 32.944V33.888ZM192.609 32.984H193.649V37.248H192.609V32.984ZM195.836 32.984H196.876V37.248H195.836V32.984ZM196.348 31.168C196.518 31.168 196.66 31.224 196.772 31.336C196.884 31.448 196.94 31.5894 196.94 31.76C196.94 31.9254 196.884 32.0667 196.772 32.184C196.66 32.296 196.518 32.352 196.348 32.352C196.182 32.352 196.044 32.296 195.932 32.184C195.82 32.0667 195.764 31.9254 195.764 31.76C195.764 31.5894 195.82 31.448 195.932 31.336C196.044 31.224 196.182 31.168 196.348 31.168ZM202.076 36.832C202.076 37.2427 201.982 37.5974 201.796 37.896C201.614 38.1947 201.356 38.424 201.02 38.584C200.684 38.7494 200.289 38.832 199.836 38.832C199.489 38.832 199.164 38.7814 198.86 38.68C198.561 38.5787 198.284 38.4427 198.028 38.272L198.444 37.56C198.641 37.704 198.849 37.816 199.068 37.896C199.286 37.976 199.524 38.016 199.78 38.016C200.036 38.016 200.257 37.968 200.444 37.872C200.636 37.776 200.782 37.6427 200.884 37.472C200.985 37.3014 201.036 37.0987 201.036 36.864V32.984H202.076V36.832ZM199.644 32.944C200.012 32.9387 200.326 33.0187 200.588 33.184C200.849 33.3494 201.049 33.584 201.188 33.888C201.326 34.192 201.393 34.5574 201.388 34.984C201.393 35.4107 201.326 35.7787 201.188 36.088C201.054 36.392 200.86 36.6267 200.604 36.792C200.348 36.9574 200.038 37.04 199.676 37.04C199.297 37.04 198.964 36.9547 198.676 36.784C198.393 36.608 198.172 36.3654 198.012 36.056C197.852 35.7414 197.772 35.3814 197.772 34.976C197.772 34.5707 197.849 34.2187 198.004 33.92C198.164 33.616 198.385 33.3787 198.668 33.208C198.95 33.032 199.276 32.944 199.644 32.944ZM199.9 33.736C199.681 33.736 199.484 33.7894 199.308 33.896C199.137 34.0027 199.004 34.152 198.908 34.344C198.812 34.536 198.761 34.7547 198.756 35C198.761 35.2454 198.812 35.464 198.908 35.656C199.004 35.848 199.137 35.9974 199.308 36.104C199.478 36.2107 199.676 36.264 199.9 36.264C200.124 36.264 200.321 36.2107 200.492 36.104C200.662 35.9974 200.796 35.848 200.892 35.656C200.988 35.464 201.036 35.2454 201.036 35C201.036 34.7494 200.988 34.5307 200.892 34.344C200.796 34.152 200.662 34.0027 200.492 33.896C200.321 33.7894 200.124 33.736 199.9 33.736ZM206.456 34.864C206.456 34.5547 206.371 34.312 206.2 34.136C206.035 33.96 205.803 33.872 205.504 33.872C205.152 33.872 204.875 33.9947 204.672 34.24C204.475 34.48 204.376 34.784 204.376 35.152H204.104C204.104 34.6294 204.176 34.208 204.32 33.888C204.47 33.5627 204.68 33.3254 204.952 33.176C205.224 33.0214 205.547 32.944 205.92 32.944C206.246 32.944 206.526 33.0107 206.76 33.144C207 33.2774 207.184 33.4667 207.312 33.712C207.44 33.952 207.504 34.2427 207.504 34.584V37.248H206.456V34.864ZM203.336 31.312H204.376V37.248H203.336V31.312ZM209.879 35.856C209.879 36.0694 209.919 36.216 209.999 36.296C210.079 36.376 210.189 36.416 210.327 36.416C210.413 36.416 210.506 36.4027 210.607 36.376C210.709 36.344 210.818 36.296 210.935 36.232L211.175 36.984C211.015 37.08 210.842 37.1574 210.655 37.216C210.474 37.2694 210.29 37.296 210.103 37.296C209.874 37.296 209.663 37.2534 209.471 37.168C209.279 37.0774 209.127 36.9387 209.015 36.752C208.903 36.56 208.847 36.32 208.847 36.032V31.976H209.879V35.856ZM208.247 33.144H211.103V33.872H208.247V33.144ZM64.168 42.944C64.5733 42.944 64.928 43.0347 65.232 43.216C65.536 43.3974 65.7707 43.6534 65.936 43.984C66.1067 44.3094 66.192 44.6907 66.192 45.128C66.192 45.5547 66.1093 45.9307 65.944 46.256C65.7787 46.576 65.544 46.8294 65.24 47.016C64.9413 47.1974 64.5893 47.288 64.184 47.288C63.8053 47.288 63.48 47.2027 63.208 47.032C62.936 46.856 62.728 46.6054 62.584 46.28C62.44 45.9547 62.368 45.5707 62.368 45.128C62.368 44.6694 62.4373 44.2774 62.576 43.952C62.72 43.6267 62.928 43.3787 63.2 43.208C63.472 43.032 63.7947 42.944 64.168 42.944ZM63.936 43.768C63.7013 43.768 63.4907 43.8267 63.304 43.944C63.1227 44.056 62.9813 44.2134 62.88 44.416C62.7787 44.6134 62.728 44.8427 62.728 45.104C62.728 45.3654 62.7787 45.5974 62.88 45.8C62.9813 46.0027 63.1227 46.16 63.304 46.272C63.4907 46.384 63.7013 46.44 63.936 46.44C64.176 46.44 64.384 46.384 64.56 46.272C64.7413 46.1547 64.8827 45.9974 64.984 45.8C65.0853 45.5974 65.136 45.3654 65.136 45.104C65.136 44.8427 65.0853 44.6134 64.984 44.416C64.8827 44.2134 64.7413 44.056 64.56 43.944C64.384 43.8267 64.176 43.768 63.936 43.768ZM61.688 42.984H62.728V48.8H61.688V42.984ZM69.5893 43.888C69.2906 43.8667 69.032 43.912 68.8133 44.024C68.5946 44.1307 68.4266 44.2854 68.3093 44.488C68.192 44.6907 68.1333 44.9227 68.1333 45.184L67.8533 45.152C67.8533 44.6774 67.9226 44.2774 68.0613 43.952C68.2 43.6214 68.4 43.3707 68.6613 43.2C68.9226 43.0294 69.232 42.944 69.5893 42.944V43.888ZM67.0933 42.984H68.1333V47.248H67.0933V42.984ZM72.1919 42.944C72.6345 42.944 73.0239 43.0347 73.3599 43.216C73.7012 43.3974 73.9652 43.6507 74.1519 43.976C74.3439 44.3014 74.4399 44.68 74.4399 45.112C74.4399 45.544 74.3439 45.9227 74.1519 46.248C73.9652 46.5734 73.7012 46.8294 73.3599 47.016C73.0239 47.1974 72.6345 47.288 72.1919 47.288C71.7439 47.288 71.3492 47.1974 71.0079 47.016C70.6665 46.8294 70.3999 46.5734 70.2079 46.248C70.0212 45.9227 69.9279 45.544 69.9279 45.112C69.9279 44.68 70.0212 44.3014 70.2079 43.976C70.3999 43.6507 70.6665 43.3974 71.0079 43.216C71.3492 43.0347 71.7439 42.944 72.1919 42.944ZM72.1919 43.784C71.9519 43.784 71.7385 43.8427 71.5519 43.96C71.3705 44.072 71.2292 44.2294 71.1279 44.432C71.0265 44.6294 70.9759 44.8587 70.9759 45.12C70.9759 45.3867 71.0265 45.6214 71.1279 45.824C71.2292 46.0267 71.3705 46.184 71.5519 46.296C71.7385 46.408 71.9519 46.464 72.1919 46.464C72.4265 46.464 72.6345 46.408 72.8159 46.296C72.9972 46.184 73.1385 46.0267 73.2399 45.824C73.3412 45.6214 73.3919 45.3867 73.3919 45.12C73.3919 44.8587 73.3412 44.6294 73.2399 44.432C73.1385 44.2294 72.9972 44.072 72.8159 43.96C72.6345 43.8427 72.4265 43.784 72.1919 43.784ZM76.9673 42.936C77.3566 42.936 77.6873 43.024 77.9593 43.2C78.2313 43.376 78.4393 43.6267 78.5833 43.952C78.7273 44.272 78.7966 44.6587 78.7913 45.112C78.7966 45.56 78.7273 45.9494 78.5833 46.28C78.4446 46.6054 78.2393 46.856 77.9673 47.032C77.6953 47.2027 77.37 47.288 76.9913 47.288C76.586 47.288 76.2286 47.1974 75.9193 47.016C75.6153 46.8294 75.378 46.5707 75.2073 46.24C75.0366 45.9094 74.9513 45.5307 74.9513 45.104C74.9513 44.672 75.0366 44.2934 75.2073 43.968C75.378 43.6427 75.6126 43.3894 75.9113 43.208C76.2153 43.0267 76.5673 42.936 76.9673 42.936ZM77.2153 43.776C76.9806 43.776 76.77 43.8347 76.5833 43.952C76.402 44.0694 76.2606 44.2294 76.1593 44.432C76.058 44.6347 76.0046 44.8667 75.9993 45.128C76.0046 45.3894 76.058 45.6214 76.1593 45.824C76.2606 46.0267 76.402 46.1867 76.5833 46.304C76.77 46.416 76.9806 46.472 77.2153 46.472C77.4553 46.472 77.666 46.416 77.8473 46.304C78.034 46.1867 78.178 46.0267 78.2793 45.824C78.3806 45.6214 78.4313 45.3894 78.4313 45.128C78.4313 44.8614 78.3806 44.6294 78.2793 44.432C78.178 44.2294 78.034 44.0694 77.8473 43.952C77.666 43.8347 77.4553 43.776 77.2153 43.776ZM78.4313 41.312H79.4713V47.248H78.4313V41.312ZM81.7163 45.36C81.7163 45.6694 81.7963 45.9147 81.9563 46.096C82.1216 46.272 82.3483 46.36 82.6363 46.36C82.9723 46.3494 83.2336 46.224 83.4203 45.984C83.6123 45.744 83.7083 45.4427 83.7083 45.08H83.9803C83.9803 45.5974 83.9083 46.0187 83.7643 46.344C83.6203 46.664 83.4176 46.9014 83.1563 47.056C82.8949 47.2054 82.5829 47.2827 82.2203 47.288C81.9003 47.288 81.6229 47.2214 81.3883 47.088C81.1589 46.9547 80.9803 46.7654 80.8523 46.52C80.7296 46.2694 80.6683 45.976 80.6683 45.64V42.984H81.7163V45.36ZM83.7083 42.984H84.7563V47.248H83.7083V42.984ZM88.9983 44.28C88.8649 44.1307 88.7023 44.016 88.5103 43.936C88.3236 43.8507 88.1129 43.808 87.8783 43.808C87.6489 43.808 87.4463 43.864 87.2703 43.976C87.0943 44.0827 86.9556 44.2347 86.8543 44.432C86.7583 44.6294 86.7103 44.8587 86.7103 45.12C86.7103 45.3814 86.7583 45.6107 86.8543 45.808C86.9556 46.0054 87.0943 46.16 87.2703 46.272C87.4463 46.384 87.6489 46.44 87.8783 46.44C88.1236 46.44 88.3449 46.3974 88.5423 46.312C88.7396 46.2267 88.9023 46.0987 89.0303 45.928L89.6783 46.456C89.4916 46.7174 89.2409 46.9227 88.9263 47.072C88.6116 47.216 88.2463 47.288 87.8303 47.288C87.4036 47.288 87.0276 47.1974 86.7023 47.016C86.3769 46.8294 86.1209 46.576 85.9342 46.256C85.7529 45.9307 85.6623 45.552 85.6623 45.12C85.6623 44.688 85.7529 44.3094 85.9342 43.984C86.1209 43.6587 86.3769 43.4054 86.7023 43.224C87.0276 43.0374 87.4036 42.944 87.8303 42.944C88.2303 42.944 88.5823 43.0107 88.8863 43.144C89.1903 43.272 89.4409 43.4534 89.6383 43.688L88.9983 44.28ZM91.7779 45.856C91.7779 46.0694 91.8179 46.216 91.8979 46.296C91.9779 46.376 92.0872 46.416 92.2259 46.416C92.3112 46.416 92.4045 46.4027 92.5059 46.376C92.6072 46.344 92.7165 46.296 92.8339 46.232L93.0739 46.984C92.9139 47.08 92.7405 47.1574 92.5539 47.216C92.3725 47.2694 92.1885 47.296 92.0019 47.296C91.7725 47.296 91.5619 47.2534 91.3699 47.168C91.1779 47.0774 91.0259 46.9387 90.9139 46.752C90.8019 46.56 90.7459 46.32 90.7459 46.032V41.976H91.7779V45.856ZM90.1459 43.144H93.0019V43.872H90.1459V43.144ZM96.4262 44.096C96.2182 43.9734 96.0022 43.88 95.7782 43.816C95.5542 43.7467 95.3515 43.712 95.1702 43.712C94.9995 43.712 94.8609 43.744 94.7542 43.808C94.6475 43.8667 94.5942 43.968 94.5942 44.112C94.5942 44.2347 94.6475 44.3334 94.7542 44.408C94.8662 44.4827 95.0075 44.5467 95.1782 44.6C95.3489 44.648 95.5302 44.7014 95.7222 44.76C95.9142 44.8187 96.0955 44.896 96.2662 44.992C96.4422 45.088 96.5835 45.216 96.6902 45.376C96.8022 45.536 96.8582 45.7467 96.8582 46.008C96.8582 46.296 96.7809 46.536 96.6262 46.728C96.4715 46.9147 96.2662 47.056 96.0102 47.152C95.7542 47.2427 95.4742 47.288 95.1702 47.288C94.8502 47.288 94.5302 47.2374 94.2102 47.136C93.8955 47.0347 93.6262 46.8854 93.4022 46.688L93.7622 45.992C93.9595 46.1627 94.1915 46.296 94.4582 46.392C94.7302 46.4827 94.9809 46.528 95.2102 46.528C95.3329 46.528 95.4422 46.512 95.5382 46.48C95.6342 46.448 95.7089 46.4027 95.7622 46.344C95.8155 46.28 95.8422 46.1974 95.8422 46.096C95.8422 45.9574 95.7889 45.8507 95.6822 45.776C95.5755 45.696 95.4369 45.6294 95.2662 45.576C95.1009 45.5174 94.9222 45.4614 94.7302 45.408C94.5382 45.3494 94.3569 45.2747 94.1862 45.184C94.0209 45.088 93.8849 44.9627 93.7782 44.808C93.6715 44.6534 93.6182 44.448 93.6182 44.192C93.6182 43.904 93.6929 43.6667 93.8422 43.48C93.9915 43.2934 94.1889 43.1574 94.4342 43.072C94.6795 42.9814 94.9462 42.936 95.2342 42.936C95.5115 42.936 95.7889 42.976 96.0662 43.056C96.3435 43.1307 96.5889 43.2374 96.8022 43.376L96.4262 44.096ZM101.114 45.856C101.114 46.0694 101.154 46.216 101.234 46.296C101.314 46.376 101.423 46.416 101.562 46.416C101.647 46.416 101.74 46.4027 101.842 46.376C101.943 46.344 102.052 46.296 102.17 46.232L102.41 46.984C102.25 47.08 102.076 47.1574 101.89 47.216C101.708 47.2694 101.524 47.296 101.338 47.296C101.108 47.296 100.898 47.2534 100.706 47.168C100.514 47.0774 100.362 46.9387 100.25 46.752C100.138 46.56 100.082 46.32 100.082 46.032V41.976H101.114V45.856ZM99.4818 43.144H102.338V43.872H99.4818V43.144ZM105.059 42.944C105.502 42.944 105.891 43.0347 106.227 43.216C106.568 43.3974 106.832 43.6507 107.019 43.976C107.211 44.3014 107.307 44.68 107.307 45.112C107.307 45.544 107.211 45.9227 107.019 46.248C106.832 46.5734 106.568 46.8294 106.227 47.016C105.891 47.1974 105.502 47.288 105.059 47.288C104.611 47.288 104.216 47.1974 103.875 47.016C103.534 46.8294 103.267 46.5734 103.075 46.248C102.888 45.9227 102.795 45.544 102.795 45.112C102.795 44.68 102.888 44.3014 103.075 43.976C103.267 43.6507 103.534 43.3974 103.875 43.216C104.216 43.0347 104.611 42.944 105.059 42.944ZM105.059 43.784C104.819 43.784 104.606 43.8427 104.419 43.96C104.238 44.072 104.096 44.2294 103.995 44.432C103.894 44.6294 103.843 44.8587 103.843 45.12C103.843 45.3867 103.894 45.6214 103.995 45.824C104.096 46.0267 104.238 46.184 104.419 46.296C104.606 46.408 104.819 46.464 105.059 46.464C105.294 46.464 105.502 46.408 105.683 46.296C105.864 46.184 106.006 46.0267 106.107 45.824C106.208 45.6214 106.259 45.3867 106.259 45.12C106.259 44.8587 106.208 44.6294 106.107 44.432C106.006 44.2294 105.864 44.072 105.683 43.96C105.502 43.8427 105.294 43.784 105.059 43.784ZM111.575 45.856C111.575 46.0694 111.615 46.216 111.695 46.296C111.775 46.376 111.884 46.416 112.023 46.416C112.108 46.416 112.201 46.4027 112.303 46.376C112.404 46.344 112.513 46.296 112.631 46.232L112.871 46.984C112.711 47.08 112.537 47.1574 112.351 47.216C112.169 47.2694 111.985 47.296 111.799 47.296C111.569 47.296 111.359 47.2534 111.167 47.168C110.975 47.0774 110.823 46.9387 110.711 46.752C110.599 46.56 110.543 46.32 110.543 46.032V41.976H111.575V45.856ZM109.943 43.144H112.799V43.872H109.943V43.144ZM116.847 44.864C116.847 44.5547 116.762 44.312 116.591 44.136C116.426 43.96 116.194 43.872 115.895 43.872C115.543 43.872 115.266 43.9947 115.063 44.24C114.866 44.48 114.767 44.784 114.767 45.152H114.495C114.495 44.6294 114.567 44.208 114.711 43.888C114.86 43.5627 115.071 43.3254 115.343 43.176C115.615 43.0214 115.938 42.944 116.311 42.944C116.636 42.944 116.916 43.0107 117.151 43.144C117.391 43.2774 117.575 43.4667 117.703 43.712C117.831 43.952 117.895 44.2427 117.895 44.584V47.248H116.847V44.864ZM113.727 41.312H114.767V47.248H113.727V41.312ZM121.95 44.792C121.939 44.568 121.889 44.3787 121.798 44.224C121.707 44.064 121.579 43.9414 121.414 43.856C121.254 43.7654 121.07 43.72 120.862 43.72C120.622 43.72 120.414 43.776 120.238 43.888C120.062 44 119.923 44.1574 119.822 44.36C119.726 44.5627 119.678 44.7974 119.678 45.064C119.678 45.3574 119.731 45.6107 119.838 45.824C119.95 46.0374 120.102 46.2027 120.294 46.32C120.486 46.432 120.707 46.488 120.958 46.488C121.411 46.488 121.798 46.3254 122.118 46L122.67 46.552C122.457 46.7867 122.198 46.968 121.894 47.096C121.59 47.224 121.251 47.288 120.878 47.288C120.43 47.288 120.041 47.1974 119.71 47.016C119.385 46.8294 119.129 46.576 118.942 46.256C118.761 45.9307 118.67 45.552 118.67 45.12C118.67 44.688 118.761 44.3094 118.942 43.984C119.129 43.6587 119.385 43.4054 119.71 43.224C120.041 43.0427 120.419 42.9494 120.846 42.944C121.353 42.944 121.761 43.048 122.07 43.256C122.385 43.464 122.609 43.7574 122.742 44.136C122.875 44.5094 122.923 44.9547 122.886 45.472H119.526V44.792H121.95ZM128.449 43.888C128.15 43.8667 127.891 43.912 127.673 44.024C127.454 44.1307 127.286 44.2854 127.169 44.488C127.051 44.6907 126.993 44.9227 126.993 45.184L126.713 45.152C126.713 44.6774 126.782 44.2774 126.921 43.952C127.059 43.6214 127.259 43.3707 127.521 43.2C127.782 43.0294 128.091 42.944 128.449 42.944V43.888ZM125.953 42.984H126.993V47.248H125.953V42.984ZM129.179 42.984H130.219V47.248H129.179V42.984ZM129.691 41.168C129.862 41.168 130.003 41.224 130.115 41.336C130.227 41.448 130.283 41.5894 130.283 41.76C130.283 41.9254 130.227 42.0667 130.115 42.184C130.003 42.296 129.862 42.352 129.691 42.352C129.526 42.352 129.387 42.296 129.275 42.184C129.163 42.0667 129.107 41.9254 129.107 41.76C129.107 41.5894 129.163 41.448 129.275 41.336C129.387 41.224 129.526 41.168 129.691 41.168ZM135.419 46.832C135.419 47.2427 135.326 47.5974 135.139 47.896C134.958 48.1947 134.699 48.424 134.363 48.584C134.027 48.7494 133.633 48.832 133.179 48.832C132.833 48.832 132.507 48.7814 132.203 48.68C131.905 48.5787 131.627 48.4427 131.371 48.272L131.787 47.56C131.985 47.704 132.193 47.816 132.411 47.896C132.63 47.976 132.867 48.016 133.123 48.016C133.379 48.016 133.601 47.968 133.787 47.872C133.979 47.776 134.126 47.6427 134.227 47.472C134.329 47.3014 134.379 47.0987 134.379 46.864V42.984H135.419V46.832ZM132.987 42.944C133.355 42.9387 133.67 43.0187 133.931 43.184C134.193 43.3494 134.393 43.584 134.531 43.888C134.67 44.192 134.737 44.5574 134.731 44.984C134.737 45.4107 134.67 45.7787 134.531 46.088C134.398 46.392 134.203 46.6267 133.947 46.792C133.691 46.9574 133.382 47.04 133.019 47.04C132.641 47.04 132.307 46.9547 132.019 46.784C131.737 46.608 131.515 46.3654 131.355 46.056C131.195 45.7414 131.115 45.3814 131.115 44.976C131.115 44.5707 131.193 44.2187 131.347 43.92C131.507 43.616 131.729 43.3787 132.011 43.208C132.294 43.032 132.619 42.944 132.987 42.944ZM133.243 43.736C133.025 43.736 132.827 43.7894 132.651 43.896C132.481 44.0027 132.347 44.152 132.251 44.344C132.155 44.536 132.105 44.7547 132.099 45C132.105 45.2454 132.155 45.464 132.251 45.656C132.347 45.848 132.481 45.9974 132.651 46.104C132.822 46.2107 133.019 46.264 133.243 46.264C133.467 46.264 133.665 46.2107 133.835 46.104C134.006 45.9974 134.139 45.848 134.235 45.656C134.331 45.464 134.379 45.2454 134.379 45C134.379 44.7494 134.331 44.5307 134.235 44.344C134.139 44.152 134.006 44.0027 133.835 43.896C133.665 43.7894 133.467 43.736 133.243 43.736ZM139.8 44.864C139.8 44.5547 139.715 44.312 139.544 44.136C139.379 43.96 139.147 43.872 138.848 43.872C138.496 43.872 138.219 43.9947 138.016 44.24C137.819 44.48 137.72 44.784 137.72 45.152H137.448C137.448 44.6294 137.52 44.208 137.664 43.888C137.814 43.5627 138.024 43.3254 138.296 43.176C138.568 43.0214 138.891 42.944 139.264 42.944C139.59 42.944 139.87 43.0107 140.104 43.144C140.344 43.2774 140.528 43.4667 140.656 43.712C140.784 43.952 140.848 44.2427 140.848 44.584V47.248H139.8V44.864ZM136.68 41.312H137.72V47.248H136.68V41.312ZM143.223 45.856C143.223 46.0694 143.263 46.216 143.343 46.296C143.423 46.376 143.533 46.416 143.671 46.416C143.757 46.416 143.85 46.4027 143.951 46.376C144.053 46.344 144.162 46.296 144.279 46.232L144.519 46.984C144.359 47.08 144.186 47.1574 143.999 47.216C143.818 47.2694 143.634 47.296 143.447 47.296C143.218 47.296 143.007 47.2534 142.815 47.168C142.623 47.0774 142.471 46.9387 142.359 46.752C142.247 46.56 142.191 46.32 142.191 46.032V41.976H143.223V45.856ZM141.591 43.144H144.447V43.872H141.591V43.144ZM150.436 44.28C150.302 44.1307 150.14 44.016 149.948 43.936C149.761 43.8507 149.55 43.808 149.316 43.808C149.086 43.808 148.884 43.864 148.708 43.976C148.532 44.0827 148.393 44.2347 148.292 44.432C148.196 44.6294 148.148 44.8587 148.148 45.12C148.148 45.3814 148.196 45.6107 148.292 45.808C148.393 46.0054 148.532 46.16 148.708 46.272C148.884 46.384 149.086 46.44 149.316 46.44C149.561 46.44 149.782 46.3974 149.98 46.312C150.177 46.2267 150.34 46.0987 150.468 45.928L151.116 46.456C150.929 46.7174 150.678 46.9227 150.364 47.072C150.049 47.216 149.684 47.288 149.268 47.288C148.841 47.288 148.465 47.1974 148.14 47.016C147.814 46.8294 147.558 46.576 147.372 46.256C147.19 45.9307 147.1 45.552 147.1 45.12C147.1 44.688 147.19 44.3094 147.372 43.984C147.558 43.6587 147.814 43.4054 148.14 43.224C148.465 43.0374 148.841 42.944 149.268 42.944C149.668 42.944 150.02 43.0107 150.324 43.144C150.628 43.272 150.878 43.4534 151.076 43.688L150.436 44.28ZM152.919 45.36C152.919 45.6694 152.999 45.9147 153.159 46.096C153.325 46.272 153.551 46.36 153.839 46.36C154.175 46.3494 154.437 46.224 154.623 45.984C154.815 45.744 154.911 45.4427 154.911 45.08H155.183C155.183 45.5974 155.111 46.0187 154.967 46.344C154.823 46.664 154.621 46.9014 154.359 47.056C154.098 47.2054 153.786 47.2827 153.423 47.288C153.103 47.288 152.826 47.2214 152.591 47.088C152.362 46.9547 152.183 46.7654 152.055 46.52C151.933 46.2694 151.871 45.976 151.871 45.64V42.984H152.919V45.36ZM154.911 42.984H155.959V47.248H154.911V42.984ZM159.793 44.096C159.585 43.9734 159.369 43.88 159.145 43.816C158.921 43.7467 158.719 43.712 158.537 43.712C158.367 43.712 158.228 43.744 158.121 43.808C158.015 43.8667 157.961 43.968 157.961 44.112C157.961 44.2347 158.015 44.3334 158.121 44.408C158.233 44.4827 158.375 44.5467 158.545 44.6C158.716 44.648 158.897 44.7014 159.089 44.76C159.281 44.8187 159.463 44.896 159.633 44.992C159.809 45.088 159.951 45.216 160.057 45.376C160.169 45.536 160.225 45.7467 160.225 46.008C160.225 46.296 160.148 46.536 159.993 46.728C159.839 46.9147 159.633 47.056 159.377 47.152C159.121 47.2427 158.841 47.288 158.537 47.288C158.217 47.288 157.897 47.2374 157.577 47.136C157.263 47.0347 156.993 46.8854 156.769 46.688L157.129 45.992C157.327 46.1627 157.559 46.296 157.825 46.392C158.097 46.4827 158.348 46.528 158.577 46.528C158.7 46.528 158.809 46.512 158.905 46.48C159.001 46.448 159.076 46.4027 159.129 46.344C159.183 46.28 159.209 46.1974 159.209 46.096C159.209 45.9574 159.156 45.8507 159.049 45.776C158.943 45.696 158.804 45.6294 158.633 45.576C158.468 45.5174 158.289 45.4614 158.097 45.408C157.905 45.3494 157.724 45.2747 157.553 45.184C157.388 45.088 157.252 44.9627 157.145 44.808C157.039 44.6534 156.985 44.448 156.985 44.192C156.985 43.904 157.06 43.6667 157.209 43.48C157.359 43.2934 157.556 43.1574 157.801 43.072C158.047 42.9814 158.313 42.936 158.601 42.936C158.879 42.936 159.156 42.976 159.433 43.056C159.711 43.1307 159.956 43.2374 160.169 43.376L159.793 44.096ZM162.325 45.856C162.325 46.0694 162.365 46.216 162.445 46.296C162.525 46.376 162.634 46.416 162.773 46.416C162.858 46.416 162.951 46.4027 163.053 46.376C163.154 46.344 163.263 46.296 163.381 46.232L163.621 46.984C163.461 47.08 163.287 47.1574 163.101 47.216C162.919 47.2694 162.735 47.296 162.549 47.296C162.319 47.296 162.109 47.2534 161.917 47.168C161.725 47.0774 161.573 46.9387 161.461 46.752C161.349 46.56 161.293 46.32 161.293 46.032V41.976H162.325V45.856ZM160.693 43.144H163.549V43.872H160.693V43.144ZM166.27 42.944C166.713 42.944 167.102 43.0347 167.438 43.216C167.779 43.3974 168.043 43.6507 168.23 43.976C168.422 44.3014 168.518 44.68 168.518 45.112C168.518 45.544 168.422 45.9227 168.23 46.248C168.043 46.5734 167.779 46.8294 167.438 47.016C167.102 47.1974 166.713 47.288 166.27 47.288C165.822 47.288 165.427 47.1974 165.086 47.016C164.745 46.8294 164.478 46.5734 164.286 46.248C164.099 45.9227 164.006 45.544 164.006 45.112C164.006 44.68 164.099 44.3014 164.286 43.976C164.478 43.6507 164.745 43.3974 165.086 43.216C165.427 43.0347 165.822 42.944 166.27 42.944ZM166.27 43.784C166.03 43.784 165.817 43.8427 165.63 43.96C165.449 44.072 165.307 44.2294 165.206 44.432C165.105 44.6294 165.054 44.8587 165.054 45.12C165.054 45.3867 165.105 45.6214 165.206 45.824C165.307 46.0267 165.449 46.184 165.63 46.296C165.817 46.408 166.03 46.464 166.27 46.464C166.505 46.464 166.713 46.408 166.894 46.296C167.075 46.184 167.217 46.0267 167.318 45.824C167.419 45.6214 167.47 45.3867 167.47 45.12C167.47 44.8587 167.419 44.6294 167.318 44.432C167.217 44.2294 167.075 44.072 166.894 43.96C166.713 43.8427 166.505 43.784 166.27 43.784ZM172.477 44.864C172.477 44.5494 172.395 44.304 172.229 44.128C172.069 43.952 171.843 43.864 171.549 43.864C171.213 43.8694 170.947 43.9947 170.749 44.24C170.557 44.48 170.461 44.7814 170.461 45.144H170.181C170.181 44.6267 170.253 44.208 170.397 43.888C170.541 43.5627 170.747 43.3254 171.013 43.176C171.285 43.0214 171.603 42.944 171.965 42.944C172.291 42.944 172.568 43.0107 172.797 43.144C173.032 43.2774 173.211 43.4667 173.333 43.712C173.461 43.952 173.525 44.2427 173.525 44.584V47.248H172.477V44.864ZM175.541 44.864C175.541 44.5494 175.459 44.304 175.293 44.128C175.128 43.952 174.899 43.864 174.605 43.864C174.269 43.8694 174.005 43.9947 173.813 44.24C173.621 44.48 173.525 44.7814 173.525 45.144H173.245C173.245 44.6267 173.317 44.208 173.461 43.888C173.605 43.5627 173.811 43.3254 174.077 43.176C174.344 43.0214 174.661 42.944 175.029 42.944C175.349 42.944 175.624 43.0107 175.853 43.144C176.088 43.2774 176.269 43.4667 176.397 43.712C176.525 43.952 176.589 44.2427 176.589 44.584V47.248H175.541V44.864ZM169.421 42.984H170.461V47.248H169.421V42.984ZM180.638 44.792C180.627 44.568 180.576 44.3787 180.486 44.224C180.395 44.064 180.267 43.9414 180.102 43.856C179.942 43.7654 179.758 43.72 179.55 43.72C179.31 43.72 179.102 43.776 178.926 43.888C178.75 44 178.611 44.1574 178.51 44.36C178.414 44.5627 178.366 44.7974 178.366 45.064C178.366 45.3574 178.419 45.6107 178.526 45.824C178.638 46.0374 178.79 46.2027 178.982 46.32C179.174 46.432 179.395 46.488 179.646 46.488C180.099 46.488 180.486 46.3254 180.806 46L181.358 46.552C181.144 46.7867 180.886 46.968 180.582 47.096C180.278 47.224 179.939 47.288 179.566 47.288C179.118 47.288 178.728 47.1974 178.398 47.016C178.072 46.8294 177.816 46.576 177.63 46.256C177.448 45.9307 177.358 45.552 177.358 45.12C177.358 44.688 177.448 44.3094 177.63 43.984C177.816 43.6587 178.072 43.4054 178.398 43.224C178.728 43.0427 179.107 42.9494 179.534 42.944C180.04 42.944 180.448 43.048 180.758 43.256C181.072 43.464 181.296 43.7574 181.43 44.136C181.563 44.5094 181.611 44.9547 181.574 45.472H178.214V44.792H180.638ZM184.98 43.888C184.681 43.8667 184.423 43.912 184.204 44.024C183.985 44.1307 183.817 44.2854 183.7 44.488C183.583 44.6907 183.524 44.9227 183.524 45.184L183.244 45.152C183.244 44.6774 183.313 44.2774 183.452 43.952C183.591 43.6214 183.791 43.3707 184.052 43.2C184.313 43.0294 184.623 42.944 184.98 42.944V43.888ZM182.484 42.984H183.524V47.248H182.484V42.984ZM188.247 44.096C188.039 43.9734 187.823 43.88 187.599 43.816C187.375 43.7467 187.172 43.712 186.991 43.712C186.82 43.712 186.681 43.744 186.575 43.808C186.468 43.8667 186.415 43.968 186.415 44.112C186.415 44.2347 186.468 44.3334 186.575 44.408C186.687 44.4827 186.828 44.5467 186.999 44.6C187.169 44.648 187.351 44.7014 187.543 44.76C187.735 44.8187 187.916 44.896 188.087 44.992C188.263 45.088 188.404 45.216 188.511 45.376C188.623 45.536 188.679 45.7467 188.679 46.008C188.679 46.296 188.601 46.536 188.447 46.728C188.292 46.9147 188.087 47.056 187.831 47.152C187.575 47.2427 187.295 47.288 186.991 47.288C186.671 47.288 186.351 47.2374 186.031 47.136C185.716 47.0347 185.447 46.8854 185.223 46.688L185.583 45.992C185.78 46.1627 186.012 46.296 186.279 46.392C186.551 46.4827 186.801 46.528 187.031 46.528C187.153 46.528 187.263 46.512 187.359 46.48C187.455 46.448 187.529 46.4027 187.583 46.344C187.636 46.28 187.663 46.1974 187.663 46.096C187.663 45.9574 187.609 45.8507 187.503 45.776C187.396 45.696 187.257 45.6294 187.087 45.576C186.921 45.5174 186.743 45.4614 186.551 45.408C186.359 45.3494 186.177 45.2747 186.007 45.184C185.841 45.088 185.705 44.9627 185.599 44.808C185.492 44.6534 185.439 44.448 185.439 44.192C185.439 43.904 185.513 43.6667 185.663 43.48C185.812 43.2934 186.009 43.1574 186.255 43.072C186.5 42.9814 186.767 42.936 187.055 42.936C187.332 42.936 187.609 42.976 187.887 43.056C188.164 43.1307 188.409 43.2374 188.623 43.376L188.247 44.096ZM193.166 45.368C192.894 45.368 192.691 45.4107 192.558 45.496C192.425 45.5814 192.358 45.7227 192.358 45.92C192.358 46.1014 192.425 46.248 192.558 46.36C192.697 46.472 192.883 46.528 193.118 46.528C193.326 46.528 193.513 46.4934 193.678 46.424C193.849 46.3494 193.982 46.2507 194.078 46.128C194.179 46 194.238 45.8587 194.254 45.704L194.43 46.448C194.302 46.7254 194.105 46.936 193.838 47.08C193.571 47.224 193.249 47.296 192.87 47.296C192.566 47.296 192.302 47.2374 192.078 47.12C191.854 47.0027 191.681 46.8454 191.558 46.648C191.435 46.4454 191.374 46.2187 191.374 45.968C191.374 45.5734 191.515 45.264 191.798 45.04C192.081 44.8107 192.481 44.6934 192.998 44.688H194.366V45.368H193.166ZM194.246 44.56C194.246 44.304 194.163 44.104 193.998 43.96C193.838 43.8107 193.598 43.736 193.278 43.736C193.081 43.736 192.873 43.7734 192.654 43.848C192.441 43.9174 192.225 44.0187 192.006 44.152L191.63 43.48C191.833 43.3574 192.027 43.2587 192.214 43.184C192.401 43.104 192.595 43.0454 192.798 43.008C193.006 42.9654 193.243 42.944 193.51 42.944C194.07 42.944 194.502 43.0774 194.806 43.344C195.11 43.6107 195.265 43.9787 195.27 44.448L195.278 47.248H194.254L194.246 44.56ZM197.653 45.856C197.653 46.0694 197.693 46.216 197.773 46.296C197.853 46.376 197.962 46.416 198.101 46.416C198.186 46.416 198.28 46.4027 198.381 46.376C198.482 46.344 198.592 46.296 198.709 46.232L198.949 46.984C198.789 47.08 198.616 47.1574 198.429 47.216C198.248 47.2694 198.064 47.296 197.877 47.296C197.648 47.296 197.437 47.2534 197.245 47.168C197.053 47.0774 196.901 46.9387 196.789 46.752C196.677 46.56 196.621 46.32 196.621 46.032V41.976H197.653V45.856ZM196.021 43.144H198.877V43.872H196.021V43.144ZM62.856 55.856C62.856 56.0694 62.896 56.216 62.976 56.296C63.056 56.376 63.1653 56.416 63.304 56.416C63.3893 56.416 63.4827 56.4027 63.584 56.376C63.6853 56.344 63.7947 56.296 63.912 56.232L64.152 56.984C63.992 57.08 63.8187 57.1574 63.632 57.216C63.4507 57.2694 63.2667 57.296 63.08 57.296C62.8507 57.296 62.64 57.2534 62.448 57.168C62.256 57.0774 62.104 56.9387 61.992 56.752C61.88 56.56 61.824 56.32 61.824 56.032V51.976H62.856V55.856ZM61.224 53.144H64.08V53.872H61.224V53.144ZM68.1283 54.864C68.1283 54.5547 68.043 54.312 67.8723 54.136C67.707 53.96 67.475 53.872 67.1763 53.872C66.8243 53.872 66.547 53.9947 66.3443 54.24C66.147 54.48 66.0483 54.784 66.0483 55.152H65.7763C65.7763 54.6294 65.8483 54.208 65.9923 53.888C66.1416 53.5627 66.3523 53.3254 66.6243 53.176C66.8963 53.0214 67.219 52.944 67.5923 52.944C67.9176 52.944 68.1976 53.0107 68.4323 53.144C68.6723 53.2774 68.8563 53.4667 68.9843 53.712C69.1123 53.952 69.1763 54.2427 69.1763 54.584V57.248H68.1283V54.864ZM65.0083 51.312H66.0483V57.248H65.0083V51.312ZM73.2313 54.792C73.2206 54.568 73.17 54.3787 73.0793 54.224C72.9886 54.064 72.8606 53.9414 72.6953 53.856C72.5353 53.7654 72.3513 53.72 72.1433 53.72C71.9033 53.72 71.6953 53.776 71.5193 53.888C71.3433 54 71.2046 54.1574 71.1033 54.36C71.0073 54.5627 70.9593 54.7974 70.9593 55.064C70.9593 55.3574 71.0126 55.6107 71.1193 55.824C71.2313 56.0374 71.3833 56.2027 71.5753 56.32C71.7673 56.432 71.9886 56.488 72.2393 56.488C72.6926 56.488 73.0793 56.3254 73.3993 56L73.9513 56.552C73.738 56.7867 73.4793 56.968 73.1753 57.096C72.8713 57.224 72.5326 57.288 72.1593 57.288C71.7113 57.288 71.322 57.1974 70.9913 57.016C70.666 56.8294 70.41 56.576 70.2233 56.256C70.042 55.9307 69.9513 55.552 69.9513 55.12C69.9513 54.688 70.042 54.3094 70.2233 53.984C70.41 53.6587 70.666 53.4054 70.9913 53.224C71.322 53.0427 71.7006 52.9494 72.1273 52.944C72.634 52.944 73.042 53.048 73.3513 53.256C73.666 53.464 73.89 53.7574 74.0233 54.136C74.1566 54.5094 74.2046 54.9547 74.1673 55.472H70.8073V54.792H73.2313ZM79.7299 53.888C79.4313 53.8667 79.1726 53.912 78.9539 54.024C78.7353 54.1307 78.5673 54.2854 78.4499 54.488C78.3326 54.6907 78.2739 54.9227 78.2739 55.184L77.9939 55.152C77.9939 54.6774 78.0633 54.2774 78.2019 53.952C78.3406 53.6214 78.5406 53.3707 78.8019 53.2C79.0633 53.0294 79.3726 52.944 79.7299 52.944V53.888ZM77.2339 52.984H78.2739V57.248H77.2339V52.984ZM80.4605 52.984H81.5005V57.248H80.4605V52.984ZM80.9725 51.168C81.1432 51.168 81.2845 51.224 81.3965 51.336C81.5085 51.448 81.5645 51.5894 81.5645 51.76C81.5645 51.9254 81.5085 52.0667 81.3965 52.184C81.2845 52.296 81.1432 52.352 80.9725 52.352C80.8072 52.352 80.6685 52.296 80.5565 52.184C80.4445 52.0667 80.3885 51.9254 80.3885 51.76C80.3885 51.5894 80.4445 51.448 80.5565 51.336C80.6685 51.224 80.8072 51.168 80.9725 51.168ZM86.7006 56.832C86.7006 57.2427 86.6073 57.5974 86.4206 57.896C86.2393 58.1947 85.9806 58.424 85.6446 58.584C85.3086 58.7494 84.914 58.832 84.4606 58.832C84.114 58.832 83.7886 58.7814 83.4846 58.68C83.186 58.5787 82.9086 58.4427 82.6526 58.272L83.0686 57.56C83.266 57.704 83.474 57.816 83.6926 57.896C83.9113 57.976 84.1486 58.016 84.4046 58.016C84.6606 58.016 84.882 57.968 85.0686 57.872C85.2606 57.776 85.4073 57.6427 85.5086 57.472C85.61 57.3014 85.6606 57.0987 85.6606 56.864V52.984H86.7006V56.832ZM84.2686 52.944C84.6366 52.9387 84.9513 53.0187 85.2126 53.184C85.474 53.3494 85.674 53.584 85.8126 53.888C85.9513 54.192 86.018 54.5574 86.0126 54.984C86.018 55.4107 85.9513 55.7787 85.8126 56.088C85.6793 56.392 85.4846 56.6267 85.2286 56.792C84.9726 56.9574 84.6633 57.04 84.3006 57.04C83.922 57.04 83.5886 56.9547 83.3006 56.784C83.018 56.608 82.7966 56.3654 82.6366 56.056C82.4766 55.7414 82.3966 55.3814 82.3966 54.976C82.3966 54.5707 82.474 54.2187 82.6286 53.92C82.7886 53.616 83.01 53.3787 83.2926 53.208C83.5753 53.032 83.9006 52.944 84.2686 52.944ZM84.5246 53.736C84.306 53.736 84.1086 53.7894 83.9326 53.896C83.762 54.0027 83.6286 54.152 83.5326 54.344C83.4366 54.536 83.386 54.7547 83.3806 55C83.386 55.2454 83.4366 55.464 83.5326 55.656C83.6286 55.848 83.762 55.9974 83.9326 56.104C84.1033 56.2107 84.3006 56.264 84.5246 56.264C84.7486 56.264 84.946 56.2107 85.1166 56.104C85.2873 55.9974 85.4206 55.848 85.5166 55.656C85.6126 55.464 85.6606 55.2454 85.6606 55C85.6606 54.7494 85.6126 54.5307 85.5166 54.344C85.4206 54.152 85.2873 54.0027 85.1166 53.896C84.946 53.7894 84.7486 53.736 84.5246 53.736ZM91.0814 54.864C91.0814 54.5547 90.9961 54.312 90.8254 54.136C90.6601 53.96 90.4281 53.872 90.1294 53.872C89.7774 53.872 89.5001 53.9947 89.2974 54.24C89.1001 54.48 89.0014 54.784 89.0014 55.152H88.7294C88.7294 54.6294 88.8014 54.208 88.9454 53.888C89.0948 53.5627 89.3054 53.3254 89.5774 53.176C89.8494 53.0214 90.1721 52.944 90.5454 52.944C90.8708 52.944 91.1508 53.0107 91.3854 53.144C91.6254 53.2774 91.8094 53.4667 91.9374 53.712C92.0654 53.952 92.1294 54.2427 92.1294 54.584V57.248H91.0814V54.864ZM87.9614 51.312H89.0014V57.248H87.9614V51.312ZM94.5044 55.856C94.5044 56.0694 94.5444 56.216 94.6244 56.296C94.7044 56.376 94.8138 56.416 94.9524 56.416C95.0378 56.416 95.1311 56.4027 95.2324 56.376C95.3338 56.344 95.4431 56.296 95.5604 56.232L95.8004 56.984C95.6404 57.08 95.4671 57.1574 95.2804 57.216C95.0991 57.2694 94.9151 57.296 94.7284 57.296C94.4991 57.296 94.2884 57.2534 94.0964 57.168C93.9044 57.0774 93.7524 56.9387 93.6404 56.752C93.5284 56.56 93.4724 56.32 93.4724 56.032V51.976H94.5044V55.856ZM92.8724 53.144H95.7284V53.872H92.8724V53.144ZM99.981 55.856C99.981 56.0694 100.021 56.216 100.101 56.296C100.181 56.376 100.29 56.416 100.429 56.416C100.514 56.416 100.608 56.4027 100.709 56.376C100.81 56.344 100.92 56.296 101.037 56.232L101.277 56.984C101.117 57.08 100.944 57.1574 100.757 57.216C100.576 57.2694 100.392 57.296 100.205 57.296C99.9757 57.296 99.765 57.2534 99.573 57.168C99.381 57.0774 99.229 56.9387 99.117 56.752C99.005 56.56 98.949 56.32 98.949 56.032V51.976H99.981V55.856ZM98.349 53.144H101.205V53.872H98.349V53.144ZM102.093 52.984H103.133V57.248H102.093V52.984ZM102.605 51.168C102.776 51.168 102.917 51.224 103.029 51.336C103.141 51.448 103.197 51.5894 103.197 51.76C103.197 51.9254 103.141 52.0667 103.029 52.184C102.917 52.296 102.776 52.352 102.605 52.352C102.44 52.352 102.301 52.296 102.189 52.184C102.077 52.0667 102.021 51.9254 102.021 51.76C102.021 51.5894 102.077 51.448 102.189 51.336C102.301 51.224 102.44 51.168 102.605 51.168ZM107.477 54.864C107.477 54.5494 107.395 54.304 107.229 54.128C107.069 53.952 106.843 53.864 106.549 53.864C106.213 53.8694 105.947 53.9947 105.749 54.24C105.557 54.48 105.461 54.7814 105.461 55.144H105.181C105.181 54.6267 105.253 54.208 105.397 53.888C105.541 53.5627 105.747 53.3254 106.013 53.176C106.285 53.0214 106.603 52.944 106.965 52.944C107.291 52.944 107.568 53.0107 107.797 53.144C108.032 53.2774 108.211 53.4667 108.333 53.712C108.461 53.952 108.525 54.2427 108.525 54.584V57.248H107.477V54.864ZM110.541 54.864C110.541 54.5494 110.459 54.304 110.293 54.128C110.128 53.952 109.899 53.864 109.605 53.864C109.269 53.8694 109.005 53.9947 108.813 54.24C108.621 54.48 108.525 54.7814 108.525 55.144H108.245C108.245 54.6267 108.317 54.208 108.461 53.888C108.605 53.5627 108.811 53.3254 109.077 53.176C109.344 53.0214 109.661 52.944 110.029 52.944C110.349 52.944 110.624 53.0107 110.853 53.144C111.088 53.2774 111.269 53.4667 111.397 53.712C111.525 53.952 111.589 54.2427 111.589 54.584V57.248H110.541V54.864ZM104.421 52.984H105.461V57.248H104.421V52.984ZM115.638 54.792C115.627 54.568 115.576 54.3787 115.486 54.224C115.395 54.064 115.267 53.9414 115.102 53.856C114.942 53.7654 114.758 53.72 114.55 53.72C114.31 53.72 114.102 53.776 113.926 53.888C113.75 54 113.611 54.1574 113.51 54.36C113.414 54.5627 113.366 54.7974 113.366 55.064C113.366 55.3574 113.419 55.6107 113.526 55.824C113.638 56.0374 113.79 56.2027 113.982 56.32C114.174 56.432 114.395 56.488 114.646 56.488C115.099 56.488 115.486 56.3254 115.806 56L116.358 56.552C116.144 56.7867 115.886 56.968 115.582 57.096C115.278 57.224 114.939 57.288 114.566 57.288C114.118 57.288 113.728 57.1974 113.398 57.016C113.072 56.8294 112.816 56.576 112.63 56.256C112.448 55.9307 112.358 55.552 112.358 55.12C112.358 54.688 112.448 54.3094 112.63 53.984C112.816 53.6587 113.072 53.4054 113.398 53.224C113.728 53.0427 114.107 52.9494 114.534 52.944C115.04 52.944 115.448 53.048 115.758 53.256C116.072 53.464 116.296 53.7574 116.43 54.136C116.563 54.5094 116.611 54.9547 116.574 55.472H113.214V54.792H115.638ZM117.732 56.216C117.892 56.216 118.023 56.2667 118.124 56.368C118.231 56.4694 118.284 56.6 118.284 56.76C118.284 56.9254 118.231 57.0614 118.124 57.168C118.023 57.2694 117.892 57.32 117.732 57.32C117.577 57.32 117.447 57.2694 117.34 57.168C117.239 57.0614 117.188 56.9254 117.188 56.76C117.188 56.6 117.239 56.4694 117.34 56.368C117.447 56.2667 117.577 56.216 117.732 56.216Z" fill="black"/>
</g>
<defs>
<filter id="filter0_d_1272_1626" x="0" y="0.752197" width="234" height="76.4958" filterUnits="userSpaceOnUse" color-interpolation-filters="sRGB">
<feFlood flood-opacity="0" result="BackgroundImageFix"/>
<feColorMatrix in="SourceAlpha" type="matrix" values="0 0 0 0 0 0 0 0 0 0 0 0 0 0 0 0 0 0 127 0" result="hardAlpha"/>
<feOffset dy="4"/>
<feGaussianBlur stdDeviation="2"/>
<feComposite in2="hardAlpha" operator="out"/>
<feColorMatrix type="matrix" values="0 0 0 0 0.360784 0 0 0 0 0.611765 0 0 0 0 0.933333 0 0 0 0.24 0"/>
<feBlend mode="normal" in2="BackgroundImageFix" result="effect1_dropShadow_1272_1626"/>
<feBlend mode="normal" in="SourceGraphic" in2="effect1_dropShadow_1272_1626" result="shape"/>
</filter>
</defs>
</svg>
