<svg xmlns="http://www.w3.org/2000/svg" width="600" height="600" fill="none"><path fill="#EBEBEB" d="M600 458.88H0v.3h600zM378.804 467.052h-30.552v.3h30.552zM546.528 473.544h-72.396v.3h72.396zM341.748 467.196h-74.796v.3h74.796zM218.448 476.172H202.8v.3h15.648zM304.908 476.172h-71.256v.3h71.256zM109.092 471.108h-46.14v.3h46.14zM284.4 405.36H52.692a6.85 6.85 0 0 1-6.84-6.852V72.792A6.85 6.85 0 0 1 52.692 66H284.4a6.85 6.85 0 0 1 6.852 6.852v325.656a6.85 6.85 0 0 1-6.852 6.852M52.692 66.24a6.55 6.55 0 0 0-6.54 6.552v325.716a6.553 6.553 0 0 0 6.54 6.552H284.4a6.56 6.56 0 0 0 6.552-6.552V72.792a6.563 6.563 0 0 0-6.552-6.552zM543.972 405.36h-231.72a6.867 6.867 0 0 1-6.852-6.852V72.792A6.866 6.866 0 0 1 312.252 66h231.72a6.85 6.85 0 0 1 6.828 6.792v325.716a6.854 6.854 0 0 1-6.828 6.852M312.252 66.24a6.565 6.565 0 0 0-6.552 6.552v325.716a6.56 6.56 0 0 0 6.552 6.552h231.72a6.562 6.562 0 0 0 6.552-6.552V72.792a6.564 6.564 0 0 0-6.552-6.552z"/><path fill="#E6E6E6" d="M235.152 354.804h-79.68l-4.836-55.8h79.68z"/><path fill="#F0F0F0" d="M239.28 354.804H159.6l-4.836-55.8h79.68z"/><path fill="#fff" d="m170.496 342.816-2.664-31.836h55.716l2.664 31.836z"/><path fill="#E6E6E6" d="M253.068 354.804h-9.348V458.88h9.348z"/><path fill="#F0F0F0" d="M256.02 354.804h-6.492V458.88h6.492z"/><path fill="#F0F0F0" d="M165.528 366.288h90.492v-11.484h-90.492z"/><path fill="#E6E6E6" d="M168.72 366.288h-9.348v92.592h9.348z"/><path fill="#F0F0F0" d="M171.672 366.288h-6.492v92.592h6.492z"/><path fill="#E6E6E6" d="M102.18 366.288h-9.348v92.592h9.348z"/><path fill="#F0F0F0" d="M105.132 366.288H98.64v92.592h6.492z"/><path fill="#E6E6E6" d="M193.908 366.288h-9.348v92.592h9.348z"/><path fill="#F0F0F0" d="M196.848 366.288h-6.492v92.592h6.492z"/><path fill="#E6E6E6" d="M165.528 354.804H92.832v11.484h72.696z"/><path fill="#E0E0E0" d="M436.608 95.292H155.412v156.552h281.196z"/><path fill="#F5F5F5" d="M452.052 95.292H156.828v156.552h295.224z"/><path fill="#fff" d="M447.228 247.02V100.116H161.652V247.02z"/><path fill="#F5F5F5" d="M277.284 247.02 331.2 100.116h-88.98L188.304 247.02zM362.928 247.02l53.916-146.904h-67.128L295.8 247.02z"/><path fill="#E6E6E6" d="M525.732 309.36h-23.904v149.52h23.904z"/><path fill="#FAFAFA" d="M519.444 458.88h6.288v-11.508h-12.876z"/><path fill="#E6E6E6" d="M305.34 309.36h-23.904v149.52h23.904z"/><path fill="#FAFAFA" d="M525.732 309.36H299.856v146.412h225.876z"/><path fill="#E6E6E6" d="M521.46 356.604H304.14v-41.352h217.32zm-216.12-1.2h214.92v-38.952H305.34z"/><path fill="#E6E6E6" d="M483.204 335.328H346.608c-6.336 0-12.444-5.112-16.8-14.04l-.408-.852h171l-.408.852c-4.392 8.928-10.392 14.04-16.788 14.04M331.368 321.6c4.056 7.956 9.6 12.492 15.24 12.492h136.596c5.664 0 11.184-4.536 15.24-12.492z"/><path fill="#FAFAFA" d="M306.144 458.88h-6.288v-11.508h12.876z"/><path fill="#E6E6E6" d="M521.46 403.2H304.14v-41.304h217.32zM305.34 402h214.92v-38.904H305.34z"/><path fill="#E6E6E6" d="M483.204 381.972H346.608c-6.336 0-12.444-5.124-16.8-14.04l-.408-.864h171l-.408.864c-4.392 8.868-10.392 14.04-16.788 14.04m-151.836-13.704c4.056 7.956 9.6 12.504 15.24 12.504h136.596c5.664 0 11.184-4.548 15.24-12.504zM521.46 449.88H304.14v-41.352h217.32zm-216.12-1.2h214.92v-38.952H305.34z"/><path fill="#E6E6E6" d="M483.204 428.604H346.608c-6.336 0-12.444-5.112-16.8-14.028l-.408-.864h171l-.408.864c-4.392 8.916-10.392 14.028-16.788 14.028m-151.836-13.692c4.056 7.956 9.6 12.492 15.24 12.492h136.596c5.664 0 11.184-4.536 15.24-12.492zM145.176 329.136v2.904h-1.848l-1.536 22.764h-22.608l-1.524-22.764h-1.86v-2.904zM137.736 272.652c-1.848-13.56-20.148-17.424-43.368-17.928-22.092-.468-29.172-8.28-29.172-8.28s.072 31.644 31.908 43.116c30.228 10.872 42.492-3.324 40.632-16.908"/><path fill="#E6E6E6" d="M126.456 303.384c.384-5.568 9.288-15.816 30.708-11.16 15.48 3.372 21.24-4.656 21.24-4.656s-1.44 22.656-24.72 29.46c-22.116 6.468-27.912-3.828-27.228-13.644"/><path fill="#E6E6E6" d="M131.34 337.68a.83.83 0 0 0 .636-.288c1.548-1.836.276-6.228-1.476-12.312-2.256-7.8-5.064-17.52-2.688-24.564a99 99 0 0 1 4.608-10.896c3.36-7.104 6.264-13.2 3.84-19.656a.83.83 0 0 0-.75-.542.83.83 0 0 0-.784.492.835.835 0 0 0-.014.638c2.172 5.748-.456 11.316-3.792 18.372a103 103 0 0 0-4.68 11.064c-2.532 7.536.348 17.532 2.664 25.548 1.368 4.8 2.784 9.6 1.812 10.8a.815.815 0 0 0 .096 1.2c.153.109.34.16.528.144"/><path fill="#F5F5F5" d="M300 513.072c128.499 0 232.668-6.082 232.668-13.584S428.499 485.904 300 485.904s-232.668 6.082-232.668 13.584S171.501 513.072 300 513.072"/><path fill="#00F" d="M299.952 433.26h-170.4l-9.324-274.044h170.4z"/><path fill="#407BFF" d="M308.46 424.752h-170.4l-9.336-274.044h170.4z"/><path fill="#fff" d="M308.46 424.752h-170.4l-9.336-274.044h170.4z" opacity=".3"/><path fill="#00F" d="M251.367 263.477c18.245-18.56 17.469-48.908-1.733-67.785s-49.56-19.134-67.805-.574-17.469 48.908 1.733 67.785 49.56 19.133 67.805.574"/><path fill="#fff" d="M256.164 229.308a38.4 38.4 0 0 1-4.14 18.84 37.91 37.91 0 0 1-34.08 20.712 41.12 41.12 0 0 1-35.472-20.712 40.2 40.2 0 0 1-5.424-18.84 37.97 37.97 0 0 1 23.217-36.633 38 38 0 0 1 14.991-2.967 41.23 41.23 0 0 1 40.908 39.6"/><path fill="#407BFF" d="M252 248.148a37.91 37.91 0 0 1-34.08 20.712 41.11 41.11 0 0 1-35.472-20.712 60.7 60.7 0 0 1 34.44-10.548A64.2 64.2 0 0 1 252 248.148M228.926 228.321c6.709-6.824 6.424-17.984-.637-24.925s-18.224-7.036-24.933-.211-6.423 17.984.638 24.925 18.224 7.036 24.932.211" opacity=".6"/><path fill="#fff" d="M274.224 325.512H165.528l-.732-21.6h108.696zM275.544 364.116H166.836l-.732-21.6h108.708z"/><path fill="#00F" d="m233.592 345.492-26.196 3.6a1.815 1.815 0 0 0-1.573 1.413c-.055.246-.059.5-.011.747l3.444 17.556a2.113 2.113 0 0 0 2.328 1.644l26.196-3.6a1.85 1.85 0 0 0 1.257-.745 1.838 1.838 0 0 0 .315-1.427l-3.432-17.556a2.103 2.103 0 0 0-2.328-1.632m-7.524 17.784-4.8.636-.468-5.664a3.369 3.369 0 0 1-1.956-2.4 2.98 2.98 0 0 1 1.414-3.21 3 3 0 0 1 1.178-.39 3.43 3.43 0 0 1 3.792 2.676 2.94 2.94 0 0 1-.936 2.796zM231 344.544a1.87 1.87 0 0 1-2.064-1.452l-.336-1.716a9.875 9.875 0 0 0-10.344-7.872 8.4 8.4 0 0 0-6.178 3.262 8.4 8.4 0 0 0-1.574 6.806l.384 1.98a1.6 1.6 0 0 1-.278 1.27 1.6 1.6 0 0 1-1.126.65 1.84 1.84 0 0 1-1.318-.319 1.84 1.84 0 0 1-.746-1.133l-.324-1.668a11.83 11.83 0 0 1 1.794-9.097 11.83 11.83 0 0 1 7.806-5.003 13.44 13.44 0 0 1 15.36 10.404l.384 1.968a1.6 1.6 0 0 1-.29 1.283 1.61 1.61 0 0 1-1.15.637M257.604 394.368H186.84l-.468-14.064h70.752z"/><path fill="#263238" d="M223.464 314.712a3.79 3.79 0 0 1-2.321 3.652 3.8 3.8 0 0 1-1.495.296 4.124 4.124 0 0 1-4.092-3.948 3.79 3.79 0 0 1 2.32-3.652c.474-.199.983-.3 1.496-.296a4.115 4.115 0 0 1 4.092 3.948M206.4 314.712a3.78 3.78 0 0 1-3.816 3.948 4.116 4.116 0 0 1-4.08-3.948 3.79 3.79 0 0 1 2.32-3.652c.474-.199.983-.3 1.496-.296a4.1 4.1 0 0 1 4.08 3.948M189.444 314.712a3.79 3.79 0 0 1-2.321 3.652 3.8 3.8 0 0 1-1.495.296 4.1 4.1 0 0 1-4.08-3.948 3.79 3.79 0 0 1 2.32-3.652c.474-.199.983-.3 1.496-.296a4.1 4.1 0 0 1 4.08 3.948M240.468 314.712a3.79 3.79 0 0 1-2.321 3.652 3.8 3.8 0 0 1-1.495.296 4.1 4.1 0 0 1-4.08-3.948 3.78 3.78 0 0 1 2.335-3.626 3.8 3.8 0 0 1 1.493-.286 4.1 4.1 0 0 1 4.068 3.912M257.472 314.712a3.78 3.78 0 0 1-3.816 3.948 4.116 4.116 0 0 1-4.08-3.948 3.79 3.79 0 0 1 2.32-3.652c.474-.199.983-.3 1.496-.296a4.1 4.1 0 0 1 4.08 3.948"/><path fill="#FF8B7B" d="M400.692 209.136c1.596 2.568 2.928 5.016 4.296 7.572s2.604 5.124 3.816 7.752a111 111 0 0 1 6.12 16.476c.216.708.372 1.464.552 2.196l.264 1.116.132.552.156.912c.271 2.069.144 4.17-.372 6.192a35 35 0 0 1-3.744 8.94 71 71 0 0 1-10.656 13.956l-5.052-3.816a134 134 0 0 0 6.756-14.4 29.9 29.9 0 0 0 1.836-6.756 5.4 5.4 0 0 0-.096-2.124l-.48-1.464c-.192-.6-.372-1.2-.6-1.812a136 136 0 0 0-6.324-14.496c-2.4-4.8-4.98-9.6-7.56-14.184z"/><path fill="#FF8B7B" d="m397.488 269.316-5.52 2.916 6.336 7.416s3.96-2.676 4.14-6.756zM384.564 276.804l6.78 5.388 6.96-2.544-6.336-7.416z"/><path fill="#263238" d="M361.38 169.872c-.132.672-.6 1.14-1.032 1.056s-.684-.708-.552-1.368.6-1.2 1.044-1.056.672.696.54 1.368"/><path fill="#FF5652" d="M360.84 171.024a24.3 24.3 0 0 1-4.344 5.064 3.94 3.94 0 0 0 3.072 1.2z"/><path fill="#FF8B7B" d="M358.68 194.568v-7.872l10.416 1.2s-.168 6.768-6 8.76z"/><path fill="#FF8B7B" d="m361.68 181.032 7.332 2.112.132 4.812-10.416-1.26z"/><path fill="#000" d="m369.012 183.144-7.332-2.112-1.428 2.736a11.68 11.68 0 0 0 6.768 10.176 11.47 11.47 0 0 0 2.124-6z" opacity=".2"/><path fill="#263238" d="M364.572 166.668a.4.4 0 0 0 .216-.068.413.413 0 0 0 .084-.604 3.99 3.99 0 0 0-3.408-1.32.398.398 0 0 0-.164.716c.085.063.191.09.296.076a3.16 3.16 0 0 1 2.688 1.068q.056.061.131.095a.4.4 0 0 0 .157.037"/><path fill="#FF8B7B" d="M379.908 182.016c-1.2 6.18-1.944 14.736 2.4 18.852 0 0-1.68 6.264-13.2 6.264-12.612 0-6.06-5.496-6.06-5.496 5.244-1.632 5.196-7.596 3.996-12.396z"/><path fill="#407BFF" d="M384.648 204.996c1.128-1.584 1.08-6.612-.12-7.5-1.932-1.428-10.224-1.764-21.372.804 1.2 4.872-1.38 7.416-1.38 7.416zM422.16 489.888a2.75 2.75 0 0 1-2.112-.12.81.81 0 0 1-.192-.924.92.92 0 0 1 .516-.588c1.14-.552 3.756.516 3.876.564a.2.2 0 0 1 .088.072q.032.05.032.108a.22.22 0 0 1-.108.192c-.677.297-1.38.53-2.1.696m-1.38-1.356a1 1 0 0 0-.228.084.5.5 0 0 0-.196.131.5.5 0 0 0-.116.205c-.108.36 0 .48.072.516.456.384 2.136 0 3.324-.444a6.6 6.6 0 0 0-2.856-.492"/><path fill="#407BFF" d="M424.212 489.204h-.096c-.96-.276-3-1.728-3.024-2.676a.66.66 0 0 1 .516-.648 1.04 1.04 0 0 1 .876.072c1.128.576 1.848 2.904 1.872 3.012a.19.19 0 0 1 0 .192.16.16 0 0 1-.066.041.2.2 0 0 1-.078.007m-2.4-2.988h-.096c-.24.084-.24.204-.24.264 0 .564 1.368 1.704 2.4 2.16-.252-.672-.804-2.004-1.536-2.4a.7.7 0 0 0-.516-.024zM359.832 491.304c-1.08 0-2.124-.156-2.472-.636a.76.76 0 0 1 0-.876 1 1 0 0 1 .636-.468c1.404-.384 4.356 1.296 4.476 1.368a.18.18 0 0 1 .096.204.19.19 0 0 1-.156.168c-.851.156-1.715.237-2.58.24m-1.332-1.644a1.2 1.2 0 0 0-.384 0 .62.62 0 0 0-.396.276c-.144.252-.084.372 0 .444.396.552 2.52.564 4.092.336a9.1 9.1 0 0 0-3.312-1.056"/><path fill="#407BFF" d="M362.4 491.064h-.084c-1.02-.456-3.036-2.28-2.88-3.24 0-.228.192-.504.744-.552a1.44 1.44 0 0 1 1.104.336 5.74 5.74 0 0 1 1.32 3.252.24.24 0 0 1-.084.18.23.23 0 0 1-.12.024m-2.064-3.42h-.12c-.36 0-.384.168-.384.216-.096.576 1.272 2.016 2.316 2.64a4.65 4.65 0 0 0-1.116-2.604 1.05 1.05 0 0 0-.708-.252z"/><path fill="#FF8B7B" d="M371.664 490.872h-8.436l-.84-19.548h8.436zM433.62 486.96l-8.244 1.788-8.292-18.204 8.256-1.788z"/><path fill="#263238" d="m424.572 487.92 9.276-2.004a.734.734 0 0 1 .816.408l3.216 6.984a1.204 1.204 0 0 1-.369 1.516c-.154.11-.332.183-.519.212-3.24.636-4.86.792-8.928 1.668-2.508.552-8.172 1.932-11.64 2.676s-4.656-2.58-3.3-3.192c6.06-2.772 8.58-5.208 10.224-7.476a2.05 2.05 0 0 1 1.224-.792M363.288 489.888h9.216a.75.75 0 0 1 .72.576l1.668 7.5a1.197 1.197 0 0 1-1.2 1.512c-3.324-.06-8.124-.252-12.3-.252-4.896 0-9.108.264-14.844.264-3.468 0-4.428-3.504-2.976-3.828 6.6-1.44 12-1.596 17.7-5.112a3.93 3.93 0 0 1 2.016-.66"/><path fill="#407BFF" d="M397.404 202.8c7.908 1.812 14.4 22.008 14.4 22.008L396 236.892a34.7 34.7 0 0 1-8.4-15.6c-2.796-10.584 1.716-20.364 9.804-18.492"/><path fill="#000" d="M397.404 202.8c7.908 1.812 14.4 22.008 14.4 22.008L396 236.892a34.7 34.7 0 0 1-8.4-15.6c-2.796-10.584 1.716-20.364 9.804-18.492" opacity=".4"/><path fill="#FF8B7B" d="M355.8 226.884c-1.968 2.124-3.936 4.02-6 6-1.02.96-2.052 1.92-3.108 2.844l-1.596 1.404-.396.348-.684.552a9.6 9.6 0 0 1-2.316 1.368 7.6 7.6 0 0 1-2.928.6 7.2 7.2 0 0 1-2.52-.444 7.1 7.1 0 0 1-2.4-1.524 7.2 7.2 0 0 1-1.872-3.108 8.2 8.2 0 0 1-.348-1.788 12 12 0 0 1 0-2.136c.06-.576.132-1.08.228-1.548a29.7 29.7 0 0 1 1.392-4.8 43 43 0 0 1 1.86-4.344c.768-1.524 1.5-2.64 2.232-3.912a98 98 0 0 1 10.14-13.752 93 93 0 0 1 12.3-11.664l4.416 4.548c-3.096 4.152-6.144 8.604-8.964 12.984a141 141 0 0 0-7.68 13.5c-.516 1.128-1.2 2.4-1.524 3.312a32 32 0 0 0-1.116 3.24c-.302.99-.531 2.001-.684 3.024q-.012.24 0 .48v-.108a3.4 3.4 0 0 0-.156-.792 5.14 5.14 0 0 0-1.38-2.232 5.9 5.9 0 0 0-1.98-1.2 5.7 5.7 0 0 0-2.016-.372 4.9 4.9 0 0 0-2.532.672l.456-.42 1.452-1.32 2.868-2.688c1.896-1.788 3.804-3.696 5.604-5.472z"/><path fill="#000" d="M390.624 217.632c4.296 4.248 5.7 12 6 18.72l-.696.54a34.7 34.7 0 0 1-8.4-15.6c-.156-.624-.3-1.2-.408-1.884z" opacity=".2"/><path fill="#407BFF" d="M347.412 211.2c-1.728 9.12-2.808 27.852 2.196 64.932H394.8c.312-6.924-4.044-40.74 2.64-73.392a119 119 0 0 0-15.12-1.908 168 168 0 0 0-19.2 0c-2.112.192-4.2.504-6 .828a11.997 11.997 0 0 0-9.708 9.54"/><path fill="#000" d="M347.412 211.2c-1.728 9.12-2.808 27.852 2.196 64.932H394.8c.312-6.924-4.044-40.74 2.64-73.392a119 119 0 0 0-15.12-1.908 168 168 0 0 0-19.2 0c-2.112.192-4.2.504-6 .828a11.997 11.997 0 0 0-9.708 9.54" opacity=".4"/><path fill="#000" d="m354.324 224.724-8.16-1.956c-.252 4.944-.276 11.064.084 18.636 3.756-4.272 8.556-10.944 8.076-16.68M362.388 471.324l.432 10.08h8.448l-.432-10.08zM425.34 468.756l-8.256 1.788 4.272 9.384 8.256-1.788z" opacity=".2"/><path fill="#FF8B7B" d="M383.916 172.992c-2.16 8.088-3.024 12.936-8.016 16.296-7.5 5.112-16.86-.744-17.1-9.288-.264-7.716 3.324-19.656 12-21.288a11.43 11.43 0 0 1 10.521 3.5 11.43 11.43 0 0 1 2.595 10.78"/><path fill="#263238" d="M364.98 173.292c-.408-1.08-2.268-9.444-.516-11.616s21.732-.6 24.684 2.304c4.908 4.8 1.5 9.12-3.864 14.676-4.032 4.176-4.188 8.88-6.228 9.6-3.6 1.2-9.096.072-10.2-3.732s-3.876-11.232-3.876-11.232"/><path fill="#263238" d="M386.724 154.464c-7.056-3-20.292.324-27.444-1.404a11.017 11.017 0 0 0 9.132 11.232 94.4 94.4 0 0 0 18 1.668c7.848-.36 6.312-8.94.312-11.496"/><path fill="#263238" d="M387.828 164.232a13.45 13.45 0 0 0 7.476-1.428c1.32 3.192-5.94 4.068-7.476 1.428"/><path fill="#FF8B7B" d="M368.82 173.628a9.5 9.5 0 0 1-2.4 5.604c-1.848 2.028-3.768.756-4.092-1.704-.288-2.232.312-6 2.568-7.08s4.08.672 3.924 3.18"/><path fill="#00F" d="M365.628 276.168s9.6 64.5 14.844 88.668c5.748 26.46 36.636 114 36.636 114l15.108-3.276s-21.6-71.352-26.4-108.348c-3.72-28.416-11.028-91.068-11.028-91.068z"/><path fill="#263238" d="M413.484 473.808c-.06 0 2.82 5.472 2.82 5.472l16.992-3.684-1.428-5.112z"/><path fill="#000" d="M371.688 299.148c11.076 2.172 9.9 43.476 8.568 64.728-3.192-15.024-7.872-43.92-11.064-64.428a3.78 3.78 0 0 1 2.496-.3" opacity=".3"/><path fill="#00F" d="M349.608 276.168s-1.2 63.108-.24 88.8c.96 26.772 10.308 114.432 10.308 114.432h14.304s.516-86.1 1.2-112.392c.696-28.656 4.152-90.888 4.152-90.888z"/><path fill="#263238" d="M356.928 473.76c-.072 0 .804 5.928.804 5.928h17.388l.48-5.292z"/><path fill="#407BFF" d="M365.1 214.008c4.044 10.908-19.728 23.76-19.728 23.76l-10.296-13.2S342 210.864 350.4 204.696c10.38-7.608 11.616 1.008 14.7 9.312"/><path fill="#000" d="M365.1 214.008c4.044 10.908-19.728 23.76-19.728 23.76l-10.296-13.2S342 210.864 350.4 204.696c10.38-7.608 11.616 1.008 14.7 9.312" opacity=".4"/><path fill="#00F" d="M458.244 131.196c23.918 0 43.308-12.357 43.308-27.6s-19.39-27.6-43.308-27.6-43.308 12.357-43.308 27.6 19.39 27.6 43.308 27.6"/><path fill="#fff" d="M442.62 117.492a12.13 12.13 0 0 1-11.916-10.068 12.263 12.263 0 0 1 9.252-13.824 12.07 12.07 0 0 1 12.984 5.424l27.804-5.736a4.343 4.343 0 0 1 5.088 2.988 4.2 4.2 0 0 1-.489 3.276 4.18 4.18 0 0 1-2.715 1.896l-.72.144a.713.713 0 0 0-.504.372.75.75 0 0 0-.067.312q0 .163.067.312l.492 1.272a1.906 1.906 0 0 1-.744 2.316 2.27 2.27 0 0 0-1.068 1.692 1.88 1.88 0 0 1-1.452 1.668l-.564.12a1.874 1.874 0 0 1-1.992-.96 2.339 2.339 0 0 0-4.332.9 1.86 1.86 0 0 1-1.44 1.656l-.564.12a1.9 1.9 0 0 1-1.152-.157 1.88 1.88 0 0 1-.84-.803 2.398 2.398 0 0 0-1.668-1.128 1.91 1.91 0 0 1-1.68-1.884v-1.368a.747.747 0 0 0-.888-.696l-8.868 1.824a12.08 12.08 0 0 1-9.54 10.08c-.818.167-1.65.252-2.484.252m-2.4-22.8a11.05 11.05 0 0 0-8.4 12.504 10.932 10.932 0 0 0 21.6-.624v-.432l9.78-1.98a1.943 1.943 0 0 1 2.4 1.824v1.368a.706.706 0 0 0 .576.684 3.5 3.5 0 0 1 2.532 1.716.7.7 0 0 0 .708.384l.552-.12a.67.67 0 0 0 .504-.624 3.538 3.538 0 0 1 4.976-2.871 3.54 3.54 0 0 1 1.624 1.479.688.688 0 0 0 .696.384l.576-.12a.673.673 0 0 0 .492-.624 3.47 3.47 0 0 1 1.644-2.58.73.73 0 0 0 .252-.864l-.492-1.272a1.932 1.932 0 0 1 1.416-2.592l.732-.156a3.01 3.01 0 0 0 2.292-3.684 3.133 3.133 0 0 0-3.696-2.124l-28.584 5.94-.216-.372a10.8 10.8 0 0 0-11.904-5.22zm2.4 18.336a7.7 7.7 0 0 1-4.212-1.2 7.7 7.7 0 0 1-3.122-4.139 7.7 7.7 0 0 1 3.666-9.047 7.692 7.692 0 1 1 5.228 14.29 7.7 7.7 0 0 1-1.548.12zm0-14.172a7 7 0 0 0-1.332.132 6.505 6.505 0 0 0-5.044 5.183 6.5 6.5 0 0 0 1.037 4.872A6.52 6.52 0 0 0 444 111.72a6.491 6.491 0 0 0 2.256-11.772 6.4 6.4 0 0 0-3.588-1.068z"/><path fill="#00F" d="M423 147.384c7.86 0 14.232-4.062 14.232-9.072S430.86 129.24 423 129.24s-14.232 4.062-14.232 9.072 6.372 9.072 14.232 9.072" opacity=".6"/><path fill="#00F" d="M400.356 151.104c3.228 0 5.844-1.666 5.844-3.72s-2.616-3.72-5.844-3.72-5.844 1.665-5.844 3.72c0 2.054 2.616 3.72 5.844 3.72" opacity=".3"/></svg>