<svg xmlns="http://www.w3.org/2000/svg" width="84" height="69" fill="none"><path fill="#fff" d="M66.83 24.08C62.53 10.13 49.527 0 34.174 0 15.297 0 0 15.297 0 34.17s15.303 34.18 34.175 34.18h27.377C73.95 68.35 84 58.3 84 45.902c0-10.574-7.316-19.451-17.17-21.818zM39.134 12.648a7.175 7.175 0 1 1 0 14.35 7.175 7.175 0 0 1 0-14.35M27.18 55.69a3.587 3.587 0 0 1-3.585-3.585 3.587 3.587 0 0 1 3.585-3.585 3.587 3.587 0 0 1 3.585 3.585 3.587 3.587 0 0 1-3.585 3.585m11.954 0a3.583 3.583 0 0 1-3.585-3.585 3.587 3.587 0 0 1 3.585-3.585 3.587 3.587 0 0 1 3.585 3.585 3.587 3.587 0 0 1-3.585 3.585m11.959 0a3.587 3.587 0 0 1-3.585-3.585 3.587 3.587 0 0 1 3.585-3.585 3.587 3.587 0 0 1 3.585 3.585 3.587 3.587 0 0 1-3.585 3.585m-1.199-11.954h-21.52a4.78 4.78 0 0 1-4.784-4.783 7.175 7.175 0 0 1 7.175-7.176h16.738a7.175 7.175 0 0 1 7.175 7.176 4.785 4.785 0 0 1-4.784 4.783"/></svg>