<svg xmlns="http://www.w3.org/2000/svg" width="84" height="69" fill="none"><path fill="#00F" d="M31.5 2.227c-8-1.6-17.333 5.666-21 9.5 1.333-1.187 3-2.447-1 2-5 5.558-6 22.5-5.5 30.5s16 19.5 29.5 20 32 6 42.5-7.5-1-27-4.5-27.5-4.5-2.5-12.5-13-17.5-12-27.5-14"/><path fill="#fff" d="M34.172 27.128a7.043 7.043 0 0 0-7.044 7.044 7.04 7.04 0 0 0 7.044 7.044 7.04 7.04 0 0 0 7.044-7.044 7.04 7.04 0 0 0-7.044-7.044"/><path fill="#fff" d="M66.83 24.082C62.53 10.136 49.53 0 34.178 0 15.302 0 0 15.297 0 34.167s15.297 34.177 34.177 34.177h27.376C73.95 68.344 84 58.294 84 45.896c0-10.575-7.317-19.451-17.17-21.82zm-18.773 23.57-5.359 3.892a1.244 1.244 0 0 1-1.568-.081l-3.942-3.532c-.972.212-1.979.334-3.016.334a14 14 0 0 1-3.016-.334l-3.942 3.532a1.25 1.25 0 0 1-1.569.08l-5.358-3.89a1.254 1.254 0 0 1-.41-1.519l2.145-4.848a14 14 0 0 1-1.872-5.733l-4.575-2.656a1.25 1.25 0 0 1-.561-1.468l2.044-6.3a1.25 1.25 0 0 1 1.316-.855l5.278.541a14.1 14.1 0 0 1 4.868-3.547l1.108-5.176a1.25 1.25 0 0 1 1.224-.987h6.624c.592 0 1.098.41 1.225.987l1.108 5.176a14.1 14.1 0 0 1 4.868 3.547l5.278-.541a1.25 1.25 0 0 1 1.315.855l2.045 6.3a1.246 1.246 0 0 1-.562 1.468l-4.574 2.656a14 14 0 0 1-1.873 5.733l2.146 4.848c.238.537.07 1.174-.41 1.518zm25.064.466-3.27.875a8.9 8.9 0 0 1-2.115 3.224l.516 3.35a.8.8 0 0 1-.505.87l-3.958 1.508a.8.8 0 0 1-.956-.314l-1.842-2.839a9 9 0 0 1-1.918-.298 9 9 0 0 1-1.806-.709l-3.021 1.523a.794.794 0 0 1-.982-.212l-2.657-3.3a.8.8 0 0 1 0-1.006l2.136-2.637a8.95 8.95 0 0 1-.198-3.85l-2.383-2.404a.8.8 0 0 1-.101-1.002l2.318-3.547a.8.8 0 0 1 .956-.309l3.168 1.22a8.9 8.9 0 0 1 3.597-1.377l1.549-3.01a.8.8 0 0 1 .92-.406l4.09 1.109c.364.096.607.44.592.814l-.178 3.38a9.1 9.1 0 0 1 2.414 3.006l3.35.547c.37.06.653.374.668.749l.213 4.23a.805.805 0 0 1-.593.815z"/><path fill="#fff" d="M62.606 41.448a4.504 4.504 0 0 0-5.526 3.173 4.504 4.504 0 0 0 3.172 5.525 4.506 4.506 0 0 0 2.353-8.699"/></svg>