<svg xmlns="http://www.w3.org/2000/svg" width="84" height="69" fill="none"><path fill="#00F" d="M31.5 4.227c-8-1.6-17.333 5.666-21 9.5 1.333-1.187 3-2.447-1 2-5 5.558-6 22.5-5.5 30.5s16 19.5 29.5 20 32 6 42.5-7.5-1-27-4.5-27.5-4.5-2.5-12.5-13-17.5-12-27.5-14"/><path fill="#fff" d="M37.435 21.151c-4.397 0-7.332 1.731-9.2 4.018-1.917 2.348-2.797 5.38-2.797 7.98 0 3.76 3.101 6.857 4.817 10.01.627 1.148 1.184 2.494 1.184 3.987v3.922c6.816.025 11.553 0 11.998 0v-3.922c0-1.493.556-2.839 1.179-3.988 1.736-3.183 4.817-6.244 4.817-10.009 0-2.6-.875-5.632-2.798-7.98-1.867-2.287-4.802-4.018-9.2-4.018"/><path fill="#fff" d="M66.83 24.082C62.53 10.136 49.53 0 34.178 0 15.302 0 0 15.297 0 34.167s15.297 34.177 34.177 34.177h27.376C73.95 68.344 84 58.294 84 45.896c0-10.575-7.317-19.451-17.17-21.814M49.865 49.823c0 7.712.324 8.39-.926 9.397-.618.496-1.417.557-1.559.552-.127-.005-19.866 0-19.892 0-.146.005-.941-.056-1.558-.552-1.28-1.032-.926-1.715-.926-9.397 0-3.648-7.46-9.24-7.46-17.402 0-4.225 1.398-9.154 4.606-13.076 3.269-3.997 8.329-6.816 15.287-6.816s12.018 2.819 15.287 6.816c3.208 3.917 4.605 8.846 4.605 13.076 0 8.142-7.46 13.764-7.46 17.402z"/></svg>