<svg xmlns="http://www.w3.org/2000/svg" width="84" height="68" fill="none"><path fill="#00F" d="M30.18 2.235C22.018.578 12.494 8.1 8.75 12.069c1.361-1.228 3.062-2.533-1.02 2.07-5.102 5.755-6.123 23.293-5.612 31.575.51 8.282 16.327 20.187 30.104 20.704 13.776.518 32.655 6.211 43.37-7.764s-1.02-27.95-4.593-28.469c-3.571-.517-4.592-2.588-12.755-13.457S40.385 4.305 30.18 2.235"/><path fill="#fff" d="M66.83 23.96C62.53 10.086 49.53 0 34.178 0 15.297 0 0 15.22 0 33.995S15.297 68 34.177 68h27.376C73.95 68 84 58 84 45.666c0-10.523-7.317-19.354-17.17-21.705M43.65 45.017a968 968 0 0 0-10.738 10.261c-1.791-1.072-13.374-12.365-13.794-13.372.617-.851 4.822-5.267 6.006-6.178 2.495 2.497 4.995 4.99 7.49 7.487 2.53-2.337 5.08-4.723 7.64-7.165a569 569 0 0 0 12.013-11.801c2.136 2.31 4.266 4.621 6.401 6.932a961 961 0 0 0-15.013 13.831z"/></svg>