<svg xmlns="http://www.w3.org/2000/svg" width="84" height="74" fill="none"><path fill="#00F" d="M31.5 2.227c-8-1.6-17.333 5.666-21 9.5 1.333-1.187 3-2.447-1 2-5 5.558-6 22.5-5.5 30.5s16 19.5 29.5 20 32 6 42.5-7.5-1-27-4.5-27.5-4.5-2.5-12.5-13-17.5-12-27.5-14"/><path fill="#fff" d="M66.833 24.053C62.247 9.171 47.733-1.363 31.03.143 14.284 1.64.94 15.505.05 32.268-.402 40.8 2.27 48.69 7.047 54.898V71.09c0 2.143 2.252 3.554 4.18 2.613l11.148-5.429h38.561c12.186 0 22.904-9.933 23.06-22.105.153-10.706-7.21-19.725-17.165-22.116m-38.84 21.373a4.216 4.216 0 1 1 0-8.432 4.21 4.21 0 0 1 4.22 4.216 4.216 4.216 0 0 1-4.22 4.216m14.008 0a4.22 4.22 0 0 1-4.22-4.216A4.22 4.22 0 0 1 42 36.994c2.328 0 4.22 1.88 4.22 4.216a4.21 4.21 0 0 1-4.22 4.216m14.012 0a4.216 4.216 0 1 1 0-8.432 4.21 4.21 0 0 1 4.22 4.216 4.216 4.216 0 0 1-4.22 4.216"/></svg>