<svg xmlns="http://www.w3.org/2000/svg" width="84" height="68" fill="none"><path fill="#00F" d="M31.5 2.227c-8-1.6-17.333 5.666-21 9.5 1.333-1.187 3-2.447-1 2-5 5.558-6 22.5-5.5 30.5s16 19.5 29.5 20 32 6 42.5-7.5-1-27-4.5-27.5-4.5-2.5-12.5-13-17.5-12-27.5-14"/><path fill="#fff" d="M66.83 23.96C62.53 10.086 49.53 0 34.178 0 15.297 0 0 15.22 0 33.995S15.297 68 34.177 68h27.376C73.95 68 84 58 84 45.666c0-10.523-7.317-19.354-17.17-21.705M34.507 57.096h-2.242c.04-1.43.122-9.738-6.512-16.389-6.908-6.928-15.707-6.65-17.089-6.585.046-.307.076-.66.076-1.058 0-.357-.03-.68-.07-.961 1.426.06 10.15.277 17.088-6.586 7.13-7.053 6.77-16.05 6.694-17.425.284.02.592.035.916.035.344 0 .663-.015.962-.035-.076 1.38-.44 10.377 6.694 17.425 6.902 6.823 15.57 6.626 17.003 6.57a17 17 0 0 1-.066 2.055c-1.386-.06-10.085-.297-16.937 6.56-6.644 6.651-6.553 14.969-6.512 16.389zm35.507-7.05c-.581-.024-3.45-.326-6.32 2.554-2.788 2.789-2.363 6.278-2.343 6.872h-1.973c.015-.6.698-4.083-2.085-6.872-2.9-2.905-5.718-2.578-6.295-2.553.02-.126.015-1.218 0-1.334.597.025 3.385.397 6.295-2.483 2.99-2.96 2.115-6.373 2.085-6.947.121.01 1.847.01 1.973 0-.035.579-.647 3.992 2.343 6.948 2.895 2.86 5.723 2.507 6.32 2.482 0 .13.016 1.198 0 1.334"/></svg>