<svg xmlns="http://www.w3.org/2000/svg" width="50" height="41" fill="none"><path fill="#00F" d="M39.348 14.107C36.815 5.937 29.162 0 20.122 0 9.006 0 0 8.961 0 20.015s9.006 20.021 20.122 20.021H36.24c7.3 0 13.216-5.887 13.216-13.15 0-6.195-4.308-11.394-10.108-12.779M20.316 33.615h-1.32c.024-.841.072-5.733-3.834-9.648-4.067-4.08-9.248-3.916-10.061-3.878.026-.18.044-.388.044-.622 0-.21-.018-.4-.041-.566.84.035 5.976.163 10.06-3.878 4.199-4.153 3.987-9.45 3.942-10.26a7.6 7.6 0 0 0 1.106 0c-.045.813-.26 6.11 3.941 10.26 4.064 4.017 9.168 3.901 10.01 3.869a10 10 0 0 1-.038 1.21c-.816-.037-5.938-.176-9.972 3.862-3.912 3.916-3.858 8.813-3.834 9.648zm20.906-4.15c-.343-.014-2.032-.192-3.721 1.503-1.642 1.643-1.392 3.697-1.38 4.047H34.96c.01-.353.411-2.404-1.227-4.047-1.707-1.71-3.367-1.517-3.706-1.503a10 10 0 0 0 0-.785c.351.015 1.993.234 3.706-1.462 1.76-1.743 1.245-3.752 1.227-4.09.072.006 1.088.006 1.162 0-.02.34-.381 2.35 1.38 4.09 1.704 1.684 3.37 1.477 3.72 1.462 0 .077.01.705 0 .785"/></svg>