<svg xmlns="http://www.w3.org/2000/svg" width="50" height="41" fill="none"><path fill="#00F" d="M22.04 12.454c-2.588 0-4.316 1.018-5.416 2.365-1.129 1.383-1.647 3.167-1.647 4.699 0 2.213 1.826 4.037 2.836 5.893.37.676.697 1.468.697 2.347v2.31c4.013.014 6.802 0 7.064 0v-2.31c0-.879.328-1.671.694-2.347 1.022-1.874 2.837-3.677 2.837-5.893 0-1.532-.516-3.316-1.648-4.699-1.1-1.347-2.827-2.365-5.416-2.365"/><path fill="#00F" d="M39.348 14.179C36.815 5.967 29.162 0 20.122 0 9.01 0 0 9.006 0 20.116S9.006 40.24 20.122 40.24H36.24c7.3 0 13.216-5.917 13.216-13.217 0-6.226-4.308-11.452-10.108-12.843m-9.99 15.155c0 4.54.19 4.94-.545 5.533a1.6 1.6 0 0 1-.918.325c-.074-.003-11.696 0-11.711 0a1.6 1.6 0 0 1-.918-.325c-.754-.608-.545-1.01-.545-5.533 0-2.148-4.392-5.44-4.392-10.246 0-2.487.823-5.39 2.711-7.698 1.925-2.354 4.904-4.013 9-4.013 4.098 0 7.077 1.66 9.001 4.013 1.89 2.306 2.712 5.208 2.712 7.698 0 4.794-4.392 8.104-4.392 10.246z"/></svg>