<svg xmlns="http://www.w3.org/2000/svg" width="50" height="44" fill="none"><path fill="#00F" d="M39.349 14.162A20.11 20.11 0 0 0 18.269.084C8.41.965.553 9.13.03 18.998c-.265 5.024 1.308 9.67 4.12 13.325v9.532a1.713 1.713 0 0 0 2.462 1.54l6.563-3.197h22.704c7.174 0 13.485-5.849 13.577-13.015.09-6.304-4.246-11.613-10.106-13.021M16.482 26.745a2.482 2.482 0 1 1 0-4.964 2.482 2.482 0 1 1 0 4.964m8.247 0a2.486 2.486 0 0 1-2.485-2.482 2.486 2.486 0 0 1 4.97 0 2.48 2.48 0 0 1-2.485 2.482m8.25 0a2.482 2.482 0 1 1 0-4.964 2.482 2.482 0 1 1 0 4.964"/></svg>