<svg xmlns="http://www.w3.org/2000/svg" width="50" height="41" fill="none"><path fill="#00F" d="M39.347 14.177C36.815 5.965 29.16 0 20.121 0 9.007 0 0 9.007 0 20.118 0 31.23 9.01 40.242 20.121 40.242H36.24c7.299 0 13.216-5.917 13.216-13.216 0-6.226-4.307-11.453-10.109-12.846zm-16.306-6.73a4.225 4.225 0 1 1 0 8.45 4.225 4.225 0 0 1 0-8.45M16.003 32.79a2.112 2.112 0 0 1 0-4.222 2.112 2.112 0 0 1 0 4.222m7.038 0a2.11 2.11 0 1 1 0-4.222 2.112 2.112 0 0 1 0 4.222m7.041 0a2.112 2.112 0 1 1 .002-4.223 2.112 2.112 0 0 1-.002 4.223m-.705-7.038H16.706a2.815 2.815 0 0 1-2.816-2.816 4.225 4.225 0 0 1 4.224-4.225h9.855a4.225 4.225 0 0 1 4.224 4.225 2.817 2.817 0 0 1-2.816 2.816"/></svg>