<svg xmlns="http://www.w3.org/2000/svg" width="50" height="41" fill="none"><path fill="#00F" d="M20.12 15.973a4.146 4.146 0 1 0 4.147 4.147 4.146 4.146 0 0 0-4.148-4.147"/><path fill="#00F" d="M39.348 14.179C36.815 5.967 29.162 0 20.122 0 9.01 0 0 9.006 0 20.116S9.006 40.24 20.122 40.24H36.24c7.3 0 13.216-5.917 13.216-13.217 0-6.226-4.308-11.452-10.108-12.846zM28.295 28.056l-3.156 2.291a.73.73 0 0 1-.923-.047l-2.321-2.08a8.3 8.3 0 0 1-1.776.197c-.61 0-1.203-.072-1.775-.197l-2.321 2.08a.736.736 0 0 1-.924.047l-3.155-2.29a.74.74 0 0 1-.241-.895l1.263-2.854a8.2 8.2 0 0 1-1.102-3.375L9.17 19.369a.735.735 0 0 1-.33-.864l1.203-3.71a.735.735 0 0 1 .775-.503l3.107.319a8.3 8.3 0 0 1 2.866-2.089l.653-3.048a.734.734 0 0 1 .72-.58h3.9c.35 0 .647.24.722.58l.652 3.048a8.3 8.3 0 0 1 2.866 2.089l3.108-.32a.736.736 0 0 1 .774.504l1.204 3.71a.734.734 0 0 1-.33.864l-2.694 1.564a8.2 8.2 0 0 1-1.102 3.375l1.263 2.854a.734.734 0 0 1-.241.894zm14.756.274-1.925.516a5.2 5.2 0 0 1-1.245 1.898l.304 1.972a.47.47 0 0 1-.298.512l-2.33.888a.47.47 0 0 1-.563-.185L35.91 32.26a5.3 5.3 0 0 1-1.13-.176 5.3 5.3 0 0 1-1.063-.417l-1.779.897a.47.47 0 0 1-.578-.125l-1.564-1.943a.47.47 0 0 1 0-.593l1.257-1.552a5.3 5.3 0 0 1-.116-2.267l-1.403-1.415a.47.47 0 0 1-.06-.59l1.365-2.089a.47.47 0 0 1 .563-.181l1.865.718a5.3 5.3 0 0 1 2.118-.81l.912-1.773a.47.47 0 0 1 .542-.239l2.407.653c.215.056.358.259.349.48l-.104 1.99a5.3 5.3 0 0 1 1.42 1.77l1.973.32a.47.47 0 0 1 .393.442l.126 2.49a.474.474 0 0 1-.349.48z"/><path fill="#00F" d="M36.86 24.403a2.652 2.652 0 1 0-1.385 5.122 2.652 2.652 0 1 0 1.385-5.122"/></svg>