<svg width="540" height="410" viewBox="0 0 540 410" fill="none" xmlns="http://www.w3.org/2000/svg">
<g clip-path="url(#clip0_718_5171)">
<g filter="url(#filter0_d_718_5171)">
<path d="M386.944 62.0801H152.037C146.307 62.0801 141.662 66.7205 141.662 72.4447V381.981C141.662 387.706 146.307 392.346 152.037 392.346H386.944C392.674 392.346 397.318 387.706 397.318 381.981V72.4447C397.318 66.7205 392.674 62.0801 386.944 62.0801Z" fill="white"/>
</g>
<path d="M397.318 89.7889V68.628C397.318 65.0136 394.389 62.0869 390.771 62.0869H148.21C144.592 62.0869 141.662 65.0136 141.662 68.628V89.7889H397.318Z" fill="#0000FF"/>
<path d="M162.31 76.0051C162.27 78.7497 160.015 80.9413 157.268 80.9076C154.521 80.8671 152.327 78.6148 152.361 75.8702C152.401 73.1526 154.615 70.9678 157.336 70.9678C160.103 70.988 162.331 73.2403 162.31 76.0051Z" fill="white"/>
<path d="M181.879 76.0051C181.838 78.7497 179.584 80.9413 176.836 80.9076C174.089 80.8671 171.895 78.6148 171.929 75.8702C171.97 73.1526 174.184 70.9678 176.904 70.9678C179.671 70.988 181.899 73.2403 181.879 76.0051Z" fill="white"/>
<path d="M200.448 76.0051C200.407 78.7497 198.153 80.9413 195.406 80.9076C192.658 80.8671 190.465 78.6148 190.498 75.8702C190.539 73.1526 192.753 70.9678 195.473 70.9678C198.241 70.988 200.468 73.2403 200.448 76.0051Z" fill="white"/>
<path d="M168.17 106.621H379.04C382.28 106.621 384.899 108.819 384.899 111.537C384.899 114.254 382.273 116.453 379.04 116.453H168.17C164.93 116.453 162.311 114.254 162.311 111.537C162.311 108.819 164.936 106.621 168.17 106.621Z" fill="#DCD8D8"/>
<path d="M244.762 198.297H160.204C157.375 198.297 155.081 200.589 155.081 203.416V293.649C155.081 296.476 157.375 298.768 160.204 298.768H244.762C247.591 298.768 249.885 296.476 249.885 293.649V203.416C249.885 200.589 247.591 198.297 244.762 198.297Z" fill="#DCD8D8"/>
<path d="M334.273 332.842H202.831C194.969 332.842 188.595 339.21 188.595 347.064V353.059C188.595 360.914 194.969 367.281 202.831 367.281H334.273C342.136 367.281 348.509 360.914 348.509 353.059V347.064C348.509 339.21 342.136 332.842 334.273 332.842Z" fill="#DCD8D8"/>
<path d="M379.795 218.777H273.645C270.83 218.777 268.549 221.057 268.549 223.869V226.013C268.549 228.825 270.83 231.104 273.645 231.104H379.795C382.61 231.104 384.892 228.825 384.892 226.013V223.869C384.892 221.057 382.61 218.777 379.795 218.777Z" fill="#DCD8D8"/>
<path d="M358.411 244.288H273.645C270.83 244.288 268.549 246.567 268.549 249.379V251.523C268.549 254.335 270.83 256.615 273.645 256.615H358.411C361.226 256.615 363.508 254.335 363.508 251.523V249.379C363.508 246.567 361.226 244.288 358.411 244.288Z" fill="#DCD8D8"/>
<path d="M321.624 269.798H273.645C270.83 269.798 268.549 272.077 268.549 274.889V277.034C268.549 279.845 270.83 282.125 273.645 282.125H321.624C324.439 282.125 326.72 279.845 326.72 277.034V274.889C326.72 272.077 324.439 269.798 321.624 269.798Z" fill="#DCD8D8"/>
<g filter="url(#filter1_d_718_5171)">
<path d="M162.304 292.321H44.7323C39.8115 292.321 35.8223 288.335 35.8223 283.419V213.699C35.8223 208.783 39.8115 204.798 44.7323 204.798H162.304C167.225 204.798 171.214 208.783 171.214 213.699V283.419C171.214 288.335 167.225 292.321 162.304 292.321Z" fill="white"/>
</g>
<path d="M171.214 217.765V214.508C171.214 209.134 167.542 204.771 163.019 204.771H44.0168C39.4875 204.771 35.8223 209.127 35.8223 214.508V217.758H171.221L171.214 217.765Z" fill="#0000FF"/>
<path d="M47.169 211.285C47.1487 212.849 45.8595 214.104 44.2935 214.077C42.7275 214.056 41.472 212.768 41.499 211.204C41.5192 209.653 42.7882 208.405 44.3407 208.412C45.9135 208.426 47.1825 209.714 47.1757 211.285" fill="white"/>
<path d="M58.3268 211.285C58.3066 212.849 57.0173 214.104 55.4513 214.077C53.8853 214.056 52.6298 212.768 52.6568 211.204C52.677 209.653 53.946 208.405 55.4985 208.412C57.0713 208.426 58.3403 209.714 58.3335 211.285" fill="white"/>
<path d="M68.9108 211.285C68.8905 212.849 67.6013 214.104 66.0353 214.077C64.4693 214.056 63.2138 212.768 63.2408 211.204C63.261 209.653 64.53 208.405 66.0825 208.412C67.6553 208.426 68.9243 209.714 68.9175 211.285" fill="white"/>
<path d="M160.373 241.705H105.523C103.45 241.732 101.749 240.08 101.722 238.009C101.695 235.939 103.349 234.24 105.421 234.213C105.455 234.213 105.489 234.213 105.523 234.213H160.373C162.445 234.186 164.146 235.838 164.173 237.908C164.2 239.978 162.547 241.678 160.474 241.705C160.441 241.705 160.407 241.705 160.373 241.705Z" fill="#DCD8D8"/>
<path d="M160.373 258.9H105.523C103.45 258.9 101.776 257.221 101.776 255.151C101.776 253.087 103.457 251.408 105.523 251.408H160.373C162.445 251.408 164.119 253.087 164.119 255.158C164.119 257.221 162.439 258.9 160.373 258.9Z" fill="#DCD8D8"/>
<path d="M160.373 276.096H105.523C103.451 276.096 101.77 274.417 101.77 272.347C101.77 270.276 103.451 268.597 105.523 268.597H160.373C162.446 268.597 164.126 270.276 164.126 272.347C164.126 274.417 162.446 276.096 160.373 276.096Z" fill="#DCD8D8"/>
<g filter="url(#filter2_d_718_5171)">
<path d="M15.1943 133.769H103.316C108.425 133.769 112.563 137.437 112.563 141.962V171.445C112.563 175.969 108.419 179.638 103.316 179.638H102.614L99.1575 184.938L92.5763 195.04L85.995 184.938L82.539 179.638H15.1943C10.0845 179.638 5.94678 175.969 5.94678 171.445V141.962C5.94678 137.437 10.0913 133.769 15.1943 133.769Z" fill="white"/>
</g>
<path d="M95.2493 150.884L91.2398 142.239L86.8118 150.682L77.3416 151.821L84.0106 158.639L82.1678 167.992L90.72 163.764L99.0496 168.403L97.6658 158.976L104.659 152.496L95.256 150.891L95.2493 150.884Z" fill="#FAB914"/>
<path d="M63.2475 150.884L59.238 142.239L54.81 150.682L45.3397 151.821L52.0087 158.639L50.166 167.992L58.7182 163.764L67.0477 168.403L65.664 158.976L72.657 152.496L63.2542 150.891L63.2475 150.884Z" fill="#FAB914"/>
<path d="M31.779 150.884L27.7695 142.239L23.3415 150.682L13.8645 151.821L20.5335 158.639L18.6908 167.992L27.243 163.764L35.5725 168.403L34.1888 158.976L41.1817 152.489L31.779 150.891V150.884Z" fill="#FAB914"/>
<path d="M70.4565 230.531C84.3075 230.531 95.5327 241.745 95.5327 255.583C95.5327 269.42 84.3075 280.634 70.4565 280.634C56.6055 280.634 45.3802 269.42 45.3802 255.583C45.3802 241.745 56.6055 230.531 70.4565 230.531Z" fill="white"/>
<path d="M64.6111 258.704C66.6023 255.265 69.7613 249.958 70.3216 249.446L70.5983 249.196L70.3216 248.953C70.3216 248.953 68.6206 247.423 68.5463 245.892C68.5193 245.373 68.7083 244.86 69.0661 244.483C69.2821 244.368 69.5318 244.348 69.7681 244.415C70.3823 244.712 70.8413 245.245 71.0438 245.892L71.1923 246.222L72.5423 245.487L72.4748 245.238C72.4411 245.09 71.6311 241.664 74.7158 239.836L77.0243 239.041C77.1121 239.014 78.4351 238.703 79.1776 240.814C79.8728 242.783 81.7223 248.016 80.8178 249.547C80.0011 250.923 78.4891 253.485 73.0216 252.393L72.8933 253.047C73.7371 253.222 74.5943 253.316 75.4516 253.323C79.3598 253.323 80.6896 251.071 81.3916 249.884C82.3298 248.299 81.1148 244.294 79.8053 240.585C78.8333 237.827 76.8421 238.393 76.8286 238.4H76.8151L74.4323 239.223L74.4053 239.236C72.9676 240.045 71.9956 241.482 71.7661 243.114C71.6648 243.788 71.6716 244.469 71.7796 245.143L71.4961 245.299C71.2126 244.597 70.6456 244.038 69.9368 243.768C69.5048 243.646 69.0458 243.707 68.6611 243.943L68.6273 243.963L68.6003 243.99C68.1008 244.503 67.8376 245.204 67.8713 245.919C67.9388 247.362 69.1133 248.697 69.6331 249.223C68.4113 250.794 64.4963 257.551 64.0238 258.374L64.6043 258.704H64.6111Z" fill="#0000FF"/>
<path d="M73.9287 252.956L73.2634 253.02L73.7936 258.571L74.4588 258.508L73.9287 252.956Z" fill="#0000FF"/>
<path d="M78.6443 238.636C78.2595 238.758 77.9895 238.818 77.9895 238.818C77.706 238.67 77.382 238.623 77.0648 238.677C76.113 238.96 75.1748 239.31 74.2703 239.722C73.2173 240.477 72.468 241.583 72.1643 242.844C71.9483 243.653 71.9483 244.51 72.1643 245.319L71.3543 245.757C71.3543 245.757 70.5173 243.532 69.1133 244.105C67.7093 244.678 68.4518 246.91 68.4518 246.91C68.8973 247.747 69.4508 248.522 70.1123 249.203L67.7498 252.838C67.7498 252.838 63.1935 250.842 62.6333 249.864C62.073 248.886 60.3855 245.737 61.6815 240.43C62.802 235.838 67.3043 234.786 68.4855 234.583H68.526C68.6813 234.55 68.769 234.543 68.769 234.543C68.769 234.543 68.8568 234.536 69.0053 234.529C69.2415 234.516 69.6398 234.496 70.1055 234.496C70.9763 234.475 71.8403 234.556 72.6908 234.752C72.738 234.765 72.792 234.779 72.8393 234.792V234.779C75.006 235.197 77.0513 236.06 78.8603 237.314C79.1978 237.55 79.2855 238.016 79.0493 238.353C78.9548 238.488 78.8198 238.589 78.6578 238.643" fill="#0000FF"/>
<path d="M68.7556 234.543C68.7556 234.543 68.8433 234.536 68.9918 234.529C68.7488 234.55 68.5801 234.57 68.5126 234.583C68.6678 234.556 68.7623 234.55 68.7623 234.55" fill="#0000FF"/>
<path d="M72.6773 234.745C71.8268 234.59 70.9628 234.502 70.092 234.489C70.9628 234.469 71.8268 234.55 72.6773 234.745Z" fill="#0000FF"/>
<path d="M74.0408 258.55L73.9598 258.914C74.0611 258.934 74.1623 258.961 74.2636 258.988C80.7706 260.546 86.1841 265.017 88.9448 271.099C89.1203 271.484 89.2823 271.875 89.4308 272.266C89.5928 272.077 89.7548 271.888 89.9033 271.699C89.7413 271.308 89.5726 270.917 89.3903 270.533C86.4878 264.43 81.0001 259.952 74.4323 258.341C74.3243 258.314 74.2163 258.287 74.1016 258.26L74.0813 258.341L74.0408 258.543V258.55Z" fill="#0000FF"/>
<path d="M49.1469 269.784C49.2886 270 49.4371 270.216 49.5924 270.425C49.7814 270.047 49.9771 269.676 50.1931 269.312C53.1901 264.086 58.2189 260.33 64.0846 258.934C64.2196 258.9 64.3546 258.867 64.4964 258.84L64.4491 258.604L64.4086 258.428L64.3546 258.192C64.2736 258.213 64.1926 258.226 64.1116 258.246C59.2314 259.359 54.8574 262.063 51.6849 265.934C50.9829 266.797 50.3416 267.707 49.7746 268.665C49.5586 269.029 49.3494 269.4 49.1536 269.778" fill="#0000FF"/>
<path d="M69.2348 262.589C71.7255 262.582 73.8788 260.842 74.412 258.415L73.7573 258.273C73.2915 260.397 71.4083 261.914 69.228 261.921C66.798 261.921 64.9553 260.505 64.6448 258.394L63.9833 258.489C64.3478 260.937 66.4538 262.582 69.2213 262.582" fill="#0000FF"/>
<path d="M70.2271 230.531C84.1928 230.524 95.5261 241.833 95.5328 255.785C95.5328 261.577 93.5483 267.195 89.8965 271.693C89.7413 271.888 89.5793 272.077 89.424 272.259C80.3453 282.853 64.3816 284.087 53.7841 275.01C52.2046 273.655 50.7938 272.111 49.5923 270.418C49.4438 270.209 49.2953 269.993 49.1536 269.777C41.4248 258.152 44.5906 242.467 56.2276 234.745C60.3788 231.994 65.2523 230.524 70.2338 230.524M49.7678 268.665C49.9028 268.881 50.0446 269.096 50.1931 269.305C57.6451 280.358 72.6571 283.291 83.7203 275.846C85.6846 274.525 87.4463 272.92 88.938 271.092C89.0933 270.904 89.2418 270.721 89.3903 270.526C97.5375 259.952 95.5598 244.786 84.9758 236.654C74.3918 228.514 59.2111 230.49 51.0706 241.064C44.8943 249.082 44.3746 260.101 49.7678 268.665Z" fill="#0000FF"/>
<path d="M220.09 138.935H374.389C377.649 138.935 380.295 141.578 380.295 144.835C380.295 148.092 377.649 150.736 374.389 150.736H220.09C216.83 150.736 214.184 148.092 214.184 144.835C214.184 141.578 216.83 138.935 220.09 138.935Z" fill="#DCD8D8"/>
<path d="M220.09 157.614H322.238C325.498 157.614 328.144 160.257 328.144 163.514C328.144 166.771 325.498 169.415 322.238 169.415H220.09C216.83 169.415 214.184 166.771 214.184 163.514C214.184 160.257 216.83 157.614 220.09 157.614Z" fill="#DCD8D8"/>
<g filter="url(#filter3_d_718_5171)">
<path d="M184.14 176.091C195.656 176.091 204.991 166.765 204.991 155.261C204.991 143.756 195.656 134.43 184.14 134.43C172.624 134.43 163.289 143.756 163.289 155.261C163.289 166.765 172.624 176.091 184.14 176.091Z" fill="#FE7A05"/>
</g>
<path d="M184.126 165.409C181.649 165.409 179.179 165.409 176.701 165.409C175.939 165.409 175.675 165.106 175.743 164.357C176.033 161.188 176.317 158.019 176.6 154.842C176.722 153.527 176.836 152.213 176.965 150.898C177.019 150.345 177.262 150.136 177.829 150.129C178.517 150.122 179.206 150.115 179.894 150.129C180.164 150.129 180.265 150.061 180.252 149.778C180.238 149.293 180.225 148.8 180.306 148.315C180.643 146.366 182.405 144.977 184.403 145.098C186.347 145.22 187.947 146.858 188.014 148.814C188.028 149.144 188.035 149.475 188.014 149.805C188.001 150.048 188.075 150.129 188.325 150.122C189 150.109 189.675 150.115 190.35 150.122C191.018 150.122 191.241 150.311 191.308 150.965C191.518 153.19 191.713 155.409 191.916 157.634C192.118 159.86 192.314 162.085 192.523 164.303C192.598 165.106 192.355 165.396 191.545 165.396C189.067 165.396 186.597 165.396 184.12 165.396L184.126 165.409ZM184.113 163.953C186.266 163.953 188.426 163.946 190.579 163.96C190.944 163.96 191.011 163.865 190.978 163.514C190.795 161.633 190.64 159.752 190.471 157.87C190.289 155.867 190.107 153.871 189.931 151.869C189.911 151.633 189.817 151.585 189.614 151.592C189.175 151.606 188.743 151.606 188.305 151.592C188.068 151.585 188.008 151.673 188.021 151.889C188.035 152.219 188.035 152.55 188.021 152.88C188.001 153.318 187.704 153.608 187.292 153.615C186.88 153.615 186.59 153.339 186.57 152.887C186.556 152.543 186.556 152.199 186.57 151.855C186.57 151.673 186.516 151.599 186.32 151.599C184.862 151.599 183.411 151.599 181.953 151.599C181.764 151.599 181.696 151.666 181.703 151.855C181.71 152.172 181.71 152.489 181.703 152.806C181.69 153.318 181.42 153.615 180.981 153.615C180.542 153.615 180.259 153.305 180.252 152.806C180.252 152.502 180.238 152.199 180.252 151.896C180.265 151.68 180.211 151.585 179.968 151.592C179.516 151.612 179.071 151.606 178.618 151.592C178.416 151.592 178.355 151.66 178.335 151.862C177.991 155.773 177.646 159.677 177.282 163.582C177.255 163.906 177.356 163.953 177.64 163.953C179.793 163.946 181.953 163.953 184.106 163.953H184.113ZM184.099 150.129C184.815 150.129 185.524 150.122 186.239 150.129C186.502 150.129 186.59 150.048 186.577 149.785C186.55 149.4 186.577 149.016 186.529 148.638C186.388 147.458 185.362 146.568 184.16 146.548C182.959 146.535 181.899 147.438 181.75 148.632C181.703 148.996 181.73 149.367 181.703 149.738C181.683 150.028 181.771 150.136 182.074 150.122C182.749 150.102 183.424 150.122 184.093 150.122L184.099 150.129Z" fill="#FDE6CC"/>
<g filter="url(#filter4_d_718_5171)">
<path d="M515.383 11.3896H312.89C309.288 11.3896 306.369 14.3061 306.369 17.9038V117.572C306.369 121.169 309.288 124.086 312.89 124.086H515.383C518.984 124.086 521.903 121.169 521.903 117.572V17.9038C521.903 14.3061 518.984 11.3896 515.383 11.3896Z" fill="white"/>
</g>
<path d="M369.812 30.4805H439.128C442.071 30.4805 444.461 32.8676 444.461 35.8078C444.461 38.7479 442.071 41.1351 439.128 41.1351H369.812C366.869 41.1351 364.48 38.7479 364.48 35.8078C364.48 32.8676 366.869 30.4805 369.812 30.4805Z" fill="#DCD8D8"/>
<path d="M333.031 75.9375H497.671C500.614 75.9375 503.003 78.3247 503.003 81.2648C503.003 84.2049 500.614 86.5921 497.671 86.5921H333.031C330.088 86.5921 327.699 84.2049 327.699 81.2648C327.699 78.3247 330.088 75.9375 333.031 75.9375Z" fill="#DCD8D8"/>
<path d="M333.031 94.3335H402.347C405.29 94.3335 407.68 96.7207 407.68 99.6608C407.68 102.601 405.29 104.988 402.347 104.988H333.031C330.088 104.988 327.699 102.601 327.699 99.6608C327.699 96.7207 330.088 94.3335 333.031 94.3335Z" fill="#DCD8D8"/>
<path d="M369.812 47.3525H392.027C394.97 47.3525 397.359 49.7397 397.359 52.6798C397.359 55.62 394.97 58.0071 392.027 58.0071H369.812C366.869 58.0071 364.48 55.62 364.48 52.6798C364.48 49.7397 366.869 47.3525 369.812 47.3525Z" fill="#DCD8D8"/>
<path d="M353.774 54.3586C353.457 54.4327 353.309 54.4867 353.288 54.4597C350.507 50.3125 346.396 50.0428 341.921 50.272C337.419 50.5081 332.896 50.272 328.381 50.353C326.902 50.3799 326.194 50.1709 326.248 48.4176C326.376 43.913 326.336 39.4084 326.261 34.9038C326.241 33.5753 326.592 33.1235 327.989 33.137C335.981 33.1977 343.98 33.1707 351.972 33.1572C352.958 33.1572 353.801 33.0696 353.795 34.5329C353.741 41.1617 353.774 47.7837 353.774 54.3586Z" fill="#F23147"/>
<path d="M350.75 43.6768C348.084 43.6768 345.418 43.6768 342.751 43.6768C339.282 43.6768 335.806 43.6836 332.336 43.6634C331.837 43.6634 331.047 43.8859 331.087 43.0295C331.121 42.2068 331.904 42.4698 332.397 42.463C338.215 42.4428 344.034 42.4495 349.852 42.463C350.17 42.463 350.48 42.6788 350.791 42.7867C350.777 43.0767 350.764 43.3734 350.75 43.6634V43.6768Z" fill="white"/>
<path d="M336.251 38.4844C334.841 38.4844 333.43 38.4844 332.019 38.4844C331.533 38.4844 331.054 38.4372 331.081 37.7831C331.115 37.1088 331.614 37.1695 332.093 37.1695C334.82 37.1762 337.547 37.1762 340.274 37.1762C340.727 37.1762 341.273 37.0481 341.334 37.7224C341.415 38.6126 340.727 38.4777 340.2 38.4844C338.884 38.4979 337.568 38.4844 336.251 38.4844Z" fill="white"/>
</g>
<defs>
<filter id="filter0_d_718_5171" x="132.662" y="53.0801" width="283.656" height="358.266" filterUnits="userSpaceOnUse" color-interpolation-filters="sRGB">
<feFlood flood-opacity="0" result="BackgroundImageFix"/>
<feColorMatrix in="SourceAlpha" type="matrix" values="0 0 0 0 0 0 0 0 0 0 0 0 0 0 0 0 0 0 127 0" result="hardAlpha"/>
<feOffset dx="5" dy="5"/>
<feGaussianBlur stdDeviation="7"/>
<feColorMatrix type="matrix" values="0 0 0 0 0 0 0 0 0 0 0 0 0 0 0 0 0 0 0.25 0"/>
<feBlend mode="normal" in2="BackgroundImageFix" result="effect1_dropShadow_718_5171"/>
<feBlend mode="normal" in="SourceGraphic" in2="effect1_dropShadow_718_5171" result="shape"/>
</filter>
<filter id="filter1_d_718_5171" x="32.8223" y="201.798" width="155.391" height="107.523" filterUnits="userSpaceOnUse" color-interpolation-filters="sRGB">
<feFlood flood-opacity="0" result="BackgroundImageFix"/>
<feColorMatrix in="SourceAlpha" type="matrix" values="0 0 0 0 0 0 0 0 0 0 0 0 0 0 0 0 0 0 127 0" result="hardAlpha"/>
<feOffset dx="7" dy="7"/>
<feGaussianBlur stdDeviation="5"/>
<feColorMatrix type="matrix" values="0 0 0 0 0.658824 0 0 0 0 0.658824 0 0 0 0 0.658824 0 0 0 0.25 0"/>
<feBlend mode="normal" in2="BackgroundImageFix" result="effect1_dropShadow_718_5171"/>
<feBlend mode="normal" in="SourceGraphic" in2="effect1_dropShadow_718_5171" result="shape"/>
</filter>
<filter id="filter2_d_718_5171" x="2.94678" y="130.769" width="126.616" height="81.2705" filterUnits="userSpaceOnUse" color-interpolation-filters="sRGB">
<feFlood flood-opacity="0" result="BackgroundImageFix"/>
<feColorMatrix in="SourceAlpha" type="matrix" values="0 0 0 0 0 0 0 0 0 0 0 0 0 0 0 0 0 0 127 0" result="hardAlpha"/>
<feOffset dx="7" dy="7"/>
<feGaussianBlur stdDeviation="5"/>
<feColorMatrix type="matrix" values="0 0 0 0 0.658824 0 0 0 0 0.658824 0 0 0 0 0.658824 0 0 0 0.25 0"/>
<feBlend mode="normal" in2="BackgroundImageFix" result="effect1_dropShadow_718_5171"/>
<feBlend mode="normal" in="SourceGraphic" in2="effect1_dropShadow_718_5171" result="shape"/>
</filter>
<filter id="filter3_d_718_5171" x="151.289" y="122.43" width="65.7015" height="65.6606" filterUnits="userSpaceOnUse" color-interpolation-filters="sRGB">
<feFlood flood-opacity="0" result="BackgroundImageFix"/>
<feColorMatrix in="SourceAlpha" type="matrix" values="0 0 0 0 0 0 0 0 0 0 0 0 0 0 0 0 0 0 127 0" result="hardAlpha"/>
<feOffset/>
<feGaussianBlur stdDeviation="6"/>
<feColorMatrix type="matrix" values="0 0 0 0 0.658824 0 0 0 0 0.658824 0 0 0 0 0.658824 0 0 0 0.45 0"/>
<feBlend mode="normal" in2="BackgroundImageFix" result="effect1_dropShadow_718_5171"/>
<feBlend mode="normal" in="SourceGraphic" in2="effect1_dropShadow_718_5171" result="shape"/>
</filter>
<filter id="filter4_d_718_5171" x="297.369" y="2.38965" width="243.534" height="140.696" filterUnits="userSpaceOnUse" color-interpolation-filters="sRGB">
<feFlood flood-opacity="0" result="BackgroundImageFix"/>
<feColorMatrix in="SourceAlpha" type="matrix" values="0 0 0 0 0 0 0 0 0 0 0 0 0 0 0 0 0 0 127 0" result="hardAlpha"/>
<feOffset dx="5" dy="5"/>
<feGaussianBlur stdDeviation="7"/>
<feColorMatrix type="matrix" values="0 0 0 0 0 0 0 0 0 0 0 0 0 0 0 0 0 0 0.25 0"/>
<feBlend mode="normal" in2="BackgroundImageFix" result="effect1_dropShadow_718_5171"/>
<feBlend mode="normal" in="SourceGraphic" in2="effect1_dropShadow_718_5171" result="shape"/>
</filter>
<clipPath id="clip0_718_5171">
<rect width="540" height="410" fill="white"/>
</clipPath>
</defs>
</svg>
